<?xml version="1.0" encoding="utf-8"?>
<!-- Generator: Adobe Illustrator 27.0.0, SVG Export Plug-In . SVG Version: 6.00 Build 0)  -->
<svg version="1.1" id="Layer_1" xmlns="http://www.w3.org/2000/svg" xmlns:xlink="http://www.w3.org/1999/xlink" x="0px" y="0px"
	 viewBox="0 0 23 23" style="enable-background:new 0 0 23 23;" xml:space="preserve">
<style type="text/css">
	.st0{fill:#0D9ECD;}
</style>
<path class="st0" d="M20.2,16.2c-0.4-0.4-1-0.7-1.5-0.8c-0.6-0.1-1.2,0-1.7,0.2l-1.1-1.1c2.3-2.4,4-5.3,5-8.5
	c0.2-0.5,0.2-1.1,0.1-1.7c-0.1-0.6-0.4-1.1-0.8-1.5c-0.4-0.4-0.9-0.7-1.5-0.8c-0.6-0.1-1.2-0.1-1.7,0.1c-3.2,1-6.1,2.7-8.5,5L7.4,6
	c0.2-0.5,0.3-1,0.3-1.5C7.6,4,7.4,3.5,7.1,3C6.8,2.6,6.3,2.3,5.8,2.1c-0.5-0.2-1-0.2-1.5-0.2C3.8,2,3.3,2.3,2.9,2.6S2.2,3.4,2,3.9
	C1.9,4.4,1.9,5,2,5.5s0.4,1,0.8,1.4c0.5,0.5,1.3,0.8,2,0.8c0.4,0,0.8-0.1,1.2-0.3l1.1,1.1c-2.3,2.4-4,5.3-5,8.5
	c-0.2,0.5-0.2,1.1-0.1,1.7c0.1,0.6,0.4,1.1,0.8,1.5c0.3,0.3,0.6,0.5,1,0.7C4.2,21,4.6,21.1,5,21.1c0.4,0,0.7-0.1,1-0.2
	c3.2-1,6.1-2.7,8.5-5l1.1,1.1c-0.2,0.5-0.3,1-0.3,1.5c0.1,0.5,0.3,1,0.6,1.4c0.3,0.4,0.7,0.7,1.2,0.9c0.5,0.2,1,0.2,1.5,0.2
	c0.5-0.1,1-0.3,1.4-0.7c0.4-0.3,0.7-0.8,0.8-1.3c0.2-0.5,0.2-1,0-1.6C20.9,17.1,20.6,16.6,20.2,16.2L20.2,16.2z M5.5,5.5
	C5.3,5.6,5,5.7,4.8,5.7c-0.3,0-0.5-0.1-0.7-0.3C3.9,5.3,3.8,5,3.8,4.8c0-0.3,0.1-0.5,0.3-0.7c0.2-0.2,0.4-0.3,0.7-0.3
	c0.3,0,0.5,0.1,0.7,0.3c0.2,0.2,0.3,0.4,0.3,0.7C5.8,5,5.7,5.3,5.5,5.5z M17.5,4c0.1,0,0.3-0.1,0.5-0.1c0.1,0,0.3,0,0.4,0.1
	c0.1,0.1,0.3,0.1,0.4,0.2c0.2,0.2,0.3,0.4,0.3,0.6c0,0.2,0,0.4-0.1,0.7c-0.5,1.6-1.2,3-2,4.4L13.1,6C14.5,5.1,16,4.5,17.5,4z
	 M5.5,19c-0.2,0.1-0.4,0.1-0.7,0.1c-0.2,0-0.4-0.2-0.6-0.3c-0.2-0.2-0.3-0.4-0.3-0.6c0-0.2,0-0.4,0.1-0.7c0.5-1.6,1.2-3,2-4.4
	L9.9,17C8.5,17.9,7,18.5,5.5,19z M11.5,15.9l-4.4-4.4c0.4-0.6,0.9-1.1,1.4-1.7l4.7,4.7C12.6,15,12.1,15.5,11.5,15.9z M14.5,13.2
	L9.8,8.5c0.5-0.5,1.1-0.9,1.7-1.4l4.4,4.4C15.5,12.1,15,12.6,14.5,13.2L14.5,13.2z M18.9,18.9c-0.1,0.1-0.2,0.2-0.3,0.2
	c-0.1,0-0.2,0.1-0.4,0.1c-0.1,0-0.3,0-0.4-0.1c-0.1,0-0.2-0.1-0.3-0.2c-0.1-0.1-0.2-0.2-0.2-0.3c0-0.1-0.1-0.2-0.1-0.4
	c0-0.1,0-0.3,0.1-0.4s0.1-0.2,0.2-0.3c0.2-0.2,0.4-0.3,0.7-0.3c0.3,0,0.5,0.1,0.7,0.3c0.2,0.2,0.3,0.4,0.3,0.7
	C19.1,18.5,19.1,18.7,18.9,18.9L18.9,18.9z"/>
</svg>
