<svg width="23" height="23" viewBox="0 0 23 23" fill="none" xmlns="http://www.w3.org/2000/svg">
<path d="M20.24 16.1767C19.8201 15.7601 19.2818 15.4831 18.6987 15.3837C18.1156 15.2842 17.516 15.367 16.9817 15.6208L15.8796 14.5283C18.1375 12.0918 19.8409 9.19512 20.8725 6.03749C21.0683 5.49198 21.1049 4.90205 20.9782 4.33649C20.8515 3.77093 20.5666 3.25305 20.1568 2.84323C19.7469 2.4334 19.2291 2.14852 18.6635 2.0218C18.098 1.89507 17.508 1.93173 16.9625 2.12749C13.8049 3.15911 10.9082 4.86247 8.47167 7.12041L7.37917 6.01833C7.60614 5.54212 7.69771 5.01265 7.64386 4.48788C7.59 3.96311 7.39281 3.46328 7.07386 3.0431C6.75491 2.62291 6.32649 2.29859 5.83553 2.10562C5.34456 1.91266 4.80997 1.85849 4.29028 1.94906C3.77058 2.03963 3.28583 2.27144 2.88908 2.61911C2.49233 2.96678 2.19889 3.41691 2.04088 3.92021C1.88287 4.42352 1.86638 4.96059 1.99322 5.47264C2.12006 5.98469 2.38533 6.45197 2.76001 6.82333C3.29866 7.36265 4.02943 7.66599 4.79167 7.66666C5.21679 7.6627 5.63574 7.56451 6.01834 7.37916L7.12042 8.47166C4.86248 10.9082 3.15912 13.8049 2.12751 16.9625C1.94783 17.5072 1.92256 18.0911 2.0545 18.6493C2.18645 19.2076 2.47045 19.7183 2.87501 20.125C3.14896 20.4171 3.47796 20.6521 3.84308 20.8166C4.20819 20.981 4.60222 21.0717 5.00251 21.0833C5.35362 21.08 5.70235 21.0251 6.03751 20.9204C9.19514 19.8888 12.0918 18.1854 14.5283 15.9275L15.6208 17.0296C15.3939 17.5058 15.3023 18.0352 15.3562 18.56C15.41 19.0848 15.6072 19.5846 15.9262 20.0048C16.2451 20.425 16.6735 20.7493 17.1645 20.9423C17.6554 21.1352 18.19 21.1894 18.7097 21.0988C19.2294 21.0083 19.7142 20.7765 20.1109 20.4288C20.5077 20.0811 20.8011 19.631 20.9591 19.1277C21.1171 18.6244 21.1336 18.0873 21.0068 17.5753C20.88 17.0632 20.6147 16.5959 20.24 16.2246V16.1767ZM5.47209 5.46249C5.2929 5.64295 5.04937 5.74484 4.79506 5.74573C4.54075 5.74663 4.2965 5.64647 4.11605 5.46729C3.93559 5.2881 3.8337 5.04456 3.83281 4.79026C3.83191 4.53595 3.93207 4.2917 4.11126 4.11124C4.29044 3.93079 4.53398 3.8289 4.78828 3.828C5.04259 3.8271 5.28684 3.92727 5.4673 4.10645C5.64775 4.28564 5.74964 4.52917 5.75054 4.78348C5.75144 5.03779 5.65128 5.28204 5.47209 5.46249ZM17.5471 3.95791C17.6926 3.91 17.8444 3.88416 17.9975 3.88124C18.1451 3.88004 18.2914 3.90823 18.428 3.96417C18.5645 4.02011 18.6886 4.10269 18.7929 4.20708C18.9491 4.36926 19.0556 4.57277 19.0997 4.79355C19.1439 5.01433 19.1239 5.24314 19.0421 5.45291C18.5358 7.00905 17.8508 8.50123 17.0008 9.89958L13.1004 5.99916C14.4988 5.14917 15.991 4.46418 17.5471 3.95791ZM5.45292 19.0421C5.24394 19.1257 5.01499 19.1462 4.79448 19.101C4.57396 19.0557 4.37157 18.9468 4.2124 18.7876C4.05322 18.6284 3.94426 18.426 3.89903 18.2055C3.85379 17.985 3.87427 17.7561 3.95792 17.5471C4.46419 15.9909 5.14918 14.4988 5.99917 13.1004L9.89959 17.0008C8.50124 17.8508 7.00906 18.5358 5.45292 19.0421ZM11.5 15.8987L7.10126 11.5C7.52832 10.9204 7.98577 10.3638 8.47167 9.83249L13.1771 14.5379C12.6425 15.0208 12.0827 15.4751 11.5 15.8987ZM14.5188 13.1771L9.82292 8.47166C10.3573 7.98549 10.9171 7.52804 11.5 7.10124L15.9083 11.5096C15.4782 12.0894 15.0175 12.6461 14.5283 13.1771H14.5188ZM18.8792 18.9271C18.7904 19.0164 18.685 19.0874 18.5688 19.136C18.4527 19.1846 18.3281 19.2099 18.2021 19.2103C18.0762 19.2108 17.9515 19.1864 17.8349 19.1386C17.7184 19.0909 17.6125 19.0206 17.5231 18.9319C17.4338 18.8431 17.3628 18.7377 17.3142 18.6215C17.2656 18.5054 17.2403 18.3808 17.2399 18.2548C17.2394 18.1289 17.2638 18.0041 17.3116 17.8876C17.3594 17.7711 17.4296 17.6652 17.5183 17.5758C17.6979 17.3973 17.9408 17.2972 18.194 17.2972C18.4471 17.2972 18.69 17.3973 18.8696 17.5758C19.0393 17.7511 19.1358 17.9845 19.1394 18.2285C19.1429 18.4724 19.0533 18.7086 18.8888 18.8887L18.8792 18.9271Z" fill="#242238"/>
</svg>
