<svg version="1.2" xmlns="http://www.w3.org/2000/svg" viewBox="0 0 128 50" width="128" height="50">
	<style>
		.s0 { fill: #ffffff } 
	</style>
	<path class="s0" d="m32.56 21.16v2.49h30.06l-0.01-5.26h0.58c0.4 0.01 0.52 0.05 0.52 0.69v4.57h15.55v-1.23c1.26 0.65 3.21 1.23 5.77 1.23h6.54l1.4-3.2h3.11l1.37 3.2h12.6v-3.04l1.91 3.04h10.1v-20.12h-10v2.38l-1.39-2.38h-10.26v2.38l-1.29-2.38h-13.85c-2.32 0-4.36 0.31-6.01 1.18v-1.18h-9.56v1.18c-1.05-0.89-2.48-1.18-4.06-1.18h-34.94l-2.34 5.2-2.41-5.2h-11v2.38l-1.21-2.38h-9.38l-4.36 9.57v7.65l6.44-14.43h5.35l6.12 13.66v-13.66h5.87l4.71 9.79 4.33-9.79h5.99v14.43h-3.69l-0.01-11.3-5.22 11.3h-3.16l-5.23-11.31v11.31h-7.32l-1.38-3.22h-7.49l-1.4 3.22h-3.91v2.9h6.15l1.38-3.2h3.11l1.38 3.2h12.1v-2.45l1.08 2.46h6.28c0 0 1.08-2.5 1.08-2.5zm23.42-14.84h8.27c1.84 0 3.2 0.05 4.36 0.7 1.14 0.64 1.82 1.58 1.82 3.19 0 2.3-1.6 3.49-2.54 3.84 0.79 0.29 1.46 0.8 1.78 1.22 0.51 0.72 0.6 1.36 0.6 2.64v2.84h-3.63l-0.01-1.82c0-0.87 0.08-2.12-0.57-2.81-0.53-0.51-1.33-0.62-2.62-0.62h-3.87v5.25h-3.59zm-46.87 2.46l-2.45 5.75h4.91zm114 36.84h-6.95v-3.1h6.92c0.69 0 1.17-0.08 1.46-0.35 0.27-0.25 0.43-0.59 0.43-0.94 0-0.43-0.18-0.76-0.44-0.96-0.27-0.22-0.65-0.32-1.27-0.32-3.38-0.11-7.6 0.1-7.6-4.46 0-2.1 1.39-4.3 5.17-4.3h7.16v-2.87h-6.65c-2.01 0-3.47 0.46-4.51 1.18v-1.18h-9.85c-1.57 0-3.42 0.37-4.3 1.18v-1.18h-17.59v1.18c-1.4-0.97-3.76-1.18-4.85-1.18h-11.6v1.18c-1.11-1.03-3.57-1.18-5.07-1.18h-12.99l-2.97 3.08-2.78-3.08h-19.4v20.13h19.03l3.06-3.13 2.89 3.13 11.73 0.01v-4.73h1.15c1.56 0.02 3.4-0.04 5.02-0.71v5.43h9.67v-5.25h0.47c0.59 0 0.65 0.03 0.65 0.6v4.65h29.4c1.86 0 3.81-0.46 4.89-1.29v1.29h9.33c1.94 0 3.83-0.26 5.27-0.93v-3.75c-0.87 1.23-2.57 1.85-4.88 1.85zm-59.66-4.76h-4.49v4.84h-7l-4.43-4.77-4.6 4.77h-14.25v-14.42h14.47l4.42 4.72 4.58-4.72h11.5c2.85 0 6.06 0.75 6.06 4.75 0 4.01-3.12 4.83-6.26 4.83zm21.59-0.65c0.51 0.7 0.58 1.36 0.59 2.63v2.86h-3.61v-1.8c0-0.87 0.09-2.16-0.58-2.83-0.53-0.51-1.33-0.64-2.64-0.64h-3.85v5.27h-3.61v-14.42h8.3c1.83 0 3.15 0.07 4.33 0.68 1.14 0.65 1.85 1.55 1.85 3.2 0 2.3-1.6 3.48-2.55 3.84 0.81 0.28 1.46 0.79 1.77 1.21zm14.86-5.95h-8.43v2.62h8.22v2.95h-8.22v2.87l8.43 0.01v2.99h-12.01v-14.42h12.01zm9.25 11.44h-7.01v-3.1h6.98c0.68 0 1.17-0.08 1.47-0.35 0.25-0.23 0.42-0.55 0.42-0.94 0-0.42-0.19-0.76-0.44-0.96-0.27-0.22-0.65-0.32-1.28-0.32-3.36-0.11-7.58 0.1-7.58-4.46 0-2.1 1.38-4.3 5.15-4.3h7.21v3.07h-6.6c-0.65 0-1.08 0.03-1.44 0.26-0.39 0.24-0.54 0.58-0.54 1.04 0 0.55 0.33 0.92 0.79 1.08 0.38 0.12 0.78 0.16 1.4 0.16l1.93 0.05c1.96 0.04 3.3 0.37 4.11 1.16 0.7 0.69 1.08 1.57 1.08 3.06 0 3.1-2.02 4.55-5.65 4.55zm-27.91-11.21c-0.44-0.25-1.08-0.26-1.72-0.26h-4.43v3.24h4.37c0.7 0 1.3-0.03 1.78-0.3 0.47-0.27 0.74-0.77 0.74-1.38 0-0.62-0.27-1.07-0.74-1.3zm40.2-0.26c-0.65 0-1.09 0.02-1.45 0.26-0.38 0.23-0.53 0.58-0.53 1.04 0 0.54 0.32 0.91 0.79 1.07 0.38 0.13 0.79 0.16 1.38 0.16l1.96 0.05c1.96 0.05 3.28 0.38 4.08 1.17 0.14 0.11 0.23 0.23 0.33 0.35v-4.1h-6.56zm-57.87 0h-4.69v3.67h4.65c1.38 0 2.24-0.66 2.24-1.9 0-1.26-0.9-1.77-2.2-1.77zm-31.31 0v2.62h7.9v2.94h-7.9v2.87h8.85l4.11-4.23-3.94-4.2zm23.1 10.09v-11.57l-5.52 5.69zm24.57-36.32c1.16-1.15 2.98-1.68 5.46-1.68h3.49v3.09h-3.41c-1.31 0-2.06 0.19-2.77 0.85-0.61 0.61-1.04 1.76-1.04 3.27q0 2.31 0.99 3.39c0.56 0.57 1.56 0.74 2.51 0.74h1.62l5.07-11.34h5.39l6.09 13.64v-13.64h5.48l6.33 10.04v-10.04h3.68v14.42h-5.1l-6.82-10.82v10.82h-7.33l-1.4-3.22h-7.47l-1.36 3.22h-4.21c-1.75 0-3.96-0.37-5.22-1.59-1.26-1.23-1.92-2.89-1.92-5.51 0-2.14 0.39-4.09 1.94-5.64zm14.53 0.78l-2.48 5.75h4.97zm-21.93-2.46h3.67v14.42h-3.67zm-6.65 6.03c0.47-0.24 0.74-0.74 0.74-1.37 0-0.62-0.29-1.07-0.75-1.28-0.43-0.23-1.08-0.26-1.71-0.26h-4.43v3.21h4.37c0.7 0 1.29-0.01 1.78-0.3zm-24.41-6.03h12.02v3.01h-8.42v2.6h8.22v2.95h-8.22v2.88h8.42v2.99h-12.02z"/>
</svg>