<svg width="39" height="19" viewBox="0 0 39 19" fill="none" xmlns="http://www.w3.org/2000/svg">
<path d="M37.3363 3.99112L23.7654 0.313414C21.5308 -0.289022 19.1486 -0.0164526 17.1104 1.07488L11.1405 4.31514L2.44668 5.93528C1.80059 5.93526 1.18073 6.18908 0.722356 6.64133C0.263981 7.09358 0.00430722 7.70756 0 8.34928L0 13.2097C0 13.8542 0.257774 14.4723 0.716615 14.9281C1.17546 15.3838 1.79778 15.6399 2.44668 15.6399H4.07779C4.23811 16.5795 4.72818 17.4325 5.46116 18.0475C6.19413 18.6626 7.12266 19 8.08218 19C9.0417 19 9.97024 18.6626 10.7032 18.0475C11.4362 17.4325 11.9263 16.5795 12.0866 15.6399H26.9134C27.0737 16.5795 27.5638 17.4325 28.2968 18.0475C29.0298 18.6626 29.9583 19 30.9178 19C31.8773 19 32.8059 18.6626 33.5388 18.0475C34.2718 17.4325 34.7619 16.5795 34.9222 15.6399H36.5533C37.2022 15.6399 37.8245 15.3838 38.2834 14.9281C38.7422 14.4723 39 13.8542 39 13.2097V6.2593C38.9929 5.75676 38.829 5.26878 38.5311 4.86257C38.2331 4.45636 37.8157 4.1519 37.3363 3.99112ZM29.3601 3.52128V4.29894H28.2183L27.5822 3.01904L29.3601 3.52128ZM17.9423 2.5168C19.5114 1.6851 21.3299 1.4435 23.064 1.83634H23.3902H23.6675L25.527 2.33858L26.4404 4.16933H14.6801L17.9423 2.5168ZM8.15558 17.3734C7.67168 17.3734 7.19864 17.2309 6.79628 16.9639C6.39393 16.6968 6.08033 16.3173 5.89515 15.8732C5.70997 15.4292 5.66152 14.9405 5.75592 14.4691C5.85033 13.9977 6.08335 13.5647 6.42552 13.2248C6.7677 12.8849 7.20365 12.6535 7.67826 12.5597C8.15287 12.4659 8.64481 12.5141 9.09189 12.698C9.53896 12.8819 9.92108 13.1934 10.1899 13.5931C10.4588 13.9927 10.6023 14.4626 10.6023 14.9432C10.6023 15.5877 10.3445 16.2059 9.88564 16.6616C9.4268 17.1174 8.80448 17.3734 8.15558 17.3734ZM30.9912 17.3734C30.5073 17.3734 30.0343 17.2309 29.6319 16.9639C29.2296 16.6968 28.916 16.3173 28.7308 15.8732C28.5456 15.4292 28.4971 14.9405 28.5916 14.4691C28.686 13.9977 28.919 13.5647 29.2612 13.2248C29.6033 12.8849 30.0393 12.6535 30.5139 12.5597C30.9885 12.4659 31.4804 12.5141 31.9275 12.698C32.3746 12.8819 32.7567 13.1934 33.0256 13.5931C33.2944 13.9927 33.4379 14.4626 33.4379 14.9432C33.4379 15.5877 33.1801 16.2059 32.7213 16.6616C32.2624 17.1174 31.6401 17.3734 30.9912 17.3734ZM37.5157 9.15934H36.7001C36.4838 9.15934 36.2764 9.24469 36.1234 9.39661C35.9705 9.54852 35.8846 9.75457 35.8846 9.96941C35.8846 10.1843 35.9705 10.3903 36.1234 10.5422C36.2764 10.6941 36.4838 10.7795 36.7001 10.7795H37.5157V13.2097C37.5157 13.4245 37.4298 13.6306 37.2768 13.7825C37.1239 13.9344 36.9164 14.0197 36.7001 14.0197H34.9548C34.7467 13.1328 34.2425 12.3419 33.5244 11.7757C32.8062 11.2095 31.9163 10.9013 30.9994 10.9013C30.0825 10.9013 29.1926 11.2095 28.4744 11.7757C27.7562 12.3419 27.252 13.1328 27.0439 14.0197H12.1192C11.9111 13.1328 11.4069 12.3419 10.6887 11.7757C9.97056 11.2095 9.08064 10.9013 8.16374 10.9013C7.24684 10.9013 6.35692 11.2095 5.63875 11.7757C4.92057 12.3419 4.41641 13.1328 4.20828 14.0197H2.44668C2.23038 14.0197 2.02294 13.9344 1.86999 13.7825C1.71704 13.6306 1.63112 13.4245 1.63112 13.2097V10.7795H2.44668C2.66297 10.7795 2.87042 10.6941 3.02336 10.5422C3.17631 10.3903 3.26223 10.1843 3.26223 9.96941C3.26223 9.75457 3.17631 9.54852 3.02336 9.39661C2.87042 9.24469 2.66297 9.15934 2.44668 9.15934H1.63112V8.34928C1.63719 8.23138 1.66723 8.11593 1.71941 8.00987C1.7716 7.90381 1.84485 7.80934 1.93476 7.73214C2.02468 7.65495 2.12939 7.59662 2.24259 7.56068C2.3558 7.52474 2.47515 7.51192 2.59348 7.52301L11.4178 5.91908H30.1757C30.392 5.91908 30.5994 5.83373 30.7523 5.68181C30.9053 5.5299 30.9912 5.32385 30.9912 5.10901V3.95871L36.9122 5.57885C37.0696 5.61954 37.2112 5.70608 37.3188 5.82733C37.4263 5.94859 37.4949 6.09903 37.5157 6.2593V9.15934ZM25.2823 10.7795H13.8645C13.6482 10.7795 13.4408 10.8648 13.2878 11.0167C13.1349 11.1687 13.0489 11.3747 13.0489 11.5895C13.0489 11.8044 13.1349 12.0104 13.2878 12.1623C13.4408 12.3143 13.6482 12.3996 13.8645 12.3996H25.2823C25.4986 12.3996 25.7061 12.3143 25.859 12.1623C26.0119 12.0104 26.0979 11.8044 26.0979 11.5895C26.0979 11.3747 26.0119 11.1687 25.859 11.0167C25.7061 10.8648 25.4986 10.7795 25.2823 10.7795Z" fill="black"/>
</svg>
