<?xml version="1.0" encoding="utf-8"?>
<!-- Generator: Adobe Illustrator 27.0.0, SVG Export Plug-In . SVG Version: 6.00 Build 0)  -->
<svg version="1.1" id="Layer_1" xmlns="http://www.w3.org/2000/svg" xmlns:xlink="http://www.w3.org/1999/xlink" x="0px" y="0px"
	 viewBox="0 0 39 19" style="enable-background:new 0 0 39 19;" xml:space="preserve">
<style type="text/css">
	.st0{fill:#FFFFFF;}
</style>
<path class="st0" d="M37.3,4L23.8,0.3c-2.2-0.6-4.6-0.3-6.7,0.8l-6,3.2L2.4,5.9c-0.6,0-1.3,0.3-1.7,0.7C0.3,7.1,0,7.7,0,8.3v4.9
	c0,0.6,0.3,1.3,0.7,1.7c0.5,0.5,1.1,0.7,1.7,0.7h1.6c0.2,0.9,0.7,1.8,1.4,2.4c0.7,0.6,1.7,1,2.6,1s1.9-0.3,2.6-1
	c0.7-0.6,1.2-1.5,1.4-2.4h14.8c0.2,0.9,0.7,1.8,1.4,2.4c0.7,0.6,1.7,1,2.6,1c1,0,1.9-0.3,2.6-1c0.7-0.6,1.2-1.5,1.4-2.4h1.6
	c0.6,0,1.3-0.3,1.7-0.7c0.5-0.5,0.7-1.1,0.7-1.7v-7c0-0.5-0.2-1-0.5-1.4C38.2,4.5,37.8,4.2,37.3,4z M29.4,3.5v0.8h-1.1L27.6,3
	L29.4,3.5z M17.9,2.5c1.6-0.8,3.4-1.1,5.1-0.7h0.3h0.3l1.9,0.5l0.9,1.8H14.7L17.9,2.5z M8.2,17.4c-0.5,0-1-0.1-1.4-0.4
	c-0.4-0.3-0.7-0.6-0.9-1.1c-0.2-0.4-0.2-0.9-0.1-1.4c0.1-0.5,0.3-0.9,0.7-1.2c0.3-0.3,0.8-0.6,1.3-0.7c0.5-0.1,1,0,1.4,0.1
	c0.4,0.2,0.8,0.5,1.1,0.9c0.3,0.4,0.4,0.9,0.4,1.4c0,0.6-0.3,1.3-0.7,1.7C9.4,17.1,8.8,17.4,8.2,17.4z M31,17.4
	c-0.5,0-1-0.1-1.4-0.4c-0.4-0.3-0.7-0.6-0.9-1.1c-0.2-0.4-0.2-0.9-0.1-1.4c0.1-0.5,0.3-0.9,0.7-1.2c0.3-0.3,0.8-0.6,1.3-0.7
	s1,0,1.4,0.1s0.8,0.5,1.1,0.9c0.3,0.4,0.4,0.9,0.4,1.4c0,0.6-0.3,1.3-0.7,1.7C32.3,17.1,31.6,17.4,31,17.4z M37.5,9.2h-0.8
	c-0.2,0-0.4,0.1-0.6,0.2C36,9.5,35.9,9.8,35.9,10c0,0.2,0.1,0.4,0.2,0.6c0.2,0.2,0.4,0.2,0.6,0.2h0.8v2.4c0,0.2-0.1,0.4-0.2,0.6
	c-0.2,0.2-0.4,0.2-0.6,0.2H35c-0.2-0.9-0.7-1.7-1.4-2.2c-0.7-0.6-1.6-0.9-2.5-0.9c-0.9,0-1.8,0.3-2.5,0.9c-0.7,0.6-1.2,1.4-1.4,2.2
	H12.1c-0.2-0.9-0.7-1.7-1.4-2.2c-0.7-0.6-1.6-0.9-2.5-0.9s-1.8,0.3-2.5,0.9c-0.7,0.6-1.2,1.4-1.4,2.2H2.4c-0.2,0-0.4-0.1-0.6-0.2
	c-0.2-0.2-0.2-0.4-0.2-0.6v-2.4h0.8c0.2,0,0.4-0.1,0.6-0.2c0.2-0.2,0.2-0.4,0.2-0.6c0-0.2-0.1-0.4-0.2-0.6C2.9,9.2,2.7,9.2,2.4,9.2
	H1.6V8.3c0-0.1,0-0.2,0.1-0.3c0.1-0.1,0.1-0.2,0.2-0.3C2,7.7,2.1,7.6,2.2,7.6c0.1,0,0.2,0,0.4,0l8.8-1.6h18.8c0.2,0,0.4-0.1,0.6-0.2
	C30.9,5.5,31,5.3,31,5.1V4l5.9,1.6c0.2,0,0.3,0.1,0.4,0.2c0.1,0.1,0.2,0.3,0.2,0.4V9.2z M25.3,10.8H13.9c-0.2,0-0.4,0.1-0.6,0.2
	c-0.2,0.2-0.2,0.4-0.2,0.6c0,0.2,0.1,0.4,0.2,0.6c0.2,0.2,0.4,0.2,0.6,0.2h11.4c0.2,0,0.4-0.1,0.6-0.2c0.2-0.2,0.2-0.4,0.2-0.6
	c0-0.2-0.1-0.4-0.2-0.6C25.7,10.9,25.5,10.8,25.3,10.8z"/>
</svg>
