<?xml version="1.0" encoding="utf-8"?>
<!-- Generator: Adobe Illustrator 27.0.0, SVG Export Plug-In . SVG Version: 6.00 Build 0)  -->
<svg version="1.1" id="Layer_1" xmlns="http://www.w3.org/2000/svg" xmlns:xlink="http://www.w3.org/1999/xlink" x="0px" y="0px"
	 viewBox="0 0 35 24" style="enable-background:new 0 0 35 24;" xml:space="preserve">
<style type="text/css">
	.st0{fill:#FFFFFF;}
</style>
<path class="st0" d="M25.5,14.4c-0.4,0-0.9,0.1-1.2,0.4c-0.4,0.2-0.6,0.6-0.8,1c-0.2,0.4-0.2,0.8-0.1,1.2c0.1,0.4,0.3,0.8,0.6,1.1
	c0.3,0.3,0.7,0.5,1.1,0.6c0.4,0.1,0.9,0,1.3-0.1c0.4-0.2,0.7-0.4,1-0.8c0.2-0.4,0.4-0.8,0.4-1.2c0-0.6-0.2-1.1-0.6-1.5
	C26.6,14.6,26.1,14.4,25.5,14.4z M25.5,17.3c-0.1,0-0.3,0-0.4-0.1c-0.1-0.1-0.2-0.2-0.3-0.3s-0.1-0.3,0-0.4c0-0.1,0.1-0.3,0.2-0.4
	c0.1-0.1,0.2-0.2,0.4-0.2c0.1,0,0.3,0,0.4,0c0.1,0.1,0.2,0.1,0.3,0.3c0.1,0.1,0.1,0.3,0.1,0.4c0,0.2-0.1,0.4-0.2,0.5
	C25.9,17.2,25.7,17.3,25.5,17.3z M34.8,10.3c-0.1-0.1-0.2-0.2-0.3-0.2c-0.1,0-0.3-0.1-0.4,0l-6.4,1.3v-0.6c0-0.6-0.2-1.1-0.6-1.5
	s-1-0.6-1.5-0.6h-0.7v-1c0-0.5-0.2-1-0.5-1.4c-0.3-0.4-0.8-0.7-1.3-0.7l-4-0.7V0.7c0-0.2-0.1-0.4-0.2-0.5C18.6,0.1,18.4,0,18.2,0
	h-5.8c-0.2,0-0.4,0.1-0.5,0.2c-0.1,0.1-0.2,0.3-0.2,0.5v2.8L9.9,3.2c-0.3-0.1-0.6,0-0.9,0C8.6,3.3,8.3,3.5,8.1,3.7
	C7.8,3.9,7.6,4.1,7.5,4.4C7.4,4.7,7.3,5,7.3,5.3v3.3H6.6C6,8.6,5.4,8.9,5,9.3c-0.4,0.4-0.6,1-0.6,1.5v4.6l-2.3,0.4
	c-0.2,0-0.3,0.1-0.4,0.2c-0.1,0.1-0.2,0.3-0.2,0.5v5.6C1.2,22,1,22,0.7,21.9c-0.2,0-0.4,0.1-0.5,0.2C0.1,22.3,0,22.5,0,22.7
	c0,0.2,0.1,0.4,0.2,0.5c0.1,0.1,0.3,0.2,0.5,0.2c0.3,0,0.5,0.1,0.7,0.2C1.9,23.9,2.4,24,2.9,24c0.5,0,1-0.1,1.5-0.4
	c0.2-0.1,0.5-0.2,0.7-0.2c0.3,0,0.5,0.1,0.7,0.2C6.3,23.9,6.8,24,7.3,24c0.5,0,1-0.1,1.5-0.4c0.2-0.1,0.5-0.2,0.7-0.2
	s0.5,0.1,0.7,0.2c0.4,0.3,0.9,0.4,1.5,0.4s1-0.1,1.5-0.4c0.2-0.1,0.5-0.2,0.7-0.2c0.3,0,0.5,0.1,0.7,0.2C15,23.9,15.5,24,16,24
	c0.5,0,1-0.1,1.5-0.4c0.2-0.1,0.5-0.2,0.7-0.2c0.3,0,0.5,0.1,0.7,0.2c0.4,0.3,0.9,0.4,1.5,0.4c0.5,0,1-0.1,1.5-0.4
	c0.2-0.1,0.5-0.2,0.7-0.2c0.3,0,0.5,0.1,0.7,0.2c0.4,0.3,0.9,0.4,1.5,0.4c0.5,0,1-0.1,1.5-0.4c0.2-0.1,0.5-0.2,0.7-0.2
	c0.3,0,0.5,0.1,0.7,0.2c0.4,0.3,0.9,0.4,1.5,0.4c0.5,0,1-0.1,1.5-0.4c0.2-0.1,0.4-0.2,0.7-0.2c0.2,0,0.4-0.1,0.5-0.2
	C32,23,32,22.9,32,22.7c0-0.2-0.1-0.4-0.2-0.5c-0.1-0.1-0.3-0.2-0.5-0.2c-0.5,0-1,0.1-1.5,0.4L35,11.1c0-0.1,0.1-0.3,0-0.4
	C35,10.6,34.9,10.4,34.8,10.3z M13.1,1.4h4.4v3.1l-4.4-0.8V1.4z M8.7,5.3c0-0.1,0-0.2,0.1-0.3c0-0.1,0.1-0.2,0.2-0.2
	c0.1-0.1,0.2-0.1,0.3-0.1s0.2,0,0.3,0L22.7,7c0.2,0,0.3,0.1,0.4,0.2c0.1,0.1,0.2,0.3,0.2,0.5v1H8.7V5.3z M5.8,10.8
	c0-0.2,0.1-0.4,0.2-0.5s0.3-0.2,0.5-0.2h18.9c0.2,0,0.4,0.1,0.5,0.2c0.1,0.1,0.2,0.3,0.2,0.5v0.9L5.8,15.2V10.8z M28.3,22.3
	c-0.4-0.2-0.9-0.4-1.4-0.4c-0.5,0-1,0.1-1.5,0.4c-0.2,0.1-0.5,0.2-0.7,0.2c-0.3,0-0.5-0.1-0.7-0.2c-0.4-0.3-0.9-0.4-1.5-0.4
	c-0.5,0-1,0.1-1.5,0.4c-0.2,0.1-0.5,0.2-0.7,0.2c-0.3,0-0.5-0.1-0.7-0.2c-0.4-0.3-0.9-0.4-1.5-0.4c-0.5,0-1,0.1-1.5,0.4
	c-0.2,0.1-0.5,0.2-0.7,0.2c-0.3,0-0.5-0.1-0.7-0.2c-0.4-0.3-0.9-0.4-1.5-0.4c-0.5,0-1,0.1-1.5,0.4c-0.2,0.1-0.5,0.2-0.7,0.2
	c-0.3,0-0.5-0.1-0.7-0.2c-0.4-0.3-0.9-0.4-1.5-0.4c-0.5,0-1,0.1-1.5,0.4c-0.2,0.1-0.5,0.2-0.7,0.2c-0.3,0-0.5-0.1-0.7-0.2
	c-0.4-0.3-0.9-0.4-1.5-0.4c-0.5,0-1,0.1-1.5,0.4c-0.2,0.1-0.5,0.2-0.7,0.2v-5.4L27.1,13l5.9-1.2L28.3,22.3z"/>
</svg>
