<svg width="35" height="24" viewBox="0 0 35 24" fill="none" xmlns="http://www.w3.org/2000/svg">
<path d="M25.4883 14.3891C25.0562 14.3891 24.6338 14.5157 24.2745 14.7529C23.9153 14.99 23.6352 15.3271 23.4699 15.7215C23.3045 16.1159 23.2613 16.5499 23.3456 16.9686C23.4299 17.3872 23.6379 17.7718 23.9435 18.0737C24.249 18.3755 24.6383 18.5811 25.0621 18.6644C25.4859 18.7477 25.9251 18.7049 26.3243 18.5416C26.7235 18.3782 27.0648 18.1015 27.3048 17.7466C27.5449 17.3917 27.673 16.9744 27.673 16.5475C27.673 15.975 27.4428 15.4261 27.0331 15.0213C26.6234 14.6165 26.0677 14.3891 25.4883 14.3891ZM25.4883 17.2669C25.3443 17.2669 25.2035 17.2247 25.0837 17.1457C24.9639 17.0666 24.8706 16.9543 24.8155 16.8228C24.7604 16.6913 24.7459 16.5467 24.774 16.4071C24.8021 16.2676 24.8715 16.1394 24.9733 16.0388C25.0752 15.9381 25.205 15.8696 25.3462 15.8419C25.4875 15.8141 25.6339 15.8283 25.767 15.8828C25.9 15.9372 26.0138 16.0295 26.0938 16.1478C26.1738 16.2661 26.2165 16.4052 26.2165 16.5475C26.2165 16.7383 26.1398 16.9213 26.0032 17.0562C25.8667 17.1911 25.6814 17.2669 25.4883 17.2669ZM34.7952 10.3314C34.7102 10.23 34.5988 10.1536 34.4729 10.1105C34.3471 10.0674 34.2117 10.0592 34.0815 10.0868L27.673 11.4106V10.7918C27.673 10.2194 27.4428 9.67041 27.0331 9.26564C26.6234 8.86087 26.0677 8.63347 25.4883 8.63347H24.7601V7.6694C24.7616 7.16324 24.583 6.67265 24.2556 6.28338C23.9281 5.89411 23.4726 5.63092 22.9686 5.53981L18.9342 4.82035V0.719456C18.9342 0.528644 18.8574 0.345648 18.7209 0.210724C18.5843 0.0757997 18.3991 0 18.2059 0H12.38C12.1869 0 12.0017 0.0757997 11.8651 0.210724C11.7285 0.345648 11.6518 0.528644 11.6518 0.719456V3.52533L9.86033 3.23755C9.54841 3.18111 9.22779 3.19244 8.92074 3.27074C8.6137 3.34904 8.32759 3.49243 8.08228 3.69096C7.83698 3.8895 7.63836 4.13841 7.50023 4.42041C7.36209 4.70241 7.28775 5.01073 7.28237 5.32397V8.63347H6.55413C5.97471 8.63347 5.41902 8.86087 5.00931 9.26564C4.5996 9.67041 4.36942 10.2194 4.36942 10.7918V15.4395L2.05363 15.8424C1.88646 15.8726 1.73525 15.9597 1.62619 16.0884C1.51714 16.2172 1.4571 16.3796 1.45647 16.5475V22.1017C1.22227 22.016 0.977207 21.9627 0.728237 21.9434C0.535096 21.9434 0.349867 22.0192 0.213296 22.1541C0.0767247 22.289 0 22.472 0 22.6629C0 22.8537 0.0767247 23.0367 0.213296 23.1716C0.349867 23.3065 0.535096 23.3823 0.728237 23.3823C0.988024 23.376 1.24309 23.4516 1.45647 23.5981C1.89396 23.8635 2.39972 23.9984 2.91295 23.9867C3.42618 23.9984 3.93193 23.8635 4.36942 23.5981C4.58324 23.4525 4.83801 23.377 5.09766 23.3823C5.35731 23.377 5.61207 23.4525 5.82589 23.5981C6.26338 23.8635 6.76914 23.9984 7.28237 23.9867C7.7956 23.9984 8.30135 23.8635 8.73884 23.5981C8.95761 23.4644 9.2098 23.3935 9.46708 23.3935C9.72436 23.3935 9.97655 23.4644 10.1953 23.5981C10.6345 23.861 11.1383 24 11.6518 24C12.1653 24 12.669 23.861 13.1083 23.5981C13.327 23.4644 13.5792 23.3935 13.8365 23.3935C14.0938 23.3935 14.346 23.4644 14.5647 23.5981C15.0045 23.8595 15.508 23.9976 16.0212 23.9976C16.5344 23.9976 17.0379 23.8595 17.4777 23.5981C17.6959 23.4628 17.9483 23.3909 18.2059 23.3909C18.4636 23.3909 18.716 23.4628 18.9342 23.5981C19.3745 23.858 19.8778 23.9952 20.3906 23.9952C20.9035 23.9952 21.4068 23.858 21.8471 23.5981C22.0659 23.4644 22.3181 23.3935 22.5753 23.3935C22.8326 23.3935 23.0848 23.4644 23.3036 23.5981C23.7439 23.858 24.2472 23.9952 24.7601 23.9952C25.2729 23.9952 25.7762 23.858 26.2165 23.5981C26.4344 23.4496 26.6947 23.3739 26.9593 23.3823C27.2237 23.3759 27.4834 23.4514 27.7021 23.5981C28.145 23.8507 28.6473 23.9837 29.1586 23.9837C29.6699 23.9837 30.1723 23.8507 30.6151 23.5981C30.8215 23.4598 31.0647 23.3847 31.3142 23.3823C31.5073 23.3823 31.6926 23.3065 31.8291 23.1716C31.9657 23.0367 32.0424 22.8537 32.0424 22.6629C32.0424 22.472 31.9657 22.289 31.8291 22.1541C31.6926 22.0192 31.5073 21.9434 31.3142 21.9434C30.8024 21.9273 30.2967 22.0572 29.8577 22.3175L34.9554 11.0796C35.0026 10.9526 35.0126 10.8151 34.9842 10.6827C34.9559 10.5504 34.8904 10.4286 34.7952 10.3314ZM13.1083 1.43891H17.4777V4.56135L13.1083 3.78434V1.43891ZM8.73884 5.32397C8.73873 5.21932 8.7622 5.11596 8.80754 5.02139C8.85289 4.92681 8.91897 4.84339 9.00101 4.77719C9.08739 4.71904 9.18544 4.67995 9.28848 4.66257C9.39152 4.64519 9.49714 4.64993 9.59816 4.67646L22.7064 7.03628C22.8736 7.0665 23.0248 7.15353 23.1339 7.28229C23.2429 7.41106 23.303 7.57345 23.3036 7.74134V8.70542H8.73884V5.32397ZM5.82589 10.7918C5.82589 10.601 5.90262 10.418 6.03919 10.2831C6.17576 10.1482 6.36099 10.0724 6.55413 10.0724H25.4883C25.6814 10.0724 25.8667 10.1482 26.0032 10.2831C26.1398 10.418 26.2165 10.601 26.2165 10.7918V11.684L5.82589 15.1949V10.7918ZM28.3138 22.3031C27.8953 22.0588 27.4163 21.9343 26.9302 21.9434C26.4171 21.9324 25.9115 22.0673 25.4737 22.3319C25.255 22.4657 25.0028 22.5366 24.7455 22.5366C24.4882 22.5366 24.236 22.4657 24.0173 22.3319C23.5775 22.0706 23.074 21.9325 22.5608 21.9325C22.0476 21.9325 21.5441 22.0706 21.1043 22.3319C20.8855 22.4657 20.6334 22.5366 20.3761 22.5366C20.1188 22.5366 19.8666 22.4657 19.6478 22.3319C19.2081 22.0706 18.7046 21.9325 18.1914 21.9325C17.6782 21.9325 17.1746 22.0706 16.7349 22.3319C16.5167 22.4673 16.2643 22.5391 16.0066 22.5391C15.749 22.5391 15.4966 22.4673 15.2784 22.3319C14.8386 22.0706 14.3351 21.9325 13.8219 21.9325C13.3087 21.9325 12.8052 22.0706 12.3655 22.3319C12.1473 22.4673 11.8949 22.5391 11.6372 22.5391C11.3796 22.5391 11.1272 22.4673 10.909 22.3319C10.4692 22.0706 9.96571 21.9325 9.45251 21.9325C8.93932 21.9325 8.43581 22.0706 7.99604 22.3319C7.77817 22.4805 7.51783 22.5561 7.25324 22.5477C6.99359 22.553 6.73882 22.4775 6.525 22.3319C6.08751 22.0665 5.58176 21.9316 5.06853 21.9434C4.5553 21.9316 4.04954 22.0665 3.61205 22.3319C3.39823 22.4775 3.14347 22.553 2.88382 22.5477V17.1518L27.0613 12.9934L32.96 11.7847L28.3138 22.3031Z" fill="black"/>
</svg>
