<svg width="19" height="22" viewBox="0 0 19 22" fill="none" xmlns="http://www.w3.org/2000/svg">
<path d="M13.6667 4.97868V11.2287C13.6667 12.3745 14.6042 13.312 15.75 13.312H16.7917V20.6037C16.7917 21.1766 17.2604 21.6453 17.8333 21.6453C18.4063 21.6453 18.875 21.1766 18.875 20.6037V1.9891C18.875 1.31201 18.2396 0.812012 17.5833 0.968262C15.3333 1.52035 13.6667 3.4266 13.6667 4.97868ZM8.45833 8.10368H6.375V1.85368C6.375 1.28076 5.90625 0.812012 5.33333 0.812012C4.76042 0.812012 4.29167 1.28076 4.29167 1.85368V8.10368H2.20833V1.85368C2.20833 1.28076 1.73958 0.812012 1.16667 0.812012C0.59375 0.812012 0.125 1.28076 0.125 1.85368V8.10368C0.125 10.4058 1.98958 12.2703 4.29167 12.2703V20.6037C4.29167 21.1766 4.76042 21.6453 5.33333 21.6453C5.90625 21.6453 6.375 21.1766 6.375 20.6037V12.2703C8.67708 12.2703 10.5417 10.4058 10.5417 8.10368V1.85368C10.5417 1.28076 10.0729 0.812012 9.5 0.812012C8.92708 0.812012 8.45833 1.28076 8.45833 1.85368V8.10368Z" fill="#212121"/>
</svg>
