<svg width="58" height="40" viewBox="0 0 58 40" fill="none" xmlns="http://www.w3.org/2000/svg">
<path opacity="0.35" d="M52.6077 40H6.22495C3.31742 40 0.926025 37.2645 0.926025 34.357V5.29892C0.926025 2.3914 3.31742 0 6.22495 0H52.6077C55.5153 0 57.9067 2.3914 57.9067 5.29892V34.3398C57.9067 37.2645 55.5325 40 52.6077 40Z" fill="black"/>
<path d="M6.77549 39.3979C3.74753 39.3979 1.27011 36.9376 1.27011 33.8925V5.50538C1.27011 2.47742 3.73033 0 6.77549 0H52.0744C55.1024 0 57.5798 2.46022 57.5798 5.50538V33.8925C57.5798 36.9204 55.1196 39.3979 52.0744 39.3979H6.77549Z" fill="#646667"/>
<path d="M51.9368 38.8646H6.91313C4.09162 38.8646 1.76904 36.542 1.76904 33.7205V5.50541C1.76904 2.6667 4.09162 0.361328 6.91313 0.361328H51.9368C54.7583 0.361328 57.0809 2.68391 57.0809 5.50541V33.7205C57.0809 36.542 54.7583 38.8646 51.9368 38.8646Z" fill="url(#paint0_linear_38_188)"/>
<mask id="mask0_38_188" style="mask-type:luminance" maskUnits="userSpaceOnUse" x="1" y="0" width="57" height="39">
<path d="M57.0809 33.7549C57.0809 36.5936 54.7755 38.8989 51.9368 38.8989H6.91313C4.07442 38.8989 1.76904 36.5936 1.76904 33.7549V5.45378C1.76904 2.61507 4.07442 0.309692 6.91313 0.309692H51.9368C54.7755 0.309692 57.0809 2.61507 57.0809 5.45378V33.7549Z" fill="white"/>
</mask>
<g mask="url(#mask0_38_188)">
<path d="M57.0808 23.3979C57.0808 23.3979 41.9066 34.1162 14.1045 38.899H57.0808V23.3979Z" fill="#F58220"/>
<path d="M30.8271 12.5938C28.5389 12.5938 26.698 14.383 26.698 16.5679C26.698 18.9077 28.4701 20.6454 30.8271 20.6454C33.1324 20.6454 34.9389 18.8733 34.9389 16.6024C34.9389 14.3658 33.1324 12.5938 30.8271 12.5938Z" fill="url(#paint1_radial_38_188)"/>
<path d="M7.37762 12.7485H5.15826V20.4905H7.36042C8.53031 20.4905 9.37332 20.2152 10.1303 19.5958C11.0077 18.8561 11.5411 17.755 11.5411 16.6195C11.5239 14.3313 9.82063 12.7485 7.37762 12.7485ZM9.13246 18.5636C8.65074 18.9937 8.04859 19.1829 7.06794 19.1829H6.67224V14.0561H7.08515C8.06579 14.0561 8.65074 14.2281 9.14966 14.6754C9.66579 15.1399 9.97547 15.8625 9.97547 16.6023C9.97547 17.3593 9.66579 18.0991 9.13246 18.5636Z" fill="#081A23"/>
<path d="M13.7432 12.7485H12.2292V20.4905H13.7432V12.7485Z" fill="#081A23"/>
<path d="M17.4249 15.7077C16.5131 15.3636 16.255 15.1572 16.255 14.7271C16.255 14.2454 16.7367 13.8669 17.3733 13.8669C17.8206 13.8669 18.1991 14.0561 18.5948 14.4862L19.3862 13.454C18.7324 12.8862 17.9583 12.5938 17.1152 12.5938C15.7389 12.5938 14.7066 13.54 14.7066 14.8131C14.7066 15.8798 15.1884 16.4303 16.6163 16.9464C17.2013 17.1529 17.5109 17.2905 17.6658 17.3938C17.9755 17.583 18.1131 17.8755 18.1131 18.2024C18.1131 18.8389 17.6142 19.2862 16.9432 19.2862C16.2206 19.2862 15.6357 18.9249 15.2916 18.254L14.3109 19.2002C14.9991 20.2153 15.8421 20.6798 16.9948 20.6798C18.5604 20.6798 19.6615 19.6303 19.6615 18.1335C19.6615 16.8948 19.1454 16.3443 17.4249 15.7077Z" fill="#081A23"/>
<path d="M20.1432 16.6195C20.1432 18.8905 21.9324 20.6626 24.2378 20.6626C24.8916 20.6626 25.4421 20.5421 26.1303 20.2152V18.4432C25.5281 19.0454 24.9948 19.2862 24.3066 19.2862C22.7927 19.2862 21.7088 18.1851 21.7088 16.6195C21.7088 15.14 22.8271 13.9529 24.2378 13.9529C24.9604 13.9529 25.5109 14.2109 26.1303 14.8303V13.0583C25.4765 12.7142 24.926 12.5765 24.2722 12.5765C21.9668 12.5765 20.1432 14.3658 20.1432 16.6195Z" fill="#081A23"/>
<path d="M38.3626 17.9442L36.298 12.7485H34.6464L37.9324 20.6797H38.741L42.0959 12.7485H40.4615L38.3626 17.9442Z" fill="#081A23"/>
<path d="M42.7841 20.4905H47.0679V19.1829H44.298V17.084H46.9647V15.7765H44.298V14.0561H47.0679V12.7485H42.7841V20.4905Z" fill="#081A23"/>
<path d="M53.055 15.0367C53.055 13.5915 52.0572 12.7485 50.3195 12.7485H48.083V20.4905H49.597V17.3765H49.7862L51.8679 20.4905H53.726L51.283 17.2217C52.4185 16.998 53.055 16.2238 53.055 15.0367ZM50.0099 16.3098H49.5625V13.97H50.0271C50.9733 13.97 51.4894 14.3657 51.4894 15.1227C51.4894 15.8969 50.9905 16.3098 50.0099 16.3098Z" fill="#081A23"/>
<path d="M18.698 22.5206L20.7109 24.6368V22.6239H21.0034V25.3249L18.9905 23.2088V25.2045H18.698V22.5206Z" fill="#231F20"/>
<path d="M18.6636 22.5206V25.2561H19.0077C19.0077 25.2561 19.0077 23.4324 19.0077 23.2948C19.0937 23.3808 21.0206 25.4109 21.0206 25.4109V22.6066H20.6765C20.6765 22.6066 20.6765 24.4475 20.6765 24.5679C20.5905 24.4819 18.6636 22.4518 18.6636 22.4518V22.5206ZM18.7152 22.5894C18.8013 22.6754 20.7454 24.7055 20.7454 24.7055C20.7454 24.7055 20.7454 22.7098 20.7454 22.6582C20.7798 22.6582 20.9346 22.6582 20.9862 22.6582C20.9862 22.7098 20.9862 25.1529 20.9862 25.2733C20.9002 25.1873 18.9733 23.1572 18.9733 23.1572C18.9733 23.1572 18.9733 25.1357 18.9733 25.1873C18.9389 25.1873 18.7841 25.1873 18.7325 25.1873C18.7152 25.1529 18.7152 22.727 18.7152 22.5894Z" fill="#231F20"/>
<path d="M22.3969 22.641H23.7389V22.9163H22.6894V23.6904H23.7217V23.9657H22.6894V24.9808H23.7389V25.256H22.3969V22.641Z" fill="#231F20"/>
<path d="M23.7389 22.6066H22.3625V25.256H23.7561V24.9291C23.7561 24.9291 22.7582 24.9291 22.7066 24.9291C22.7066 24.8775 22.7066 24.0173 22.7066 23.9657C22.7582 23.9657 23.7217 23.9657 23.7217 23.9657V23.6388C23.7217 23.6388 22.741 23.6388 22.7066 23.6388C22.7066 23.5872 22.7066 22.9678 22.7066 22.9162C22.7582 22.9162 23.7561 22.9162 23.7561 22.9162V22.5894H23.7389V22.6066ZM23.7217 22.6582C23.7217 22.6926 23.7217 22.8302 23.7217 22.8646C23.6701 22.8646 22.6722 22.8646 22.6722 22.8646V23.6904C22.6722 23.6904 23.6529 23.6904 23.7045 23.6904C23.7045 23.7248 23.7045 23.8625 23.7045 23.8969C23.6529 23.8969 22.6722 23.8969 22.6722 23.8969V24.9636C22.6722 24.9636 23.6701 24.9636 23.7217 24.9636C23.7217 24.998 23.7217 25.1356 23.7217 25.17C23.6701 25.17 22.483 25.17 22.4314 25.17C22.4314 25.1184 22.4314 22.6926 22.4314 22.6238C22.483 22.6582 23.6701 22.6582 23.7217 22.6582Z" fill="#231F20"/>
<path d="M25.7862 25.2216H25.4937V22.899H24.8744V22.6238H26.4228V22.899H25.7862V25.2216Z" fill="#231F20"/>
<path d="M26.4228 22.6066H24.84V22.9334C24.84 22.9334 25.4249 22.9334 25.4593 22.9334C25.4593 22.9851 25.4593 25.256 25.4593 25.256H25.8034C25.8034 25.256 25.8034 22.9851 25.8034 22.9334C25.855 22.9334 26.44 22.9334 26.44 22.9334V22.6066H26.4228ZM26.3884 22.6582C26.3884 22.6926 26.3884 22.8302 26.3884 22.8646C26.3367 22.8646 25.7518 22.8646 25.7518 22.8646C25.7518 22.8646 25.7518 25.1356 25.7518 25.1872C25.7174 25.1872 25.5625 25.1872 25.5109 25.1872C25.5109 25.1356 25.5109 22.8646 25.5109 22.8646C25.5109 22.8646 24.926 22.8646 24.8916 22.8646C24.8916 22.8302 24.8916 22.6926 24.8916 22.6582C24.9432 22.6582 26.3367 22.6582 26.3884 22.6582Z" fill="#231F20"/>
<path d="M28.3497 24.5851L29.1927 22.5034L30.0357 24.5851L30.7239 22.6411H31.0335L30.0357 25.3593L29.1927 23.2776L28.3497 25.3593L27.3518 22.6411H27.6615L28.3497 24.5851Z" fill="#231F20"/>
<path d="M29.1583 22.4862C29.1583 22.4862 28.4013 24.3787 28.3497 24.4991C28.2981 24.3787 27.6787 22.6066 27.6787 22.6066H27.3174L28.3497 25.4281C28.3497 25.4281 29.1411 23.4496 29.1927 23.3292C29.2443 23.4496 30.0357 25.4281 30.0357 25.4281L31.068 22.6066H30.6895C30.6895 22.6066 30.0701 24.3787 30.0185 24.4991C29.9669 24.3787 29.1755 22.4346 29.1755 22.4346L29.1583 22.4862ZM28.3669 24.5851C28.3669 24.5851 29.1411 22.6926 29.1755 22.5722C29.2271 22.6926 30.0185 24.6539 30.0185 24.6539C30.0185 24.6539 30.7067 22.6926 30.7239 22.6582C30.7583 22.6582 30.9303 22.6582 30.9819 22.6582C30.9647 22.727 30.0701 25.1529 30.0185 25.2905C29.9669 25.1701 29.1755 23.2088 29.1755 23.2088C29.1755 23.2088 28.3841 25.1701 28.3325 25.2905C28.2809 25.1701 27.4034 22.727 27.369 22.6582C27.4206 22.6582 27.5927 22.6582 27.6271 22.6582C27.6443 22.6926 28.3325 24.6539 28.3325 24.6539L28.3669 24.5851Z" fill="#231F20"/>
<path d="M34.7497 23.9313C34.7497 24.6711 34.1303 25.2732 33.3905 25.2732C32.6507 25.2732 32.0314 24.6883 32.0314 23.9313C32.0314 23.1915 32.6507 22.5894 33.3905 22.5894C34.1475 22.5894 34.7497 23.1915 34.7497 23.9313ZM32.3411 23.9313C32.3411 24.5162 32.8228 24.998 33.4077 24.998C33.9927 24.998 34.4744 24.5162 34.4744 23.9313C34.4744 23.3463 34.0099 22.8646 33.4077 22.8646C32.8056 22.8646 32.3411 23.3463 32.3411 23.9313Z" fill="#231F20"/>
<path d="M32.0314 23.9313C32.0314 24.6883 32.6507 25.2904 33.4077 25.2904C34.1647 25.2904 34.7841 24.6711 34.7841 23.9313C34.7841 23.1743 34.1647 22.5549 33.4077 22.5549C32.6507 22.5721 32.0314 23.1743 32.0314 23.9313ZM32.083 23.9313C32.083 23.2087 32.6851 22.6237 33.4077 22.6237C34.1303 22.6237 34.7325 23.2087 34.7325 23.9313C34.7325 24.6539 34.1303 25.2388 33.4077 25.2388C32.6679 25.2388 32.083 24.6539 32.083 23.9313Z" fill="#231F20"/>
<path d="M32.3066 23.9314C32.3066 24.5336 32.7884 25.0325 33.3905 25.0325C33.9927 25.0325 34.4744 24.5336 34.4744 23.9314C34.4744 23.3293 33.9927 22.8303 33.3905 22.8303C32.8056 22.8303 32.3066 23.3293 32.3066 23.9314ZM32.3755 23.9314C32.3755 23.3637 32.84 22.8819 33.4077 22.8819C33.9755 22.8819 34.44 23.3465 34.44 23.9314C34.44 24.4991 33.9755 24.9809 33.4077 24.9809C32.84 24.9809 32.3755 24.5163 32.3755 23.9314Z" fill="#231F20"/>
<path d="M36.2981 25.2216H36.0056V22.6238H36.3841C36.883 22.6238 37.3303 22.7614 37.3303 23.3464C37.3303 23.7421 37.0895 24.0345 36.6766 24.0689L37.5024 25.2388H37.1411L36.3669 24.1034H36.2981V25.2216ZM36.2981 23.8281H36.3841C36.711 23.8281 37.0378 23.7593 37.0378 23.3636C37.0378 22.9335 36.7282 22.899 36.3841 22.899H36.2981V23.8281Z" fill="#231F20"/>
<path d="M36.0056 22.6066H35.9712V25.256H36.3152C36.3152 25.256 36.3152 24.1722 36.3152 24.1205C36.3325 24.1205 36.3669 24.1205 36.3669 24.1205C36.3669 24.1377 37.1238 25.2388 37.1238 25.2388L37.5023 25.256H37.554C37.554 25.256 36.7626 24.1378 36.7281 24.0861C37.1066 24.0345 37.3647 23.7593 37.3647 23.3636C37.3647 22.8646 37.0378 22.6238 36.3841 22.6238L36.0056 22.6066ZM36.3841 22.6582C37.0034 22.6582 37.3131 22.8818 37.3131 23.3464C37.3131 23.7248 37.0722 24.0001 36.6937 24.0345H36.6421C36.6421 24.0345 37.4163 25.1184 37.4679 25.1872C37.3991 25.1872 37.1583 25.1872 37.1583 25.1872C37.1583 25.17 36.4013 24.0689 36.4013 24.0689L36.3152 24.0517H36.2636C36.2636 24.0517 36.2636 25.1356 36.2636 25.1872C36.2292 25.1872 36.0744 25.1872 36.0228 25.1872C36.0228 25.1356 36.0228 22.7098 36.0228 22.641C36.0744 22.6582 36.3841 22.6582 36.3841 22.6582Z" fill="#231F20"/>
<path d="M36.298 22.8818H36.2636V23.8625H36.3841C36.711 23.8625 37.0722 23.8109 37.0722 23.3635C37.0722 22.899 36.711 22.8646 36.3841 22.8646H36.298V22.8818ZM36.3841 22.9334C36.711 22.9334 37.0206 22.9678 37.0206 23.3808C37.0206 23.7592 36.711 23.8109 36.3841 23.8109C36.3841 23.8109 36.3497 23.8109 36.3153 23.8109C36.3153 23.7592 36.3153 22.9851 36.3153 22.9334C36.3497 22.9334 36.3841 22.9334 36.3841 22.9334Z" fill="#231F20"/>
<path d="M40.1174 22.641H40.5131L39.2916 23.8453L40.5475 25.2216H40.1518L39.0851 24.0345L39.0163 24.1034V25.2216H38.7238V22.6238H39.0163V23.7421L40.1174 22.641Z" fill="#231F20"/>
<path d="M40.5131 22.6066H40.1174C40.1174 22.6066 39.1367 23.5872 39.0507 23.6732C39.0507 23.5528 39.0507 22.6066 39.0507 22.6066H38.7066V25.256H39.0507V24.1205C39.0507 24.1205 39.0679 24.1033 39.0851 24.0861C39.1195 24.1205 40.1346 25.256 40.1346 25.256L40.5475 25.2732H40.6163C40.6163 25.2732 39.3604 23.8969 39.326 23.8625C39.3604 23.8281 40.5647 22.6238 40.5647 22.6238L40.5131 22.6066ZM40.4443 22.6582C40.3582 22.7442 39.2572 23.8453 39.2572 23.8453C39.2572 23.8453 40.4099 25.1184 40.4959 25.2044C40.4099 25.2044 40.1518 25.2044 40.1518 25.2044C40.1518 25.1872 39.1023 24.0173 39.1023 24.0173L39.0851 24.0001L38.9991 24.0861C38.9991 24.0861 38.9991 25.1528 38.9991 25.2044C38.9647 25.2044 38.8099 25.2044 38.7582 25.2044C38.7582 25.1528 38.7582 22.727 38.7582 22.6582C38.7927 22.6582 38.9475 22.6582 38.9991 22.6582C38.9991 22.7098 38.9991 23.8109 38.9991 23.8109C38.9991 23.8109 40.1174 22.6754 40.1346 22.6582C40.1518 22.6582 40.3582 22.6582 40.4443 22.6582Z" fill="#231F20"/>
</g>
<path d="M51.9368 0.309692H6.89592C3.98839 0.309692 1.75183 2.40862 1.75183 5.45378V6.7441C1.75183 3.90539 2.95613 0.911843 6.89592 0.911843H51.9196C55.5325 0.911843 57.0637 3.90539 57.0637 6.7441V5.45378C57.0809 2.61507 54.8099 0.309692 51.9368 0.309692Z" fill="white"/>
<path d="M6.89592 38.8989H51.9196C54.8271 38.8989 57.0637 36.8 57.0637 33.7548V32.4645C57.0637 35.3032 55.8594 38.2967 51.9196 38.2967H6.89592C3.28301 38.2967 1.75183 35.3032 1.75183 32.4645V33.7548C1.75183 36.6107 4.0228 38.8989 6.89592 38.8989Z" fill="#B2B3B3"/>
<path d="M14.0873 38.8989H51.9368C54.7755 38.8989 56.9948 36.886 57.0809 33.9441C57.0809 33.8752 57.0809 33.8236 57.0809 33.7548V32.4645C57.0809 32.5677 57.0809 32.6537 57.0809 32.757C56.9948 35.5096 55.7389 38.2967 51.9368 38.2967H17.3389" fill="#D36928"/>
<defs>
<linearGradient id="paint0_linear_38_188" x1="29.4182" y1="38.8641" x2="29.4182" y2="0.356003" gradientUnits="userSpaceOnUse">
<stop stop-color="#DBDBDC"/>
<stop offset="0.9951" stop-color="#E8E8E9"/>
</linearGradient>
<radialGradient id="paint1_radial_38_188" cx="0" cy="0" r="1" gradientUnits="userSpaceOnUse" gradientTransform="translate(30.8204 16.6318) scale(4.07958)">
<stop offset="0.00562" stop-color="#FFEEE1"/>
<stop offset="0.1096" stop-color="#FDE8D7"/>
<stop offset="0.2793" stop-color="#FCDBC0"/>
<stop offset="0.4935" stop-color="#FBC698"/>
<stop offset="0.744" stop-color="#F8A561"/>
<stop offset="1" stop-color="#F48220"/>
</radialGradient>
</defs>
</svg>
