<?xml version="1.0" encoding="utf-8"?>
<!-- Generator: Adobe Illustrator 27.0.0, SVG Export Plug-In . SVG Version: 6.00 Build 0)  -->
<svg version="1.1" id="Layer_1" xmlns="http://www.w3.org/2000/svg" xmlns:xlink="http://www.w3.org/1999/xlink" x="0px" y="0px"
	 viewBox="0 0 36 21" style="enable-background:new 0 0 36 21;" xml:space="preserve">
<style type="text/css">
	.st0{fill:#242238;}
</style>
<path class="st0" d="M36,6.2c0.1-0.4,0-0.9-0.2-1.2c-0.5-0.9-1.2-1.7-2.1-2.4c-0.8-0.6-1.8-1.1-2.8-1.4c-1-0.3-2.1-0.3-3.1-0.2
	c-1,0.1-2.1,0.5-3,1l-3.5,2l-8.1-3.8C12.9,0.1,12.6,0,12.4,0c-0.3,0-0.5,0.1-0.7,0.2L6.7,3C6.5,3.1,6.3,3.3,6.2,3.6
	C6,3.8,5.9,4.1,5.9,4.4c0,0.3,0.1,0.6,0.2,0.8c0.1,0.2,0.3,0.5,0.6,0.6l5.4,3.4l-2.8,1.6l-7.8,0.9c-0.3,0-0.6,0.2-0.8,0.4
	c-0.2,0.2-0.4,0.5-0.5,0.8c-0.1,0.3-0.1,0.6,0,0.9c0.1,0.3,0.3,0.6,0.5,0.8l5.8,5c0.8,0.7,1.7,1.2,2.8,1.3c1,0.1,2.1-0.1,3-0.6
	l23-13.2c0.2-0.1,0.4-0.2,0.5-0.4C35.8,6.6,35.9,6.4,36,6.2z M10.6,17.6c-0.3,0.2-0.7,0.2-1,0.2c-0.4-0.1-0.7-0.2-0.9-0.5l-3.1-2.7
	l4.4-0.5c0.2,0,0.4-0.1,0.6-0.2l5.5-3.2c0.2-0.1,0.4-0.3,0.6-0.6c0.1-0.2,0.2-0.5,0.2-0.8c0-0.3-0.1-0.6-0.2-0.8
	c-0.1-0.2-0.3-0.5-0.6-0.6l-5.4-3.4l1.8-1l8.1,3.8c0.2,0.1,0.5,0.2,0.7,0.2c0.3,0,0.5-0.1,0.7-0.2l4.2-2.4c0.9-0.5,1.8-0.7,2.8-0.6
	c1,0.1,1.9,0.5,2.7,1.1L10.6,17.6z"/>
</svg>
