<svg width="36" height="21" viewBox="0 0 36 21" fill="none" xmlns="http://www.w3.org/2000/svg">
<path d="M35.9508 6.17994C36.0529 5.7601 35.9948 5.31717 35.7878 4.9381C35.2596 4.0192 34.5556 3.21392 33.7162 2.56846C32.8768 1.923 31.9185 1.45006 30.8963 1.17679C29.8741 0.903525 28.8082 0.8353 27.7596 0.976032C26.7111 1.11676 25.7006 1.46369 24.7861 1.99689L21.2818 4.02305L13.1324 0.183141C12.9007 0.0628072 12.6436 0 12.3826 0C12.1217 0 11.8646 0.0628072 11.6329 0.183141L6.74324 3.00997C6.50159 3.14971 6.29976 3.34929 6.15707 3.58962C6.01438 3.82994 5.93561 4.10296 5.92829 4.38254C5.9204 4.66419 5.98529 4.9431 6.11666 5.19219C6.24803 5.44128 6.44142 5.65208 6.67804 5.80412L12.0567 9.20285L9.22067 10.8369L1.4298 11.7846C1.11661 11.8234 0.821403 11.9526 0.580015 12.1564C0.338627 12.3601 0.161442 12.6298 0.0699705 12.9326C-0.0215013 13.2354 -0.0233255 13.5583 0.0647192 13.8621C0.152764 14.1659 0.326891 14.4376 0.56596 14.6441L6.33576 19.6441C7.09537 20.3709 8.06817 20.8333 9.11024 20.9628C10.1523 21.0923 11.2083 20.882 12.1219 20.3631L35.1359 7.17669C35.332 7.07461 35.5054 6.93361 35.6455 6.76227C35.7856 6.59092 35.8895 6.39279 35.9508 6.17994ZM10.6387 17.618C10.3256 17.7907 9.96455 17.8555 9.61115 17.8023C9.25775 17.7492 8.93157 17.5811 8.6828 17.3239L5.58602 14.6604L10.0356 14.1212C10.2543 14.0931 10.465 14.0209 10.655 13.9088L16.1314 10.7552C16.3754 10.614 16.5787 10.4118 16.7215 10.1684C16.8643 9.925 16.9418 9.64863 16.9463 9.36625C16.9497 9.0858 16.881 8.80921 16.7468 8.5631C16.6126 8.31699 16.4175 8.10964 16.1803 7.96101L10.8017 4.54594L12.5945 3.51651L20.744 7.30741C20.9757 7.42774 21.2328 7.49055 21.4937 7.49055C21.7547 7.49055 22.0118 7.42774 22.2435 7.30741L26.416 4.88908C27.271 4.40868 28.2504 4.197 29.2269 4.2815C30.2034 4.366 31.1321 4.74277 31.8924 5.36294L10.6387 17.618Z" fill="white"/>
</svg>
