<svg width="30" height="18" viewBox="0 0 30 18" fill="none" xmlns="http://www.w3.org/2000/svg">
<path d="M29.4097 5.04277C29.4932 4.70019 29.4456 4.33876 29.2763 4.02944C28.8442 3.27963 28.2683 2.62253 27.5816 2.09584C26.8949 1.56915 26.111 1.18324 25.2748 0.960253C24.4386 0.737268 23.5666 0.681597 22.7088 0.796433C21.8511 0.91127 21.0244 1.19435 20.2763 1.62944L17.4097 3.28277L10.743 0.149441C10.5535 0.0512501 10.3431 0 10.1297 0C9.91619 0 9.70585 0.0512501 9.51632 0.149441L5.51632 2.45611C5.31864 2.57014 5.15353 2.73299 5.0368 2.92909C4.92008 3.1252 4.85564 3.34798 4.84965 3.57611C4.8432 3.80593 4.89628 4.03352 5.00375 4.23678C5.11121 4.44003 5.26941 4.61204 5.46299 4.73611L9.86299 7.50944L7.54299 8.84278L1.16965 9.61611C0.913446 9.6478 0.67195 9.75319 0.474483 9.91948C0.277015 10.0858 0.132068 10.3058 0.0572395 10.5529C-0.0175892 10.8 -0.0190815 11.0634 0.0529436 11.3114C0.124969 11.5593 0.267414 11.7809 0.462985 11.9494L5.18299 16.0294C5.80438 16.6225 6.60019 16.9998 7.45265 17.1054C8.30511 17.2111 9.16894 17.0395 9.91632 16.6161L28.743 5.85611C28.9034 5.77282 29.0453 5.65777 29.1599 5.51795C29.2745 5.37813 29.3595 5.21646 29.4097 5.04277ZM8.70299 14.3761C8.44686 14.517 8.15152 14.5699 7.86242 14.5265C7.57332 14.4832 7.30649 14.346 7.10299 14.1361L4.56965 11.9628L8.20965 11.5228C8.38853 11.4999 8.56089 11.4409 8.71632 11.3494L13.1963 8.77611C13.3959 8.66092 13.5622 8.49596 13.6791 8.29733C13.7959 8.09871 13.8593 7.87319 13.863 7.64278C13.8657 7.41393 13.8095 7.18824 13.6998 6.98741C13.59 6.78658 13.4304 6.61739 13.2363 6.49611L8.83632 3.70944L10.303 2.86944L16.9697 5.96278C17.1592 6.06097 17.3695 6.11222 17.583 6.11222C17.7964 6.11222 18.0068 6.06097 18.1963 5.96278L21.6097 3.98944C22.3091 3.59744 23.1103 3.42471 23.9091 3.49366C24.708 3.56261 25.4677 3.87006 26.0897 4.37611L8.70299 14.3761Z" fill="#0D9ECD"/>
</svg>
