<svg width="29" height="30" viewBox="0 0 29 30" fill="none" xmlns="http://www.w3.org/2000/svg">
<path d="M21.3684 4.38926C20.0246 4.38821 18.7057 4.7475 17.5526 5.42876C16.7166 3.53475 15.2485 1.98056 13.3927 1.025C11.537 0.069437 9.40555 -0.22983 7.35343 0.177031C5.3013 0.583892 3.45231 1.67233 2.11434 3.26109C0.77637 4.84985 0.0301707 6.84306 0 8.90881V14.9349C0.00219155 17.0694 0.769639 19.1343 2.16643 20.7639C3.56322 22.3935 5.49922 23.4826 7.63158 23.8384V28.4935C7.63158 28.893 7.79239 29.2762 8.07863 29.5588C8.36487 29.8413 8.75309 30 9.15789 30C9.5627 30 9.95092 29.8413 10.2372 29.5588C10.5234 29.2762 10.6842 28.893 10.6842 28.4935V23.8384C12.2391 23.572 13.6995 22.9187 14.9274 21.9401C15.4723 22.8034 16.1887 23.5488 17.0334 24.1313C17.878 24.7139 18.8335 25.1216 19.8421 25.3298V28.4935C19.8421 28.893 20.0029 29.2762 20.2892 29.5588C20.5754 29.8413 20.9636 30 21.3684 30C21.7732 30 22.1615 29.8413 22.4477 29.5588C22.7339 29.2762 22.8947 28.893 22.8947 28.4935V25.3298C24.6185 24.9825 26.1678 24.058 27.2803 22.7128C28.3929 21.3677 29.0004 19.6844 29 17.9479V11.9218C29 9.92407 28.196 8.00813 26.7648 6.5955C25.3336 5.18287 23.3924 4.38926 21.3684 4.38926V4.38926ZM13.7368 11.9218V17.9479C13.7514 18.2356 13.782 18.5222 13.8284 18.8066C13.0121 19.7662 11.9131 20.4508 10.6842 20.7651V16.4414C10.6842 16.0418 10.5234 15.6586 10.2372 15.3761C9.95092 15.0936 9.5627 14.9349 9.15789 14.9349C8.75309 14.9349 8.36487 15.0936 8.07863 15.3761C7.79239 15.6586 7.63158 16.0418 7.63158 16.4414V20.75C6.32433 20.4169 5.16583 19.6654 4.33732 18.6132C3.5088 17.561 3.05702 16.2675 3.05263 14.9349V8.90881C3.04865 7.71499 3.40401 6.54691 4.07364 5.55274C4.74326 4.55858 5.69698 3.78313 6.81379 3.32477C7.9306 2.86641 9.16018 2.7458 10.3465 2.97823C11.5329 3.21066 12.6226 3.78567 13.4774 4.63031C14.3036 5.45683 14.8662 6.50441 15.0953 7.64333C14.213 8.90034 13.7391 10.3926 13.7368 11.9218V11.9218ZM25.9474 17.9479C25.9447 18.8803 25.6499 19.7892 25.1034 20.5497C24.5569 21.3103 23.7854 21.8854 22.8947 22.1963V16.4414C22.8947 16.0418 22.7339 15.6586 22.4477 15.3761C22.1615 15.0936 21.7732 14.9349 21.3684 14.9349C20.9636 14.9349 20.5754 15.0936 20.2892 15.3761C20.0029 15.6586 19.8421 16.0418 19.8421 16.4414V22.1963C18.9514 21.8854 18.1799 21.3103 17.6334 20.5497C17.0869 19.7892 16.7921 18.8803 16.7895 17.9479V11.9218C16.7895 10.7232 17.2719 9.57361 18.1306 8.72603C18.9893 7.87846 20.154 7.40229 21.3684 7.40229C22.5828 7.40229 23.7475 7.87846 24.6062 8.72603C25.4649 9.57361 25.9474 10.7232 25.9474 11.9218V17.9479Z" fill="#242238"/>
</svg>
