<svg width="30" height="31" viewBox="0 0 30 31" fill="none" xmlns="http://www.w3.org/2000/svg">
<path d="M17.5 10.3334H18.75C19.0815 10.3334 19.3995 10.1973 19.6339 9.95505C19.8683 9.71282 20 9.38428 20 9.04171C20 8.69914 19.8683 8.3706 19.6339 8.12836C19.3995 7.88613 19.0815 7.75004 18.75 7.75004H17.5C17.1685 7.75004 16.8505 7.88613 16.6161 8.12836C16.3817 8.3706 16.25 8.69914 16.25 9.04171C16.25 9.38428 16.3817 9.71282 16.6161 9.95505C16.8505 10.1973 17.1685 10.3334 17.5 10.3334V10.3334ZM17.5 15.5H18.75C19.0815 15.5 19.3995 15.364 19.6339 15.1217C19.8683 14.8795 20 14.5509 20 14.2084C20 13.8658 19.8683 13.5373 19.6339 13.295C19.3995 13.0528 19.0815 12.9167 18.75 12.9167H17.5C17.1685 12.9167 16.8505 13.0528 16.6161 13.295C16.3817 13.5373 16.25 13.8658 16.25 14.2084C16.25 14.5509 16.3817 14.8795 16.6161 15.1217C16.8505 15.364 17.1685 15.5 17.5 15.5V15.5ZM11.25 10.3334H12.5C12.8315 10.3334 13.1495 10.1973 13.3839 9.95505C13.6183 9.71282 13.75 9.38428 13.75 9.04171C13.75 8.69914 13.6183 8.3706 13.3839 8.12836C13.1495 7.88613 12.8315 7.75004 12.5 7.75004H11.25C10.9185 7.75004 10.6005 7.88613 10.3661 8.12836C10.1317 8.3706 10 8.69914 10 9.04171C10 9.38428 10.1317 9.71282 10.3661 9.95505C10.6005 10.1973 10.9185 10.3334 11.25 10.3334V10.3334ZM11.25 15.5H12.5C12.8315 15.5 13.1495 15.364 13.3839 15.1217C13.6183 14.8795 13.75 14.5509 13.75 14.2084C13.75 13.8658 13.6183 13.5373 13.3839 13.295C13.1495 13.0528 12.8315 12.9167 12.5 12.9167H11.25C10.9185 12.9167 10.6005 13.0528 10.3661 13.295C10.1317 13.5373 10 13.8658 10 14.2084C10 14.5509 10.1317 14.8795 10.3661 15.1217C10.6005 15.364 10.9185 15.5 11.25 15.5V15.5ZM26.25 25.8334H25V3.87504C25 3.53247 24.8683 3.20393 24.6339 2.96169C24.3995 2.71946 24.0815 2.58337 23.75 2.58337H6.25C5.91848 2.58337 5.60054 2.71946 5.36612 2.96169C5.1317 3.20393 5 3.53247 5 3.87504V25.8334H3.75C3.41848 25.8334 3.10054 25.9695 2.86612 26.2117C2.6317 26.4539 2.5 26.7825 2.5 27.125C2.5 27.4676 2.6317 27.7962 2.86612 28.0384C3.10054 28.2806 3.41848 28.4167 3.75 28.4167H26.25C26.5815 28.4167 26.8995 28.2806 27.1339 28.0384C27.3683 27.7962 27.5 27.4676 27.5 27.125C27.5 26.7825 27.3683 26.4539 27.1339 26.2117C26.8995 25.9695 26.5815 25.8334 26.25 25.8334ZM16.25 25.8334H13.75V20.6667H16.25V25.8334ZM22.5 25.8334H18.75V19.375C18.75 19.0325 18.6183 18.7039 18.3839 18.4617C18.1495 18.2195 17.8315 18.0834 17.5 18.0834H12.5C12.1685 18.0834 11.8505 18.2195 11.6161 18.4617C11.3817 18.7039 11.25 19.0325 11.25 19.375V25.8334H7.5V5.16671H22.5V25.8334Z" fill="#242238"/>
</svg>
