<?xml version="1.0" encoding="utf-8"?>
<!-- Generator: Adobe Illustrator 27.0.0, SVG Export Plug-In . SVG Version: 6.00 Build 0)  -->
<svg version="1.1" id="Layer_1" xmlns="http://www.w3.org/2000/svg" xmlns:xlink="http://www.w3.org/1999/xlink" x="0px" y="0px"
	 viewBox="0 0 30 31" style="enable-background:new 0 0 30 31;" xml:space="preserve">
<style type="text/css">
	.st0{fill:#FFFFFF;}
</style>
<path class="st0" d="M17.5,10.3h1.2c0.3,0,0.6-0.1,0.9-0.4C19.9,9.7,20,9.4,20,9s-0.1-0.7-0.4-0.9c-0.2-0.2-0.6-0.4-0.9-0.4h-1.2
	c-0.3,0-0.6,0.1-0.9,0.4c-0.2,0.2-0.4,0.6-0.4,0.9s0.1,0.7,0.4,0.9C16.9,10.2,17.2,10.3,17.5,10.3L17.5,10.3z M17.5,15.5h1.2
	c0.3,0,0.6-0.1,0.9-0.4c0.2-0.2,0.4-0.6,0.4-0.9c0-0.3-0.1-0.7-0.4-0.9c-0.2-0.2-0.6-0.4-0.9-0.4h-1.2c-0.3,0-0.6,0.1-0.9,0.4
	c-0.2,0.2-0.4,0.6-0.4,0.9c0,0.3,0.1,0.7,0.4,0.9C16.9,15.4,17.2,15.5,17.5,15.5L17.5,15.5z M11.2,10.3h1.2c0.3,0,0.6-0.1,0.9-0.4
	c0.2-0.2,0.4-0.6,0.4-0.9s-0.1-0.7-0.4-0.9c-0.2-0.2-0.6-0.4-0.9-0.4h-1.2c-0.3,0-0.6,0.1-0.9,0.4C10.1,8.4,10,8.7,10,9
	s0.1,0.7,0.4,0.9C10.6,10.2,10.9,10.3,11.2,10.3L11.2,10.3z M11.2,15.5h1.2c0.3,0,0.6-0.1,0.9-0.4c0.2-0.2,0.4-0.6,0.4-0.9
	c0-0.3-0.1-0.7-0.4-0.9c-0.2-0.2-0.6-0.4-0.9-0.4h-1.2c-0.3,0-0.6,0.1-0.9,0.4c-0.2,0.2-0.4,0.6-0.4,0.9c0,0.3,0.1,0.7,0.4,0.9
	C10.6,15.4,10.9,15.5,11.2,15.5L11.2,15.5z M26.2,25.8H25v-22c0-0.3-0.1-0.7-0.4-0.9c-0.2-0.2-0.6-0.4-0.9-0.4H6.2
	C5.9,2.6,5.6,2.7,5.4,3C5.1,3.2,5,3.5,5,3.9v22H3.8c-0.3,0-0.6,0.1-0.9,0.4c-0.2,0.2-0.4,0.6-0.4,0.9c0,0.3,0.1,0.7,0.4,0.9
	c0.2,0.2,0.6,0.4,0.9,0.4h22.5c0.3,0,0.6-0.1,0.9-0.4c0.2-0.2,0.4-0.6,0.4-0.9c0-0.3-0.1-0.7-0.4-0.9C26.9,26,26.6,25.8,26.2,25.8z
	 M16.2,25.8h-2.5v-5.2h2.5V25.8z M22.5,25.8h-3.8v-6.5c0-0.3-0.1-0.7-0.4-0.9c-0.2-0.2-0.6-0.4-0.9-0.4h-5c-0.3,0-0.6,0.1-0.9,0.4
	c-0.2,0.2-0.4,0.6-0.4,0.9v6.5H7.5V5.2h15V25.8z"/>
</svg>
