<svg width="610" height="78" viewBox="0 0 610 78" fill="none" xmlns="http://www.w3.org/2000/svg">
<rect width="610" height="78" rx="11" fill="#017107"/>
<mask id="path-2-inside-1_93_331" fill="white">
<path d="M14 14H182V64H14V14Z"/>
</mask>
<path d="M182 63H14V65H182V63Z" fill="#959595" mask="url(#path-2-inside-1_93_331)"/>
<path d="M40.45 55H39.162V45.2H40.45V55ZM45.109 55.154C43.933 55.154 43.037 54.3 43.037 52.802V49.064H41.833V48H42.365C42.911 48 43.219 47.706 43.219 47.16V46.11H44.241V47.958H45.837V49.064H44.241V52.76C44.241 53.628 44.689 54.02 45.347 54.02C45.529 54.02 45.683 53.992 45.837 53.922V55.028C45.669 55.084 45.445 55.154 45.109 55.154ZM49.6618 47.804C51.2718 47.804 52.3778 48.924 52.3778 50.534V55H51.4678L51.2158 54.118H51.1458C50.8658 54.524 50.1798 55.154 49.0318 55.154C47.6038 55.154 46.6798 54.202 46.6798 53.04C46.6798 51.696 47.9678 50.8 49.8438 50.8H51.1598V50.478C51.1598 49.512 50.5578 48.91 49.6618 48.91C48.7658 48.91 48.3178 49.442 48.2058 50.058H46.9878C47.1138 48.882 48.1078 47.804 49.6618 47.804ZM49.2278 54.09C50.4178 54.09 51.1598 53.292 51.1598 52.298V51.766H49.9278C48.5978 51.766 47.8838 52.228 47.8838 52.984C47.8838 53.628 48.3458 54.09 49.2278 54.09ZM55.4838 55H54.2798V45.2H55.4838V55ZM59.9834 53.334L62.0274 47.958H63.2734L60.2494 55.546C59.6054 57.17 58.9894 57.59 58.2054 57.59C57.9254 57.59 57.7154 57.52 57.5474 57.464V56.372C57.7014 56.428 57.8414 56.456 58.0094 56.456C58.4854 56.456 58.8354 56.232 59.1014 55.546L59.3814 54.832L56.5954 47.958H57.8974L59.9834 53.334Z" fill="#CBCBCB"/>
<path d="M21.564 30H18.386V20.2H21.564C24.91 20.2 26.968 22.3 26.968 25.1C26.968 27.914 24.91 30 21.564 30ZM19.758 21.488V28.712H21.564C24.084 28.712 25.596 27.2 25.596 25.1C25.596 23 24.084 21.488 21.564 21.488H19.758ZM36.0074 26.318C36.0074 26.556 35.9794 26.85 35.9374 27.032H29.6934C29.9174 28.264 30.9394 29.006 32.2694 29.006C33.2914 29.006 33.9494 28.684 34.3694 28.11H35.7274C35.2514 29.23 34.0054 30.182 32.2414 30.182C30.0714 30.182 28.3634 28.628 28.3634 26.472C28.3634 24.358 30.1274 22.776 32.2414 22.776C34.2574 22.776 36.0074 24.316 36.0074 26.318ZM32.2274 23.952C30.9814 23.952 29.9174 24.736 29.6794 25.968H34.7334C34.5514 24.778 33.4734 23.952 32.2274 23.952ZM40.5518 30.182C38.5918 30.182 37.4438 29.104 37.3318 27.9H38.6198C38.8018 28.6 39.3898 29.048 40.5658 29.048C41.7838 29.048 42.2738 28.656 42.2738 28.124C42.2738 26.43 37.5698 27.564 37.5698 24.82C37.5698 23.728 38.5218 22.776 40.4118 22.776C42.1338 22.776 43.2678 23.756 43.4218 24.988H42.1338C42.0078 24.372 41.4618 23.91 40.4118 23.91C39.2638 23.91 38.8578 24.344 38.8578 24.792C38.8578 26.388 43.5618 25.282 43.5618 28.11C43.5618 29.286 42.5818 30.182 40.5518 30.182ZM48.4246 30.182C46.9126 30.182 45.9466 29.216 45.9466 27.55V24.148H44.4626V23H45.2326C45.8206 23 46.1286 22.692 46.1286 22.104V21.11H47.2346V22.958H49.3486V24.148H47.2346V27.48C47.2346 28.488 47.7246 28.964 48.5646 28.964C48.8586 28.964 49.1106 28.922 49.3486 28.81V29.986C49.0966 30.112 48.7746 30.182 48.4246 30.182ZM51.8373 21.95C51.3333 21.95 50.9833 21.586 50.9833 21.152C50.9833 20.704 51.3333 20.354 51.8373 20.354C52.3273 20.354 52.6773 20.704 52.6773 21.152C52.6773 21.586 52.3273 21.95 51.8373 21.95ZM52.4813 30H51.1793V22.958H52.4813V30ZM56.0906 30H54.7886V22.958H55.7686L56.0346 23.84H56.1046C56.4546 23.378 57.2386 22.776 58.5966 22.776C60.5006 22.776 61.9006 24.092 61.9006 26.15V30H60.5986V26.29C60.5986 24.862 59.7026 23.994 58.3866 23.994C57.0146 23.994 56.0906 24.862 56.0906 26.29V30ZM67.2065 22.776C69.1805 22.776 70.3845 23.98 70.3845 25.716V30H69.4185L69.1385 29.118H69.0685C68.7185 29.552 67.9345 30.182 66.5065 30.182C64.6585 30.182 63.7205 29.188 63.7205 27.998C63.7205 26.738 64.7145 25.758 66.8285 25.758H69.0825V25.66C69.0825 24.624 68.3965 23.952 67.2065 23.952C66.1565 23.952 65.6385 24.442 65.3865 25.03H64.0845C64.3505 23.77 65.4565 22.776 67.2065 22.776ZM66.6465 29.048C68.2565 29.048 69.0825 28.236 69.0825 27.242V26.794H66.9405C65.5265 26.794 65.0085 27.284 65.0085 27.928C65.0085 28.558 65.5125 29.048 66.6465 29.048ZM75.6317 30.182C74.1197 30.182 73.1537 29.216 73.1537 27.55V24.148H71.6697V23H72.4397C73.0277 23 73.3357 22.692 73.3357 22.104V21.11H74.4417V22.958H76.5557V24.148H74.4417V27.48C74.4417 28.488 74.9317 28.964 75.7717 28.964C76.0657 28.964 76.3177 28.922 76.5557 28.81V29.986C76.3037 30.112 75.9817 30.182 75.6317 30.182ZM79.0443 21.95C78.5403 21.95 78.1903 21.586 78.1903 21.152C78.1903 20.704 78.5403 20.354 79.0443 20.354C79.5343 20.354 79.8843 20.704 79.8843 21.152C79.8843 21.586 79.5343 21.95 79.0443 21.95ZM79.6883 30H78.3863V22.958H79.6883V30ZM85.4117 30.182C83.2557 30.182 81.5197 28.6 81.5197 26.472C81.5197 24.358 83.2557 22.776 85.4117 22.776C87.5677 22.776 89.3037 24.358 89.3037 26.472C89.3037 28.6 87.5677 30.182 85.4117 30.182ZM85.4117 28.978C86.8677 28.978 88.0157 27.956 88.0157 26.472C88.0157 25.002 86.8677 23.98 85.4117 23.98C83.9557 23.98 82.8217 25.002 82.8217 26.472C82.8217 27.956 83.9557 28.978 85.4117 28.978ZM92.4305 30H91.1285V22.958H92.1085L92.3745 23.84H92.4445C92.7945 23.378 93.5785 22.776 94.9365 22.776C96.8405 22.776 98.2405 24.092 98.2405 26.15V30H96.9385V26.29C96.9385 24.862 96.0425 23.994 94.7265 23.994C93.3545 23.994 92.4305 24.862 92.4305 26.29V30ZM103.196 30.182C101.236 30.182 100.088 29.104 99.9764 27.9H101.264C101.446 28.6 102.034 29.048 103.21 29.048C104.428 29.048 104.918 28.656 104.918 28.124C104.918 26.43 100.214 27.564 100.214 24.82C100.214 23.728 101.166 22.776 103.056 22.776C104.778 22.776 105.912 23.756 106.066 24.988H104.778C104.652 24.372 104.106 23.91 103.056 23.91C101.908 23.91 101.502 24.344 101.502 24.792C101.502 26.388 106.206 25.282 106.206 28.11C106.206 29.286 105.226 30.182 103.196 30.182Z" fill="white"/>
<path d="M24 41.875C20.8945 41.875 18.375 44.273 18.375 47.2266C18.375 50.625 22.125 56.0105 23.502 57.8707C23.5591 57.9492 23.634 58.0131 23.7206 58.0572C23.8071 58.1012 23.9029 58.1242 24 58.1242C24.0971 58.1242 24.1929 58.1012 24.2794 58.0572C24.366 58.0131 24.4409 57.9492 24.498 57.8707C25.875 56.0113 29.625 50.6277 29.625 47.2266C29.625 44.273 27.1055 41.875 24 41.875Z" stroke="#F18604" stroke-width="1.375" stroke-linecap="round" stroke-linejoin="round"/>
<path d="M24 49.375C25.0355 49.375 25.875 48.5355 25.875 47.5C25.875 46.4645 25.0355 45.625 24 45.625C22.9645 45.625 22.125 46.4645 22.125 47.5C22.125 48.5355 22.9645 49.375 24 49.375Z" stroke="#F18604" stroke-width="1.375" stroke-linecap="round" stroke-linejoin="round"/>
<mask id="path-8-inside-2_93_331" fill="white">
<path d="M192 14H305V64H192V14Z"/>
</mask>
<path d="M305 63H192V65H305V63Z" fill="#959595" mask="url(#path-8-inside-2_93_331)"/>
<path d="M220.332 50.628L218.04 52.956H221.844V54H216.456V53.124L219.552 49.968C220.224 49.284 220.74 48.72 220.74 47.904C220.74 47.076 220.128 46.488 219.132 46.488C218.112 46.488 217.476 47.16 217.44 48.06H216.36C216.396 46.62 217.524 45.468 219.132 45.468C220.776 45.468 221.844 46.536 221.844 47.88C221.844 48.96 221.148 49.8 220.332 50.628ZM226.742 50.628L224.45 52.956H228.254V54H222.866V53.124L225.962 49.968C226.634 49.284 227.15 48.72 227.15 47.904C227.15 47.076 226.538 46.488 225.542 46.488C224.522 46.488 223.886 47.16 223.85 48.06H222.77C222.806 46.62 223.934 45.468 225.542 45.468C227.186 45.468 228.254 46.536 228.254 47.88C228.254 48.96 227.558 49.8 226.742 50.628ZM230.032 51.636C229.996 51.636 229.96 51.636 229.924 51.648V52.824C229.948 52.836 229.996 52.836 230.032 52.836C230.344 52.836 230.404 52.608 230.404 52.236C230.404 51.852 230.344 51.636 230.032 51.636ZM231.856 52.068V52.356H231.376V52.812H231.94V53.1H231.028V51.36H231.94V51.66H231.376V52.068H231.856ZM230.008 53.124C229.912 53.124 229.732 53.124 229.576 53.1V51.384C229.732 51.36 229.9 51.336 230.02 51.336C230.56 51.336 230.752 51.636 230.752 52.236C230.752 52.848 230.548 53.124 230.008 53.124ZM232.252 51.36H232.72L232.948 52.32L233.176 51.36H233.656C233.68 51.78 233.704 52.536 233.728 53.1H233.38C233.38 52.692 233.368 52.26 233.344 51.852L233.104 52.836H232.78L232.54 51.852H232.528C232.516 52.26 232.504 52.692 232.504 53.1H232.168C232.18 52.536 232.216 51.78 232.252 51.36ZM234.604 53.124C234.124 53.124 233.968 52.848 233.968 52.236C233.968 51.624 234.124 51.336 234.604 51.336C235.084 51.336 235.252 51.624 235.252 52.236C235.252 52.848 235.084 53.124 234.604 53.124ZM234.604 51.636C234.364 51.636 234.316 51.84 234.316 52.236C234.316 52.62 234.364 52.836 234.604 52.836C234.856 52.836 234.904 52.62 234.904 52.236C234.904 51.84 234.856 51.636 234.604 51.636ZM234.484 48.048C235.108 48.048 235.228 48.552 235.228 48.804C235.228 49.176 234.856 49.392 234.604 49.428C233.74 49.524 233.116 49.8 232.612 50.292C232.612 50.292 233.488 48.048 234.484 48.048ZM230.488 48.672C231.616 48.672 232.36 50.916 232.36 50.916C231.868 50.292 231.244 50.052 230.488 50.052C230.116 50.052 229.744 49.8 229.744 49.428C229.744 49.044 229.996 48.672 230.488 48.672ZM232.588 46.884C233.392 47.664 232.36 49.8 232.36 49.8C232.444 49.008 232.168 48.384 231.628 47.868C231.364 47.604 231.268 47.172 231.52 46.896C231.784 46.632 232.228 46.536 232.588 46.884ZM239.616 54.132C237.936 54.132 236.484 52.668 236.484 49.8C236.484 46.932 237.936 45.468 239.616 45.468C241.308 45.468 242.76 46.932 242.76 49.8C242.76 52.668 241.308 54.132 239.616 54.132ZM239.616 53.088C240.696 53.088 241.656 52.116 241.656 49.8C241.656 47.484 240.696 46.512 239.616 46.512C238.548 46.512 237.588 47.484 237.588 49.8C237.588 52.116 238.548 53.088 239.616 53.088ZM243.311 46.644V45.6H248.615V46.44L245.411 54H244.223L247.355 46.644H243.311ZM250.212 51.636C250.176 51.636 250.14 51.636 250.104 51.648V52.824C250.128 52.836 250.176 52.836 250.212 52.836C250.524 52.836 250.584 52.608 250.584 52.236C250.584 51.852 250.524 51.636 250.212 51.636ZM252.036 52.068V52.356H251.556V52.812H252.12V53.1H251.208V51.36H252.12V51.66H251.556V52.068H252.036ZM250.188 53.124C250.092 53.124 249.912 53.124 249.756 53.1V51.384C249.912 51.36 250.08 51.336 250.2 51.336C250.74 51.336 250.932 51.636 250.932 52.236C250.932 52.848 250.728 53.124 250.188 53.124ZM252.432 51.36H252.9L253.128 52.32L253.356 51.36H253.836C253.86 51.78 253.884 52.536 253.908 53.1H253.56C253.56 52.692 253.548 52.26 253.524 51.852L253.284 52.836H252.96L252.72 51.852H252.708C252.696 52.26 252.684 52.692 252.684 53.1H252.348C252.36 52.536 252.396 51.78 252.432 51.36ZM254.784 53.124C254.304 53.124 254.148 52.848 254.148 52.236C254.148 51.624 254.304 51.336 254.784 51.336C255.264 51.336 255.432 51.624 255.432 52.236C255.432 52.848 255.264 53.124 254.784 53.124ZM254.784 51.636C254.544 51.636 254.496 51.84 254.496 52.236C254.496 52.62 254.544 52.836 254.784 52.836C255.036 52.836 255.084 52.62 255.084 52.236C255.084 51.84 255.036 51.636 254.784 51.636ZM254.664 48.048C255.288 48.048 255.408 48.552 255.408 48.804C255.408 49.176 255.036 49.392 254.784 49.428C253.92 49.524 253.296 49.8 252.792 50.292C252.792 50.292 253.668 48.048 254.664 48.048ZM250.668 48.672C251.796 48.672 252.54 50.916 252.54 50.916C252.048 50.292 251.424 50.052 250.668 50.052C250.296 50.052 249.924 49.8 249.924 49.428C249.924 49.044 250.176 48.672 250.668 48.672ZM252.768 46.884C253.572 47.664 252.54 49.8 252.54 49.8C252.624 49.008 252.348 48.384 251.808 47.868C251.544 47.604 251.448 47.172 251.7 46.896C251.964 46.632 252.408 46.536 252.768 46.884ZM260.504 50.628L258.212 52.956H262.016V54H256.628V53.124L259.724 49.968C260.396 49.284 260.912 48.72 260.912 47.904C260.912 47.076 260.3 46.488 259.304 46.488C258.284 46.488 257.648 47.16 257.612 48.06H256.532C256.568 46.62 257.696 45.468 259.304 45.468C260.948 45.468 262.016 46.536 262.016 47.88C262.016 48.96 261.32 49.8 260.504 50.628ZM266.206 54.132C264.526 54.132 263.074 52.668 263.074 49.8C263.074 46.932 264.526 45.468 266.206 45.468C267.898 45.468 269.35 46.932 269.35 49.8C269.35 52.668 267.898 54.132 266.206 54.132ZM266.206 53.088C267.286 53.088 268.246 52.116 268.246 49.8C268.246 47.484 267.286 46.512 266.206 46.512C265.138 46.512 264.178 47.484 264.178 49.8C264.178 52.116 265.138 53.088 266.206 53.088ZM274.18 50.628L271.888 52.956H275.692V54H270.304V53.124L273.4 49.968C274.072 49.284 274.588 48.72 274.588 47.904C274.588 47.076 273.976 46.488 272.98 46.488C271.96 46.488 271.324 47.16 271.288 48.06H270.208C270.244 46.62 271.372 45.468 272.98 45.468C274.624 45.468 275.692 46.536 275.692 47.88C275.692 48.96 274.996 49.8 274.18 50.628ZM279.75 48.432C281.298 48.432 282.486 49.62 282.486 51.276C282.486 52.92 281.274 54.132 279.582 54.132C277.974 54.132 276.954 52.992 276.798 51.792H277.902C277.986 52.38 278.61 53.112 279.582 53.112C280.602 53.112 281.382 52.344 281.382 51.276C281.382 50.184 280.602 49.428 279.582 49.428C278.586 49.428 278.142 50.1 277.974 50.472H276.978L277.518 45.6H281.886V46.62H278.43L278.154 49.02C278.466 48.732 279.03 48.432 279.75 48.432Z" fill="#CBCBCB"/>
<path d="M199.788 30.182C197.296 30.182 195.854 28.768 195.728 27.074H197.114C197.268 28.208 198.192 28.936 199.816 28.936C201.468 28.936 202.21 28.278 202.21 27.424C202.21 24.974 196.022 26.276 196.022 22.734C196.022 21.222 197.31 20.018 199.62 20.018C201.916 20.018 203.246 21.32 203.372 23.056H202C201.874 21.95 201.02 21.264 199.634 21.264C198.136 21.264 197.394 21.922 197.394 22.762C197.394 25.086 203.582 23.686 203.582 27.424C203.582 28.992 202.308 30.182 199.788 30.182ZM208.542 30.182C207.03 30.182 206.064 29.216 206.064 27.55V24.148H204.58V23H205.35C205.938 23 206.246 22.692 206.246 22.104V21.11H207.352V22.958H209.466V24.148H207.352V27.48C207.352 28.488 207.842 28.964 208.682 28.964C208.976 28.964 209.228 28.922 209.466 28.81V29.986C209.214 30.112 208.892 30.182 208.542 30.182ZM214.171 22.776C216.145 22.776 217.349 23.98 217.349 25.716V30H216.383L216.103 29.118H216.033C215.683 29.552 214.899 30.182 213.471 30.182C211.623 30.182 210.685 29.188 210.685 27.998C210.685 26.738 211.679 25.758 213.793 25.758H216.047V25.66C216.047 24.624 215.361 23.952 214.171 23.952C213.121 23.952 212.603 24.442 212.351 25.03H211.049C211.315 23.77 212.421 22.776 214.171 22.776ZM213.611 29.048C215.221 29.048 216.047 28.236 216.047 27.242V26.794H213.905C212.491 26.794 211.973 27.284 211.973 27.928C211.973 28.558 212.477 29.048 213.611 29.048ZM220.884 30H219.582V22.958H220.562L220.828 23.84H220.898C221.332 23.308 222.074 22.776 223.236 22.776C223.6 22.776 223.81 22.818 223.992 22.874V24.176C223.754 24.106 223.544 24.078 223.222 24.078C221.71 24.078 220.884 24.778 220.884 26.43V30ZM228.886 30.182C227.374 30.182 226.408 29.216 226.408 27.55V24.148H224.924V23H225.694C226.282 23 226.59 22.692 226.59 22.104V21.11H227.696V22.958H229.81V24.148H227.696V27.48C227.696 28.488 228.186 28.964 229.026 28.964C229.32 28.964 229.572 28.922 229.81 28.81V29.986C229.558 30.112 229.236 30.182 228.886 30.182ZM238.334 30.182C236.346 30.182 234.61 28.67 234.61 26.472C234.61 24.274 236.346 22.776 238.334 22.776C239.706 22.776 240.588 23.476 240.91 23.812H240.98V20.2H242.268V30H241.302L241.022 29.118H240.952C240.63 29.454 239.734 30.182 238.334 30.182ZM238.446 28.978C239.86 28.978 240.98 27.97 240.98 26.472C240.98 24.988 239.86 23.98 238.446 23.98C237.032 23.98 235.912 24.988 235.912 26.472C235.912 27.97 237.032 28.978 238.446 28.978ZM247.722 22.776C249.696 22.776 250.9 23.98 250.9 25.716V30H249.934L249.654 29.118H249.584C249.234 29.552 248.45 30.182 247.022 30.182C245.174 30.182 244.236 29.188 244.236 27.998C244.236 26.738 245.23 25.758 247.344 25.758H249.598V25.66C249.598 24.624 248.912 23.952 247.722 23.952C246.672 23.952 246.154 24.442 245.902 25.03H244.6C244.866 23.77 245.972 22.776 247.722 22.776ZM247.162 29.048C248.772 29.048 249.598 28.236 249.598 27.242V26.794H247.456C246.042 26.794 245.524 27.284 245.524 27.928C245.524 28.558 246.028 29.048 247.162 29.048ZM256.147 30.182C254.635 30.182 253.669 29.216 253.669 27.55V24.148H252.185V23H252.955C253.543 23 253.851 22.692 253.851 22.104V21.11H254.957V22.958H257.071V24.148H254.957V27.48C254.957 28.488 255.447 28.964 256.287 28.964C256.581 28.964 256.833 28.922 257.071 28.81V29.986C256.819 30.112 256.497 30.182 256.147 30.182ZM265.865 26.318C265.865 26.556 265.837 26.85 265.795 27.032H259.551C259.775 28.264 260.797 29.006 262.127 29.006C263.149 29.006 263.807 28.684 264.227 28.11H265.585C265.109 29.23 263.863 30.182 262.099 30.182C259.929 30.182 258.221 28.628 258.221 26.472C258.221 24.358 259.985 22.776 262.099 22.776C264.115 22.776 265.865 24.316 265.865 26.318ZM262.085 23.952C260.839 23.952 259.775 24.736 259.537 25.968H264.591C264.409 24.778 263.331 23.952 262.085 23.952Z" fill="white"/>
<path d="M207.833 42.3334H206.167V41.5001C206.167 41.2791 206.079 41.0671 205.922 40.9108C205.766 40.7545 205.554 40.6667 205.333 40.6667C205.112 40.6667 204.9 40.7545 204.744 40.9108C204.588 41.0671 204.5 41.2791 204.5 41.5001V42.3334H199.5V41.5001C199.5 41.2791 199.412 41.0671 199.256 40.9108C199.099 40.7545 198.888 40.6667 198.667 40.6667C198.445 40.6667 198.234 40.7545 198.077 40.9108C197.921 41.0671 197.833 41.2791 197.833 41.5001V42.3334H196.167C195.503 42.3334 194.868 42.5968 194.399 43.0656C193.93 43.5345 193.667 44.1704 193.667 44.8334V54.8334C193.667 55.4965 193.93 56.1323 194.399 56.6012C194.868 57.07 195.503 57.3334 196.167 57.3334H207.833C208.496 57.3334 209.132 57.07 209.601 56.6012C210.07 56.1323 210.333 55.4965 210.333 54.8334V44.8334C210.333 44.1704 210.07 43.5345 209.601 43.0656C209.132 42.5968 208.496 42.3334 207.833 42.3334ZM208.667 54.8334C208.667 55.0544 208.579 55.2664 208.422 55.4227C208.266 55.579 208.054 55.6667 207.833 55.6667H196.167C195.945 55.6667 195.734 55.579 195.577 55.4227C195.421 55.2664 195.333 55.0544 195.333 54.8334V49.0001H208.667V54.8334ZM208.667 47.3334H195.333V44.8334C195.333 44.6124 195.421 44.4004 195.577 44.2442C195.734 44.0879 195.945 44.0001 196.167 44.0001H197.833V44.8334C197.833 45.0544 197.921 45.2664 198.077 45.4227C198.234 45.579 198.445 45.6667 198.667 45.6667C198.888 45.6667 199.099 45.579 199.256 45.4227C199.412 45.2664 199.5 45.0544 199.5 44.8334V44.0001H204.5V44.8334C204.5 45.0544 204.588 45.2664 204.744 45.4227C204.9 45.579 205.112 45.6667 205.333 45.6667C205.554 45.6667 205.766 45.579 205.922 45.4227C206.079 45.2664 206.167 45.0544 206.167 44.8334V44.0001H207.833C208.054 44.0001 208.266 44.0879 208.422 44.2442C208.579 44.4004 208.667 44.6124 208.667 44.8334V47.3334Z" fill="#F18604"/>
<mask id="path-13-inside-3_93_331" fill="white">
<path d="M324 14H437V64H324V14Z"/>
</mask>
<path d="M437 63H324V65H437V63Z" fill="#959595" mask="url(#path-13-inside-3_93_331)"/>
<path d="M352.332 50.628L350.04 52.956H353.844V54H348.456V53.124L351.552 49.968C352.224 49.284 352.74 48.72 352.74 47.904C352.74 47.076 352.128 46.488 351.132 46.488C350.112 46.488 349.476 47.16 349.44 48.06H348.36C348.396 46.62 349.524 45.468 351.132 45.468C352.776 45.468 353.844 46.536 353.844 47.88C353.844 48.96 353.148 49.8 352.332 50.628ZM359.33 49.5C359.882 49.764 360.71 50.424 360.71 51.612C360.71 52.968 359.594 54.132 357.806 54.132C356.006 54.132 354.902 52.968 354.902 51.612C354.902 50.424 355.718 49.764 356.282 49.5C355.838 49.212 355.238 48.648 355.238 47.724C355.238 46.5 356.27 45.468 357.806 45.468C359.342 45.468 360.374 46.5 360.374 47.724C360.374 48.648 359.774 49.212 359.33 49.5ZM357.806 46.464C356.906 46.464 356.318 47.028 356.318 47.772C356.318 48.516 356.906 49.068 357.806 49.068C358.706 49.068 359.282 48.516 359.282 47.772C359.282 47.028 358.706 46.464 357.806 46.464ZM357.806 53.136C358.958 53.136 359.618 52.452 359.618 51.588C359.618 50.736 358.958 50.052 357.806 50.052C356.654 50.052 355.982 50.736 355.982 51.588C355.982 52.452 356.654 53.136 357.806 53.136ZM362.419 51.636C362.383 51.636 362.347 51.636 362.311 51.648V52.824C362.335 52.836 362.383 52.836 362.419 52.836C362.731 52.836 362.791 52.608 362.791 52.236C362.791 51.852 362.731 51.636 362.419 51.636ZM364.243 52.068V52.356H363.763V52.812H364.327V53.1H363.415V51.36H364.327V51.66H363.763V52.068H364.243ZM362.395 53.124C362.299 53.124 362.119 53.124 361.963 53.1V51.384C362.119 51.36 362.287 51.336 362.407 51.336C362.947 51.336 363.139 51.636 363.139 52.236C363.139 52.848 362.935 53.124 362.395 53.124ZM364.639 51.36H365.107L365.335 52.32L365.563 51.36H366.043C366.067 51.78 366.091 52.536 366.115 53.1H365.767C365.767 52.692 365.755 52.26 365.731 51.852L365.491 52.836H365.167L364.927 51.852H364.915C364.903 52.26 364.891 52.692 364.891 53.1H364.555C364.567 52.536 364.603 51.78 364.639 51.36ZM366.991 53.124C366.511 53.124 366.355 52.848 366.355 52.236C366.355 51.624 366.511 51.336 366.991 51.336C367.471 51.336 367.639 51.624 367.639 52.236C367.639 52.848 367.471 53.124 366.991 53.124ZM366.991 51.636C366.751 51.636 366.703 51.84 366.703 52.236C366.703 52.62 366.751 52.836 366.991 52.836C367.243 52.836 367.291 52.62 367.291 52.236C367.291 51.84 367.243 51.636 366.991 51.636ZM366.871 48.048C367.495 48.048 367.615 48.552 367.615 48.804C367.615 49.176 367.243 49.392 366.991 49.428C366.127 49.524 365.503 49.8 364.999 50.292C364.999 50.292 365.875 48.048 366.871 48.048ZM362.875 48.672C364.003 48.672 364.747 50.916 364.747 50.916C364.255 50.292 363.631 50.052 362.875 50.052C362.503 50.052 362.131 49.8 362.131 49.428C362.131 49.044 362.383 48.672 362.875 48.672ZM364.975 46.884C365.779 47.664 364.747 49.8 364.747 49.8C364.831 49.008 364.555 48.384 364.015 47.868C363.751 47.604 363.655 47.172 363.907 46.896C364.171 46.632 364.615 46.536 364.975 46.884ZM372.003 54.132C370.323 54.132 368.871 52.668 368.871 49.8C368.871 46.932 370.323 45.468 372.003 45.468C373.695 45.468 375.147 46.932 375.147 49.8C375.147 52.668 373.695 54.132 372.003 54.132ZM372.003 53.088C373.083 53.088 374.043 52.116 374.043 49.8C374.043 47.484 373.083 46.512 372.003 46.512C370.935 46.512 369.975 47.484 369.975 49.8C369.975 52.116 370.935 53.088 372.003 53.088ZM375.698 46.644V45.6H381.002V46.44L377.798 54H376.61L379.742 46.644H375.698ZM382.599 51.636C382.563 51.636 382.527 51.636 382.491 51.648V52.824C382.515 52.836 382.563 52.836 382.599 52.836C382.911 52.836 382.971 52.608 382.971 52.236C382.971 51.852 382.911 51.636 382.599 51.636ZM384.423 52.068V52.356H383.943V52.812H384.507V53.1H383.595V51.36H384.507V51.66H383.943V52.068H384.423ZM382.575 53.124C382.479 53.124 382.299 53.124 382.143 53.1V51.384C382.299 51.36 382.467 51.336 382.587 51.336C383.127 51.336 383.319 51.636 383.319 52.236C383.319 52.848 383.115 53.124 382.575 53.124ZM384.819 51.36H385.287L385.515 52.32L385.743 51.36H386.223C386.247 51.78 386.271 52.536 386.295 53.1H385.947C385.947 52.692 385.935 52.26 385.911 51.852L385.671 52.836H385.347L385.107 51.852H385.095C385.083 52.26 385.071 52.692 385.071 53.1H384.735C384.747 52.536 384.783 51.78 384.819 51.36ZM387.171 53.124C386.691 53.124 386.535 52.848 386.535 52.236C386.535 51.624 386.691 51.336 387.171 51.336C387.651 51.336 387.819 51.624 387.819 52.236C387.819 52.848 387.651 53.124 387.171 53.124ZM387.171 51.636C386.931 51.636 386.883 51.84 386.883 52.236C386.883 52.62 386.931 52.836 387.171 52.836C387.423 52.836 387.471 52.62 387.471 52.236C387.471 51.84 387.423 51.636 387.171 51.636ZM387.051 48.048C387.675 48.048 387.795 48.552 387.795 48.804C387.795 49.176 387.423 49.392 387.171 49.428C386.307 49.524 385.683 49.8 385.179 50.292C385.179 50.292 386.055 48.048 387.051 48.048ZM383.055 48.672C384.183 48.672 384.927 50.916 384.927 50.916C384.435 50.292 383.811 50.052 383.055 50.052C382.683 50.052 382.311 49.8 382.311 49.428C382.311 49.044 382.563 48.672 383.055 48.672ZM385.155 46.884C385.959 47.664 384.927 49.8 384.927 49.8C385.011 49.008 384.735 48.384 384.195 47.868C383.931 47.604 383.835 47.172 384.087 46.896C384.351 46.632 384.795 46.536 385.155 46.884ZM392.891 50.628L390.599 52.956H394.403V54H389.015V53.124L392.111 49.968C392.783 49.284 393.299 48.72 393.299 47.904C393.299 47.076 392.687 46.488 391.691 46.488C390.671 46.488 390.035 47.16 389.999 48.06H388.919C388.955 46.62 390.083 45.468 391.691 45.468C393.335 45.468 394.403 46.536 394.403 47.88C394.403 48.96 393.707 49.8 392.891 50.628ZM398.593 54.132C396.913 54.132 395.461 52.668 395.461 49.8C395.461 46.932 396.913 45.468 398.593 45.468C400.285 45.468 401.737 46.932 401.737 49.8C401.737 52.668 400.285 54.132 398.593 54.132ZM398.593 53.088C399.673 53.088 400.633 52.116 400.633 49.8C400.633 47.484 399.673 46.512 398.593 46.512C397.525 46.512 396.565 47.484 396.565 49.8C396.565 52.116 397.525 53.088 398.593 53.088ZM406.566 50.628L404.274 52.956H408.078V54H402.69V53.124L405.786 49.968C406.458 49.284 406.974 48.72 406.974 47.904C406.974 47.076 406.362 46.488 405.366 46.488C404.346 46.488 403.71 47.16 403.674 48.06H402.594C402.63 46.62 403.758 45.468 405.366 45.468C407.01 45.468 408.078 46.536 408.078 47.88C408.078 48.96 407.382 49.8 406.566 50.628ZM412.137 48.432C413.685 48.432 414.873 49.62 414.873 51.276C414.873 52.92 413.661 54.132 411.969 54.132C410.361 54.132 409.341 52.992 409.185 51.792H410.289C410.373 52.38 410.997 53.112 411.969 53.112C412.989 53.112 413.769 52.344 413.769 51.276C413.769 50.184 412.989 49.428 411.969 49.428C410.973 49.428 410.529 50.1 410.361 50.472H409.365L409.905 45.6H414.273V46.62H410.817L410.541 49.02C410.853 48.732 411.417 48.432 412.137 48.432Z" fill="#CBCBCB"/>
<path d="M329.758 25.618V28.726H335.82V30H328.386V20.2H335.68V21.474H329.758V24.358H335.05V25.618H329.758ZM339.102 30H337.8V22.958H338.78L339.046 23.84H339.116C339.466 23.378 340.25 22.776 341.608 22.776C343.512 22.776 344.912 24.092 344.912 26.15V30H343.61V26.29C343.61 24.862 342.714 23.994 341.398 23.994C340.026 23.994 339.102 24.862 339.102 26.29V30ZM350.386 30.182C348.398 30.182 346.662 28.67 346.662 26.472C346.662 24.274 348.398 22.776 350.386 22.776C351.758 22.776 352.64 23.476 352.962 23.812H353.032V20.2H354.32V30H353.354L353.074 29.118H353.004C352.682 29.454 351.786 30.182 350.386 30.182ZM350.498 28.978C351.912 28.978 353.032 27.97 353.032 26.472C353.032 24.988 351.912 23.98 350.498 23.98C349.084 23.98 347.964 24.988 347.964 26.472C347.964 27.97 349.084 28.978 350.498 28.978ZM363.949 30.182C361.961 30.182 360.225 28.67 360.225 26.472C360.225 24.274 361.961 22.776 363.949 22.776C365.321 22.776 366.203 23.476 366.525 23.812H366.595V20.2H367.883V30H366.917L366.637 29.118H366.567C366.245 29.454 365.349 30.182 363.949 30.182ZM364.061 28.978C365.475 28.978 366.595 27.97 366.595 26.472C366.595 24.988 365.475 23.98 364.061 23.98C362.647 23.98 361.527 24.988 361.527 26.472C361.527 27.97 362.647 28.978 364.061 28.978ZM373.337 22.776C375.311 22.776 376.515 23.98 376.515 25.716V30H375.549L375.269 29.118H375.199C374.849 29.552 374.065 30.182 372.637 30.182C370.789 30.182 369.851 29.188 369.851 27.998C369.851 26.738 370.845 25.758 372.959 25.758H375.213V25.66C375.213 24.624 374.527 23.952 373.337 23.952C372.287 23.952 371.769 24.442 371.517 25.03H370.215C370.481 23.77 371.587 22.776 373.337 22.776ZM372.777 29.048C374.387 29.048 375.213 28.236 375.213 27.242V26.794H373.071C371.657 26.794 371.139 27.284 371.139 27.928C371.139 28.558 371.643 29.048 372.777 29.048ZM381.763 30.182C380.251 30.182 379.285 29.216 379.285 27.55V24.148H377.801V23H378.571C379.159 23 379.467 22.692 379.467 22.104V21.11H380.573V22.958H382.687V24.148H380.573V27.48C380.573 28.488 381.063 28.964 381.903 28.964C382.197 28.964 382.449 28.922 382.687 28.81V29.986C382.435 30.112 382.113 30.182 381.763 30.182ZM391.48 26.318C391.48 26.556 391.452 26.85 391.41 27.032H385.166C385.39 28.264 386.412 29.006 387.742 29.006C388.764 29.006 389.422 28.684 389.842 28.11H391.2C390.724 29.23 389.478 30.182 387.714 30.182C385.544 30.182 383.836 28.628 383.836 26.472C383.836 24.358 385.6 22.776 387.714 22.776C389.73 22.776 391.48 24.316 391.48 26.318ZM387.7 23.952C386.454 23.952 385.39 24.736 385.152 25.968H390.206C390.024 24.778 388.946 23.952 387.7 23.952Z" fill="white"/>
<path d="M339.833 42.3334H338.167V41.5001C338.167 41.2791 338.079 41.0671 337.922 40.9108C337.766 40.7545 337.554 40.6667 337.333 40.6667C337.112 40.6667 336.9 40.7545 336.744 40.9108C336.588 41.0671 336.5 41.2791 336.5 41.5001V42.3334H331.5V41.5001C331.5 41.2791 331.412 41.0671 331.256 40.9108C331.099 40.7545 330.888 40.6667 330.667 40.6667C330.445 40.6667 330.234 40.7545 330.077 40.9108C329.921 41.0671 329.833 41.2791 329.833 41.5001V42.3334H328.167C327.503 42.3334 326.868 42.5968 326.399 43.0656C325.93 43.5345 325.667 44.1704 325.667 44.8334V54.8334C325.667 55.4965 325.93 56.1323 326.399 56.6012C326.868 57.07 327.503 57.3334 328.167 57.3334H339.833C340.496 57.3334 341.132 57.07 341.601 56.6012C342.07 56.1323 342.333 55.4965 342.333 54.8334V44.8334C342.333 44.1704 342.07 43.5345 341.601 43.0656C341.132 42.5968 340.496 42.3334 339.833 42.3334ZM340.667 54.8334C340.667 55.0544 340.579 55.2664 340.422 55.4227C340.266 55.579 340.054 55.6667 339.833 55.6667H328.167C327.945 55.6667 327.734 55.579 327.577 55.4227C327.421 55.2664 327.333 55.0544 327.333 54.8334V49.0001H340.667V54.8334ZM340.667 47.3334H327.333V44.8334C327.333 44.6124 327.421 44.4004 327.577 44.2442C327.734 44.0879 327.945 44.0001 328.167 44.0001H329.833V44.8334C329.833 45.0544 329.921 45.2664 330.077 45.4227C330.234 45.579 330.445 45.6667 330.667 45.6667C330.888 45.6667 331.099 45.579 331.256 45.4227C331.412 45.2664 331.5 45.0544 331.5 44.8334V44.0001H336.5V44.8334C336.5 45.0544 336.588 45.2664 336.744 45.4227C336.9 45.579 337.112 45.6667 337.333 45.6667C337.554 45.6667 337.766 45.579 337.922 45.4227C338.079 45.2664 338.167 45.0544 338.167 44.8334V44.0001H339.833C340.054 44.0001 340.266 44.0879 340.422 44.2442C340.579 44.4004 340.667 44.6124 340.667 44.8334V47.3334Z" fill="#F18604"/>
<mask id="path-18-inside-4_93_331" fill="white">
<path d="M442 14H541V64H442V14Z"/>
</mask>
<path d="M541 63H442V65H541V63Z" fill="#959595" mask="url(#path-18-inside-4_93_331)"/>
<path d="M470.332 50.628L468.04 52.956H471.844V54H466.456V53.124L469.552 49.968C470.224 49.284 470.74 48.72 470.74 47.904C470.74 47.076 470.128 46.488 469.132 46.488C468.112 46.488 467.476 47.16 467.44 48.06H466.36C466.396 46.62 467.524 45.468 469.132 45.468C470.776 45.468 471.844 46.536 471.844 47.88C471.844 48.96 471.148 49.8 470.332 50.628ZM478.793 54H477.689V46.644H475.145V45.6H481.337V46.644H478.793V54ZM482.661 54H481.629V47.964H482.396L482.625 48.72H482.685C482.901 48.396 483.489 47.832 484.245 47.832C484.425 47.832 484.581 47.844 484.713 47.88V48.924C484.557 48.876 484.413 48.864 484.245 48.864C483.321 48.864 482.661 49.512 482.661 50.604V54ZM487.691 47.832C489.071 47.832 490.019 48.792 490.019 50.172V54H489.239L489.023 53.244H488.963C488.723 53.592 488.135 54.132 487.151 54.132C485.927 54.132 485.135 53.316 485.135 52.32C485.135 51.168 486.239 50.4 487.847 50.4H488.975V50.124C488.975 49.296 488.459 48.78 487.691 48.78C486.923 48.78 486.539 49.236 486.443 49.764H485.399C485.507 48.756 486.359 47.832 487.691 47.832ZM487.319 53.22C488.339 53.22 488.975 52.536 488.975 51.684V51.228H487.919C486.779 51.228 486.167 51.624 486.167 52.272C486.167 52.824 486.563 53.22 487.319 53.22ZM493.62 52.68L495.408 47.964H496.476L494.088 54H493.116L490.716 47.964H491.82L493.62 52.68ZM502.554 50.832C502.554 51.084 502.542 51.288 502.506 51.432H497.922C498.078 52.524 498.798 53.184 499.794 53.184C500.514 53.184 500.982 52.86 501.282 52.38H502.35C501.99 53.292 501.03 54.132 499.782 54.132C498.15 54.132 496.866 52.812 496.866 50.976C496.866 49.188 498.186 47.832 499.77 47.832C501.354 47.832 502.554 49.14 502.554 50.832ZM499.77 48.78C498.858 48.78 498.066 49.488 497.91 50.58H501.546C501.426 49.524 500.718 48.78 499.77 48.78ZM504.904 54H503.872V45.6H504.904V54ZM511.929 50.832C511.929 51.084 511.917 51.288 511.881 51.432H507.297C507.453 52.524 508.173 53.184 509.169 53.184C509.889 53.184 510.357 52.86 510.657 52.38H511.725C511.365 53.292 510.405 54.132 509.157 54.132C507.525 54.132 506.241 52.812 506.241 50.976C506.241 49.188 507.561 47.832 509.145 47.832C510.729 47.832 511.929 49.14 511.929 50.832ZM509.145 48.78C508.233 48.78 507.441 49.488 507.285 50.58H510.921C510.801 49.524 510.093 48.78 509.145 48.78ZM514.219 54H513.187V47.964H513.955L514.183 48.72H514.243C514.459 48.396 515.047 47.832 515.803 47.832C515.983 47.832 516.139 47.844 516.271 47.88V48.924C516.115 48.876 515.971 48.864 515.803 48.864C514.879 48.864 514.219 49.512 514.219 50.604V54ZM518.998 54.132C517.642 54.132 516.754 53.232 516.682 52.2H517.714C517.774 52.8 518.23 53.22 518.998 53.22C519.742 53.22 520.126 52.848 520.126 52.38C520.126 51.036 516.838 51.66 516.838 49.56C516.838 48.612 517.63 47.832 518.914 47.832C520.174 47.832 521.014 48.672 521.074 49.704H520.054C519.982 49.104 519.61 48.744 518.914 48.744C518.23 48.744 517.87 49.092 517.87 49.524C517.87 50.808 521.158 50.22 521.158 52.344C521.158 53.352 520.378 54.132 518.998 54.132Z" fill="#CBCBCB"/>
<path d="M451.132 26.304V25.1H455.85V30H454.996L454.716 28.53C454.072 29.37 452.798 30.182 450.936 30.182C447.982 30.182 445.728 27.956 445.728 25.1C445.728 22.244 447.982 20.018 450.95 20.018C453.554 20.018 455.22 21.67 455.668 23.266H454.268C453.806 22.286 452.854 21.306 450.95 21.306C448.752 21.306 447.1 22.902 447.1 25.1C447.1 27.298 448.752 28.894 450.936 28.894C453.036 28.894 454.31 27.746 454.464 26.304H451.132ZM461.318 30.182C459.4 30.182 458 28.866 458 26.808V22.958H459.302V26.668C459.302 28.096 460.198 28.964 461.528 28.964C462.9 28.964 463.81 28.096 463.81 26.668V22.958H465.112V30H464.132L463.866 29.118H463.796C463.46 29.58 462.662 30.182 461.318 30.182ZM474.576 26.318C474.576 26.556 474.548 26.85 474.506 27.032H468.262C468.486 28.264 469.508 29.006 470.838 29.006C471.86 29.006 472.518 28.684 472.938 28.11H474.296C473.82 29.23 472.574 30.182 470.81 30.182C468.64 30.182 466.932 28.628 466.932 26.472C466.932 24.358 468.696 22.776 470.81 22.776C472.826 22.776 474.576 24.316 474.576 26.318ZM470.796 23.952C469.55 23.952 468.486 24.736 468.248 25.968H473.302C473.12 24.778 472.042 23.952 470.796 23.952ZM479.12 30.182C477.16 30.182 476.012 29.104 475.9 27.9H477.188C477.37 28.6 477.958 29.048 479.134 29.048C480.352 29.048 480.842 28.656 480.842 28.124C480.842 26.43 476.138 27.564 476.138 24.82C476.138 23.728 477.09 22.776 478.98 22.776C480.702 22.776 481.836 23.756 481.99 24.988H480.702C480.576 24.372 480.03 23.91 478.98 23.91C477.832 23.91 477.426 24.344 477.426 24.792C477.426 26.388 482.13 25.282 482.13 28.11C482.13 29.286 481.15 30.182 479.12 30.182ZM486.993 30.182C485.481 30.182 484.515 29.216 484.515 27.55V24.148H483.031V23H483.801C484.389 23 484.697 22.692 484.697 22.104V21.11H485.803V22.958H487.917V24.148H485.803V27.48C485.803 28.488 486.293 28.964 487.133 28.964C487.427 28.964 487.679 28.922 487.917 28.81V29.986C487.665 30.112 487.343 30.182 486.993 30.182ZM492.273 30.182C490.313 30.182 489.165 29.104 489.053 27.9H490.341C490.523 28.6 491.111 29.048 492.287 29.048C493.505 29.048 493.995 28.656 493.995 28.124C493.995 26.43 489.291 27.564 489.291 24.82C489.291 23.728 490.243 22.776 492.133 22.776C493.855 22.776 494.989 23.756 495.143 24.988H493.855C493.729 24.372 493.183 23.91 492.133 23.91C490.985 23.91 490.579 24.344 490.579 24.792C490.579 26.388 495.283 25.282 495.283 28.11C495.283 29.286 494.303 30.182 492.273 30.182Z" fill="white"/>
<path d="M447 45.6666C447 45.2246 447.175 44.8006 447.488 44.4881C447.801 44.1755 448.224 43.9999 448.667 43.9999C449.109 43.9999 449.532 44.1755 449.845 44.4881C450.158 44.8006 450.333 45.2246 450.333 45.6666C450.333 46.1086 450.158 46.5325 449.845 46.8451C449.532 47.1577 449.109 47.3333 448.667 47.3333C448.224 47.3333 447.801 47.1577 447.488 46.8451C447.175 46.5325 447 46.1086 447 45.6666ZM448.667 42.3333C447.782 42.3333 446.935 42.6844 446.309 43.3096C445.684 43.9347 445.333 44.7825 445.333 45.6666C445.333 46.5506 445.684 47.3985 446.309 48.0236C446.935 48.6487 447.782 48.9999 448.667 48.9999C449.551 48.9999 450.398 48.6487 451.024 48.0236C451.649 47.3985 452 46.5506 452 45.6666C452 44.7825 451.649 43.9347 451.024 43.3096C450.398 42.6844 449.551 42.3333 448.667 42.3333ZM455.333 46.4999C455.333 46.2789 455.421 46.0669 455.577 45.9107C455.734 45.7544 455.945 45.6666 456.167 45.6666C456.388 45.6666 456.599 45.7544 456.756 45.9107C456.912 46.0669 457 46.2789 457 46.4999C457 46.7209 456.912 46.9329 456.756 47.0892C456.599 47.2455 456.388 47.3333 456.167 47.3333C455.945 47.3333 455.734 47.2455 455.577 47.0892C455.421 46.9329 455.333 46.7209 455.333 46.4999ZM456.167 43.9999C455.503 43.9999 454.868 44.2633 454.399 44.7322C453.93 45.201 453.667 45.8369 453.667 46.4999C453.667 47.163 453.93 47.7988 454.399 48.2677C454.868 48.7365 455.503 48.9999 456.167 48.9999C456.83 48.9999 457.465 48.7365 457.934 48.2677C458.403 47.7988 458.667 47.163 458.667 46.4999C458.667 45.8369 458.403 45.201 457.934 44.7322C457.465 44.2633 456.83 43.9999 456.167 43.9999ZM443.667 52.7499C443.667 51.5999 444.6 50.6666 445.75 50.6666H451.583C452.733 50.6666 453.667 51.5999 453.667 52.7499V52.8299C453.665 52.8907 453.661 52.9513 453.653 53.0116C453.638 53.1575 453.613 53.3023 453.578 53.4449C453.466 53.9058 453.265 54.3406 452.987 54.7249C452.28 55.6966 450.963 56.4999 448.667 56.4999C446.37 56.4999 445.053 55.6966 444.347 54.7249C443.982 54.2197 443.753 53.63 443.68 53.0116L443.667 52.8283V52.7499ZM445.333 52.7933L445.337 52.8383C445.341 52.886 445.354 52.9577 445.375 53.0533C445.42 53.2416 445.512 53.4933 445.695 53.7449C446.028 54.2049 446.795 54.8333 448.667 54.8333C450.538 54.8333 451.303 54.2049 451.638 53.7449C451.839 53.4647 451.963 53.1374 452 52.7949V52.7499C452 52.6394 451.956 52.5334 451.878 52.4553C451.8 52.3772 451.694 52.3333 451.583 52.3333H445.75C445.639 52.3333 445.533 52.3772 445.455 52.4553C445.377 52.5334 445.333 52.6394 445.333 52.7499V52.7933ZM456.165 55.6666C455.575 55.6644 455.057 55.6088 454.61 55.4999C454.913 55.0183 455.13 54.4868 455.248 53.9299C455.506 53.9744 455.812 53.9977 456.165 53.9999C457.648 53.9999 458.212 53.5466 458.432 53.2716C458.552 53.1183 458.632 52.9372 458.665 52.7449V52.7366C458.661 52.6284 458.616 52.5258 458.538 52.4505C458.46 52.3753 458.356 52.3332 458.248 52.3333H455.31C455.244 51.7369 455.035 51.1652 454.702 50.6666H458.25C459.4 50.6666 460.333 51.5999 460.333 52.7499V52.7783C460.332 52.8301 460.328 52.8818 460.322 52.9333C460.256 53.4377 460.053 53.9144 459.735 54.3116C459.12 55.0783 458.018 55.6666 456.167 55.6666" fill="#F18604"/>
<rect x="551" y="14" width="45" height="50" rx="4" fill="#F18604"/>
<path d="M568.885 30.6904C568.395 30.1964 568.395 29.3998 568.885 28.906C569.381 28.4068 570.188 28.4069 570.684 28.9063L579.506 37.7991C579.662 37.9561 579.787 38.1428 579.871 38.3485C579.956 38.5541 580 38.7747 580 38.9975C580 39.2202 579.956 39.4408 579.871 39.6464C579.787 39.8521 579.662 40.0388 579.506 40.1958L570.684 49.0933C570.188 49.5928 569.381 49.5929 568.886 49.0934C568.396 48.5999 568.396 47.8041 568.886 47.3105L576.589 39.5411C576.886 39.2415 576.886 38.7585 576.589 38.459L568.885 30.6904Z" fill="#1E2F22"/>
</svg>
