<?xml version="1.0" encoding="UTF-8"?>
<svg version="1.1" xmlns="http://www.w3.org/2000/svg" width="282" height="56">
<path d="M0 0 C2.2530946 1.24997329 4.4582482 2.55902329 6.65869141 3.89941406 C7.41730469 4.34671875 8.17591797 4.79402344 8.95751953 5.25488281 C16.10715274 9.5333041 16.10715274 9.5333041 17.97119141 12.02441406 C18.72986371 16.59348332 18.61920149 21.21194745 18.65869141 25.83691406 C18.73893555 27.7444043 18.73893555 27.7444043 18.82080078 29.69042969 C18.91155182 38.80852137 18.91155182 38.80852137 16.35473633 42.11450195 C14.30066482 43.67777111 12.27307023 44.8630845 9.97119141 46.02441406 C8.92833984 46.71148437 7.88548828 47.39855469 6.81103516 48.10644531 C5.85326172 48.6775 4.89548828 49.24855469 3.90869141 49.83691406 C2.46816406 50.71283203 2.46816406 50.71283203 0.99853516 51.60644531 C-2.64980297 53.31527982 -4.97050759 54.0540986 -9.02880859 54.02441406 C-12.50890274 52.63557085 -15.60425301 50.75176476 -18.77880859 48.77441406 C-19.62830078 48.27039062 -20.47779297 47.76636719 -21.35302734 47.24707031 C-30.44549585 41.7743523 -30.44549585 41.7743523 -32.02880859 37.02441406 C-32.33698325 33.25883188 -32.35255174 29.48861259 -32.40380859 25.71191406 C-32.45988281 24.16213867 -32.45988281 24.16213867 -32.51708984 22.58105469 C-32.57287646 17.74931352 -32.49895109 14.82438522 -30.01318359 10.59472656 C-26.51243282 7.57968205 -22.97442671 5.3658568 -18.90380859 3.21191406 C-18.18837891 2.81810547 -17.47294922 2.42429687 -16.73583984 2.01855469 C-10.78597059 -1.22328996 -6.61363878 -3.18027684 0 0 Z " fill="#32D6E8" transform="translate(32.02880859375,1.9755859375)"/>
<path d="M0 0 C0.66 0.33 1.32 0.66 2 1 C1.38125 1.7425 0.7625 2.485 0.125 3.25 C-1.60437281 5.48801188 -2.86106661 7.43739987 -4 10 C-1.69 8.68 0.62 7.36 3 6 C3.33 10.29 3.66 14.58 4 19 C5.32 19 6.64 19 8 19 C8.05406122 17.06280622 8.09282025 15.12518079 8.125 13.1875 C8.14820313 12.10855469 8.17140625 11.02960937 8.1953125 9.91796875 C8.23023717 6.80597132 8.23023717 6.80597132 6 4 C9.3 4 12.6 4 16 4 C16 14.56 16 25.12 16 36 C24.07611998 38.69203999 29.99842929 38.72393896 38 36 C35.44154308 38.85635944 32.53189415 40.66752506 29.25 42.625 C28.24453125 43.23601563 27.2390625 43.84703125 26.203125 44.4765625 C22.4736238 46.25034966 20.15367898 47.04363108 16 47 C12.52050668 45.60954037 9.42462966 43.72739683 6.25 41.75 C5.40050781 41.24597656 4.55101562 40.74195313 3.67578125 40.22265625 C-5.41668725 34.74993824 -5.41668725 34.74993824 -7 30 C-7.30817465 26.23441781 -7.32374314 22.46419853 -7.375 18.6875 C-7.43107422 17.13772461 -7.43107422 17.13772461 -7.48828125 15.55664062 C-7.58701536 7.00516925 -7.58701536 7.00516925 -4.6015625 3.33203125 C-2 1 -2 1 0 0 Z " fill="#019BD0" transform="translate(7,9)"/>
<path d="M0 0 C1.21862896 0.91842391 2.4089959 1.87600684 3.5625 2.875 C4.5525 3.720625 5.5425 4.56625 6.5625 5.4375 C9.47160245 10.43751984 9.17931096 15.20915076 8.5625 20.875 C7.5625 21.875 7.5625 21.875 5.0625 22 C2.5625 21.875 2.5625 21.875 1.5625 20.875 C1.459375 19.781875 1.35625 18.68875 1.25 17.5625 C0.48502722 13.45946421 -0.44730062 12.57871321 -3.4375 9.875 C-3.45731934 10.71272949 -3.47713867 11.55045898 -3.49755859 12.41357422 C-3.57560612 15.51865834 -3.66229635 18.62334539 -3.75488281 21.72802734 C-3.81204036 23.73386971 -3.85918596 25.73998918 -3.90625 27.74609375 C-3.94492187 29.00292969 -3.98359375 30.25976562 -4.0234375 31.5546875 C-4.0548584 32.71726074 -4.0862793 33.87983398 -4.11865234 35.07763672 C-4.4375 37.875 -4.4375 37.875 -6.4375 39.875 C-9.97321429 39.33928571 -9.97321429 39.33928571 -11.4375 37.875 C-11.53758391 35.76492912 -11.56831127 33.65150467 -11.5703125 31.5390625 C-11.57160156 30.24742188 -11.57289062 28.95578125 -11.57421875 27.625 C-11.57107666 26.60986328 -11.57107666 26.60986328 -11.56787109 25.57421875 C-11.56254026 23.51554936 -11.56780701 21.4570999 -11.57421875 19.3984375 C-11.57292969 18.10421875 -11.57164063 16.81 -11.5703125 15.4765625 C-11.56918457 14.28369629 -11.56805664 13.09083008 -11.56689453 11.86181641 C-11.4375 8.875 -11.4375 8.875 -10.4375 5.875 C-14.8925 6.37 -14.8925 6.37 -19.4375 6.875 C-18.7775 7.535 -18.1175 8.195 -17.4375 8.875 C-17.2421875 11.6953125 -17.2421875 11.6953125 -17.3125 15 C-17.33054687 16.09570312 -17.34859375 17.19140625 -17.3671875 18.3203125 C-17.40199219 19.58488281 -17.40199219 19.58488281 -17.4375 20.875 C-19.09364657 21.25718767 -20.76207024 21.58895102 -22.4375 21.875 C-24.24865956 20.06384044 -23.81949448 17.26221773 -24 14.8125 C-24.08378906 13.70777344 -24.16757812 12.60304688 -24.25390625 11.46484375 C-24.34478516 10.18287109 -24.34478516 10.18287109 -24.4375 8.875 C-25.05625 9.37 -25.675 9.865 -26.3125 10.375 C-28.4375 11.875 -28.4375 11.875 -30.4375 11.875 C-28.79838911 6.0015193 -26.547384 2.28158933 -21.4375 -1.125 C-14.50241691 -2.91996268 -6.34908208 -3.76599545 0 0 Z " fill="#33DBEA" transform="translate(33.4375,7.125)"/>
<path d="M0 0 C1.32 0.33 2.64 0.66 4 1 C4.66 0.67 5.32 0.34 6 0 C13.30434783 -0.23188406 13.30434783 -0.23188406 17 1 C17.66 0.67 18.32 0.34 19 0 C25.1456788 -0.56904433 25.1456788 -0.56904433 28.2109375 1.47265625 C30.82776766 5.16935738 30.4400947 8.34126514 30.25 12.75 C30.23195312 13.54277344 30.21390625 14.33554687 30.1953125 15.15234375 C30.14833082 17.10208348 30.07659044 19.05119878 30 21 C28.68 21 27.36 21 26 21 C25.93941406 19.92878906 25.87882812 18.85757813 25.81640625 17.75390625 C25.73201463 16.35675609 25.64736594 14.95962143 25.5625 13.5625 C25.52318359 12.85544922 25.48386719 12.14839844 25.44335938 11.41992188 C25.52375562 7.91309581 25.52375562 7.91309581 24 5 C21.5 4.83333333 21.5 4.83333333 19 5 C17.00383446 6.99616554 17.59016573 10.81701963 17.4375 13.5625 C17.39431641 14.27341797 17.35113281 14.98433594 17.30664062 15.71679688 C17.20028223 17.47761912 17.09961154 19.2387832 17 21 C15.68 21 14.36 21 13 21 C12.93941406 20.01257813 12.87882813 19.02515625 12.81640625 18.0078125 C12.73261719 16.72648437 12.64882812 15.44515625 12.5625 14.125 C12.44068359 12.21074219 12.44068359 12.21074219 12.31640625 10.2578125 C12.20793973 7.11699848 12.20793973 7.11699848 11 5 C9.33388095 4.957279 7.66617115 4.95936168 6 5 C4.00383446 6.99616554 4.59016573 10.81701963 4.4375 13.5625 C4.39431641 14.27341797 4.35113281 14.98433594 4.30664062 15.71679688 C4.20028223 17.47761912 4.09961154 19.2387832 4 21 C2.68 21 1.36 21 0 21 C0 14.07 0 7.14 0 0 Z " fill="#currentColor" transform="translate(182,21)"/>
<path d="M0 0 C0.66 0.33 1.32 0.66 2 1 C1.38125 1.7425 0.7625 2.485 0.125 3.25 C-1.60437281 5.48801188 -2.86106661 7.43739987 -4 10 C-2.35 9.34 -0.7 8.68 1 8 C0.01 9.485 0.01 9.485 -1 11 C-1.66 11 -2.32 11 -3 11 C-3.66 12.98 -4.32 14.96 -5 17 C-5.33 17 -5.66 17 -6 17 C-7.71064787 8.42982352 -7.71064787 8.42982352 -6.0234375 5.03515625 C-4.23953228 2.90177252 -2.49688425 1.24844213 0 0 Z M6 4 C9.3 4 12.6 4 16 4 C16 14.89 16 25.78 16 37 C9.41776398 34.36710559 6.73640606 30.93392749 3.1875 24.9375 C0.99518408 19.34064642 1.23850834 12.9298107 1 7 C1.66 6.67 2.32 6.34 3 6 C3.33 10.29 3.66 14.58 4 19 C5.32 19 6.64 19 8 19 C8.05406122 17.06280622 8.09282025 15.12518079 8.125 13.1875 C8.14820313 12.10855469 8.17140625 11.02960937 8.1953125 9.91796875 C8.23023717 6.80597132 8.23023717 6.80597132 6 4 Z " fill="#01BADC" transform="translate(7,9)"/>
<path d="M0 0 C0.95648438 -0.03738281 1.91296875 -0.07476563 2.8984375 -0.11328125 C5.625 0.3125 5.625 0.3125 7.9609375 1.78515625 C10.4061581 5.49890679 10.06213397 8.72243139 9.875 13.0625 C9.85695312 13.85527344 9.83890625 14.64804687 9.8203125 15.46484375 C9.77333082 17.41458348 9.70159044 19.36369878 9.625 21.3125 C7.1872037 21.36647335 4.75060315 21.40615616 2.3125 21.4375 C1.27706055 21.46263672 1.27706055 21.46263672 0.22070312 21.48828125 C-3.54635396 21.52467794 -5.15931704 21.45628864 -8.375 19.3125 C-9.14487448 12.38362971 -9.14487448 12.38362971 -6.9375 9.3125 C-3.10863249 7.8183078 0.56526421 8.07828447 4.625 8.3125 C4.295 7.3225 3.965 6.3325 3.625 5.3125 C-0.005 5.3125 -3.635 5.3125 -7.375 5.3125 C-7.375 3.9925 -7.375 2.6725 -7.375 1.3125 C-4.81683084 0.03341542 -2.85652006 0.07275319 0 0 Z M-3.375 12.3125 C-4.0564823 14.20429203 -4.0564823 14.20429203 -4.375 16.3125 C-3.715 16.9725 -3.055 17.6325 -2.375 18.3125 C0.72426819 17.99051034 0.72426819 17.99051034 3.625 17.3125 C3.955 15.6625 4.285 14.0125 4.625 12.3125 C1.985 12.3125 -0.655 12.3125 -3.375 12.3125 Z " fill="#currentColor" transform="translate(225.375,20.6875)"/>
<path d="M0 0 C0.95648438 -0.03738281 1.91296875 -0.07476563 2.8984375 -0.11328125 C5.625 0.3125 5.625 0.3125 7.9609375 1.78515625 C10.4061581 5.49890679 10.06213397 8.72243139 9.875 13.0625 C9.85695313 13.85527344 9.83890625 14.64804687 9.8203125 15.46484375 C9.77333082 17.41458348 9.70159044 19.36369878 9.625 21.3125 C7.1872037 21.36647335 4.75060315 21.40615616 2.3125 21.4375 C1.27706055 21.46263672 1.27706055 21.46263672 0.22070312 21.48828125 C-3.54635396 21.52467794 -5.15931704 21.45628864 -8.375 19.3125 C-9.14487448 12.38362971 -9.14487448 12.38362971 -6.9375 9.3125 C-3.10863249 7.8183078 0.56526421 8.07828447 4.625 8.3125 C4.295 7.3225 3.965 6.3325 3.625 5.3125 C-0.005 5.3125 -3.635 5.3125 -7.375 5.3125 C-7.375 3.9925 -7.375 2.6725 -7.375 1.3125 C-4.81683084 0.03341542 -2.85652006 0.07275319 0 0 Z M-3.375 12.3125 C-4.0564823 14.20429203 -4.0564823 14.20429203 -4.375 16.3125 C-3.715 16.9725 -3.055 17.6325 -2.375 18.3125 C0.72426819 17.99051034 0.72426819 17.99051034 3.625 17.3125 C3.955 15.6625 4.285 14.0125 4.625 12.3125 C1.985 12.3125 -0.655 12.3125 -3.375 12.3125 Z " fill="#currentColor" transform="translate(91.375,20.6875)"/>
<path d="M0 0 C2.5 0.9375 2.5 0.9375 4 3 C4.62427294 6.03525808 4.81956824 8.88755217 5 12 C0.05 12 -4.9 12 -10 12 C-9.34 13.32 -8.68 14.64 -8 16 C-3.84152793 16.80486556 -0.23279988 17 4 17 C4 18.32 4 19.64 4 21 C-7.60287491 21.76446467 -7.60287491 21.76446467 -12.3125 19.1875 C-14.82020894 14.45071645 -14.95061813 10.24018423 -14 5 C-10.52938313 -0.70972453 -6.15745139 -1.00130518 0 0 Z M-8 4 C-8.66 5.32 -9.32 6.64 -10 8 C-6.7 8 -3.4 8 0 8 C-0.33 6.68 -0.66 5.36 -1 4 C-3.31 4 -5.62 4 -8 4 Z " fill="#currentColor" transform="translate(139,21)"/>
<path d="M0 0 C2.57637471 1.88515223 3.59667428 3.19334857 5 6 C5.61493604 10.96341236 5.73594779 14.77342035 3.125 19.125 C-1.29914198 21.77948519 -4.96956983 21.98134621 -10 21 C-13.125 19.1875 -13.125 19.1875 -15 16 C-15.95722984 10.67939746 -15.8917249 6.51593234 -13.125 1.8125 C-8.74029605 -0.73062829 -4.95579574 -0.9292117 0 0 Z M-9.875 5.0625 C-11.62409203 8.07482516 -11.30401551 10.59502627 -11 14 C-9.31863969 17.1108717 -9.31863969 17.1108717 -6.6875 18 C-3.78399188 18.2557893 -3.78399188 18.2557893 -1.125 16 C1.36567455 13.11105165 1.36567455 13.11105165 0.9375 9.3125 C0.27734142 5.95212718 0.27734142 5.95212718 -2 4 C-5.07108055 3.6732893 -7.15050101 3.51861724 -9.875 5.0625 Z " fill="#currentColor" transform="translate(173,21)"/>
<path d="M0 0 C2.75 -0.375 2.75 -0.375 6 0 C8.375 3 8.375 3 10 6 C10.70125 5.01 11.4025 4.02 12.125 3 C14.32959535 0.30900395 14.64418661 0.04028076 18.3125 -0.375 C19.199375 -0.25125 20.08625 -0.1275 21 0 C20.3503125 0.92232422 20.3503125 0.92232422 19.6875 1.86328125 C19.130625 2.67152344 18.57375 3.47976562 18 4.3125 C17.443125 5.11300781 16.88625 5.91351563 16.3125 6.73828125 C14.74904036 8.99663018 14.74904036 8.99663018 15 12 C16.31081054 14.32991755 16.31081054 14.32991755 18 16.6875 C18.556875 17.49574219 19.11375 18.30398437 19.6875 19.13671875 C20.120625 19.75160156 20.55375 20.36648437 21 21 C18.3125 21.3125 18.3125 21.3125 15 21 C12.125 18.5 12.125 18.5 10 16 C9.46375 16.825 8.9275 17.65 8.375 18.5 C6 21 6 21 2.75 21.3125 C1.8425 21.209375 0.935 21.10625 0 21 C0.6496875 20.07767578 0.6496875 20.07767578 1.3125 19.13671875 C1.869375 18.32847656 2.42625 17.52023438 3 16.6875 C3.8353125 15.48673828 3.8353125 15.48673828 4.6875 14.26171875 C6.25095964 12.00336982 6.25095964 12.00336982 6 9 C4.68918946 6.67008245 4.68918946 6.67008245 3 4.3125 C2.443125 3.50425781 1.88625 2.69601563 1.3125 1.86328125 C0.6628125 0.94095703 0.6628125 0.94095703 0 0 Z " fill="#currentColor" transform="translate(261,21)"/>
<path d="M0 0 C1.2065625 0.0309375 1.2065625 0.0309375 2.4375 0.0625 C4.72581108 4.63912216 3.62252705 11.03747292 3.625 16.0625 C3.63724609 17.3721875 3.64949219 18.681875 3.66210938 20.03125 C3.66500977 21.90296875 3.66500977 21.90296875 3.66796875 23.8125 C3.67207764 24.96234375 3.67618652 26.1121875 3.68041992 27.296875 C3.4375 30.0625 3.4375 30.0625 1.4375 32.0625 C-2.09821429 31.52678571 -2.09821429 31.52678571 -3.5625 30.0625 C-3.66253289 27.92896826 -3.69331048 25.79212458 -3.6953125 23.65625 C-3.69660156 22.35558594 -3.69789062 21.05492187 -3.69921875 19.71484375 C-3.69712402 19.03405762 -3.6950293 18.35327148 -3.69287109 17.65185547 C-3.6875224 15.57121485 -3.6928168 13.49079011 -3.69921875 11.41015625 C-3.69792969 10.10949219 -3.69664063 8.80882812 -3.6953125 7.46875 C-3.69418457 6.26541016 -3.69305664 5.06207031 -3.69189453 3.82226562 C-3.51670514 0.0857733 -3.51670514 0.0857733 0 0 Z " fill="#F3FCFD" transform="translate(25.5625,14.9375)"/>
<path d="M0 0 C1.65 0 3.3 0 5 0 C6.65 4.29 8.3 8.58 10 13 C11.65 8.71 13.3 4.42 15 0 C16.65 0 18.3 0 20 0 C18.033631 7.36988707 15.30417422 14.13045202 12 21 C10.35 21 8.7 21 7 21 C5.82504857 18.06574629 4.66149148 15.12710487 3.5 12.1875 C3.16613281 11.35412109 2.83226563 10.52074219 2.48828125 9.66210938 C2.17246094 8.85966797 1.85664062 8.05722656 1.53125 7.23046875 C1.23798828 6.49207764 0.94472656 5.75368652 0.64257812 4.99291992 C0 3 0 3 0 0 Z " fill="#currentColor" transform="translate(104,21)"/>
<path d="M0 0 C0.66 0.33 1.32 0.66 2 1 C1.38125 1.7425 0.7625 2.485 0.125 3.25 C-1.60437281 5.48801188 -2.86106661 7.43739987 -4 10 C-2.35 9.34 -0.7 8.68 1 8 C0.01 9.485 0.01 9.485 -1 11 C-1.66 11 -2.32 11 -3 11 C-3.66 12.98 -4.32 14.96 -5 17 C-5.33 17 -5.66 17 -6 17 C-7.71064787 8.42982352 -7.71064787 8.42982352 -6.0234375 5.03515625 C-4.23953228 2.90177252 -2.49688425 1.24844213 0 0 Z M2 6 C2.33 6 2.66 6 3 6 C3.03738281 6.91523438 3.07476562 7.83046875 3.11328125 8.7734375 C3.17902344 9.96195313 3.24476562 11.15046875 3.3125 12.375 C3.37050781 13.55835938 3.42851562 14.74171875 3.48828125 15.9609375 C3.65714844 16.96382812 3.82601563 17.96671875 4 19 C4.99 19.66 5.98 20.32 7 21 C6.01 21.495 6.01 21.495 5 22 C8.90354501 24.74064876 8.90354501 24.74064876 13.15625 26.84375 C15 28 15 28 15.609375 30.1640625 C15.65578125 30.97617187 15.7021875 31.78828125 15.75 32.625 C15.80671875 33.44226563 15.8634375 34.25953125 15.921875 35.1015625 C15.96054687 36.04128906 15.96054687 36.04128906 16 37 C9.61023759 35.3085923 6.40176171 30.36849393 3.1875 24.9375 C1.02333863 19.36702548 1.03167859 12.9080564 1 7 C1.33 6.67 1.66 6.34 2 6 Z " fill="#38B8DD" transform="translate(7,9)"/>
<path d="M0 0 C0.94842773 0.50273437 0.94842773 0.50273437 1.91601562 1.015625 C4.77221205 2.63199339 6.45926569 3.61645303 7.59375 6.765625 C7.6246875 7.58546875 7.655625 8.4053125 7.6875 9.25 C7.74292969 9.930625 7.79835938 10.61125 7.85546875 11.3125 C7.89692014 15.42447747 7.56811481 18.48877038 5.6875 22.25 C5.3575 22.25 5.0275 22.25 4.6875 22.25 C4.68363281 21.18072266 4.68363281 21.18072266 4.6796875 20.08984375 C4.4335512 13.99386813 3.74025509 10.20445292 -0.44921875 5.6875 C-5.52121644 1.77451226 -9.89397399 0.82466326 -16.1875 1.0625 C-17.22003906 1.08280273 -17.22003906 1.08280273 -18.2734375 1.10351562 C-19.95347001 1.1385163 -21.6330935 1.19231046 -23.3125 1.25 C-14.74862743 -5.74644165 -9.59706707 -5.48980493 0 0 Z " fill="#03E5EC" transform="translate(37.3125,4.75)"/>
<path d="M0 0 C0.99 0 1.98 0 3 0 C3 1.32 3 2.64 3 4 C4.98 4 6.96 4 9 4 C9 5.32 9 6.64 9 8 C7.35 8 5.7 8 4 8 C4.33 12.29 4.66 16.58 5 21 C6.32 21.33 7.64 21.66 9 22 C9 22.99 9 23.98 9 25 C5.625 25.125 5.625 25.125 2 25 C0 23 0 23 -0.22705078 20.66162109 C-0.21657715 19.70852051 -0.20610352 18.75541992 -0.1953125 17.7734375 C-0.18886719 16.7421875 -0.18242187 15.7109375 -0.17578125 14.6484375 C-0.15902344 13.56820313 -0.14226562 12.48796875 -0.125 11.375 C-0.11597656 10.28703125 -0.10695312 9.1990625 -0.09765625 8.078125 C-0.07403409 5.38519848 -0.04109556 2.69270745 0 0 Z " fill="#currentColor" transform="translate(241,17)"/>
<path d="M0 0 C0.99 0 1.98 0 3 0 C3 1.32 3 2.64 3 4 C4.98 4 6.96 4 9 4 C9 5.32 9 6.64 9 8 C7.35 8 5.7 8 4 8 C4.33 12.29 4.66 16.58 5 21 C6.32 21.33 7.64 21.66 9 22 C9 22.99 9 23.98 9 25 C5.625 25.125 5.625 25.125 2 25 C0 23 0 23 -0.22705078 20.66162109 C-0.21657715 19.70852051 -0.20610352 18.75541992 -0.1953125 17.7734375 C-0.18886719 16.7421875 -0.18242188 15.7109375 -0.17578125 14.6484375 C-0.15902344 13.56820313 -0.14226563 12.48796875 -0.125 11.375 C-0.11597656 10.28703125 -0.10695312 9.1990625 -0.09765625 8.078125 C-0.07403409 5.38519848 -0.04109556 2.69270745 0 0 Z " fill="#currentColor" transform="translate(58,17)"/>
<path d="M0 0 C6.24489796 5.20408163 6.24489796 5.20408163 7 12 C8.91738855 13.96287824 8.91738855 13.96287824 11 15 C5.625 19.875 5.625 19.875 0 21 C0 14.07 0 7.14 0 0 Z " fill="#00CAE2" transform="translate(29,16)"/>
<path d="M0 0 C1.32 0 2.64 0 4 0 C4 9.57 4 19.14 4 29 C2.68 29 1.36 29 0 29 C0 19.43 0 9.86 0 0 Z " fill="#currentColor" transform="translate(149,13)"/>
<path d="M0 0 C1.32 0.33 2.64 0.66 4 1 C6.00946222 0.72949547 8.01354224 0.40632091 10 0 C10 1.32 10 2.64 10 4 C8.35 4.66 6.7 5.32 5 6 C4.67 10.95 4.34 15.9 4 21 C2.68 21 1.36 21 0 21 C0 14.07 0 7.14 0 0 Z " fill="#currentColor" transform="translate(71,21)"/>
<path d="M0 0 C2.5 0.125 2.5 0.125 3.5 1.125 C3.59873816 3.12299572 3.62971799 5.12457158 3.625 7.125 C3.62757812 8.218125 3.63015625 9.31125 3.6328125 10.4375 C3.5 13.125 3.5 13.125 2.5 14.125 C0 14.25 0 14.25 -2.5 14.125 C-3.5 13.125 -3.5 13.125 -3.6328125 10.4375 C-3.63023438 9.344375 -3.62765625 8.25125 -3.625 7.125 C-3.62757812 6.031875 -3.63015625 4.93875 -3.6328125 3.8125 C-3.45293603 0.1726468 -3.45293603 0.1726468 0 0 Z " fill="#E7FBFD" transform="translate(38.5,14.875)"/>
<path d="M0 0 C1.32 0 2.64 0 4 0 C4 6.93 4 13.86 4 21 C2.68 21 1.36 21 0 21 C0 14.07 0 7.14 0 0 Z " fill="#currentColor" transform="translate(254,21)"/>
<path d="M0 0 C1.65 0.33 3.3 0.66 5 1 C5 4.96 5 8.92 5 13 C3.35 13.33 1.7 13.66 0 14 C-1 13 -1 13 -1.1328125 10.3125 C-1.13023438 9.219375 -1.12765625 8.12625 -1.125 7 C-1.12757812 5.906875 -1.13015625 4.81375 -1.1328125 3.6875 C-1 1 -1 1 0 0 Z " fill="#FCFEFE" transform="translate(11,15)"/>
<path d="M0 0 C0.66 0.33 1.32 0.66 2 1 C1.38125 1.7425 0.7625 2.485 0.125 3.25 C-1.60437281 5.48801188 -2.86106661 7.43739987 -4 10 C-2.35 9.34 -0.7 8.68 1 8 C0.01 9.485 0.01 9.485 -1 11 C-1.66 11 -2.32 11 -3 11 C-3.66 12.98 -4.32 14.96 -5 17 C-5.33 17 -5.66 17 -6 17 C-7.71064787 8.42982352 -7.71064787 8.42982352 -6.0234375 5.03515625 C-4.23953228 2.90177252 -2.49688425 1.24844213 0 0 Z M2 6 C2.33 6.66 2.66 7.32 3 8 C2.34 7.67 1.68 7.34 1 7 C1.33 6.67 1.66 6.34 2 6 Z " fill="#05B3D9" transform="translate(7,9)"/>
<path d="M0 0 C0.33 0.66 0.66 1.32 1 2 C0.34 1.67 -0.32 1.34 -1 1 C-0.67 0.67 -0.34 0.34 0 0 Z M-3 2 C-2.34 2.33 -1.68 2.66 -1 3 C-1.61875 3.20625 -2.2375 3.4125 -2.875 3.625 C-5.84653645 5.54775888 -6.13024659 7.66594527 -7 11 C-7.33 11 -7.66 11 -8 11 C-8.3125 8.75 -8.3125 8.75 -8 6 C-5.5 3.6875 -5.5 3.6875 -3 2 Z " fill="#1FB5DB" transform="translate(9,15)"/>
<path d="M0 0 C1.32 0 2.64 0 4 0 C4 1.65 4 3.3 4 5 C2.68 5 1.36 5 0 5 C0 3.35 0 1.7 0 0 Z " fill="#currentColor" transform="translate(254,13)"/>
</svg>
