<svg version="1.2" xmlns="http://www.w3.org/2000/svg" viewBox="0 0 346 270" width="346" height="270">
	<style>
		.s0 { fill: #ffffff } 
		.s1 { fill: #ff5f00 } 
		.s2 { fill: #eb001b } 
		.s3 { fill: #f79e1b } 
	</style>
	<g id="Page-1">
		<g id="mastercard">
			<g id="Group">
				<path id="Shape" class="s0" d="m63.96 255.43v-16.96c0-6.51-3.96-10.75-10.46-10.75-3.41 0-7.07 1.14-9.61 4.78-1.98-3.11-4.78-4.78-9.05-4.78-3.22-0.14-6.3 1.35-8.19 3.96v-3.41h-5.37v27.14h5.37v-15.53c0-4.78 2.83-7.06 6.79-7.06 3.96 0 6.22 2.54 6.22 7.06v15.55h5.37v-15.55c0-4.78 2.82-7.06 6.78-7.06 3.96 0 6.22 2.54 6.22 7.06v15.55zm88.22-26.86h-9.9v-8.19h-5.36v8.19h-5.65v4.78h5.65v12.75c0 6.22 2.26 9.9 9.04 9.9 2.58-0.05 5.09-0.73 7.34-1.98l-1.7-4.78c-1.52 0.95-3.29 1.45-5.09 1.41-2.83 0-4.24-1.7-4.24-4.52v-13h9.9v-4.53zm50.33-0.84c-2.98-0.07-5.77 1.44-7.36 3.96v-3.42h-5.37v27.15h5.37v-15.25c0-4.52 2.26-7.35 5.94-7.35q1.87 0.08 3.68 0.57l1.7-5.1q-1.95-0.49-3.96-0.56zm-76.06 2.82c-2.83-1.98-6.79-2.82-11.02-2.82-6.79 0-11.03 3.11-11.03 8.48 0 4.53 3.11 7.07 9.05 7.92l2.82 0.28c3.11 0.57 5.09 1.7 5.09 3.12 0 1.98-2.26 3.41-6.5 3.41-3.24 0.07-6.42-0.93-9.05-2.83l-2.82 4.24c3.96 2.83 8.76 3.42 11.6 3.42 7.92 0 12.16-3.68 12.16-8.77 0-4.78-3.41-7.07-9.33-7.92l-2.83-0.28c-2.54-0.28-4.78-1.13-4.78-2.83 0-1.98 2.26-3.41 5.38-3.41 3.41 0 6.78 1.41 8.48 2.26zm82 11.31c0 8.19 5.37 14.14 14.13 14.14 3.96 0 6.79-0.85 9.62-3.11l-2.83-4.24c-2 1.62-4.49 2.52-7.07 2.54-4.77 0-8.48-3.67-8.48-9.04 0-5.37 3.66-9.02 8.48-9.02 2.58 0.03 5.07 0.93 7.07 2.55l2.83-4.24c-2.83-2.26-5.66-3.11-9.62-3.11-8.48-0.57-14.13 5.37-14.13 13.57zm-37.89-14.14c-7.92 0-13.29 5.65-13.29 14.14 0 8.48 5.65 14.13 13.85 14.13 3.99 0.09 7.88-1.21 11.02-3.67l-2.82-3.96c-2.27 1.76-5.05 2.75-7.92 2.83-3.67 0-7.63-2.26-8.19-7.07h20.07v-2.26c0-8.48-5.09-14.13-12.72-14.13zm-0.28 5.09c3.96 0 6.78 2.54 7.06 6.78h-14.69c0.84-3.96 3.41-6.78 7.63-6.78zm-73.23 9.04v-13.57h-5.37v3.42c-1.98-2.55-4.78-3.96-8.77-3.96-7.63 0-13.29 5.94-13.29 14.13 0 8.2 5.65 14.14 13.29 14.14 3.96 0 6.79-1.41 8.77-3.96v3.42h5.37zm-21.77 0c0-5.1 3.11-9.05 8.48-9.05 5.1 0 8.2 3.96 8.2 9.05 0 5.37-3.42 9.04-8.2 9.04-5.37 0.28-8.48-3.96-8.48-9.04zm208.95-14.14c-2.98-0.07-5.77 1.44-7.35 3.96v-3.42h-5.38v27.15h5.37v-15.25c0-4.52 2.26-7.35 5.94-7.35q1.87 0.08 3.67 0.57l1.7-5.1q-1.95-0.49-3.96-0.56zm-20.92 14.14v-13.58h-5.37v3.42c-1.98-2.55-4.78-3.96-8.77-3.96-7.63 0-13.29 5.94-13.29 14.14 0 8.2 5.65 14.13 13.29 14.13 3.96 0 6.79-1.41 8.77-3.95v3.41h5.37zm-21.77 0c0-5.09 3.11-9.05 8.48-9.05 5.1 0 8.2 3.96 8.2 9.05 0 5.37-3.42 9.04-8.2 9.04-5.37 0.28-8.48-3.96-8.48-9.04zm76.34 0v-24.32h-5.37v14.14c-1.98-2.55-4.78-3.96-8.77-3.96-7.63 0-13.29 5.94-13.29 14.14 0 8.2 5.65 14.14 13.29 14.14 3.96 0 6.79-1.42 8.77-3.96v3.41h5.37zm-21.77 0c0-5.09 3.11-9.04 8.49-9.04 5.09 0 8.19 3.95 8.19 9.04 0 5.37-3.41 9.05-8.19 9.05-5.38 0.28-8.5-3.96-8.5-9.05z"/>
				<g id="element_ebeaa13e">
					<path id="Rectangle-path" fill-rule="evenodd" class="s1" d="m120.22 22.45h98.12v160.03h-98.12z"/>
					<path id="Shape" class="s2" d="m130.12 102.47c0.01-31.19 14.28-60.67 38.74-80.02-41.73-32.81-101.67-28.04-137.69 10.96-36.01 38.99-36.01 99.12 0 138.12 36.02 38.99 95.96 43.76 137.69 10.95-24.46-19.35-38.73-48.82-38.74-80.01z"/>
					<path id="Shape" class="s3" d="m333.7 102.47c0.03 38.94-22.19 74.48-57.21 91.51-35.02 17.04-76.7 12.57-107.31-11.5 24.46-19.34 38.73-48.82 38.73-80.01 0-31.19-14.27-60.67-38.73-80.02 30.61-24.06 72.29-28.53 107.31-11.5 35.02 17.04 57.24 52.57 57.21 91.52z"/>
				</g>
			</g>
		</g>
	</g>
</svg>