<svg width="23" height="25" viewBox="0 0 23 25" fill="none" xmlns="http://www.w3.org/2000/svg">
<path d="M18.8242 0H4.17578C2.15659 0 0.513672 1.64292 0.513672 3.66211V21.3379C0.513672 23.3571 2.15659 25 4.17578 25H18.8242C20.8434 25 22.4863 23.3571 22.4863 21.3379V3.66211C22.4863 1.64292 20.8434 0 18.8242 0ZM6.41094 5.35869C6.28291 4.97461 6.49033 4.55977 6.87373 4.43242L11.2683 2.96758C11.4185 2.91753 11.5815 2.91753 11.7317 2.96758L16.1263 4.43242C16.5097 4.55972 16.7171 4.97461 16.5891 5.35869C16.4619 5.73999 16.0489 5.9501 15.6628 5.82148L11.5 4.43389L7.33721 5.82148C6.95171 5.94951 6.53896 5.74209 6.41094 5.35869ZM12.9648 16.1133H10.0352V21.3379C10.0352 21.7424 9.70723 22.0703 9.30273 22.0703H7.83789C7.4334 22.0703 7.10547 21.7424 7.10547 21.3379V16.1133V8.78906V8.05664C7.10547 7.65205 7.4334 7.32422 7.83789 7.32422H12.9648C15.3881 7.32422 17.3594 9.29546 17.3594 11.7188C17.3594 14.142 15.3881 16.1133 12.9648 16.1133Z" fill="black"/>
</svg>
