<svg width="118" height="96" viewBox="0 0 118 96" fill="none" xmlns="http://www.w3.org/2000/svg">
<path d="M6.74074 -13.9548C8.30195 -13.9748 9.7768 -14.586 10.873 -15.6821C11.9558 -16.8049 12.5471 -18.2598 12.5471 -19.8409C12.5538 -20.4322 12.5538 -21.256 12.5671 -22.0665C12.6003 -23.641 11.9758 -25.1424 10.8597 -26.2585C9.74359 -27.3746 8.36174 -27.9725 6.82046 -27.9725C5.24596 -28.0057 3.76447 -27.441 2.66165 -26.3382C1.53891 -25.2553 0.9078 -23.8004 0.874583 -22.2658C0.854652 -21.4221 0.848009 -20.5916 0.874583 -19.7811C0.861296 -18.2266 1.54556 -16.7716 2.60851 -15.7087C3.67147 -14.6457 5.16624 -13.9482 6.74074 -13.9548ZM113.069 95.2037C114.863 95.2568 116.637 95.2635 118.344 95.2435C121.573 95.1638 124.15 92.5065 124.091 89.2977C124.084 87.763 123.46 86.3413 122.377 85.2585C121.234 84.1158 119.759 83.5046 118.158 83.5245C116.584 83.571 114.989 83.5444 113.408 83.5046C110.179 83.4249 107.482 85.9626 107.382 89.1714C107.336 90.7991 108.027 92.3404 109.143 93.4565C110.173 94.4862 111.554 95.1506 113.049 95.1971M10.1023 7.47693C11.245 7.23776 12.288 6.6731 13.1185 5.84266C14.4737 4.44754 15.0517 2.50099 14.673 0.594322C14.3608 -0.940315 14.0618 -2.5015 13.8293 -4.076C13.63 -5.33826 13.0587 -6.41449 12.1684 -7.30471C10.853 -8.62011 8.97958 -9.23134 7.1327 -8.95231C5.59142 -8.71315 4.24282 -7.86942 3.31274 -6.59388C2.3893 -5.35155 2.03717 -3.81694 2.26969 -2.2823C2.52214 -0.568292 2.86095 1.17894 3.21305 2.91288C3.43893 4.02898 4.01028 5.01224 4.78756 5.78953C6.15611 7.15808 8.16909 7.86892 10.0957 7.47032M90.4349 92.3005C92.1688 92.6925 93.8962 93.0512 95.5903 93.3635C97.5235 93.7156 99.47 93.111 100.825 91.7026C101.649 90.8788 102.2 89.8092 102.406 88.6732C102.758 86.7798 102.154 84.8333 100.792 83.4714C99.9616 82.6409 98.8987 82.0962 97.736 81.8769L97.7161 81.857C96.1416 81.5846 94.5738 81.2657 93.0591 80.8937C89.9101 80.1895 86.7611 82.156 86.0502 85.2983C85.5852 87.2781 86.296 89.3575 87.6912 90.7526C88.4352 91.4967 89.372 92.0481 90.4349 92.2872M17.6426 27.8524C18.3136 27.58 18.9248 27.1681 19.4563 26.6367C21.1902 24.9426 21.7018 22.4247 20.7385 20.1991C20.1073 18.7044 19.536 17.2295 18.9846 15.7746C18.7123 14.9841 18.2406 14.2732 17.6493 13.6819C16.0349 12.0676 13.6167 11.5361 11.4841 12.3267C8.47465 13.4494 6.92013 16.811 8.04287 19.8205C8.65407 21.4946 9.29846 23.1223 9.96945 24.7366C10.2618 25.4142 10.6803 26.0188 11.1786 26.5171C12.8261 28.1646 15.4104 28.7825 17.6426 27.8391M68.8038 84.9927C70.3385 85.7036 71.9661 86.3878 73.6403 87.0788C75.8459 87.9424 78.3239 87.4308 79.9781 85.7368C80.5295 85.1854 80.9414 84.5343 81.2337 83.8035C82.1173 81.6179 81.5858 79.1598 79.9316 77.5055C79.3603 76.9342 78.7092 76.4824 77.9652 76.2034L77.3539 75.951C76.1183 75.4594 74.8693 74.9279 73.5938 74.3565C70.6574 73.0411 67.1961 74.3366 65.8741 77.2664C64.8576 79.4786 65.4489 82.1559 67.1363 83.8434C67.608 84.3151 68.1594 84.7071 68.7906 84.9927M29.0428 46.2946C29.3418 46.1152 29.5942 45.9027 29.8533 45.6436C31.8795 43.6572 32.1785 40.5281 30.5841 38.1896C29.6806 36.8476 28.7903 35.5322 27.9865 34.2102C27.754 33.8182 27.4749 33.4595 27.1627 33.1472C25.2361 31.2206 22.2599 30.8885 19.9612 32.3235C18.6458 33.134 17.6958 34.4294 17.3238 35.9441C16.9916 37.4588 17.2241 39.0333 18.0479 40.3753C18.9116 41.7572 19.8615 43.2121 20.9179 44.7866C21.1172 45.0789 21.343 45.3446 21.5888 45.5904C23.542 47.5436 26.7242 47.8957 29.0495 46.3013" fill="white"/>
<path d="M6.74074 -13.9548C8.30195 -13.9748 9.7768 -14.586 10.873 -15.6821C11.9558 -16.8049 12.5471 -18.2598 12.5471 -19.8409C12.5538 -20.4322 12.5538 -21.256 12.5671 -22.0665C12.6003 -23.641 11.9758 -25.1424 10.8597 -26.2585C9.74359 -27.3746 8.36174 -27.9725 6.82046 -27.9725C5.24596 -28.0057 3.76447 -27.441 2.66165 -26.3382C1.53891 -25.2553 0.9078 -23.8004 0.874583 -22.2658C0.854652 -21.4221 0.848009 -20.5916 0.874583 -19.7811C0.861296 -18.2266 1.54556 -16.7716 2.60851 -15.7087C3.67147 -14.6457 5.16624 -13.9482 6.74074 -13.9548ZM113.069 95.2037C114.863 95.2568 116.637 95.2635 118.344 95.2435C121.573 95.1638 124.15 92.5065 124.091 89.2977C124.084 87.763 123.46 86.3413 122.377 85.2585C121.234 84.1158 119.759 83.5046 118.158 83.5245C116.584 83.571 114.989 83.5444 113.408 83.5046C110.179 83.4249 107.482 85.9626 107.382 89.1714C107.336 90.7991 108.027 92.3404 109.143 93.4565C110.173 94.4862 111.554 95.1506 113.049 95.1971M10.1023 7.47693C11.245 7.23776 12.288 6.6731 13.1185 5.84266C14.4737 4.44754 15.0517 2.50099 14.673 0.594322C14.3608 -0.940315 14.0618 -2.5015 13.8293 -4.076C13.63 -5.33826 13.0587 -6.41449 12.1684 -7.30471C10.853 -8.62011 8.97958 -9.23134 7.1327 -8.95231C5.59142 -8.71315 4.24282 -7.86942 3.31274 -6.59388C2.3893 -5.35155 2.03717 -3.81694 2.26969 -2.2823C2.52214 -0.568292 2.86095 1.17894 3.21305 2.91288C3.43893 4.02898 4.01028 5.01224 4.78756 5.78953C6.15611 7.15808 8.16909 7.86892 10.0957 7.47032M90.4349 92.3005C92.1688 92.6925 93.8962 93.0512 95.5903 93.3635C97.5235 93.7156 99.47 93.111 100.825 91.7026C101.649 90.8788 102.2 89.8092 102.406 88.6732C102.758 86.7798 102.154 84.8333 100.792 83.4714C99.9616 82.6409 98.8987 82.0962 97.736 81.8769L97.7161 81.857C96.1416 81.5846 94.5738 81.2657 93.0591 80.8937C89.9101 80.1895 86.7611 82.156 86.0502 85.2983C85.5852 87.2781 86.296 89.3575 87.6912 90.7526C88.4352 91.4967 89.372 92.0481 90.4349 92.2872M17.6426 27.8524C18.3136 27.58 18.9248 27.1681 19.4563 26.6367C21.1902 24.9426 21.7018 22.4247 20.7385 20.1991C20.1073 18.7044 19.536 17.2295 18.9846 15.7746C18.7123 14.9841 18.2406 14.2732 17.6493 13.6819C16.0349 12.0676 13.6167 11.5361 11.4841 12.3267C8.47465 13.4494 6.92013 16.811 8.04287 19.8205C8.65407 21.4946 9.29846 23.1223 9.96945 24.7366C10.2618 25.4142 10.6803 26.0188 11.1786 26.5171C12.8261 28.1646 15.4104 28.7825 17.6426 27.8391M68.8038 84.9927C70.3385 85.7036 71.9661 86.3878 73.6403 87.0788C75.8459 87.9424 78.3239 87.4308 79.9781 85.7368C80.5295 85.1854 80.9414 84.5343 81.2337 83.8035C82.1173 81.6179 81.5858 79.1598 79.9316 77.5055C79.3603 76.9342 78.7092 76.4824 77.9652 76.2034L77.3539 75.951C76.1183 75.4594 74.8693 74.9279 73.5938 74.3565C70.6574 73.0411 67.1961 74.3366 65.8741 77.2664C64.8576 79.4786 65.4489 82.1559 67.1363 83.8434C67.608 84.3151 68.1594 84.7071 68.7906 84.9927M29.0428 46.2946C29.3418 46.1152 29.5942 45.9027 29.8533 45.6436C31.8795 43.6572 32.1785 40.5281 30.5841 38.1896C29.6806 36.8476 28.7903 35.5322 27.9865 34.2102C27.754 33.8182 27.4749 33.4595 27.1627 33.1472C25.2361 31.2206 22.2599 30.8885 19.9612 32.3235C18.6458 33.134 17.6958 34.4294 17.3238 35.9441C16.9916 37.4588 17.2241 39.0333 18.0479 40.3753C18.9116 41.7572 19.8615 43.2121 20.9179 44.7866C21.1172 45.0789 21.343 45.3446 21.5888 45.5904C23.542 47.5436 26.7242 47.8957 29.0495 46.3013" fill="url(#paint0_linear_35_140)"/>
<path d="M141.118 94.7388C143.762 94.8451 146.074 93.9017 148.054 91.9219C150.033 89.9422 151.11 87.4974 151.076 84.7802C151.05 82.0697 150.02 79.698 147.994 77.6717C145.968 75.6455 143.676 74.7752 140.879 74.8084C138.102 74.8483 135.717 75.8514 133.737 77.8312C131.757 79.8109 130.894 81.9767 130.927 84.5477C130.96 87.1187 131.943 89.3775 133.896 91.3307C136.062 93.4964 138.474 94.6325 141.111 94.7321" fill="white"/>
<path d="M141.118 94.7388C143.762 94.8451 146.074 93.9017 148.054 91.9219C150.033 89.9422 151.11 87.4974 151.076 84.7802C151.05 82.0697 150.02 79.698 147.994 77.6717C145.968 75.6455 143.676 74.7752 140.879 74.8084C138.102 74.8483 135.717 75.8514 133.737 77.8312C131.757 79.8109 130.894 81.9767 130.927 84.5477C130.96 87.1187 131.943 89.3775 133.896 91.3307C136.062 93.4964 138.474 94.6325 141.111 94.7321" fill="url(#paint1_linear_35_140)"/>
<path d="M58.4933 49.6895L43.7515 55.29L37.4735 48.8259C36.7826 48.1084 35.8126 47.7364 34.8227 47.7829C33.2682 47.8626 32.0325 49.1381 32.0126 50.6994C31.9926 51.6892 32.4045 52.6459 33.142 53.3169L39.8253 59.3624L34.7563 74.2902C34.1584 76.0574 35.0353 77.984 36.756 78.6949C37.4137 78.9672 38.171 78.7281 38.5497 78.1235L46.5883 65.4744L54.5737 72.6892L53.172 76.3763C52.7335 77.5189 53.3247 78.8011 54.4741 79.2197C54.7066 79.306 54.979 79.2064 55.0919 78.9739L57.3972 74.556L59.0581 75.4994C59.4965 75.7518 60.0612 75.6654 60.4133 75.3C60.7721 74.9413 60.8318 74.3766 60.5595 73.9448L59.563 72.3105L63.8945 69.8524C64.1137 69.7262 64.2067 69.4605 64.1137 69.2213C63.6553 68.0853 62.3599 67.5472 61.2305 68.0255L57.5898 69.5535L50.096 61.8338L62.4595 53.3501C63.0441 52.9515 63.2567 52.1808 62.9644 51.5298C62.1937 49.829 60.2339 49.0252 58.4933 49.6895Z" fill="white"/>
<path d="M58.4933 49.6895L43.7515 55.29L37.4735 48.8259C36.7826 48.1084 35.8126 47.7364 34.8227 47.7829C33.2682 47.8626 32.0325 49.1381 32.0126 50.6994C31.9926 51.6892 32.4045 52.6459 33.142 53.3169L39.8253 59.3624L34.7563 74.2902C34.1584 76.0574 35.0353 77.984 36.756 78.6949C37.4137 78.9672 38.171 78.7281 38.5497 78.1235L46.5883 65.4744L54.5737 72.6892L53.172 76.3763C52.7335 77.5189 53.3247 78.8011 54.4741 79.2197C54.7066 79.306 54.979 79.2064 55.0919 78.9739L57.3972 74.556L59.0581 75.4994C59.4965 75.7518 60.0612 75.6654 60.4133 75.3C60.7721 74.9413 60.8318 74.3766 60.5595 73.9448L59.563 72.3105L63.8945 69.8524C64.1137 69.7262 64.2067 69.4605 64.1137 69.2213C63.6553 68.0853 62.3599 67.5472 61.2305 68.0255L57.5898 69.5535L50.096 61.8338L62.4595 53.3501C63.0441 52.9515 63.2567 52.1808 62.9644 51.5298C62.1937 49.829 60.2339 49.0252 58.4933 49.6895Z" fill="url(#paint2_linear_35_140)"/>
<defs>
<linearGradient id="paint0_linear_35_140" x1="63.0188" y1="-25.5199" x2="213.354" y2="-25.5199" gradientUnits="userSpaceOnUse">
<stop stop-color="#5DA9DD"/>
<stop offset="1" stop-color="#0088CE"/>
</linearGradient>
<linearGradient id="paint1_linear_35_140" x1="63.0188" y1="-25.5199" x2="213.354" y2="-25.5199" gradientUnits="userSpaceOnUse">
<stop stop-color="#5DA9DD"/>
<stop offset="1" stop-color="#0088CE"/>
</linearGradient>
<linearGradient id="paint2_linear_35_140" x1="63.0188" y1="-25.5199" x2="213.354" y2="-25.5199" gradientUnits="userSpaceOnUse">
<stop stop-color="#5DA9DD"/>
<stop offset="1" stop-color="#0088CE"/>
</linearGradient>
</defs>
</svg>
