<svg width="25" height="25" viewBox="0 0 25 25" fill="none" xmlns="http://www.w3.org/2000/svg">
<path d="M2.08374 15.6249C3.82332 14.8437 5.55249 14.0624 7.29207 13.7187V5.20825C7.29207 4.37945 7.62131 3.58459 8.20737 2.99854C8.79342 2.41249 9.58827 2.08325 10.4171 2.08325C11.7817 2.08325 12.9379 2.94784 13.365 4.16659H10.4171C10.1408 4.16659 9.87585 4.27633 9.6805 4.47168C9.48515 4.66703 9.37541 4.93199 9.37541 5.20825V6.24992H14.5837V5.20825C14.5837 4.37945 14.913 3.58459 15.499 2.99854C16.0851 2.41249 16.8799 2.08325 17.7087 2.08325C19.0733 2.08325 20.2296 2.94784 20.6567 4.16659H17.7087C17.4325 4.16659 17.1675 4.27633 16.9722 4.47168C16.7768 4.66703 16.6671 4.93199 16.6671 5.20825V15.5624C18.7504 15.2291 20.8337 13.5416 22.9171 13.5416V15.6249C20.6046 15.6249 18.2921 17.7083 15.9692 17.7083C13.6567 17.7083 11.3442 15.6249 9.03166 15.6249C6.70874 15.6249 4.39624 16.6666 2.08374 17.7083V15.6249ZM14.5837 8.33325H9.37541V10.4166H14.5837V8.33325ZM14.5837 12.4999H9.37541V13.5416C11.115 13.7083 12.8442 14.9062 14.5837 15.4062V12.4999ZM2.08374 19.7916C4.39624 18.7499 6.70874 17.7083 9.03166 17.7083C11.3442 17.7083 13.6567 19.7916 15.9692 19.7916C18.2921 19.7916 20.6046 17.7083 22.9171 17.7083V19.7916C20.6046 19.7916 18.2921 21.8749 15.9692 21.8749C13.6567 21.8749 11.3442 19.7916 9.03166 19.7916C6.70874 19.7916 4.39624 20.8333 2.08374 21.8749V19.7916Z" fill="#212121"/>
</svg>
