<svg width="21" height="20" viewBox="0 0 21 20" fill="none" xmlns="http://www.w3.org/2000/svg">
<path d="M0.0837402 13.6249C1.82332 12.8437 3.55249 12.0624 5.29207 11.7187V3.20825C5.29207 2.37945 5.62131 1.58459 6.20737 0.998544C6.79342 0.412492 7.58827 0.083252 8.41707 0.083252C9.78166 0.083252 10.9379 0.947836 11.365 2.16659H8.41707C8.14081 2.16659 7.87585 2.27633 7.6805 2.47168C7.48515 2.66703 7.37541 2.93199 7.37541 3.20825V4.24992H12.5837V3.20825C12.5837 2.37945 12.913 1.58459 13.499 0.998544C14.0851 0.412492 14.8799 0.083252 15.7087 0.083252C17.0733 0.083252 18.2296 0.947836 18.6567 2.16659H15.7087C15.4325 2.16659 15.1675 2.27633 14.9722 2.47168C14.7768 2.66703 14.6671 2.93199 14.6671 3.20825V13.5624C16.7504 13.2291 18.8337 11.5416 20.9171 11.5416V13.6249C18.6046 13.6249 16.2921 15.7083 13.9692 15.7083C11.6567 15.7083 9.34416 13.6249 7.03166 13.6249C4.70874 13.6249 2.39624 14.6666 0.0837402 15.7083V13.6249ZM12.5837 6.33325H7.37541V8.41659H12.5837V6.33325ZM12.5837 10.4999H7.37541V11.5416C9.11499 11.7083 10.8442 12.9062 12.5837 13.4062V10.4999ZM0.0837402 17.7916C2.39624 16.7499 4.70874 15.7083 7.03166 15.7083C9.34416 15.7083 11.6567 17.7916 13.9692 17.7916C16.2921 17.7916 18.6046 15.7083 20.9171 15.7083V17.7916C18.6046 17.7916 16.2921 19.8749 13.9692 19.8749C11.6567 19.8749 9.34416 17.7916 7.03166 17.7916C4.70874 17.7916 2.39624 18.8333 0.0837402 19.8749V17.7916Z" fill="#212121"/>
</svg>
