<svg width="21" height="17" viewBox="0 0 21 17" fill="none" xmlns="http://www.w3.org/2000/svg">
<path d="M1.12541 16.0962C0.830268 16.0962 0.583046 15.9962 0.38374 15.7962C0.18374 15.5969 0.0837402 15.3497 0.0837402 15.0545C0.0837402 14.7594 0.18374 14.5122 0.38374 14.3129C0.583046 14.1129 0.830268 14.0129 1.12541 14.0129H19.8754C20.1705 14.0129 20.4178 14.1129 20.6171 14.3129C20.8171 14.5122 20.9171 14.7594 20.9171 15.0545C20.9171 15.3497 20.8171 15.5969 20.6171 15.7962C20.4178 15.9962 20.1705 16.0962 19.8754 16.0962H1.12541ZM1.12541 12.9712V11.9295C1.12541 9.7073 1.807 7.7455 3.1702 6.04411C4.5327 4.34272 6.28166 3.26633 8.41707 2.81494V2.55452C8.41707 1.98161 8.62124 1.49133 9.02957 1.08369C9.43721 0.675358 9.92749 0.471191 10.5004 0.471191C11.0733 0.471191 11.5639 0.675358 11.9723 1.08369C12.3799 1.49133 12.5837 1.98161 12.5837 2.55452V2.81494C14.7365 3.26633 16.49 4.34272 17.8442 6.04411C19.1983 7.7455 19.8754 9.7073 19.8754 11.9295V12.9712H1.12541Z" fill="#212121"/>
</svg>
