<svg width="21" height="19" viewBox="0 0 21 19" fill="none" xmlns="http://www.w3.org/2000/svg">
<path d="M18.9524 0.85376H2.54614C2.33894 0.85376 2.14023 0.93607 1.99372 1.08258C1.8472 1.2291 1.76489 1.42781 1.76489 1.63501V11.01C1.76631 12.2528 2.26063 13.4442 3.1394 14.323C4.01817 15.2018 5.20963 15.6961 6.45239 15.6975H11.9211C13.1639 15.6961 14.3554 15.2018 15.2341 14.323C16.1129 13.4442 16.6072 12.2528 16.6086 11.01V7.10376H17.4875C18.2902 7.10286 19.0597 6.78361 19.6272 6.21607C20.1947 5.64853 20.514 4.87904 20.5149 4.07642V2.41626C20.5149 2.00186 20.3503 1.60443 20.0572 1.31141C19.7642 1.01838 19.3668 0.85376 18.9524 0.85376V0.85376ZM18.9524 4.07642C18.9524 4.46492 18.7981 4.83751 18.5233 5.11222C18.2486 5.38693 17.876 5.54126 17.4875 5.54126H16.6086V2.41626H18.9524V4.07642ZM17.3899 17.26H0.983643C0.776442 17.26 0.577728 17.3423 0.431215 17.4888C0.284703 17.6353 0.202393 17.8341 0.202393 18.0413C0.202393 18.2485 0.284703 18.4472 0.431215 18.5937C0.577728 18.7402 0.776442 18.8225 0.983643 18.8225H17.3899C17.5971 18.8225 17.7958 18.7402 17.9423 18.5937C18.0888 18.4472 18.1711 18.2485 18.1711 18.0413C18.1711 17.8341 18.0888 17.6353 17.9423 17.4888C17.7958 17.3423 17.5971 17.26 17.3899 17.26Z" fill="#212121"/>
</svg>
