<svg width="25" height="26" viewBox="0 0 25 26" fill="none" xmlns="http://www.w3.org/2000/svg">
<path d="M13.5417 21.8711C13.5764 22.201 13.4681 22.4833 13.2167 22.718C12.9646 22.952 12.6823 23.043 12.3698 22.9909C9.34902 22.5395 6.95318 21.3718 5.18235 19.4878C3.41151 17.6045 2.40457 15.0395 2.16151 11.793C2.12679 11.4458 2.22644 11.1548 2.46047 10.9201C2.69519 10.6861 2.98617 10.5951 3.33339 10.6472C6.51047 11.0812 8.95839 12.3052 10.6771 14.3191C12.3959 16.3329 13.3508 18.8503 13.5417 21.8711ZM11.6928 3.25135C11.9011 2.95621 12.1744 2.81281 12.5126 2.82114C12.8514 2.83017 13.1251 2.98226 13.3334 3.27739C14.1146 4.37114 14.7962 5.56906 15.3782 6.87114C15.9594 8.17323 16.3108 9.26698 16.4323 10.1524C15.7553 10.4649 15.0001 10.9725 14.1667 11.6753C13.3334 12.3788 12.7865 12.9215 12.5261 13.3034C12.283 12.9215 11.7233 12.3614 10.8469 11.6232C9.96985 10.8857 9.22749 10.3955 8.61985 10.1524C8.75874 9.28434 9.11047 8.18607 9.67506 6.8576C10.2389 5.52982 10.9115 4.32774 11.6928 3.25135ZM21.7448 10.6472C22.0747 10.6125 22.3525 10.7034 22.5782 10.9201C22.8039 11.1375 22.908 11.4198 22.8907 11.767C22.7518 14.5621 21.9924 16.8323 20.6126 18.5774C19.232 20.3218 17.5608 21.5413 15.599 22.2357C15.5643 21.1767 15.4039 19.9746 15.1178 18.6295C14.831 17.2836 14.3837 16.1246 13.7761 15.1524C14.5226 14.0066 15.6296 13.017 17.0969 12.1836C18.5636 11.3503 20.1129 10.8382 21.7448 10.6472Z" fill="#212121"/>
</svg>
