<?xml version="1.0" encoding="utf-8"?>
<!-- Generator: Adobe Illustrator 27.0.0, SVG Export Plug-In . SVG Version: 6.00 Build 0)  -->
<svg version="1.1" id="Layer_1" xmlns="http://www.w3.org/2000/svg" xmlns:xlink="http://www.w3.org/1999/xlink" x="0px" y="0px"
	 viewBox="0 0 25 25" style="enable-background:new 0 0 25 25;" xml:space="preserve">
<style type="text/css">
	.st0{fill:#FFFFFF;}
</style>
<path class="st0" d="M23.9,18.5c-0.5-0.5-1.2-0.9-2-1c-0.8-0.1-1.5,0-2.2,0.3l-1.4-1.4c2.9-3.2,5.2-6.9,6.5-11
	C25,4.7,25,3.9,24.9,3.2c-0.2-0.7-0.5-1.4-1.1-1.9c-0.5-0.5-1.2-0.9-1.9-1.1C21.1,0,20.3,0,19.6,0.3c-4.1,1.3-7.9,3.6-11.1,6.5
	L7.1,5.3c0.3-0.6,0.4-1.3,0.3-2C7.4,2.7,7.1,2,6.7,1.5c-0.4-0.5-1-1-1.6-1.2s-1.3-0.3-2-0.2C2.4,0.2,1.8,0.5,1.3,0.9
	C0.8,1.4,0.4,2,0.2,2.6C0,3.3-0.1,4,0.1,4.6c0.2,0.7,0.5,1.3,1,1.8c0.7,0.7,1.7,1.1,2.6,1.1c0.6,0,1.1-0.1,1.6-0.4l1.4,1.4
	c-2.9,3.2-5.2,6.9-6.5,11C0.1,20.3,0,21,0.2,21.8c0.2,0.7,0.5,1.4,1.1,1.9c0.4,0.4,0.8,0.7,1.3,0.9c0.5,0.2,1,0.3,1.5,0.3
	c0.5,0,0.9-0.1,1.3-0.2c4.1-1.3,7.9-3.6,11.1-6.5l1.4,1.4c-0.3,0.6-0.4,1.3-0.3,2c0.1,0.7,0.3,1.3,0.7,1.9c0.4,0.5,1,1,1.6,1.2
	c0.6,0.3,1.3,0.3,2,0.2c0.7-0.1,1.3-0.4,1.8-0.9c0.5-0.5,0.9-1,1.1-1.7c0.2-0.7,0.2-1.4,0.1-2C24.7,19.7,24.4,19.1,23.9,18.5
	L23.9,18.5z M4.6,4.6C4.4,4.9,4.1,5,3.8,5C3.4,5,3.1,4.9,2.9,4.6S2.5,4.1,2.5,3.7c0-0.3,0.1-0.6,0.4-0.9c0.2-0.2,0.6-0.4,0.9-0.4
	c0.3,0,0.6,0.1,0.9,0.4C4.9,3.1,5,3.4,5,3.7C5,4.1,4.9,4.4,4.6,4.6L4.6,4.6z M20.4,2.7c0.2-0.1,0.4-0.1,0.6-0.1c0.2,0,0.4,0,0.6,0.1
	C21.7,2.7,21.9,2.9,22,3c0.2,0.2,0.3,0.5,0.4,0.8c0.1,0.3,0,0.6-0.1,0.9c-0.7,2-1.6,4-2.7,5.8l-5.1-5.1C16.4,4.2,18.4,3.3,20.4,2.7
	L20.4,2.7z M4.6,22.3c-0.3,0.1-0.6,0.1-0.9,0.1c-0.3-0.1-0.6-0.2-0.8-0.4c-0.2-0.2-0.3-0.5-0.4-0.8s0-0.6,0.1-0.9
	c0.7-2,1.6-4,2.7-5.8l5.1,5.1C8.6,20.7,6.6,21.6,4.6,22.3L4.6,22.3z M12.5,18.2l-5.7-5.7c0.6-0.8,1.2-1.5,1.8-2.2l6.1,6.1
	C14,17,13.3,17.6,12.5,18.2z M16.4,14.6l-6.1-6.1c0.7-0.6,1.4-1.2,2.2-1.8l5.7,5.7C17.7,13.2,17.1,14,16.4,14.6L16.4,14.6z
	 M22.1,22.1c-0.1,0.1-0.3,0.2-0.4,0.3c-0.2,0.1-0.3,0.1-0.5,0.1c-0.2,0-0.3,0-0.5-0.1c-0.2-0.1-0.3-0.2-0.4-0.3
	c-0.1-0.1-0.2-0.3-0.3-0.4C20,21.6,20,21.4,20,21.2c0-0.2,0-0.3,0.1-0.5c0.1-0.2,0.2-0.3,0.3-0.4c0.2-0.2,0.6-0.4,0.9-0.4
	c0.3,0,0.6,0.1,0.9,0.4c0.2,0.2,0.3,0.5,0.4,0.8C22.5,21.5,22.3,21.8,22.1,22.1L22.1,22.1z"/>
</svg>
