<svg width="25" height="25" viewBox="0 0 25 25" fill="none" xmlns="http://www.w3.org/2000/svg">
<path d="M23.8907 18.5471C23.3434 18.0057 22.6419 17.6458 21.882 17.5165C21.122 17.3872 20.3406 17.4948 19.6442 17.8247L18.2079 16.4048C21.1506 13.2381 23.3706 9.47321 24.7151 5.36923C24.9702 4.66022 25.018 3.89349 24.8528 3.15843C24.6877 2.42338 24.3164 1.75028 23.7823 1.21763C23.2481 0.684983 22.5732 0.314721 21.8361 0.150018C21.099 -0.0146841 20.3302 0.032959 19.6192 0.287393C15.5039 1.62819 11.7287 3.84205 8.55321 6.7767L7.12937 5.34432C7.42517 4.7254 7.54451 4.03724 7.47433 3.3552C7.40414 2.67315 7.14714 2.02351 6.73146 1.4774C6.31577 0.931291 5.75743 0.509761 5.11756 0.258964C4.47769 0.00816718 3.78096 -0.0622284 3.10365 0.0554842C2.42634 0.173197 1.79457 0.474479 1.27749 0.926347C0.760415 1.37822 0.377974 1.96325 0.172039 2.61739C-0.0338956 3.27154 -0.0553855 3.96958 0.109922 4.63509C0.27523 5.30061 0.620963 5.90793 1.10927 6.39058C1.81128 7.09154 2.7637 7.48579 3.75711 7.48667C4.31116 7.48152 4.85717 7.3539 5.35581 7.113L6.79214 8.53293C3.8494 11.6997 1.62943 15.4645 0.284939 19.5685C0.0507646 20.2765 0.0178323 21.0354 0.189795 21.7609C0.361758 22.4864 0.731894 23.1503 1.25915 23.6788C1.61619 24.0584 2.04497 24.3639 2.52082 24.5776C2.99667 24.7914 3.51021 24.9092 4.03189 24.9243C4.4895 24.92 4.94399 24.8487 5.38079 24.7126C9.49609 23.3718 13.2713 21.1579 16.4468 18.2233L17.8706 19.6557C17.5748 20.2746 17.4555 20.9628 17.5257 21.6448C17.5959 22.3268 17.8529 22.9765 18.2685 23.5226C18.6842 24.0687 19.2426 24.4902 19.8824 24.741C20.5223 24.9918 21.219 25.0622 21.8963 24.9445C22.5737 24.8268 23.2054 24.5255 23.7225 24.0737C24.2396 23.6218 24.622 23.0368 24.828 22.3826C25.0339 21.7285 25.0554 21.0304 24.8901 20.3649C24.7248 19.6994 24.379 19.0921 23.8907 18.6094V18.5471ZM4.64389 4.6219C4.41036 4.85644 4.09296 4.98886 3.76153 4.99003C3.43009 4.9912 3.11177 4.86102 2.87658 4.62813C2.64139 4.39524 2.50861 4.07872 2.50744 3.74819C2.50626 3.41767 2.6368 3.10022 2.87034 2.86568C3.10387 2.63114 3.42126 2.49872 3.7527 2.49755C4.08413 2.49638 4.40246 2.62656 4.63765 2.85945C4.87284 3.09234 5.00562 3.40886 5.00679 3.73939C5.00796 4.06991 4.87742 4.38736 4.64389 4.6219V4.6219ZM20.3811 2.66639C20.5707 2.60413 20.7685 2.57054 20.9681 2.56675C21.1604 2.56518 21.3512 2.60182 21.5291 2.67453C21.7071 2.74724 21.8688 2.85456 22.0048 2.99023C22.2083 3.20102 22.3471 3.46553 22.4046 3.75248C22.4622 4.03942 22.4361 4.33681 22.3295 4.60945C21.6697 6.63196 20.777 8.57136 19.6692 10.3888L14.5858 5.31941C16.4082 4.21467 18.353 3.32439 20.3811 2.66639V2.66639ZM4.61891 22.2713C4.34654 22.3801 4.04816 22.4067 3.76077 22.3479C3.47337 22.2891 3.2096 22.1475 3.00215 21.9406C2.7947 21.7337 2.65269 21.4707 2.59374 21.1841C2.53479 20.8975 2.56147 20.5999 2.6705 20.3283C3.33031 18.3058 4.22305 16.3664 5.33083 14.5489L10.4142 19.6183C8.59175 20.7231 6.647 21.6133 4.61891 22.2713V22.2713ZM12.5 18.1859L6.76716 12.4689C7.32375 11.7155 7.91994 10.9921 8.55321 10.3016L14.6857 16.4173C13.989 17.0449 13.2594 17.6353 12.5 18.1859ZM16.4343 14.6486L10.3143 8.53293C11.0107 7.90104 11.7403 7.30649 12.5 6.75179L18.2453 12.4813C17.6847 13.235 17.0843 13.9584 16.4468 14.6486H16.4343ZM22.1172 22.1219C22.0015 22.238 21.8641 22.3303 21.7127 22.3934C21.5613 22.4566 21.3989 22.4894 21.2348 22.49C21.0707 22.4906 20.9081 22.4589 20.7562 22.3968C20.6044 22.3347 20.4663 22.2434 20.3499 22.1281C20.2334 22.0128 20.1409 21.8757 20.0775 21.7247C20.0142 21.5738 19.9813 21.4118 19.9807 21.2482C19.9801 21.0845 20.0119 20.9223 20.0742 20.7709C20.1364 20.6195 20.228 20.4818 20.3436 20.3656C20.5776 20.1337 20.8942 20.0034 21.2242 20.0034C21.5541 20.0034 21.8707 20.1337 22.1047 20.3656C22.3259 20.5935 22.4516 20.8968 22.4563 21.2139C22.4609 21.531 22.3441 21.8379 22.1297 22.072L22.1172 22.1219Z" fill="#242238"/>
</svg>
