<svg width="24" height="30" viewBox="0 0 24 30" fill="none" xmlns="http://www.w3.org/2000/svg">
<path d="M1.73394 0C1.27488 0.000509333 0.834713 0.186114 0.509754 0.516199C0.184795 0.846284 0.00150813 1.29397 0 1.76129V22.4323C0 23.4039 0.779512 24.1935 1.73394 24.1935H3.01158L0.0665438 29.2703C0.0239971 29.3438 0.00126756 29.4273 0.000657275 29.5126C4.69855e-05 29.5979 0.0215775 29.6818 0.0630684 29.7558C0.104559 29.8299 0.164537 29.8915 0.23693 29.9344C0.309322 29.9772 0.391559 29.9999 0.475312 30H23.5279C23.6096 30.0002 23.6899 29.9787 23.761 29.9376C23.832 29.8965 23.8912 29.8373 23.9329 29.7658C23.9748 29.6941 23.9979 29.6127 23.9999 29.5293C24.0019 29.4459 23.9827 29.3634 23.9443 29.2897L21.2883 24.1935H22.0298C22.9861 24.1935 23.7618 23.4039 23.7618 22.4323V1.76129C23.7613 1.29432 23.5788 0.846631 23.2545 0.516436C22.9301 0.186241 22.4904 0.000512305 22.0317 0L1.73394 0ZM1.73394 0.967742H22.0355C22.2422 0.967742 22.4405 1.05135 22.5867 1.20017C22.7328 1.34899 22.815 1.55083 22.815 1.76129V3.87097H0.950624V1.76129C0.950624 1.32387 1.30235 0.967742 1.73394 0.967742ZM0.950624 4.83871H11.4075V13.5484H2.52486C2.108 13.5484 1.70817 13.3801 1.41305 13.0804C1.11793 12.7807 0.951631 12.374 0.950624 11.9497V4.83871ZM12.3581 4.83871H22.815V11.9497C22.815 12.8323 22.1115 13.5484 21.2445 13.5484H12.3581V4.83871ZM0.950624 13.9084C1.38411 14.2703 1.92026 14.5161 2.52486 14.5161H21.2445C21.8217 14.5064 22.3773 14.2914 22.815 13.9084V22.4323C22.815 22.6427 22.7328 22.8446 22.5867 22.9934C22.4405 23.1422 22.2422 23.2258 22.0355 23.2258H1.73584C1.63306 23.2263 1.5312 23.2062 1.43608 23.1665C1.34096 23.1269 1.25445 23.0686 1.18151 22.9949C1.10857 22.9212 1.05063 22.8335 1.01101 22.737C0.971394 22.6404 0.950873 22.5369 0.950624 22.4323V13.9084ZM18.5372 17.4077C18.159 17.4077 17.7963 17.5607 17.5289 17.8329C17.2615 18.1051 17.1112 18.4744 17.1112 18.8594C17.1112 19.2443 17.2615 19.6136 17.5289 19.8858C17.7963 20.158 18.159 20.311 18.5372 20.311C18.9153 20.311 19.278 20.158 19.5455 19.8858C19.8129 19.6136 19.9631 19.2443 19.9631 18.8594C19.9631 18.4744 19.8129 18.1051 19.5455 17.8329C19.278 17.5607 18.9153 17.4077 18.5372 17.4077ZM5.22843 17.4194C4.85025 17.4194 4.48756 17.5723 4.22014 17.8445C3.95273 18.1168 3.8025 18.486 3.8025 18.871C3.8025 19.256 3.95273 19.6252 4.22014 19.8974C4.48756 20.1696 4.85025 20.3226 5.22843 20.3226C5.60661 20.3226 5.96931 20.1696 6.23672 19.8974C6.50414 19.6252 6.65437 19.256 6.65437 18.871C6.65437 18.486 6.50414 18.1168 6.23672 17.8445C5.96931 17.5723 5.60661 17.4194 5.22843 17.4194ZM18.5372 18.3755C18.6632 18.3755 18.7841 18.4265 18.8733 18.5172C18.9624 18.6079 19.0125 18.731 19.0125 18.8594C19.0125 18.9877 18.9624 19.1108 18.8733 19.2015C18.7841 19.2922 18.6632 19.3432 18.5372 19.3432C18.4111 19.3432 18.2902 19.2922 18.2011 19.2015C18.1119 19.1108 18.0619 18.9877 18.0619 18.8594C18.0619 18.731 18.1119 18.6079 18.2011 18.5172C18.2902 18.4265 18.4111 18.3755 18.5372 18.3755ZM5.22843 18.3871C5.35449 18.3871 5.47539 18.4381 5.56453 18.5288C5.65367 18.6196 5.70374 18.7426 5.70374 18.871C5.70374 18.9993 5.65367 19.1224 5.56453 19.2131C5.47539 19.3039 5.35449 19.3548 5.22843 19.3548C5.10237 19.3548 4.98147 19.3039 4.89233 19.2131C4.8032 19.1224 4.75312 18.9993 4.75312 18.871C4.75312 18.7426 4.8032 18.6196 4.89233 18.5288C4.98147 18.4381 5.10237 18.3871 5.22843 18.3871ZM4.1143 24.1935H6.12202L4.53067 29.0323H1.30616L4.1143 24.1935ZM7.12588 24.1935H9.50624V29.0323H5.53263L7.12588 24.1935ZM10.4569 24.1935H13.3087V29.0323H10.4569V24.1935ZM14.2594 24.1935H16.5656L18.6189 29.0323H14.2594V24.1935ZM17.5979 24.1935H20.2122L22.737 29.0323H19.6513L17.5979 24.1935Z" fill="#231F20"/>
</svg>
