<?xml version="1.0" encoding="utf-8"?>
<!-- Generator: Adobe Illustrator 27.0.0, SVG Export Plug-In . SVG Version: 6.00 Build 0)  -->
<svg version="1.1" id="Layer_1" xmlns="http://www.w3.org/2000/svg" xmlns:xlink="http://www.w3.org/1999/xlink" x="0px" y="0px"
	 viewBox="0 0 24 30" style="enable-background:new 0 0 24 30;" xml:space="preserve">
<style type="text/css">
	.st0{fill:#FFFFFF;}
</style>
<path class="st0" d="M1.7,0C1.3,0,0.8,0.2,0.5,0.5S0,1.3,0,1.8v20.7c0,1,0.8,1.8,1.7,1.8H3l-2.9,5.1C0,29.3,0,29.4,0,29.5
	c0,0.1,0,0.2,0.1,0.2c0,0.1,0.1,0.1,0.2,0.2C0.3,30,0.4,30,0.5,30h23.1c0.1,0,0.2,0,0.2-0.1c0.1,0,0.1-0.1,0.2-0.2
	c0-0.1,0.1-0.2,0.1-0.2c0-0.1,0-0.2-0.1-0.2l-2.7-5.1H22c1,0,1.7-0.8,1.7-1.8V1.8c0-0.5-0.2-0.9-0.5-1.2C22.9,0.2,22.5,0,22,0H1.7z
	 M1.7,1H22c0.2,0,0.4,0.1,0.6,0.2c0.1,0.1,0.2,0.4,0.2,0.6v2.1H1V1.8C1,1.3,1.3,1,1.7,1z M1,4.8h10.5v8.7H2.5
	c-0.4,0-0.8-0.2-1.1-0.5C1.1,12.8,1,12.4,1,11.9V4.8z M12.4,4.8h10.5v7.1c0,0.9-0.7,1.6-1.6,1.6h-8.9V4.8z M1,13.9
	c0.4,0.4,1,0.6,1.6,0.6h18.7c0.6,0,1.1-0.2,1.6-0.6v8.5c0,0.2-0.1,0.4-0.2,0.6c-0.1,0.1-0.3,0.2-0.6,0.2H1.7c-0.1,0-0.2,0-0.3-0.1
	c-0.1,0-0.2-0.1-0.3-0.2S1.1,22.8,1,22.7C1,22.6,1,22.5,1,22.4V13.9z M18.5,17.4c-0.4,0-0.7,0.2-1,0.4c-0.3,0.3-0.4,0.6-0.4,1
	c0,0.4,0.2,0.8,0.4,1c0.3,0.3,0.6,0.4,1,0.4c0.4,0,0.7-0.2,1-0.4c0.3-0.3,0.4-0.6,0.4-1c0-0.4-0.2-0.8-0.4-1
	C19.3,17.6,18.9,17.4,18.5,17.4z M5.2,17.4c-0.4,0-0.7,0.2-1,0.4c-0.3,0.3-0.4,0.6-0.4,1s0.2,0.8,0.4,1c0.3,0.3,0.6,0.4,1,0.4
	s0.7-0.2,1-0.4c0.3-0.3,0.4-0.6,0.4-1s-0.2-0.8-0.4-1C6,17.6,5.6,17.4,5.2,17.4z M18.5,18.4c0.1,0,0.2,0.1,0.3,0.1
	c0.1,0.1,0.1,0.2,0.1,0.3c0,0.1-0.1,0.3-0.1,0.3c-0.1,0.1-0.2,0.1-0.3,0.1c-0.1,0-0.2-0.1-0.3-0.1c-0.1-0.1-0.1-0.2-0.1-0.3
	c0-0.1,0.1-0.3,0.1-0.3C18.3,18.4,18.4,18.4,18.5,18.4z M5.2,18.4c0.1,0,0.2,0.1,0.3,0.1c0.1,0.1,0.1,0.2,0.1,0.3
	c0,0.1-0.1,0.3-0.1,0.3c-0.1,0.1-0.2,0.1-0.3,0.1S5,19.3,4.9,19.2c-0.1-0.1-0.1-0.2-0.1-0.3c0-0.1,0.1-0.3,0.1-0.3
	C5,18.4,5.1,18.4,5.2,18.4z M4.1,24.2h2L4.5,29H1.3L4.1,24.2z M7.1,24.2h2.4V29h-4L7.1,24.2z M10.5,24.2h2.9V29h-2.9V24.2z
	 M14.3,24.2h2.3l2.1,4.8h-4.4V24.2z M17.6,24.2h2.6l2.5,4.8h-3.1L17.6,24.2z"/>
</svg>
