<?xml version="1.0" encoding="utf-8"?>
<!-- Generator: Adobe Illustrator 27.0.0, SVG Export Plug-In . SVG Version: 6.00 Build 0)  -->
<svg version="1.1" id="Layer_1" xmlns="http://www.w3.org/2000/svg" xmlns:xlink="http://www.w3.org/1999/xlink" x="0px" y="0px"
	 viewBox="0 0 23 20" style="enable-background:new 0 0 23 20;" xml:space="preserve">
<style type="text/css">
	.st0{fill:#FFFFFF;filter:url(#Adobe_OpacityMaskFilter);}
	
		.st1{mask:url(#path-1-inside-1_17_14_00000176004595768120401460000011610531986876840580_);fill:#0D9ECD;stroke:#0D9ECD;stroke-width:4;}
</style>
<defs>
	<filter id="Adobe_OpacityMaskFilter" filterUnits="userSpaceOnUse" x="-2" y="-2" width="27" height="24">
		<feColorMatrix  type="matrix" values="1 0 0 0 0  0 1 0 0 0  0 0 1 0 0  0 0 0 1 0"/>
	</filter>
</defs>
<mask maskUnits="userSpaceOnUse" x="-2" y="-2" width="27" height="24" id="path-1-inside-1_17_14_00000176004595768120401460000011610531986876840580_">
	<path class="st0" d="M23,6.9c0-0.3-0.1-0.6-0.3-0.9c-0.2-0.2-0.5-0.4-0.8-0.4h-1.1c-0.2,0-0.4,0.1-0.6,0.2
		c-0.2,0.1-0.3,0.3-0.4,0.4l-1-2.8c-0.2-0.5-0.5-0.8-0.8-1.1C17.5,2.2,17,2,16.6,2h-1.8l-0.2-1c-0.1-0.3-0.2-0.6-0.5-0.7
		C13.8,0.1,13.5,0,13.2,0H9.8C9.5,0,9.2,0.1,9,0.3C8.7,0.5,8.6,0.7,8.5,1L8.2,2H6.4C6,2,5.5,2.2,5.1,2.4C4.7,2.7,4.4,3.1,4.3,3.5
		l-1,2.8C3.2,6.1,3,6,2.9,5.9C2.7,5.8,2.5,5.7,2.3,5.7H1.2c-0.3,0-0.6,0.1-0.8,0.4C0.1,6.3,0,6.6,0,6.9c0,0.3,0.1,0.6,0.3,0.9
		s0.5,0.4,0.8,0.4h0.2C1.1,8.4,0.9,8.7,0.8,9c-0.1,0.3-0.2,0.7-0.2,1V15c0,0.4,0.2,0.9,0.5,1.2c0.3,0.3,0.7,0.5,1.1,0.5v1.6
		c0,0.5,0.2,0.9,0.5,1.2C3,19.8,3.4,20,3.8,20s0.9-0.2,1.2-0.5c0.3-0.3,0.5-0.8,0.5-1.2v-1.6h12v1.6c0,0.5,0.2,0.9,0.5,1.2
		c0.3,0.3,0.7,0.5,1.2,0.5s0.9-0.2,1.2-0.5c0.3-0.3,0.5-0.8,0.5-1.2v-1.6c0.4,0,0.8-0.2,1.1-0.5s0.5-0.7,0.5-1.2V10
		c0-0.4-0.1-0.7-0.2-1c-0.1-0.3-0.3-0.6-0.6-0.9h0.2c0.3,0,0.6-0.1,0.8-0.4C22.9,7.6,23,7.3,23,6.9z M9.1,1.2c0-0.1,0.1-0.3,0.2-0.4
		c0.1-0.1,0.3-0.1,0.4-0.1h3.4c0.1,0,0.3,0,0.4,0.1c0.1,0.1,0.2,0.2,0.2,0.4L14,2H8.9L9.1,1.2z M4.9,3.8C5,3.5,5.2,3.2,5.5,3
		c0.3-0.2,0.6-0.3,0.9-0.3h2c0,0,0.1,0,0.1,0h5.8c0,0,0,0,0.1,0c0,0,0,0,0.1,0h2c0.3,0,0.7,0.1,0.9,0.3c0.3,0.2,0.5,0.5,0.6,0.8
		l1.3,3.7H3.6L4.9,3.8z M1.2,7.5C1,7.5,0.9,7.4,0.8,7.3C0.7,7.2,0.7,7.1,0.7,6.9c0-0.1,0.1-0.3,0.1-0.4C0.9,6.5,1,6.4,1.2,6.4h1.1
		c0.1,0,0.3,0.1,0.4,0.2s0.2,0.2,0.2,0.4v0.5H1.2z M4.8,18.3c0,0.3-0.1,0.5-0.3,0.7c-0.2,0.2-0.4,0.3-0.7,0.3
		c-0.3,0-0.5-0.1-0.7-0.3c-0.2-0.2-0.3-0.4-0.3-0.7v-1.6h2V18.3z M20.1,18.3c0,0.3-0.1,0.5-0.3,0.7c-0.2,0.2-0.4,0.3-0.7,0.3
		c-0.3,0-0.5-0.1-0.7-0.3c-0.2-0.2-0.3-0.4-0.3-0.7v-1.6h2V18.3z M21.8,10V15c0,0.3-0.1,0.5-0.3,0.7C21.3,15.9,21,16,20.8,16h-0.2
		c-0.1,0-0.1,0-0.2,0h-2.4c-0.1,0-0.1,0-0.2,0H5.3c-0.1,0-0.1,0-0.2,0H2.6c-0.1,0-0.1,0-0.2,0H2.2c-0.3,0-0.5-0.1-0.7-0.3
		c-0.2-0.2-0.3-0.5-0.3-0.7V10c0-0.5,0.2-1,0.5-1.3c0.3-0.4,0.8-0.6,1.3-0.6h16.9c0.5,0,1,0.2,1.3,0.6C21.6,9.1,21.8,9.5,21.8,10z
		 M20.2,7.5V6.9c0-0.1,0.1-0.3,0.2-0.4c0.1-0.1,0.2-0.2,0.4-0.2h1.1c0.1,0,0.3,0.1,0.4,0.2c0.1,0.1,0.1,0.2,0.1,0.4
		c0,0.1-0.1,0.3-0.1,0.4c-0.1,0.1-0.2,0.2-0.4,0.2L20.2,7.5z M5.6,9.9H3.3C3,9.9,2.8,10,2.6,10.2c-0.2,0.2-0.3,0.4-0.3,0.7v0.4
		c0,0.3,0.1,0.5,0.3,0.7c0.2,0.2,0.4,0.3,0.7,0.3h2.3c0.3,0,0.5-0.1,0.7-0.3c0.2-0.2,0.3-0.4,0.3-0.7v-0.4c0-0.3-0.1-0.5-0.3-0.7
		C6.1,10,5.9,9.9,5.6,9.9z M5.9,11.3c0,0.1,0,0.2-0.1,0.2c-0.1,0.1-0.1,0.1-0.2,0.1H3.3c-0.1,0-0.2,0-0.2-0.1C3,11.5,3,11.4,3,11.3
		v-0.4c0-0.1,0-0.2,0.1-0.2s0.1-0.1,0.2-0.1h2.3c0.1,0,0.2,0,0.2,0.1c0.1,0.1,0.1,0.1,0.1,0.2V11.3z M8.6,3.9c0,0-0.1-0.1-0.1-0.1
		c0,0-0.1,0-0.1,0c0,0-0.1,0-0.1,0c0,0-0.1,0-0.1,0.1L7.4,4.6c0,0-0.1,0.1-0.1,0.1c0,0,0,0.1,0,0.1c0,0,0,0.1,0,0.1
		c0,0,0,0.1,0.1,0.1c0,0,0.1,0.1,0.1,0.1c0,0,0.1,0,0.1,0c0,0,0.1,0,0.1,0c0,0,0.1,0,0.1-0.1l0.7-0.8c0.1-0.1,0.1-0.2,0.1-0.2
		C8.7,4,8.7,3.9,8.6,3.9L8.6,3.9z M10.1,4.2L8.3,6c0,0-0.1,0.1-0.1,0.1c0,0,0,0.1,0,0.1c0,0.1,0,0.2,0.1,0.2
		c0.1,0.1,0.1,0.1,0.2,0.1c0.1,0,0.2,0,0.2-0.1l1.8-1.8c0,0,0.1-0.1,0.1-0.1c0,0,0-0.1,0-0.1c0,0,0-0.1,0-0.1c0,0,0-0.1-0.1-0.1
		c0,0-0.1-0.1-0.1-0.1c0,0-0.1,0-0.1,0c0,0-0.1,0-0.1,0C10.1,4.1,10.1,4.2,10.1,4.2z M19.7,9.9h-2.3c-0.3,0-0.5,0.1-0.7,0.3
		c-0.2,0.2-0.3,0.4-0.3,0.7v0.4c0,0.3,0.1,0.5,0.3,0.7c0.2,0.2,0.4,0.3,0.7,0.3h2.3c0.3,0,0.5-0.1,0.7-0.3c0.2-0.2,0.3-0.4,0.3-0.7
		v-0.4c0-0.3-0.1-0.5-0.3-0.7C20.2,10,20,9.9,19.7,9.9z M20,11.3c0,0.1,0,0.2-0.1,0.2c-0.1,0.1-0.1,0.1-0.2,0.1h-2.3
		c-0.1,0-0.2,0-0.2-0.1c-0.1-0.1-0.1-0.1-0.1-0.2v-0.4c0-0.1,0-0.2,0.1-0.2c0.1-0.1,0.1-0.1,0.2-0.1h2.3c0.1,0,0.2,0,0.2,0.1
		c0.1,0.1,0.1,0.1,0.1,0.2L20,11.3z M15.4,11.1c0-0.3-0.2-0.6-0.4-0.8c-0.2-0.2-0.5-0.3-0.9-0.3H8.9C8.6,9.9,8.3,10,8,10.2
		c-0.2,0.2-0.4,0.5-0.4,0.8l-0.2,1.7c0,0.2,0,0.4,0,0.6c0.1,0.2,0.1,0.4,0.3,0.5c0.1,0.1,0.3,0.3,0.5,0.3c0.2,0.1,0.4,0.1,0.6,0.1
		h5.7c0.2,0,0.4,0,0.6-0.1c0.2-0.1,0.3-0.2,0.5-0.3c0.1-0.1,0.2-0.3,0.3-0.5c0.1-0.2,0.1-0.4,0-0.6L15.4,11.1z M14.8,13.4
		c-0.1,0.1-0.1,0.1-0.2,0.2c-0.1,0-0.2,0.1-0.3,0.1H8.6c-0.1,0-0.2,0-0.3-0.1c-0.1,0-0.2-0.1-0.2-0.2C8.1,13.3,8,13.2,8,13.1
		c0-0.1,0-0.2,0-0.3l0.2-1.7c0-0.2,0.1-0.3,0.2-0.4c0.1-0.1,0.3-0.2,0.4-0.2h5.2c0.2,0,0.3,0.1,0.4,0.2s0.2,0.2,0.2,0.4l0.2,1.7
		c0,0.1,0,0.2,0,0.3C14.9,13.2,14.9,13.3,14.8,13.4L14.8,13.4z"/>
</mask>
<path class="st1" d="M23,6.9c0-0.3-0.1-0.6-0.3-0.9c-0.2-0.2-0.5-0.4-0.8-0.4h-1.1c-0.2,0-0.4,0.1-0.6,0.2c-0.2,0.1-0.3,0.3-0.4,0.4
	l-1-2.8c-0.2-0.5-0.5-0.8-0.8-1.1C17.5,2.2,17,2,16.6,2h-1.8l-0.2-1c-0.1-0.3-0.2-0.6-0.5-0.7C13.8,0.1,13.5,0,13.2,0H9.8
	C9.5,0,9.2,0.1,9,0.3C8.7,0.5,8.6,0.7,8.5,1L8.2,2H6.4C6,2,5.5,2.2,5.1,2.4C4.7,2.7,4.4,3.1,4.3,3.5l-1,2.8C3.2,6.1,3,6,2.9,5.9
	C2.7,5.8,2.5,5.7,2.3,5.7H1.2c-0.3,0-0.6,0.1-0.8,0.4C0.1,6.3,0,6.6,0,6.9c0,0.3,0.1,0.6,0.3,0.9s0.5,0.4,0.8,0.4h0.2
	C1.1,8.4,0.9,8.7,0.8,9c-0.1,0.3-0.2,0.7-0.2,1V15c0,0.4,0.2,0.9,0.5,1.2c0.3,0.3,0.7,0.5,1.1,0.5v1.6c0,0.5,0.2,0.9,0.5,1.2
	C3,19.8,3.4,20,3.8,20s0.9-0.2,1.2-0.5c0.3-0.3,0.5-0.8,0.5-1.2v-1.6h12v1.6c0,0.5,0.2,0.9,0.5,1.2c0.3,0.3,0.7,0.5,1.2,0.5
	s0.9-0.2,1.2-0.5c0.3-0.3,0.5-0.8,0.5-1.2v-1.6c0.4,0,0.8-0.2,1.1-0.5s0.5-0.7,0.5-1.2V10c0-0.4-0.1-0.7-0.2-1
	c-0.1-0.3-0.3-0.6-0.6-0.9h0.2c0.3,0,0.6-0.1,0.8-0.4C22.9,7.6,23,7.3,23,6.9z M9.1,1.2c0-0.1,0.1-0.3,0.2-0.4
	c0.1-0.1,0.3-0.1,0.4-0.1h3.4c0.1,0,0.3,0,0.4,0.1c0.1,0.1,0.2,0.2,0.2,0.4L14,2H8.9L9.1,1.2z M4.9,3.8C5,3.5,5.2,3.2,5.5,3
	c0.3-0.2,0.6-0.3,0.9-0.3h2c0,0,0.1,0,0.1,0h5.8c0,0,0,0,0.1,0c0,0,0,0,0.1,0h2c0.3,0,0.7,0.1,0.9,0.3c0.3,0.2,0.5,0.5,0.6,0.8
	l1.3,3.7H3.6L4.9,3.8z M1.2,7.5C1,7.5,0.9,7.4,0.8,7.3C0.7,7.2,0.7,7.1,0.7,6.9c0-0.1,0.1-0.3,0.1-0.4C0.9,6.5,1,6.4,1.2,6.4h1.1
	c0.1,0,0.3,0.1,0.4,0.2s0.2,0.2,0.2,0.4v0.5H1.2z M4.8,18.3c0,0.3-0.1,0.5-0.3,0.7c-0.2,0.2-0.4,0.3-0.7,0.3c-0.3,0-0.5-0.1-0.7-0.3
	c-0.2-0.2-0.3-0.4-0.3-0.7v-1.6h2V18.3z M20.1,18.3c0,0.3-0.1,0.5-0.3,0.7c-0.2,0.2-0.4,0.3-0.7,0.3c-0.3,0-0.5-0.1-0.7-0.3
	c-0.2-0.2-0.3-0.4-0.3-0.7v-1.6h2V18.3z M21.8,10V15c0,0.3-0.1,0.5-0.3,0.7C21.3,15.9,21,16,20.8,16h-0.2c-0.1,0-0.1,0-0.2,0h-2.4
	c-0.1,0-0.1,0-0.2,0H5.3c-0.1,0-0.1,0-0.2,0H2.6c-0.1,0-0.1,0-0.2,0H2.2c-0.3,0-0.5-0.1-0.7-0.3c-0.2-0.2-0.3-0.5-0.3-0.7V10
	c0-0.5,0.2-1,0.5-1.3c0.3-0.4,0.8-0.6,1.3-0.6h16.9c0.5,0,1,0.2,1.3,0.6C21.6,9.1,21.8,9.5,21.8,10z M20.2,7.5V6.9
	c0-0.1,0.1-0.3,0.2-0.4c0.1-0.1,0.2-0.2,0.4-0.2h1.1c0.1,0,0.3,0.1,0.4,0.2c0.1,0.1,0.1,0.2,0.1,0.4c0,0.1-0.1,0.3-0.1,0.4
	c-0.1,0.1-0.2,0.2-0.4,0.2L20.2,7.5z M5.6,9.9H3.3C3,9.9,2.8,10,2.6,10.2c-0.2,0.2-0.3,0.4-0.3,0.7v0.4c0,0.3,0.1,0.5,0.3,0.7
	c0.2,0.2,0.4,0.3,0.7,0.3h2.3c0.3,0,0.5-0.1,0.7-0.3c0.2-0.2,0.3-0.4,0.3-0.7v-0.4c0-0.3-0.1-0.5-0.3-0.7C6.1,10,5.9,9.9,5.6,9.9z
	 M5.9,11.3c0,0.1,0,0.2-0.1,0.2c-0.1,0.1-0.1,0.1-0.2,0.1H3.3c-0.1,0-0.2,0-0.2-0.1C3,11.5,3,11.4,3,11.3v-0.4c0-0.1,0-0.2,0.1-0.2
	s0.1-0.1,0.2-0.1h2.3c0.1,0,0.2,0,0.2,0.1c0.1,0.1,0.1,0.1,0.1,0.2V11.3z M8.6,3.9c0,0-0.1-0.1-0.1-0.1c0,0-0.1,0-0.1,0
	c0,0-0.1,0-0.1,0c0,0-0.1,0-0.1,0.1L7.4,4.6c0,0-0.1,0.1-0.1,0.1c0,0,0,0.1,0,0.1c0,0,0,0.1,0,0.1c0,0,0,0.1,0.1,0.1
	c0,0,0.1,0.1,0.1,0.1c0,0,0.1,0,0.1,0c0,0,0.1,0,0.1,0c0,0,0.1,0,0.1-0.1l0.7-0.8c0.1-0.1,0.1-0.2,0.1-0.2C8.7,4,8.7,3.9,8.6,3.9
	L8.6,3.9z M10.1,4.2L8.3,6c0,0-0.1,0.1-0.1,0.1c0,0,0,0.1,0,0.1c0,0.1,0,0.2,0.1,0.2c0.1,0.1,0.1,0.1,0.2,0.1c0.1,0,0.2,0,0.2-0.1
	l1.8-1.8c0,0,0.1-0.1,0.1-0.1c0,0,0-0.1,0-0.1c0,0,0-0.1,0-0.1c0,0,0-0.1-0.1-0.1c0,0-0.1-0.1-0.1-0.1c0,0-0.1,0-0.1,0
	c0,0-0.1,0-0.1,0C10.1,4.1,10.1,4.2,10.1,4.2z M19.7,9.9h-2.3c-0.3,0-0.5,0.1-0.7,0.3c-0.2,0.2-0.3,0.4-0.3,0.7v0.4
	c0,0.3,0.1,0.5,0.3,0.7c0.2,0.2,0.4,0.3,0.7,0.3h2.3c0.3,0,0.5-0.1,0.7-0.3c0.2-0.2,0.3-0.4,0.3-0.7v-0.4c0-0.3-0.1-0.5-0.3-0.7
	C20.2,10,20,9.9,19.7,9.9z M20,11.3c0,0.1,0,0.2-0.1,0.2c-0.1,0.1-0.1,0.1-0.2,0.1h-2.3c-0.1,0-0.2,0-0.2-0.1
	c-0.1-0.1-0.1-0.1-0.1-0.2v-0.4c0-0.1,0-0.2,0.1-0.2c0.1-0.1,0.1-0.1,0.2-0.1h2.3c0.1,0,0.2,0,0.2,0.1c0.1,0.1,0.1,0.1,0.1,0.2
	L20,11.3z M15.4,11.1c0-0.3-0.2-0.6-0.4-0.8c-0.2-0.2-0.5-0.3-0.9-0.3H8.9C8.6,9.9,8.3,10,8,10.2c-0.2,0.2-0.4,0.5-0.4,0.8l-0.2,1.7
	c0,0.2,0,0.4,0,0.6c0.1,0.2,0.1,0.4,0.3,0.5c0.1,0.1,0.3,0.3,0.5,0.3c0.2,0.1,0.4,0.1,0.6,0.1h5.7c0.2,0,0.4,0,0.6-0.1
	c0.2-0.1,0.3-0.2,0.5-0.3c0.1-0.1,0.2-0.3,0.3-0.5c0.1-0.2,0.1-0.4,0-0.6L15.4,11.1z M14.8,13.4c-0.1,0.1-0.1,0.1-0.2,0.2
	c-0.1,0-0.2,0.1-0.3,0.1H8.6c-0.1,0-0.2,0-0.3-0.1c-0.1,0-0.2-0.1-0.2-0.2C8.1,13.3,8,13.2,8,13.1c0-0.1,0-0.2,0-0.3l0.2-1.7
	c0-0.2,0.1-0.3,0.2-0.4c0.1-0.1,0.3-0.2,0.4-0.2h5.2c0.2,0,0.3,0.1,0.4,0.2s0.2,0.2,0.2,0.4l0.2,1.7c0,0.1,0,0.2,0,0.3
	C14.9,13.2,14.9,13.3,14.8,13.4L14.8,13.4z"/>
</svg>
