<svg width="23" height="20" viewBox="0 0 23 20" fill="none" xmlns="http://www.w3.org/2000/svg">
<mask id="path-1-inside-1_17_14" fill="white">
<path d="M23 6.93643C22.9995 6.61271 22.8737 6.30241 22.6501 6.07355C22.4264 5.84469 22.1233 5.71597 21.8071 5.7156H20.7069C20.5 5.71585 20.2968 5.77114 20.1172 5.87606C19.9375 5.98097 19.7876 6.13191 19.6821 6.31404L18.6956 3.54739C18.5346 3.09713 18.2427 2.70816 17.8592 2.4328C17.4758 2.15743 17.0192 2.00887 16.5509 2.00709H14.7375L14.4924 1.02426C14.4196 0.731258 14.2534 0.47148 14.0202 0.285985C13.7869 0.10049 13.5 -0.000139634 13.2047 1.45422e-07H9.77395C9.47863 -0.000139634 9.19168 0.10049 8.95847 0.285985C8.72525 0.47148 8.55907 0.731258 8.48619 1.02426L8.24114 2.00709H6.42776C5.9594 2.00887 5.50281 2.15743 5.11938 2.4328C4.73595 2.70816 4.44407 3.09713 4.28299 3.54739L3.29739 6.31266C3.19167 6.13065 3.04153 5.9799 2.86172 5.87523C2.68192 5.77055 2.47861 5.71554 2.27177 5.7156H1.17151C0.858731 5.72181 0.560812 5.85339 0.34176 6.08205C0.122708 6.31071 0 6.61821 0 6.9385C0 7.25878 0.122708 7.56629 0.34176 7.79495C0.560812 8.02361 0.858731 8.15518 1.17151 8.1614H1.34507C1.09118 8.40225 0.888663 8.69424 0.750237 9.01904C0.61181 9.34384 0.540461 9.69443 0.540668 10.0488V14.9758C0.541224 15.4215 0.709921 15.8498 1.01154 16.1712C1.31316 16.4926 1.72438 16.6823 2.15936 16.7007V18.2967C2.15936 18.7485 2.33464 19.1817 2.64663 19.5011C2.95863 19.8205 3.38178 20 3.82301 20C4.26424 20 4.6874 19.8205 4.99939 19.5011C5.31139 19.1817 5.48667 18.7485 5.48667 18.2967V16.7021H17.492V18.2967C17.492 18.7485 17.6672 19.1817 17.9792 19.5011C18.2912 19.8205 18.7144 20 19.1556 20C19.5968 20 20.02 19.8205 20.332 19.5011C20.644 19.1817 20.8193 18.7485 20.8193 18.2967V16.7007C21.2542 16.6823 21.6655 16.4926 21.9671 16.1712C22.2687 15.8498 22.4374 15.4215 22.438 14.9758V10.0474C22.4382 9.69304 22.3668 9.34246 22.2284 9.01766C22.09 8.69286 21.8874 8.40087 21.6336 8.16002H21.8071C22.1237 8.15941 22.4271 8.03022 22.6507 7.80082C22.8744 7.57142 23 7.26054 23 6.93643ZM9.13951 1.19505C9.17514 1.05039 9.25688 0.922044 9.3718 0.830324C9.48672 0.738603 9.62824 0.688754 9.77395 0.688671H13.2047C13.3504 0.688754 13.4919 0.738603 13.6068 0.830324C13.7217 0.922044 13.8035 1.05039 13.8391 1.19505L14.0414 2.00709H8.93718L9.13951 1.19505ZM4.91653 3.78401C5.03021 3.46678 5.23588 3.19271 5.50599 2.99854C5.77609 2.80436 6.09772 2.69936 6.42776 2.6976H8.43853C8.48026 2.70589 8.52315 2.70589 8.56488 2.6976H14.4142C14.4349 2.70199 14.456 2.70431 14.4771 2.70451C14.498 2.70421 14.5188 2.7019 14.5392 2.6976H16.5509C16.881 2.69897 17.2028 2.80382 17.473 2.99805C17.7432 3.19227 17.9487 3.46656 18.0621 3.78401L19.3759 7.47088H3.60269L4.91653 3.78401ZM1.17151 7.47088C1.03624 7.46681 0.907848 7.40894 0.813575 7.30954C0.719303 7.21014 0.666571 7.07705 0.666571 6.9385C0.666571 6.79995 0.719303 6.66686 0.813575 6.56746C0.907848 6.46806 1.03624 6.41019 1.17151 6.40611H2.27177C2.40907 6.40636 2.54068 6.46231 2.63777 6.56171C2.73486 6.66111 2.78951 6.79585 2.78975 6.93643V7.47088H1.17151ZM4.81221 18.2967C4.81221 18.5653 4.70799 18.8229 4.52248 19.0129C4.33697 19.2028 4.08537 19.3095 3.82301 19.3095C3.56066 19.3095 3.30905 19.2028 3.12354 19.0129C2.93803 18.8229 2.83381 18.5653 2.83381 18.2967V16.7021H4.81221V18.2967ZM20.1448 18.2967C20.1448 18.5653 20.0406 18.8229 19.8551 19.0129C19.6696 19.2028 19.418 19.3095 19.1556 19.3095C18.8933 19.3095 18.6417 19.2028 18.4561 19.0129C18.2706 18.8229 18.1664 18.5653 18.1664 18.2967V16.7021H20.1448V18.2967ZM21.7635 10.0474V14.9758C21.7633 15.2505 21.6566 15.5138 21.4669 15.708C21.2772 15.9022 21.0201 16.0114 20.7518 16.0116H20.5855C20.5182 15.9895 20.4459 15.9895 20.3786 16.0116H17.9326C17.8653 15.9895 17.793 15.9895 17.7258 16.0116H5.25286C5.1856 15.9895 5.11328 15.9895 5.04602 16.0116H2.6C2.53275 15.9895 2.46043 15.9895 2.39317 16.0116H2.2268C1.95856 16.0114 1.70138 15.9022 1.5117 15.708C1.32202 15.5138 1.21536 15.2505 1.21512 14.9758V10.0474C1.21512 9.54685 1.40935 9.06678 1.75507 8.71282C2.1008 8.35887 2.5697 8.16002 3.05863 8.16002H19.9213C20.41 8.16038 20.8786 8.35939 21.224 8.71331C21.5695 9.06723 21.7635 9.54708 21.7635 10.0474ZM20.1898 7.4695V6.93643C20.19 6.79601 20.2445 6.66141 20.3414 6.56203C20.4383 6.46266 20.5697 6.4066 20.7069 6.40611H21.808C21.9433 6.41019 22.0717 6.46806 22.1659 6.56746C22.2602 6.66686 22.313 6.79995 22.313 6.9385C22.313 7.07705 22.2602 7.21014 22.1659 7.30954C22.0717 7.40894 21.9433 7.46681 21.808 7.47088L20.1898 7.4695ZM5.59908 9.89458H3.26771C3.00818 9.89483 2.75934 10.0005 2.57582 10.1884C2.3923 10.3763 2.28909 10.631 2.28885 10.8967V11.3382C2.28909 11.6039 2.3923 11.8587 2.57582 12.0466C2.75934 12.2345 3.00818 12.3401 3.26771 12.3404H5.59908C5.85858 12.34 6.10735 12.2343 6.29084 12.0464C6.47433 11.8586 6.57758 11.6039 6.57793 11.3382V10.8967C6.5777 10.631 6.47449 10.3763 6.29097 10.1884C6.10745 10.0005 5.85861 9.89483 5.59908 9.89458ZM5.90348 11.3382C5.90336 11.4208 5.87125 11.5 5.81419 11.5584C5.75713 11.6169 5.67977 11.6497 5.59908 11.6499H3.26771C3.18702 11.6497 3.10966 11.6169 3.0526 11.5584C2.99554 11.5 2.96343 11.4208 2.96331 11.3382V10.8967C2.96343 10.8141 2.99554 10.7349 3.0526 10.6765C3.10966 10.6181 3.18702 10.5852 3.26771 10.5851H5.59908C5.67977 10.5852 5.75713 10.6181 5.81419 10.6765C5.87125 10.7349 5.90336 10.8141 5.90348 10.8967V11.3382ZM8.64626 3.85674C8.61501 3.82462 8.57788 3.79913 8.53698 3.78173C8.49608 3.76434 8.45224 3.75539 8.40795 3.75539C8.36367 3.75539 8.31982 3.76434 8.27893 3.78173C8.23803 3.79913 8.2009 3.82462 8.16965 3.85674L7.42145 4.62459C7.38933 4.65652 7.36373 4.69468 7.34616 4.73684C7.32859 4.77901 7.3194 4.82433 7.31912 4.87017C7.31884 4.91601 7.32748 4.96144 7.34453 5.00383C7.36158 5.04621 7.38671 5.0847 7.41845 5.11703C7.45018 5.14937 7.48789 5.17491 7.52937 5.19217C7.57084 5.20943 7.61526 5.21806 7.66004 5.21756C7.70481 5.21706 7.74903 5.20743 7.79013 5.18925C7.83123 5.17106 7.86838 5.14467 7.89942 5.11163L8.64671 4.34332C8.70938 4.27852 8.74443 4.19094 8.74417 4.09975C8.74392 4.00855 8.70839 3.92118 8.64536 3.85674H8.64626ZM10.0586 4.2043L8.28251 6.03001C8.25124 6.06215 8.22646 6.10027 8.20959 6.1422C8.19271 6.18414 8.18407 6.22906 8.18415 6.27442C8.18432 6.36601 8.22002 6.45379 8.2834 6.51844C8.34679 6.58308 8.43266 6.61931 8.52212 6.61913C8.61159 6.61896 8.69733 6.58241 8.76047 6.51752L10.5365 4.69134C10.5687 4.65941 10.5943 4.62125 10.6118 4.57909C10.6294 4.53693 10.6386 4.4916 10.6389 4.44577C10.6391 4.39993 10.6305 4.35449 10.6135 4.3121C10.5964 4.26972 10.5713 4.23124 10.5395 4.1989C10.5078 4.16656 10.4701 4.14102 10.4286 4.12376C10.3871 4.1065 10.3427 4.09787 10.2979 4.09837C10.2532 4.09887 10.209 4.1085 10.1679 4.12669C10.1268 4.14487 10.0896 4.17126 10.0586 4.2043ZM19.7109 9.89458H17.3795C17.12 9.89483 16.8712 10.0005 16.6877 10.1884C16.5041 10.3763 16.4009 10.631 16.4007 10.8967V11.3382C16.401 11.6039 16.5043 11.8586 16.6878 12.0464C16.8713 12.2343 17.12 12.34 17.3795 12.3404H19.7118C19.9714 12.3401 20.2203 12.2345 20.4039 12.0466C20.5875 11.8587 20.6908 11.604 20.6911 11.3382V10.8967C20.6908 10.6308 20.5873 10.3759 20.4035 10.188C20.2198 10.0001 19.9706 9.89458 19.7109 9.89458ZM20.0158 11.3382C20.0156 11.4209 19.9835 11.5002 19.9263 11.5586C19.8692 11.617 19.7917 11.6499 19.7109 11.6499H17.3795C17.2989 11.6497 17.2215 11.6169 17.1644 11.5584C17.1074 11.5 17.0753 11.4208 17.0751 11.3382V10.8967C17.0753 10.8141 17.1074 10.7349 17.1644 10.6765C17.2215 10.6181 17.2989 10.5852 17.3795 10.5851H19.7118C19.7926 10.5851 19.8701 10.6179 19.9272 10.6763C19.9844 10.7348 20.0165 10.814 20.0167 10.8967L20.0158 11.3382ZM15.4088 11.0546C15.3613 10.7329 15.203 10.4391 14.9624 10.2264C14.7219 10.0137 14.415 9.89598 14.0972 9.89458H8.88142C8.56366 9.89609 8.25688 10.0138 8.01646 10.2265C7.77603 10.4393 7.61779 10.733 7.57028 11.0546L7.33108 12.7266C7.30359 12.9193 7.31693 13.1158 7.3702 13.3028C7.42348 13.4897 7.51543 13.6627 7.63981 13.8101C7.76419 13.9574 7.91809 14.0756 8.09105 14.1567C8.26402 14.2377 8.45199 14.2797 8.64221 14.2798H14.3364C14.5266 14.2797 14.7146 14.2377 14.8876 14.1567C15.0605 14.0756 15.2144 13.9574 15.3388 13.8101C15.4632 13.6627 15.5551 13.4897 15.6084 13.3028C15.6617 13.1158 15.675 12.9193 15.6475 12.7266L15.4088 11.0546ZM14.8283 13.3563C14.7673 13.4286 14.6917 13.4866 14.6068 13.5263C14.522 13.566 14.4297 13.5865 14.3364 13.5865H8.64221C8.54882 13.5865 8.45653 13.5658 8.37161 13.526C8.2867 13.4862 8.21115 13.4282 8.15011 13.3558C8.08906 13.2834 8.04395 13.1984 8.01784 13.1066C7.99173 13.0148 7.98523 12.9183 7.99879 12.8237L8.23709 11.1527C8.26087 10.995 8.33883 10.8512 8.45695 10.7472C8.57507 10.6431 8.72559 10.5856 8.88142 10.5851H14.0972C14.2532 10.5858 14.4038 10.6436 14.5219 10.748C14.64 10.8524 14.7177 10.9966 14.7411 11.1545L14.9794 12.8256C14.993 12.9202 14.9866 13.0167 14.9605 13.1085C14.9344 13.2003 14.8894 13.2853 14.8283 13.3577V13.3563Z"/>
</mask>
<path d="M23 6.93643C22.9995 6.61271 22.8737 6.30241 22.6501 6.07355C22.4264 5.84469 22.1233 5.71597 21.8071 5.7156H20.7069C20.5 5.71585 20.2968 5.77114 20.1172 5.87606C19.9375 5.98097 19.7876 6.13191 19.6821 6.31404L18.6956 3.54739C18.5346 3.09713 18.2427 2.70816 17.8592 2.4328C17.4758 2.15743 17.0192 2.00887 16.5509 2.00709H14.7375L14.4924 1.02426C14.4196 0.731258 14.2534 0.47148 14.0202 0.285985C13.7869 0.10049 13.5 -0.000139634 13.2047 1.45422e-07H9.77395C9.47863 -0.000139634 9.19168 0.10049 8.95847 0.285985C8.72525 0.47148 8.55907 0.731258 8.48619 1.02426L8.24114 2.00709H6.42776C5.9594 2.00887 5.50281 2.15743 5.11938 2.4328C4.73595 2.70816 4.44407 3.09713 4.28299 3.54739L3.29739 6.31266C3.19167 6.13065 3.04153 5.9799 2.86172 5.87523C2.68192 5.77055 2.47861 5.71554 2.27177 5.7156H1.17151C0.858731 5.72181 0.560812 5.85339 0.34176 6.08205C0.122708 6.31071 0 6.61821 0 6.9385C0 7.25878 0.122708 7.56629 0.34176 7.79495C0.560812 8.02361 0.858731 8.15518 1.17151 8.1614H1.34507C1.09118 8.40225 0.888663 8.69424 0.750237 9.01904C0.61181 9.34384 0.540461 9.69443 0.540668 10.0488V14.9758C0.541224 15.4215 0.709921 15.8498 1.01154 16.1712C1.31316 16.4926 1.72438 16.6823 2.15936 16.7007V18.2967C2.15936 18.7485 2.33464 19.1817 2.64663 19.5011C2.95863 19.8205 3.38178 20 3.82301 20C4.26424 20 4.6874 19.8205 4.99939 19.5011C5.31139 19.1817 5.48667 18.7485 5.48667 18.2967V16.7021H17.492V18.2967C17.492 18.7485 17.6672 19.1817 17.9792 19.5011C18.2912 19.8205 18.7144 20 19.1556 20C19.5968 20 20.02 19.8205 20.332 19.5011C20.644 19.1817 20.8193 18.7485 20.8193 18.2967V16.7007C21.2542 16.6823 21.6655 16.4926 21.9671 16.1712C22.2687 15.8498 22.4374 15.4215 22.438 14.9758V10.0474C22.4382 9.69304 22.3668 9.34246 22.2284 9.01766C22.09 8.69286 21.8874 8.40087 21.6336 8.16002H21.8071C22.1237 8.15941 22.4271 8.03022 22.6507 7.80082C22.8744 7.57142 23 7.26054 23 6.93643ZM9.13951 1.19505C9.17514 1.05039 9.25688 0.922044 9.3718 0.830324C9.48672 0.738603 9.62824 0.688754 9.77395 0.688671H13.2047C13.3504 0.688754 13.4919 0.738603 13.6068 0.830324C13.7217 0.922044 13.8035 1.05039 13.8391 1.19505L14.0414 2.00709H8.93718L9.13951 1.19505ZM4.91653 3.78401C5.03021 3.46678 5.23588 3.19271 5.50599 2.99854C5.77609 2.80436 6.09772 2.69936 6.42776 2.6976H8.43853C8.48026 2.70589 8.52315 2.70589 8.56488 2.6976H14.4142C14.4349 2.70199 14.456 2.70431 14.4771 2.70451C14.498 2.70421 14.5188 2.7019 14.5392 2.6976H16.5509C16.881 2.69897 17.2028 2.80382 17.473 2.99805C17.7432 3.19227 17.9487 3.46656 18.0621 3.78401L19.3759 7.47088H3.60269L4.91653 3.78401ZM1.17151 7.47088C1.03624 7.46681 0.907848 7.40894 0.813575 7.30954C0.719303 7.21014 0.666571 7.07705 0.666571 6.9385C0.666571 6.79995 0.719303 6.66686 0.813575 6.56746C0.907848 6.46806 1.03624 6.41019 1.17151 6.40611H2.27177C2.40907 6.40636 2.54068 6.46231 2.63777 6.56171C2.73486 6.66111 2.78951 6.79585 2.78975 6.93643V7.47088H1.17151ZM4.81221 18.2967C4.81221 18.5653 4.70799 18.8229 4.52248 19.0129C4.33697 19.2028 4.08537 19.3095 3.82301 19.3095C3.56066 19.3095 3.30905 19.2028 3.12354 19.0129C2.93803 18.8229 2.83381 18.5653 2.83381 18.2967V16.7021H4.81221V18.2967ZM20.1448 18.2967C20.1448 18.5653 20.0406 18.8229 19.8551 19.0129C19.6696 19.2028 19.418 19.3095 19.1556 19.3095C18.8933 19.3095 18.6417 19.2028 18.4561 19.0129C18.2706 18.8229 18.1664 18.5653 18.1664 18.2967V16.7021H20.1448V18.2967ZM21.7635 10.0474V14.9758C21.7633 15.2505 21.6566 15.5138 21.4669 15.708C21.2772 15.9022 21.0201 16.0114 20.7518 16.0116H20.5855C20.5182 15.9895 20.4459 15.9895 20.3786 16.0116H17.9326C17.8653 15.9895 17.793 15.9895 17.7258 16.0116H5.25286C5.1856 15.9895 5.11328 15.9895 5.04602 16.0116H2.6C2.53275 15.9895 2.46043 15.9895 2.39317 16.0116H2.2268C1.95856 16.0114 1.70138 15.9022 1.5117 15.708C1.32202 15.5138 1.21536 15.2505 1.21512 14.9758V10.0474C1.21512 9.54685 1.40935 9.06678 1.75507 8.71282C2.1008 8.35887 2.5697 8.16002 3.05863 8.16002H19.9213C20.41 8.16038 20.8786 8.35939 21.224 8.71331C21.5695 9.06723 21.7635 9.54708 21.7635 10.0474ZM20.1898 7.4695V6.93643C20.19 6.79601 20.2445 6.66141 20.3414 6.56203C20.4383 6.46266 20.5697 6.4066 20.7069 6.40611H21.808C21.9433 6.41019 22.0717 6.46806 22.1659 6.56746C22.2602 6.66686 22.313 6.79995 22.313 6.9385C22.313 7.07705 22.2602 7.21014 22.1659 7.30954C22.0717 7.40894 21.9433 7.46681 21.808 7.47088L20.1898 7.4695ZM5.59908 9.89458H3.26771C3.00818 9.89483 2.75934 10.0005 2.57582 10.1884C2.3923 10.3763 2.28909 10.631 2.28885 10.8967V11.3382C2.28909 11.6039 2.3923 11.8587 2.57582 12.0466C2.75934 12.2345 3.00818 12.3401 3.26771 12.3404H5.59908C5.85858 12.34 6.10735 12.2343 6.29084 12.0464C6.47433 11.8586 6.57758 11.6039 6.57793 11.3382V10.8967C6.5777 10.631 6.47449 10.3763 6.29097 10.1884C6.10745 10.0005 5.85861 9.89483 5.59908 9.89458ZM5.90348 11.3382C5.90336 11.4208 5.87125 11.5 5.81419 11.5584C5.75713 11.6169 5.67977 11.6497 5.59908 11.6499H3.26771C3.18702 11.6497 3.10966 11.6169 3.0526 11.5584C2.99554 11.5 2.96343 11.4208 2.96331 11.3382V10.8967C2.96343 10.8141 2.99554 10.7349 3.0526 10.6765C3.10966 10.6181 3.18702 10.5852 3.26771 10.5851H5.59908C5.67977 10.5852 5.75713 10.6181 5.81419 10.6765C5.87125 10.7349 5.90336 10.8141 5.90348 10.8967V11.3382ZM8.64626 3.85674C8.61501 3.82462 8.57788 3.79913 8.53698 3.78173C8.49608 3.76434 8.45224 3.75539 8.40795 3.75539C8.36367 3.75539 8.31982 3.76434 8.27893 3.78173C8.23803 3.79913 8.2009 3.82462 8.16965 3.85674L7.42145 4.62459C7.38933 4.65652 7.36373 4.69468 7.34616 4.73684C7.32859 4.77901 7.3194 4.82433 7.31912 4.87017C7.31884 4.91601 7.32748 4.96144 7.34453 5.00383C7.36158 5.04621 7.38671 5.0847 7.41845 5.11703C7.45018 5.14937 7.48789 5.17491 7.52937 5.19217C7.57084 5.20943 7.61526 5.21806 7.66004 5.21756C7.70481 5.21706 7.74903 5.20743 7.79013 5.18925C7.83123 5.17106 7.86838 5.14467 7.89942 5.11163L8.64671 4.34332C8.70938 4.27852 8.74443 4.19094 8.74417 4.09975C8.74392 4.00855 8.70839 3.92118 8.64536 3.85674H8.64626ZM10.0586 4.2043L8.28251 6.03001C8.25124 6.06215 8.22646 6.10027 8.20959 6.1422C8.19271 6.18414 8.18407 6.22906 8.18415 6.27442C8.18432 6.36601 8.22002 6.45379 8.2834 6.51844C8.34679 6.58308 8.43266 6.61931 8.52212 6.61913C8.61159 6.61896 8.69733 6.58241 8.76047 6.51752L10.5365 4.69134C10.5687 4.65941 10.5943 4.62125 10.6118 4.57909C10.6294 4.53693 10.6386 4.4916 10.6389 4.44577C10.6391 4.39993 10.6305 4.35449 10.6135 4.3121C10.5964 4.26972 10.5713 4.23124 10.5395 4.1989C10.5078 4.16656 10.4701 4.14102 10.4286 4.12376C10.3871 4.1065 10.3427 4.09787 10.2979 4.09837C10.2532 4.09887 10.209 4.1085 10.1679 4.12669C10.1268 4.14487 10.0896 4.17126 10.0586 4.2043ZM19.7109 9.89458H17.3795C17.12 9.89483 16.8712 10.0005 16.6877 10.1884C16.5041 10.3763 16.4009 10.631 16.4007 10.8967V11.3382C16.401 11.6039 16.5043 11.8586 16.6878 12.0464C16.8713 12.2343 17.12 12.34 17.3795 12.3404H19.7118C19.9714 12.3401 20.2203 12.2345 20.4039 12.0466C20.5875 11.8587 20.6908 11.604 20.6911 11.3382V10.8967C20.6908 10.6308 20.5873 10.3759 20.4035 10.188C20.2198 10.0001 19.9706 9.89458 19.7109 9.89458ZM20.0158 11.3382C20.0156 11.4209 19.9835 11.5002 19.9263 11.5586C19.8692 11.617 19.7917 11.6499 19.7109 11.6499H17.3795C17.2989 11.6497 17.2215 11.6169 17.1644 11.5584C17.1074 11.5 17.0753 11.4208 17.0751 11.3382V10.8967C17.0753 10.8141 17.1074 10.7349 17.1644 10.6765C17.2215 10.6181 17.2989 10.5852 17.3795 10.5851H19.7118C19.7926 10.5851 19.8701 10.6179 19.9272 10.6763C19.9844 10.7348 20.0165 10.814 20.0167 10.8967L20.0158 11.3382ZM15.4088 11.0546C15.3613 10.7329 15.203 10.4391 14.9624 10.2264C14.7219 10.0137 14.415 9.89598 14.0972 9.89458H8.88142C8.56366 9.89609 8.25688 10.0138 8.01646 10.2265C7.77603 10.4393 7.61779 10.733 7.57028 11.0546L7.33108 12.7266C7.30359 12.9193 7.31693 13.1158 7.3702 13.3028C7.42348 13.4897 7.51543 13.6627 7.63981 13.8101C7.76419 13.9574 7.91809 14.0756 8.09105 14.1567C8.26402 14.2377 8.45199 14.2797 8.64221 14.2798H14.3364C14.5266 14.2797 14.7146 14.2377 14.8876 14.1567C15.0605 14.0756 15.2144 13.9574 15.3388 13.8101C15.4632 13.6627 15.5551 13.4897 15.6084 13.3028C15.6617 13.1158 15.675 12.9193 15.6475 12.7266L15.4088 11.0546ZM14.8283 13.3563C14.7673 13.4286 14.6917 13.4866 14.6068 13.5263C14.522 13.566 14.4297 13.5865 14.3364 13.5865H8.64221C8.54882 13.5865 8.45653 13.5658 8.37161 13.526C8.2867 13.4862 8.21115 13.4282 8.15011 13.3558C8.08906 13.2834 8.04395 13.1984 8.01784 13.1066C7.99173 13.0148 7.98523 12.9183 7.99879 12.8237L8.23709 11.1527C8.26087 10.995 8.33883 10.8512 8.45695 10.7472C8.57507 10.6431 8.72559 10.5856 8.88142 10.5851H14.0972C14.2532 10.5858 14.4038 10.6436 14.5219 10.748C14.64 10.8524 14.7177 10.9966 14.7411 11.1545L14.9794 12.8256C14.993 12.9202 14.9866 13.0167 14.9605 13.1085C14.9344 13.2003 14.8894 13.2853 14.8283 13.3577V13.3563Z" fill="#18171C" stroke="black" stroke-width="4" mask="url(#path-1-inside-1_17_14)"/>
</svg>
