<svg width="26" height="26" viewBox="0 0 26 26" fill="none" xmlns="http://www.w3.org/2000/svg">
<path d="M17.7851 15.0107C16.5695 13.9301 14.9997 13.3333 13.3732 13.3333C11.7468 13.3333 10.177 13.9301 8.96137 15.0107C8.85865 15.0996 8.77462 15.208 8.71415 15.3296C8.65368 15.4512 8.61798 15.5837 8.60912 15.7192C8.60026 15.8547 8.61842 15.9907 8.66254 16.1192C8.70666 16.2476 8.77587 16.366 8.86614 16.4675C8.95641 16.569 9.06595 16.6516 9.18839 16.7104C9.31083 16.7692 9.44374 16.8031 9.57939 16.8101C9.71504 16.8171 9.85073 16.7971 9.97859 16.7512C10.1064 16.7054 10.2239 16.6346 10.3242 16.5429C11.1643 15.7962 12.2492 15.3838 13.3732 15.3838C14.4972 15.3838 15.5822 15.7962 16.4223 16.5429C16.6256 16.7236 16.8924 16.8162 17.164 16.8002C17.4355 16.7842 17.6896 16.661 17.8703 16.4577C18.051 16.2544 18.1436 15.9876 18.1276 15.7161C18.1116 15.4445 17.9884 15.1904 17.7851 15.0097V15.0107Z" fill="#212121"/>
<path d="M13.3727 9.12208C10.6197 9.11828 7.96882 10.1647 5.96062 12.0479C5.85894 12.1389 5.77647 12.2494 5.71805 12.3728C5.65962 12.4961 5.62642 12.6299 5.62039 12.7663C5.61435 12.9027 5.63561 13.0389 5.6829 13.1669C5.7302 13.295 5.80259 13.4123 5.89582 13.512C5.98906 13.6117 6.10126 13.6918 6.22585 13.7475C6.35045 13.8033 6.48492 13.8336 6.62139 13.8368C6.75786 13.8399 6.89357 13.8157 7.02058 13.7657C7.14758 13.7157 7.26332 13.6408 7.36101 13.5454C8.99161 12.0209 11.1405 11.1729 13.3727 11.1729C15.605 11.1729 17.7538 12.0209 19.3844 13.5454C19.4821 13.6408 19.5979 13.7157 19.7249 13.7657C19.8519 13.8157 19.9876 13.8399 20.1241 13.8368C20.2605 13.8336 20.395 13.8033 20.5196 13.7475C20.6442 13.6918 20.7564 13.6117 20.8496 13.512C20.9429 13.4123 21.0153 13.295 21.0625 13.1669C21.1098 13.0389 21.1311 12.9027 21.1251 12.7663C21.119 12.6299 21.0858 12.4961 21.0274 12.3728C20.969 12.2494 20.8865 12.1389 20.7848 12.0479C18.7766 10.1647 16.1258 9.11828 13.3727 9.12208V9.12208Z" fill="#212121"/>
<path d="M23.4177 8.7395C20.6532 6.27288 17.0778 4.90967 13.3728 4.90967C9.66786 4.90967 6.09242 6.27288 3.3279 8.7395C3.224 8.82825 3.13889 8.93687 3.07757 9.05898C3.01624 9.18109 2.97994 9.31422 2.9708 9.45056C2.96166 9.5869 2.97986 9.72369 3.02434 9.85289C3.06881 9.9821 3.13866 10.1011 3.22978 10.2029C3.3209 10.3048 3.43145 10.3874 3.55494 10.4458C3.67843 10.5043 3.81237 10.5376 3.94888 10.5436C4.08539 10.5496 4.22173 10.5282 4.34987 10.4808C4.47802 10.4333 4.59539 10.3608 4.69509 10.2673C7.08358 8.13714 10.1722 6.95993 13.3726 6.95993C16.573 6.95993 19.6616 8.13714 22.0501 10.2673C22.2528 10.4486 22.5193 10.542 22.7908 10.5268C23.0624 10.5117 23.3168 10.3892 23.4981 10.1865C23.6794 9.98378 23.7727 9.71733 23.7576 9.44578C23.7424 9.17423 23.62 8.91982 23.4173 8.73852L23.4177 8.7395Z" fill="#212121"/>
<path d="M13.3718 20.9246C14.2348 20.9246 14.9343 20.225 14.9343 19.3621C14.9343 18.4991 14.2348 17.7996 13.3718 17.7996C12.5089 17.7996 11.8093 18.4991 11.8093 19.3621C11.8093 20.225 12.5089 20.9246 13.3718 20.9246Z" fill="#212121"/>
</svg>
