<svg width="40" height="40" viewBox="0 0 40 40" fill="none" xmlns="http://www.w3.org/2000/svg">
<g clip-path="url(#clip0_21_881)">
<path d="M3.70492 11.2715C3.29822 11.2715 3.0542 11.4613 3.0542 11.8138V28.2986C3.0542 28.5969 3.24399 28.8409 3.59646 28.8409H33.2583C33.5024 28.8409 33.7193 28.8409 33.8548 28.4342C33.8548 28.4342 36.8373 19.0801 36.8915 18.9174C37 18.565 36.9457 18.3752 36.6475 18.1854C27.0223 12.112 12.5438 11.2173 6.00954 11.2173C5.06058 11.2173 4.30141 11.2715 3.70492 11.2715Z" fill="url(#paint0_linear_21_881)"/>
<path d="M9.8325 21.8183C8.72086 21.3303 7.9888 21.032 8.17859 20.4898C8.36838 19.8391 9.48003 19.595 10.4832 19.6493C10.9713 19.6493 11.3237 19.7035 11.7847 19.8391L12.1371 18.7003C11.6491 18.5918 11.2424 18.5647 10.6459 18.5647C8.63952 18.5105 6.85004 19.0528 6.41623 20.1915C5.87397 21.5201 7.41942 22.3335 8.77508 22.9571C9.88672 23.4451 10.673 23.9603 10.3748 24.5296C10.185 25.0177 9.37157 25.2346 8.28704 25.2346C7.33808 25.2346 6.1451 24.9363 5.19613 24.5025L4.65387 25.6955C5.35881 25.9938 6.74159 26.4276 7.96168 26.4818C10.2121 26.536 11.7033 25.9938 12.2998 24.7466C12.9505 23.2553 11.2424 22.4962 9.8325 21.8183Z" fill="white"/>
<path d="M12.9506 23.8518C12.9506 23.8518 12.9506 23.906 13.0048 23.906C13.0048 23.906 13.059 23.906 13.059 23.8518C13.059 23.7976 14.1707 20.4356 14.1707 20.4356C15.2823 22.0081 16.3669 24.0958 17.0176 26.3191H18.807L19.7018 23.4993C19.7018 23.4993 19.7018 23.4451 19.756 23.4451C19.756 23.4451 19.8102 23.4451 19.8102 23.4993C20.0543 25.2346 21.8437 26.4276 24.3653 26.4276C25.9649 26.4276 27.4562 25.9938 27.8086 25.8311L28.7576 22.8486H32.3908L32.7433 21.7099H29.0559L29.7066 19.7848H34.0447L34.4514 18.5919H28.3238L26.2903 25.0177C25.8294 25.1261 25.2871 25.1533 24.7448 25.1533C23.5519 25.1533 22.5487 24.855 22.0064 24.2043C21.5997 23.7163 21.4099 23.1198 21.5455 22.4148C21.7895 20.788 23.3892 19.7306 25.5311 19.7306C25.9921 19.7306 26.4259 19.7306 26.8868 19.8391L27.3477 18.5919C26.8597 18.4834 26.209 18.4834 25.6125 18.4834C23.7145 18.4834 22.0064 19.1341 20.9761 20.2729C20.9761 20.3271 20.9219 20.3271 20.8677 20.3271C20.8134 20.3271 20.8134 20.3271 20.8134 20.2729L21.3557 18.5919H19.756L17.9665 23.9874C17.4243 22.4148 16.2584 20.2729 14.8756 18.5919H13.1675L11.9203 22.5504C12.5439 23.0384 12.7337 23.3909 12.9506 23.8518Z" fill="white"/>
</g>
<defs>
<linearGradient id="paint0_linear_21_881" x1="3.0542" y1="20.0291" x2="36.9457" y2="20.0291" gradientUnits="userSpaceOnUse">
<stop stop-color="#7D2C6C"/>
<stop offset="0.2472" stop-color="#AA267B"/>
<stop offset="0.8146" stop-color="#DF242F"/>
<stop offset="1" stop-color="#DF242F"/>
</linearGradient>
<clipPath id="clip0_21_881">
<rect width="34" height="17.8405" fill="white" transform="translate(3 11)"/>
</clipPath>
</defs>
</svg>
