<svg width="40" height="40" viewBox="0 0 40 40" fill="none" xmlns="http://www.w3.org/2000/svg">
<path d="M16.1501 14.3887L16.2561 14.424L16.3267 14.8125L16.2914 15.1304L16.1855 15.413L16.1501 15.5189L16.2561 15.6249L16.6799 15.8015L17.4217 16.1547L17.5629 16.3313L17.7749 16.7198L18.234 17.073L18.8698 17.5675L19.329 17.9207L19.6822 18.2386L19.7528 18.3445L19.8234 18.9096V19.1569L19.6115 19.4394L19.2936 19.6514H19.0464L18.9051 19.8986L18.6579 19.9339L18.2693 19.8986L17.8102 19.722L17.3863 19.5101L17.0685 19.3688L16.7859 19.1216L16.6446 18.945L16.3974 18.9803L16.1148 19.0156L15.7616 18.9803L15.3378 18.8037L15.0552 18.4858L14.808 17.956V17.8854L14.7373 17.9207L14.702 18.4505L14.7727 18.733L14.9846 19.0862L15.3378 19.3688L15.7263 19.5101L15.9029 19.5807L15.8323 20.0752L15.9382 20.499L16.1501 20.9229L16.5387 21.4174L16.7859 21.7706L17.0685 22.2651L17.3157 22.7949L17.5629 23.5366L18.0221 24.5609L18.1281 24.9141L18.1634 25.1966V25.6911L17.9868 26.0443L17.9161 26.1149H17.8102L17.8808 25.903V25.5498L17.7042 25.0907L17.3863 24.6668L16.9272 24.243L16.4327 23.9251L16.0089 23.8545L15.3731 23.7838L15.0552 23.5366L14.6667 23.2893L14.1722 23.0774L13.6777 22.9715L13.0773 22.9361L12.9007 22.9008L12.936 22.7949L13.2892 22.6889L13.7131 22.6536H14.1369L14.8786 22.7595L15.0199 22.7949L14.8433 22.6183L14.5254 22.3357L14.2782 21.9472L14.0309 21.4174L13.819 20.7463L13.6424 19.9339L13.5365 19.0862V18.5918L13.6424 18.062L13.819 17.6028L14.0309 17.2496L14.3135 16.9317L14.7373 16.6138H15.0199L15.1259 16.7551L15.4437 16.8258L15.8323 16.8611L15.7616 16.7198L15.4084 16.4372L15.2318 16.19L15.1965 16.084V15.5189L15.3378 15.1657L15.585 14.8478L15.9382 14.53L16.1501 14.3887Z" fill="#1E1B1D"/>
<path d="M23.7793 14.3887L23.9205 14.424L24.2384 14.6712L24.5916 15.0244L24.8035 15.4483L24.8389 15.8721L24.7682 16.19L24.5563 16.5079L24.2031 16.7551V16.8258H24.521L24.8035 16.7904L24.9801 16.6138L25.1214 16.5785L25.3687 16.6845L25.7572 16.967L26.0398 17.3202L26.287 17.8147L26.4283 18.3798L26.4636 18.733L26.4283 19.4041L26.287 20.3224L26.0751 21.1701L25.8985 21.6293L25.5806 22.1944L25.2627 22.5476L25.0508 22.7595L25.3687 22.7242L25.7572 22.6536H26.5696L27.064 22.7949L27.0287 22.9008L26.1104 23.0068L25.4746 23.2187L25.1214 23.3953L24.7329 23.7132L24.521 23.8191L23.7793 23.8898L23.4614 23.9957L22.8963 24.4196L22.5784 24.7021L22.3311 25.0907L22.1899 25.3732L22.1192 25.6205V26.1503L22.0133 26.0443L21.8367 25.6911V25.3379L21.9073 24.8434L22.0839 24.3136L22.3665 23.7485L22.5431 23.3247L22.6843 22.7949L22.9669 22.2297L23.2141 21.8059L23.532 21.382L23.8852 20.8876L24.0971 20.499L24.1678 20.1105V19.8633L24.1325 19.616L24.2737 19.5101L24.7329 19.3335L25.0861 19.0156L25.2627 18.6624L25.298 18.5211V17.956L25.2274 17.8854L25.0508 18.3092L24.8742 18.5918L24.6269 18.839L24.3797 18.945L23.9912 19.0156H23.7439L23.532 18.945L23.3201 18.9803L23.0729 19.2628L22.8963 19.4041L22.3311 19.6514L22.0839 19.7926L21.6601 19.9339H21.2009L21.0596 19.8633L21.0243 19.6514H20.7417L20.4592 19.4748L20.2119 19.1922L20.1413 18.9803L20.2119 18.7684L20.2826 18.3445L20.4239 18.1326L20.7417 17.85L21.3775 17.3909L21.6601 17.1436L22.2605 16.7198L22.5077 16.2253L22.7197 16.084L23.7086 15.6249L23.8852 15.5542L23.7439 15.1657L23.7086 14.7772L23.7439 14.4593L23.7793 14.3887Z" fill="#1E1B1D"/>
<path d="M35.8234 17.0728H35.894V17.8498L35.7881 18.0264L35.2583 18.3443L34.128 18.8034L32.7152 19.2979L32.0795 19.5805L31.9029 19.863L31.8322 20.0043L31.7969 21.0992L31.5144 22.0176L31.2318 22.5474L30.9139 22.9712L30.596 23.2538L30.1015 23.4657L29.9249 23.607L29.5364 23.7483L28.8653 23.9249L28.83 24.384L29.0419 24.7019L29.1126 24.7725H29.4305L29.7483 24.6313L29.8896 24.6666L30.2428 25.373L30.596 25.6202L30.8786 25.7615L30.8079 25.9028L30.2781 26.1147L29.6777 26.2913L28.7241 26.5032L28.1589 26.6092L27.3819 26.6798L26.6402 26.7151L26.1457 26.7505L24.6623 26.7151L23.4967 26.5385L23.3201 26.5032L23.2495 26.3973L23.2848 26.0087L23.4614 25.4789L23.7086 25.0904L24.2384 24.5253L24.5916 24.2427L25.1921 23.8895L25.6865 23.6423L26.287 23.501L27.0287 23.3597L27.6998 23.395L28.053 23.2184L28.2296 23.1125L28.5121 23.0065L28.6181 22.9006L28.7947 22.9712V23.0418L29.1126 23.0772H29.819L30.0662 22.9712L30.1015 22.7946L29.9249 22.618L29.713 22.2295H30.5254V22.1588L30.7373 22.0176L30.7726 21.841L30.5254 21.3465L30.2428 20.9226V20.6048L30.2781 20.5341L30.3135 20.1103L30.4901 19.7571L30.8079 19.3686L31.2671 19.0507L31.8322 18.8034L32.5386 18.6268L33.7042 18.2383L34.7638 17.7438L35.1523 17.4966L35.3996 17.2847L35.8234 17.0728Z" fill="#CA2732"/>
<path d="M4.17662 17.0728L4.3179 17.1434L4.95366 17.5319L5.58942 17.8851L6.2605 18.203L7.77927 18.7328L8.52099 19.0154L9.12143 19.3332L9.33335 19.5805V19.6511L9.47463 19.7218L9.68655 20.1103V20.746L9.79251 20.9226L9.54527 21.2052L9.40399 21.4171L9.26271 21.735V22.0176L9.40399 22.1235L9.79251 22.1942H10.287L10.3223 22.3001L10.0751 22.6886L9.89847 22.8652L9.93379 23.0065L10.2164 23.0772H11.6998L11.7704 23.1478L11.8058 23.2891L11.9824 23.395H12.9713L13.8543 23.5716L14.3135 23.7129L14.6314 23.8542L14.8433 24.0308L15.1965 24.1721L15.5144 24.3487L15.9382 24.6313L16.3267 25.1257L16.5386 25.4789L16.6799 25.9381L16.7506 26.1147V26.4679L16.468 26.5385L15.691 26.6445L14.4901 26.6798L14.4194 26.7151H13.3245L11.5232 26.5739L10.4283 26.3266L9.68655 26.1147L9.22739 25.9381L9.15675 25.9028L9.22739 25.7615L9.61591 25.5143L9.86315 25.1611L10.1457 24.5959L10.3576 24.6666L10.6402 24.7725H10.8874L10.9934 24.6666L11.2053 24.3487L11.2406 24.2074L11.0994 23.9249L10.2164 23.7129L9.50995 23.3244L9.19207 23.0772L8.94483 22.8299L8.55631 22.1588L8.34439 21.5584L8.16779 20.746L8.13247 20.0396L8.06183 19.7571H7.99119L7.74395 19.4392L7.21414 19.2273L5.69538 18.7681L4.98898 18.4856L4.42386 18.203L4.21194 18.0617L4.1413 17.9204V17.1434L4.17662 17.0728Z" fill="#CA2732"/>
<path d="M24.8389 14.0356L24.9802 14.071L25.2274 14.3182L25.51 14.7067L25.6512 15.0952L25.7572 15.3425L26.181 15.5191L26.8168 15.8723L27.276 16.1902L27.6998 16.4021L28.3002 16.5787L28.5475 16.614L28.5828 16.7553L28.3709 17.0025L28.4062 17.1438L28.5828 17.2851L28.7594 17.497L29.0066 17.7089L28.9007 17.8502L28.7947 17.9209L29.1126 18.1328L29.3952 18.3447L29.6777 18.5919L29.925 18.9098V19.0511L29.5718 19.1571H29.3245L29.4305 19.3337L29.713 19.6515V19.8281L29.6424 19.8988H29.3952L29.0773 19.8281L29.1832 20.0047L29.5011 20.252L29.7837 20.4992L29.7484 20.6405L29.2539 20.6758L29.3245 20.8171L29.713 21.0997L30.0309 21.4175L30.2428 21.7354V21.8061H29.925L29.5011 21.7001L29.1832 21.5588L29.2186 22.0533L29.4305 22.4771L29.5718 22.6537V22.7597H29.2539L28.936 22.6537L28.5828 22.4418L28.1943 22.3359L27.8764 22.0886L27.7351 21.8414L27.6292 21.5588L27.5938 19.6869L27.5232 18.9805L27.3113 18.0268L27.0994 17.4617L26.8168 16.8966L26.4636 16.4021L26.181 16.1195L25.5453 15.731L25.3334 15.625L25.1921 15.4131L25.0861 15.0599L24.7329 14.6714L24.627 14.6008L24.6623 14.4595L24.7682 14.2476L24.8389 14.0356Z" fill="#1E1B1D"/>
<path d="M15.1611 14L15.2318 14.0706L15.3024 14.4238L15.373 14.4945L15.3377 14.6711L14.9845 14.989L14.8079 15.3422L14.7373 15.5894L14.3134 15.8013L14.0662 15.9426L13.6424 16.2605L13.2538 16.7903L12.9359 17.3907L12.724 17.9205L12.5827 18.4857L12.4415 19.404L12.4061 19.9691V21.2053L12.3355 21.6645L12.1942 22.0177L11.9117 22.2649L11.7351 22.3709L11.3819 22.4415L11.0993 22.6534L10.5695 22.7947L10.4282 22.7594L10.4989 22.6181L10.7461 22.1943L10.8521 21.8057V21.5938L9.93374 21.8411L9.75714 21.8057L9.8631 21.5938L10.181 21.2053L10.4282 20.9581L10.7461 20.7461L10.7814 20.6049L10.3223 20.6402L10.181 20.5695L10.3576 20.3929L10.8167 20.0044L10.9227 19.8278L10.6755 19.8985H10.4635L10.2869 19.7219L10.3576 19.5453L10.6048 19.3333L10.6755 19.1567L10.2516 19.1214L10.075 19.0155L10.1457 18.8389L10.4635 18.4857L10.7814 18.2031L11.2053 17.9205L10.958 17.7792L11.5585 17.1788L11.6644 17.1082L11.6291 16.9669L11.4525 16.7903V16.649L12.3002 16.4018L12.8653 16.1192L13.2891 15.8013L13.8896 15.4834L14.3134 15.3422L14.3841 14.989L14.596 14.5651L14.8432 14.2472H14.9139V14.1766L15.1611 14Z" fill="#1E1B1D"/>
<path d="M4.17662 17.0728L4.3179 17.1434L4.95366 17.5319L5.58942 17.8851L6.2605 18.203L7.77927 18.7328L8.52099 19.0154L9.12143 19.3332L9.33335 19.5805V19.6511L9.47463 19.7218L9.68655 20.1103V20.746L9.79251 20.9226L9.54527 21.2052L9.40399 21.4171L9.26271 21.735V22.0176L9.40399 22.1235L9.79251 22.1942H10.287L10.3223 22.3001L10.0751 22.6886L9.89847 22.8652L9.93379 23.0065L10.2164 23.0772H11.6998L11.7704 23.1478L11.8058 23.2891L11.9824 23.395L11.9117 23.4304L11.6998 23.2891L11.6645 23.1831L10.7462 23.1478L10.6755 23.2891H10.6049L10.6402 23.4304L10.8874 23.5363L10.9228 23.7129L11.064 23.7836V23.8542L11.2053 23.9249L11.2406 24.1368L11.0994 23.9249L10.2164 23.7129L9.50995 23.3244L9.19207 23.0772L8.94483 22.8299L8.55631 22.1588L8.34439 21.5584L8.16779 20.746L8.13247 20.0396L8.06183 19.7571H7.99119L7.74395 19.4392L7.21414 19.2273L5.69538 18.7681L4.98898 18.4856L4.42386 18.203L4.21194 18.0617L4.1413 17.9204V17.1434L4.17662 17.0728Z" fill="#D94954"/>
<path d="M35.8234 17.0728H35.894V17.8498L35.7881 18.0264L35.2583 18.3443L34.128 18.8034L32.7152 19.2979L32.0795 19.5805L31.9029 19.863L31.7969 20.0396L31.7616 21.0286L31.585 21.4878L31.4437 21.841L31.4084 22.0176L31.3377 22.2648L30.9845 22.724L30.7726 22.9006L30.5254 22.9359L30.1369 22.724L30.0309 22.4414V22.3001L29.9603 22.3354H29.7483L29.713 22.2295H30.5254V22.1588L30.7373 22.0176L30.7726 21.841L30.5254 21.3465L30.2428 20.9226V20.6048L30.2781 20.5341L30.3135 20.1103L30.4901 19.7571L30.8079 19.3686L31.2671 19.0507L31.8322 18.8034L32.5386 18.6268L33.7042 18.2383L34.7638 17.7438L35.1523 17.4966L35.3995 17.2847L35.8234 17.0728Z" fill="#C92732"/>
<path d="M35.8234 17.0728H35.8941V17.8498L35.7881 18.0264L35.2583 18.3443L34.1281 18.8034L32.7153 19.2979L32.574 19.3686L32.468 19.3332L32.6799 19.0154L32.5387 18.9094H32.1148L31.7616 19.086L31.4791 19.3332L31.3378 19.3686L31.3025 19.4392L31.2318 19.4039L31.1612 19.5452L30.8786 19.7571L30.5961 20.075L30.5607 20.3575V20.852L30.5254 21.0286L30.5961 21.2052L30.6667 21.2405V21.3465L30.7373 21.3818V21.4524L30.8786 21.6644L30.9493 21.735L31.1612 21.6997L31.2318 21.735L31.1965 21.9469L30.9493 21.9822L30.7727 22.0882L30.702 22.0529L30.7727 21.9469L30.7373 21.735L30.5254 21.3465L30.2429 20.9226V20.6048L30.2782 20.5341L30.3135 20.1103L30.4901 19.7571L30.808 19.3686L31.2671 19.0507L31.8323 18.8034L32.5387 18.6268L33.7042 18.2383L34.7638 17.7438L35.1524 17.4966L35.3996 17.2847L35.8234 17.0728Z" fill="#D94954"/>
<path d="M8.73288 19.4043L8.98013 19.4396L9.26269 19.7575L9.33333 19.9341L9.47461 20.1107L9.54525 20.252L9.58057 20.6758L9.61589 20.8524L9.47461 21.2056L9.33333 21.4175L9.26269 21.7354V22.018L9.40397 22.1239L9.79249 22.1946H10.287L10.3223 22.3005L10.075 22.6891L9.89845 22.8657H9.82781L9.79249 23.0069L9.58057 22.9363V22.8657L9.43929 22.8303L9.19205 22.6184V22.5478H9.12141V22.4418H8.94481L8.90948 22.3712H8.98013V22.3005L8.7682 22.2299L8.5916 21.9473L8.45032 21.5588L8.37968 21.2763L8.27372 20.8877L8.2384 20.6758V19.7575L8.27372 19.5103H8.73288V19.4043Z" fill="#CA2732"/>
<path d="M31.7616 20.04H31.7969V21.0996L31.5144 22.018L31.2318 22.5478L30.9139 22.9716L30.596 23.2542L30.1015 23.4661L29.9249 23.6074L29.5364 23.7486L28.9713 23.8899L28.8653 23.8546L29.2539 23.678L29.4658 23.5367L29.5011 23.3954H29.4305V23.2542L29.1126 23.2188H28.6534L28.6181 23.2895H28.4415L28.3355 23.4661L27.9117 23.572L27.5938 23.5367L27.064 23.4661L27.0287 23.6074L26.7461 23.784L26.3929 23.8193H25.8278L24.9801 24.2431L24.7682 24.4904L24.415 24.7729L24.2737 24.9142L24.1678 24.9495L23.9205 25.2321L23.6733 25.55L23.532 26.1151L23.6027 26.1504L23.6733 26.327L24.0265 26.4683L24.3797 26.5389H27.6645L28.3709 26.4683L28.5475 26.5036V26.5389L27.8057 26.6449L26.6402 26.7155L26.1457 26.7509L24.6623 26.7155L23.4967 26.5389L23.3201 26.5036L23.2495 26.3977L23.2848 26.0091L23.4614 25.4793L23.7086 25.0908L24.2384 24.5257L24.5916 24.2431L25.1921 23.8899L25.6865 23.6427L26.287 23.5014L27.0287 23.3601L27.6998 23.3954L28.053 23.2188L28.2296 23.1129L28.5121 23.0069L28.6181 22.901L28.7947 22.9716V23.0422L29.1126 23.0776H29.819L30.0662 22.9716L30.1015 22.795L29.9249 22.6184L29.7837 22.3358L30.0309 22.3005L30.1369 22.7244L30.2781 22.7597L30.5254 22.901L30.7726 22.8656L31.0199 22.6537L31.3378 22.1946L31.3731 21.8767L31.4437 21.806L31.5497 21.4882L31.7263 20.9937L31.7616 20.04Z" fill="#D94954"/>
<path d="M4.1413 17.144H4.21194L4.28258 17.25H4.38854L4.52982 17.3913L5.0243 17.6385L5.34218 17.8504L6.33114 18.3096L6.50774 18.4156L7.1435 18.5922L7.42606 18.7334L7.60266 18.8747L7.92055 19.016L8.45035 19.2279L8.48567 19.3339L8.23843 19.3692H7.99119L7.60266 19.2632L6.82562 19.016L6.54306 18.9807L6.36646 18.91L5.9073 18.8394L5.05962 18.5215L4.45918 18.239L4.17662 18.027L4.1413 17.7798V17.144Z" fill="#CA2732"/>
<path d="M33.9161 16.0488L34.0927 16.0841L34.1634 16.2607L34.1987 16.6846V17.6029L33.6336 17.8148L32.468 18.168L32.0795 18.2034L32.1854 18.0268L32.4327 17.8502L33.351 16.5786L33.5629 16.402L33.8102 16.1195L33.9161 16.0488Z" fill="#EFC244"/>
<path d="M6.08387 16.084L6.26047 16.1193L6.61367 16.5078L6.93155 16.967L7.14347 17.2849L7.46136 17.6734L7.84988 18.0972V18.1679H7.49668L6.22515 17.744L5.80131 17.5321L5.76599 17.4968L5.80131 16.6491L5.87195 16.3312L6.01323 16.1193L6.08387 16.084Z" fill="#EFC244"/>
<path d="M4.21191 20.3931L4.56511 20.499L5.2362 20.6756L6.01324 20.8169L6.8256 20.9229L7.56732 20.9935L7.74392 21.0288L7.84988 21.3467V21.5233L6.79028 21.488L5.30684 21.3467L4.883 21.2054L4.45915 20.8169L4.31787 20.6403L4.21191 20.4637V20.3931Z" fill="#4C8E4E"/>
<path d="M35.4349 21.3818H35.5408L35.4702 21.5584L35.2229 21.841L34.9404 22.0882L34.4459 22.3708L34.0221 22.4414H33.3157L32.362 22.3708L31.9382 22.3002L31.9735 22.0882L32.0795 21.8763L33.6335 21.8057L34.4106 21.6997L35.0817 21.5231L35.4349 21.3818Z" fill="#4C8E4E"/>
<path d="M35.7175 20.3931H35.8234L35.7528 20.5697L35.3643 20.9935L34.9758 21.2407L34.5872 21.3467L33.1744 21.488L32.574 21.5233H32.1855L32.1501 21.382L32.2561 21.0641L32.4327 20.9935L33.9868 20.8169L35.0817 20.605L35.7175 20.3931Z" fill="#4C8E4E"/>
<path d="M4.49445 21.3467L4.70637 21.4173L5.09489 21.5939L5.48341 21.6999L6.29577 21.8058L7.95581 21.8765L8.06177 22.159V22.265L7.60261 22.371L6.86089 22.4416H5.97789L5.51873 22.371L5.09489 22.1237L4.74169 21.8058L4.52977 21.5233L4.49445 21.3467Z" fill="#4C8E4E"/>
<path d="M31.3377 23.2188L31.5143 23.2541L32.1854 23.572L32.7858 23.7486L33.245 23.8192H33.6335L33.9867 23.7839L33.9514 23.9252L33.7042 24.2077L33.351 24.455L33.1037 24.5609H32.8565L32.2914 24.3843L31.7262 24.1018L31.1964 23.8192L30.9139 23.6073L31.0552 23.4307L31.3377 23.2188Z" fill="#4C8E4E"/>
<path d="M8.59165 23.2188L8.76825 23.2541L9.08613 23.5366L9.01549 23.6779L8.37973 24.0311L7.81461 24.3137L7.39077 24.4903L7.07289 24.5962L6.89629 24.5609L6.47245 24.3137L6.04861 23.9252L5.97797 23.8192L6.93161 23.7839L7.56737 23.6426L8.06185 23.466L8.59165 23.2188Z" fill="#4C8D4D"/>
<path d="M4.1413 19.4395L4.45918 19.5101L5.2009 19.722L6.11922 19.9339L7.21414 20.1459L7.60266 20.2871L7.70863 20.5344V20.6757H7.28478L6.22518 20.5344L5.30686 20.3578L4.77706 20.1812L4.38854 19.9339L4.17662 19.6867L4.1413 19.4395Z" fill="#4C8E4E"/>
<path d="M35.7881 19.4395H35.8587V19.6514L35.6115 19.9339L35.2936 20.1459L34.9051 20.2871L33.9868 20.4991L32.7506 20.6757L32.362 20.711L32.3267 20.605L32.3974 20.2871L32.9272 20.1459L34.234 19.8633L35.4702 19.5454L35.7881 19.4395Z" fill="#4C8E4E"/>
<path d="M31.7616 22.6182L32.3267 22.6888L33.3157 22.7948H34.3753L34.8344 22.7594V22.8654L34.5872 23.1126L34.234 23.3246L33.8808 23.4305H33.245L32.362 23.2539L31.9029 23.0773L31.6203 22.936L31.6909 22.7241L31.7616 22.6182Z" fill="#4C8E4E"/>
<path d="M8.13245 22.6182L8.27373 22.6535L8.41501 22.7594V22.9007L7.81457 23.1833L7.32009 23.3246L6.89625 23.3952H6.08389L5.76601 23.3246L5.34217 23.042L5.23621 22.936V22.7241L5.58941 22.7594L5.83665 22.7948H6.64901L8.13245 22.6182Z" fill="#4C8E4E"/>
<path d="M4 18.3799L4.84768 18.7331L6.43709 19.3335L7.17881 19.5454L7.28477 19.5808L7.49669 19.6867L7.53201 19.722V19.934L6.75497 19.7574L5.4128 19.4395L4.24724 19.0863L4.07064 18.9803L4 18.5918V18.3799Z" fill="#4C8E4E"/>
<path d="M35.9294 18.415H36L35.9647 18.9802L35.6468 19.1214L34.4813 19.4746L33.1038 19.7925L32.9625 19.7572L33.3157 19.6512L33.2098 19.6159L32.8566 19.7572L32.7859 19.8632L32.5034 19.8985V19.7219L32.9272 19.5453L33.457 19.3687L34.5519 18.9802L35.5762 18.5916L35.9294 18.415Z" fill="#4C8C4D"/>
<path d="M30.596 23.8193L30.8079 23.89L31.3377 24.2432L31.8322 24.5257L32.6446 24.8789L32.6799 25.0202L32.4327 25.2675L32.362 25.3028H32.0441L31.479 25.0555L31.0552 24.7377L30.702 24.4198L30.3841 24.1019L30.4194 23.9606L30.596 23.8193Z" fill="#4C8E4E"/>
<path d="M9.33337 23.7842L9.58062 23.9255L9.61594 24.0667L9.40401 24.314L9.12145 24.5612L8.80357 24.8438L8.30909 25.1617L7.92057 25.3383L7.67333 25.3029L7.46141 25.1617L7.32013 25.0204L7.35545 24.9144L8.30909 24.4553L8.83889 24.1374L9.22741 23.8548L9.33337 23.7842Z" fill="#4C8E4E"/>
<path d="M35.3642 17.4971H35.5408L35.6821 17.6384L35.7174 17.8856L35.3642 18.2035L34.7638 18.486L34.1987 18.6626L33.7748 18.7686L33.5982 18.7333V18.6626L33.457 18.7686L33.1744 18.8039L33.1038 18.698L33.4923 18.4507L33.6689 18.3094L34.5872 17.9209L34.9051 17.7796L35.3642 17.4971Z" fill="#CA2732"/>
<path d="M12.0883 23.3955H12.9713L13.8543 23.5721L14.3135 23.7134L14.6314 23.8547L14.8433 24.0313L15.1965 24.1725L15.5144 24.3492L15.9382 24.6317L16.3267 25.1262L16.5387 25.4794L16.6799 25.9386L16.7506 26.1152V26.3977L16.6799 26.2564L16.5033 26.0798L16.468 25.8679L16.3267 25.4794L16.1501 25.2322V25.1615H16.0795L15.9029 24.8436L15.479 24.5258L15.1612 24.3845L14.9846 24.2432L14.5254 24.0666L14.3488 23.89L13.4658 23.7134L13.1126 23.6074V23.5368L12.6181 23.4661H11.9824L12.0883 23.3955Z" fill="#DA4A55"/>
<path d="M35.8234 17.0728H35.8941V17.8498L35.7881 18.0264L35.2583 18.3443L34.6579 18.5915L34.5519 18.5562L35.3996 18.1324L35.6822 17.8851L35.6468 17.6379L35.5409 17.5672V17.4966L35.329 17.5672L34.8698 17.8498L34.1634 18.1324L33.6689 18.3443L33.5983 18.309L34.1634 18.0264L34.7638 17.7438L35.1524 17.4966L35.3996 17.2847L35.8234 17.0728Z" fill="#DA4A55"/>
<path d="M10.1457 24.5962L10.3576 24.6668L10.6402 24.7728H10.8874L10.9934 24.7375V24.8081L10.9227 24.8434H10.5342L10.2163 24.7728L10.1457 24.9847L10.0397 25.1613L9.89846 25.5145H9.82782L9.7925 25.6558H9.6159L9.58058 25.7264L9.47462 25.8324L9.72186 25.9384L9.89846 26.0443L10.3929 26.1856L10.7461 26.2209L11.3466 26.4682V26.5035L11.0287 26.4682L9.75718 26.1503L9.22738 25.9384L9.15674 25.903L9.22738 25.7618L9.6159 25.5145L9.86314 25.1613L10.1457 24.5962Z" fill="#DA4A55"/>
<path d="M9.86314 24.2427H9.93378L9.89846 24.4899L9.50994 25.1963L9.22738 25.4082L9.05077 25.4789L8.66225 25.5142L8.59161 25.4789L8.62693 25.3729L9.01545 25.161L9.22738 24.9844L9.47462 24.7018L9.7925 24.278L9.86314 24.2427Z" fill="#4C8A4C"/>
<path d="M30.1015 24.2783L30.2428 24.349V24.4196H30.3135V24.4902H30.3841L30.4194 24.5962L30.596 24.7375L30.7726 24.9494L31.1611 25.2673L31.4084 25.4439V25.5145H31.0552L30.7373 25.3732L30.5254 25.1966L30.2428 24.7022L30.0662 24.4196L30.1015 24.2783Z" fill="#4C8B4C"/>
<path d="M30.1721 25.3027L30.4194 25.5147L30.8785 25.7619L30.8079 25.9032L30.2781 26.1151L29.6777 26.2917L28.9359 26.4683H28.7593L28.9006 26.433L28.9713 26.2917L29.3951 26.1857L30.0309 26.0798V26.0091L30.1015 25.9738L30.0662 25.9032L30.3134 25.7619L30.4194 25.6206L30.2075 25.4793L30.1721 25.3027Z" fill="#D74751"/>
<path d="M16.1854 26.5034H16.468V26.5387L15.6909 26.6447L14.4901 26.68L14.4194 26.7153H13.3245L12.3708 26.6447L12.5121 26.5387H13.0066L13.5364 26.5741H14.2428L15.7969 26.5387L16.1854 26.5034Z" fill="#D94954"/>
<path d="M9.2627 22.0532L9.50994 22.1592L10.0397 22.1945H10.287L10.3223 22.3005L10.1457 22.583L9.58058 22.4771L9.36866 22.3358L9.2627 22.1239V22.0532Z" fill="#DA4A55"/>
<path d="M31.7616 20.04H31.7969V21.0996L31.5144 22.018L31.2671 22.4771H31.1965L31.2671 22.3005L31.3378 22.1946L31.3731 21.8767L31.4437 21.806L31.5497 21.4882L31.7263 20.9937L31.7616 20.04Z" fill="#DA4A55"/>
<path d="M30.1015 24.2783L30.2428 24.349V24.4196H30.3135V24.4902H30.3841L30.4194 24.5962L30.5254 24.6668V24.7728L30.4547 24.8081L30.596 25.0554L30.7373 25.232L30.7726 25.3732L30.5607 25.232L30.3135 24.8434L30.1015 24.4549L30.0662 24.3136L30.1015 24.2783Z" fill="#5D3C1F"/>
<path d="M6.86094 19.5806H7.28478L7.4967 19.6865L7.53202 19.7218V19.9338L7.03754 19.8278L7.00222 19.7218L6.82562 19.6512L6.86094 19.5806Z" fill="#5C3F20"/>
<path d="M33.1391 19.4751L33.3157 19.5457L33.2451 19.6164L32.9272 19.7223L32.7859 19.8636L32.5034 19.8989V19.7223L32.9272 19.5457L33.1391 19.4751Z" fill="#5D3F20"/>
<path d="M28.7947 23.8896L28.8653 23.925L28.83 24.3841L29.0419 24.702L29.1126 24.7727L29.4305 24.808V24.8433H29.0773L28.9007 24.702L28.7594 24.4548L28.7241 24.1722V23.9603L28.7947 23.8896Z" fill="#DA4A55"/>
<path d="M11.2406 22.8301H11.5231L11.6291 22.9007V23.0067H11.0993L11.1699 22.8654L11.2406 22.8301Z" fill="#D43E49"/>
<path d="M10.8168 23.0776H11.6998L11.7705 23.1483L11.8058 23.2896L11.9824 23.3955L11.9117 23.4308L11.6998 23.2896L11.6645 23.1836L10.7815 23.1483L10.8168 23.0776Z" fill="#DA4A55"/>
<path d="M9.86315 24.2427H9.93379L9.89847 24.4899L9.79251 24.5252L9.75719 24.6312L9.61591 24.5606L9.75719 24.3133L9.86315 24.2427Z" fill="#5D3E1F"/>
<path d="M29.7484 24.6313L29.8896 24.6667L29.9603 24.7726L29.925 24.8786L29.7484 24.8433L29.6777 24.7726L29.4305 24.8079L29.5364 24.7373L29.7484 24.6313Z" fill="#DA4A55"/>
<path d="M18.0574 25.7266H18.1281L18.0574 25.9385L17.9161 26.1151H17.8102L17.8808 25.9032L18.0574 25.7266Z" fill="#5B381C"/>
<path d="M32.7153 19.6162L32.8212 19.6515L32.68 19.8635L32.5034 19.8988V19.7222L32.7153 19.6162Z" fill="#526F3C"/>
<path d="M21.9426 25.7969L22.0839 25.8322L22.1192 25.9028V26.1501L22.0132 26.0441L21.9073 25.8322L21.9426 25.7969Z" fill="#58361B"/>
<path d="M10.0397 22.1948H10.2869V22.2655L10.1103 22.3008L9.65118 22.2655V22.2301L10.0397 22.1948Z" fill="#CC2C37"/>
</svg>
