<svg width="40" height="40" viewBox="0 0 40 40" fill="none" xmlns="http://www.w3.org/2000/svg">
<path d="M24.3201 20.3609C24.3698 20.3112 24.4443 20.2864 24.5186 20.2615C24.891 20.0381 25.1641 19.74 25.3378 19.3181C25.5365 18.9208 25.5365 18.6478 25.3875 18.4242C25.2384 18.2256 24.8659 18.1262 24.3447 18.1262H24.3198V16.2144H24.6674C25.3129 16.2144 25.9336 16.2144 26.306 16.3137C26.7033 16.4131 27.1006 16.4877 27.2991 16.6116C27.8206 16.8847 28.1183 17.2571 28.2177 17.7538C28.317 18.2008 28.2674 18.7471 27.9943 19.3678C27.6964 19.9388 27.2991 20.4603 26.753 20.9321C26.2069 21.3791 25.5365 21.7515 24.7914 22.0743C24.6672 22.0991 24.4935 22.1734 24.3198 22.1985L24.3201 20.3609ZM23.1036 20.5594L24.2458 18.1262H24.3203V16.2144H22.5078L20.0001 22.4216L21.5642 22.4465C22.3587 22.4465 23.0042 22.4216 23.5007 22.3471C23.7986 22.2974 24.0716 22.2725 24.3198 22.198V20.3606C23.9973 20.4849 23.6 20.5346 23.1036 20.5594Z" fill="#00A583"/>
<path d="M28.6652 16.2144L28.814 22.4216H31.3465L36.5602 16.2144H33.7546L31.2471 19.2933L31.3465 16.2144H28.6652Z" fill="#00A583"/>
<path d="M20.9435 11C30.3531 11 38 14.8735 38 19.6407C38 24.3582 30.3531 28.2316 20.9435 28.2316C15.5808 28.2316 10.6896 26.9404 7.58608 24.9045H8.57917C11.633 26.568 16.0772 27.5859 20.9435 27.5859C30.1546 27.5859 37.6278 23.9857 37.6278 19.6407C37.6278 15.2459 30.1546 11.6703 20.9435 11.6703C11.8069 11.6703 4.3089 15.2459 4.3089 19.6407C4.3089 21.2793 5.37653 22.8187 7.18879 24.0851H6.44391C4.87986 22.7939 3.93646 21.2544 3.93646 19.6407C3.93646 14.8735 11.5835 11 20.9435 11Z" fill="#00A583"/>
<path d="M13.7434 16.3384H15.9035L15.8787 19.0198L17.9394 16.3384H20.6208L19.5035 22.4711H17.0208L17.3436 19.9634L15.258 22.4711H13.818L13.5698 19.7398L13.1973 20.2861H10.1187L13.7434 16.3384Z" fill="#00A583"/>
<path d="M9.79593 20.5845H12.8249L11.9312 21.5776H8.87738L9.79593 20.5845Z" fill="#00A583"/>
<path d="M8.48005 21.9995H11.6827L10.9378 22.8187H7.71033L8.48005 21.9995Z" fill="#00A583"/>
<path d="M7.23877 23.3403H10.5905L9.96959 24.0852H6.54333L7.23877 23.3403Z" fill="#00A583"/>
<path d="M5.99723 24.7061H9.3241L8.75314 25.3267H5.42627L5.99723 24.7061Z" fill="#00A583"/>
<path d="M4.83048 25.9478H8.08282L7.51186 26.5684H4.25928L4.83048 25.9478Z" fill="#00A583"/>
<path d="M3.56404 27.313H6.81637L6.36964 27.7848H3.11731L3.56404 27.313Z" fill="#00A583"/>
<path d="M2.39729 28.5542H5.89783L5.42625 29.026H2L2.39729 28.5542Z" fill="#00A583"/>
</svg>
