<svg width="40" height="40" viewBox="0 0 40 40" fill="none" xmlns="http://www.w3.org/2000/svg">
<g clip-path="url(#clip0_21_925)">
<path d="M37.9397 14C27.792 16.8693 21.3289 18.9901 16.7081 24.105C18.943 25.0406 21.2685 25.945 23.3222 26.5688C25.7081 21.7035 30.0269 17.7738 38.0001 14.1871L37.9397 14Z" fill="#004D6E"/>
<path d="M24.8625 15.247C23.6544 15.1534 22.3256 14.8727 21.2685 14.5609C19.0034 14.4673 7.22489 14.1554 2.00006 16.4633C3.41952 17.3678 4.89939 18.2411 6.71147 19.2391C11.9665 16.7128 18.641 15.8396 24.8625 15.4653V15.247Z" fill="#004D6E"/>
<path d="M32.4128 15.2163C30.782 15.4346 28.1846 15.5282 26.6142 15.5282C21.933 16.0584 13.7182 17.4307 9.03699 20.3935C10.7585 21.298 12.4799 22.1713 14.3222 22.951C19.2148 18.6158 25.7685 16.6822 32.4128 15.3722V15.2163Z" fill="#004D6E"/>
</g>
<defs>
<clipPath id="clip0_21_925">
<rect width="36" height="12.6" fill="white" transform="translate(2 14)"/>
</clipPath>
</defs>
</svg>
