<svg width="40" height="40" viewBox="0 0 40 40" fill="none" xmlns="http://www.w3.org/2000/svg">
<g clip-path="url(#clip0_21_941)">
<path fill-rule="evenodd" clip-rule="evenodd" d="M19.0648 10C21.44 10 23.7427 10 26.1179 10C26.7841 13.9988 27.5227 18.0554 28.2469 22.0543C26.6683 22.0543 25.0896 22.2997 23.511 22.5451C21.4979 22.906 19.4414 23.3391 17.4283 23.9454C15.4152 24.494 13.3586 25.1581 11.4034 25.8799C10.3752 26.2985 9.39033 26.6739 8.41998 27.0925C11.9538 21.3902 15.5455 15.7023 19.0648 10ZM21.6138 15.0238C20.3972 17.3336 19.1807 19.6867 17.9641 21.9965C19.4269 21.9965 20.8896 21.9965 22.3379 21.9965C22.0917 19.6867 21.8455 17.3336 21.6717 15.0238H21.6138ZM29.5793 21.881C29.9414 22.242 30.3034 22.5451 30.68 22.8483C30.4917 23.3391 30.26 23.8155 30.0717 24.2486C31.042 23.6423 32.0124 22.9782 32.9972 22.3141C31.8386 22.1842 30.7379 22.0543 29.5793 21.881ZM26.3062 22.3574C26.9724 22.2997 27.5807 22.242 28.2469 22.242C28.3048 22.5451 28.3627 22.7905 28.3627 23.0359C27.0303 23.2236 25.6255 23.4546 24.2931 23.8299C21.2517 24.5518 18.2683 25.5912 15.4152 26.7461C13.5903 27.5401 11.7655 28.3196 10.071 29.2291C10.0131 29.2291 10.0131 29.2868 9.95516 29.2868C9.28895 29.2291 8.68067 29.2868 8.01447 29.2291C9.53516 28.4351 11.0558 27.6556 12.5765 26.9193C14.4593 26.0676 16.2841 25.288 18.2248 24.5518C19.9338 23.8877 21.7441 23.2814 23.511 22.8483C24.4089 22.6606 25.3938 22.4874 26.3062 22.3574ZM27.5227 23.3391C27.8269 23.2814 28.131 23.2814 28.4352 23.2814C28.4931 23.6423 28.551 24.0754 28.6814 24.4363C27.5227 24.6239 26.4365 24.7972 25.3358 25.0426C24.0034 25.3457 22.6565 25.7067 21.3821 26.1397C20.6579 26.1397 19.9193 26.1397 19.2531 26.1397C20.6579 25.4179 22.1786 24.8116 23.6848 24.3208C24.9593 23.8733 26.2338 23.5123 27.5227 23.3391ZM26.3062 25.0282C27.1027 24.8405 27.8848 24.725 28.6814 24.6672C28.9855 26.1831 29.2317 27.6989 29.4779 29.2724C27.3489 29.2724 25.22 29.2724 23.0331 29.2724C22.9752 28.1753 22.8448 27.1503 22.7289 26.1253C23.931 25.6922 25.0896 25.3313 26.3062 25.0282ZM13.2283 29.2724C13.6483 28.9693 14.0827 28.7238 14.5607 28.4784C14.3724 28.7238 14.2565 28.9693 14.1407 29.2724C13.8365 29.2147 13.5324 29.2724 13.2283 29.2724Z" fill="#CD171A"/>
</g>
<defs>
<clipPath id="clip0_21_941">
<rect width="24.9828" height="19.2724" fill="white" transform="translate(8 10)"/>
</clipPath>
</defs>
</svg>
