<svg width="40" height="40" viewBox="0 0 40 40" fill="none" xmlns="http://www.w3.org/2000/svg">
<g clip-path="url(#clip0_21_993)">
<path d="M20.1857 28.1246H21.1607L21.0678 26.9175L20.1857 28.1246Z" fill="#CC0000"/>
<path d="M32.9536 21.1607C33.0464 20.325 33.0464 19.1179 32.8607 18.3286C32.5822 19.6286 31.7464 21.3464 30.0286 22.7393C31.6072 21.0679 32.4893 19.0714 32.675 16.9357C32.3964 15.7286 31.9322 14.6607 31.375 13.6393C31.6536 15.775 31.1893 18.6071 29.1 20.8821C30.8643 18.3286 31.2822 15.1714 30.5857 12.4321C28.0786 9.13571 24.225 7 20 7C15.6822 7 11.9214 9.13571 9.50715 12.3393C8.67144 15.0786 9.13573 18.2357 10.9929 20.7893C8.95001 18.4679 8.39287 15.7286 8.67144 13.5C8.1143 14.5214 7.65001 15.6357 7.37144 16.7964C7.4643 18.9321 8.39287 20.9286 9.92501 22.6C8.16072 21.2071 7.37144 19.4893 7.09287 18.1893C7.00001 19.1179 6.90715 20.2321 7.00001 21.0214C7.4643 22.4143 8.39287 23.575 9.36787 24.4107C8.25358 23.7607 7.60358 23.0179 7.23215 22.4607C8.4393 28.3571 13.6393 32.8607 20 32.8607C26.3607 32.8607 31.5607 28.3571 32.7679 22.4607C32.3036 23.0179 31.7464 23.7607 30.6322 24.4107C31.5607 23.7143 32.4893 22.6 32.9536 21.1607ZM15.125 29.7036C14.6607 29.7036 14.1964 29.6107 13.9179 29.6107L14.1964 28.775C15.0322 28.8679 15.6822 28.775 15.9607 28.125L16.7964 25.9429H18.5607L17.6322 28.4036C17.1214 29.6107 15.9607 29.7036 15.125 29.7036ZM21.1607 29.5179V28.775H19.5822L19.0714 29.5179H17.5857L20.5107 26.0357C20.6964 25.85 20.8822 25.7571 21.0679 25.7571H22.6464L23.0179 29.5179H21.1607ZM27.5214 29.5179H23.4822L24.9679 25.7571H26.7322L25.5714 28.6821H27.8929L27.5214 29.5179ZM25.85 21.7179C23.2036 24.2714 19.2572 22.6464 19.5822 19.5357C19.8607 17.075 22.8786 14.6607 25.2 13.2679C24.9214 12.9893 24.2714 12.3393 23.9 11.875C22.7857 10.575 20.8822 10.4821 19.675 11.9679L13.175 12.4321L20.1393 12.8036C21.4393 12.8964 21.8107 14.0107 20.6036 14.9393C16.1 18.3286 15.3572 21.9036 16.3786 24.7821C16.0072 24.225 15.6357 23.4821 15.45 22.7393C13.2679 21.4393 11.5036 18.8857 11.5036 15.775C11.5036 11.1786 15.2643 7.41786 19.8607 7.41786C24.4572 7.41786 28.2179 11.1786 28.2179 15.775C28.3572 18.1893 27.2429 20.325 25.85 21.7179Z" fill="#CC0000"/>
</g>
<defs>
<clipPath id="clip0_21_993">
<rect width="26" height="25.9071" fill="white" transform="translate(7 7)"/>
</clipPath>
</defs>
</svg>
