<svg width="40" height="40" viewBox="0 0 40 40" fill="none" xmlns="http://www.w3.org/2000/svg">
<path fill-rule="evenodd" clip-rule="evenodd" d="M26.6925 10.5008C26.1462 10.7994 24.9755 10.9114 24.5072 10.4261C23.9998 11.1726 24.9755 11.9191 26.1072 11.5086C26.7706 11.2846 27.473 10.986 28.2145 10.874C28.995 10.7621 29.8925 10.874 30.2047 11.1726C27.395 11.3593 23.7267 12.8523 21.034 14.6812C18.9267 16.0995 17.5998 17.3686 16.0389 19.3841C15.8437 19.6827 15.8437 19.8694 16.234 19.6827C18.1072 18.7869 20.4876 18.0404 22.5559 17.5179C24.195 17.1446 25.9511 16.7714 27.6291 17.182C28.4876 17.4059 29.2681 17.9285 29.5803 18.7496C29.9706 19.7947 29.6584 21.0264 28.3706 21.2131C27.7072 21.325 27.2779 21.0638 27.0437 20.7278C26.9267 20.5785 26.8876 20.5785 26.7706 20.5785L25.0925 21.0638C25.0145 21.1011 24.8584 21.2131 24.9364 21.3624C25.0925 21.7356 25.4437 22.2208 25.834 22.4821C26.8876 23.2286 28.2925 23.3406 29.5023 22.8554C31.1803 22.2208 32.0779 20.5412 31.8047 18.7869C31.5706 17.1446 30.3218 15.8009 28.7218 15.2784C27.1218 14.7558 24.8974 14.9798 23.1413 15.6143C22.673 15.7636 22.5559 15.8383 22.8291 15.6143C24.0779 14.6439 26.6145 13.4868 28.7218 12.9269C30.1657 12.5163 31.4925 12.4417 31.8828 12.7403C32.273 10.4261 30.2828 8.93313 27.8242 9.53033C28.7608 9.11975 28.0584 8 26.8486 8C24.7803 8 22.8291 8.8958 20.9169 9.11975C19.8242 9.23173 18.5755 9.00778 17.7169 8.5972C17.5608 10.2022 19.5901 11.3966 21.5803 11.0233C22.9462 10.7621 24.234 10.0902 25.5218 9.82893C26.6145 9.56765 27.1998 10.2395 26.6925 10.5008ZM15.8828 29.3126C14.7901 30.8802 14.2047 30.8056 13.1901 30.6936C12.9559 30.6563 12.9559 30.6936 12.8779 30.8802L12.6047 31.2908C12.4876 31.4774 12.4876 31.4774 12.7608 31.5894C14.634 32.3359 16.3511 32.2239 17.7169 30.2084L24.0779 21.0638C24.7023 20.168 24.9755 19.6827 25.873 19.6081C26.4194 19.5708 26.8096 19.944 26.9267 20.3546C26.9657 20.5785 27.1218 20.5785 27.2389 20.5412L28.8779 20.056C28.9559 20.0187 29.034 19.9067 29.034 19.7574C29.073 19.2722 28.7608 18.6003 28.3316 18.2644C27.0828 17.3313 25.1706 17.6672 23.7267 17.9285C21.4633 18.339 18.6535 19.1975 16.234 20.3546C15.6096 20.6532 14.9072 20.9518 14.5169 21.5117C13.8535 22.4448 11.9803 25.2068 11.2779 26.14C10.0681 27.6703 9.56082 27.633 8.58521 27.521C8.42911 27.521 8.42911 27.521 8.35106 27.633L8.07789 28.1555C7.96082 28.3048 7.99984 28.3421 8.11691 28.4168C10.0291 29.2006 11.7072 29.2006 13.112 27.1477L16.1169 22.818C16.5462 22.1835 17.2876 21.8103 17.873 21.6236L13.5803 27.7823C12.4876 29.3499 11.9023 29.2753 10.9267 29.1633C10.7315 29.0886 10.7315 29.126 10.6145 29.2753L10.3413 29.6858C10.2633 29.7978 10.2242 29.8725 10.4584 29.9471C12.4876 30.7683 14.1267 30.5443 15.4535 28.6034L20.7218 20.9891C20.995 20.5785 21.6584 20.2799 22.2828 20.1306L15.8828 29.3126Z" fill="#CF1E2E"/>
</svg>
