<svg width="40" height="40" viewBox="0 0 40 40" fill="none" xmlns="http://www.w3.org/2000/svg">
<g clip-path="url(#clip0_21_1029)">
<path fill-rule="evenodd" clip-rule="evenodd" d="M19.3685 29.2108C19.3887 28.9278 19.3079 28.5035 19.4291 28.2812C19.51 28.3014 19.5908 28.2407 19.5706 28.6853C19.5706 28.8672 19.5706 29.0289 19.5706 29.2108C19.6919 29.231 23.1274 29.3522 23.956 29.4129C24.6633 29.4735 25.31 29.5745 25.9971 29.6756C26.3406 29.716 26.4215 29.4937 26.6236 29.2512C26.8054 29.0289 26.9671 28.8268 27.1288 28.6045C28.3615 26.9069 29.473 24.7042 29.8772 22.0972L16.3978 22.077C16.519 21.7536 17.6912 20.4805 17.8528 20.1167H8.88001C8.75876 23.3501 10.5372 27.109 12.4166 29.3724C12.7197 29.7564 12.6793 29.7362 13.2452 29.6352C14.296 29.4533 15.7915 29.3522 16.8424 29.2916C17.6507 29.2512 18.6006 29.2916 19.3685 29.2108ZM17.3476 25.3913C17.6507 25.27 17.6507 25.1892 17.7922 24.9265C18.0751 24.4212 18.4591 23.4916 19.025 23.6331L18.8431 26.7655C18.641 26.7857 18.4793 26.7655 18.3176 26.7049C18.1964 26.3411 18.3783 26.1794 18.2974 25.8157L17.9135 25.7752C17.7518 25.9773 17.5295 26.6644 17.1455 26.4623C16.8424 26.3007 17.3678 26.038 17.3476 25.3913ZM19.6716 24.4212C19.611 24.3 19.6312 24.401 19.6514 24.2596C19.7727 23.6533 20.5608 24.1989 19.9142 24.5425C20.0152 24.7042 20.0758 24.6637 20.0152 24.9265C19.9546 25.2094 19.7121 25.6136 19.6514 26.1996C19.9344 26.0784 20.1162 25.6944 20.2779 25.4317C20.5406 25.0073 20.5406 25.0679 20.6215 24.5021C20.8034 24.4616 20.7023 24.4414 20.8842 24.4819L21.5309 24.7446C21.6319 25.2296 21.1469 25.7752 21.1469 26.1996C21.4905 26.1188 21.5309 25.8965 21.8542 25.8157C21.8542 26.6038 20.3588 27.0686 20.7629 25.755C20.8236 25.5934 21.0054 25.2296 20.9044 25.0679C20.5002 25.4115 20.096 26.7857 19.4493 26.4623C19.126 26.24 19.2675 25.7954 19.3887 25.3913C19.51 24.9871 19.4898 24.7042 19.8535 24.5829L19.6716 24.4212Z" fill="white"/>
<path fill-rule="evenodd" clip-rule="evenodd" d="M15.6502 5.94983C15.6704 5.82857 15.5693 5.86899 15.8118 5.78815C16.0948 5.6669 17.5094 5.42439 17.8125 5.42439C17.7721 5.46481 17.7923 5.4446 17.6913 5.48502L16.701 5.76794C16.5192 5.80836 16.3373 5.86899 16.1554 5.92962C15.8725 6.03066 15.8321 6.1115 15.6502 5.94983ZM23.2892 5.97003C23.1882 6.05087 23.3296 6.07108 23.0467 6.01045C22.9861 5.99024 22.8446 5.92962 22.784 5.90941L21.2885 5.46481L21.2077 5.42439C21.6118 5.4446 22.016 5.52544 22.3798 5.60627C22.9456 5.70732 23.269 5.70732 23.2892 5.97003ZM15.9533 6.25296C16.2362 6.07108 17.5902 5.70732 18.0146 5.64669C17.9944 5.6669 17.9944 5.6669 17.9742 5.68711L17.7317 5.82857C16.4181 6.39443 16.6 6.67735 15.9533 6.25296ZM23.0063 6.21254C22.6223 6.61672 22.4808 6.37422 22.0362 6.15192C21.7331 6.01045 21.3491 5.84878 21.0662 5.68711C21.6321 5.72753 22.501 6.05087 23.0063 6.21254ZM10.315 8.69826C10.5979 8.31429 12.1136 7.34425 12.7401 7.02091C13.407 6.65714 14.1345 6.3338 14.8822 6.09129C15.5491 5.86899 15.4279 5.94983 15.5087 6.19233C12.2348 7.50592 11.4265 8.65784 10.7798 8.98118L10.315 8.69826ZM25.9568 7.36446C25.4516 7.06132 23.4913 6.13171 23.4509 6.09129L23.5115 5.90941C24.2188 5.86899 26.7854 7.223 27.5735 7.78885C27.7756 7.93031 27.9979 8.09199 28.1596 8.21324C28.3213 8.33449 28.584 8.51638 28.6648 8.67805C28.5233 8.81951 28.3415 8.92056 28.1192 8.96098C27.5129 8.39512 26.8056 7.86969 25.9568 7.36446ZM19.5909 5.4446C20.0962 5.42439 22.0767 6.29338 22.3596 6.57631C21.6927 6.7784 20.3387 7.06132 19.5909 6.96028V5.4446ZM16.7415 6.57631C17.1456 6.29338 18.8432 5.52544 19.3889 5.42439L19.3686 6.96028C18.823 6.98049 17.085 6.85923 16.7415 6.57631ZM27.7554 9.14286C27.5129 9.26411 26.5833 9.4662 26.361 9.4662C26.0174 8.96098 25.2495 8.33449 24.7443 7.8899C24.4007 7.60697 22.9861 6.63693 22.9254 6.5561C23.2286 6.3338 23.2286 6.27317 23.6125 6.43484C25.2495 7.10174 26.5833 7.9101 27.8969 9.04181C27.8564 9.10244 27.8969 9.08223 27.7554 9.14286ZM11.1031 9.04181C11.5882 8.37491 13.892 7.08153 14.8014 6.67735C15.4481 6.39443 15.6098 6.15192 16.1352 6.61672C16.0746 6.67735 16.115 6.63693 16.0341 6.71777C15.5087 7.16237 14.9226 7.38467 13.7505 8.43554C13.5484 8.61742 12.8613 9.38537 12.6997 9.44599C12.4774 9.52683 11.3052 9.18328 11.1031 9.04181ZM6.01045 17.2871L6.21254 17.2669C6.65714 14.4174 8.53659 11.3659 10.5373 9.52683C10.699 9.36516 10.7798 9.20348 11.0829 9.30453C11.3456 9.38537 12.3561 9.64808 12.4774 9.72892C12.3965 9.9108 12.0125 10.315 11.8711 10.5171C10.5777 12.1944 8.96098 15.3066 8.90035 17.3073L9.08223 17.2871C9.38537 15.731 9.85017 14.2962 10.4969 13.0634C11.1031 11.9115 12.053 10.4362 12.7805 9.76934C13.2251 9.76934 13.8516 9.93101 14.3568 9.97143C14.8822 10.0321 15.4077 10.0725 15.9331 10.1129C17.085 10.1937 18.2167 10.1735 19.3484 10.2341C19.3889 10.4969 19.308 10.8404 19.4293 11.0425C19.7122 10.9617 19.5303 10.901 19.5909 10.2544C20.278 10.1533 21.3895 10.2139 22.1373 10.1735C23.1477 10.1129 24.6432 10.0118 25.6537 9.85017C26.1993 9.76934 26.2397 9.62787 26.5429 9.99164C26.9268 10.4564 27.2704 10.901 27.6341 11.4467C28.3213 12.4976 28.8871 13.6293 29.3115 14.9024C30.1199 17.3073 29.8167 17.853 30.1401 19.2474H30.2613C30.5443 18.0955 29.5338 14.7812 29.1296 13.8111C28.7861 13.0028 28.4223 12.2955 27.9979 11.6286C27.4118 10.699 27.0077 10.315 26.6237 9.70871L28.1394 9.28432C28.6446 9.60767 29.554 10.699 29.9784 11.2244C31.5345 13.1645 32.7066 15.9129 32.9491 18.4794C33.0098 19.0655 32.9087 19.1059 33.1108 19.2474C33.1714 19.1666 33.2118 19.207 33.1916 18.8028C33.1916 18.6613 33.1714 18.4794 33.1512 18.338C33.0704 17.6105 32.8885 16.701 32.6864 16.0139C32.1408 14.1547 31.292 12.5986 30.1805 11.1031C29.4328 10.0927 29.0286 9.9108 28.4021 9.16307L28.8871 8.85993C29.3519 9.06202 30.4432 10.3958 30.7868 10.8404C32.5449 13.0836 33.8383 16.2362 33.8181 19.2878L33.7979 20.0962L20.9247 20.076C21.1066 19.6718 22.2383 18.4997 22.3798 18.1157H5.28293L5.40418 17.2871C5.60627 15.6098 6.41463 13.6899 7.16237 12.4167C7.82927 11.285 9.2439 9.40557 10.1331 8.83972L10.6181 9.10244C10.4767 9.36516 10.0321 9.6885 9.80976 9.93101C8.92056 10.9213 8.49617 11.4265 7.76864 12.6592C7.12195 13.7303 6.15192 15.8321 6.01045 17.2871ZM13.0028 9.56725C13.1645 9.26411 14.0132 8.53659 14.2355 8.33449C14.5993 8.01115 15.8321 7.04112 16.2969 6.83902C16.5596 6.71777 16.9031 6.91986 17.2265 6.98049C17.9742 7.14216 18.6007 7.16237 19.3889 7.20279V9.99164C17.6711 10.1533 14.7206 9.80976 13.0028 9.56725ZM19.5909 7.20279C20.2983 7.06132 21.0258 7.12195 21.8139 6.94007C22.0969 6.87944 22.5415 6.67735 22.7436 6.75819C23.5115 7.08153 25.6537 8.85993 26.1185 9.52683C25.1484 9.80976 20.5812 10.1331 19.5707 9.97143L19.5909 7.20279ZM19.3686 29.2105C18.6007 29.2913 17.6307 29.2509 16.8425 29.2913C15.7916 29.3519 14.2962 29.453 13.2453 29.6348C12.6794 29.7359 12.7199 29.7561 12.4167 29.3721C10.5373 27.1087 8.77909 23.3498 8.88014 20.1164H17.8732C17.7115 20.5003 16.5394 21.7533 16.4181 22.0767L29.8976 22.0969C29.4934 24.7038 28.3819 26.9066 27.1491 28.6042C26.9875 28.8265 26.8258 29.0286 26.6439 29.2509C26.4418 29.4934 26.361 29.7157 26.0174 29.6753C25.3303 29.5742 24.6836 29.4732 23.9763 29.4125C23.1679 29.3317 19.7324 29.2307 19.5909 29.2105C19.5909 29.0286 19.5909 28.8669 19.5909 28.685C19.5909 28.2404 19.5303 28.301 19.4495 28.2808C19.308 28.5031 19.3889 28.9275 19.3686 29.2105ZM5.2223 20.1164H5.74774C6.07108 23.3902 6.94007 25.876 8.83972 28.301C9.14286 28.685 9.36516 28.9477 9.70871 29.3115C10.0321 29.6551 10.3554 29.9178 10.6787 30.2815C10.6383 30.322 10.6585 30.322 10.5777 30.3624C10.5575 30.3826 10.4969 30.423 10.4767 30.423C10.3554 30.4836 10.315 30.5038 10.1937 30.5443C9.06202 29.7763 7.60697 27.7554 6.81882 26.2801C6.03066 24.7847 5.16167 22.1373 5.2223 20.1164ZM6.01045 20.1164H8.67805C8.88014 22.3596 9.08223 23.7742 9.87038 25.6334C11.0425 28.4021 11.9721 28.9275 12.4369 29.7965C12.154 29.8571 11.8711 29.9178 11.5882 29.9986C10.6787 30.2411 11.0425 30.3826 9.72892 29.0488C9.16307 28.4627 8.43554 27.4321 7.93031 26.6035C7.10174 25.1282 5.86899 22.2181 6.01045 20.1164ZM26.5631 29.7157C26.6641 29.5136 27.0279 29.1094 27.2098 28.8871C28.2202 27.5533 29.0488 25.977 29.5944 24.3199C29.8369 23.5519 30.0794 22.2585 30.1603 22.0767H32.7672C32.5652 23.6125 31.6558 25.5324 30.9686 26.7045C30.3422 27.7554 28.8669 29.6551 28.0585 30.1401L26.5631 29.7157ZM28.301 30.3017C28.3819 30.1603 28.301 30.2815 28.3819 30.1603L28.7052 29.8571C29.6348 28.9882 30.524 27.816 31.1707 26.7045C31.5749 26.0578 31.9387 25.3303 32.2216 24.5624C32.3833 24.1582 32.5045 23.8146 32.6258 23.3902C32.747 22.9861 32.8279 22.4606 32.9491 22.0969L33.5756 22.0564C33.2523 24.0167 32.5247 25.7547 31.6558 27.1895C31.1707 27.9777 30.6655 28.5436 30.1603 29.2105C29.938 29.4934 29.554 29.8167 29.2913 30.0997C28.7861 30.6655 28.9477 30.5645 28.301 30.3017ZM12.922 29.9582C13.1038 29.8167 13.4474 29.8167 13.6495 29.7763C15.1045 29.5742 18.0955 29.3721 19.3889 29.453L19.3686 32.2216C18.5603 32.2822 17.954 32.3024 17.1861 32.4641C16.8829 32.5247 16.5192 32.7268 16.2362 32.6056C15.5895 32.3226 14.0335 31.0495 13.4676 30.524C13.2857 30.3422 13.1038 30.1199 12.922 29.9582ZM19.6112 32.2418C19.5505 31.4941 19.5909 30.2815 19.5909 29.453C21.7937 29.4328 23.9359 29.5742 26.0376 29.8976C25.7547 30.5038 23.4711 32.2014 22.7233 32.6056C22.4 32.7672 22.1979 32.5854 21.7937 32.5045C21.0662 32.3226 20.4195 32.2822 19.6112 32.2418ZM22.8446 32.8077C22.8648 32.7875 24.239 31.8578 24.6836 31.5143C25.2697 31.0495 25.8355 30.524 26.3408 29.9784C26.7247 29.9986 27.5129 30.2007 27.8564 30.3422C27.0683 31.2314 24.8251 32.4237 23.5317 32.9491C23.1679 33.0704 23.0669 33.03 22.8446 32.8077ZM11.184 30.3826C11.3659 30.2209 12.4976 29.8976 12.7199 30.039C12.7199 30.039 13.9526 31.3122 14.9024 31.9791C15.2662 32.2418 15.7512 32.5045 16.115 32.8077C15.6906 33.1916 15.3672 32.9087 14.8216 32.6662C13.7505 32.2014 11.8711 31.1101 11.184 30.3826ZM23.3902 33.2321C23.7136 33.03 25.007 32.5652 26.1185 31.878C26.5631 31.6153 26.9268 31.3526 27.331 31.0495C28.2202 30.4028 27.9171 30.322 28.6042 30.7059C28.2 31.3122 25.7749 32.6258 24.8049 32.9895C24.5422 33.0906 24.3199 33.1714 24.0571 33.2725C23.754 33.3533 23.5317 33.5352 23.3902 33.2321ZM10.416 30.6655C11.1031 30.423 10.6383 30.3017 11.6892 31.0697C12.639 31.777 13.7505 32.4237 14.862 32.9087C15.2056 33.0704 15.4683 33.0704 15.5289 33.2725C15.4077 33.4341 15.4885 33.3937 15.2258 33.3331C15.1045 33.2927 14.9833 33.2523 14.862 33.2118C13.4474 32.7066 11.4467 31.777 10.416 30.6655ZM19.3889 32.4843V33.9394C18.7826 33.8585 17.1052 33.131 16.6808 32.8481C17.1659 32.6056 18.7624 32.4237 19.3889 32.4843ZM19.5909 33.9192V32.4641C20.3387 32.4641 21.1875 32.5449 21.915 32.7268C22.1171 32.7875 22.0969 32.7672 22.2181 32.8683C21.4906 33.1916 20.5206 33.7777 19.5909 33.9192ZM16.0341 33.0906C16.5596 32.9087 16.4181 32.9693 16.9031 33.2118C17.1659 33.3533 17.469 33.4948 17.7317 33.616C17.469 33.616 16.2767 33.3129 16.0341 33.0906ZM21.2885 33.616C21.4704 33.4341 21.7129 33.3735 22.0564 33.1916C22.4808 32.9693 22.4202 32.9087 22.885 33.0906C22.6627 33.3331 21.6118 33.5756 21.2885 33.616ZM17.3882 33.7979C17.0042 33.8181 16.0139 33.5756 15.6704 33.4746C15.7916 33.2118 15.731 33.2927 16.4585 33.515C16.7617 33.616 17.1254 33.6969 17.3882 33.7979ZM24.1178 5.76794C23.37 5.50523 21.5714 5.08084 20.7226 5.06063C20.3791 5.06063 20.076 5.02021 19.793 5H19.1463C19.1059 5 19.0655 5 19.0251 5.02021C18.722 5.06063 18.2976 5.04042 17.954 5.10105C17.5902 5.16167 17.2871 5.20209 16.9436 5.24251C14.9024 5.56585 12.9624 6.43484 11.2446 7.62718C11.0627 7.74843 10.9819 7.80906 10.8202 7.93031L9.62787 8.92056C7.0007 11.4669 5.26272 14.862 5 18.6411V20.5812C5.04042 21.1268 5.10105 21.6927 5.20209 22.2585C6.27317 28.1596 10.7394 32.7672 16.7415 33.9798C17.5498 34.1415 18.338 34.2223 19.1261 34.2425H19.8132C22.3192 34.1819 24.623 33.4746 26.361 32.5247C30.6049 30.2411 33.3937 26.0376 33.9394 21.1875C33.9798 20.7833 33.9798 20.3791 33.9798 19.9143V19.793C33.9798 16.216 32.9895 13.2857 30.8676 10.5777C29.17 8.39512 26.7652 6.63693 24.1178 5.76794ZM21.3693 33.8787C21.6321 33.7575 23.0467 33.2927 23.2488 33.3937C23.1882 33.515 23.2892 33.4948 22.885 33.5958C22.4 33.6969 21.8746 33.8383 21.3693 33.8787Z" fill="#00030A"/>
<path fill-rule="evenodd" clip-rule="evenodd" d="M9.08215 17.2668H24.1985C24.0369 17.57 23.6529 18.0145 23.4508 18.2571C23.2487 18.5198 22.8445 19.0048 22.7233 19.2271H30.14C29.8166 17.8125 30.14 17.287 29.3114 14.8821C28.8668 13.5888 28.3212 12.4773 27.6341 11.4264C27.2703 10.8808 26.947 10.4362 26.5428 9.97134C26.2396 9.60758 26.1992 9.74904 25.6536 9.82988C24.6431 9.99155 23.1477 10.0926 22.1372 10.1532C21.3895 10.1936 20.2578 10.133 19.5909 10.2341C19.5302 10.901 19.7323 10.9414 19.4292 11.0222C19.3281 10.8201 19.3888 10.4564 19.3484 10.2139C18.1964 10.1532 17.0849 10.1734 15.933 10.0926C15.4076 10.0522 14.8822 10.0118 14.3567 9.95113C13.8717 9.91072 13.225 9.74904 12.7804 9.74904C12.0529 10.4159 11.1031 11.8912 10.4968 13.0431C9.8501 14.2759 9.38529 15.7107 9.08215 17.2668ZM25.4515 15.3267C26.563 15.5895 26.7651 13.124 26.9672 12.5985C27.2299 12.5177 27.1693 12.5177 27.4522 12.5985L27.1086 13.9323C27.1288 13.9323 27.1491 13.9121 27.1693 13.9121C27.8766 13.5281 27.8564 14.1546 27.7957 14.3769C27.6745 14.7811 27.2299 14.7609 27.3107 15.2661C27.6543 15.3267 27.6139 15.0034 27.9574 14.8821C27.9776 15.4278 27.3107 15.7511 27.048 15.5895C26.8257 15.3065 26.947 15.2459 26.8257 15.0034L26.6842 15.4682C26.3003 15.4884 26.5428 15.4076 26.2801 15.3065C25.7748 15.8926 25.5121 15.7713 25.0069 15.3065C24.6835 15.4682 24.6835 15.6905 24.1581 15.6097C23.7741 15.1247 24.1581 14.7003 24.2794 14.1748C24.0166 14.195 23.9762 14.4173 23.8146 14.6598C23.6125 14.9832 23.5316 14.9226 23.1072 14.9428C23.0062 15.1449 22.8445 15.448 22.6424 15.549C22.3393 15.7107 22.0362 15.5086 21.9351 15.3267C21.6522 14.7205 22.1978 14.0536 22.4403 13.7909C23.2285 13.7504 23.1275 14.0536 23.1881 14.6801C23.8146 14.7003 23.7135 14.0334 23.9762 13.609C24.2592 13.6292 24.1177 13.6696 24.3198 13.7504C24.441 13.7909 24.6027 13.8111 24.7038 13.8515C24.8856 14.2557 24.4815 14.6801 24.4612 15.2661C25.1888 15.1651 25.0675 13.8111 25.9163 13.8111C26.4215 13.8111 26.3811 14.3567 26.1588 14.6396C25.7546 15.0236 25.3707 14.6801 25.4515 15.3267ZM11.4062 15.3874C10.5574 15.832 11.1435 14.5588 11.3254 13.4473C11.386 13.1037 11.3658 12.356 11.871 12.5177C12.1539 12.6187 11.7902 13.225 11.77 13.5686C12.4369 13.2452 12.6187 12.2954 13.2856 12.7198C13.2654 12.9623 13.2452 12.9219 13.0633 13.0431L12.1135 13.7302C12.1539 14.3971 12.4571 15.0438 12.4571 15.6299C11.4466 15.7713 12.0529 14.7407 11.6689 14.2355C11.4466 14.478 11.5072 15.0438 11.4062 15.3874ZM21.6926 14.7811C21.6522 15.2863 21.1268 15.7511 20.6013 15.7107L19.8738 15.448C19.8334 14.9226 20.2578 13.7504 20.3588 13.1442C20.1769 12.9421 20.1769 13.0431 20.0557 12.841C20.4801 12.4773 22.0766 12.4571 21.7734 13.5281C21.6926 13.8313 21.5107 13.8515 21.3693 14.0536C21.5309 14.2557 21.733 14.3769 21.6926 14.7811ZM13.4069 15.3267C13.8717 15.4278 14.195 14.963 14.3769 14.6801C14.6599 14.2557 14.4578 13.6292 15.0236 13.7504L14.9226 14.3163C15.2863 14.1344 15.2661 13.7504 15.7107 13.8919C15.8118 14.1748 15.4682 14.8821 15.4076 15.3874C16.4787 15.0438 15.9532 13.5483 16.6606 13.7706C16.7616 13.9727 16.6403 14.0334 16.6403 14.3365C16.8829 14.1748 17.0445 13.6898 17.3881 13.9525C17.5093 14.195 17.1052 14.9226 17.0647 15.4076C17.3274 15.3672 17.3881 15.1651 17.6104 15.0034C17.7316 15.2661 17.3274 15.7511 16.9637 15.6703C16.4787 15.5693 16.802 14.9226 16.8424 14.579C16.5595 14.8013 16.4989 15.2661 16.2362 15.5288C15.9937 15.4884 16.0543 15.448 15.8522 15.347C15.7107 15.549 15.2863 15.933 15.064 15.5086C14.9024 15.2055 15.1651 14.7811 15.2055 14.478C14.8619 14.7609 14.8215 15.2863 14.5588 15.5086C14.1344 15.448 14.5184 15.4076 14.1748 15.3065C13.3665 16.1149 12.841 15.4682 12.9421 14.8417C13.0229 14.2961 13.609 13.4271 14.1748 13.9929C14.2557 14.3971 14.1142 14.5992 13.8919 14.7609C13.5484 14.963 13.3261 14.7609 13.4069 15.3267Z" fill="#ED4033"/>
<path fill-rule="evenodd" clip-rule="evenodd" d="M30.2612 19.2478C30.9483 19.268 33.333 19.167 33.7978 19.2882C33.7978 16.2367 32.5246 13.084 30.7665 10.8408C30.4229 10.3962 29.3316 9.06244 28.8668 8.86035L28.3818 9.16349C29.0285 9.91122 29.4125 10.0931 30.1602 11.1036C31.2919 12.599 32.1205 14.1551 32.6661 16.0144C32.8682 16.7015 33.0501 17.5907 33.1309 18.3384C33.1511 18.4799 33.1713 18.6617 33.1713 18.8032C33.1915 19.2074 33.1511 19.167 33.0905 19.2478C32.8884 19.1063 32.9895 19.0659 32.9288 18.4799C32.6863 15.9335 31.5142 13.1649 29.9581 11.2248C29.5337 10.6994 28.6243 9.60809 28.1191 9.28474L26.6034 9.70913C26.9874 10.3154 27.4118 10.6994 27.9776 11.629C28.402 12.2959 28.7658 13.0234 29.1093 13.8116C29.5337 14.7816 30.5442 18.0959 30.2612 19.2478Z" fill="#ED4033"/>
<path fill-rule="evenodd" clip-rule="evenodd" d="M33.8182 19.2875C33.3533 19.1663 30.9485 19.2471 30.2816 19.2471H30.1603H22.7436C22.8648 19.0248 23.269 18.5398 23.4711 18.2771C23.6732 18.0345 24.0572 17.5899 24.2188 17.2868H9.10247L8.92059 17.307L6.21258 17.2666L6.01049 17.2868H5.40421L5.28296 18.1154H22.3798C22.2182 18.4994 21.1067 19.6715 20.9248 20.0757L33.7979 20.0959L33.8182 19.2875Z" fill="white"/>
<path fill-rule="evenodd" clip-rule="evenodd" d="M7.95045 26.5833C8.43547 27.4119 9.16299 28.4425 9.74906 29.0286C11.0829 30.3624 10.6989 30.2411 11.6083 29.9784C11.8912 29.8976 12.1741 29.837 12.4571 29.7763C11.9923 28.9276 11.0626 28.3819 9.89052 25.6133C9.10237 23.754 8.88007 22.3394 8.69819 20.0962L6.01038 20.1164C5.86892 22.2181 7.10167 25.1282 7.95045 26.5833Z" fill="white"/>
<path fill-rule="evenodd" clip-rule="evenodd" d="M6.21246 17.2672L8.90027 17.2874C8.9609 15.2867 10.5978 12.1745 11.871 10.4972C12.0125 10.2951 12.3964 9.89091 12.4773 9.70903C12.3358 9.62819 11.3456 9.36547 11.0828 9.28464C10.7797 9.18359 10.6989 9.36547 10.5372 9.50694C8.53651 11.3662 6.67727 14.4177 6.21246 17.2672Z" fill="#ED4033"/>
<path fill-rule="evenodd" clip-rule="evenodd" d="M26.5629 29.7152L28.018 30.1396C28.8466 29.6546 30.3016 27.7751 30.9281 26.704C31.6152 25.5521 32.5246 23.6323 32.7267 22.0762H30.1197C30.0591 22.2581 29.8166 23.5514 29.5539 24.3194C29.0284 25.9563 28.1797 27.5528 27.1692 28.8866C27.0277 29.1089 26.6438 29.5131 26.5629 29.7152Z" fill="white"/>
<path fill-rule="evenodd" clip-rule="evenodd" d="M19.5909 7.20267V9.97131C20.6216 10.1128 25.1686 9.78943 26.1387 9.52671C25.6537 8.88002 23.5317 7.10163 22.7638 6.75807C22.5617 6.67724 22.1171 6.87933 21.8341 6.93996C21.0258 7.12184 20.2983 7.06121 19.5909 7.20267Z" fill="#ED4033"/>
<path fill-rule="evenodd" clip-rule="evenodd" d="M12.9219 29.9585C13.1038 30.1202 13.2857 30.3425 13.4878 30.5244C14.0334 31.0498 15.5895 32.3028 16.2564 32.6059C16.5191 32.7272 16.8829 32.5251 17.2063 32.4645C17.9742 32.3028 18.5805 32.2826 19.3888 32.2219L19.409 29.4533C18.1157 29.3725 15.1247 29.5746 13.6697 29.7767C13.4272 29.8171 13.0836 29.8171 12.9219 29.9585Z" fill="white"/>
<path fill-rule="evenodd" clip-rule="evenodd" d="M19.6112 32.2411C20.4195 32.2815 21.046 32.322 21.7937 32.4836C22.1979 32.5645 22.4 32.7666 22.7234 32.5847C23.4913 32.1805 25.7547 30.4829 26.0376 29.8767C23.9359 29.5533 21.7735 29.4119 19.591 29.4321C19.591 30.2808 19.5505 31.4732 19.6112 32.2411Z" fill="white"/>
<path fill-rule="evenodd" clip-rule="evenodd" d="M13.0027 9.56701C14.7205 9.80952 17.671 10.1531 19.3887 9.9914V7.20255C18.6006 7.16213 17.9741 7.14192 17.2264 6.98025C16.903 6.89941 16.5595 6.69732 16.317 6.81857C15.8522 7.04087 14.6194 7.9907 14.2556 8.31405C14.0131 8.53634 13.1644 9.26387 13.0027 9.56701Z" fill="#ED4033"/>
<path fill-rule="evenodd" clip-rule="evenodd" d="M25.4515 15.3267C25.3909 14.68 25.7547 15.0235 26.0982 14.6193C26.3205 14.3364 26.3812 13.7908 25.8557 13.7908C25.0069 13.7908 25.1282 15.1448 24.4007 15.2458C24.4209 14.6598 24.8251 14.2556 24.6432 13.8312C24.5219 13.7908 24.3805 13.7706 24.2592 13.7301C24.0571 13.6493 24.2188 13.6089 23.9157 13.5887C23.6731 13.9929 23.754 14.68 23.1275 14.6598C23.0669 14.0333 23.1679 13.7301 22.3798 13.7706C22.1373 14.0333 21.6118 14.7002 21.8745 15.3064C21.9554 15.5085 22.2787 15.6904 22.5819 15.5287C22.7637 15.4277 22.9254 15.1246 23.0467 14.9225C23.4711 14.8821 23.5317 14.9427 23.754 14.6395C23.9157 14.397 23.9359 14.1949 24.2188 14.1545C24.0975 14.68 23.7136 15.0841 24.0975 15.5894C24.623 15.6702 24.623 15.4479 24.9463 15.2862C25.4313 15.751 25.6941 15.8925 26.2195 15.2862C26.4822 15.3873 26.2599 15.4479 26.6237 15.4479L26.7651 14.9831C26.9066 15.2458 26.7651 15.2862 26.9874 15.5692C27.2501 15.7308 27.917 15.4277 27.8968 14.8618C27.5533 14.9831 27.6139 15.2862 27.2501 15.2458C27.1693 14.7204 27.6139 14.7406 27.7352 14.3566C27.7958 14.1141 27.8362 13.5078 27.1087 13.8918C27.0885 13.8918 27.0683 13.912 27.0481 13.912L27.3916 12.5782C27.1087 12.4974 27.1693 12.5176 26.9066 12.5782C26.7449 13.1239 26.5428 15.5894 25.4515 15.3267ZM27.1289 14.397C27.1087 14.1545 27.1693 14.1747 27.3714 14.0939C27.3108 14.3768 27.3512 14.3768 27.1289 14.397ZM25.5728 14.5789C25.593 14.4375 25.6132 14.3768 25.6738 14.2758C25.7951 14.0939 25.7345 14.1747 25.9164 14.1141C25.8961 14.4577 25.8759 14.4981 25.5728 14.5789ZM22.3393 15.2862C22.1777 14.9629 22.3798 14.5183 22.5212 14.296C22.6425 14.4172 22.7435 14.6395 22.7233 14.8416C22.6829 15.1246 22.5616 15.2458 22.3393 15.2862Z" fill="#00030A"/>
<path fill-rule="evenodd" clip-rule="evenodd" d="M10.5776 30.3425C10.6383 30.2819 10.6383 30.3021 10.6787 30.2616C10.3755 29.8979 10.032 29.6352 9.70865 29.2916C9.3651 28.9481 9.1428 28.6651 8.83966 28.2812C6.94001 25.8763 6.07102 23.3906 5.76788 20.1167H5.24245C5.18182 22.1376 6.0306 24.785 6.83896 26.2805C7.62712 27.7557 9.08217 29.7766 10.2139 30.5446C10.3351 30.5244 10.3755 30.4839 10.4968 30.4233C10.4968 30.4031 10.5574 30.3627 10.5776 30.3425Z" fill="white"/>
<path fill-rule="evenodd" clip-rule="evenodd" d="M28.3009 30.3013C28.9274 30.564 28.7859 30.665 29.3114 30.1194C29.5741 29.8365 29.958 29.5333 30.1803 29.2302C30.6856 28.5633 31.1908 27.9974 31.6758 27.2093C32.5448 25.7744 33.2925 24.0567 33.5957 22.0762L32.9692 22.1166C32.8277 22.4804 32.7671 23.0058 32.6459 23.41C32.5246 23.8344 32.3831 24.1779 32.2417 24.5821C31.9385 25.35 31.5748 26.0574 31.1908 26.7243C30.5239 27.8358 29.6347 29.0079 28.7253 29.8769L28.4019 30.18C28.3211 30.2608 28.3817 30.1396 28.3009 30.3013Z" fill="white"/>
<path fill-rule="evenodd" clip-rule="evenodd" d="M5.40417 17.2872H6.01045C6.15191 15.8322 7.12194 13.7304 7.74843 12.6594C8.47595 11.4468 8.90034 10.9214 9.78954 9.93113C10.0118 9.66842 10.4564 9.36528 10.5979 9.10256L10.1331 8.83984C9.26411 9.4057 7.82926 11.2851 7.16236 12.4168C6.41463 13.69 5.62647 15.6099 5.40417 17.2872Z" fill="#ED4033"/>
<path fill-rule="evenodd" clip-rule="evenodd" d="M13.407 15.3268C13.3261 14.761 13.5484 14.9631 13.892 14.7206C14.1143 14.5589 14.2557 14.3568 14.1749 13.9526C13.6293 13.3666 13.023 14.2558 12.9422 14.8014C12.8411 15.4481 13.3665 16.0746 14.1749 15.2662C14.5185 15.3673 14.1345 15.4077 14.5589 15.4683C14.8418 15.246 14.8822 14.7206 15.2056 14.4376C15.1652 14.7408 14.9024 15.1652 15.0641 15.4683C15.2864 15.8927 15.7108 15.5087 15.8523 15.3066C16.0544 15.4077 15.9937 15.4481 16.2362 15.4885C16.499 15.2258 16.5596 14.761 16.8425 14.5387C16.8021 14.8822 16.4787 15.5289 16.9638 15.63C17.3477 15.7108 17.7317 15.2258 17.6105 14.9631C17.3882 15.1248 17.3275 15.3268 17.0648 15.3673C17.1052 14.8822 17.5094 14.1547 17.3882 13.9122C17.0244 13.6293 16.8627 14.1143 16.6404 14.2962C16.6606 13.993 16.7617 13.9324 16.6606 13.7303C15.9533 13.508 16.4585 15.0035 15.4077 15.3471C15.4481 14.8418 15.7916 14.1345 15.7108 13.8516C15.2662 13.7303 15.2864 14.0941 14.9226 14.276L15.0237 13.7101C14.4578 13.5889 14.6599 14.2153 14.377 14.6397C14.1951 14.9631 13.8718 15.4279 13.407 15.3268ZM13.5282 14.5993C13.5686 14.377 13.6495 14.1547 13.8718 14.0941C13.892 14.4174 13.7505 14.5185 13.5282 14.5993Z" fill="#00030A"/>
<path fill-rule="evenodd" clip-rule="evenodd" d="M11.1031 9.04204C11.3052 9.16329 12.4773 9.52706 12.6996 9.44622C12.8613 9.38559 13.5484 8.61765 13.7505 8.43577C14.9226 7.3849 15.5087 7.1626 16.0341 6.718C16.1149 6.65737 16.0745 6.67758 16.1351 6.61695C15.6097 6.15214 15.448 6.39465 14.8013 6.67758C13.8919 7.08176 11.5881 8.39535 11.1031 9.04204Z" fill="#ED4033"/>
<path fill-rule="evenodd" clip-rule="evenodd" d="M22.9254 6.57637C22.986 6.6572 24.4006 7.62724 24.7442 7.91016C25.2494 8.33455 26.0173 8.98124 26.3609 9.48647C26.5832 9.46626 27.5128 9.28438 27.7553 9.16313C27.8968 9.08229 27.8362 9.12271 27.8968 9.06208C26.5832 7.93037 25.2494 7.12201 23.6125 6.45511C23.2285 6.29344 23.2285 6.35407 22.9254 6.57637Z" fill="#ED4033"/>
<path fill-rule="evenodd" clip-rule="evenodd" d="M22.8445 32.8073C23.0871 33.0296 23.1679 33.0902 23.5114 32.9488C24.825 32.4233 27.048 31.2512 27.8362 30.3418C27.4926 30.2003 26.7045 29.978 26.3205 29.978C25.8153 30.5237 25.2494 31.0491 24.6634 31.5139C24.2188 31.8575 22.8648 32.7871 22.8445 32.8073Z" fill="white"/>
<path fill-rule="evenodd" clip-rule="evenodd" d="M11.1839 30.3824C11.8912 31.1099 13.7504 32.2012 14.8013 32.666C15.347 32.9085 15.6703 33.1915 16.0947 32.8075C15.7309 32.5246 15.2459 32.2416 14.8822 31.9789C13.9525 31.312 12.6996 30.0388 12.6996 30.0388C12.4975 29.8974 11.3658 30.2207 11.1839 30.3824Z" fill="white"/>
<path fill-rule="evenodd" clip-rule="evenodd" d="M20.0355 12.8611C20.1567 13.0632 20.1567 12.9621 20.3386 13.1642C20.2376 13.7705 19.8132 14.9224 19.8536 15.4681L20.5811 15.7308C21.1066 15.7712 21.632 15.3064 21.6724 14.8012C21.7128 14.3768 21.5107 14.2555 21.3491 14.0736C21.4905 13.8715 21.6522 13.8715 21.7532 13.5482C22.0564 12.4771 20.4599 12.4973 20.0355 12.8611ZM20.6822 13.8918C20.7226 13.4067 20.7226 12.9824 21.3289 13.1036C21.3693 13.528 21.0257 13.8109 20.6822 13.8918ZM20.5609 14.397C21.4299 14.1343 21.3289 14.781 21.0257 15.0841C20.8843 15.2256 20.5811 15.367 20.4801 15.1245C20.379 14.9426 20.5205 14.6193 20.5609 14.397Z" fill="#00030A"/>
<path fill-rule="evenodd" clip-rule="evenodd" d="M17.3477 25.3911C17.3679 26.0378 16.8425 26.3005 17.1658 26.4824C17.5498 26.6845 17.7519 25.9974 17.9337 25.7953L18.3177 25.8357C18.3783 26.1793 18.2167 26.3612 18.3379 26.7249C18.4996 26.7856 18.6411 26.8058 18.8634 26.7856L19.0452 23.6531C18.4592 23.5117 18.0954 24.4413 17.8125 24.9465C17.6508 25.189 17.671 25.2699 17.3477 25.3911ZM18.1358 25.3305C18.1763 25.088 18.3177 24.8253 18.4794 24.704C18.4794 24.9263 18.4794 25.1486 18.3783 25.3305H18.1358Z" fill="#00030A"/>
<path fill-rule="evenodd" clip-rule="evenodd" d="M19.8334 24.6033C19.4696 24.7245 19.4898 25.0074 19.3686 25.4116C19.2473 25.8158 19.1059 26.2604 19.4292 26.4827C20.0759 26.806 20.5003 25.4318 20.8843 25.0883C20.9853 25.2499 20.7832 25.6137 20.7428 25.7754C20.3184 27.089 21.8341 26.6242 21.8341 25.836C21.5107 25.9168 21.4905 26.1391 21.1268 26.22C21.1268 25.7754 21.6118 25.2499 21.5107 24.7649L20.8641 24.5022C20.6822 24.4618 20.7832 24.4618 20.6013 24.5224C20.5205 25.0883 20.5205 25.0276 20.2578 25.452C20.0961 25.7147 19.9142 26.0987 19.6313 26.22C19.6919 25.6339 19.9344 25.2297 19.9951 24.9468C20.0557 24.7043 19.9951 24.7245 19.894 24.5628C20.5407 24.2193 19.7323 23.6736 19.6313 24.2799C19.6111 24.4214 19.5909 24.3405 19.6515 24.4416L19.8334 24.6033Z" fill="#00030A"/>
<path fill-rule="evenodd" clip-rule="evenodd" d="M11.4063 15.3867C11.5073 15.0432 11.4467 14.4773 11.6488 14.255C12.0327 14.7602 11.4265 15.7707 12.4369 15.6494C12.4369 15.0634 12.1338 14.4167 12.0934 13.7498L13.0432 13.0627C13.2251 12.9414 13.2453 12.9616 13.2655 12.7393C12.5986 12.3149 12.4167 13.2648 11.7498 13.5881C11.7902 13.2445 12.1338 12.6181 11.8509 12.5372C11.3456 12.3756 11.3658 13.1233 11.3052 13.4668C11.1435 14.5581 10.5575 15.8313 11.4063 15.3867Z" fill="#00030A"/>
<path fill-rule="evenodd" clip-rule="evenodd" d="M23.4507 6.09097C23.471 6.13139 25.4312 7.061 25.9567 7.36414C26.8054 7.86937 27.5128 8.3948 28.1392 8.96066C28.3413 8.92024 28.5434 8.81919 28.6849 8.67773C28.5838 8.51606 28.3413 8.35438 28.1797 8.21292C28.018 8.09167 27.7755 7.92999 27.5936 7.78853C26.7852 7.22268 24.2389 5.86867 23.5316 5.90909L23.4507 6.09097Z" fill="#ED4033"/>
<path fill-rule="evenodd" clip-rule="evenodd" d="M19.5909 6.95987C20.3387 7.06092 21.6927 6.77799 22.3596 6.5759C22.0767 6.29297 20.1164 5.42399 19.5909 5.44419V6.95987Z" fill="#ED4033"/>
<path fill-rule="evenodd" clip-rule="evenodd" d="M10.3149 8.69793L10.7797 8.96065C11.4264 8.63731 12.2348 7.48539 15.5087 6.1718C15.4278 5.92929 15.5491 5.84846 14.8822 6.07076C14.1345 6.33347 13.4069 6.65682 12.74 7.00037C12.1135 7.32372 10.5979 8.31396 10.3149 8.69793Z" fill="#ED4033"/>
<path fill-rule="evenodd" clip-rule="evenodd" d="M23.3901 33.232C23.5316 33.5351 23.7337 33.3734 24.057 33.2724C24.34 33.1713 24.5623 33.0905 24.8048 32.9894C25.7748 32.6055 28.1999 31.2919 28.6041 30.7058C27.917 30.3219 28.2201 30.4027 27.3309 31.0494C26.9267 31.3525 26.5428 31.6152 26.1184 31.878C25.0069 32.5449 23.7135 33.0097 23.3901 33.232Z" fill="white"/>
<path fill-rule="evenodd" clip-rule="evenodd" d="M16.7414 6.57653C17.0647 6.85946 18.8027 7.00092 19.3686 6.98071L19.3888 5.44482C18.8431 5.52566 17.1658 6.2936 16.7414 6.57653Z" fill="#ED4033"/>
<path fill-rule="evenodd" clip-rule="evenodd" d="M19.3888 32.4844C18.7623 32.4238 17.1658 32.6057 16.6808 32.8482C17.1052 33.1311 18.7825 33.8788 19.3888 33.9395V32.4844Z" fill="white"/>
<path fill-rule="evenodd" clip-rule="evenodd" d="M19.5909 33.9194C20.5206 33.7779 21.4906 33.1919 22.2383 32.8685C22.0969 32.7675 22.1171 32.7877 21.9352 32.7271C21.2077 32.5452 20.3589 32.4644 19.6112 32.4644L19.5909 33.9194Z" fill="white"/>
<path fill-rule="evenodd" clip-rule="evenodd" d="M15.5086 33.2927C15.448 33.0906 15.1853 33.0906 14.8417 32.9289C13.7302 32.4439 12.6187 31.7972 11.6689 31.0899C10.6383 30.3017 11.0829 30.423 10.3958 30.6857C11.4466 31.7972 13.4271 32.7268 14.8417 33.232C14.963 33.2725 15.0843 33.3331 15.2055 33.3533C15.4682 33.4139 15.3874 33.4341 15.5086 33.2927Z" fill="white"/>
<path fill-rule="evenodd" clip-rule="evenodd" d="M20.5609 14.3973C20.5205 14.6196 20.379 14.9429 20.4801 15.145C20.5811 15.3875 20.8843 15.246 21.0257 15.1046C21.3289 14.7812 21.4299 14.1345 20.5609 14.3973Z" fill="#ED4033"/>
<path fill-rule="evenodd" clip-rule="evenodd" d="M15.9532 6.25276C16.5999 6.67715 16.418 6.41443 17.7316 5.82837L17.9741 5.6869C17.9741 5.6869 17.9943 5.66669 18.0145 5.64648C17.5901 5.70711 16.2361 6.07087 15.9532 6.25276Z" fill="#ED4033"/>
<path fill-rule="evenodd" clip-rule="evenodd" d="M23.0062 6.21245C22.501 6.05077 21.6118 5.72743 21.0662 5.68701C21.3491 5.84868 21.7331 5.99015 22.0362 6.15182C22.501 6.35391 22.6425 6.61663 23.0062 6.21245Z" fill="#ED4033"/>
<path fill-rule="evenodd" clip-rule="evenodd" d="M23.2891 5.96947C23.2689 5.70676 22.9254 5.70676 22.3393 5.5855C21.9755 5.52487 21.5714 5.42383 21.1874 5.42383L21.2682 5.46425L22.7637 5.90885C22.8445 5.92905 22.986 5.98968 23.0466 6.00989C23.3295 6.07052 23.1881 6.05031 23.2891 5.96947Z" fill="#ED4033"/>
<path fill-rule="evenodd" clip-rule="evenodd" d="M15.6501 5.94945C15.832 6.11113 15.8724 6.03029 16.1351 5.92924C16.3372 5.86862 16.5191 5.80799 16.701 5.74736L17.6912 5.46444C17.7922 5.42402 17.772 5.42402 17.8125 5.40381C17.5093 5.42402 16.0947 5.66653 15.8118 5.76757C15.5692 5.88883 15.6905 5.8282 15.6501 5.94945Z" fill="#ED4033"/>
<path fill-rule="evenodd" clip-rule="evenodd" d="M20.6821 13.8921C21.0257 13.791 21.3894 13.5283 21.3288 13.1039C20.7023 12.9827 20.7023 13.4071 20.6821 13.8921Z" fill="#ED4033"/>
<path fill-rule="evenodd" clip-rule="evenodd" d="M21.2884 33.6158C21.6117 33.5754 22.6626 33.3329 22.8849 33.0904C22.4201 32.8883 22.4807 32.9691 22.0563 33.1914C21.7128 33.3733 21.4703 33.4339 21.2884 33.6158Z" fill="white"/>
<path fill-rule="evenodd" clip-rule="evenodd" d="M16.903 33.2109C16.418 32.9684 16.5393 32.8875 16.0341 33.0896C16.2766 33.3119 17.4689 33.6151 17.7316 33.6353C17.4689 33.4938 17.186 33.3524 16.903 33.2109Z" fill="white"/>
<path fill-rule="evenodd" clip-rule="evenodd" d="M22.3393 15.2861C22.5616 15.2457 22.6829 15.1447 22.7233 14.8415C22.7435 14.6395 22.6627 14.4172 22.5212 14.2959C22.3798 14.5182 22.1777 14.9628 22.3393 15.2861Z" fill="#ED4033"/>
<path fill-rule="evenodd" clip-rule="evenodd" d="M21.3693 33.879C21.8746 33.8386 22.4 33.7173 22.9052 33.5961C23.3094 33.495 23.2083 33.5152 23.269 33.394C23.0467 33.2727 21.632 33.7375 21.3693 33.879Z" fill="white"/>
<path fill-rule="evenodd" clip-rule="evenodd" d="M15.6905 33.4745C16.034 33.5755 17.0243 33.818 17.4083 33.7978C17.1455 33.6766 16.7818 33.5957 16.4989 33.5149C15.7511 33.2926 15.8117 33.232 15.6905 33.4745Z" fill="white"/>
<path fill-rule="evenodd" clip-rule="evenodd" d="M18.1358 25.3299L18.3581 25.3501C18.4591 25.148 18.4794 24.9459 18.4591 24.7236C18.2975 24.8449 18.156 25.1076 18.1358 25.3299Z" fill="#E5E8ED"/>
<path fill-rule="evenodd" clip-rule="evenodd" d="M25.5727 14.5793C25.8556 14.4984 25.896 14.458 25.9162 14.0942C25.7344 14.1549 25.795 14.074 25.6737 14.2559C25.6131 14.3772 25.6131 14.4378 25.5727 14.5793Z" fill="#ED4033"/>
<path fill-rule="evenodd" clip-rule="evenodd" d="M13.5281 14.5995C13.7504 14.5186 13.8919 14.4176 13.8717 14.0942C13.6494 14.1549 13.5483 14.357 13.5281 14.5995Z" fill="#ED4033"/>
<path fill-rule="evenodd" clip-rule="evenodd" d="M27.1289 14.3974C27.331 14.3772 27.3108 14.3772 27.3714 14.0942C27.1693 14.1751 27.1289 14.1751 27.1289 14.3974Z" fill="#ED4033"/>
</g>
<defs>
<clipPath id="clip0_21_1029">
<rect width="29" height="29.2425" fill="white" transform="translate(5 5)"/>
</clipPath>
</defs>
</svg>
