<svg width="40" height="40" viewBox="0 0 40 40" fill="none" xmlns="http://www.w3.org/2000/svg">
<path d="M30.08 22.4873C32.6982 22.2254 34.7928 22.2254 34.7928 22.2254C34.7928 22.2254 32.6982 22.2254 30.2764 21.8982C31.0619 19.4764 30.9309 17.12 29.8837 15.3527C32.24 13.3236 34.4 11.7527 34.4 11.7527C34.4 11.7527 32.24 13.3236 29.6219 14.8945C28.5746 13.3891 26.8728 12.4727 24.8437 12.2109C25.4328 9.91999 26.2182 7.30181 27.0691 4.55272L26.48 3.30908C25.1709 6.51636 23.8619 9.59272 22.6182 12.2109C20.3273 12.4073 17.9055 13.3891 15.8109 14.8291C14.4364 13.2582 13.4546 11.7527 13.4546 11.7527C13.4546 11.7527 14.3709 13.2582 15.2219 15.2218C12.9309 16.9891 11.0982 19.28 10.1164 21.8327C7.43277 22.0945 5.27277 22.16 5.27277 22.16C5.27277 22.16 7.43277 22.2254 9.85458 22.5527C9.13458 24.9091 9.26549 27.1345 10.3128 28.8364C7.89095 30.9309 5.73095 32.5018 5.73095 32.5018C5.73095 32.5018 7.9564 30.9309 10.64 29.36C11.8182 30.9309 13.6509 31.9127 15.8764 32.0436C15.2219 34.5964 14.5019 36.8218 14.5019 36.8218C14.5019 36.8218 15.2873 34.6618 16.5309 32.1091C19.0837 32.1091 21.7019 31.1273 24.0582 29.5564C25.4328 31.0618 26.48 32.5018 26.48 32.5018C26.48 32.5018 25.5637 30.9964 24.7128 29.0982C27.1346 27.4618 29.0982 25.1054 30.08 22.4873ZM28.9673 21.7018C28.3128 21.5709 27.5928 21.44 27.0037 21.3091C27.2655 20.1964 27.2 19.0836 26.8073 18.1673C27.4619 17.5127 28.1819 16.8582 28.9019 16.2036C29.6219 17.7745 29.6873 19.6727 28.9673 21.7018ZM24.4509 13.52C26.1528 13.7164 27.5928 14.4364 28.4437 15.6145C27.6582 16.0727 26.8073 16.5309 25.9564 16.9891C25.4328 16.4 24.7128 16.0073 23.9273 15.8109C24.0582 15.0909 24.2546 14.3709 24.4509 13.52ZM23.7964 16.6618C24.32 16.7927 24.7782 17.0545 25.1709 17.3818C24.5819 17.6436 24.0582 17.9054 23.5346 18.0364C23.6 17.6436 23.6655 17.1854 23.7964 16.6618ZM30.4073 14.6982C30.4073 14.6982 26.4146 17.5782 24.1891 20.1309C23.9928 19.9345 23.7964 19.8036 23.6655 19.6073C23.6 19.4764 23.5346 19.2145 23.5346 18.8218C26.48 17.4473 30.4073 14.6982 30.4073 14.6982ZM24.7128 20.5236C25.1055 20 25.5637 19.4109 26.0873 18.8873C26.2837 19.5418 26.2837 20.3273 26.1528 21.1127C25.6291 20.9164 25.1055 20.72 24.7128 20.5236ZM25.3019 23.2727C24.8437 24.0582 24.2546 24.7127 23.6 25.3673C23.5346 24.8436 23.4691 24.3854 23.4691 23.8618C24.0582 23.6654 24.6473 23.4691 25.3019 23.2727ZM23.2728 22.16C22.6182 23.8618 20.72 25.3018 18.9528 25.3018C17.2509 25.3018 16.3346 23.9273 16.9891 22.16C17.6437 20.4582 19.5419 19.0182 21.3091 19.0182C23.0109 19.0182 23.9273 20.4582 23.2728 22.16ZM20.1964 26.2836C20.5891 26.48 20.9819 26.6764 21.3091 27.0036C20.5891 27.3964 19.8037 27.6582 19.0837 27.7891C19.4764 27.2654 19.8037 26.7418 20.1964 26.2836ZM19.6728 18.0364C19.3455 17.9054 19.0182 17.7091 18.7564 17.5127C19.28 17.1854 19.8691 16.9891 20.4582 16.7927C20.1309 17.2509 19.9346 17.6436 19.6728 18.0364ZM22.0291 13.6509C21.6364 14.4364 21.3091 15.1564 20.9819 15.8109C20 16.0073 18.9528 16.4 18.0364 16.9891C17.6437 16.6618 17.1855 16.2691 16.7928 15.8764C18.4291 14.6982 20.1964 13.9127 22.0291 13.6509ZM19.1491 18.8218C18.8873 19.1491 18.6255 19.4764 18.4291 19.6073C18.1673 19.8036 17.84 20 17.5128 20.1309C17.12 17.5782 15.3528 14.6982 15.3528 14.6982C15.3528 14.6982 17.12 17.5127 19.1491 18.8218ZM14.96 21.0473C15.3528 20.3273 15.8764 19.6727 16.4655 19.1491C16.5309 19.6073 16.5964 20.0654 16.5964 20.5236C16.1382 20.72 15.5491 20.9164 14.96 21.0473ZM15.3528 23.9273C15.0255 24.3854 14.5673 24.9091 14.1091 25.3673C13.9782 24.7782 13.9128 24.1236 14.0437 23.4036C14.5673 23.6 14.96 23.7309 15.3528 23.9273ZM15.8109 16.5309C16.0073 17.0545 16.2037 17.6436 16.3346 18.1673C15.2873 19.0836 14.4364 20.1309 13.9128 21.3091C13.1928 21.44 12.4728 21.5709 11.7528 21.7018C12.6037 19.7382 14.0437 17.9709 15.8109 16.5309ZM11.2291 22.8145C11.8837 22.9454 12.6037 23.0764 13.1928 23.2073C12.9964 24.2545 13.0619 25.2364 13.3891 26.0873C12.7346 26.7418 12.0146 27.3964 11.2946 28.0509C10.64 26.6109 10.64 24.7782 11.2291 22.8145ZM9.72367 29.6873C9.72367 29.6873 13.6509 26.8073 15.9419 24.2545C16.1382 24.3854 16.3346 24.5818 16.4655 24.7782C16.5964 24.9745 16.6619 25.2364 16.7273 25.5636C13.7819 26.9382 9.72367 29.6873 9.72367 29.6873ZM16.2691 30.8654C14.3709 30.8 12.8 30.0145 11.8837 28.7709C12.7346 28.3127 13.52 27.8545 14.3709 27.3964C14.96 27.9854 15.7455 28.4436 16.7273 28.64C16.5309 29.36 16.4 30.1454 16.2691 30.8654ZM16.7928 27.7891C16.1382 27.6582 15.6146 27.3964 15.1564 27.0036C15.7455 26.7418 16.3346 26.48 16.8582 26.2836C16.8582 26.7418 16.7928 27.2654 16.7928 27.7891ZM17.3164 30.8654C17.7091 30.1454 18.1019 29.4254 18.4946 28.7709C19.6728 28.64 20.9164 28.2473 22.0291 27.5927C22.4219 27.92 22.88 28.3127 23.2728 28.7054C21.44 29.9491 19.3455 30.7345 17.3164 30.8654ZM20.8509 25.5636C21.1128 25.3018 21.44 25.04 21.7019 24.7782C21.9637 24.5818 22.2909 24.3854 22.6182 24.2545C23.0109 26.8073 24.7782 29.6873 24.7782 29.6873C24.7782 29.6873 22.8146 26.9382 20.8509 25.5636ZM24.32 27.92C24.1237 27.3964 23.9273 26.8073 23.7964 26.2836C24.8437 25.3673 25.76 24.2545 26.3491 23.0109C27.0691 22.88 27.7891 22.7491 28.5091 22.6182C27.6582 24.7127 26.1528 26.5454 24.32 27.92Z" fill="#1268B2"/>
</svg>
