<svg width="40" height="40" viewBox="0 0 40 40" fill="none" xmlns="http://www.w3.org/2000/svg">
<path d="M7.44677 10.7213C7.48884 10.193 7.61559 9.67008 7.81876 9.18066C8.62237 10.1986 9.5988 11.0779 10.6897 11.7784C12.3041 12.8214 14.163 13.4506 16.0573 13.7377C17.3764 13.9387 18.7192 13.98 20.049 13.8729C20.3374 13.8482 20.6255 13.817 20.9112 13.7702C19.9355 14.2809 18.8997 14.6763 17.8315 14.9436C15.8725 15.432 13.8113 15.494 11.8238 15.1447C11.3389 15.0573 10.8567 14.9503 10.3883 14.7964C9.83099 14.6049 9.28859 14.3525 8.81995 13.9914C8.35264 13.6378 7.96361 13.1726 7.72902 12.6334C7.46328 12.037 7.385 11.3681 7.44677 10.7213Z" fill="#06A7E0"/>
<path d="M3.23646 15.7358C3.17282 15.1888 3.15152 14.6321 3.2362 14.0859C4.08028 14.6424 4.94887 15.1683 5.87497 15.5779C7.03992 16.1019 8.27516 16.4638 9.53384 16.6781C11.7381 17.0536 13.9958 17.0056 16.2085 16.7279C18.5704 16.4315 20.8912 15.8668 23.1647 15.1697C22.376 15.7611 21.5447 16.2936 20.6992 16.7995C18.753 17.9504 16.6902 18.9185 14.5241 19.5762C12.9323 20.0545 11.2779 20.3535 9.61292 20.3546C8.42108 20.3474 7.22098 20.1924 6.08959 19.809C5.50006 19.5962 4.95925 19.2463 4.53401 18.7851C4.03555 18.2481 3.68646 17.5826 3.4809 16.8821C3.36081 16.5093 3.28892 16.1232 3.23646 15.7358Z" fill="#06A7E0"/>
<path d="M18.9951 19.3849C19.782 18.9048 20.551 18.3931 21.2808 17.8291C20.1588 19.5085 18.8546 21.0803 17.3051 22.3829C16.5055 23.0475 15.6417 23.6413 14.7071 24.0999C14.1269 24.3826 13.5203 24.6191 12.8879 24.7538C12.2845 24.8712 11.6617 24.9075 11.0514 24.8241C10.5633 24.7687 10.0819 24.6319 9.64787 24.4002C9.23834 24.1827 8.87887 23.8709 8.6102 23.4927C8.247 22.985 8.05715 22.3736 7.97247 21.7604C8.81363 22.0591 9.70778 22.1973 10.5993 22.1933C11.4838 22.1973 12.3655 22.0727 13.225 21.8693C14.2533 21.6278 15.2508 21.2678 16.2166 20.8425C17.1733 20.4178 18.0999 19.9268 18.9951 19.3849Z" fill="#06A7E0"/>
<path d="M27.8764 11.742C28.8943 11.6395 29.9229 11.624 30.9412 11.7284C31.5408 11.8003 32.1439 11.9124 32.6978 12.1616C32.9593 12.2823 33.2117 12.4364 33.4061 12.6521C33.5959 12.8499 33.7157 13.113 33.7397 13.3865C33.7685 13.6557 33.7064 13.9236 33.6231 14.1781C33.2727 13.8498 32.8136 13.6653 32.3546 13.5481C31.9948 13.4605 31.626 13.4163 31.2567 13.4019C30.8192 13.9363 30.1216 14.2671 29.4266 14.1954C29.0576 14.1597 28.7079 13.9859 28.4459 13.7255C28.3711 13.6538 28.3003 13.5779 28.2292 13.5026C28.8336 13.7406 29.5523 13.6858 30.095 13.321C29.1499 13.1844 28.1938 13.1439 27.2397 13.1325C25.8434 13.1277 24.4468 13.2123 23.0611 13.3846C22.6119 13.4363 22.1653 13.5087 21.7177 13.5718C22.6225 13.0742 23.5957 12.7118 24.5812 12.409C25.6575 12.0943 26.7575 11.8426 27.8764 11.742Z" fill="#039482"/>
<path d="M28.2106 15.9259C30.0924 15.1769 32.1312 14.7415 34.1626 14.8979C34.8701 14.9575 35.5784 15.088 36.2366 15.3606C36.5708 15.5042 36.9004 15.7012 37.1047 16.0109C37.2687 16.2558 37.3209 16.5626 37.2863 16.8523C37.2266 17.3028 37.0168 17.7228 36.7423 18.0806C36.697 17.8234 36.5884 17.5662 36.39 17.3899C36.1495 17.1638 35.8143 17.0754 35.4937 17.0456C34.9566 17.0004 34.418 17.0885 33.8963 17.2107C33.2682 17.3566 32.66 17.5742 32.0569 17.8005C31.0232 18.2058 30.0154 18.6781 29.039 19.2064C27.5612 20.1536 26.1121 21.146 24.6987 22.1871C23.6773 22.9412 22.6777 23.7262 21.7162 24.5556C21.0654 25.1182 20.4346 25.7046 19.8392 26.3258C19.3999 26.7912 18.9685 27.2719 18.6258 27.8148C18.9128 26.8591 19.2441 25.9141 19.6696 25.0107C19.9407 24.4616 20.229 23.9046 20.6657 23.4668C19.9883 23.9557 19.3674 24.5162 18.7595 25.0874C18.5081 25.3427 18.2461 25.5874 18.0001 25.8481C16.8577 27.0314 15.8046 28.2989 14.816 29.6129C14.502 30.0273 14.1987 30.4496 13.9021 30.8767C14.1926 30.0526 14.4988 29.2327 14.8641 28.4384C15.6909 26.6379 16.8391 24.9995 18.1529 23.5219C18.6175 22.9944 19.1048 22.4869 19.6078 21.9956C20.2514 21.3593 20.9205 20.7495 21.6091 20.1621C22.4021 19.4863 23.2097 18.8257 24.0591 18.2215C25.3513 17.305 26.7389 16.5165 28.2106 15.9259Z" fill="#039482"/>
</svg>
