<svg width="40" height="40" viewBox="0 0 40 40" fill="none" xmlns="http://www.w3.org/2000/svg">
<path fill-rule="evenodd" clip-rule="evenodd" d="M17.4391 13.1523L8.6665 26.898H14.3058L16.186 23.9357L25.5032 23.9363L24.4573 22.2767H17.0629L18.035 20.7281C17.2106 20.3251 16.3787 19.9273 16.4918 19.5102C16.5575 19.2677 16.928 19.0037 16.928 19.0037C16.928 19.0037 17.8354 18.6476 18.41 18.4096C19.047 18.1461 20.0329 17.7146 20.0329 17.7146C20.0329 17.7399 19.3458 16.0544 18.8053 15.1326C18.3339 14.3291 17.4391 13.1523 17.4391 13.1523Z" fill="#2B906F"/>
<path d="M14.3578 26.9889H8.4989L17.4323 12.9912L17.5139 13.0983C17.5229 13.1102 18.4175 14.2887 18.8861 15.0876C19.3125 15.8148 19.8344 17.0251 20.0308 17.4808C20.0706 17.5731 20.0979 17.6367 20.1095 17.6618L20.1913 17.745L20.0752 17.7957C20.0724 17.7972 20.0694 17.7985 20.0662 17.7997C19.9845 17.8355 19.0585 18.2401 18.4464 18.4933C17.9118 18.7147 17.0796 19.0422 16.9739 19.0838C16.8719 19.1585 16.6273 19.3659 16.5818 19.5336C16.4901 19.8717 17.3095 20.2721 18.0322 20.6253L18.1674 20.6913L17.2291 22.186H24.5094L25.6698 24.0273L16.238 24.0267L14.3578 26.9889ZM8.8342 26.8073H14.254L16.1342 23.845L25.3367 23.8456L24.4053 22.3677H16.8968L17.9028 20.7651C17.0575 20.3519 16.2737 19.9595 16.4018 19.4871C16.4739 19.2212 16.8325 18.9595 16.8731 18.9306L16.8933 18.9196C16.9023 18.9161 17.8065 18.561 18.3736 18.3261C18.8991 18.1088 19.657 17.7793 19.91 17.6689C19.8972 17.6396 19.8807 17.6013 19.8591 17.5512C19.6639 17.0984 19.1453 15.8954 18.7245 15.1779C18.3439 14.529 17.6762 13.6231 17.4454 13.3144L8.8342 26.8073Z" fill="#12907C"/>
<path fill-rule="evenodd" clip-rule="evenodd" d="M17.374 7.84033L17.2228 7.86284L17.2482 8.04346C17.2482 8.04346 16.8708 7.88535 16.7451 7.95288C16.6193 8.02095 16.6193 8.04346 16.6193 8.04346C16.6193 8.04346 16.6822 8.30226 16.632 8.38163C16.5819 8.46046 16.1924 8.31356 16.1295 8.35912C16.0667 8.40414 16.0413 8.51669 16.0413 8.51669C16.0413 8.51669 16.343 8.57301 16.2674 8.66304C16.1924 8.75363 16.0667 8.75363 16.0667 8.75363L16.0286 8.91119L15.8151 8.76492L15.7522 8.92249L15.5763 8.83246L15.5387 8.9562C15.5387 8.9562 15.5007 8.82114 15.3876 8.82114C15.2745 8.82114 15.2498 8.86617 15.2498 8.86617C15.2498 8.86617 15.2745 9.02374 15.1741 8.99003C15.0732 8.9562 14.9226 8.73111 14.9226 8.73111C14.9226 8.73111 14.9353 8.68611 15.0108 8.7086C15.0859 8.73111 15.124 8.71991 15.124 8.71991C15.124 8.71991 14.9099 8.35912 14.7969 8.43795C14.6838 8.51669 14.6209 8.67426 14.6209 8.67426C14.6209 8.67426 14.659 8.78743 14.7212 8.91119C14.7842 9.03503 15.2244 9.43008 15.2244 9.43008L14.7212 9.10311L14.6336 9.15933L14.4824 8.96751L14.382 9.15933L13.9672 8.945L13.9043 9.0693C13.9043 9.0693 13.7411 9.05808 13.6782 8.91119C13.6154 8.76492 13.4394 8.68611 13.3263 8.67426C13.2132 8.66304 13.2259 8.57301 13.2132 8.49418C13.2005 8.41544 13.1249 8.40414 13.1249 8.40414C13.1249 8.40414 13.1249 8.71991 13.2259 8.79865C13.3263 8.87746 13.4267 8.96751 13.4267 8.96751L13.2634 9.01252L13.4267 9.23816C13.4267 9.23816 13.1376 9.13682 13.0748 9.05808C13.0119 8.97871 12.9242 8.89998 12.9242 8.89998L13.5022 9.44129L14.2188 9.94832L14.6711 10.3203L15.2498 10.7936L15.7147 11.2562L16.1295 11.6956L16.6701 12.2933L17.3237 13.0936L17.7634 13.7137L18.0905 14.2657L18.4672 14.9534L18.807 15.6074L19.3851 16.7008L19.7116 17.3435C19.7116 17.3435 19.8126 17.3997 19.7497 17.4897C19.6868 17.5798 19.6239 17.6473 19.6239 17.6473L18.6311 18.0874L17.4489 18.5945L16.9089 18.8876L16.5819 18.8651L16.6701 18.9889L16.1168 19.0452L16.2553 19.1246C16.2553 19.1246 16.0165 19.0564 15.9028 19.1471C15.7897 19.2371 15.8405 19.2821 15.8405 19.2821L16.2553 19.3384L15.6519 19.4059C15.6519 19.4059 15.6893 19.5641 15.7776 19.5303C15.8653 19.4965 15.8907 19.5191 15.8907 19.5191L15.9155 19.5866L15.9911 19.5416H16.1417L16.1041 19.7104C16.1041 19.7104 16.2426 19.6653 16.3182 19.6992C16.3932 19.7329 16.2045 19.7779 16.2045 19.7779L16.4313 19.8573L16.5062 19.9585L16.9967 19.9473L16.984 20.0035H17.3359C17.3359 20.0035 17.311 20.1049 17.2609 20.2293C17.2101 20.353 17.2609 20.4318 17.2609 20.4318C17.2609 20.4318 17.6877 20.3755 17.6376 20.2855C17.5874 20.1954 17.4115 20.3305 17.4115 20.263C17.4115 20.1954 17.4616 20.0936 17.4616 20.0936L18.2163 19.9473L17.7258 20.1954C17.7258 20.1954 17.7131 20.2855 17.8389 20.3305C17.9648 20.3755 18.1026 20.308 18.1026 20.308C18.1026 20.308 17.9018 20.2855 17.9648 20.2293C18.0276 20.1729 18.1026 20.1387 18.1026 20.1387C18.1026 20.1387 18.2664 20.1161 18.2785 20.2293C18.2912 20.3418 18.3166 20.4093 18.4424 20.4205C18.5682 20.4318 18.6685 20.2405 18.6685 20.2405C18.6685 20.2405 18.7314 20.0373 18.6558 20.0373C18.5803 20.0373 18.9074 19.9248 18.8693 20.1729C18.8318 20.4205 18.8318 20.3418 18.8318 20.3418L19.0706 20.308L19.0579 20.5224L19.2968 20.3755C19.2968 20.3755 19.448 20.263 19.5738 20.398C19.6989 20.5337 19.6239 20.5224 19.6239 20.5224C19.6239 20.5224 19.5484 20.7138 19.4601 20.725C19.3724 20.7363 19.272 20.6237 19.272 20.6237C19.272 20.6237 19.0078 20.5899 18.9576 20.6688C18.9074 20.7475 19.0078 20.8488 19.0078 20.8488C19.0078 20.8488 19.0078 20.7138 19.1082 20.7588C19.2091 20.8038 19.2091 20.9394 19.2091 20.9394C19.2091 20.9394 19.2968 21.0633 19.4226 21.0633C19.5484 21.0633 19.8627 20.9282 19.8627 20.9282C19.8627 20.9282 19.8247 21.187 19.5611 21.1983C19.2968 21.2095 19.3348 21.1758 19.3597 21.2889C19.3851 21.4014 19.6488 21.4127 19.6488 21.4127C19.6488 21.4127 19.5611 21.3001 19.6989 21.3001C19.8374 21.3001 20.3151 21.2664 20.3653 21.1083C20.4154 20.9506 20.4154 20.9282 20.3151 20.9056C20.2147 20.8831 20.0889 20.8713 20.0889 20.8713L20.3405 20.77L20.6422 20.68L21.2075 20.6237L22.0874 20.0936L23.0052 20.8713L23.8597 21.6834L24.4504 22.3372C24.4504 22.3372 24.4885 22.1454 24.4885 22.1116C24.4885 22.0779 24.6015 22.0891 24.702 22.1904C24.8024 22.2917 24.9408 22.4498 24.9408 22.4498C24.9408 22.4498 25.0412 22.4048 25.0037 22.3147C24.9662 22.2242 25.0666 22.2242 25.0666 22.2242L25.0793 22.0666L24.7775 21.8522C24.7775 21.8522 24.702 21.7284 24.8405 21.7396C24.9784 21.7509 25.1923 21.7846 25.1923 21.7846L25.8835 22.4386L26.4241 23.1713L26.7887 23.6896L27.0149 23.8589L27.1406 24.0616L27.6558 24.8285L27.7059 25.0536L27.5179 24.8055L27.3038 24.411C27.3038 24.411 27.1908 24.1297 27.1152 24.1859C27.0402 24.2422 27.2162 24.5804 27.2162 24.5804C27.2162 24.5804 27.3541 24.7605 27.3795 24.8736C27.4049 24.9862 27.3795 25.0986 27.3795 25.0986L27.4925 25.178C27.4925 25.178 27.6183 25.4931 27.5681 25.5387C27.5179 25.5837 27.3668 25.3919 27.3668 25.3919C27.3668 25.3919 27.2664 25.5045 27.3165 25.6063C27.3668 25.7076 27.5052 25.8202 27.4798 25.8996C27.455 25.9782 27.4049 26.0458 27.4677 26.1021C27.5301 26.1583 27.6437 26.2259 27.6056 26.2827C27.5681 26.3391 27.5807 26.474 27.6558 26.4628C27.7313 26.4515 27.7059 26.3165 27.807 26.3839C27.9073 26.4515 27.9576 26.4854 27.9449 26.5642C27.9327 26.6434 28.0833 26.7222 27.9829 26.7672C27.8819 26.8122 27.7816 26.8685 27.8317 27.0493C27.8819 27.2293 27.7943 27.2856 27.92 27.308C28.0458 27.3311 27.9327 27.1617 28.0331 27.2179C28.1335 27.2744 28.0204 27.3987 28.1588 27.3987C28.2973 27.3987 28.3221 27.4324 28.3475 27.3199C28.3723 27.2067 28.3094 27.0943 28.4104 27.1167C28.5107 27.1393 28.4854 27.3199 28.561 27.2518C28.6366 27.1843 28.6493 27.0042 28.5985 26.9473C28.5483 26.8911 28.4733 26.8122 28.4352 26.6884C28.3977 26.5642 28.2973 26.3953 28.4225 26.4065C28.5483 26.4177 28.6366 26.5078 28.6613 26.6097C28.6867 26.711 28.6613 26.8234 28.7623 26.8799C28.8627 26.9361 28.8754 26.8911 28.9002 27.0717C28.9255 27.2518 28.9129 27.263 29.0387 27.3649C29.1645 27.4662 29.1645 27.5338 29.315 27.6124C29.4661 27.6918 29.4408 27.6575 29.4661 27.6012C29.491 27.545 29.4033 27.1955 29.4788 27.2293C29.5539 27.263 29.604 27.3311 29.6294 27.4324C29.6548 27.5338 29.6548 27.703 29.7679 27.7368C29.8809 27.7706 29.9312 27.8495 30.0067 27.7931C30.0818 27.7368 30.0442 27.7368 30.1573 27.6463C30.2703 27.5562 30.3714 27.3873 30.3714 27.3873C30.3714 27.3873 30.346 27.455 30.522 27.4662C30.6979 27.4774 30.6223 27.3423 30.7106 27.2744C30.7983 27.2067 30.7862 27.2067 30.8738 27.1505C30.9621 27.0943 30.9996 27.0605 30.9495 26.9473C30.8992 26.8348 30.6477 26.7898 30.6979 26.7334C30.7481 26.6772 30.8109 26.666 30.8109 26.5416C30.8109 26.4177 30.7862 26.4291 30.7233 26.2827C30.6604 26.1359 30.6604 26.1247 30.7106 25.967C30.7608 25.8088 30.6604 25.6287 30.6096 25.5951C30.5594 25.5613 30.3835 25.6287 30.3835 25.5501C30.3835 25.4707 30.459 25.3243 30.3587 25.2906C30.2576 25.2568 29.9941 25.2681 29.9941 25.2681C29.9941 25.2681 29.9185 25.4931 29.8429 25.4819C29.7679 25.4707 29.6669 25.2793 29.6669 25.2342C29.6669 25.1892 29.4281 24.8848 29.5037 24.8399C29.5793 24.7943 29.6923 24.8962 29.7298 24.975C29.7679 25.0536 29.8429 25.0762 29.8429 24.9974C29.8429 24.9186 29.7552 24.7493 29.7425 24.6704C29.7298 24.5917 29.5539 24.366 29.5539 24.366L29.416 23.994C29.416 23.994 29.2273 23.7802 29.3029 23.7121C29.3779 23.6446 29.4535 23.4982 29.4535 23.4982C29.4535 23.4982 29.5037 23.4194 29.5539 23.4645C29.604 23.5095 29.6669 23.5546 29.6421 23.4645C29.6167 23.3738 29.592 23.2051 29.4408 23.2276C29.2902 23.2501 29.1772 23.2838 29.1518 23.2276C29.1269 23.1713 29.1142 23.0362 29.2146 23.1037C29.315 23.1713 29.4535 23.2388 29.416 23.115C29.3779 22.9906 29.1772 22.9006 29.0762 22.7881C28.9758 22.6755 28.8125 22.4611 28.9255 22.4836C29.0387 22.5061 29.1269 22.6867 29.1772 22.5848C29.2273 22.4836 29.1269 22.2692 29.0514 22.2129C28.9758 22.1566 28.8373 22.0666 28.8373 22.0666L28.4479 21.4014L27.8571 20.5787L27.4049 19.9923L26.7633 19.2821L25.959 18.6057L25.4058 17.9292L24.991 17.546C24.991 17.546 24.7274 17.3547 24.7902 17.2871C24.8532 17.2191 24.7775 17.1966 24.7775 17.1966L24.8532 17.129L25.092 16.9146L25.28 16.6783C25.28 16.6783 25.3683 16.577 25.5315 16.5426C25.6948 16.5089 25.6199 16.4414 25.7705 16.4301C25.9216 16.4189 25.8477 16.3643 26.0347 16.3739C26.2608 16.3851 26.1726 16.4076 26.2856 16.4414C26.3992 16.4751 26.4743 16.5089 26.5625 16.5883C26.6502 16.667 26.776 16.757 26.8389 16.8134C26.9017 16.8696 26.9773 16.8809 26.9773 16.8809C26.9773 16.8809 26.9865 16.8167 26.9618 16.7155C26.9364 16.6136 26.8763 16.577 26.8262 16.5089C26.776 16.4414 26.7131 16.4076 26.6883 16.3625C26.6629 16.3175 26.6623 16.2844 26.6623 16.2844C26.6623 16.2844 26.6128 16.1931 26.7385 16.1369C26.8643 16.0806 26.8654 16.0356 26.8654 16.0356C26.8654 16.0356 26.8262 15.9343 26.7004 15.7987C26.5752 15.6637 26.3866 15.4718 26.311 15.4492C26.2354 15.4267 26.0093 15.3029 25.9089 15.2804C25.8079 15.2579 25.5442 15.1904 25.456 15.1791C25.3683 15.1678 25.0793 15.1453 25.0037 15.1566C24.9281 15.1678 25.0164 15.111 24.9033 15.0548C24.7902 14.9984 24.7775 14.9534 24.6142 14.9534C24.4504 14.9534 24.3876 14.9647 24.1614 15.0209C23.9352 15.0773 23.8597 15.0548 23.7847 15.1223C23.7091 15.1904 23.5706 15.3029 23.5077 15.2354C23.4449 15.1678 23.3819 15.111 23.4073 14.9647C23.4327 14.8184 23.307 14.6828 23.2314 14.5027C23.1558 14.3221 23.131 14.1532 23.0052 13.9613C22.8795 13.77 22.8039 13.725 22.7664 13.6231C22.7283 13.5218 22.7912 13.3412 22.7283 13.2174C22.6655 13.0936 22.565 12.9355 22.4895 12.8004C22.4145 12.6653 22.3135 12.4509 22.2258 12.3384C22.1375 12.2252 21.9241 11.8983 21.7481 11.6506C21.5722 11.4025 21.2958 10.9405 21.1447 10.8049C20.9941 10.6698 20.7299 10.2978 20.5666 10.129C20.4034 9.95964 20.3024 9.79077 20.1264 9.63265C19.9505 9.4751 19.4226 9.02374 19.4226 9.02374L18.7188 8.50549L18.1153 8.08847C18.1153 8.08847 17.7385 8.00964 17.6376 7.98714C17.5373 7.96463 17.374 7.84033 17.374 7.84033Z" fill="#643F9F"/>
<path fill-rule="evenodd" clip-rule="evenodd" d="M25.2356 15.7411C25.2356 15.7411 24.841 15.5058 24.4827 15.472C24.4013 15.4642 24.3137 15.4754 24.3137 15.4754C24.1602 15.4788 24.0939 15.5891 24.1026 15.727C24.1089 15.8204 24.1153 15.8688 24.2162 15.8828C24.3523 15.902 24.4319 15.8479 24.5986 15.7866C24.8439 15.6961 25.2356 15.7411 25.2356 15.7411Z" fill="white"/>
<path fill-rule="evenodd" clip-rule="evenodd" d="M17.925 20.8187C17.925 20.8187 17.8874 20.6499 17.7617 20.6949C17.6359 20.7399 17.5355 20.7512 17.5355 20.7512L17.4848 20.6612C17.4848 20.6612 17.4098 20.6387 17.4098 20.7174C17.4098 20.7962 17.4472 20.9088 17.4472 20.9088C17.4472 20.9088 17.5477 21.0557 17.6232 20.9994C17.6988 20.9425 17.7992 20.9538 17.7992 20.9538L17.8874 20.9088L17.925 20.965V20.8187Z" fill="#643F9F"/>
<path fill-rule="evenodd" clip-rule="evenodd" d="M25.4796 22.9156C25.4796 22.9156 25.4415 22.9156 25.4168 22.8256C25.3914 22.735 25.3411 22.6675 25.3411 22.6675C25.3411 22.6675 25.1399 22.8368 25.2154 22.9493C25.291 23.062 25.4288 23.1526 25.4288 23.1526L25.4917 23.2876C25.4917 23.2876 25.5171 23.4564 25.6302 23.4564C25.7433 23.4564 25.8062 23.3776 25.8062 23.3776C25.8062 23.3776 25.8443 23.3776 25.9065 23.2538C25.9694 23.1295 25.9694 23.017 25.9694 23.017C25.9694 23.017 25.7306 23.2201 25.6931 23.1638C25.6556 23.107 25.6175 23.0057 25.6175 23.0057L25.5425 23.062L25.4796 22.9156Z" fill="#643F9F"/>
<path fill-rule="evenodd" clip-rule="evenodd" d="M25.8818 24.1558C25.8818 24.1558 25.8443 24.0883 25.8317 23.9532C25.819 23.8176 25.7433 23.7501 25.7433 23.7501L25.5927 23.7163C25.5927 23.7163 25.4289 23.7613 25.5426 23.852C25.6557 23.942 25.7059 23.9194 25.7059 23.9194L25.8818 24.1558Z" fill="#643F9F"/>
<path fill-rule="evenodd" clip-rule="evenodd" d="M25.7686 23.491C25.7686 23.491 25.7813 23.7724 25.9319 23.8061C26.0825 23.8399 26.0952 23.8061 26.0952 23.8061C26.0952 23.8061 26.221 23.8518 26.2083 23.9192C26.1961 23.9868 26.2838 23.8518 26.2838 23.8518C26.2838 23.8518 26.1961 23.6711 26.1205 23.6599C26.045 23.6486 26.0323 23.5248 26.0323 23.5248C26.0323 23.5248 25.982 23.4454 25.9192 23.4567C25.8563 23.4679 25.7686 23.491 25.7686 23.491Z" fill="#643F9F"/>
<path fill-rule="evenodd" clip-rule="evenodd" d="M26.4726 24.0767C26.4726 24.0767 26.4599 24.1329 26.3722 24.1667C26.2839 24.201 26.1581 24.2573 26.1581 24.2573C26.1581 24.2573 26.2966 24.2123 26.3722 24.3135C26.4472 24.4148 26.4472 24.4824 26.4472 24.4824C26.4472 24.4824 26.4472 24.5499 26.5481 24.4148C26.6486 24.2798 26.5603 24.2235 26.5603 24.2235L26.5857 24.0992L26.4726 24.0767Z" fill="#643F9F"/>
<path fill-rule="evenodd" clip-rule="evenodd" d="M26.8245 24.4482C26.8245 24.4482 26.9248 24.5496 26.787 24.5951C26.6486 24.6402 26.5603 24.6064 26.5603 24.6064C26.5603 24.6064 26.5354 24.6627 26.5983 24.809C26.6612 24.9559 26.7241 24.8653 26.7241 24.8653C26.7241 24.8653 26.6232 25.1584 26.7114 25.226C26.7991 25.294 26.9502 25.294 27.0132 25.1922C27.076 25.091 27.038 24.9897 27.038 24.9897C27.038 24.9897 26.9502 25.046 26.9001 24.9897C26.8499 24.9333 26.8245 24.764 26.8245 24.764C26.8245 24.764 26.8372 24.6402 26.9375 24.6627C27.038 24.6852 26.8245 24.4482 26.8245 24.4482Z" fill="#643F9F"/>
<path fill-rule="evenodd" clip-rule="evenodd" d="M27.0258 25.2822C27.0258 25.2822 27.0004 25.4404 26.9127 25.4404C26.8244 25.4404 26.799 25.4854 26.799 25.4854C26.799 25.4854 26.8746 25.5416 26.8619 25.6204C26.8498 25.6998 26.8873 25.7673 26.8873 25.7673C26.8873 25.7673 27.0131 25.8123 27.0505 25.9473C27.0881 26.0829 27.151 26.1505 27.151 26.1505C27.151 26.1505 27.1008 26.218 27.0881 26.3306C27.0759 26.4438 27.1388 26.4438 27.1388 26.4438C27.1388 26.4438 27.1764 26.263 27.2392 26.3418C27.3021 26.4212 27.2894 26.5338 27.2894 26.5338C27.2894 26.5338 27.2265 26.5338 27.2392 26.6351C27.2519 26.7369 27.2392 27.0408 27.4025 27.0864C27.5658 27.1314 27.6916 26.7819 27.6916 26.7819C27.6916 26.7819 27.654 26.8607 27.5537 26.7931C27.4526 26.7257 27.4279 26.5901 27.4279 26.5901C27.4279 26.5901 27.4653 26.3418 27.4152 26.2744C27.365 26.2068 27.2519 26.1956 27.2646 26.1393C27.2767 26.0829 27.2767 25.9923 27.2767 25.9923C27.2767 25.9923 27.1134 25.9473 27.1764 25.9023C27.2392 25.8573 27.2646 25.7448 27.2646 25.7448C27.2646 25.7448 27.2265 25.7448 27.1891 25.6092C27.151 25.4742 27.1764 25.2598 27.1764 25.2598L27.0258 25.2822Z" fill="#643F9F"/>
<path d="M20.2242 35.0024C28.5955 35.0024 35.3817 28.2933 35.3817 20.0173C35.3817 11.7413 28.5955 5.03223 20.2242 5.03223C11.8529 5.03223 5.06665 11.7413 5.06665 20.0173C5.06665 28.2933 11.8529 35.0024 20.2242 35.0024Z" fill="url(#paint0_radial_21_1085)"/>
<path d="M31.7887 17.4537C31.7887 24.17 27.146 20.9919 20.2768 20.9919C13.4076 20.9919 8.73645 23.4132 8.73645 16.6969C8.73645 9.98063 13.4076 6.19678 20.2768 6.19678C27.146 6.19678 31.7887 10.7374 31.7887 17.4537Z" fill="url(#paint1_linear_21_1085)"/>
<defs>
<radialGradient id="paint0_radial_21_1085" cx="0" cy="0" r="1" gradientUnits="userSpaceOnUse" gradientTransform="translate(20.2242 20.0173) scale(15.2603 14.8855)">
<stop stop-color="white" stop-opacity="0"/>
<stop offset="0.343316" stop-color="#F0EFF6" stop-opacity="0.240321"/>
<stop offset="1" stop-color="#D8D5E6" stop-opacity="0.7"/>
</radialGradient>
<linearGradient id="paint1_linear_21_1085" x1="20.2626" y1="6.19678" x2="20.2626" y2="21.7432" gradientUnits="userSpaceOnUse">
<stop stop-color="white"/>
<stop offset="0.343316" stop-color="#F0EFF6" stop-opacity="0.656684"/>
<stop offset="1" stop-color="#D8D5E6" stop-opacity="0"/>
</linearGradient>
</defs>
</svg>
