<svg width="40" height="40" viewBox="0 0 40 40" fill="none" xmlns="http://www.w3.org/2000/svg">
<g clip-path="url(#clip0_21_845)">
<path fill-rule="evenodd" clip-rule="evenodd" d="M28.8148 15.7392C28.8148 16.3479 28.3268 16.8957 27.6557 16.8957C27.0457 16.8957 26.4967 16.4088 26.4967 15.7392C26.4967 15.0696 26.9847 14.5827 27.6557 14.5827C28.3268 14.5827 28.8148 15.0696 28.8148 15.7392ZM25.3987 12.2696C25.3987 12.8783 24.9106 13.4262 24.2396 13.4262C23.6296 13.4262 23.0806 12.9392 23.0806 12.2696C23.0806 11.661 23.5686 11.1131 24.2396 11.1131C24.9106 11.1131 25.3987 11.661 25.3987 12.2696ZM28.8148 12.2696C28.8148 12.8783 28.3268 13.4262 27.6557 13.4262C27.0457 13.4262 26.4967 12.9392 26.4967 12.2696C26.4967 11.661 26.9847 11.1131 27.6557 11.1131C28.3268 11.1131 28.8148 11.661 28.8148 12.2696ZM21.9825 12.2696C21.9825 12.8783 21.4945 13.4262 20.8235 13.4262C20.2135 13.4262 19.6645 12.9392 19.6645 12.2696C19.6645 11.661 20.1525 11.1131 20.8235 11.1131C21.4945 11.1131 21.9825 11.661 21.9825 12.2696ZM30.7668 8.61747C31.1939 9.04356 31.1939 9.77399 30.7668 10.261C30.3398 10.687 29.6078 10.687 29.1808 10.261C28.7538 9.83486 28.7538 9.10443 29.1808 8.61747C29.6078 8.19139 30.3398 8.19139 30.7668 8.61747ZM33.6339 6.30443C34.061 6.73052 34.061 7.46095 33.6339 7.94791C33.2069 8.37399 32.4749 8.37399 32.0479 7.94791C31.6209 7.52182 31.6209 6.79139 32.0479 6.30443C32.4749 5.87834 33.2069 5.87834 33.6339 6.30443ZM18.0174 12.2696C18.0174 12.8783 17.5294 13.4262 16.8584 13.4262C16.2483 13.4262 15.6993 12.9392 15.6993 12.2696C15.6993 11.661 16.1873 11.1131 16.8584 11.1131C17.4684 11.1131 18.0174 11.661 18.0174 12.2696ZM14.5403 12.2696C14.5403 12.8783 14.0523 13.4262 13.3812 13.4262C12.7712 13.4262 12.2222 12.9392 12.2222 12.2696C12.2222 11.661 12.7102 11.1131 13.3812 11.1131C14.0523 11.1131 14.5403 11.661 14.5403 12.2696ZM27.7167 17.9914C28.3268 17.9914 28.8758 18.4783 28.8758 19.1479C28.8758 19.7566 28.3878 20.3044 27.7167 20.3044C27.1067 20.3044 26.5577 19.8175 26.5577 19.1479C26.5577 18.5392 27.0457 17.9914 27.7167 17.9914ZM15.1503 29.4349C15.1503 30.0436 14.6623 30.5914 13.9913 30.5914C13.3812 30.5914 12.8322 30.1044 12.8322 29.4349C12.8322 28.7653 13.3202 28.2783 13.9913 28.2783C14.6013 28.2783 15.1503 28.8262 15.1503 29.4349ZM11.7342 26.0262C11.7342 26.6349 11.2462 27.1827 10.5751 27.1827C9.96511 27.1827 9.41609 26.6957 9.41609 26.0262C9.41609 25.4175 9.90411 24.8696 10.5751 24.8696C11.1852 24.8696 11.7342 25.3566 11.7342 26.0262ZM15.1503 26.0262C15.1503 26.6349 14.6623 27.1827 13.9913 27.1827C13.3812 27.1827 12.8322 26.6957 12.8322 26.0262C12.8322 25.4175 13.3202 24.8696 13.9913 24.8696C14.6013 24.8696 15.1503 25.3566 15.1503 26.0262ZM8.25705 26.0262C8.25705 26.6349 7.76903 27.1827 7.09801 27.1827C6.48798 27.1827 5.93896 26.6957 5.93896 26.0262C5.93896 25.4175 6.42698 24.8696 7.09801 24.8696C7.76903 24.8696 8.25705 25.3566 8.25705 26.0262ZM13.9913 31.687C14.6013 31.687 15.1503 32.174 15.1503 32.8436C15.1503 33.4523 14.6623 34.0001 13.9913 34.0001C13.3812 34.0001 12.8322 33.5131 12.8322 32.8436C12.8322 32.2349 13.3812 31.687 13.9913 31.687ZM27.7167 21.4001C28.3268 21.4001 28.8758 21.887 28.8758 22.5566C28.8758 23.2262 28.3878 23.7131 27.7167 23.7131C27.1067 23.7131 26.5577 23.2262 26.5577 22.5566C26.5577 21.887 27.0457 21.4001 27.7167 21.4001ZM27.7167 25.4175C28.3268 25.4175 28.8758 25.9044 28.8758 26.574C28.8758 27.2436 28.3878 27.7305 27.7167 27.7305C27.1067 27.7305 26.5577 27.2436 26.5577 26.574C26.5577 25.9044 27.0457 25.4175 27.7167 25.4175ZM20.2745 20.8523C20.2745 21.461 19.7865 22.0088 19.1154 22.0088C18.5054 22.0088 17.9564 21.5218 17.9564 20.8523C17.9564 20.2436 18.4444 19.6957 19.1154 19.6957C19.7865 19.6957 20.2745 20.2436 20.2745 20.8523ZM22.2265 17.2001C22.6536 17.6262 22.6536 18.3566 22.2265 18.8436C21.7995 19.2696 21.0675 19.2696 20.6405 18.8436C20.2135 18.4175 20.2135 17.687 20.6405 17.2001C21.0675 16.774 21.7995 16.774 22.2265 17.2001ZM25.0936 14.887C25.5207 15.3131 25.5207 16.0436 25.0936 16.5305C24.6666 16.9566 23.9346 16.9566 23.5076 16.5305C23.0806 16.1044 23.0806 15.374 23.5076 14.887C23.9346 14.461 24.6056 14.461 25.0936 14.887ZM17.6514 22.3131C18.0784 22.7392 18.0784 23.4696 17.6514 23.9566C17.2244 24.3827 16.4923 24.3827 16.0653 23.9566C15.6383 23.5305 15.6383 22.8001 16.0653 22.3131C16.4923 21.887 17.2244 21.887 17.6514 22.3131Z" fill="#001B94"/>
</g>
<defs>
<clipPath id="clip0_21_845">
<rect width="28" height="28" fill="white" transform="translate(6 6)"/>
</clipPath>
</defs>
</svg>
