<svg width="40" height="40" viewBox="0 0 40 40" fill="none" xmlns="http://www.w3.org/2000/svg">
<path d="M13.1776 26.9636C20.1236 22.9448 24.6386 17.0406 25.8293 12.9226C26.2759 11.4342 26.2262 10.1938 25.7301 9.30074C25.234 8.40768 24.4897 7.86191 22.8028 7.71307L24.9363 11.4342C24.2913 14.9568 19.7267 20.4144 11.9372 24.9294L4.14771 29.3947L11.9868 15.8499L4.19732 11.3846H19.7763V2.4043L22.4059 6.91924C24.4401 6.96885 25.7301 7.51461 26.5735 8.70536C27.3178 9.79689 27.6651 11.5334 26.772 14.4607L27.5658 15.8499L35.2561 11.3846L27.5162 24.7805L35.4546 29.3451H19.7763V38.2757L13.1776 26.9636Z" fill="#F4982D"/>
</svg>
