<svg width="40" height="40" viewBox="0 0 40 40" fill="none" xmlns="http://www.w3.org/2000/svg">
<g clip-path="url(#clip0_51_1588)">
<path d="M38.6365 27.9991H39L38.8289 27.9295L38.5296 27.8252L38.2729 27.7556L37.9522 27.6513C36.4339 27.1991 35.215 26.7121 35.215 26.7121C32.6061 25.46 30.9595 22.9208 30.4249 21.9121C29.8903 20.9382 28.7783 19.0252 28.7783 19.0252C26.426 14.6078 23.924 14.9208 23.924 14.9208H23.0687C22.919 14.9208 22.8334 14.9208 22.8334 14.9208H21.5504H14.3866H14.3011H14.0659L14.2583 14.9904L14.5363 15.0948L14.7715 15.1295L15.1137 15.2339C16.6106 15.6513 17.8509 16.173 17.8509 16.173C20.4598 17.4252 22.1064 19.9991 22.641 20.973C23.1756 21.9469 24.2876 23.86 24.2876 23.86C26.6399 28.2774 29.1418 27.9643 29.1418 27.9643H29.9972C30.1469 27.9643 30.2324 27.9643 30.2324 27.9643H31.5155H38.5509L38.6365 27.9991Z" fill="#00AE42"/>
<path d="M30.9595 25.5308H31.323L31.152 25.4613L30.8312 25.3569L30.5746 25.2874L30.2324 25.183C28.6714 24.7308 27.4097 24.2091 27.4097 24.2091C24.7367 22.9222 23.0259 20.2787 22.4699 19.2352C21.9139 18.1917 20.7806 16.2439 20.7806 16.2439C18.3427 11.7222 15.7766 12.0004 15.7766 12.0004H14.8999C14.7502 12.0004 14.6432 12.0004 14.6432 12.0004H13.3174H5.93981H5.85427H5.59766L5.79012 12.07L6.0895 12.1743L6.34611 12.2439L6.66687 12.3482C8.22793 12.8004 9.48961 13.3222 9.48961 13.3222C12.184 14.6091 13.8734 17.2526 14.4294 18.2613C14.9854 19.27 16.1188 21.2526 16.1188 21.2526C18.5566 25.8091 21.1227 25.4961 21.1227 25.4961H21.9995C22.1491 25.4961 22.2561 25.4961 22.2561 25.4961H23.5819H30.8526L30.9595 25.5308Z" fill="#FFDA00"/>
<path d="M25.5706 28.0013H25.9342L25.7631 27.9317L25.4637 27.8274L25.2071 27.7578L24.8863 27.6535C23.368 27.2013 22.1491 26.7143 22.1491 26.7143C19.5402 25.4622 17.8936 22.8882 17.359 21.9143C16.8244 20.9404 15.7124 19.0274 15.7124 19.0274C13.3602 14.61 10.8582 14.8882 10.8582 14.8882H10.0028C9.85312 14.8882 9.76759 14.8882 9.76759 14.8882H8.48452H1.32077H1.23523H1L1.19246 14.9578L1.47046 15.0622L1.72707 15.1317L2.04783 15.2361C3.56612 15.6535 4.78503 16.1752 4.78503 16.1752C7.39392 17.4274 9.04052 20.0013 9.57513 20.9752C10.1097 21.9491 11.2217 23.8622 11.2217 23.8622C13.574 28.2796 16.076 28.0013 16.076 28.0013H16.9313C17.081 28.0013 17.1666 28.0013 17.1666 28.0013H18.4496H25.4851H25.5706Z" fill="#00AE42"/>
</g>
<defs>
<clipPath id="clip0_51_1588">
<rect width="38" height="16" fill="white" transform="translate(1 12)"/>
</clipPath>
</defs>
</svg>
