<svg width="40" height="40" viewBox="0 0 40 40" fill="none" xmlns="http://www.w3.org/2000/svg">
<g clip-path="url(#clip0_51_1628)">
<path d="M25.1319 9L12.2638 23.9286C10.7319 25.7357 8.51061 26.7571 6.21274 26.7571H-67.3958L-69.1575 28.6429H14.4085C16.3234 28.6429 18.1617 27.7 19.234 26.1286L31.3361 9H25.1319ZM19.1574 18.4286L19.6936 17.7214L19.0808 17.4071L20 17.25L20.5361 16.5429V17.1714L21.5319 17.0143L20.6127 17.5643V18.1929L20.0766 17.8786L19.1574 18.4286ZM21.0723 21.2571L20.4595 20.9429L19.5404 21.4929L20.0766 20.7071L19.5404 20.3929L20.4595 20.2357L20.9957 19.45V20.1571L21.9915 20L21.0723 20.55V21.2571ZM22.6808 13.1643L23.5234 13.0071L24.0595 12.2214L24.1361 12.9286L25.1319 12.6929L24.2127 13.2429L24.2893 13.95L23.6 13.6357L22.7574 14.1857L23.217 13.4786L22.6808 13.1643ZM24.4425 16.7786L23.8298 16.4643L22.9872 17.0143L23.5234 16.3071L22.9106 15.9929L23.8298 15.8357L24.3659 15.05V15.6786L25.2851 15.5214L24.4425 16.0714V16.7786ZM26.817 12.3786L25.8978 12.9286L26.5106 12.1429L25.8978 11.75L26.8936 11.5929L27.4298 10.8857V11.5143L28.3489 11.3571L27.4298 11.9071V12.6143L26.817 12.3786Z" fill="#003366"/>
<path d="M36.3149 13.5574L37.8468 10.4932H32.0255L29.8043 13.5574H36.3149Z" fill="#E50000"/>
<path d="M30.8766 25.1078L32.2553 22.1221H23.6L21.4553 25.1078H30.8766Z" fill="#E50000"/>
<path d="M33.634 19.3715L35.0128 16.3857H27.8128L25.5915 19.3715H33.634Z" fill="#E50000"/>
<path d="M20.6894 26.207L20.2298 26.8356C18.8511 28.7999 16.6298 29.8999 14.3319 29.8999H-70.3064L-71.5319 31.157H22.451C25.7447 31.157 28.8085 29.2713 30.3404 26.207H20.6894Z" fill="#E50000"/>
</g>
<defs>
<clipPath id="clip0_51_1628">
<rect width="36" height="22" fill="white" transform="translate(2 9)"/>
</clipPath>
</defs>
</svg>
