<svg width="40" height="40" viewBox="0 0 40 40" fill="none" xmlns="http://www.w3.org/2000/svg">
<path d="M37.939 8H38C36.4638 9.85324 34.7878 11.4468 33.0593 12.8923C30.195 15.2554 27.1088 17.1316 23.8612 18.0147C19.6424 19.1528 15.4222 20.2804 11.2034 21.4166C10.2755 21.6505 9.47167 22.5051 8.89683 23.5639C7.944 25.3322 6.98855 27.0976 6.03245 28.862C5.05075 30.7115 3.58739 32.009 2 32.3871C3.55261 29.2506 5.11178 26.1218 6.66635 22.9872C8.10018 20.0055 10.3182 17.8658 12.7482 17.0284C19.8871 14.4725 27.0281 11.927 34.1677 9.37489C35.425 8.91946 36.6889 8.49744 37.939 8Z" fill="#004595"/>
<path d="M11.8485 22.8765C16.0043 21.8854 20.1601 20.8924 24.3152 19.9004C22.5336 22.0171 20.5335 23.7663 18.3739 24.934C17.1986 25.5651 15.9695 25.9871 14.722 26.1657C12.5427 26.5018 10.3634 26.8398 8.18414 27.1768C8.70058 26.2526 9.20981 25.3197 9.72953 24.3993C10.2591 23.5009 11.0518 23.012 11.8485 22.8765Z" fill="#FFED00"/>
<path d="M7.24315 28.9C9.91789 28.542 12.5926 28.1897 15.2687 27.8564C13.5435 30.0429 11.3918 31.6278 9.09434 31.9429C7.62901 32.069 6.1604 32.1224 4.69244 32.173C5.69777 31.371 6.51476 30.1699 7.24315 28.9Z" fill="#E53138"/>
</svg>
