<svg width="40" height="40" viewBox="0 0 40 40" fill="none" xmlns="http://www.w3.org/2000/svg">
<path d="M26.9375 19.9986H32.5C29.5625 18.4988 27.1875 16.124 25.6875 13.1868C23.25 8.37469 18.5625 5.56245 12.5 5L12.625 5.43746C16.8125 7.12481 19.75 9.81206 21.4375 13.6242C22.625 16.1865 24.5625 18.4363 26.9375 19.9986Z" fill="#88A8D8"/>
<path d="M26.9375 20H32.5C29.5625 21.4999 27.1875 23.8746 25.6875 26.8119C23.25 31.6864 18.5625 34.4362 12.5 34.9986L12.625 34.5612C16.8125 32.8738 19.75 30.1866 21.4375 26.3744C22.625 23.8122 24.5625 21.5624 26.9375 20Z" fill="#1C4093"/>
<path d="M12.5 9.875C13.5 13.6247 14.875 16.6869 16.0625 18.1867C16.6875 18.9992 17.5 19.6241 18.375 19.9991H22.75C20.6875 19.0617 19.0625 17.4368 18.125 15.3745C17 12.8747 15 10.9374 12.5 9.875Z" fill="#88A8D8"/>
<path d="M12.5 30.1241C13.5 26.3744 14.875 23.3122 16.0625 21.8123C16.6875 20.9999 17.5 20.375 18.375 20H22.75C20.6875 20.9374 19.0625 22.5623 18.125 24.6246C17 27.1244 15 29.1242 12.5 30.1241Z" fill="#1C4093"/>
</svg>
