<svg width="40" height="40" viewBox="0 0 40 40" fill="none" xmlns="http://www.w3.org/2000/svg">
<g clip-path="url(#clip0_51_1684)">
<path d="M3 10L15.0663 30.8311H37.7053L25.7176 10H3Z" fill="#EB1F37"/>
<path d="M19.4683 13.6152C17.5424 13.6152 15.9309 15.1874 15.9309 17.1526C15.9309 19.0785 17.5031 20.6899 19.4683 20.6899C19.9792 20.6899 20.4902 20.572 20.9225 20.3755C19.2324 20.0611 17.9747 18.4889 17.9747 16.6416C17.9747 16.3272 18.014 15.9735 18.0926 15.659L18.4857 15.5018C18.6822 14.755 19.1145 14.0869 19.6648 13.6152C19.6255 13.6152 19.5469 13.6152 19.4683 13.6152ZM20.9618 20.3362C20.1364 18.8033 20.5688 16.8775 22.023 15.6983C22.2982 15.5018 22.5733 15.3053 22.8484 15.1874L23.2414 15.4232C23.9489 15.1088 24.735 15.0302 25.4425 15.1874C25.4032 15.1088 25.3639 15.0695 25.3245 15.0302C24.1061 13.4973 21.9051 13.2615 20.3723 14.4799C18.8394 15.6983 18.6036 17.8994 19.822 19.4322C20.0971 19.7859 20.4902 20.1397 20.9618 20.3362ZM20.9618 20.3362C21.63 18.7247 23.438 17.8601 25.2459 18.2924C25.5604 18.371 25.8748 18.4889 26.1499 18.6068L26.2285 19.0392C26.8967 19.3929 27.447 19.9432 27.8007 20.6113C27.84 20.5327 27.84 20.4541 27.84 20.4148C28.2723 18.5282 27.0932 16.6416 25.2066 16.2093C23.3201 15.7769 21.4335 16.9561 21.0011 18.8426C20.8439 19.3536 20.8439 19.8646 20.9618 20.3362ZM20.9618 20.3362C22.6126 19.8646 24.4206 20.7292 25.2459 22.4193C25.4032 22.6944 25.4818 23.0089 25.5604 23.3233L25.2459 23.6377C25.3639 24.3845 25.2852 25.1706 24.9708 25.8387C25.0494 25.7994 25.0887 25.7994 25.1673 25.7601C26.936 24.9347 27.6435 22.8123 26.8181 21.0437C25.9927 19.275 23.8703 18.5675 22.1016 19.3929C21.6693 19.6287 21.2762 19.9432 20.9618 20.3362ZM20.9618 20.3362C22.3768 21.3581 22.8091 23.284 22.023 24.9741C21.8658 25.2492 21.7086 25.5636 21.5121 25.7994L21.0797 25.7601C20.5688 26.3497 19.9006 26.7427 19.1931 26.9392C19.2718 26.9786 19.3111 27.0179 19.3897 27.0572C21.1583 27.8825 23.2414 27.1751 24.1061 25.4064C24.9315 23.6377 24.224 21.5546 22.4554 20.6899C21.9444 20.4934 21.4335 20.3755 20.9618 20.3362ZM20.9618 20.3362C21.0404 22.0656 19.7827 23.6377 18.014 24.0308C17.6996 24.1094 17.3852 24.1487 17.0314 24.1487L16.7563 23.7949C15.9702 23.7556 15.2628 23.4805 14.6732 23.0482C14.6732 23.1268 14.7125 23.2054 14.7125 23.2447C15.1448 25.1313 17.0314 26.3104 18.918 25.878C20.8046 25.4457 21.9837 23.5591 21.5907 21.6725C21.4728 21.2009 21.2762 20.7292 20.9618 20.3362ZM20.9618 20.3362C19.6648 21.476 17.6603 21.476 16.206 20.3362C15.9309 20.1397 15.7344 19.9039 15.5379 19.6287L15.6558 19.2357C15.2235 18.6068 14.9483 17.8601 14.9483 17.1526C14.909 17.1919 14.8304 17.2705 14.7911 17.3098C13.5727 18.8426 13.8478 21.0437 15.3414 22.2621C16.8742 23.4805 19.0752 23.2447 20.2937 21.7118C20.6081 21.2795 20.8046 20.8471 20.9618 20.3362Z" fill="white"/>
</g>
<defs>
<clipPath id="clip0_51_1684">
<rect width="34.7053" height="20.8311" fill="white" transform="translate(3 10)"/>
</clipPath>
</defs>
</svg>
