<svg width="40" height="40" viewBox="0 0 40 40" fill="none" xmlns="http://www.w3.org/2000/svg">
<path d="M21.2131 32.21C22.8994 35 25.5622 35 26.3018 35H35L24.7042 22.43C19.9409 22.64 17.4852 25.67 18.0178 26.96L21.2131 32.21Z" fill="url(#paint0_linear_2_165)"/>
<path d="M18.1361 26.93C18.1361 26.93 17.8107 26.27 17.8107 25.52C17.8107 22.61 20.355 20.99 23.2249 20.36L24.8225 22.4C20.0592 22.52 17.6036 25.64 18.1361 26.93Z" fill="url(#paint1_linear_2_165)"/>
<path d="M22.071 17.57C17.7219 17.57 14.5562 18.32 14.5562 20.03C14.5562 20.69 14.7633 21.2 15.2959 22.19L18.1657 27.02C18.1657 27.02 17.8402 26.36 17.8402 25.61C17.8402 22.7 20.3846 21.08 23.2544 20.45C24.1124 20.24 24.9408 20.24 25.7988 20.24C26.5385 20.24 27.1893 20.24 27.7219 20.45C27.2781 19.19 26.5089 17.57 22.071 17.57Z" fill="url(#paint2_linear_2_165)"/>
<path d="M10.7101 14.57C11.8639 16.52 12.3077 17.03 15.1775 17.03C17.3077 17.03 20.5917 17.03 20.5917 17.03L13.1657 7.46C11.4793 5.42 10.6213 5 9.02368 5H5L10.7101 14.57Z" fill="url(#paint3_linear_2_165)"/>
<defs>
<linearGradient id="paint0_linear_2_165" x1="26.4867" y1="22.0399" x2="26.4867" y2="41.4899" gradientUnits="userSpaceOnUse">
<stop stop-color="#ED1C24"/>
<stop offset="0.1263" stop-color="#E81B23"/>
<stop offset="0.2703" stop-color="#DB1A21"/>
<stop offset="0.4229" stop-color="#C4171D"/>
<stop offset="0.5816" stop-color="#A41317"/>
<stop offset="0.7436" stop-color="#7B0E10"/>
<stop offset="0.7546" stop-color="#780E0F"/>
</linearGradient>
<linearGradient id="paint1_linear_2_165" x1="17.8183" y1="23.6559" x2="24.8171" y2="23.6559" gradientUnits="userSpaceOnUse">
<stop stop-color="#69231D"/>
<stop offset="0.2647" stop-color="#8D2922"/>
<stop offset="0.5812" stop-color="#B22F26"/>
<stop offset="0.8377" stop-color="#C93329"/>
<stop offset="1" stop-color="#D1342A"/>
</linearGradient>
<linearGradient id="paint2_linear_2_165" x1="17.09" y1="22.6898" x2="24.9476" y2="18.0336" gradientUnits="userSpaceOnUse">
<stop offset="0.1" stop-color="#E7EBEE"/>
<stop offset="0.3511" stop-color="#D5DCE0"/>
<stop offset="0.8549" stop-color="#A5B4BB"/>
<stop offset="1" stop-color="#96A7B0"/>
</linearGradient>
<linearGradient id="paint3_linear_2_165" x1="12.79" y1="18.6188" x2="12.79" y2="5.18141" gradientUnits="userSpaceOnUse">
<stop stop-color="#1C2F72"/>
<stop offset="0.1275" stop-color="#174687"/>
<stop offset="0.4038" stop-color="#0D72AF"/>
<stop offset="0.6512" stop-color="#0692CC"/>
<stop offset="0.8584" stop-color="#02A6DE"/>
<stop offset="1" stop-color="#00ADE4"/>
</linearGradient>
</defs>
</svg>
