<svg width="40" height="40" viewBox="0 0 40 40" fill="none" xmlns="http://www.w3.org/2000/svg">
<path d="M13.3994 7.46763C17.2221 3.47495 23.5446 1.69382 28.6476 4.0679C30.4724 5.01113 32.0991 6.69153 32.4456 8.81149C32.7899 10.3522 32.2319 11.8815 31.9011 13.3696C30.8369 17.6531 29.8176 21.9479 28.7421 26.2268C28.7039 26.2291 28.6319 26.2337 28.5959 26.2359C27.5991 23.7222 26.7216 21.1489 25.4774 18.7474C24.5706 17.0739 23.0339 15.5079 21.0584 15.398C19.6791 15.3843 18.2954 15.3316 16.9184 15.4507C18.6891 15.5217 19.9671 16.9754 20.8626 18.3834C22.2869 20.7208 23.0474 23.3834 24.1071 25.8925C24.8496 27.5661 25.7406 29.2442 27.1694 30.4118C26.9624 30.6819 26.7509 30.9498 26.5394 31.2176C23.8754 29.3701 22.8404 26.094 21.7379 23.1773C20.8109 20.9704 20.0819 18.5528 18.3606 16.8266C17.4876 15.8971 16.2344 15.3683 14.9721 15.3843C13.7166 15.3912 12.4589 15.3293 11.2056 15.4484C11.8446 15.5354 12.4926 15.675 13.0214 16.0734C14.7809 17.2593 15.7619 19.2533 16.5494 21.181C17.5371 23.4589 18.1806 25.9017 19.4901 28.0262C20.2011 29.1732 21.0809 30.2858 22.2914 30.9108C23.5064 31.5771 24.9351 31.3161 26.2401 31.6366C23.6459 34.3495 20.0166 35.9704 16.3109 36.1627C14.0001 36.2359 11.5724 35.7666 9.69137 34.3266C8.42237 33.3513 7.39637 31.9685 7.11512 30.3454C6.77762 28.9672 7.26137 27.5935 7.55162 26.2588C8.74862 21.3756 9.92987 16.4878 11.1359 11.6068C11.4936 10.0455 12.3149 8.62376 13.3994 7.46763ZM9.48887 26.442C9.12662 28.8893 10.9716 31.3802 13.3656 31.7419C15.5391 32.1906 17.7936 30.7689 18.5744 28.6993C17.4516 26.7694 16.7361 24.638 15.8924 22.5752C13.1699 21.3916 9.76787 23.4543 9.48887 26.442Z" fill="#CC2234"/>
</svg>
