<svg width="40" height="40" viewBox="0 0 40 40" fill="none" xmlns="http://www.w3.org/2000/svg">
<path d="M20.5597 26.0076C20.5597 24.9822 21.1196 24.8244 22.0796 25.3766C23.8396 26.3232 25.7596 27.3486 25.7596 27.3486C25.8396 26.7964 26.3195 26.3232 27.3595 26.5598C28.3195 26.7964 29.4395 27.0331 29.4395 27.0331C29.4395 27.0331 28.8795 25.6921 28.5595 25.1399C28.0795 24.0356 28.5595 23.5623 29.0395 23.4046C29.0395 23.4046 28.3995 22.9313 27.9195 22.6158C26.9595 21.9847 27.1995 21.2748 28.0795 20.8804C29.3595 20.3282 30.9594 19.6183 30.9594 19.6183C30.4795 19.3028 29.8395 18.514 30.5595 17.5674C31.1994 16.6209 32.1594 15.3588 32.1594 15.3588C32.1594 15.3588 30.3995 15.3588 29.2795 15.3588C28.2395 15.3588 27.9995 14.4911 27.9995 13.9389C27.9995 13.9389 26.3195 15.1221 25.1196 15.9109C24.0796 16.6209 23.1996 15.9109 23.3596 14.7277C23.5996 12.9135 23.8396 10.8626 23.8396 10.8626C23.1996 11.257 22.1596 11.257 21.6796 10.2316C20.8797 8.89059 19.9997 7.07634 19.9997 7.07634C19.9997 7.07634 19.1997 8.81171 18.4797 10.3104C17.9997 11.3359 16.8797 11.3359 16.3197 10.9415C16.3197 10.9415 16.5597 12.9924 16.7997 14.8066C16.9597 15.9898 15.9998 16.6209 15.0398 15.9898C13.8398 15.201 12.1598 14.0178 12.1598 14.0178C12.1598 14.57 11.9198 15.4377 10.8799 15.4377C9.75988 15.4377 7.99992 15.4377 7.99992 15.4377C7.99992 15.4377 8.9599 16.7786 9.59988 17.6463C10.2399 18.5929 9.67988 19.3817 9.19989 19.6972C9.19989 19.6972 10.7999 20.4071 12.0798 20.9593C13.0398 21.3537 13.2798 21.9847 12.2398 22.6947C11.7598 23.0102 11.1199 23.4835 11.1199 23.4835C11.5998 23.6412 12.0798 24.1145 11.5998 25.2188C11.3598 25.771 10.7199 27.112 10.7199 27.112C10.7199 27.112 11.8398 26.8753 12.7998 26.6387C13.8398 26.402 14.3998 26.8753 14.3998 27.4275C14.3998 27.4275 16.2397 26.402 17.9997 25.4555C18.9597 24.9033 19.5197 25.1399 19.5197 26.0865V28.4529C19.5197 29.8728 19.2797 31.4504 18.7197 32.2392C11.8398 31.5293 6.15996 26.1654 6.15996 19.0662C6.15996 11.7303 12.3998 5.73537 19.9997 5.73537C27.6795 5.73537 33.8394 11.6514 33.8394 18.9873C33.8394 25.8499 28.4795 31.4504 21.5196 32.1603V33.9746C29.6795 33.2646 35.9993 26.7964 35.9993 18.9873C36.0793 10.7048 28.8795 4 19.9997 4C11.1999 4 4 10.7048 4 19.0662C4 26.402 9.51989 32.4758 16.9597 33.8168C18.2397 34.0534 18.9597 34.2112 19.6797 35C20.4797 33.5802 20.6397 30.5827 20.6397 28.8473V26.0076H20.5597Z" fill="#D82F2E"/>
</svg>
