<svg width="40" height="40" viewBox="0 0 40 40" fill="none" xmlns="http://www.w3.org/2000/svg">
<path d="M19.536 13.753C19.536 13.753 19.3646 15.5037 19.5652 15.9006L19.2238 15.227C18.4045 13.6099 16.1778 12.391 14.4389 11.8416C13.6934 11.5757 12.81 11.677 12.81 11.677C11.9307 11.7647 11.5294 11.8808 11.5294 11.8808C12.7528 12.1953 13.894 13.1631 14.6228 14.3307C15.4003 15.5739 15.626 17.0331 15.2415 18.3303C15.2415 18.3303 15.1871 18.5314 15.1787 18.5125C15.1787 18.5125 13.0677 12.6367 8.97111 12.3371C6.78345 12.1656 5.22703 13.0592 4.30877 13.8367C2.97806 14.9625 2.10022 16.5836 2.018 18.0684C1.83963 20.409 3.03658 22.3528 3.40583 22.8914C4.46761 24.4977 7.33525 27.2932 10.0454 29.2288C10.0454 29.2288 13.2475 31.5411 16.5471 32H18.6483C19.15 31.9177 19.639 31.7692 20.1017 31.5357C16.5708 30.1939 12.9911 27.7197 10.5721 24.7852C9.75002 23.6243 8.8039 21.9492 8.92234 20.5197C9.06169 18.8338 10.6056 17.5757 12.3655 17.7134C13.5526 17.8052 14.5796 18.5112 15.0422 19.5559C15.6065 23.0021 19.0204 26.9489 22.4022 29.3152C22.4022 29.3152 23.6953 30.4517 25.6906 29.9024L31.7088 28.1165L29.5239 27.0191C26.5392 25.479 23.9614 23.5244 22.2322 21.4673C20.0654 18.7096 19.9888 16.9143 19.9888 16.9143C19.9805 16.396 20.0529 15.8426 20.4054 15.3661C20.9252 14.6628 22.019 14.2201 22.9735 14.1971C22.9735 14.1971 23.9921 14.1837 24.6316 14.5346C26.8151 15.524 28.1834 19.2482 28.4287 19.6761C28.4287 19.6761 32.4069 28.0193 38 26.2943C35.9364 25.1334 33.6456 19.7422 33.6456 19.7422C33.0868 18.2682 32.4877 16.0207 32.2104 14.4212C31.5875 10.8333 30.4073 8.32534 26.4904 8.02028C26.3149 8.00689 26.1407 8 25.9679 8C22.6377 8 19.8077 10.4864 19.536 13.753Z" fill="url(#paint0_linear_51_1692)"/>
<defs>
<linearGradient id="paint0_linear_51_1692" x1="3.05963" y1="5.50286" x2="39.4758" y2="8.52742" gradientUnits="userSpaceOnUse">
<stop stop-color="#FBC707"/>
<stop offset="1" stop-color="#F68712"/>
</linearGradient>
</defs>
</svg>
