<svg width="40" height="40" viewBox="0 0 40 40" fill="none" xmlns="http://www.w3.org/2000/svg">
<g clip-path="url(#clip0_51_1700)">
<path d="M35.4999 20.032C35.4999 28.5736 28.5759 35.4988 20.0326 35.4988C11.4916 35.4988 4.56659 28.5735 4.56659 20.032C4.56659 11.4904 11.4916 4.56543 20.0326 4.56543C28.5758 4.56554 35.4999 11.4904 35.4999 20.032Z" fill="#E32526"/>
<path d="M15.6793 16.9393C16.0291 16.8761 16.2891 17.0886 16.2629 17.4119C16.2368 17.7348 15.9311 18.0503 15.582 18.1127C15.2344 18.1747 14.9723 17.9621 15 17.6386C15.0265 17.3152 15.3302 17.0033 15.6793 16.9393ZM11.9184 19.2578C12.2211 18.1308 12.5875 16.9799 12.9501 16.1206C12.2195 17.0783 11.4367 18.2967 10.7313 19.5133C11.1419 19.4172 11.5412 19.3319 11.9184 19.2578ZM18.1404 18.3795C18.413 18.3299 19.0254 18.7006 18.7325 19.0441C18.428 19.3974 18.0846 19.3269 17.5454 19.552C17.2398 19.6787 17.0053 19.9523 16.6706 20.4339C16.245 21.0583 16.05 21.67 16.015 22.1296C16.0121 22.266 16.0013 22.3342 15.9292 22.3812C15.2166 22.8466 14.9974 22.4968 15.0155 22.0693C15.02 21.9684 15.0553 21.8088 15.1183 21.6124C14.57 22.4344 14.0847 22.8502 13.7672 22.9073C13.3417 22.9842 13.1016 22.6888 13.1474 22.1424C13.1683 21.8939 13.2431 21.6017 13.3823 21.2335C13.5282 20.8596 13.7582 20.3485 13.9711 19.9297C14.0254 19.8206 14.0779 19.7158 14.122 19.6221C13.799 19.6845 13.3408 19.7792 12.8014 19.9022C12.7941 19.9199 12.788 19.9296 12.7814 19.9307C12.5522 21.0014 12.5342 21.405 12.4107 22.3386C12.3584 22.7469 12.4371 23.1861 11.9508 23.2532C11.4646 23.3237 11.3032 22.823 11.3004 22.3955C11.2941 21.9602 11.3745 21.4371 11.6821 20.1709C11.1769 20.2995 10.643 20.4475 10.1145 20.6097C10.1071 20.6215 10.1019 20.6277 10.1019 20.6277C9.22431 22.2341 8.35818 24.2218 8.21492 24.8645C8.10068 25.3798 7.86783 25.5377 7.52522 25.3884C7.18324 25.2385 6.9841 24.894 7.10847 24.5099C7.33386 23.8204 8.02026 22.2727 8.63167 21.162C8.62708 21.1641 8.63167 21.1487 8.64607 21.1205C8.19796 21.2946 7.78132 21.4813 7.41716 21.682C7.17706 21.8113 6.87562 21.6918 6.8178 21.4237C6.77642 21.2335 6.68554 20.8579 7.15071 20.6538C7.85343 20.3466 8.61364 20.0864 9.373 19.8667C10.9857 17.1534 12.9902 14.3618 13.5666 14.4128C13.8161 14.4343 13.7766 14.704 13.9967 14.9484C14.2139 15.1917 14.2455 15.3407 13.9856 15.9857C13.4526 17.3097 13.495 17.0013 12.9836 19.0667C13.9215 18.9111 14.7379 18.8214 14.8144 18.8096C15.0733 18.7728 15.5188 18.9491 15.2833 19.4547C15.2833 19.4547 15.0365 19.8894 14.9391 20.0755C14.7631 20.3835 14.5347 20.8463 14.3969 21.159C14.3093 21.3435 14.2695 21.4845 14.2624 21.5877C14.2552 21.6548 14.2804 21.6928 14.3346 21.6831C14.4064 21.6701 14.5117 21.5925 14.6386 21.4611C14.762 21.3168 15.1788 20.9749 15.9236 19.72L16.1202 19.3134C16.1836 19.1922 16.2743 18.9787 16.2916 18.8806C16.3122 18.7349 16.3177 18.6971 16.4396 18.6204C16.6361 18.4949 16.9915 18.3911 17.1966 18.525C17.3896 18.6527 17.3396 18.8839 17.1793 19.1645C17.8285 18.4335 17.9954 18.4034 18.1404 18.3795ZM30.8425 20.4927C31.2076 20.0438 31.7723 19.0141 31.8076 18.7329C31.8238 18.6038 31.7867 18.5529 31.6852 18.566C31.5598 18.5826 31.2783 18.8126 31.0103 19.1406C30.6179 19.6115 30.0895 20.5614 30.0481 20.8743C30.0307 21.0023 30.083 21.0864 30.1732 21.0756C30.3184 21.0557 30.5693 20.8379 30.8425 20.4927ZM33.0296 19.7497C33.1883 19.4978 33.524 19.5802 33.4342 19.8117C33.3567 20.0122 33.2101 20.3375 32.8365 20.7789C32.3773 21.3435 31.9543 21.6174 31.572 21.6682C31.2638 21.7116 31.0453 21.5795 30.992 21.3034L30.9741 21.2471C30.9731 21.1985 30.9487 21.1743 30.9219 21.1788C30.8937 21.1818 30.8732 21.2028 30.8216 21.2514C30.4339 21.6623 30.1374 21.915 29.779 21.964C29.2436 22.034 28.932 21.6161 29.0079 21.0097C28.8646 21.2218 28.7167 21.4255 28.5805 21.5758C28.1621 22.0405 27.8192 22.3358 27.501 22.3774C27.0717 22.4348 26.8469 22.1287 26.9192 21.5866C26.9516 21.3395 27.0436 21.0518 27.2007 20.6868C27.3639 20.3228 27.6171 19.8223 27.851 19.4141C28.0377 19.0796 28.218 18.7013 28.2461 18.5724C28.2676 18.4708 28.2787 18.4512 28.3581 18.3996C28.4578 18.3287 28.6546 18.2448 28.7746 18.2353C29.0776 18.2125 29.4798 18.4316 29.2137 18.8859L29.1135 19.0587C29.0991 19.0942 28.9171 19.423 28.8125 19.6025C28.6194 19.9047 28.3723 20.3553 28.2171 20.6603C28.1207 20.8418 28.074 20.9807 28.0613 21.0818C28.0508 21.1494 28.074 21.1898 28.1269 21.1819C28.2011 21.1727 28.3102 21.0998 28.4428 20.9718C28.5788 20.8295 28.6619 20.7351 28.965 20.3341L29.075 20.1953C29.1624 20.0812 29.8532 19.1778 30.0609 18.9541C30.6181 18.2893 31.2475 17.818 31.6516 17.7658C31.9171 17.7292 32.1313 17.8503 32.2345 18.0956C32.3074 18.2958 32.3218 18.3095 32.4994 18.3862C32.7835 18.4989 32.8766 18.5942 32.8547 18.739C32.8441 18.8422 32.8054 18.9222 32.6248 19.2061C32.4979 19.4231 32.3581 19.6766 32.2578 19.8719C32.0467 20.2897 31.9312 20.5741 32.1359 20.6466C32.2134 20.6734 32.3568 20.5997 32.5358 20.4101C32.7337 20.2003 32.8739 19.9925 33.0296 19.7497ZM29.3694 17.6532C29.718 17.5911 30.0225 17.277 30.05 16.9527C30.0751 16.6291 29.8142 16.4185 29.4673 16.4809C29.118 16.5436 28.8123 16.8574 28.7868 17.1821C28.7589 17.505 29.0215 17.7159 29.3694 17.6532ZM24.069 16.12C23.3437 17.0726 22.5645 18.2859 21.8583 19.4975C22.2712 19.4031 22.668 19.3215 23.0389 19.2513C23.3438 18.1281 23.7072 16.9781 24.069 16.12ZM24.2512 19.0481C24.4595 19.0174 25.1369 18.9371 25.1109 19.2212C25.071 19.6791 24.8985 19.6723 24.2927 19.8022C24.1781 19.8281 24.0562 19.8542 23.9283 19.8813C23.919 19.912 23.9092 19.9299 23.9022 19.931C23.6739 21.0017 23.6559 21.4066 23.5305 22.3389C23.4767 22.7472 23.5566 23.1865 23.0705 23.2535C22.5845 23.324 22.4166 22.823 22.4195 22.3958C22.4212 21.6398 22.8027 20.1574 22.8046 20.1487C22.3101 20.2747 21.7798 20.418 21.2523 20.5826C20.6237 21.6501 19.4781 24.2221 19.3363 24.8649C19.221 25.3802 18.9885 25.538 18.6449 25.3871C18.303 25.2388 18.112 24.8973 18.2292 24.5102C18.5483 23.4461 19.7543 21.1415 19.7733 21.0999C19.326 21.2797 18.9089 21.4725 18.5493 21.6776C18.3266 21.8044 18.0424 21.6835 17.9821 21.4164C17.9422 21.2243 17.8536 20.8501 18.2887 20.6513C18.9865 20.3332 19.7453 20.0672 20.5029 19.8487C22.1131 17.1406 24.1099 14.362 24.6852 14.4133C24.936 14.4346 24.8969 14.7043 25.1161 14.9486C25.3343 15.1913 25.365 15.3409 25.1036 15.9859C24.573 17.3108 24.6166 17.0015 24.1033 19.0705C24.1539 19.0635 24.2018 19.0554 24.2512 19.0481ZM25.0204 22.8013C25.4181 22.7605 26.5808 22.5057 26.5924 21.2292C26.5951 20.7351 26.1229 20.4747 26.0081 20.1302C25.9341 19.9174 25.9519 19.4783 26.2877 19.3463C26.7025 19.183 26.7884 19.4557 26.9316 19.6595C26.9911 19.7431 27.1811 19.7232 27.2461 19.6553C27.3366 19.5612 27.4689 19.4204 27.526 19.1813C27.5763 18.9622 27.3438 18.5941 26.6681 18.617C26.432 18.6222 26.0979 18.6624 25.6247 19.1137C25.4065 19.3214 24.7118 20.2715 25.226 21.0872C25.3648 21.3087 25.6985 21.5794 25.4839 21.7874C25.1491 22.1101 24.574 21.6102 24.4646 21.4593C24.4153 21.3899 24.2726 21.3087 24.1789 21.4463C24.1247 21.5252 23.8667 21.9852 23.9065 22.1552C24.0227 22.6859 24.7075 22.8326 25.0204 22.8013Z" fill="white"/>
</g>
<defs>
<clipPath id="clip0_51_1700">
<rect width="32" height="32" fill="white" transform="translate(4 4)"/>
</clipPath>
</defs>
</svg>
