<svg width="40" height="40" viewBox="0 0 40 40" fill="none" xmlns="http://www.w3.org/2000/svg">
<g clip-path="url(#clip0_51_1708)">
<path d="M26.5362 15.0458C27.0819 15.0458 27.4671 15.2062 27.756 15.3667C28.3979 15.6556 29.1041 16.0087 30.0349 16.4581C30.0349 16.4581 31.5114 15.3988 31.6077 15.3346C32.1213 14.9816 32.6028 15.2383 32.7633 15.5593C33.3089 16.6186 34.3361 18.7691 34.8817 20.7592C34.9459 20.9839 34.8817 21.3691 34.4966 21.4654C34.2719 21.5296 33.9188 21.5938 33.5336 21.6259C32.988 21.6901 33.0201 22.1394 33.0201 22.3962C33.0201 22.7172 33.0201 24.932 33.0201 25.6702C33.0201 26.1196 32.667 27.6282 30.9337 27.6282C30.8053 27.6282 26.9535 27.6282 26.9535 27.6282C25.4449 27.6282 24.2573 26.3764 24.2573 25.0283C24.2573 24.1295 24.2573 17.9667 24.2573 17.2605C24.2252 15.9124 25.4449 15.0137 26.5362 15.0458Z" fill="#0B2343"/>
<path d="M20.245 27.6298H7.37367V29.0742H22.4919C22.4919 29.0742 23.0375 27.8224 23.0375 26.4101C23.0375 26.3459 23.0375 16.6844 23.0375 16.6844C23.0375 15.914 23.3585 14.6301 24.9313 14.277C24.9634 14.277 25.0276 14.2449 25.0597 14.2449C29.5213 13.1857 34.1114 14.1486 36.7113 15.2721C37.1928 15.4967 37.2891 15.1116 37.257 14.9511C37.3212 12.7684 35.6521 10.2648 32.6028 10.1364C30.1312 10.0722 28.751 10.9709 28.2374 11.2277C28.2053 11.2598 28.1411 11.2277 28.0769 11.1635C27.6276 10.7141 26.6325 10.0401 25.5412 9.71909C25.3807 9.68699 25.3486 9.43021 25.5412 9.43021C27.8843 9.17342 29.9386 9.43021 30.8053 9.5907C30.9979 9.6228 31.1583 9.4944 31.0621 9.33391C30.9979 9.20552 30.9658 9.14133 30.8695 8.91664C30.6448 8.46727 30.0991 7.98579 29.393 7.79321C27.5634 7.27964 24.4177 6.83026 21.5931 6.83026C18.4475 6.79817 15.1093 7.44013 14.2748 7.63272C14.0822 7.66481 13.7933 7.76111 13.7291 7.76111C13.5686 7.76111 13.5044 7.98579 13.6007 8.08209C13.6649 8.14628 13.8254 8.30678 13.9217 8.40307C14.018 8.53146 14.0822 8.72405 13.8896 8.91664L8.04773 14.1486H12.0279H12.06C12.3168 14.1486 12.5736 14.3733 12.5736 14.6622C12.5736 14.919 12.3489 15.1758 12.0921 15.1758H12.06H6.8922L5.31939 16.6202H12.0921H12.1242C12.381 16.6202 12.6057 16.9091 12.6057 17.1337C12.6057 17.3584 12.4131 17.6473 12.1242 17.6473H12.0921H4.16386L2.55896 19.1238H16.2648H16.2969C16.5537 19.1238 16.7784 19.4127 16.7784 19.6374C16.7784 19.9263 16.5858 20.1831 16.2969 20.1831H16.2648H2.55896V21.6275H16.2327H16.2648C16.5858 21.6275 16.7463 21.9164 16.7463 22.1731C16.7463 22.3978 16.5216 22.6546 16.2327 22.6546H16.2006H2.55896V24.099H20.4376H20.4697C20.7586 24.099 20.9512 24.3558 20.9512 24.6447C20.9512 24.9015 20.7265 25.1583 20.4697 25.1583H20.4376H7.37367V26.6027H20.245H20.5018C20.7586 26.6027 20.9512 26.8916 20.9512 27.1483C20.9512 27.4051 20.7265 27.6619 20.5018 27.6619L20.245 27.6298ZM12.1884 32.5729V34.0494C12.1884 34.0494 14.1143 34.0494 15.2377 34.0494C17.966 34.0173 19.7314 32.5729 19.7314 32.5729H12.1884ZM12.1884 30.1014V31.5458H20.9512C21.3684 31.1285 21.882 30.3903 22.0104 30.1014H12.1884ZM153.259 21.2423C153.259 21.2102 153.259 21.1781 153.259 21.1781C153.195 20.0547 152.842 19.0596 152.329 18.2893C151.237 16.5881 149.343 15.6572 147.064 15.6893C144.786 15.6572 142.86 16.5881 141.8 18.2893C141.287 19.0596 140.902 20.0547 140.87 21.1781C140.87 21.2102 140.87 21.2423 140.87 21.2423C140.549 24.9657 142.731 27.5656 146.455 27.8545C146.679 27.8866 146.904 27.8866 147.097 27.8866C147.321 27.8866 147.514 27.8866 147.739 27.8545C151.398 27.5656 153.548 24.9978 153.259 21.2423ZM147.321 26.1212C147.225 26.1212 147.129 26.1212 147.032 26.1212C146.936 26.1212 146.84 26.1212 146.744 26.1212C146.198 26.057 145.781 25.8644 145.395 25.5755C145.299 25.4792 145.171 25.383 145.074 25.2546C144.497 24.6126 144.208 23.5213 144.111 22.6546C143.951 20.6324 144.336 17.6794 146.808 17.4868C146.872 17.4868 146.936 17.4868 147 17.4868H147.032H147.064C147.129 17.4868 147.193 17.4868 147.257 17.4868C149.729 17.6794 150.146 20.6324 149.985 22.6546C149.921 23.5213 149.632 24.6126 149.022 25.2546C148.926 25.383 148.798 25.4792 148.702 25.5755C148.284 25.8644 147.835 26.057 147.321 26.1212ZM128.608 18.4819C128.608 17.551 128.704 15.9461 128.704 15.9461H125.655C125.655 15.9461 125.751 17.5831 125.751 18.4819V25.1262C125.751 26.057 125.655 27.6298 125.655 27.6298H128.672C128.672 27.6298 128.576 26.057 128.576 25.1262L128.608 18.4819ZM110.826 25.8002C110.184 25.8002 109.349 25.8002 108.707 25.8002C108.675 24.6126 108.675 23.4892 108.675 22.462V22.3015V22.2694H112.174V20.6324H108.675C108.675 18.867 108.707 17.6794 108.707 17.6794H113.073V15.914C110.023 15.914 105.626 15.914 105.626 15.914C105.626 15.914 105.69 17.5189 105.69 18.4498V25.0941C105.69 25.9286 105.626 27.373 105.626 27.6298H113.362V25.7681C113.394 25.7681 111.853 25.8002 110.826 25.8002ZM60.175 25.8002C59.533 25.8002 58.6985 25.8002 58.0565 25.8002C58.0244 24.6126 58.0244 23.4892 58.0244 22.462V22.3015V22.2694H61.5231V20.6003H58.0244C58.0244 18.8349 58.0565 17.6473 58.0565 17.6473H62.4219V15.8819C59.3726 15.8819 54.9751 15.8819 54.9751 15.8819C54.9751 15.8819 55.0393 17.4868 55.0393 18.4177V25.0941C55.0393 25.9286 54.9751 27.373 54.9751 27.6298H62.7108V25.7681C62.7108 25.7681 61.1701 25.8002 60.175 25.8002ZM120.776 21.3386L124.146 15.9461H121.835L121.803 16.0103C121.097 17.23 120.231 18.7066 119.877 19.2522L119.749 19.4769L117.791 15.914H114.292L117.663 21.9806L114.164 27.6298H116.475C117.984 25.062 118.754 23.9064 118.754 23.9064L120.84 27.6298H124.307L120.776 21.3386ZM138.077 26.0249C135.381 26.0249 133.904 24.0348 134.001 21.5954C134.065 19.4769 135.028 17.6473 137.371 17.4868C138.27 17.4226 138.976 17.5831 140.228 17.9041L140.099 16.0745C140.099 16.0745 139.04 15.7535 137.531 15.6893C135.605 15.6251 133.872 15.9782 132.46 17.2621C131.208 18.3856 130.47 20.0868 130.47 21.7238C130.47 23.5213 131.208 25.1904 132.62 26.3459C134.065 27.5656 135.638 27.8545 137.467 27.8545C138.687 27.8545 139.393 27.7582 140.581 27.4693L140.388 25.6718C140.163 25.7681 139.297 26.0249 138.077 26.0249ZM99.0458 14.1807H102.416L102.512 14.9511C103.283 22.7509 103.732 27.6298 103.732 27.6298H100.201L99.8482 22.783L99.5273 18.4498L96.5421 27.5977C95.7397 27.5977 94.6483 27.5977 94.6483 27.5977C94.6483 27.5977 93.7175 24.3558 93.5249 23.8743L91.8237 18.3856C91.8237 18.3856 91.5669 21.4349 91.4706 22.7509C91.278 25.383 91.0854 27.5977 91.0854 27.5977H88.4534C88.4534 27.5977 89.5448 16.6523 89.6089 15.9782C89.7052 15.3042 89.8336 14.1165 89.8336 14.1165H93.3002L96.157 21.9806L99.0458 14.1807ZM87.0411 21.2744C87.0411 21.2423 87.0411 21.2102 87.0411 21.2102C86.9769 20.0868 86.6238 19.0917 86.1103 18.3214C85.0189 16.6202 83.1251 15.7214 80.8462 15.7535C78.5672 15.7214 76.6734 16.6202 75.5821 18.3214C75.0685 19.0917 74.6833 20.0868 74.6512 21.2102C74.6512 21.2423 74.6512 21.2744 74.6512 21.2744C74.3303 24.9978 76.5129 27.5656 80.2042 27.8545C80.4289 27.8866 80.6536 27.8866 80.8462 27.8866C81.0709 27.8866 81.2634 27.8866 81.4881 27.8545C85.1794 27.5656 87.33 24.9978 87.0411 21.2744ZM81.135 26.1212C81.0388 26.1212 80.9425 26.1212 80.8462 26.1212C80.7499 26.1212 80.6536 26.1212 80.5573 26.1212C80.0116 26.057 79.5943 25.8644 79.2092 25.5755C79.1129 25.4792 78.9845 25.383 78.8882 25.2546C78.3104 24.6126 78.0215 23.5213 77.9252 22.6546C77.7648 20.6324 78.1499 17.7115 80.6215 17.5189C80.6857 17.5189 80.7499 17.5189 80.8141 17.5189H80.8462H80.8783C80.9425 17.5189 81.0067 17.5189 81.0709 17.5189C83.5424 17.7115 83.9276 20.6645 83.7671 22.6546C83.7029 23.5213 83.414 24.5805 82.8363 25.2546C82.74 25.383 82.6116 25.4792 82.5153 25.5755C82.098 25.8644 81.6165 26.057 81.135 26.1212ZM54.2369 27.6298C54.1406 27.373 53.4986 25.8965 53.0492 24.7089L49.1012 14.1807H46.0198C46.0198 14.1807 45.1531 16.6523 45.0247 17.0696L42.1359 25.2225C41.7507 26.2817 41.2371 27.6298 41.2371 27.6298H43.7408C43.7408 27.6298 44.4469 25.3509 44.6074 24.9657L44.9926 23.8422H49.358L49.9678 25.5755C50.0962 25.8965 50.6098 27.6298 50.6098 27.6619L54.2369 27.6298ZM45.6346 21.8843L47.1111 17.5189L47.2074 17.2621L48.7481 21.8843H45.6346ZM74.8117 27.6298C74.0735 26.6027 73.8167 26.1533 73.271 25.383L71.1846 22.1089C72.1797 21.6275 73.1426 20.7929 73.271 19.0275C73.3673 17.9362 72.7896 17.0375 72.4365 16.7165C71.9229 16.2671 71.4414 16.0745 70.7353 16.0103C70.1896 15.9461 69.7723 15.9461 69.4513 15.914H64.5083C64.5083 15.914 64.5724 17.5189 64.5724 18.4498V25.062C64.5724 25.9928 64.5083 27.5977 64.5083 27.5977H67.5576C67.5576 27.5977 67.4613 25.9928 67.4613 25.062L67.4934 22.9435C67.4934 22.9435 68.1674 22.9435 68.6168 22.9435L70.5427 26.4743C70.7995 26.9237 71.1846 27.4693 71.2488 27.6298H74.8117ZM69.4193 21.0818C68.9699 21.3065 67.9427 21.2423 67.4292 21.2102L67.4613 17.872L67.7502 17.8399C68.681 17.7757 69.3551 17.9041 69.6439 18.0325C70.0612 18.2251 70.318 18.6103 70.318 19.2843C70.3822 20.2794 69.997 20.7929 69.4193 21.0818ZM152.938 26.4743C152.938 25.8323 153.452 25.3188 154.094 25.3188C154.736 25.3188 155.25 25.8323 155.25 26.4743C155.25 27.1163 154.736 27.6298 154.094 27.6298C153.452 27.6298 152.938 27.1163 152.938 26.4743ZM154.961 26.4743C154.961 25.9286 154.575 25.5434 154.094 25.5434C153.613 25.5434 153.227 25.9286 153.227 26.4743C153.227 27.02 153.613 27.4051 154.094 27.4051C154.575 27.4051 154.961 27.02 154.961 26.4743ZM153.645 25.8323H154.126C154.447 25.8323 154.608 25.9286 154.608 26.2175C154.608 26.4422 154.479 26.5385 154.254 26.5706L154.608 27.1483H154.351L153.998 26.5706H153.837V27.1483H153.58V25.8323H153.645ZM153.869 26.378H154.094C154.222 26.378 154.351 26.3459 154.351 26.1854C154.351 26.0249 154.222 25.9928 154.094 25.9928H153.869V26.378Z" fill="#0B2343"/>
</g>
<defs>
<clipPath id="clip0_51_1708">
<rect width="37.2" height="31" fill="white" transform="translate(1 5)"/>
</clipPath>
</defs>
</svg>
