<svg width="40" height="40" viewBox="0 0 40 40" fill="none" xmlns="http://www.w3.org/2000/svg">
<path d="M19.0993 21.7089C14.3527 22.6203 7.90483 23.2977 3.04866 24.9084C2.97731 24.9335 2.98507 24.9773 3.06772 24.9726C14.7864 24.5846 27.4722 24.6495 36.95 25C36.9719 25.0015 37.0044 24.9546 36.9995 24.9256C36.7734 23.6865 35.901 22.2815 33.2751 22.2941H31.7562C31.7562 22.2941 31.7166 22.3253 31.7237 22.3379C32.1518 23.5254 30.9522 24.3131 30.1787 23.5958C29.8516 23.2899 29.5273 22.5413 30.3588 21.8959C30.9699 21.4202 31.9363 20.7217 32.4944 20.3297C34.5022 18.9201 34.2245 16.8979 31.5591 16.6718C25.1197 16.132 13.6229 15.4022 9.07614 15.0008C8.97229 14.9907 8.91717 15.0752 8.98782 15.1174C12.7462 17.3704 16.1654 17.5761 19.923 19.1266C22.0608 20.0059 21.6397 21.2215 19.0993 21.7089Z" fill="#0078BE"/>
</svg>
