<svg width="40" height="40" viewBox="0 0 40 40" fill="none" xmlns="http://www.w3.org/2000/svg">
<path d="M37.5727 8.2243C34.0475 8.2243 32.2315 9.23364 28.8131 11.8131L17.0623 20.6728H9.47774C7.34125 20.6728 5.52522 20.785 4.24332 22.1308L2.32047 24.0373C2.32047 24.0373 7.9822 23.813 13.2166 23.5887L2 32H6.80712L18.2374 23.3644C20.4807 23.2522 21.9763 23.2522 21.9763 23.2522C24.6469 23.1401 26.1424 20.6728 26.1424 20.6728H21.7626L31.0564 13.6075L24.2196 25.2709C22.724 27.9625 22.0831 29.8692 21.7626 31.8877H25.7151C25.822 30.0933 26.4629 28.299 27.4243 26.5046L36.8249 10.0187C37.4659 8.89719 38 8 38 8L37.5727 8.2243Z" fill="#01426A"/>
</svg>
