<svg width="40" height="40" viewBox="0 0 40 40" fill="none" xmlns="http://www.w3.org/2000/svg">
<g clip-path="url(#clip0_51_1736)">
<path d="M16.4398 28.6488V28.6524L21.5938 24.835L21.3834 24.174L17.6709 26.9227L18.2969 24.9608L17.7457 24.5532L16.6519 27.9825C14.9513 26.6232 14.1636 24.3937 14.6244 22.2405L14.0558 21.8205C13.388 24.3796 14.3357 27.0946 16.4398 28.6488ZM19.8619 24.8935L16.1459 22.1448H18.17L18.3804 21.4838H14.84C15.5877 19.4174 17.424 17.9659 19.5732 17.7426L19.7923 17.0639C17.1979 17.2127 14.96 18.9672 14.1549 21.4838L19.3089 25.3011L19.8619 24.8935ZM16.4206 16.3904H16.4572C16.4328 16.1016 16.3337 15.9296 16.1563 15.8623C15.5147 15.616 15.1704 15.0772 15.1704 14.4747C15.1704 13.7888 15.5999 13.3617 16.1424 13.3617C16.9093 13.3617 17.1875 14.2744 18.0639 14.2744C18.3786 14.2744 18.6377 14.0848 18.6377 13.9235V13.8278H18.4725C17.3718 13.8278 17.2031 12.6989 16.1424 12.6989C15.2382 12.6989 14.5201 13.4291 14.5201 14.4747C14.5201 15.5291 15.3199 16.3887 16.4206 16.3887M6.26387 23.7522H10.2129V23.7185C9.82335 23.5962 9.46514 23.38 9.17127 23.0912H6.26387C4.78408 23.0912 4.34763 22.9529 3.61556 22.1448H13.6489C13.6924 21.9215 13.748 21.7 13.8123 21.4855H2.20185L2.65048 22.0278C3.8277 23.4491 4.26764 23.7522 6.26561 23.7522M18.4082 13.4574C18.9698 13.4574 19.3176 12.9807 19.3176 12.5412C19.3176 12.091 19.1159 11.9103 18.9055 11.9103C18.7229 11.9103 18.5751 12.0609 18.5734 12.247C18.5734 12.4473 18.7507 12.5819 18.8829 12.5819C18.7125 12.846 18.4551 12.9364 18.123 12.9116C18.2273 12.7592 18.1926 12.55 18.043 12.4437C17.9874 12.4047 17.9213 12.3817 17.8535 12.3817C17.6918 12.3817 17.5266 12.5412 17.5266 12.7397C17.5283 13.1154 17.8744 13.4574 18.4082 13.4574ZM15.1704 27.9151H10.4128C9.10519 27.9151 8.61135 27.8035 8.00622 27.2169H7.1107C8.07056 28.3245 8.6044 28.5762 10.4146 28.5762H15.8277C15.5929 28.3706 15.3738 28.1491 15.1704 27.9151ZM12.9811 26.967V26.9333C12.5899 26.811 12.2334 26.5966 11.9378 26.306H9.03216C7.72279 26.306 7.23069 26.1961 6.62556 25.6112H5.73003C6.68989 26.7153 7.22199 26.967 9.0339 26.967H12.9811ZM11.5987 25.3596V25.3224C11.2092 25.2001 10.8528 24.9874 10.5572 24.7003H7.64802C6.34038 24.7003 5.84654 24.5887 5.24141 24.0021H4.34589C5.30575 25.1097 5.83958 25.3596 7.64975 25.3596H11.5987ZM21.4617 14.4091C21.1382 14.4091 20.8113 14.8114 20.6913 15.398C20.8896 15.4122 21.0895 15.4352 21.2843 15.4653C21.413 14.9532 21.6373 14.7157 21.8233 14.6838C21.7573 14.5278 21.6303 14.4091 21.4617 14.4091ZM20.1349 17.0532L18.1665 23.2312L18.7177 23.6388L20.1332 19.1923L20.7609 21.1524H21.4425L20.3505 17.7214C22.5085 17.8046 24.4317 19.1374 25.3028 21.1524H26.0019C25.0629 18.6854 22.7345 17.0568 20.1384 17.0532M23.6492 17.3864V16.7112C22.578 16.0891 21.3695 15.7524 20.1366 15.7329C18.902 15.7524 17.6935 16.0874 16.6206 16.7094V17.3864C17.6535 16.7661 18.8533 16.3922 20.1366 16.3922C21.4199 16.3922 22.618 16.7661 23.6492 17.3864ZM16.9371 16.0962C17.104 16.0183 17.2727 15.9438 17.4448 15.8765C17.3614 15.6213 17.2031 15.3289 16.9075 15.3289C16.758 15.3289 16.6415 15.4512 16.5928 15.5912C16.7302 15.6443 16.8415 15.7648 16.9371 16.0962ZM17.2918 28.4291L16.725 28.8491C18.9038 30.2934 21.7312 30.2137 23.83 28.6524H23.8335L21.8651 22.4744H21.1817L22.5989 26.9209L20.9626 25.7105L20.4114 26.1199L23.2736 28.2394C21.4825 29.4711 19.1559 29.5456 17.2918 28.4291ZM18.989 15.4636C19.1855 15.4317 19.3837 15.4122 19.5837 15.398C19.4619 14.8132 19.135 14.4091 18.8133 14.4091C18.6429 14.4091 18.5177 14.5278 18.4499 14.6838C18.6377 14.7175 18.862 14.9532 18.989 15.4636ZM17.8152 14.8504C17.657 14.8575 17.5196 14.9602 17.4675 15.1109C17.6066 15.1304 17.7961 15.2473 17.9335 15.7064C18.1143 15.6514 18.2986 15.6018 18.4847 15.561C18.3525 15.1056 18.1126 14.8486 17.8152 14.8486M33.1608 27.2169H32.2653C31.6619 27.8017 31.1681 27.9151 29.8604 27.9151H25.1029C24.8994 28.1491 24.6803 28.3724 24.4473 28.5744H29.8604C31.6689 28.5744 32.1992 28.3245 33.1608 27.2169ZM19.7471 21.4838L19.535 22.1448H24.1239L22.4876 23.357L22.698 24.0163L25.5654 21.8949C26.1566 24.0127 25.5063 26.29 23.8891 27.7521L24.1065 28.4308C26.1236 26.7614 26.9235 23.9985 26.1184 21.4802L19.7471 21.4838ZM36.656 22.1448C35.9221 22.9494 35.4874 23.0912 34.0076 23.0912H31.1002C30.7699 23.3978 30.4551 23.5945 30.0569 23.7185V23.7557H34.0076C36.0039 23.7557 36.4456 23.4491 37.621 22.0296L38.0714 21.4855H26.4609C26.5253 21.7017 26.5792 21.9233 26.6226 22.1466H36.656V22.1448ZM19.4967 12.1991L20.1366 11.7242L20.7783 12.1991L20.5348 11.4318L21.1747 10.9568H20.3818L20.1366 10.1895L19.8932 10.9568H19.0985L19.7419 11.4318L19.4967 12.1991ZM34.5415 25.6095H33.646C33.0426 26.1943 32.5505 26.306 31.2411 26.306H28.332C28.0033 26.6125 27.6868 26.8093 27.2904 26.9333V26.9705H31.2411C33.0513 26.9688 33.5834 26.7136 34.5415 25.6095ZM35.9256 24.0021H35.0301C34.425 24.5869 33.9329 24.7003 32.6235 24.7003H29.7161C29.3875 25.0034 29.071 25.2019 28.6728 25.3241V25.3614H32.6235C34.4337 25.3614 34.9658 25.1097 35.9256 24.0021ZM23.6805 15.5929C23.6318 15.4529 23.5153 15.3324 23.3675 15.3324C23.0719 15.3324 22.9119 15.6231 22.8301 15.88C23.0023 15.9474 23.171 16.02 23.3362 16.0998C23.4283 15.7648 23.5431 15.6426 23.6805 15.5929ZM19.728 14.3506C19.9071 14.5615 20.0132 14.721 20.1262 14.9833L20.1349 14.9957L20.1436 14.9833C20.2583 14.7228 20.3644 14.5615 20.5435 14.3506C20.4444 14.1131 20.3053 13.8934 20.1366 13.702C20.001 13.8349 19.7958 14.1681 19.728 14.3506ZM21.6373 13.8296V13.9253C21.6373 14.0865 21.8946 14.2726 22.2111 14.2726C23.0875 14.2726 23.3657 13.3635 24.1326 13.3635C24.6734 13.3635 25.1063 13.7906 25.1063 14.4782C25.1063 15.0808 24.7586 15.6177 24.1204 15.8641C23.9413 15.9314 23.8422 16.1016 23.8161 16.3922H23.8561C24.9568 16.3922 25.7567 15.5327 25.7567 14.4782C25.7567 13.4326 25.0403 12.7025 24.1343 12.7025C23.0736 12.7025 22.9049 13.8313 21.8042 13.8313L21.6373 13.8296ZM20.9556 12.5376C20.9556 12.9754 21.3034 13.4539 21.8651 13.4539C22.3989 13.4539 22.7449 13.1118 22.7449 12.7344C22.7449 12.5341 22.5815 12.3764 22.4163 12.3764C22.2337 12.3764 22.0877 12.527 22.0877 12.7131C22.0877 12.7822 22.1085 12.8495 22.1485 12.9063C21.8164 12.9311 21.5608 12.8407 21.3904 12.5766C21.5625 12.5642 21.6964 12.4189 21.6999 12.2417C21.6999 12.0591 21.5503 11.905 21.366 11.905C21.1574 11.9085 20.9556 12.091 20.9556 12.5376ZM20.1349 12.2824C19.848 12.2824 19.615 12.5199 19.615 12.8123C19.615 13.1047 19.848 13.3422 20.1349 13.3422C20.4218 13.3422 20.6548 13.1047 20.6548 12.8123C20.6548 12.5199 20.4218 12.2824 20.1349 12.2824ZM22.8058 15.1127C22.7536 14.962 22.6163 14.8575 22.458 14.8521C22.1607 14.8521 21.9207 15.1073 21.7886 15.5646C21.9746 15.6053 22.1589 15.655 22.3398 15.7099C22.4772 15.2491 22.665 15.1322 22.8058 15.1127ZM3.04347 40.209H2.20185V38.2507H3.07477V38.6724C3.07477 38.6724 3.19127 38.2489 3.7964 38.295V39.2378C3.7964 39.2378 3.1478 39.1421 3.04347 39.4575V40.209ZM21.0635 40.209H20.2201V38.2507H21.0913V38.6724C21.0913 38.6724 21.2078 38.2489 21.8129 38.295V39.2378C21.8129 39.2378 21.1643 39.1421 21.06 39.4575L21.0635 40.209ZM5.43443 38.7522C5.43443 38.7522 5.09534 38.7203 5.05013 39.2077C5.05013 39.2077 5.06404 39.5993 5.40486 39.6153C5.40486 39.6153 5.73003 39.6472 5.75959 39.2218C5.76133 39.2218 5.77525 38.7664 5.43443 38.7522ZM6.57165 39.2378C6.52818 40.3525 5.43616 40.255 5.43616 40.255C4.18243 40.3188 4.19634 39.1899 4.19634 39.1899C4.27112 38.1851 5.42225 38.2188 5.42225 38.2188C6.61512 38.2188 6.57165 39.2378 6.57165 39.2378ZM34.4684 38.7522C34.4684 38.7522 34.1294 38.7203 34.0842 39.2077C34.0842 39.2077 34.0981 39.5993 34.4389 39.6153C34.4389 39.6153 34.7623 39.6472 34.7936 39.2218C34.7954 39.2218 34.8093 38.7664 34.4684 38.7522ZM35.6074 39.2378C35.5622 40.3525 34.4702 40.255 34.4702 40.255C33.2165 40.3188 33.2321 39.1899 33.2321 39.1899C33.3034 38.1851 34.4563 38.2188 34.4563 38.2188C35.6491 38.2188 35.6074 39.2378 35.6074 39.2378ZM6.74902 38.2489H7.78191L8.10882 39.2201L8.40269 38.2489H9.34864L8.65483 39.8333C8.65483 39.8333 8.37313 40.5864 7.9158 40.5085H6.92638V39.9414H7.54716L6.74902 38.2489ZM10.8841 38.7664C10.8841 38.7664 10.4841 38.7044 10.4702 39.2236C10.4702 39.2236 10.4702 39.6436 10.8389 39.6436C10.8389 39.6436 11.1779 39.6596 11.2075 39.2378C11.2075 39.2378 11.2527 38.7664 10.8806 38.7664M11.1779 38.2489H12.0352V40.209H11.1779V39.8474C10.9275 40.255 10.4111 40.209 10.4111 40.209C9.51209 40.1133 9.61121 39.1722 9.61121 39.1722C9.64251 38.139 10.4824 38.1851 10.4824 38.1851C10.851 38.1709 11.1762 38.497 11.1762 38.497L11.1779 38.2489ZM17.0223 38.7664C17.0223 38.7664 16.6241 38.7044 16.6102 39.2236C16.6102 39.2236 16.6102 39.6436 16.9788 39.6436C16.9788 39.6436 17.3196 39.6596 17.3457 39.2378C17.3457 39.2378 17.3927 38.7664 17.0223 38.7664ZM17.3179 38.2489H18.1752V40.209H17.3179V39.8474C17.0675 40.255 16.5511 40.209 16.5511 40.209C15.6521 40.1133 15.7529 39.174 15.7529 39.174C15.7842 38.1408 16.6241 38.1869 16.6241 38.1869C16.9927 38.1727 17.3179 38.4988 17.3179 38.4988V38.2489ZM32.0636 40.209H31.222V38.2507H32.0949V38.6724C32.0949 38.6724 32.2114 38.2489 32.8165 38.295V39.2378C32.8165 39.2378 32.1662 39.1421 32.0636 39.4575V40.209ZM29.4953 38.7664C29.4953 38.7664 29.0971 38.7044 29.0831 39.2236C29.0831 39.2236 29.0832 39.6436 29.4501 39.6436C29.4501 39.6436 29.7909 39.6596 29.8187 39.2378C29.8204 39.2378 29.8639 38.7664 29.4953 38.7664ZM29.7891 38.2489H30.6464V40.209H29.7909V39.8474C29.5405 40.255 29.0223 40.209 29.0223 40.209C28.1233 40.1133 28.2259 39.174 28.2259 39.174C28.2537 38.1408 29.0971 38.1869 29.0971 38.1869C29.4657 38.1727 29.7909 38.4988 29.7909 38.4988L29.7891 38.2489ZM12.5795 37.9033H13.4646V40.209H12.5795V37.9033ZM18.7351 38.2489H19.6202V40.209H18.7351V38.2489ZM18.7351 37.8572H19.6202V38.116H18.7351V37.8572ZM24.0769 40.209V38.2489H24.9325V38.6866C24.9325 38.6866 25.1255 38.217 25.6871 38.217C25.6871 38.217 26.1149 38.1691 26.3357 38.6087C26.3357 38.6087 26.6905 38.1231 27.0887 38.217C27.0887 38.217 27.5912 38.1851 27.7112 38.7504L27.7094 40.193H26.7948V39.1704C26.7948 39.1704 26.7496 38.8727 26.5444 38.9064C26.5444 38.9064 26.3218 38.9064 26.294 39.1403V40.2072H25.3933V39.2201C25.3933 39.2201 25.4385 38.8727 25.1863 38.9206C25.1863 38.9206 24.9655 38.8887 24.9203 39.1704V40.2054L24.0769 40.209ZM38.0714 38.3127C38.0714 38.3127 37.7462 38.1709 37.0542 38.155C37.0542 38.155 36.0786 38.1408 36.0508 39.236C36.0508 39.236 36.0508 40.1611 37.1428 40.2072C37.1428 40.2072 37.8506 40.2072 38.0731 39.8776V39.4203C38.0731 39.4203 37.8506 39.5621 37.4245 39.5621C37.4245 39.5621 36.922 39.594 36.922 39.1527C36.922 39.1527 36.9498 38.777 37.3063 38.7947C37.3063 38.7947 37.6749 38.7168 38.0731 38.9046L38.0714 38.3127ZM5.82393 34.2685C5.82393 34.2685 5.58919 34.6832 5.58919 34.7683C5.58919 34.8551 5.65005 34.9738 5.57875 35.0057C5.50746 35.043 4.94406 35.1918 4.99449 34.6495C4.43109 34.8781 2.9687 35.541 1.65758 35.541C0.87509 35.541 0.480365 35.6384 0.156934 35.2875C0.00217402 35.0678 -0.401245 34.7488 -0.667293 35.3336C-0.943775 35.7359 -0.954208 36.1081 -1.1281 36.0726C-1.31242 36.0372 -1.39414 35.6491 -1.44457 35.1812C-1.63933 35.844 -1.48109 36.7053 -1.24982 36.6929C-1.02724 36.6929 -0.88987 36.2764 -0.773365 36.0212C-0.65686 35.7696 -0.611649 35.6561 -0.441239 35.6491C0.193451 35.6827 -0.472539 36.3562 1.57586 36.2569C2.52876 36.1595 3.75641 35.9645 4.58759 35.3673C4.74235 35.2361 4.78061 35.2025 4.82234 35.4523C4.87451 35.7253 4.9858 35.8334 5.27271 35.8103C5.55615 35.7926 6.07955 35.2804 5.82393 34.2685ZM41.7804 33.4976C41.6778 33.6801 41.4518 34.1055 41.3388 34.171C41.3388 34.4847 41.3909 36.4962 41.3196 36.6362C41.4935 36.3119 41.8222 35.9096 41.7996 35.6047C41.7804 35.3035 41.8309 33.6394 41.7804 33.4976ZM39.0678 33.9336L38.5548 34.3022L38.8522 34.5857L39.313 34.1622L39.0678 33.9336Z" fill="#C20831"/>
</g>
<defs>
<clipPath id="clip0_51_1736">
<rect width="38" height="22" fill="white" transform="translate(1 9)"/>
</clipPath>
</defs>
</svg>
