<svg width="40" height="40" viewBox="0 0 40 40" fill="none" xmlns="http://www.w3.org/2000/svg">
<path d="M29.8839 29.2545C29.3699 27.632 27.7488 26.3689 22.0493 25.9307C22.9604 27.0079 23.9179 28.0352 24.9235 28.9994H27.8176C29.0175 28.9994 29.5452 29.102 29.8839 29.2545Z" fill="#DA291C"/>
<path d="M8.01462 12.4862C7.74902 18.7762 11.0531 25.1136 21.945 25.9217L22.0525 25.9316C16.5197 19.3778 12.791 10.9859 11.2946 3.99902C11.2946 3.99902 8.25615 6.73262 8.01462 12.4862Z" fill="#DA291C"/>
<path d="M24.9232 29.002C20.6324 29.002 13.2224 29.0038 13.2224 29.0038C13.3762 29.3754 13.9152 29.6358 15.134 29.7094C22.44 30.1511 23.4757 35.9985 33.9311 35.9985C34.8516 35.9985 35.4241 35.9441 36 35.8328C31.8699 34.5373 28.155 32.1006 24.9232 29.002Z" fill="#DA291C"/>
</svg>
