<svg width="40" height="40" viewBox="0 0 40 40" fill="none" xmlns="http://www.w3.org/2000/svg">
<g clip-path="url(#clip0_11_1358)">
<path d="M2.2113 27.8537L3.69037 25.4664C4.95814 23.3535 6.22591 23.3535 9.81792 23.2178H13.965C15.7342 22.9309 15.1003 23.1422 16.3681 21.8744L22.3131 14.766C23.3606 13.473 24.5985 13 26.5348 13H38.3427L36.3113 15.6806C35.0098 17.1313 33.4545 17.6359 31.5817 17.6359H25.4873C25.0746 17.6359 24.9159 17.7305 24.7572 17.8882C24.5985 18.0459 23.3606 19.4965 23.3606 19.4965H31.3278L29.7724 21.4518C28.725 22.5871 27.487 23.2178 25.6143 23.2178H21.0434L18.9167 25.8985C17.5201 27.3491 16.4091 27.8537 13.965 27.8537H2.2113Z" fill="#0B1560"/>
</g>
<defs>
<clipPath id="clip0_11_1358">
<rect width="36.3427" height="14.7906" fill="white" transform="translate(2 13)"/>
</clipPath>
</defs>
</svg>
