<svg width="40" height="40" viewBox="0 0 40 40" fill="none" xmlns="http://www.w3.org/2000/svg">
<g clip-path="url(#clip0_51_1756)">
<path d="M18.6668 16.7849C20.4001 15.9813 22.5334 16.9858 23.1334 18.7268C23.9334 20.4679 22.9334 22.6108 21.2001 23.2134C19.4668 24.017 17.3334 23.0125 16.7334 21.2715C16.1334 19.5304 16.9334 17.5884 18.6668 16.7849Z" fill="#455CC7"/>
<path d="M22.5334 34.8651C22.5334 35.066 22.7334 35.066 22.9334 34.8651L23.3334 33.124C23.3334 32.9231 23.5334 32.9231 23.5334 33.124L24.6668 34.6642C24.6668 34.8651 24.8668 34.6642 25.0668 34.4633V32.5213C25.0668 32.5213 25.0668 32.3205 25.2668 32.3205H25.4668L26.8001 33.6597C27.0001 33.8606 27.2001 33.6597 27.0001 33.4588L26.8001 31.5169C26.8001 31.316 27.0001 31.316 27.0001 31.316L28.5334 32.2535C28.7334 32.2535 28.7334 32.2535 28.7334 32.0526L28.1334 29.9097L23.4668 24.6865H23.2668C23.0668 24.8874 22.6668 25.0883 22.4668 25.0883C22.0668 25.2892 21.8668 25.2892 21.5334 25.2892C21.5334 25.2892 21.3334 25.2892 21.3334 25.4901L21.7334 32.4544L22.5334 34.8651Z" fill="#455CC7"/>
<path d="M17.3334 5.13309C17.3334 4.9322 17.1334 4.9322 16.9334 5.13309L16.7334 6.87416C16.7334 7.07506 16.5334 7.07506 16.5334 6.87416L15.4 5.53488C15.4 5.33398 15.2 5.53488 15.2 5.73577V7.67773V7.87863H15L13.4667 6.33845C13.2667 6.13756 13.0667 6.33845 13.2667 6.53934L13.4667 8.48131C13.4667 8.6822 13.2667 8.6822 13.2667 8.6822L11.5334 7.47684C11.3334 7.47684 11.3334 7.47684 11.3334 7.67773L11.9334 9.82059L16.6 15.0438H16.8C17 14.8429 17.4 14.642 17.6 14.4411C18 14.2402 18.2 14.2402 18.5334 14.2402C18.5334 14.2402 18.7334 14.2402 18.7334 14.0393L18.2667 7.07506L17.3334 5.13309Z" fill="#455CC7"/>
<path d="M34.9333 17.3871C35.1333 17.3871 34.9333 17.1862 34.9333 16.9854L33 16.5836C32.8 16.5836 32.8 16.3827 33 16.3827L34.5333 15.2443C34.7333 15.0434 34.5333 15.0434 34.5333 15.0434H32.6C32.6 15.0434 32.4 15.0434 32.4 14.8425V14.6416L33.7333 13.3023C33.9333 13.1014 33.7333 13.1014 33.5333 13.1014L31.6 13.3023C31.4 13.3023 31.4 13.1014 31.4 13.1014L32.3333 11.5612C32.3333 11.3604 32.3333 11.3604 32.1333 11.3604L30 11.963L25 16.7845V16.9854C25.2 17.1862 25.4 17.588 25.6 17.7889C25.8 18.1907 25.8 18.3916 25.8 18.7264C25.8 18.7264 25.8 18.9273 26 18.9273L33 18.5255L34.9333 17.3871Z" fill="#455CC7"/>
<path d="M5.13346 22.6113C4.93346 22.6113 4.93346 22.8122 5.13346 23.0131L6.86679 23.4149C7.06679 23.4149 7.06679 23.6158 6.86679 23.6158L5.33346 24.7542C5.13346 24.7542 5.33346 24.9551 5.53346 24.9551H7.46679C7.46679 24.9551 7.66679 24.9551 7.66679 25.156V25.3569L6.33346 26.6962C6.13346 26.897 6.33346 26.897 6.53346 26.897L8.46679 26.6962C8.66679 26.6962 8.66679 26.897 8.66679 26.897L7.66679 28.4372C7.66679 28.6381 7.66679 28.6381 7.86679 28.6381L10.0001 28.0354L15.2001 23.3479V23.147C15.0001 22.9461 14.8001 22.5444 14.6001 22.3435C14.4001 21.9417 14.4001 21.7408 14.4001 21.406C14.4001 21.406 14.4001 21.2051 14.2001 21.2051L7.26679 21.6738L5.13346 22.6113Z" fill="#455CC7"/>
<path d="M32.4001 28.6366C32.6001 28.6366 32.6001 28.4357 32.6001 28.4357L31.6668 26.8955C31.6668 26.6946 31.6668 26.6946 31.8668 26.6946L33.6001 26.8955C33.8001 26.8955 33.8001 26.6946 33.8001 26.6946L32.4668 25.3553V25.1544C32.4668 25.1544 32.4668 24.9535 32.6668 24.9535H34.6001C34.8001 24.9535 34.8001 24.7527 34.6001 24.7527L33.0001 23.6143C32.8001 23.6143 33.0001 23.4134 33.0001 23.4134L34.7334 23.0116C34.9334 23.0116 34.9334 22.8107 34.7334 22.6098L32.8001 21.6723L25.8668 21.2705C25.8668 21.2705 25.6668 21.2705 25.6668 21.4714C25.6668 21.8732 25.4668 22.0741 25.4668 22.4089C25.2668 22.8107 25.0668 23.0116 24.8668 23.2125V23.4134L30.0668 28.1009L32.4001 28.6366Z" fill="#455CC7"/>
<path d="M7.66668 11.3604C7.46668 11.3604 7.46668 11.5612 7.46668 11.5612L8.40002 13.1014C8.40002 13.3023 8.40002 13.3023 8.20002 13.3023L6.46668 13.1014C6.33335 13.1014 6.33335 13.3023 6.33335 13.3023L7.66668 14.6416V14.8425C7.66668 14.8425 7.66668 15.0434 7.46668 14.8425H5.53335C5.33335 14.8425 5.33335 15.0434 5.53335 15.2443L7.06668 16.3827C7.26668 16.3827 7.06668 16.5836 7.06668 16.5836L5.33335 16.9854C5.13335 16.9854 5.13335 17.1862 5.33335 17.3871L7.26668 18.3246L14.2 18.7264C14.2 18.7264 14.4 18.7264 14.4 18.5255C14.4 18.1237 14.6 17.9229 14.6 17.588C14.8 17.1862 15 16.9854 15.2 16.7845V16.5836L10 11.8961L7.66668 11.3604Z" fill="#455CC7"/>
<path d="M28.7333 7.67773C28.7333 7.47684 28.5333 7.47684 28.5333 7.47684L27 8.41434C26.8 8.41434 26.8 8.41434 26.8 8.21345L27 6.47238C27 6.33845 26.8 6.33845 26.8 6.33845L25.4667 7.67773H25.2667C25.2667 7.67773 25.0667 7.67773 25.2667 7.47684V5.53488C25.2667 5.33398 25.0667 5.33398 24.8667 5.53488L23.7333 7.07506C23.7333 7.27595 23.5333 7.07506 23.5333 7.07506L23.1333 5.13309C23.1333 4.9322 22.9333 4.9322 22.7333 5.13309L21.8 7.07506L21.2 14.0393C21.2 14.0393 21.2 14.2402 21.4 14.2402C21.8 14.2402 22 14.4411 22.3333 14.4411C22.7333 14.642 22.9333 14.8429 23.1333 15.0438H23.3333L28 9.82059L28.7333 7.67773Z" fill="#455CC7"/>
<path d="M11.3334 32.3211C11.3334 32.522 11.5334 32.522 11.5334 32.522L13.0667 31.5845C13.2667 31.5845 13.2667 31.5845 13.2667 31.7854L13.0667 33.5265C13.0667 33.7274 13.2667 33.7274 13.2667 33.7274L14.6 32.3881H14.8C14.8 32.3881 15 32.3881 15 32.589V34.464C15 34.6649 15.2 34.6649 15.4 34.464L16.5334 32.9238C16.5334 32.7229 16.7334 32.9238 16.9334 32.9238L17.3334 34.8658C17.3334 35.0667 17.5334 35.0667 17.7334 34.8658L18.6667 32.9238L19.0667 25.9595C19.0667 25.9595 19.0667 25.7587 18.8667 25.7587C18.4667 25.7587 18.2667 25.5578 17.9334 25.5578C17.5334 25.3569 17.3334 25.156 17.1334 24.9551H16.9334L12.2667 30.1783L11.3334 32.3211Z" fill="#455CC7"/>
</g>
<defs>
<clipPath id="clip0_51_1756">
<rect width="30" height="30" fill="white" transform="translate(5 5)"/>
</clipPath>
</defs>
</svg>
