<svg width="40" height="40" viewBox="0 0 40 40" fill="none" xmlns="http://www.w3.org/2000/svg">
<g clip-path="url(#clip0_51_1772)">
<path d="M4.09674 16.7528H5.39785V24.0908C5.39785 25.2318 4.60657 25.9975 3.50942 25.9975H3V24.7085H3.3693C3.81587 24.7085 4.09674 24.4931 4.09674 23.9831V16.7528ZM4.09674 14H5.39785V15.3697H4.09674V14Z" fill="#003876"/>
<path d="M7.53884 19.5461C7.56413 18.5124 8.13837 17.962 8.90413 17.962C9.66983 17.962 10.2309 18.5124 10.2687 19.5461H7.53884ZM11.5699 20.6735V19.5461C11.5699 17.7873 10.332 16.6729 8.90424 16.6729C7.65326 16.6729 6.23773 17.5318 6.23773 20.1773C6.23773 22.9699 7.78105 23.6415 9.10814 23.6415C9.975 23.6415 10.8045 23.3186 11.4419 22.5401L10.4988 21.6947C10.1155 22.1105 9.58 22.3524 9.0825 22.3524C8.18936 22.3524 7.53889 21.7881 7.53889 20.6735H11.5699Z" fill="#003876"/>
<path d="M12.6015 14.6846H13.9026V16.7526H14.8459V17.7999H13.9026V21.7605C13.9026 22.1368 14.0427 22.2709 14.3607 22.2709H14.8459V23.5599H14.1701C13.264 23.5599 12.6015 22.9547 12.6015 21.8814V17.7999H11.9498V16.7526H12.6015V14.6846Z" fill="#003876"/>
<path d="M19.1713 19.3173C20.1916 19.3173 20.65 20.0018 20.65 20.7536C20.65 21.5059 20.1915 22.1905 19.1713 22.1905H17.0532V19.3173H19.1713ZM15.6748 23.5602H19.5023C20.8676 23.5602 22.028 22.4993 22.028 20.8481C22.028 19.8813 21.5435 18.8878 20.5486 18.6454V18.619C21.6074 18.122 21.8884 17.3568 21.8884 16.5649C21.8882 15.061 20.9688 14 19.1961 14H15.6748V23.5602ZM19.0429 15.2895C20.0381 15.2895 20.51 15.9202 20.51 16.6588C20.51 17.4102 20.0381 18.0287 19.0429 18.0287H17.0532V15.2895H19.0429Z" fill="#003876"/>
<path d="M22.7759 14H24.077V21.8011C24.077 22.1099 24.2429 22.2712 24.5629 22.2712H25.0087V23.5602H24.4347C23.49 23.5602 22.7759 23.1308 22.7759 21.9083V14Z" fill="#003876"/>
<path d="M25.5571 16.7529H26.8583V20.8074C26.8583 21.7345 27.4067 22.2713 28.1475 22.2713C28.8743 22.2713 29.4222 21.7346 29.4222 20.8074V16.7529H30.7239V23.5603H29.4222V22.8348H29.3978C28.9891 23.3722 28.4021 23.641 27.7257 23.641C26.7059 23.641 25.5571 22.8215 25.5571 21.2779V16.7529Z" fill="#003876"/>
<path d="M32.7242 19.5461C32.7507 18.5124 33.3237 17.962 34.0893 17.962C34.8546 17.962 35.4157 18.5124 35.455 19.5461H32.7242ZM36.7558 20.6735V19.5461C36.7558 17.7873 35.5183 16.6729 34.0893 16.6729C32.839 16.6729 31.4225 17.5318 31.4225 20.1773C31.4225 22.9699 32.9667 23.6415 34.293 23.6415C35.1614 23.6415 35.99 23.3186 36.628 22.5401L35.6836 21.6948C35.3008 22.1106 34.7659 22.3525 34.2681 22.3525C33.3752 22.3525 32.7242 21.7883 32.7242 20.6735L36.7558 20.6735Z" fill="#003876"/>
</g>
<defs>
<clipPath id="clip0_51_1772">
<rect width="34" height="12" fill="white" transform="translate(3 14)"/>
</clipPath>
</defs>
</svg>
