<svg width="40" height="40" viewBox="0 0 40 40" fill="none" xmlns="http://www.w3.org/2000/svg">
<path d="M35.5897 19.2232C34.6014 20.2054 32.4604 21.0485 31.407 21.4433C29.9679 21.9839 29.3293 22.1752 28.5241 22.4373C27.6127 22.733 25.7895 23.2847 25.7895 23.2847C29.5663 24.4124 32.228 24.7524 32.228 24.7524C32.228 24.7524 33.468 24.3691 35.4324 23.3186C36.4961 22.778 37.0196 22.414 37.3939 22.0661C37.532 21.9413 37.8884 21.5702 37.9771 21.0954C37.9828 21.0607 38 20.9699 38 20.8805C38 20.8805 38 20.8175 37.9943 20.7628C37.9921 20.6999 37.981 20.6577 37.981 20.6577C37.981 20.6577 37.96 20.5451 37.9321 20.4661C37.9031 20.387 37.7815 20.1432 37.5845 19.9848C37.4529 19.8779 37.2255 19.6115 36.4017 19.3219C36.1218 19.2246 35.6684 19.1349 35.6684 19.1349L35.5897 19.2232Z" fill="url(#paint0_linear_6_154)"/>
<path d="M37.9996 20.8555C37.9996 20.8555 37.9939 20.7503 37.9682 20.6613C37.9482 20.5819 37.9128 20.5061 37.8595 20.4264C37.7951 20.3316 37.7082 20.2204 37.5799 20.0974C37.483 20.0059 37.3768 19.9251 37.2488 19.8393C36.7335 19.5018 36.0685 19.3115 35.4799 19.2311C34.5678 19.1099 33.5216 19.1313 33.4226 19.1278C33.0861 19.1231 30.9122 19.141 30.3533 19.151C27.8715 19.2021 24.8334 19.2089 24.0375 19.2089C15.8212 19.2465 12.2449 19.0695 8.26464 18.2714C4.87859 17.5988 3 16.9599 3 16.9599C5.98666 16.8566 23.4132 16.1336 26.5922 16.0492C28.6735 15.9906 30.1513 15.978 31.3337 16.0463C31.9402 16.0803 32.5044 16.1318 33.2131 16.2523C33.8484 16.361 34.4255 16.5455 34.7616 16.6703C35.4696 16.9324 36.0663 17.3114 36.3613 17.6997C36.3613 17.6997 36.4486 17.7891 36.5669 17.9478C36.6996 18.1323 36.8537 18.3594 36.9059 18.4441C37.3367 19.097 37.5413 19.5071 37.6124 19.6501C37.6893 19.8003 37.7572 19.9562 37.8234 20.1089C37.8881 20.2605 37.9145 20.3524 37.9353 20.4164C37.9807 20.5769 37.9918 20.7232 37.9939 20.7561L37.9996 20.8555Z" fill="#CE210F"/>
<defs>
<linearGradient id="paint0_linear_6_154" x1="34.3307" y1="18.0304" x2="29.9199" y2="25.6701" gradientUnits="userSpaceOnUse">
<stop stop-color="#E6EBEF"/>
<stop offset="0.0764" stop-color="#BBCEE5"/>
<stop offset="0.1854" stop-color="#85A9D8"/>
<stop offset="0.2796" stop-color="#5D8FCF"/>
<stop offset="0.3543" stop-color="#457EC9"/>
<stop offset="0.4" stop-color="#3C78C7"/>
<stop offset="0.9" stop-color="#2E5C99"/>
</linearGradient>
</defs>
</svg>
