<svg width="40" height="40" viewBox="0 0 40 40" fill="none" xmlns="http://www.w3.org/2000/svg">
<g clip-path="url(#clip0_90_100)">
<path d="M27.3 3.15435L33.3 2.99902L22.9 21.6381H5C5 21.6381 11.2 19.2046 13.6 17.1336C15.45 15.5286 23.25 6.20908 24.1 5.07003C25.1 3.6721 26.55 3.2579 27.3 3.15435Z" fill="url(#paint0_linear_90_100)"/>
<path d="M8.55 29.2495L6 24.9004H22.9L30.2 37.9995C30.2 37.9995 26.05 34.427 23.65 33.5468C21.8 32.8738 12.25 30.9581 11.15 30.8028C9.8 30.5957 8.95 29.7673 8.55 29.2495Z" fill="url(#paint1_linear_90_100)"/>
<path d="M34.75 32.3027L32.75 36.0823L25.55 23.1902L31.75 12.0586C31.75 12.0586 31 16.7184 31.4 18.9447C31.7 20.6533 34.4 28.7302 34.75 29.6104C35.2 30.8012 34.95 31.8367 34.75 32.3027Z" fill="url(#paint2_linear_90_100)"/>
</g>
<defs>
<linearGradient id="paint0_linear_90_100" x1="16.4976" y1="10.9526" x2="26.0312" y2="15.5151" gradientUnits="userSpaceOnUse">
<stop stop-color="#FAAF4C"/>
<stop offset="0.5944" stop-color="#F79C2E"/>
<stop offset="1" stop-color="#F6921E"/>
</linearGradient>
<linearGradient id="paint1_linear_90_100" x1="25.7058" y1="45.3233" x2="11.3992" y2="20.8977" gradientUnits="userSpaceOnUse">
<stop stop-color="#72A4D7"/>
<stop offset="1" stop-color="#1A1F4A"/>
</linearGradient>
<linearGradient id="paint2_linear_90_100" x1="39.4039" y1="37.2989" x2="25.0963" y2="12.8734" gradientUnits="userSpaceOnUse">
<stop stop-color="#72A4D7"/>
<stop offset="1" stop-color="#1A1F4A"/>
</linearGradient>
<clipPath id="clip0_90_100">
<rect width="30" height="35" fill="white" transform="translate(5 3)"/>
</clipPath>
</defs>
</svg>
