<svg width="40" height="40" viewBox="0 0 40 40" fill="none" xmlns="http://www.w3.org/2000/svg">
<path fill-rule="evenodd" clip-rule="evenodd" d="M27.5475 7.06348C31.7033 7.06348 35.0982 10.3705 35.0982 14.4386C35.0982 18.5066 31.7033 21.8137 27.5475 21.8137C23.3913 21.8137 19.9967 18.5066 19.9967 14.4386C19.9967 10.3705 23.3913 7.06348 27.5475 7.06348Z" fill="#00A651"/>
<path fill-rule="evenodd" clip-rule="evenodd" d="M33.9271 18.3618C33.898 18.4204 33.8685 18.4496 33.8393 18.4788C33.6636 18.3031 33.4883 18.1569 33.2831 18.0104C31.8199 16.9276 29.7713 16.2837 27.547 16.2837C25.2936 16.2837 23.2741 16.9273 21.8105 18.0104C21.6057 18.1569 21.4009 18.3031 21.2252 18.4788C21.196 18.4496 21.196 18.4204 21.1669 18.3618C21.3422 18.2156 21.5179 18.0691 21.7227 17.9229C23.2155 16.8401 25.2641 16.167 27.5467 16.167C29.8001 16.167 31.8487 16.8401 33.3415 17.9229C33.5466 18.0691 33.7518 18.2156 33.9271 18.3618Z" fill="white"/>
<path fill-rule="evenodd" clip-rule="evenodd" d="M32.4055 20.0596C32.3764 20.0888 32.3469 20.0888 32.3177 20.1183C32.2882 20.0891 32.259 20.0596 32.2296 20.0304C31.0298 18.889 29.3616 18.1867 27.547 18.1867C25.7033 18.1867 24.0643 18.889 22.8645 20.0304C22.8059 20.0596 22.7764 20.0891 22.7475 20.1183C22.718 20.0891 22.6889 20.0891 22.6594 20.0596C22.6889 20.0009 22.7475 19.9718 22.7764 19.9426C24.0057 18.8011 25.6738 18.0693 27.547 18.0693C29.3908 18.0693 31.0884 18.8011 32.3177 19.9426C32.3469 19.9718 32.3764 20.0009 32.4055 20.0596Z" fill="white"/>
<path fill-rule="evenodd" clip-rule="evenodd" d="M29.9473 21.4341C29.9178 21.4341 29.8592 21.434 29.8303 21.4632C29.7422 21.3462 29.6547 21.2289 29.5668 21.1414C29.069 20.5269 28.3375 20.1756 27.5474 20.1756C26.7573 20.1756 26.0255 20.5266 25.4988 21.1414C25.4106 21.2292 25.3231 21.3462 25.2353 21.4632C25.2058 21.434 25.1767 21.4341 25.1472 21.4341C25.2353 21.2876 25.3228 21.1706 25.4106 21.0536C25.9668 20.4391 26.6986 20.0586 27.5474 20.0586C28.3667 20.0586 29.1277 20.4391 29.6547 21.0536C29.7717 21.1706 29.8592 21.2876 29.9473 21.4341Z" fill="white"/>
<path fill-rule="evenodd" clip-rule="evenodd" d="M33.8689 10.4307C33.8984 10.4598 33.9275 10.4893 33.9275 10.5185C33.7522 10.6942 33.5471 10.8403 33.3422 11.016C31.8494 12.0988 29.8008 12.7719 27.5474 12.7719C25.2645 12.7719 23.2159 12.0988 21.7234 11.016C21.5186 10.8403 21.3429 10.6942 21.1381 10.5185C21.1676 10.4893 21.1968 10.4598 21.1968 10.4307C21.4016 10.6063 21.5773 10.7525 21.8113 10.899C23.2749 11.9818 25.2943 12.6549 27.5477 12.6549C29.772 12.6549 31.8206 11.9818 33.2839 10.899C33.4887 10.7525 33.6935 10.606 33.8689 10.4307Z" fill="white"/>
<path fill-rule="evenodd" clip-rule="evenodd" d="M32.347 8.7627C32.3765 8.79186 32.4056 8.82136 32.4348 8.85053C32.4056 8.87969 32.347 8.93836 32.3181 8.96752C31.0888 10.1382 29.3912 10.8405 27.5475 10.8405C25.6742 10.8405 24.0061 10.1378 22.7768 8.96752C22.7181 8.93836 22.689 8.87969 22.6306 8.85053C22.6598 8.82136 22.6893 8.79186 22.7184 8.7627C22.7771 8.82136 22.8066 8.85052 22.8649 8.87969C24.0647 10.0212 25.7037 10.7235 27.5475 10.7235C29.3621 10.7235 31.0302 10.0212 32.23 8.90886C32.2595 8.85085 32.3178 8.82136 32.347 8.7627Z" fill="white"/>
<path fill-rule="evenodd" clip-rule="evenodd" d="M29.8592 7.41602C29.8887 7.44518 29.9178 7.44518 29.9762 7.44518C29.8884 7.59168 29.7714 7.73784 29.6544 7.85484C29.1277 8.46932 28.3664 8.84981 27.5471 8.84981C26.6983 8.84981 25.9668 8.46932 25.4103 7.85484C25.2937 7.73784 25.2055 7.59135 25.1177 7.44518C25.1468 7.44518 25.1763 7.44518 25.2347 7.41602C25.3225 7.56251 25.41 7.67951 25.4982 7.7965C26.0248 8.38182 26.7566 8.7623 27.5468 8.7623C28.3369 8.7623 29.0687 8.38182 29.5662 7.7965C29.6835 7.67918 29.7717 7.56218 29.8592 7.41602Z" fill="white"/>
<path fill-rule="evenodd" clip-rule="evenodd" d="M35.0982 14.4121C35.0982 14.4121 35.0982 14.4121 35.0982 14.4413C35.0982 14.4704 35.0982 14.4996 35.0982 14.5291H19.9967C19.9967 14.4999 19.9967 14.4708 19.9967 14.4413C19.9967 14.4118 19.9967 14.4121 19.9967 14.4121H35.0982Z" fill="white"/>
<path fill-rule="evenodd" clip-rule="evenodd" d="M22.2501 16.2518H23.1576V12.5347H22.2501V11.4814H31.4693C32.5229 11.7446 33.4009 13.1201 31.9668 14.1154V14.2615C32.4935 14.4372 32.9034 14.9642 32.8156 15.7543C32.7569 16.5444 32.4351 17.0714 31.4696 17.3346H22.2501V16.2518ZM29.3326 11.9789C28.8642 12.8572 26.6695 12.6521 25.9085 12.0376V11.9789H29.3326ZM25.9085 12.6812C26.816 13.0031 28.8059 12.8569 29.7717 12.4764C29.9179 13.0031 29.8304 13.764 29.4204 13.9102H25.9085V12.6812ZM29.4787 16.6031C28.2203 16.047 26.7861 16.1348 25.9082 16.3983V16.6323H29.4201C29.4496 16.6323 29.4787 16.6031 29.4787 16.6031ZM25.9085 15.8421C26.4352 15.6665 28.8059 15.7835 29.889 15.9883C30.0352 15.4322 29.889 14.6712 29.4204 14.525H25.9085V15.8421Z" fill="white"/>
<path fill-rule="evenodd" clip-rule="evenodd" d="M20.3477 4.07869C18.3869 5.0445 17.0989 6.50778 17.0698 8.20539C14.2897 10.1662 15.5478 14.7025 16.8941 17.2194C17.3329 16.7219 17.0406 15.3465 16.7771 14.3807C16.631 13.7954 16.4845 10.9563 17.4211 8.73237C18.1821 7.00559 19.7329 5.45415 21.7231 4.02036C23.4207 3.90336 26.0255 4.28385 27.3423 5.33748C19.0014 6.12729 16.5431 14.849 21.7523 20.3512C23.1572 21.8436 25.001 22.6046 26.7861 23.8047C25.3228 24.2439 23.5377 24.0682 21.6645 24.3314C19.8207 24.5654 19.0014 26.3216 20.3182 27.6676C20.757 27.6676 21.05 26.9653 21.4596 26.7313C21.6353 26.6143 22.0744 26.6726 22.4254 27.0823C21.0205 26.9069 20.8452 29.5117 23.0986 29.8335C23.2156 29.7168 22.9229 29.5409 22.9524 29.2777C22.9816 29.0142 23.3912 28.6632 23.4791 29.0434C23.5082 29.1315 23.5377 29.2482 23.6252 29.2777C23.7422 29.3072 23.7714 29.1899 23.8009 29.0729C23.8596 28.8972 24.2984 28.8972 24.2984 29.1315C24.2984 29.3655 24.3865 29.3364 24.4154 29.3364C24.5324 29.3364 24.5324 29.2777 24.5615 29.1607C24.6202 28.985 24.9715 29.0729 24.9715 29.1902C25.0007 29.4242 25.4103 29.5412 25.6447 29.5704C27.2836 29.746 30.6202 29.3364 31.3225 30.5362C31.5565 30.39 31.4978 30.1557 32.2296 30.0387C32.9906 29.9505 34.2199 30.3313 34.6295 30.7118C35.0392 31.1215 35.3027 31.8529 34.8049 32.0578C34.7757 31.1215 34.3366 31.209 33.3711 31.2971C32.3466 31.4141 30.8538 32.2046 33.2829 32.0578C33.0194 32.3213 32.4928 32.5844 31.644 32.4678C30.9417 32.4091 30.7952 32.9066 31.5561 32.9944C32.0245 33.0531 33.0194 33.0236 33.3707 32.6431C33.6926 32.2629 33.8391 32.8187 33.6342 32.9649C32.8441 33.4916 31.7023 33.6676 30.3855 33.6384C28.8927 33.6384 27.1076 34.3407 25.5568 35.0722C25.1469 35.2773 25.235 35.5405 24.8834 35.4822C24.6785 35.4527 24.5907 35.1892 24.415 35.1892C22.3956 36.0675 20.464 36.1255 18.4154 35.8623C16.1325 35.5697 14.2887 34.2234 12.1523 32.8187C13.4986 32.5553 14.0547 32.2334 14.289 31.5895C13.5864 32.0578 11.6843 32.6139 10.455 31.326C11.0111 31.4141 12.1818 31.5016 12.4158 30.7993C13.1767 30.6823 13.3524 30.1262 13.1767 29.98C10.9525 31.4728 9.22571 30.7115 8.90356 29.6582C9.16705 29.746 10.1915 30.1557 10.7473 29.6582C11.5666 29.5995 12.1228 28.8972 12.0058 28.6924C10.4838 29.5998 7.99642 29.7755 7.26461 27.8731C7.29378 27.9317 8.78656 28.6337 9.63503 27.9609C10.5133 27.9901 11.3618 27.1999 11.274 26.9951C10.5713 27.3464 6.03532 28.0487 6.12315 25.1222C6.15232 25.2687 7.32294 26.4101 8.25958 25.9415C9.43021 26.3511 10.5425 25.9123 10.4252 25.6488C8.31791 25.444 7.43994 25.5026 6.5328 24.8878C5.77183 24.3904 5.18651 23.5124 5.39167 22.4001C6.21098 23.4829 6.59147 23.6002 7.49861 23.6002C8.64007 24.1564 9.86936 24.1855 10.0742 24.0099C9.75236 23.7759 8.90356 23.571 7.38161 23.1319C5.91832 22.6927 4.57203 21.0833 5.12818 19.2687C5.80132 20.8198 6.26964 21.2295 7.35244 21.2586C8.66956 22.1074 9.84019 22.3709 10.3085 22.2539C9.86968 21.8443 8.72822 21.3173 8.11341 21.1711C6.26964 20.7028 4.80635 19.2687 5.53816 16.4591C5.91865 17.8641 6.50396 18.859 7.46976 18.8882C8.11374 19.6783 9.10871 20.1175 9.84052 20.2931C10.2793 20.6441 10.748 20.9076 11.0403 20.8785C11.0111 19.854 8.61123 19.4735 7.23577 18.1859C6.09464 17.1323 5.36283 13.9422 7.00178 12.5081C6.85528 14.8202 7.0896 15.2885 8.02591 15.9321C8.43557 17.1906 9.31387 18.0686 10.0745 18.2734C11.2451 19.21 11.4208 19.6197 11.9475 19.8832C11.3621 18.3321 8.81605 16.9566 8.08425 15.3468C6.73796 12.2741 8.81605 8.99586 10.2207 8.90836C9.4597 9.99116 8.72822 11.2204 9.72319 12.9177C9.40104 14.381 10.045 15.376 11.0692 16.1665C11.4788 16.8104 12.0645 17.9224 12.9716 18.5372C12.3863 15.8446 11.5666 16.3716 10.5425 13.3277C9.6642 10.8403 10.9522 6.33311 15.0789 5.68913C13.2934 7.06458 12.6206 7.82556 12.7959 10.3133C11.7718 11.9523 12.3863 13.2694 13.2056 14.8788C13.7909 16.079 14.3762 17.3371 15.0202 18.0689C15.0789 17.0153 14.7862 16.0203 14.23 14.8202C13.6156 13.5912 13.2934 12.1276 13.4986 10.5765C13.8797 7.44442 16.1335 4.22519 20.3477 4.07869ZM28.7472 31.1211C28.9521 31.1211 29.0982 31.2673 29.0982 31.443C29.0982 31.5308 29.069 31.5891 29.0104 31.6478C29.2739 31.5891 29.4787 31.3551 29.6835 30.9452C28.6886 31.4138 28.2202 30.7112 27.6936 30.9746C27.9866 31.2965 28.2497 31.5013 28.4837 31.5891C28.4546 31.56 28.4251 31.5013 28.4251 31.443C28.4251 31.2673 28.5719 31.1211 28.7472 31.1211Z" fill="#D2AB67"/>
</svg>
