<svg width="40" height="40" viewBox="0 0 40 40" fill="none" xmlns="http://www.w3.org/2000/svg">
<path d="M12.0999 23.0009C13.1809 26.4335 16.3929 28.9235 20.1884 28.9235C24.871 28.9235 28.6665 25.1332 28.6665 20.4584C28.6665 15.9582 25.1524 12.2779 20.7137 12.0082L12.0999 23.0009Z" fill="white"/>
<path d="M23.5881 8L4 33H28.1861L36.9023 8H23.5881ZM20.1857 29.27C16.4754 29.27 13.2222 26.9837 11.9421 23.5483V23.5468L21.185 11.7506H21.1871C25.5982 12.251 28.9886 15.9945 28.9886 20.4776C28.9893 25.3249 25.0381 29.27 20.1857 29.27Z" fill="#00A651"/>
<path d="M21.1878 11.7512L20.9923 11.9989L20.8353 12.2005L20.7948 12.2516L20.6597 12.4248C21.6207 12.9039 22.4764 13.5435 23.1929 14.3051C22.8439 14.5677 22.4658 14.7856 22.0642 14.9482C21.6825 14.0737 21.2098 13.2326 20.6448 12.4412L20.4642 12.6747C20.9902 13.4256 21.4373 14.2185 21.7969 15.044C21.33 15.2044 20.8331 15.2924 20.3249 15.3066V12.8528L20.0421 13.2141V15.3017C19.5516 15.2868 19.0683 15.2002 18.607 15.0433C18.5964 15.0426 17.9368 15.9 17.9368 15.9C17.7271 16.5026 17.5572 17.1152 17.4314 17.7391C17.1641 17.6909 16.899 17.6277 16.6325 17.5617L16.4413 17.808C16.7512 17.8875 17.0675 17.9563 17.3788 18.0152C17.2452 18.7776 17.1698 19.5534 17.162 20.3384H14.7099L14.7212 20.0006L14.2358 20.6209H14.4284C14.4469 21.6643 14.6345 22.6708 14.9679 23.612C14.2827 23.8633 13.6167 24.165 12.9749 24.5149C12.7176 24.0535 12.5008 23.568 12.333 23.0527L12.1383 23.299L11.9414 23.5489C13.2215 26.9843 16.4747 29.2706 20.1849 29.2706C25.0381 29.2706 28.9885 25.3255 28.9885 20.4783C28.9892 15.9966 25.5996 12.2516 21.1878 11.7512ZM28.4498 20.3384H25.9415C25.9251 19.3042 25.7346 18.297 25.3927 17.3502C26.0808 17.096 26.7489 16.7958 27.3957 16.4459C28.0475 17.6028 28.427 18.9309 28.4498 20.3384ZM17.4449 20.6209H20.0413V22.6808C19.2382 22.6893 18.4414 22.7645 17.656 22.8987C17.5217 22.1527 17.452 21.3925 17.4449 20.6209ZM20.3249 18.2772C21.126 18.2693 21.9242 18.1941 22.7117 18.06C22.8439 18.8074 22.9157 19.569 22.9242 20.3384H20.3242L20.3249 18.2772ZM22.9249 20.6209C22.9157 21.3904 22.8468 22.1527 22.7174 22.8937C21.927 22.761 21.1288 22.6865 20.3249 22.6808V20.6209H22.9249ZM17.7065 23.1748C18.4755 23.0435 19.2574 22.9697 20.0421 22.9633V25.378C19.4948 25.3915 18.9617 25.4909 18.4606 25.6683C18.1287 24.8627 17.877 24.0301 17.7065 23.1748ZM18.1955 25.7656C17.7591 25.943 17.3532 26.1794 16.9801 26.464C16.2778 25.674 15.7135 24.7704 15.3261 23.7796C16.0113 23.5439 16.7128 23.3544 17.4271 23.2188C17.602 24.094 17.8571 24.9458 18.1955 25.7656ZM20.3249 22.9597C21.1096 22.969 21.8922 23.0421 22.6655 23.172C22.4935 24.0259 22.2405 24.8592 21.91 25.6612C21.4067 25.4888 20.8722 25.3901 20.3249 25.3773V22.9597ZM22.9413 23.2167C23.6563 23.3523 24.3614 23.5411 25.0459 23.7774C24.6599 24.7676 24.0977 25.674 23.3926 26.4647C23.0209 26.1744 22.6115 25.9409 22.1744 25.7613C22.5127 24.9415 22.77 24.0919 22.9413 23.2167ZM22.996 22.9406C23.1296 22.1839 23.2007 21.4067 23.2078 20.6209H25.66C25.6458 21.6303 25.4638 22.602 25.1411 23.5098C24.4403 23.2678 23.7231 23.0776 22.996 22.9406ZM23.2078 20.3384C23.2 19.5527 23.1254 18.7761 22.991 18.0152C23.7153 17.8797 24.4311 17.6901 25.1283 17.4474C25.461 18.3652 25.6443 19.3397 25.66 20.3391L23.2078 20.3384ZM27.2528 16.2024C26.6216 16.5459 25.9649 16.8419 25.2904 17.0868C24.8924 16.0782 24.3209 15.1483 23.6037 14.337C23.9179 14.0659 24.2065 13.7571 24.4566 13.4122C25.6017 14.1035 26.5598 15.0639 27.2528 16.2024ZM20.9604 12.263C22.1331 12.3723 23.2341 12.7272 24.2107 13.2716C23.9783 13.5903 23.7075 13.8785 23.4118 14.1269C22.7153 13.3852 21.8879 12.7499 20.9604 12.263ZM23.382 14.5159C24.0814 15.3031 24.6386 16.2059 25.026 17.1862C24.3472 17.4197 23.6478 17.6057 22.9391 17.7384C22.765 16.8703 22.5113 16.0214 22.1737 15.2058C22.6065 15.0305 23.0131 14.7977 23.382 14.5159ZM21.91 15.3052C22.2398 16.1037 22.4914 16.9342 22.6641 17.7846C21.8929 17.9144 21.1096 17.9876 20.3257 17.9939V15.5877C20.8722 15.5742 21.4074 15.4763 21.91 15.3052ZM18.4684 15.2946C18.9731 15.4713 19.5012 15.5693 20.0421 15.5849V17.9947C19.2574 17.9876 18.4791 17.9144 17.71 17.7853C17.882 16.9342 18.1358 16.1023 18.4684 15.2946ZM17.6574 18.06C18.4435 18.1934 19.241 18.2672 20.0421 18.2772V20.3391H17.4477C17.4534 19.569 17.5252 18.8088 17.6574 18.06ZM14.712 20.6209H17.1627C17.1705 21.4109 17.243 22.1839 17.3767 22.9406C16.6467 23.0797 15.9317 23.2735 15.2323 23.5148C14.911 22.6055 14.7269 21.6324 14.712 20.6209ZM15.0624 23.8789C15.4597 24.8975 16.0369 25.8309 16.7604 26.6436C16.4505 26.9126 16.1684 27.2178 15.9224 27.56C14.7802 26.8764 13.8107 25.921 13.1113 24.7612C13.7389 24.4177 14.3929 24.1252 15.0624 23.8789ZM16.1684 27.6984C16.3987 27.3825 16.6609 27.1036 16.9495 26.853C17.6453 27.5877 18.4691 28.2102 19.396 28.6942C18.2424 28.5856 17.1485 28.2371 16.1684 27.6984ZM17.1705 26.6763C17.5209 26.408 17.8991 26.1929 18.3049 26.0254C18.6937 26.9091 19.1721 27.7587 19.7471 28.5601C18.7627 28.081 17.8977 27.4386 17.1705 26.6763ZM20.0421 28.487C19.4542 27.6813 18.9617 26.8232 18.5701 25.926C19.037 25.7656 19.5331 25.674 20.0421 25.6591V28.487ZM20.3249 25.6591C20.8353 25.674 21.3321 25.7627 21.8012 25.9246C21.4089 26.8239 20.9149 27.6842 20.3249 28.4941V25.6591ZM22.0692 26.0232C22.4736 26.1872 22.8553 26.4072 23.2028 26.6727C22.4771 27.4379 21.6072 28.081 20.6235 28.5608C21.1978 27.7594 21.6804 26.9091 22.0692 26.0232ZM20.9703 28.6978C21.8993 28.2109 22.7273 27.5877 23.4253 26.8509C23.7125 27.0979 23.9755 27.3776 24.2029 27.6899C23.2291 28.2329 22.1346 28.5856 20.9703 28.6978ZM24.4495 27.55C24.2029 27.2093 23.9222 26.9055 23.613 26.6408C24.3358 25.8273 24.9144 24.8932 25.311 23.8754C25.9805 24.1224 26.6309 24.412 27.2592 24.7555C26.5627 25.8955 25.5981 26.8594 24.4495 27.55ZM27.3971 24.5092C26.756 24.1607 26.0907 23.8591 25.4077 23.6106C25.7389 22.6666 25.9251 21.6636 25.9415 20.6209H28.4498C28.427 22.0313 28.0475 23.3544 27.3971 24.5092Z" fill="#F15A22"/>
<path d="M21.0478 22.4503L23.1261 23.4042L22.1417 21.299L24.827 20.641V20.3237L22.1417 19.6558L23.1659 17.5072L21.0343 18.5052L20.369 14.6914H19.993L19.3406 18.4981L17.2182 17.5072L18.2147 19.66L15.5429 20.3237V20.6353L18.2147 21.2819L17.2495 23.4092L19.3342 22.4638L19.9881 26.2719L20.3548 26.269L21.0478 22.4503Z" fill="white"/>
<path d="M20.1913 14.9021L20.8865 18.7968L22.7551 17.9145L21.8723 19.7785L24.6727 20.4769L21.8723 21.1739L22.7216 23.001L20.8865 22.1662L20.1792 26.0233L19.4898 22.1662L17.6531 23.0038L18.4975 21.1739L15.7042 20.4769L18.4975 19.7785L17.6247 17.9145L19.4898 18.7897L20.1913 14.9021Z" fill="#00A651"/>
</svg>
