<svg width="40" height="40" viewBox="0 0 40 40" fill="none" xmlns="http://www.w3.org/2000/svg">
<g clip-path="url(#clip0_90_196)">
<path d="M122.006 28.9338L121.303 29.257C121.271 29.1341 121.206 29.0298 121.107 28.9432C121.007 28.8565 120.893 28.8137 120.765 28.8137C120.624 28.8137 120.488 28.8593 120.356 28.9525C120.225 29.0447 120.15 29.1592 120.13 29.2943C120.118 29.3502 120.116 29.4014 120.126 29.447C120.135 29.4936 120.159 29.5374 120.198 29.5812C120.236 29.624 120.271 29.6613 120.304 29.692C120.336 29.7227 120.39 29.7572 120.467 29.7935C120.544 29.8308 120.6 29.8587 120.635 29.8773C120.67 29.895 120.74 29.9267 120.841 29.9695C120.944 30.0133 121.015 30.0403 121.054 30.0534C121.355 30.1819 121.584 30.3393 121.741 30.5246C121.898 30.709 121.949 30.9689 121.89 31.3014C121.826 31.7084 121.622 32.0456 121.279 32.3138C120.936 32.582 120.553 32.7162 120.13 32.7162C119.752 32.7162 119.438 32.6193 119.188 32.4256C118.938 32.2309 118.78 31.9608 118.716 31.6153L119.448 31.3386C119.517 31.5659 119.61 31.7391 119.726 31.8565C119.842 31.9729 120.018 32.0316 120.255 32.0316C120.461 32.0316 120.643 31.9701 120.804 31.8472C120.963 31.7242 121.06 31.5631 121.092 31.3666C121.117 31.2176 121.089 31.089 121.006 30.9773C120.922 30.8664 120.81 30.7808 120.669 30.7184C120.528 30.6569 120.375 30.588 120.213 30.5107C120.048 30.4334 119.898 30.3551 119.76 30.2741C119.622 30.1949 119.516 30.0757 119.443 29.9183C119.368 29.7618 119.348 29.5746 119.38 29.3585C119.444 29.0018 119.625 28.7066 119.923 28.4756C120.221 28.2446 120.56 28.1291 120.938 28.1291C121.188 28.1291 121.413 28.2046 121.611 28.3555C121.81 28.5073 121.942 28.7001 122.006 28.9338ZM118.206 30.5798H114.657C114.593 30.9868 114.676 31.3305 114.907 31.6117C115.138 31.8921 115.468 32.0318 115.897 32.0318C116.469 32.0318 116.974 31.7328 117.418 31.1349L118.014 31.4962C117.732 31.8837 117.394 32.1845 116.998 32.3969C116.604 32.6102 116.18 32.7163 115.725 32.7163C115.064 32.7163 114.566 32.5021 114.228 32.0737C113.892 31.6453 113.775 31.1134 113.878 30.4782C113.994 29.8058 114.281 29.246 114.743 28.7999C115.206 28.3519 115.779 28.1293 116.466 28.1293C116.811 28.1293 117.118 28.1954 117.384 28.3277C117.649 28.4609 117.85 28.6406 117.985 28.8688C118.12 29.097 118.209 29.3587 118.255 29.6549C118.299 29.9511 118.283 30.2594 118.206 30.5798ZM114.792 29.9511H117.494C117.494 29.6307 117.387 29.3606 117.172 29.1417C116.957 28.9229 116.685 28.813 116.354 28.813C116.024 28.813 115.707 28.9247 115.402 29.1464C115.098 29.368 114.895 29.6363 114.792 29.9511ZM110.338 28.2496L110.252 28.7767H110.271C110.674 28.3455 111.143 28.1294 111.676 28.1294C111.97 28.1294 112.215 28.1797 112.411 28.2822C112.607 28.3837 112.741 28.5206 112.815 28.6929C112.889 28.8661 112.934 29.0664 112.95 29.2946C112.966 29.5228 112.949 29.763 112.897 30.0164L112.474 32.5963H111.704L112.108 30.1458C112.133 29.9791 112.151 29.8413 112.161 29.7342C112.171 29.6261 112.169 29.5069 112.156 29.3775C112.144 29.248 112.11 29.1465 112.055 29.0729C112 28.9984 111.917 28.9369 111.805 28.8876C111.693 28.8382 111.55 28.813 111.377 28.813C111.172 28.813 110.991 28.8503 110.833 28.9248C110.676 28.9984 110.551 29.0878 110.458 29.1921C110.365 29.2974 110.284 29.4333 110.213 29.5991C110.142 29.7658 110.091 29.9158 110.059 30.048C110.027 30.1803 109.995 30.3424 109.963 30.5333L109.626 32.5963H108.857L109.569 28.2496H110.338ZM107.956 28.2496L107.247 32.5963H106.481L107.19 28.2496H107.956ZM107.52 26.2425C107.645 26.1381 107.782 26.085 107.931 26.085C108.082 26.085 108.202 26.1381 108.291 26.2425C108.38 26.3468 108.412 26.4706 108.387 26.6122C108.367 26.7603 108.296 26.8851 108.171 26.9866C108.047 27.0881 107.91 27.1394 107.76 27.1394C107.609 27.1394 107.49 27.0881 107.401 26.9866C107.311 26.8851 107.276 26.7603 107.295 26.6122C107.321 26.4706 107.396 26.3468 107.52 26.2425ZM106.164 24.9662L104.904 32.596H104.134L105.394 24.9662H106.164ZM102.374 28.2496L102.297 28.7208H102.317C102.515 28.5169 102.692 28.3678 102.846 28.2728C103 28.1769 103.191 28.1294 103.423 28.1294C103.634 28.1294 103.852 28.1974 104.077 28.3325L103.595 29.0077C103.59 29.0012 103.57 28.9863 103.538 28.9611C103.505 28.9369 103.483 28.9202 103.47 28.9108C103.458 28.9006 103.438 28.8885 103.408 28.8736C103.379 28.8587 103.355 28.8475 103.336 28.841C103.317 28.8354 103.293 28.8289 103.264 28.8224C103.235 28.8168 103.204 28.813 103.172 28.813C103.012 28.813 102.866 28.854 102.735 28.9341C102.604 29.0142 102.501 29.1064 102.427 29.2117C102.353 29.316 102.286 29.451 102.225 29.6178C102.164 29.7845 102.121 29.9232 102.095 30.0341C102.07 30.1458 102.044 30.2744 102.018 30.4225L101.662 32.5963H100.893L101.605 28.2496H102.374ZM100.036 28.2496L99.3245 32.5963H98.5554L99.2674 28.2496H100.036ZM99.5987 26.2425C99.7236 26.1381 99.8621 26.085 100.012 26.085C100.163 26.085 100.283 26.1381 100.373 26.2425C100.463 26.3468 100.496 26.4706 100.469 26.6122C100.45 26.7603 100.378 26.8851 100.252 26.9866C100.128 27.0881 99.99 27.1394 99.8398 27.1394C99.6887 27.1394 99.5686 27.0881 99.4785 26.9866C99.3885 26.8851 99.3536 26.7603 99.373 26.6122C99.3991 26.4706 99.4737 26.3468 99.5987 26.2425ZM97.6998 28.2496L96.9878 32.5963H96.2178L96.3146 31.9955H96.2952C95.8206 32.4761 95.2627 32.7164 94.6214 32.7164C94.1923 32.7164 93.8281 32.6084 93.5298 32.3923C93.2315 32.1772 93.0251 31.8978 92.9099 31.555C92.7936 31.2132 92.7684 30.8388 92.8324 30.4318C92.9418 29.791 93.2295 29.2461 93.6983 28.7991C94.1662 28.352 94.7299 28.1294 95.3915 28.1294C95.6927 28.1294 95.9669 28.1937 96.2139 28.3231C96.4609 28.4526 96.6614 28.6342 96.8144 28.8689H96.8338L96.9297 28.2496H97.6998ZM95.3625 28.813C94.9266 28.813 94.5459 28.9677 94.2224 29.2759C93.8988 29.5842 93.7012 29.9512 93.6305 30.3768C93.554 30.8267 93.6218 31.2151 93.833 31.542C94.0451 31.8689 94.3812 32.0319 94.8433 32.0319C95.3169 32.0319 95.7131 31.8735 96.0308 31.555C96.3485 31.2383 96.5451 30.8481 96.6226 30.3861C96.6924 29.9353 96.6159 29.5609 96.3911 29.262C96.1674 28.963 95.8245 28.813 95.3625 28.813ZM122.279 18.2607H121.18V19.4295C120.687 18.5112 119.89 18.0381 118.804 18.0381C116.996 18.0381 115.766 19.3047 115.766 21.391C115.766 23.4242 117.011 24.7477 118.863 24.7477C119.862 24.7477 120.687 24.2587 121.208 23.3534V24.4813H122.279V18.2607ZM121.208 21.4338C121.208 22.8672 120.398 23.6878 119.094 23.6878C117.72 23.6878 116.939 22.8393 116.939 21.337C116.939 19.9166 117.72 19.0961 119.051 19.0961C120.296 19.0961 121.208 19.9865 121.208 21.4338ZM113.783 24.4814H114.883V20.2511C114.883 18.8457 114.015 18.0382 112.581 18.0382C111.597 18.0382 110.845 18.4414 110.28 19.3048C109.904 18.4694 109.151 18.0382 108.109 18.0382C107.139 18.0382 106.402 18.4275 105.881 19.221V18.2608H104.78V24.4814H105.881V21.2672C105.881 21.1145 105.866 20.9608 105.866 20.8211C105.866 20.348 105.924 19.9586 106.199 19.6252C106.547 19.1931 107.081 18.9565 107.675 18.9565C108.775 18.9565 109.282 19.5684 109.282 20.8211V24.4814H110.381V21.2672C110.381 21.1275 110.367 21.0018 110.367 20.877C110.367 20.3619 110.44 19.9726 110.716 19.6252C111.061 19.1931 111.584 18.9565 112.176 18.9565C113.276 18.9565 113.783 19.5684 113.783 20.8211V24.4814ZM103.362 18.2607H102.263V19.4295C101.771 18.5112 100.974 18.0381 99.8895 18.0381C98.0801 18.0381 96.849 19.3047 96.849 21.391C96.849 23.4242 98.0937 24.7477 99.9457 24.7477C100.945 24.7477 101.771 24.2587 102.292 23.3534V24.4813H103.362V18.2607ZM102.292 21.4338C102.292 22.8672 101.481 23.6878 100.177 23.6878C98.8037 23.6878 98.022 22.8393 98.022 21.337C98.022 19.9166 98.8037 19.0961 100.135 19.0961C101.379 19.0961 102.292 19.9865 102.292 21.4338ZM93.0711 24.4814H94.1714V21.447C94.1714 19.8199 94.7516 19.0124 95.9227 19.0124C96.1251 19.0124 96.3566 19.0543 96.6036 19.1372L96.9795 18.1769C96.7334 18.094 96.4874 18.0521 96.2268 18.0521C95.2418 18.0521 94.6344 18.4973 94.0552 19.5554V18.2608H93.0711V24.4814ZM85.0966 21.3915C85.0966 22.2968 85.4444 23.1043 86.1243 23.7572C86.7907 24.3989 87.6586 24.7482 88.6137 24.7482C89.5552 24.7482 90.4231 24.384 91.1041 23.7572C91.7695 23.1173 92.1308 22.2968 92.1308 21.3915C92.1308 20.488 91.7695 19.6526 91.1041 19.0258C90.4231 18.3859 89.5688 18.0385 88.6137 18.0385C87.6586 18.0385 86.7907 18.372 86.1243 19.0118C85.4444 19.6526 85.0966 20.488 85.0966 21.3915ZM86.2696 21.3915C86.2696 20.0698 87.3119 19.0407 88.6137 19.0407C89.902 19.0407 90.9442 20.0698 90.9442 21.3915C90.9442 22.714 89.902 23.7441 88.6137 23.7441C87.3254 23.7441 86.2696 22.714 86.2696 21.3915ZM78.352 24.4814H79.4523V21.2672C79.4523 20.5845 79.4523 20.0704 79.8281 19.6252C80.1904 19.1931 80.7542 18.9565 81.406 18.9565C82.5636 18.9565 83.1283 19.5684 83.1283 20.8211V24.4814H84.2286V20.2511C84.2286 18.8457 83.3026 18.0382 81.7974 18.0382C80.7832 18.0382 80.0015 18.4135 79.4523 19.221V18.2608H78.352V24.4814ZM76.9337 18.2607H75.8343V19.4295C75.3422 18.5112 74.546 18.0381 73.4611 18.0381C71.6517 18.0381 70.4206 19.3047 70.4206 21.391C70.4206 23.4242 71.6653 24.7477 73.5173 24.7477C74.517 24.7477 75.3422 24.2587 75.8633 23.3534V24.4813H76.9337V18.2607ZM75.8633 21.4338C75.8633 22.8672 75.0526 23.6878 73.7488 23.6878C72.3753 23.6878 71.5936 22.8393 71.5936 21.337C71.5936 19.9166 72.3753 19.0961 73.7062 19.0961C74.9509 19.0961 75.8633 19.9865 75.8633 21.4338ZM66.0785 18.9426V15.6167H66.6723C68.4672 15.6167 69.3506 15.8951 69.3506 17.3425C69.3506 18.72 68.4536 18.9426 66.6723 18.9426H66.0785ZM66.0785 20.0146H67.02C68.0904 20.0146 68.9302 19.9867 69.6247 19.5135C70.2766 19.0683 70.6815 18.2469 70.6815 17.2727C70.6815 16.2984 70.2766 15.477 69.6247 15.0318C68.9302 14.5586 68.0759 14.5316 67.02 14.5316H64.8484V24.4815H66.0785V20.0146ZM60.0291 21.5314V21.3218C60.0291 19.2625 58.8134 18.0238 56.9169 18.0238C55.0358 18.0238 53.6894 19.3883 53.6894 21.3498C53.6894 23.382 55.0212 24.7474 56.9895 24.7474C58.3214 24.7474 59.3346 24.1746 59.9855 23.0486L59.1466 22.5056C58.611 23.41 57.9155 23.8551 57.0476 23.8551C55.8029 23.8551 54.905 22.9787 54.905 21.6282V21.5314H60.0291ZM58.8415 20.6689H54.905C55.0212 19.6109 55.8175 18.957 56.8733 18.957C58.0463 18.957 58.7698 19.569 58.8415 20.6689ZM48.1465 18.2607H47.0461V21.9768C47.0461 23.8005 48.0738 24.7477 49.9559 24.7477C51.8951 24.7477 52.9083 23.7725 52.9083 21.893V18.2607H51.8079V21.3221C51.7788 22.9641 51.403 23.7297 49.9849 23.7297C48.5659 23.7297 48.1465 22.9641 48.1465 21.3221V18.2607ZM44.4849 24.4818H45.5852V12.9365H44.4849V24.4818ZM38.4347 15.5611H39.3607C40.9967 15.5611 41.7494 15.8535 41.7494 17.2869C41.7494 18.4977 41.0258 18.887 39.3607 18.887H38.4347V15.5611ZM38.4347 19.8193H39.723C40.3594 19.8193 40.866 19.8333 41.3009 20.0838C41.8646 20.3902 42.1543 20.9332 42.1543 21.6569C42.1543 22.2828 41.8937 22.8258 41.4743 23.1173C41.0258 23.4247 40.3448 23.4526 39.3607 23.4526H38.4347V19.8193ZM37.2046 24.4818H39.3607C40.8379 24.4818 41.8511 24.4399 42.6027 23.7292C43.1238 23.23 43.4571 22.4775 43.4571 21.6569C43.4571 20.3213 42.6899 19.3881 41.4743 19.2074C42.4584 18.9289 43.0086 18.2052 43.0086 17.1472C43.0086 16.2568 42.6182 15.4912 41.9663 15.032C41.3154 14.5729 40.4901 14.531 39.3607 14.531H37.2046V24.4818ZM4.76135 21.2211C7.71955 19.8064 10.6128 18.5863 13.3066 17.6586C16.2328 16.6509 22.0262 14.9148 26.388 15.7065C28.0007 15.9998 29.1079 16.5829 29.6745 17.5366C30.2247 18.4615 30.2373 19.6126 29.6745 20.9762C29.1205 22.3211 28.0879 23.7815 26.5855 25.4179C25.1297 27.0031 23.2583 28.6311 20.9975 30.2489C18.6563 31.9254 16.0672 33.4706 13.3066 34.9822L13.8984 34.6907C16.8566 33.1772 19.4574 31.5603 21.9836 29.8093C24.3868 28.1459 26.3773 26.4415 28.0307 24.7585C29.6639 23.0978 30.7633 21.5657 31.3841 20.1715C32.0128 18.7595 31.9508 17.5385 31.3841 16.5847C30.834 15.6599 29.8983 14.8589 28.0976 14.7546C22.5541 14.4323 18.02 15.7297 14.2268 17.0728C11.3345 18.0973 8.37725 19.391 5.41905 20.9035L4.76135 21.2211ZM7.65358 11.3387C10.48 9.87456 13.3065 8.65446 16.0681 7.72774C18.9972 6.74327 24.8594 4.93268 29.2143 5.77558C30.7263 6.06803 31.8054 6.70602 32.3701 7.65416C32.9232 8.5846 32.929 9.72647 32.3701 11.0704C31.8122 12.4107 30.8871 13.9046 29.4119 15.487C27.9299 17.0769 26.1118 18.718 23.8249 20.3432C21.5767 21.9387 19.157 23.4652 16.3964 24.9302C16.4623 24.8893 16.5282 24.8492 16.594 24.8073C19.5513 23.2957 22.2838 21.6294 24.81 19.8794C27.2131 18.2141 29.225 16.5134 30.8581 14.8528C32.5115 13.1698 33.5499 11.6768 34.1446 10.2406C34.7326 8.82118 34.8401 7.65136 34.2764 6.70322C33.7233 5.77185 32.5687 5.10592 30.8581 4.87308C25.9597 4.20435 20.3417 6.04288 17.0541 7.16612C14.1095 8.17294 11.2695 9.48431 8.31128 10.9726C8.09237 11.0947 7.87346 11.2167 7.65358 11.3387Z" fill="#2B5B83"/>
</g>
<defs>
<clipPath id="clip0_90_196">
<rect width="32" height="32" fill="white" transform="translate(4 4)"/>
</clipPath>
</defs>
</svg>
