<svg width="40" height="40" viewBox="0 0 40 40" fill="none" xmlns="http://www.w3.org/2000/svg">
<path d="M6.95385 16.1568C7.69694 16.1103 8.30497 16.6371 8.43954 17.3263V26.4641C8.42321 29.0535 10.508 31.1408 13.1059 31.1388C15.6478 31.1408 17.7307 29.0535 17.7717 26.4641V19.8757C17.7232 14.8551 21.785 10.7864 26.7878 10.7389C30.3212 10.7137 33.2129 8.30136 34 5C32.1848 6.38278 29.8749 7.25648 27.424 7.23224C26.9377 7.25648 26.9891 7.28468 26.575 7.23224H26.6809C19.6571 7.23224 14.0944 12.847 14.0602 19.8757V26.0391V25.9337C14.0568 25.9822 14.0568 25.9842 14.0602 26.0391C14.0568 26.6654 13.5086 27.2151 12.7883 27.2081C12.157 27.2151 11.6073 26.6649 11.6212 26.0391C11.6078 25.9852 11.6078 25.9822 11.6212 25.9337V17.4322C11.6078 16.5743 10.9528 15.9158 10.137 15.9445C10.2062 15.4582 10.6174 15.0926 11.0923 15.0941C11.2699 15.0926 11.4183 15.1292 11.5168 15.2009C11.7226 15.2484 11.9531 15.284 12.153 15.3068C13.4824 15.284 14.5272 14.2372 14.4862 12.9687C14.5272 12.9187 14.5263 12.8915 14.4862 12.8633C13.991 13.5396 13.1445 13.9888 12.153 14.0319C12.0293 13.9438 11.7894 13.9458 11.6217 13.9255C10.5268 13.9458 9.6452 14.8274 9.60711 15.9445H6V16.1568H7.0617H6.95385Z" fill="#ED1C24"/>
<path d="M26.7878 14.9882C24.0865 14.9635 21.8924 17.1626 21.9087 19.8757V19.7703V27.4209C21.8894 31.1912 18.8869 34.2235 15.121 34.2215C12.5093 34.2235 10.2201 32.7037 9.07581 30.5021C10.1039 31.4846 11.5163 32.1214 13.1059 32.0956C16.1886 32.1218 18.7118 29.5938 18.7276 26.4641V19.8757C18.7157 15.4048 22.3337 11.7818 26.7878 11.8001H26.5751C28.9691 11.7813 31.1331 10.8023 32.7266 9.24928C32.4758 12.4334 29.8121 14.9635 26.5751 14.9882H26.7878Z" fill="#ED1C24"/>
<path d="M25.6207 22.1074C25.5851 21.3915 26.1253 20.8493 26.7868 20.833C27.4626 20.8493 28.0028 21.3915 27.9529 22.1074C28.0028 22.2069 27.9771 22.3469 27.9529 22.4265C27.8871 22.6739 27.6466 22.8837 27.3181 22.8525C27.0366 22.8837 26.7759 22.6215 26.7868 22.3211C26.7759 22.2187 26.7907 22.1426 26.7868 22.1074V22.002C26.7135 22.2821 26.6641 22.5344 26.6804 22.7451C26.6641 23.9676 27.613 24.9175 28.8023 24.87C29.631 24.9175 30.3627 24.4168 30.712 23.7029C31.0019 23.1597 31.1785 22.5087 31.135 21.7898C31.178 19.5284 29.3233 17.6687 27.0005 17.6454C24.7401 17.6687 22.8843 19.5284 22.863 21.7898V27.4214C22.863 31.7176 19.4108 35.1758 15.1204 35.1788C14.5515 35.1758 13.9647 35.1071 13.424 34.9661H13.3181C14.3976 35.4781 15.6577 35.7814 17.0311 35.8155C21.7237 35.7819 25.5623 31.9358 25.5148 27.2091V22.002L25.6207 22.1074Z" fill="#ED1C24"/>
</svg>
