<svg width="40" height="40" viewBox="0 0 40 40" fill="none" xmlns="http://www.w3.org/2000/svg">
<path d="M7.85161 26.402C8.18395 27.8045 8.12745 30.121 7.18691 31.2808C5.83426 32.9426 4.52814 31.1213 4.1958 29.7388C3.84351 28.2532 3.89004 25.6609 4.98013 24.4744C5.35901 24.0058 5.96055 23.7067 6.51225 24.0922C7.37303 24.6871 7.55582 25.4448 7.84163 26.402" fill="#A12132"/>
<path d="M6.59204 28.2233C6.65186 28.3795 6.50563 28.642 6.77151 28.6952C6.94765 28.8381 7.35311 28.785 7.31988 29.0608C6.98753 29.0409 6.73827 28.7285 6.35608 28.8182C6.15667 28.8614 5.98385 28.9744 5.78776 29.0342C5.7645 29.0043 5.72794 28.981 5.74123 28.9378C5.93732 28.785 6.21981 28.785 6.40593 28.6055V28.1203C6.49566 28.0073 6.61863 28.1203 6.58539 28.22" fill="white"/>
<path d="M6.90776 29.3034C7.09387 29.4862 6.96426 29.7221 6.99417 29.9681C6.96729 30.4513 7.00982 30.936 7.12046 31.4071C7.1217 31.439 7.11394 31.4705 7.09806 31.4982C7.08219 31.5258 7.05886 31.5484 7.03073 31.5633C6.96758 31.5633 6.96094 31.5035 6.9277 31.4736C6.8845 30.8089 6.81803 30.1442 6.80141 29.4795C6.75488 29.3067 6.50562 29.4197 6.39262 29.3964C6.32753 29.4047 6.26687 29.4338 6.2198 29.4795C6.21963 30.1646 6.18191 30.8492 6.10681 31.5301C6.09602 31.5408 6.08288 31.5487 6.06844 31.5533C6.05401 31.558 6.03868 31.5591 6.02372 31.5567L5.99713 31.4869C6.05695 30.8222 6.04366 30.0545 6.09684 29.4031C6.14247 29.3421 6.20241 29.2932 6.27137 29.2607C6.34033 29.2283 6.4162 29.2132 6.49233 29.217C6.63912 29.2098 6.78536 29.2395 6.91773 29.3034" fill="white"/>
<path d="M5.45538 30.4267C5.45538 30.583 5.45538 30.7126 5.45538 30.8422C5.45308 31.0006 5.43075 31.158 5.38892 31.3108C5.38892 31.3872 5.32577 31.4537 5.359 31.5368H5.44541C5.57503 31.4703 5.55841 31.3041 5.57171 31.1679C5.585 31.0316 5.57171 30.892 5.60494 30.7591C5.60494 30.46 5.62488 30.2074 5.6282 29.9349C5.63127 29.8784 5.63127 29.8218 5.6282 29.7654C5.66193 29.4999 5.65408 29.2308 5.60494 28.9677C5.51188 28.7152 5.22607 28.6985 5.01336 28.6354C4.98714 28.6149 4.96601 28.5887 4.95159 28.5587C4.93718 28.5287 4.92989 28.4958 4.93028 28.4626C4.9615 28.4111 5.00614 28.369 5.05941 28.3409C5.11267 28.3128 5.17258 28.2997 5.23271 28.3031C5.27141 28.2853 5.31315 28.2751 5.35568 28.2731C5.4103 28.2487 5.4688 28.2341 5.5285 28.2299C5.58168 28.2299 5.59497 28.1701 5.59497 28.1236C5.49527 27.9774 5.38559 28.1236 5.26262 28.1236C5.10974 28.1901 4.83057 28.1768 4.79734 28.4194C4.79323 28.4602 4.79746 28.5014 4.80977 28.5405C4.82209 28.5796 4.84222 28.6158 4.86895 28.6469C4.89568 28.6779 4.92846 28.7033 4.96528 28.7213C5.0021 28.7393 5.04221 28.7497 5.08316 28.7517C5.22274 28.8016 5.4155 28.8082 5.48197 28.9611C5.48197 29.0309 5.48197 29.1904 5.48197 29.2369C5.48862 29.2944 5.48862 29.3524 5.48197 29.4098C5.50185 29.5085 5.50185 29.6102 5.48197 29.7089C5.44541 29.7853 5.3158 29.7454 5.23936 29.7488C5.16292 29.7521 5.0898 29.7488 5.0333 29.6923C5.00675 29.6143 4.99546 29.5319 5.00007 29.4496C5.13633 29.3832 5.24601 29.3998 5.37894 29.3333C5.37958 29.3256 5.37958 29.3178 5.37894 29.3101C5.38541 29.2941 5.38541 29.2762 5.37894 29.2602L5.35568 29.227C5.27259 29.1472 5.24601 29.227 5.12968 29.227H5.08648C4.91034 29.227 5.02998 29.001 4.97016 28.9146C4.94357 28.8946 4.91698 28.8215 4.86713 28.8514C4.75081 28.9312 4.86713 29.0841 4.84719 29.2004C4.88119 29.5417 4.86889 29.886 4.81063 30.224C4.81696 30.3963 4.80694 30.5688 4.78072 30.7392C4.75746 30.8089 4.78072 30.8887 4.74749 30.9519C4.71425 31.015 4.67769 31.1546 4.74749 31.2111C4.78507 31.1863 4.81775 31.1547 4.84387 31.118C4.88375 30.8887 4.9336 30.6694 4.95686 30.4301C4.95688 30.4201 4.95927 30.4102 4.96383 30.4013C4.96839 30.3924 4.975 30.3848 4.98311 30.3789C4.99123 30.3731 5.00061 30.3692 5.01049 30.3677C5.02037 30.3662 5.03047 30.3671 5.03995 30.3702C5.14963 30.3702 5.17954 30.4434 5.28256 30.4467C5.38559 30.45 5.33574 30.3038 5.30583 30.2872C5.18286 30.2872 5.19948 30.2307 5.07983 30.214C5.0466 30.214 4.97016 30.214 4.98013 30.1708C4.98357 30.0903 4.99926 30.0107 5.02666 29.9349C5.12805 29.9202 5.23102 29.9202 5.33242 29.9349C5.3723 29.9349 5.46535 29.9515 5.47865 29.9947C5.48617 30.1404 5.47725 30.2864 5.45206 30.4301" fill="white"/>
<path d="M7.383 26.4452L7.22347 26.4153C7.16413 26.3697 7.10072 26.3297 7.03403 26.2957C6.86124 26.2062 6.69665 26.1016 6.54216 25.9833C6.4059 25.9833 6.34608 26.1162 6.20981 26.1927C6.20981 26.1927 6.16328 26.2259 6.14667 26.1927C6.19984 26.0797 6.30619 26.0331 6.38596 25.9534C6.43942 25.9229 6.49053 25.8885 6.53884 25.8503C6.63522 25.8869 6.67177 25.95 6.74489 25.9866C6.81801 26.0232 6.90774 26.1029 7.01077 26.1461C7.09297 26.1982 7.17974 26.2427 7.27 26.2791C7.32317 26.319 7.45944 26.299 7.39629 26.4286L7.383 26.4452Z" fill="white"/>
<path d="M7.11714 24.84C7.11714 24.8998 7.03405 24.9297 6.95761 24.933C6.88117 24.9364 6.83797 24.9596 6.76153 25.0062C6.74836 25.0181 6.73841 25.0333 6.73261 25.0501C6.7268 25.0669 6.72532 25.085 6.72829 25.1025C6.72829 25.1756 6.85126 25.1989 6.9277 25.2255C6.93384 25.2263 6.93975 25.2283 6.94509 25.2315C6.95043 25.2346 6.9551 25.2388 6.95881 25.2437C6.96253 25.2487 6.96521 25.2543 6.96672 25.2603C6.96823 25.2663 6.96852 25.2726 6.96758 25.2787C6.93767 25.3053 6.89446 25.2787 6.85126 25.2787C6.72829 25.3086 6.59203 25.2521 6.47571 25.2787C6.42586 25.2986 6.41589 25.2787 6.34277 25.3086C6.31643 25.3089 6.29043 25.3146 6.26633 25.3252C6.18989 25.3518 6.0503 25.3252 6.04366 25.4083C6.02173 25.4944 6.00728 25.5822 6.00045 25.6708C5.99946 25.7139 5.9916 25.7565 5.97719 25.7971C5.98269 25.9591 6.00158 26.1202 6.03369 26.279C6.02685 26.3175 6.02685 26.3569 6.03369 26.3954C6.10348 26.4751 6.23642 26.4186 6.28627 26.4352C6.39262 26.4352 6.4458 26.4352 6.52888 26.4352C6.61197 26.4352 6.68841 26.4352 6.7715 26.4552C6.7715 26.4552 6.8147 26.4751 6.82467 26.4851C6.83464 26.4951 6.78479 26.525 6.74823 26.5283C6.6771 26.5442 6.60334 26.5442 6.53221 26.5283C6.34277 26.5283 6.19986 26.5582 5.98716 26.5516C5.88745 26.5516 5.8376 26.5516 5.71463 26.5516C5.69469 26.5516 5.60164 26.5516 5.57837 26.5516C5.50039 26.5518 5.42254 26.5451 5.34573 26.5316C5.31582 26.5117 5.26929 26.5316 5.25267 26.4984C5.23606 26.4652 5.28591 26.4652 5.30253 26.4585H5.60828C5.7035 26.4681 5.7996 26.4533 5.88745 26.4153C5.89333 26.3834 5.89333 26.3508 5.88745 26.3189C5.88745 26.1793 5.85422 26.0331 5.86751 25.8636C5.86751 25.7705 5.86751 25.6509 5.88745 25.5578C5.9074 25.4648 5.88745 25.2886 5.95392 25.2255L6.21648 25.159C6.31618 25.159 6.39594 25.159 6.5023 25.159C6.53259 25.1616 6.56305 25.1565 6.5909 25.1444C6.61876 25.1322 6.64313 25.1132 6.66182 25.0892C6.66417 25.0631 6.65708 25.037 6.64183 25.0157C6.62659 24.9943 6.6042 24.9792 6.57874 24.9729C6.50894 24.9729 6.51891 24.9729 6.43583 24.9729C6.35274 24.9729 6.33612 24.9729 6.30289 24.9131C6.25595 24.8494 6.22309 24.7765 6.20647 24.6991C6.18986 24.6218 6.18987 24.5418 6.20651 24.4644C6.20651 24.4345 6.23974 24.398 6.27962 24.4279C6.3195 24.4578 6.27962 24.5475 6.27962 24.614C6.27343 24.6642 6.28247 24.7152 6.30559 24.7602C6.3287 24.8052 6.36481 24.8423 6.40924 24.8666C6.45907 24.8817 6.51229 24.8817 6.56212 24.8666C6.63191 24.8101 6.59535 24.7237 6.62194 24.6505C6.61599 24.5548 6.63669 24.4593 6.68176 24.3747C6.73161 24.3747 6.73161 24.4245 6.74491 24.4578V24.511C6.73841 24.6228 6.74963 24.735 6.77814 24.8433C6.80805 24.8865 6.8147 24.8765 6.86123 24.8765C6.90776 24.8765 6.99417 24.8134 7.01079 24.737C7.0274 24.6605 6.97423 24.5076 7.09055 24.501C7.12046 24.501 7.12046 24.501 7.12711 24.5243L7.11714 24.84Z" fill="white"/>
<path d="M7.11382 25.8636C7.07166 25.8681 7.02928 25.8575 6.99418 25.8337C6.91109 25.7307 6.6851 25.6808 6.60201 25.6144C6.51892 25.5479 6.47904 25.6144 6.4026 25.6576C6.35771 25.7041 6.30329 25.7404 6.24308 25.7639C6.19987 25.8038 6.19323 25.8171 6.1467 25.8271C6.10017 25.837 6.10682 25.8005 6.12343 25.7839C6.16181 25.7434 6.2029 25.7057 6.2464 25.6709C6.33946 25.6177 6.43584 25.5412 6.52225 25.4847C6.60533 25.5279 6.7981 25.5878 6.89448 25.6277C6.99086 25.6675 7.08391 25.734 7.14374 25.8171C7.14374 25.847 7.1238 25.8603 7.10053 25.8636" fill="white"/>
<path d="M6.67842 27.3226C6.71341 27.4581 6.69559 27.6019 6.62857 27.7247C6.60848 27.7492 6.58375 27.7694 6.5558 27.7843C6.52784 27.7991 6.49723 27.8082 6.46572 27.8112C6.29954 27.8311 6.34607 27.8344 6.18322 27.8577L5.92732 27.8776C5.76447 27.8776 5.64815 27.8776 5.472 27.8776C5.38809 27.8781 5.30478 27.8635 5.22607 27.8344C5.2028 27.8045 5.16292 27.8045 5.16292 27.7547C5.16292 27.7048 5.26595 27.7281 5.33906 27.7281C5.49253 27.744 5.64673 27.7518 5.80102 27.7513C5.96387 27.7347 6.01705 27.7513 6.21646 27.7347C6.27018 27.7272 6.32269 27.7126 6.37266 27.6915C6.51889 27.6383 6.50228 27.645 6.53883 27.5054C6.57539 27.3658 6.53883 27.3492 6.4059 27.3126C6.27296 27.2761 6.13005 27.3126 6.03034 27.1996C5.93064 27.0866 6.03034 26.977 5.89408 26.9072C5.7762 26.9329 5.65579 26.9452 5.53515 26.9437C5.46203 26.9437 5.40553 26.9437 5.33574 26.9437C5.28049 26.9381 5.22481 26.9381 5.16957 26.9437C5.12969 26.9437 5.12304 26.9437 5.07319 26.9437C5.02333 26.9437 5.00007 26.8906 5.03995 26.8507C5.07983 26.8108 5.14298 26.8507 5.19615 26.8507C5.32577 26.8507 5.43544 26.8507 5.57503 26.8507C5.62366 26.8554 5.67263 26.8554 5.72126 26.8507C5.84423 26.8507 5.95723 26.8507 6.10014 26.8507C6.24305 26.8507 6.28957 26.8507 6.37266 26.8507C6.43002 26.8582 6.48812 26.8582 6.54548 26.8507C6.62837 26.8425 6.71186 26.8425 6.79474 26.8507C6.91106 26.8507 6.95427 26.8208 7.044 26.8507C7.08056 26.8507 7.09385 26.9005 7.11379 26.9138C7.13373 26.9271 7.09385 26.957 7.06394 26.9637C6.98085 27.0069 6.90109 26.9637 6.78145 26.9637C6.6618 26.9637 6.62192 26.9637 6.51225 26.9637C6.43521 26.9515 6.35753 26.9437 6.2796 26.9404C6.2238 26.9405 6.16815 26.9461 6.11343 26.957C6.10777 26.9914 6.11124 27.0267 6.12348 27.0594C6.13573 27.0921 6.15633 27.1209 6.18322 27.1431C6.27337 27.1788 6.36886 27.199 6.46572 27.203C6.54216 27.2329 6.64851 27.2395 6.67842 27.3259" fill="white"/>
<path d="M5.95395 24.5076C5.95395 24.6339 5.97721 24.8666 5.84095 24.9829C5.73128 25.0128 5.58837 24.9663 5.50861 25.076C5.42884 25.1856 5.50861 25.2587 5.50861 25.3551C5.54184 25.4748 5.66481 25.5213 5.72795 25.6144C5.76748 25.6495 5.79531 25.6959 5.80772 25.7473C5.78445 25.7639 5.75787 25.7805 5.7346 25.7639L5.70469 25.7406L5.66481 25.6875C5.62493 25.6609 5.5784 25.5911 5.52855 25.5811C5.34243 25.5811 5.24605 25.7473 5.10647 25.8403L4.95691 25.9467L4.86385 26.0231C4.81214 26.07 4.75092 26.1051 4.68439 26.1262V26.0929C4.68439 26.063 4.76415 26.0231 4.81068 25.9932C4.90107 25.8693 5.01378 25.7634 5.14303 25.6808C5.23941 25.5911 5.38564 25.5246 5.43549 25.3884C5.42896 25.3476 5.40909 25.3102 5.37899 25.282C5.37899 25.2022 5.41223 25.1125 5.31917 25.0693C5.2249 25.0712 5.13261 25.042 5.05662 24.9862C4.99258 24.9079 4.95103 24.8137 4.93639 24.7136C4.92176 24.6135 4.93459 24.5113 4.97353 24.4179H4.99015C5.07988 24.4412 5.04664 24.5342 5.04997 24.6073C5.04644 24.7077 5.08221 24.8055 5.14967 24.8799C5.17892 24.9204 5.22114 24.9497 5.26932 24.963C5.28931 24.9622 5.30851 24.9549 5.32408 24.9424C5.33964 24.9298 5.35074 24.9125 5.35573 24.8932C5.4089 24.7602 5.32582 24.6339 5.38564 24.4977C5.38564 24.4644 5.38564 24.4013 5.42884 24.3813L5.51858 24.4013C5.51858 24.4877 5.48534 24.5608 5.49531 24.6539C5.50528 24.7469 5.49531 24.8267 5.54184 24.8765C5.55801 24.8924 5.57943 24.9019 5.60207 24.9031C5.62471 24.9043 5.64702 24.8973 5.66481 24.8832C5.70951 24.8771 5.75117 24.8571 5.78395 24.8261C5.81674 24.7951 5.83899 24.7547 5.8476 24.7104C5.8476 24.5974 5.87419 24.5043 5.86754 24.4345L5.88748 24.388C5.90976 24.3993 5.9286 24.4163 5.94205 24.4374C5.95549 24.4584 5.96305 24.4827 5.96392 24.5076" fill="white"/>
<path d="M5.72797 26.2458C5.67147 26.2458 5.67812 26.1793 5.64156 26.1561C5.605 26.1328 5.53189 26.0032 5.43218 26.0397C5.3923 26.0663 5.35242 26.0996 5.29925 26.1295C5.15966 26.2957 5.01343 26.3688 4.87052 26.515C4.83728 26.515 4.81734 26.515 4.80737 26.4751C4.85477 26.4189 4.91087 26.3707 4.97355 26.3322C5.01343 26.3023 5.04666 26.2458 5.09651 26.2126C5.121 26.1788 5.15009 26.1486 5.18292 26.1228C5.26269 26.0364 5.33248 26.0132 5.40227 25.9334C5.43218 25.9068 5.48536 25.8802 5.52524 25.9135C5.56512 25.9467 5.65486 26.0364 5.718 26.0996C5.78115 26.1627 5.81438 26.2126 5.718 26.2458" fill="white"/>
<path fill-rule="evenodd" clip-rule="evenodd" d="M23.1263 8C23.3726 8.01322 23.6105 8.09368 23.8143 8.23264C24.147 8.46127 24.5375 8.59144 24.9409 8.60819C25.2103 8.59782 25.4786 8.64897 25.7252 8.75775C26.5927 9.16654 27.0845 10.6322 27.2341 11.4431C27.2756 11.7252 27.2756 12.0118 27.2341 12.2939C27.1941 12.5516 27.1941 12.8139 27.2341 13.0716C27.3305 13.497 27.4933 13.5003 27.603 13.5003C27.7309 13.4926 27.8578 13.4726 27.9819 13.4405C28.0849 13.4206 28.1846 13.394 28.3142 13.3807C28.5441 13.3446 28.7762 13.3235 29.0088 13.3175C29.3313 13.3154 29.6529 13.3534 29.966 13.4305C30.2854 13.5019 30.6099 13.5486 30.9364 13.5701C31.1791 13.5901 31.4283 13.6167 31.6909 13.6632C32.2575 13.7498 32.8141 13.8923 33.3526 14.0886C33.6197 14.2152 33.8635 14.386 34.0738 14.5938C34.248 14.7653 34.4434 14.9139 34.6554 15.0358C35.905 15.7005 36.2673 16.4881 35.8984 17.7477C35.8585 17.8707 35.8253 18.0069 35.7854 18.1366C35.6657 18.5586 35.5361 19.0007 35.3965 19.4028C35.2526 19.809 34.9824 20.1584 34.6255 20.3998C34.5324 20.473 34.4327 20.556 34.3297 20.6491C34.037 20.9474 33.7845 21.2825 33.5786 21.6461C33.2881 22.1979 32.8671 22.6702 32.3522 23.0221C31.9524 23.244 31.4998 23.3532 31.0428 23.3378H30.9597C30.7503 23.4408 30.9763 23.8828 31.1292 24.152C31.2307 24.321 31.3164 24.499 31.3851 24.6838C31.431 24.8379 31.4523 24.9983 31.4483 25.159C31.4419 25.2836 31.4565 25.4083 31.4915 25.5279C31.5301 25.5905 31.5796 25.6457 31.6377 25.6908C31.781 25.7978 31.8897 25.9446 31.9501 26.1129C32.0786 26.7339 32.0639 27.3761 31.9069 27.9906C31.8422 28.1132 31.7593 28.2253 31.661 28.323C31.58 28.4072 31.5066 28.4984 31.4416 28.5955C31.4037 28.6958 31.3747 28.7992 31.3552 28.9046C31.3297 29.1019 31.2617 29.2912 31.1558 29.4596C30.6639 30.1675 29.6037 30.5431 28.7529 30.8388C28.5435 30.912 28.3441 30.9851 28.1746 31.0515C27.986 31.1358 27.7829 31.1832 27.5764 31.1911C27.3421 31.1813 27.1138 31.114 26.9117 30.995C26.8087 30.9485 26.6957 30.892 26.5561 30.8388C26.2086 30.7211 25.8459 30.654 25.4793 30.6394C25.2899 30.6394 25.0971 30.6095 24.8877 30.5796C24.5583 30.5221 24.2485 30.3827 23.9871 30.1741L23.8807 30.101H23.8442C23.5552 30.1234 23.268 30.0395 23.0366 29.8651C22.5656 30.5083 21.9127 30.9957 21.1621 31.2642C20.6214 31.5464 20.0373 31.7362 19.4339 31.8259C19.2844 31.8724 19.1647 31.9057 19.0584 31.9422C18.568 32.0955 18.0567 32.1718 17.5429 32.1682C17.3534 32.1682 17.154 32.1682 16.9679 32.1383C16.377 32.1651 15.7935 31.9982 15.3062 31.6631C14.8554 31.4469 14.4469 31.152 14.0998 30.7923C13.5745 30.4808 13.1339 30.0448 12.8169 29.5228C12.6933 29.3293 12.6309 29.103 12.638 28.8735C12.6451 28.644 12.7214 28.422 12.8568 28.2366C12.918 28.1288 12.9735 28.0179 13.023 27.9042L13.0695 27.8012C13.2736 27.385 13.4361 26.9498 13.5547 26.5017C13.1592 26.3788 12.8069 26.0198 12.4879 25.4017C12.3533 25.1265 12.1943 24.864 12.0126 24.6173C11.9428 24.5342 11.8431 24.4246 11.7301 24.3149C11.6171 24.2052 11.5573 24.1587 11.5274 24.1288C11.1601 23.8001 10.7413 23.534 10.2878 23.3411C9.88525 23.1636 9.50942 22.931 9.17108 22.6498C8.9297 22.432 8.73032 22.1718 8.58282 21.8821C8.06769 21.0845 7.56584 20.2436 7.41961 19.4061C7.3009 18.7842 7.41947 18.1403 7.75196 17.6015C7.82994 17.4277 7.91874 17.259 8.01783 17.0963C8.06769 17.0066 8.10757 16.9202 8.14413 16.8437C8.20395 16.7108 8.24383 16.6144 8.27706 16.5114C8.35766 16.2527 8.50028 16.0177 8.6925 15.8268C8.96241 15.5293 9.28894 15.2886 9.65298 15.1189C10.0283 14.9268 10.4343 14.8019 10.8527 14.75C10.9714 14.7313 11.0917 14.7246 11.2117 14.73C11.2907 14.7527 11.3721 14.7661 11.4543 14.7699H11.5041C11.5916 14.758 11.6755 14.7274 11.7501 14.6802C11.8802 14.6212 12.0231 14.596 12.1655 14.607H12.1988C12.5843 14.6303 13.9436 15.3249 14.3291 15.3382C14.3755 15.3424 14.4222 15.3424 14.4687 15.3382C14.5041 15.3273 14.5369 15.3092 14.5651 15.285C14.7439 15.123 14.8827 14.9216 14.9705 14.6968C14.9705 14.6768 14.9871 14.6536 15.0004 14.6336C15.0204 14.5871 15.037 14.5406 15.0536 14.4974C15.0536 14.4475 15.0835 14.401 15.0935 14.3511C15.17 14.0823 15.231 13.8094 15.2763 13.5336C15.2962 13.4571 15.3029 13.3774 15.3195 13.3076V13.2411L15.3361 13.1547V13.0816C15.3373 13.0617 15.3373 13.0417 15.3361 13.0218C15.3361 13.0018 15.3361 12.9852 15.3361 12.9653V12.942C15.3361 12.9187 15.3361 12.8988 15.3361 12.8755C15.3361 12.8556 15.3361 12.8356 15.3361 12.8157V12.7958C15.3361 12.7758 15.3361 12.7526 15.356 12.7293C15.3607 12.7077 15.3674 12.6865 15.376 12.6661V12.6462C15.376 12.6229 15.3926 12.5997 15.3992 12.5797C15.3992 12.5598 15.4192 12.5365 15.4258 12.5166V12.5C15.4344 12.4783 15.4444 12.4572 15.4557 12.4368C15.4557 12.4169 15.4724 12.3969 15.4823 12.3737C15.4823 12.3571 15.5023 12.3305 15.5122 12.3139C15.6996 11.9896 15.8523 11.6465 15.9676 11.2902C16.157 10.5757 16.3531 9.8412 16.9845 9.45235C17.2464 9.31231 17.5384 9.23816 17.8353 9.23633C18.064 9.2284 18.2892 9.17885 18.5 9.0901C18.6688 8.99661 18.8271 8.88519 18.972 8.75775C19.1876 8.54693 19.446 8.38486 19.7297 8.28249C19.761 8.27162 19.7933 8.26383 19.8261 8.25923H19.8494L19.9557 8.22932L20.0355 8.2127H20.0587L20.1485 8.19608H20.1751H20.2415H20.2681H20.3479H20.3844H20.4376H20.7301C20.8298 8.19608 20.9395 8.19608 21.0624 8.19608H21.1887H21.2087H21.335C21.4287 8.20648 21.5231 8.21092 21.6174 8.20938C21.8865 8.20451 22.1541 8.16883 22.4151 8.10303C22.6484 8.04635 22.8865 8.01185 23.1263 8Z" fill="#CA5766"/>
<mask id="mask0_7_229" style="mask-type:luminance" maskUnits="userSpaceOnUse" x="7" y="8" width="29" height="24">
<path d="M22.744 8.18612C22.2811 8.31251 21.8006 8.36191 21.3216 8.33235C20.8044 8.24863 20.2754 8.27582 19.7695 8.41211C19.291 8.57496 19.0151 8.99704 18.5665 9.21972C18.1178 9.44239 17.5295 9.29283 17.0609 9.57865C16.1802 10.1171 16.2068 11.4664 15.7814 12.3172C15.3028 13.2511 15.5155 14.7068 14.6381 15.418C14.5991 15.446 14.5551 15.4663 14.5085 15.4778C14.452 15.4807 14.3955 15.4807 14.339 15.4778C13.9269 15.4778 12.7205 14.7765 12.1887 14.75C11.9096 14.75 11.7733 14.8862 11.524 14.9128C11.4136 14.9248 11.3021 14.9248 11.1917 14.9128C11.0811 14.9037 10.9699 14.9037 10.8593 14.9128C10.4629 14.9654 10.0784 15.0857 9.72272 15.2684C9.37567 15.4266 9.06379 15.6526 8.80544 15.9331C8.44983 16.3186 8.49304 16.4615 8.28698 16.8903C7.84496 17.8441 7.39962 18.2562 7.58905 19.3563C7.7519 20.3068 8.41327 21.2772 8.94835 22.1081C9.56319 23.0653 10.8261 23.1683 11.6836 24.0058C11.9926 24.3082 12.3483 24.6705 12.6241 24.9796C12.8999 25.2887 13.681 26.083 13.7341 26.3754C13.7873 26.6679 13.3087 27.6649 13.1758 27.9408C12.9199 28.5357 12.6141 28.6919 12.9664 29.4098C13.3885 30.2606 14.5916 30.7956 15.2928 31.4038C16.2234 32.2148 17.6193 31.9156 18.7692 31.7362C19.9191 31.5567 21.0258 31.3772 21.9497 30.4068C22.435 29.9149 22.641 29.4098 23.4486 29.6823C24.0502 29.885 24.2728 30.3137 24.9176 30.4068C25.5623 30.4999 26.0509 30.4566 26.6159 30.6727C27.2507 30.9186 27.3936 31.1745 28.1048 30.8887C28.9423 30.5564 30.4312 30.1908 31.0128 29.3566C31.1956 29.0974 31.1624 28.765 31.2887 28.5157C31.3751 28.3363 31.6908 28.0638 31.7407 27.9242C31.8863 27.3499 31.9011 26.7502 31.7839 26.1694C31.7041 25.8969 31.4017 25.7839 31.3286 25.5944C31.2322 25.3352 31.3286 25.0028 31.2222 24.7436C30.9829 24.0789 30.3947 23.4741 30.8201 23.1849C30.8899 23.145 31.7639 23.1849 32.2591 22.8792C33.183 22.3374 33.4689 21.2174 34.21 20.5295C34.6587 20.1207 35.0209 19.9578 35.2369 19.333C35.4164 18.8112 35.5693 18.2363 35.7388 17.6713C36.111 16.3984 35.6557 15.7304 34.5723 15.1488C34.0771 14.8829 33.7779 14.4209 33.2861 14.2049C32.7636 14.0141 32.2238 13.875 31.6742 13.7895C31.0594 13.6831 30.5143 13.6997 29.936 13.5535C29.4049 13.4323 28.8554 13.4143 28.3175 13.5003C27.7259 13.5867 27.2606 13.8659 27.0812 13.0716C26.9715 12.5631 27.1809 11.9682 27.0812 11.4398C26.9349 10.6588 26.453 9.26957 25.6554 8.89069C25.1868 8.6647 24.6584 8.82422 24.1399 8.54173C23.8186 8.30904 23.4332 8.18135 23.0365 8.17615H22.744" fill="white"/>
</mask>
<g mask="url(#mask0_7_229)">
<path d="M36.1043 8.17615H7.38623V32.2181H36.1043V8.17615Z" fill="url(#paint0_radial_7_229)"/>
</g>
<mask id="mask1_7_229" style="mask-type:luminance" maskUnits="userSpaceOnUse" x="15" y="8" width="12" height="11">
<path d="M22.99 8.15289C22.9135 8.15289 22.8338 8.15289 22.744 8.18613C22.2829 8.31614 21.8029 8.36561 21.3249 8.33236C21.2319 8.33236 20.9029 8.3091 20.7766 8.30577C20.4397 8.29181 20.1029 8.33336 19.7795 8.42874C19.291 8.57497 19.0151 8.99705 18.5665 9.21972C18.1178 9.4424 17.5295 9.29284 17.0609 9.57866C16.1802 10.1171 16.2068 11.4664 15.7814 12.3172C15.4291 13.0184 15.449 14.0022 15.1167 14.7533C15.1407 15.0236 15.1919 15.2909 15.2696 15.5509C15.4025 15.973 16.2168 15.9431 16.0672 16.754L16.1004 16.887C16.7651 19.0605 20.637 18.5254 21.7503 17.6746C22.312 17.2392 23.3855 16.887 23.8209 16.3452C24.1964 15.8633 25.4228 15.4778 25.7318 14.966C26.2137 14.1617 26.8352 13.0849 26.7754 12.3504C26.7422 11.5341 26.4782 10.7439 26.0141 10.0715C25.55 9.39917 24.9047 8.87218 24.1532 8.55171C23.6514 8.31907 23.4885 8.15289 23.0498 8.15289H22.99Z" fill="white"/>
</mask>
<g mask="url(#mask1_7_229)">
<path d="M26.8253 8.15289H15.1167V19.0605H26.8253V8.15289Z" fill="url(#paint1_radial_7_229)"/>
</g>
<mask id="mask2_7_229" style="mask-type:luminance" maskUnits="userSpaceOnUse" x="15" y="8" width="12" height="13">
<path d="M23.3755 8.43206L23.1196 8.46862C22.6391 8.60452 22.1391 8.65845 21.6407 8.62815C21.5476 8.62815 21.182 8.59824 21.0724 8.58826C20.7222 8.57022 20.3716 8.6118 20.0354 8.71123C19.5236 8.86744 19.2444 9.29284 18.7858 9.52881C18.3272 9.76477 17.7057 9.60192 17.2171 9.89771C16.7286 10.1935 16.1503 11.2537 15.9675 12.593C15.911 13.0384 16.2168 13.4571 16.1569 13.9623C15.8977 16.1392 16.5159 15.644 16.9646 16.5247C17.832 18.1665 17.7456 18.6683 17.3135 18.5786C17.7954 19.1602 18.2374 19.908 17.8818 20.3666C19.3608 20.699 21.2418 20.2802 21.963 19.7252C22.5546 19.2699 23.3655 18.8312 23.8175 18.2595C24.223 17.761 24.9409 16.1791 25.2732 15.644C25.7817 14.8198 26.3301 14.6469 26.7222 13.1115C27.3869 10.5458 26.0808 9.45569 24.6983 8.86744C24.2959 8.66317 23.8677 8.51447 23.4254 8.42542H23.3822" fill="white"/>
</mask>
<g mask="url(#mask2_7_229)">
<path d="M27.377 8.42877H15.8978V20.6824H27.377V8.42877Z" fill="url(#paint2_radial_7_229)"/>
</g>
<mask id="mask3_7_229" style="mask-type:luminance" maskUnits="userSpaceOnUse" x="13" y="22" width="11" height="10">
<path d="M21.1754 22.0815C20.2648 22.3175 18.6196 22.1015 17.8187 22.6465C17.0865 23.123 16.4972 23.7892 16.1138 24.5741C15.2829 25.4847 14.3822 26.2824 13.8771 26.9903C13.6085 27.3881 13.4406 27.8452 13.388 28.3222C13.3353 28.7993 13.3993 29.282 13.5746 29.7288C14.5717 31.7229 17.0975 32.361 19.0151 31.7528C20.8796 31.334 23.1628 30.8023 23.4221 28.323C23.5517 27.0933 23.894 25.8304 23.4885 24.6971C23.1861 23.8662 23.113 22.0184 21.6639 22.0184C21.4993 22.0216 21.3355 22.0428 21.1754 22.0815Z" fill="white"/>
</mask>
<g mask="url(#mask3_7_229)">
<path d="M23.894 22.0184H13.2158V32.361H23.894V22.0184Z" fill="url(#paint3_radial_7_229)"/>
</g>
<mask id="mask4_7_229" style="mask-type:luminance" maskUnits="userSpaceOnUse" x="7" y="15" width="11" height="12">
<path d="M7.56917 19.0372C7.55255 19.9345 8.27374 20.9083 8.66923 21.676C9.24087 22.7927 9.76265 22.8393 10.773 23.3843C11.5883 23.794 12.2459 24.461 12.6441 25.282C13.8837 27.6649 15.2298 25.4449 16.2999 24.5741C16.719 24.1781 17.0343 23.6852 17.218 23.1386C17.4017 22.5921 17.4482 22.0088 17.3534 21.4401C17.1432 20.6196 16.6917 19.8809 16.0573 19.3197L16.4229 19.5623C15.9609 19.1137 16.3132 18.5453 16.1105 18.0003C15.931 17.5184 15.6452 16.9301 15.3893 16.3951C15.0038 15.5974 14.5617 15.7968 14.1729 15.9996C14.0055 16.1186 13.8031 16.1783 13.5979 16.1691C13.0149 16.0349 12.4392 15.8707 11.8731 15.6772C11.5556 15.5521 11.2172 15.489 10.876 15.4911C9.15446 15.4911 7.60573 17.1528 7.55255 19.0239" fill="white"/>
</mask>
<g mask="url(#mask4_7_229)">
<path d="M17.5861 15.5044H7.55261V27.6782H17.5861V15.5044Z" fill="url(#paint4_radial_7_229)"/>
</g>
<mask id="mask5_7_229" style="mask-type:luminance" maskUnits="userSpaceOnUse" x="22" y="13" width="13" height="12">
<path d="M27.7891 13.836C27.2721 13.9803 26.7887 14.2254 26.3667 14.5572C25.9579 14.8895 25.702 15.6905 25.2965 15.9364C24.346 16.3784 24.3161 16.6011 23.7976 17.4353C23.3689 18.1 22.8338 19.0671 22.4118 19.8049C22.4058 20.0892 22.4304 20.3733 22.4849 20.6524C22.568 21.1144 23.0997 21.8555 23.0864 22.261L23.1064 22.1014C23.5417 24.4544 28.3441 25.169 27.4568 24.0191C25.1769 21.0545 28.7297 19.6022 29.1783 20.1539C31.9634 23.6203 33.09 21.5863 33.3559 21.2274C33.9122 20.5483 34.3096 19.7534 34.5191 18.9009C35.4098 13.9822 32.648 14.6635 31.0926 13.9822C31.0085 13.9773 30.9242 13.9773 30.8401 13.9822C30.3521 14.0546 29.8553 14.0434 29.3711 13.949L29.0986 13.8825C29.0056 13.8735 28.9135 13.8579 28.8227 13.836C28.638 13.8074 28.4513 13.7941 28.2644 13.7961C28.1051 13.7966 27.9462 13.8099 27.7891 13.836Z" fill="white"/>
</mask>
<g mask="url(#mask5_7_229)">
<path d="M35.4096 13.7961H22.4049V25.1656H35.4096V13.7961Z" fill="url(#paint5_radial_7_229)"/>
</g>
<mask id="mask6_7_229" style="mask-type:luminance" maskUnits="userSpaceOnUse" x="13" y="14" width="18" height="16">
<path d="M27.2972 23.6402C27.3048 23.6428 27.3129 23.6428 27.3205 23.6402C27.3205 23.6402 27.3205 23.6402 27.2972 23.6635M26.3301 14.5506C26.1948 14.6824 26.0714 14.8259 25.9612 14.9793C25.8177 15.2948 25.5765 15.5559 25.2732 15.7238C25.0262 15.8256 24.8006 15.9734 24.6085 16.1591C24.4323 16.3721 24.267 16.594 24.1133 16.8238C23.7976 17.2725 23.1861 17.3788 22.6377 17.3855C22.5048 17.3855 22.3752 17.3855 22.2522 17.3855C21.4945 17.874 20.7002 18.1565 19.9723 17.9804C19.527 17.8674 18.9753 17.0698 18.5432 17.1329C18.1112 17.1961 18.7825 17.4154 18.4502 17.7976C18.1178 18.1798 17.6193 17.8674 17.3002 17.535C17.0842 17.3124 16.9313 17.0831 16.9081 17.0897C16.8183 17.1196 16.9247 17.3523 16.9081 17.4653C16.8915 17.6979 16.6754 17.8408 16.6522 18.0834C16.6337 18.2484 16.6472 18.4154 16.6921 18.5753C16.7558 18.7603 16.7883 18.9546 16.7884 19.1502C16.7884 19.569 16.7884 19.4327 16.7618 19.8515C16.7286 20.6757 16.383 21.0214 16.1802 21.8456C15.9609 22.7329 16.8848 23.2049 15.7748 24.8733C15.4025 25.4249 13.7408 26.2026 13.8472 26.8673C14.3125 26.7876 14.575 26.2625 14.9107 25.9235C15.7116 25.1192 17.9018 24.2617 19.168 24.2119C20.4974 24.1521 19.2245 25.6343 19.5968 25.9235C19.969 26.2126 19.2312 26.9837 19.6433 26.7876C20.0554 26.5915 20.6403 24.6406 20.8863 24.1654C21.0391 23.8529 23.1495 18.9575 23.2127 26.3455C23.2127 27.0501 23.6348 27.3891 23.4387 28.0704C23.3456 28.4028 22.1093 30.1642 24.1466 29.9648C24.4158 28.4227 23.2526 27.3293 23.8574 26.5749C24.1732 26.1727 25.3031 26.1029 25.2799 25.5778C25.2334 24.4346 25.7618 24.4611 26.2503 24.4877C26.5528 24.4877 26.8386 24.521 26.9649 24.2617C27.055 24.0526 27.1664 23.8532 27.2972 23.6668C27.2773 23.6668 27.2507 23.6303 27.2407 23.494C27.1876 22.9855 27.6395 22.9789 27.4302 22.497C27.9154 22.6133 28.045 22.1347 28.4471 22.025C28.8136 21.9652 29.1874 21.9652 29.5539 22.025C30.2186 22.1347 30.5509 23.2215 30.6938 23.155C30.85 22.9224 30.4745 22.3408 30.1222 22.0184C29.8067 21.669 29.519 21.2957 29.2614 20.9017C28.929 20.4597 29.1384 19.8548 28.6399 19.6022C28.5067 19.5392 28.3545 19.5297 28.2145 19.5757C28.0417 19.6098 27.8638 19.6073 27.692 19.5684C27.5203 19.5294 27.3586 19.4549 27.2175 19.3497C24.5587 21.2274 26.8087 18.3958 26.6492 17.6879C26.3168 16.774 25.6122 16.5081 26.3633 14.5439V14.524C26.3633 14.524 26.3633 14.524 26.3401 14.524" fill="white"/>
</mask>
<g mask="url(#mask6_7_229)">
<path d="M30.85 14.5372H13.7475V30.1342H30.85V14.5372Z" fill="url(#paint6_radial_7_229)"/>
</g>
<path fill-rule="evenodd" clip-rule="evenodd" d="M17.9616 23.9959C17.6858 23.7998 17.9616 23.0919 18.294 22.7429C18.6263 22.394 19.1282 21.819 18.9952 21.7459C18.8623 21.6728 18.294 21.8123 18.1145 21.7459C17.935 21.6794 19.1115 21.2174 19.2345 21.1543C19.3575 21.0912 18.4003 20.822 18.048 20.7788C17.6957 20.7355 16.9746 20.8452 17.051 20.6923C17.1274 20.5395 17.5395 20.3401 17.6226 20.2536C17.7057 20.1672 17.0743 19.8349 17.0311 19.682C16.9878 19.5291 17.164 19.3729 17.822 19.5258C18.3175 19.6039 18.8167 19.6561 19.3176 19.682C19.5093 19.7189 19.6943 19.7851 19.866 19.8781C19.9756 19.9446 20.0521 19.7053 20.1451 19.7418C20.2382 19.7784 20.4443 19.9113 20.4775 19.7784C20.4707 19.6736 20.4427 19.5713 20.3953 19.4776C20.3479 19.384 20.282 19.3009 20.2016 19.2333C19.9899 19.0645 19.807 18.8625 19.6599 18.6351C19.6234 18.5188 19.4804 18.2363 19.6599 18.1732C19.8394 18.11 19.9657 18.1732 20.0587 18.1266C20.1518 18.0801 20.3113 17.8441 20.544 17.9472C20.695 18.0079 20.8361 18.0908 20.9627 18.1931C21.0103 18.227 21.065 18.2494 21.1227 18.2586C21.1803 18.2678 21.2393 18.2636 21.2951 18.2463C21.4047 18.2097 21.5875 17.9904 21.7936 18.1167C21.9996 18.2429 22.3719 18.5421 22.7075 18.4723C22.8387 18.4542 22.9637 18.4054 23.0723 18.3297C23.1809 18.254 23.27 18.1537 23.3323 18.0369C23.476 17.7109 23.6426 17.3955 23.8309 17.093C23.9472 16.9767 24.2463 16.7407 24.2031 16.8338C24.0274 17.1718 23.9148 17.5389 23.8707 17.9172C23.8707 18.2496 23.8176 18.336 23.9239 18.4191C23.9775 18.4534 24.0398 18.4717 24.1034 18.4717C24.167 18.4717 24.2293 18.4534 24.2829 18.4191C24.4025 18.3626 24.5953 18.2297 24.6152 18.3094C24.6351 18.3892 23.9505 18.8578 23.7411 19.0638C23.5317 19.2699 23.329 19.6687 23.432 19.8316C23.5351 19.9944 23.9272 19.918 24.1266 19.918C24.3261 19.918 24.7515 19.9479 24.6983 20.0476C24.6451 20.1473 23.9272 20.6259 23.9272 20.7123C23.9272 20.7987 24.3626 20.9516 24.5919 20.9582C24.9449 20.9865 25.2957 21.0376 25.6421 21.1111C25.8681 21.1676 26.0576 21.1576 26.1041 21.2839C26.1506 21.4102 26.2204 21.5199 26.1373 21.5299C25.8895 21.5167 25.6441 21.4743 25.4062 21.4036C25.0171 21.2841 24.6176 21.2017 24.2131 21.1576C24.0203 21.1576 23.462 21.1576 23.3623 21.3371C23.2625 21.5166 23.6946 21.6694 23.7644 21.7392C23.8342 21.809 24.1931 22.1746 23.9837 22.2078C23.7744 22.2411 23.6049 22.0915 23.5251 22.0649C23.3538 21.9716 23.1894 21.8661 23.0332 21.7492C22.9535 21.6861 22.5979 21.3039 22.4284 21.3205C22.1754 21.342 21.9292 21.4131 21.7038 21.5299C21.5041 21.6741 21.3242 21.8439 21.1688 22.035C21.0524 22.1746 20.5705 22.4804 20.3711 22.6432C20.1717 22.8061 19.0783 23.6735 18.8822 23.823C18.6861 23.9726 18.1843 24.1554 17.9583 24.0025" fill="white"/>
<path fill-rule="evenodd" clip-rule="evenodd" d="M21.1156 17.5018C21.0495 17.3145 21.0566 17.1091 21.1355 16.9268C21.192 16.7739 21.6606 15.9132 22.1325 16.076C22.2241 16.0935 22.3088 16.1365 22.377 16.2C22.4452 16.2635 22.4941 16.3449 22.5181 16.4349C22.6144 16.7673 22.6277 17.3057 22.3585 17.5682C22.2731 17.6492 22.1721 17.7119 22.0616 17.7526C21.9512 17.7932 21.8336 17.811 21.7161 17.8048C21.5986 17.7985 21.4836 17.7685 21.378 17.7164C21.2725 17.6643 21.1787 17.5913 21.1023 17.5018" fill="#A12132"/>
<path fill-rule="evenodd" clip-rule="evenodd" d="M18.839 18.5487C18.9165 18.5232 18.987 18.4798 19.0447 18.4221C19.1024 18.3643 19.1458 18.2939 19.1713 18.2164C19.2145 18.0369 19.5735 18.0203 19.5901 17.9505C19.6067 17.8807 19.2212 16.9268 19.0118 16.8438C18.8024 16.7607 18.6794 16.9102 18.4568 16.8903C18.284 16.8903 18.1244 16.8039 18.0214 16.9966C17.8619 17.2858 17.5628 17.6613 17.7987 17.9937C18.0347 18.326 18.387 18.6351 18.8224 18.552" fill="#A12132"/>
<path fill-rule="evenodd" clip-rule="evenodd" d="M24.2762 19.2998C24.2593 19.3219 24.2382 19.3404 24.214 19.3541C24.1898 19.3678 24.163 19.3765 24.1354 19.3796C24.1078 19.3827 24.0798 19.3802 24.0531 19.3722C24.0265 19.3642 24.0018 19.3509 23.9804 19.333C24.2402 19.0494 24.5363 18.8013 24.8611 18.5952C24.9841 18.459 24.8844 17.8873 24.9509 17.6946C25.0173 17.5018 25.6156 17.0997 25.8648 17.2359C25.9939 17.2816 26.1086 17.3608 26.1972 17.4653C26.3078 17.6982 26.3559 17.9559 26.3367 18.213C26.3121 18.4317 26.2491 18.6444 26.1506 18.8412C26.0842 19.0605 25.692 19.024 25.5158 19.0406C25.2832 19.0638 25.0572 18.8844 24.8512 19.0206C24.651 19.095 24.4584 19.1885 24.2762 19.2998Z" fill="#A12132"/>
<path fill-rule="evenodd" clip-rule="evenodd" d="M21.6407 20.1141C21.7138 19.9711 21.6407 19.7618 21.6407 19.6089C21.6407 19.456 21.7038 19.2998 21.5709 19.2267C21.4861 19.5153 21.4861 19.8221 21.5709 20.1107C21.5709 20.1473 21.6207 20.1107 21.6241 20.1107" fill="#A12132"/>
<path fill-rule="evenodd" clip-rule="evenodd" d="M16.2999 20.8884C16.4167 20.7085 16.571 20.5559 16.7523 20.4412C16.9336 20.3265 17.1375 20.2523 17.3501 20.2237C17.3501 20.1705 17.2404 20.1273 17.1972 20.1273C16.9307 20.0683 16.6946 19.9148 16.5325 19.6953C16.2002 19.2831 15.9908 18.9475 15.4258 19.1203C14.8608 19.2931 14.8076 20.2835 14.9771 20.7621C15.0258 20.8924 15.11 21.0064 15.2201 21.0913C15.3303 21.1762 15.4621 21.2285 15.6004 21.2423C15.7388 21.2562 15.8783 21.231 16.0031 21.1696C16.1279 21.1082 16.233 21.0131 16.3065 20.895" fill="#A12132"/>
<path fill-rule="evenodd" clip-rule="evenodd" d="M28.0749 20.1539C28.6897 19.9213 29.1849 20.2237 28.8858 20.7322C28.7296 20.9948 28.7828 21.3005 28.6066 21.5631C28.5235 21.6733 28.4082 21.755 28.2765 21.7967C28.1449 21.8383 28.0036 21.838 27.8721 21.7957C27.6089 21.7131 27.3648 21.5786 27.1543 21.4002C26.9648 21.2041 26.9117 21.0479 26.6026 20.9682C26.1007 20.8352 25.5557 20.9682 25.0671 20.7754C25.6222 20.4929 26.2603 20.7987 26.8452 20.7754C27.0978 20.7754 27.2739 20.3101 28.0749 20.1672" fill="#A12132"/>
<path fill-rule="evenodd" clip-rule="evenodd" d="M25.0473 20.7621C24.9807 20.7248 24.9058 20.7053 24.8296 20.7053C24.7533 20.7053 24.6784 20.7248 24.6119 20.7621C24.7551 20.7952 24.904 20.7952 25.0473 20.7621Z" fill="#A12132"/>
<path fill-rule="evenodd" clip-rule="evenodd" d="M17.5096 22.5435C16.9513 21.8788 15.7714 23.145 15.6817 23.2281C15.592 23.3112 15.3759 23.4773 15.3494 23.5604C15.2796 23.823 15.8878 24.1753 16.0805 24.2849C16.3298 24.4345 16.5458 24.8067 16.8881 24.5409C17.2304 24.275 17.257 24.049 17.3468 23.6535C17.4092 23.2924 17.5796 22.9587 17.8353 22.6963C18.134 22.4785 18.4101 22.2313 18.6595 21.9585C18.1178 21.9186 17.9051 22.3607 17.5096 22.5335" fill="#A12132"/>
<path fill-rule="evenodd" clip-rule="evenodd" d="M25.8449 19.6588C25.7385 19.23 24.9841 19.6787 24.7947 19.6388C25.0107 19.6953 25.3231 19.6787 25.6089 19.7186C25.6887 19.7385 25.8648 19.7452 25.8449 19.6588Z" fill="#A12132"/>
<path fill-rule="evenodd" clip-rule="evenodd" d="M22.5945 22.1147C22.8105 22.2344 22.8803 22.5269 23.0997 22.6565C23.3227 22.7746 23.538 22.9067 23.7444 23.052C23.8441 23.1284 23.9538 23.484 23.7876 23.5638C23.5417 23.6834 23.4553 23.2115 23.3323 23.607C23.2093 24.0025 22.7274 24.1853 22.6344 24.604C22.5746 24.8932 22.3685 25.2953 22.5546 25.5778C22.5835 25.6185 22.6212 25.6523 22.665 25.6764C22.7087 25.7006 22.7573 25.7146 22.8072 25.7174C22.9683 25.7153 23.1261 25.7629 23.2592 25.8536C23.3538 25.9304 23.4677 25.9797 23.5885 25.9961C23.7092 26.0125 23.8321 25.9954 23.9438 25.9467C24.0716 25.8998 24.1856 25.8217 24.2756 25.7196C24.3655 25.6174 24.4286 25.4944 24.459 25.3618C24.3949 25.057 24.3505 24.7483 24.326 24.4378C24.326 24.1055 24.4756 23.936 24.326 23.6236C24.2215 23.4034 24.0625 23.2135 23.8641 23.0719C23.6946 22.9456 23.6348 22.7096 23.5118 22.5335C23.2974 22.2678 23.0654 22.0168 22.8172 21.7824C22.7586 21.7106 22.6845 21.653 22.6004 21.6138C22.5164 21.5747 22.4246 21.5551 22.332 21.5564C22.0597 21.6108 21.8158 21.7604 21.644 21.9785C21.4278 22.1907 21.1968 22.3872 20.9527 22.5667C20.7267 22.7861 20.7766 23.1184 20.6603 23.391C20.5233 23.6303 20.4204 23.8876 20.3545 24.1553C20.5107 24.0656 20.617 23.823 20.7101 23.6834C20.7778 23.5759 20.8522 23.4726 20.9328 23.3743C21.0159 23.268 21.1455 23.2647 21.2419 23.1782C21.5144 22.9157 21.541 22.5867 21.7171 22.2942C21.8273 22.179 21.97 22.1001 22.1261 22.0681C22.2823 22.036 22.4445 22.0523 22.5912 22.1147" fill="#A12132"/>
<path fill-rule="evenodd" clip-rule="evenodd" d="M27.7093 24.7636C27.6673 24.5987 27.6549 24.4276 27.6727 24.2584C27.7073 24.057 27.6633 23.85 27.5498 23.6801C27.4334 23.4574 27.0778 22.9257 26.7588 23.0719C26.6491 23.1185 26.5427 23.2547 26.4065 23.1783C26.2702 23.1018 26.1971 22.9423 25.9977 22.8725C25.7983 22.8027 25.6255 22.7861 25.4394 22.7363C25.3135 22.6981 25.1845 22.6714 25.0538 22.6565C25.1768 22.9157 25.5989 23.0753 25.8083 23.2481C26.2603 23.6236 26.0442 24.0523 26.0176 24.5343C25.977 24.6996 25.9922 24.8737 26.0608 25.0294C26.1605 25.1757 26.5394 25.2023 26.6258 25.2554C26.8472 25.3613 27.0978 25.3894 27.3371 25.3352C27.435 25.2706 27.5187 25.1865 27.5827 25.0882C27.6468 24.9898 27.6898 24.8793 27.7093 24.7636Z" fill="#A12132"/>
<path fill-rule="evenodd" clip-rule="evenodd" d="M22.6643 29.1539C22.8006 29.124 22.9966 29.2669 23.2825 29.3799C23.5305 29.4868 23.7943 29.5531 24.0635 29.5759C24.3639 29.6314 24.6355 29.7901 24.8312 30.0246C24.9393 30.2979 24.9393 30.6021 24.8312 30.8754C24.7114 31.0357 24.6269 31.2196 24.5834 31.415C24.5398 31.6103 24.5382 31.8127 24.5786 32.0087C24.7016 32.5571 24.9342 32.7631 24.5321 32.7266C24.2137 32.685 23.9013 32.6058 23.6015 32.4906C23.2915 32.4486 23.0047 32.3034 22.7873 32.0785C22.5347 31.7661 22.3752 31.8226 21.9631 31.5733C21.5509 31.3241 21.2984 30.7923 21.5044 30.5763C21.7105 30.3603 22.3419 29.7853 22.4184 29.659C22.4948 29.5327 22.6178 29.1805 22.6743 29.1672" fill="#A12132"/>
<path fill-rule="evenodd" clip-rule="evenodd" d="M30.85 25.9068C30.85 25.7805 31.1491 25.5745 31.1823 25.5014C31.2068 25.241 31.1978 24.9785 31.1557 24.7204C31.0992 24.5143 31.0627 24.285 31.2189 24.1853C31.4682 24.0349 31.767 23.9895 32.0497 24.059C32.3057 24.1687 32.5117 24.2684 32.7477 24.3548C32.9836 24.4412 33.5985 24.7702 33.7048 24.9896C33.8112 25.2089 33.9607 25.4648 33.7979 25.7041C33.635 25.9434 33.635 26.1229 33.5087 26.2325C33.29 26.398 33.0865 26.5826 32.9006 26.7842C32.7277 27.0036 32.6014 27.4489 32.3921 27.5619C32.1827 27.6749 31.7706 27.7912 31.6509 27.645C31.5365 27.4711 31.4828 27.2643 31.4981 27.0567C31.5246 26.9305 31.8304 26.6912 31.744 26.4851C31.6576 26.2791 31.4615 26.2491 31.2355 26.1694C31.0095 26.0896 30.8633 26.0331 30.8633 25.9068" fill="#A12132"/>
<path fill-rule="evenodd" clip-rule="evenodd" d="M11.5806 27.7514C11.4709 27.6317 11.3579 27.5287 11.4144 27.419C11.5194 27.2337 11.5977 27.0346 11.647 26.8274C11.6687 26.5542 11.6687 26.2797 11.647 26.0065C11.6566 25.8416 11.6948 25.6797 11.76 25.528C11.7933 25.3983 11.76 25.1557 11.9894 25.076C12.2176 25.01 12.4589 25.0032 12.6906 25.056C12.9033 25.0926 13.3287 25.2023 13.4484 25.4349C13.568 25.6675 13.6411 25.9334 13.7807 26.0265C13.9203 26.1195 14.3424 26.3056 14.3523 26.3588C14.3623 26.412 14.2693 26.5051 14.1197 26.7643C14.015 27.1056 13.9623 27.4608 13.9635 27.8178C13.9469 27.9441 13.9635 28.436 13.7874 28.5457C13.6112 28.6553 13.352 28.5457 13.1227 28.4227C12.8718 28.321 12.6314 28.1953 12.4048 28.0471C12.2818 27.9341 12.2851 27.7912 12.2021 27.7514C12.119 27.7115 11.7135 27.8644 11.6005 27.7514" fill="#A12132"/>
<path fill-rule="evenodd" clip-rule="evenodd" d="M20.5572 25.3418C20.6431 25.501 20.6866 25.6795 20.6835 25.8603C20.6911 26.0603 20.6489 26.259 20.5605 26.4386C20.4049 26.5791 20.2261 26.6915 20.0321 26.7709C19.9324 26.8042 19.6333 26.9105 19.4638 26.7709C19.307 26.6646 19.1698 26.5319 19.0583 26.3788C18.9889 26.1989 18.965 26.0046 18.9888 25.8133C19.0126 25.6219 19.0833 25.4394 19.1946 25.282C19.3375 25.1192 19.6001 25.1059 19.7696 24.9497C19.9116 24.8134 20.0626 24.6868 20.2215 24.5708C20.2215 24.7337 20.1052 24.9331 20.2215 25.0826C20.3379 25.2322 20.4708 25.2255 20.5539 25.3252" fill="#A12132"/>
<path fill-rule="evenodd" clip-rule="evenodd" d="M24.3261 21.5963C24.1527 21.5459 23.9744 21.5147 23.7943 21.5032C23.9273 21.696 24.2662 21.6661 24.4756 21.7458C24.5586 21.7873 24.6375 21.8363 24.7116 21.8921C24.9376 22.025 25.3763 22.1746 25.4228 22.2477C25.5223 22.3203 25.6353 22.3721 25.7552 22.4001C25.8751 22.4281 25.9994 22.4316 26.1207 22.4105C26.2138 22.3773 26.3833 22.3374 26.3401 22.2145C26.1606 21.8522 25.6488 21.9818 25.3763 21.809C25.2865 21.7525 25.2865 21.6827 25.1536 21.6594C25.0256 21.6573 24.8979 21.6461 24.7714 21.6262C24.6232 21.6154 24.4743 21.6154 24.3261 21.6262" fill="#A12132"/>
<path fill-rule="evenodd" clip-rule="evenodd" d="M21.8534 18.3027C21.8514 18.3756 21.8413 18.4481 21.8235 18.5188C21.746 18.7756 21.7589 19.0513 21.86 19.2998C21.921 19.2004 21.9413 19.0813 21.9165 18.9674C21.9103 18.8446 21.9215 18.7215 21.9498 18.6018C21.9322 18.5003 21.9032 18.4011 21.8634 18.3061" fill="#A12132"/>
<path fill-rule="evenodd" clip-rule="evenodd" d="M20.9228 21.1709C21.0158 21.2839 20.8862 21.4667 20.8131 21.5697C20.74 21.6727 20.5938 21.7425 20.3212 22.025C20.0487 22.3075 19.7629 22.6432 19.6865 22.7395C19.61 22.8359 19.4405 23.1051 19.3741 23.0453C19.3076 22.9855 19.507 22.6166 19.5568 22.5368C19.6808 22.3423 19.8269 22.1627 19.9922 22.0017C20.215 21.8513 20.4144 21.6687 20.5838 21.46C20.5838 21.4002 20.3944 21.4168 20.3146 21.4334C20.2348 21.45 19.846 21.593 19.7363 21.6162C19.6266 21.6395 19.5003 21.573 19.6565 21.4434C19.7319 21.3611 19.8285 21.3013 19.9357 21.2706C20.0155 21.2706 20.2481 21.2473 20.298 21.1941C20.3478 21.141 20.3545 20.9914 20.298 20.9582C20.2415 20.9249 20.1717 20.9582 20.1052 20.9582C20.0387 20.9582 19.2577 20.8186 19.1281 20.7953C18.9985 20.7721 18.2474 20.5726 18.1311 20.5494C18.0148 20.5261 17.9815 20.4331 18.1975 20.4331C18.4136 20.4331 18.7958 20.5062 18.9387 20.5062C19.0816 20.5062 19.2411 20.4829 19.3873 20.4896C19.6144 20.5289 19.845 20.5445 20.0753 20.5361C20.2016 20.4896 20.3744 20.4164 20.4077 20.3334C20.4274 20.2934 20.4351 20.2485 20.4298 20.2043C20.4245 20.16 20.4064 20.1182 20.3777 20.0841C20.1927 19.948 20.0252 19.7895 19.8792 19.6122C19.8208 19.4623 19.7301 19.3273 19.6133 19.2167C19.5203 19.1701 19.3641 19.1436 19.3009 19.0505C19.2378 18.9574 19.2012 18.7182 19.3009 18.7647C19.4721 18.8376 19.6329 18.9326 19.7795 19.0472C19.8294 19.1103 19.9125 19.2765 20.0088 19.3795C20.1317 19.5188 20.2699 19.6437 20.4209 19.7518C20.5633 19.8328 20.6841 19.9467 20.7732 20.0841C21.0856 20.104 21.1521 20.0841 21.3582 20.0841C21.5574 20.0879 21.7556 20.1124 21.9497 20.1572C22.0162 20.1904 22.2356 20.2968 22.312 20.2237C22.3884 20.1506 22.5912 19.7152 22.6709 19.6088C22.7507 19.5025 23.1329 19.0339 23.206 18.9076C23.3597 18.7216 23.5497 18.569 23.7643 18.4589C23.8042 18.4822 23.8973 18.5387 23.7311 18.6882C23.4819 18.9131 23.2477 19.154 23.0299 19.4094C22.9667 19.5258 22.6975 19.9512 22.6543 20.0409C22.6111 20.1306 22.4682 20.2337 22.5081 20.2902C22.548 20.3467 22.8205 20.4198 22.877 20.4763C22.9335 20.5328 23.1063 20.8485 22.9833 20.9316C22.9194 20.9596 22.8477 20.9647 22.7805 20.9459C22.7133 20.9271 22.6546 20.8857 22.6144 20.8286C22.5325 20.715 22.4389 20.6103 22.3353 20.5161C21.9422 20.2967 21.489 20.2093 21.0424 20.2669C20.9128 20.3001 20.6469 20.3932 20.6436 20.5394C20.647 20.6584 20.674 20.7754 20.7231 20.8839C20.7722 20.9923 20.8423 21.0898 20.9294 21.1709" fill="#A12132"/>
<path fill-rule="evenodd" clip-rule="evenodd" d="M21.2851 19.8415C21.212 19.8415 20.9527 19.6155 20.8829 19.456C20.7902 19.2659 20.6858 19.0816 20.5705 18.9043C20.5107 18.8278 20.4808 18.665 20.421 18.6185C20.3612 18.5719 20.0886 18.2562 20.175 18.2163C20.2615 18.1764 20.5074 18.4423 20.5539 18.5188C20.6004 18.5952 20.8497 18.9508 20.9162 19.0406C20.9826 19.1303 21.1787 19.4427 21.2286 19.5357C21.2784 19.6288 21.3582 19.8415 21.2851 19.8415Z" fill="#A12132"/>
<defs>
<radialGradient id="paint0_radial_7_229" cx="0" cy="0" r="1" gradientUnits="userSpaceOnUse" gradientTransform="translate(21.7389 19.6222) scale(13.0903)">
<stop stop-color="white"/>
<stop offset="0.07" stop-color="white"/>
<stop offset="0.38" stop-color="#F2D4DA"/>
<stop offset="0.42" stop-color="#EFCBD1"/>
<stop offset="0.69" stop-color="#DB8D98"/>
<stop offset="0.9" stop-color="#CF6675"/>
<stop offset="1" stop-color="#CA5767"/>
</radialGradient>
<radialGradient id="paint1_radial_7_229" cx="0" cy="0" r="1" gradientUnits="userSpaceOnUse" gradientTransform="translate(20.5046 10.2244) scale(10.0585)">
<stop stop-color="#CA5767"/>
<stop offset="0.21" stop-color="#CA5767"/>
<stop offset="0.31" stop-color="#CC5D6C"/>
<stop offset="0.43" stop-color="#D16C7B"/>
<stop offset="0.58" stop-color="#D98793"/>
<stop offset="0.73" stop-color="#E5ABB4"/>
<stop offset="0.87" stop-color="#F2D4DA"/>
<stop offset="1" stop-color="#F2D4DA"/>
</radialGradient>
<radialGradient id="paint2_radial_7_229" cx="0" cy="0" r="1" gradientUnits="userSpaceOnUse" gradientTransform="translate(21.7586 12.2599) scale(11.2059 10.6699)">
<stop stop-color="#CA5767"/>
<stop offset="0.11" stop-color="#CB5B6B"/>
<stop offset="0.22" stop-color="#D06877"/>
<stop offset="0.34" stop-color="#D77E8B"/>
<stop offset="0.47" stop-color="#E09CA7"/>
<stop offset="0.59" stop-color="#EDC3CA"/>
<stop offset="0.64" stop-color="#F2D4DA"/>
<stop offset="0.75" stop-color="#F4DBE0"/>
<stop offset="0.91" stop-color="#FAF0F2"/>
<stop offset="1" stop-color="white"/>
</radialGradient>
<radialGradient id="paint3_radial_7_229" cx="0" cy="0" r="1" gradientUnits="userSpaceOnUse" gradientTransform="translate(17.5116 23.2587) scale(7.27799 7.27799)">
<stop stop-color="white"/>
<stop offset="0.41" stop-color="#F2D4DA"/>
<stop offset="0.45" stop-color="#EFCBD1"/>
<stop offset="0.71" stop-color="#DB8D98"/>
<stop offset="0.9" stop-color="#CF6675"/>
<stop offset="1" stop-color="#CA5767"/>
</radialGradient>
<radialGradient id="paint4_radial_7_229" cx="0" cy="0" r="1" gradientUnits="userSpaceOnUse" gradientTransform="translate(17.4324 22.1796) scale(9.26289)">
<stop stop-color="white"/>
<stop offset="0.07" stop-color="white"/>
<stop offset="0.43" stop-color="#F2D4DA"/>
<stop offset="0.46" stop-color="#EFCBD1"/>
<stop offset="0.72" stop-color="#DB8D98"/>
<stop offset="0.9" stop-color="#CF6675"/>
<stop offset="1" stop-color="#CA5767"/>
</radialGradient>
<radialGradient id="paint5_radial_7_229" cx="0" cy="0" r="1" gradientUnits="userSpaceOnUse" gradientTransform="translate(39.437 13.7575) scale(18.5844 18.5844)">
<stop stop-color="#CA5767"/>
<stop offset="0.31" stop-color="#CA5767"/>
<stop offset="0.37" stop-color="#CD606F"/>
<stop offset="0.48" stop-color="#D57886"/>
<stop offset="0.61" stop-color="#E1A0AA"/>
<stop offset="0.76" stop-color="#F2D4DA"/>
<stop offset="1" stop-color="#F2D4DA"/>
</radialGradient>
<radialGradient id="paint6_radial_7_229" cx="0" cy="0" r="1" gradientUnits="userSpaceOnUse" gradientTransform="translate(22.2722 22.6584) scale(9.68165)">
<stop stop-color="white"/>
<stop offset="0.09" stop-color="white"/>
<stop offset="0.37" stop-color="#F2D4DA"/>
<stop offset="0.4" stop-color="#EEC8CF"/>
<stop offset="0.5" stop-color="#E1A0AA"/>
<stop offset="0.59" stop-color="#D7808D"/>
<stop offset="0.69" stop-color="#D06978"/>
<stop offset="0.78" stop-color="#CB5C6B"/>
<stop offset="0.85" stop-color="#CA5767"/>
<stop offset="1" stop-color="#CA5767"/>
</radialGradient>
</defs>
</svg>
