<svg width="40" height="40" viewBox="0 0 40 40" fill="none" xmlns="http://www.w3.org/2000/svg">
<path d="M4.00061 18.0056V19.0167C7.4215 17.6821 10.8723 16.8686 14.184 16.3877C11.1321 16.3085 7.54363 16.8283 4.00061 18.0056Z" fill="#016CB2"/>
<path d="M22.7025 19.0601C21.8957 18.4753 21.0499 17.9412 19.9572 17.4929C20.3223 17.4695 20.7004 17.411 21.1291 17.3889C21.8112 17.8412 22.7285 18.5598 23.2716 19.2446L22.7025 19.0601ZM15.1838 14.8536C14.3432 14.5365 13.3493 14.3247 12.3619 14.1843C12.7893 14.0895 13.2077 14.0076 13.6845 13.9491C14.377 14.1388 15.2917 14.4676 16.1648 15.0069L15.1838 14.8536ZM4 12.6821C4.92116 12.6548 5.97485 12.9628 7.11558 13.1135L5.11085 13.3708C4.76915 13.3851 4.38587 13.4163 4 13.454V13.9062C5.45255 13.6346 7.04152 13.4579 8.51485 13.4449C21.4241 10.3559 32.1181 13.2643 32.1181 13.2643C29.8237 12.7393 17.0391 10.9901 4 16.1271V16.9068C5.93586 16.2505 7.98087 15.7437 9.93752 15.5111C12.8387 15.1525 15.5359 15.3123 17.807 15.9569C27.3486 15.272 34.2631 17.3226 34.2631 17.3226C31.6673 16.8977 17.7368 14.9796 4 21.281V21.9073C7.80287 20.0841 11.7915 19.0328 15.1916 18.808C18.6385 18.6222 21.7216 19.1147 24.0394 20.4974C29.5053 20.4129 33.6707 21.1224 35.9989 21.6903V4H4V12.6821Z" fill="#016CB2"/>
<path d="M4.00061 23.1979V25.1524C9.62111 22.4117 15.3508 21.1096 20.3424 20.6781C15.7821 19.8698 9.93683 20.7028 4.00061 23.1979Z" fill="#016CB2"/>
<path d="M28.5618 25.5271C27.5925 24.0924 26.3648 23.0086 24.6615 22.1782C25.1708 22.1171 25.8113 22.0989 26.2894 22.0768C26.4596 22.2029 26.622 22.3601 26.7753 22.5512C26.8338 22.6356 28.732 24.5108 29.3686 26.4198L28.5618 25.5271ZM4.00098 27.7297V28.5419C4.38685 28.321 4.77402 28.1105 5.13781 27.9143C8.01302 26.364 10.8856 25.2841 13.757 24.6265C16.475 23.9767 19.1371 23.7467 21.5706 23.9637C26.1712 24.3783 29.4751 26.3938 31.0667 29.8739C31.081 29.8999 32.2178 32.4561 32.327 34.8667L31.7748 33.4866C31.6293 32.7979 31.4409 32.0896 31.081 31.4555C29.9026 29.1579 27.6055 27.5088 24.5068 26.542C21.6927 25.6505 17.9977 25.6115 14.1636 26.364C10.7609 27.0111 7.29714 28.3002 4.00098 29.9376V35.9986H4.32059C6.29803 34.5236 8.43138 33.4424 10.6492 32.5601C16.462 30.052 22.1162 29.2931 26.3596 30.4223C29.4751 31.3164 31.511 33.1617 32.3399 35.9986H35.9999V21.9469C30.764 21.3491 16.8102 20.381 4.00098 27.7297Z" fill="#016CB2"/>
<path d="M25.744 32.6775C22.9675 31.9394 19.774 31.8952 16.2323 32.5528C13.0726 33.1323 9.76079 34.2084 6.57635 36.0004H30.8786C29.747 34.3448 27.9449 33.2844 25.744 32.6775Z" fill="#016CB2"/>
</svg>
