<svg width="40" height="40" viewBox="0 0 40 40" fill="none" xmlns="http://www.w3.org/2000/svg">
<g clip-path="url(#clip0_90_472)">
<path d="M29.461 18.7535V18.3577H28.6298V18.041L29.5006 16.7744H29.8172V18.041H30.0547V18.3577H29.8172V18.7535H29.461ZM29.461 18.041V17.3681L28.986 18.041H29.461Z" fill="#039849"/>
<path d="M31.0839 18.7535V18.3577H30.2527V18.041L31.1235 16.7744H31.4401V18.041H31.6776V18.3577H31.4401V18.7535H31.0839ZM31.0839 18.041V17.3681L30.6089 18.041H31.0839Z" fill="#039849"/>
<path d="M31.8359 17.1688C31.8359 17.05 31.8755 16.9313 31.9546 16.8521C32.0338 16.773 32.1525 16.7334 32.2713 16.7334C32.39 16.7334 32.5087 16.773 32.5879 16.8521C32.6671 16.9313 32.7067 17.05 32.7067 17.1688C32.7067 17.2875 32.6671 17.4063 32.5879 17.4854C32.5087 17.5646 32.39 17.6042 32.2713 17.6042C32.1525 17.6042 32.0338 17.5646 31.9546 17.4854C31.8755 17.4063 31.8359 17.2875 31.8359 17.1688ZM32.0734 17.1688C32.0734 17.2084 32.0734 17.2875 32.1525 17.3271C32.1921 17.3667 32.2317 17.4063 32.3108 17.4063C32.39 17.4063 32.4296 17.3667 32.4692 17.3271C32.5088 17.2875 32.5483 17.2479 32.5483 17.1688C32.5483 17.1292 32.5088 17.05 32.4692 17.0105C32.4296 16.9709 32.39 16.9313 32.3108 16.9313C32.2317 16.9313 32.1921 16.9709 32.1525 17.0105C32.1129 17.0896 32.0734 17.1292 32.0734 17.1688Z" fill="#039849"/>
<path d="M32.9838 18.1187L33.3796 18.0791C33.4192 18.1979 33.4587 18.3166 33.5379 18.3562C33.6171 18.4354 33.6962 18.4354 33.815 18.4354C33.9337 18.4354 34.0525 18.3958 34.092 18.3562C34.1712 18.3166 34.1712 18.2375 34.1712 18.1583C34.1712 18.1187 34.1712 18.0791 34.1316 18.0396C34.092 18 34.0524 17.9604 33.9733 17.9604C33.9337 17.9604 33.815 17.9208 33.6566 17.8812C33.4587 17.8417 33.3004 17.7625 33.2213 17.6833C33.1025 17.5646 33.0233 17.4459 33.0233 17.2875C33.0233 17.1688 33.0629 17.0896 33.1025 17.0105C33.1421 16.9313 33.2608 16.8521 33.34 16.8126C33.4587 16.773 33.5775 16.7334 33.7358 16.7334C33.9733 16.7334 34.1712 16.773 34.2899 16.8917C34.4087 17.0105 34.4878 17.1292 34.4878 17.3271H34.092C34.092 17.2084 34.0524 17.1688 33.9733 17.0896C33.9337 17.05 33.815 17.0105 33.7358 17.0105C33.6171 17.0105 33.5379 17.05 33.4587 17.0896C33.4192 17.1292 33.3796 17.1688 33.3796 17.2084C33.3796 17.248 33.4192 17.2875 33.4587 17.3271C33.4983 17.3667 33.6171 17.4063 33.815 17.4459C34.0129 17.4854 34.1712 17.525 34.2504 17.6042C34.3295 17.6438 34.4087 17.7229 34.4878 17.8021C34.5274 17.8812 34.567 18 34.567 18.1187C34.567 18.2375 34.5274 18.3562 34.4878 18.4354C34.4087 18.5541 34.3295 18.5937 34.2108 18.6729C34.092 18.7124 33.9337 18.752 33.7754 18.752C33.5379 18.752 33.34 18.7124 33.1817 18.5937C33.0629 18.5145 32.9838 18.3562 32.9838 18.1187Z" fill="#039849"/>
<path d="M26.2946 7.31432C26.9674 7.19558 27.007 7.67055 27.6007 7.59139C28.3528 6.44354 26.0175 5.61234 26.2946 7.31432ZM18.8138 7.31432C18.9721 7.51222 19.2492 7.59139 19.4075 7.74971C19.4866 7.82887 19.4866 8.10594 19.5658 8.1851C19.645 8.26426 19.8429 8.30384 19.8429 8.46217C19.9616 8.50175 20.1199 8.46217 20.1199 8.62049C21.2678 8.73923 22.8114 8.54133 23.4447 9.2142C22.4552 9.61001 21.3469 9.92666 20.9907 10.9558C20.6741 10.9162 20.4366 10.9953 20.2783 11.1141C19.8825 13.6077 21.7823 13.7264 22.2969 15.2701C22.2573 15.8242 21.8219 15.943 21.8615 16.5763C22.3365 17.17 23.2072 17.0512 23.8801 17.17C23.9593 16.2596 24.5134 15.2305 24.0384 14.5972C24.9884 13.6473 24.4738 11.8265 24.0384 10.7183C24.5134 11.2724 24.5926 10.9558 25.1863 10.7183C25.0676 9.64959 25.6217 9.25378 26.6112 9.29336C26.6508 8.46217 26.2154 7.94761 25.8987 7.5518C25.4634 6.99767 25.4238 6.95809 24.9092 6.68102C24.1968 6.3248 23.4052 5.96857 22.6135 5.96857C21.9802 6.20605 21.624 6.68102 20.872 6.83935C20.9907 5.6915 20.1595 5.53318 19.1304 5.53318C19.2492 6.28522 18.7346 6.56228 18.8138 7.31432ZM15.9244 3C16.4785 3.47497 17.3889 3.63329 18.3784 3.71246C18.7346 4.10827 19.3283 4.30617 19.8033 4.58324C20.4366 4.58324 21.1095 4.62282 21.5448 4.42491C21.5053 4.78114 21.2678 5.01863 21.5448 5.29569C23.8405 6.3248 27.007 5.45402 29.8964 5.45402C30.3318 5.4936 30.3714 5.09779 30.4901 4.74156C30.9651 4.62282 30.688 5.21653 31.0838 5.17695C31.163 4.97905 31.3213 4.82072 31.5192 4.74156C31.8755 4.70198 31.915 5.05821 32.3109 5.01863C32.9046 5.13737 32.8254 4.54366 33.4587 4.74156C33.617 5.01863 33.8941 5.13737 33.8941 5.57276C33.0629 5.4936 32.39 5.61234 31.8755 5.84983C31.9546 6.08731 31.4401 6.44354 31.8755 6.56228C31.8359 6.76019 32.4692 6.99767 32.0338 7.156C31.4005 7.23516 31.5984 6.56228 31.0443 6.56228C30.0547 6.56228 29.3819 6.91851 28.5903 7.156C27.9174 7.5518 27.6403 8.30384 27.1653 8.89756C26.8883 9.68917 26.255 10.085 25.8592 10.7579C25.1863 12.1432 24.7509 13.766 24.553 15.6263V17.3679C24.7113 17.9616 24.9092 18.5553 25.1467 19.1094C25.3842 19.5448 25.8196 19.7823 26.1362 20.099L28.5903 20.6927C28.3132 20.7718 27.9174 21.4447 28.3132 21.6822C27.9965 21.8009 27.1653 21.603 26.8883 22.1176C26.532 22.0384 26.2154 21.9197 25.7404 21.9593C24.9488 22.1967 24.3551 22.5926 23.2864 22.553C22.0198 22.9488 21.3469 23.9383 20.1199 24.4133C19.6845 25.0466 18.9721 25.3632 18.3784 25.8382C16.5972 26.1153 15.8848 25.4028 15.2119 24.532C15.2911 23.6612 15.1327 23.1071 14.4994 22.9488C14.6578 22.553 14.6578 21.9593 14.6578 21.3655C14.5786 20.9302 13.8662 21.2072 13.787 20.6531C13.787 20.5343 13.5891 20.2177 13.6287 20.0594C13.7474 19.5844 13.5495 19.5844 13.6287 19.3469C14.1036 19.2282 14.4994 19.0698 14.9348 18.9115C15.4494 18.7136 15.4494 18.0012 16.241 18.0407C16.716 17.8033 16.8347 17.2095 17.5472 17.17C17.7055 16.7346 18.2596 16.7346 18.1409 16.0221C18.7742 15.8638 18.6159 16.4971 19.1304 16.4575C20.3178 15.7451 19.2492 14.241 19.2887 13.014C19.17 12.4598 18.6554 12.3015 18.418 11.8661C18.1409 10.9558 17.6659 10.2433 17.1118 9.57043C16.7556 9.57043 16.5972 9.29336 16.3993 9.13504H15.4098C15.4494 8.54133 15.1723 9.13504 14.9744 9.13504C14.5786 9.17462 14.6182 8.81839 14.539 8.54133C14.3411 8.97672 13.8266 9.09546 13.6682 8.54133C13.5099 9.0163 13.312 9.76834 12.7975 9.13504C12.5204 9.45169 13.1933 9.72875 12.6391 10.1246C11.7288 10.2433 11.2934 9.49127 10.6205 10.1246C10.106 10.085 9.8289 9.76834 9.31435 9.68917C8.7998 9.76834 9.631 10.362 9.15602 10.4016C8.95812 10.6787 8.44357 10.5995 8.32483 10.9162C7.88944 10.9558 7.45405 10.9162 7.3353 10.6391C6.78117 10.4808 7.09782 11.1932 6.62285 11.0745C6.62285 10.6787 6.02913 10.7974 5.63332 10.7974C5.39584 10.5204 5.63332 10.5995 5.63332 10.2037C5.35626 10.2037 5.15835 10.1246 5.03961 9.92666C5.00003 9.53085 5.39584 9.53085 5.75207 9.49127C5.87081 8.97672 5.55416 8.93714 5.59374 8.50175C6.14788 7.90803 7.37488 7.94761 8.32483 7.74971C8.28524 7.59139 8.36441 7.51222 8.48315 7.47264C8.68105 6.72061 8.12692 6.76019 8.04776 6.3248C7.73111 6.20605 8.20608 5.65192 8.44357 5.57276C8.95812 5.45402 8.60189 6.20605 8.87896 6.3248C9.631 6.44354 10.106 6.79977 11.0163 6.76019C12.3225 6.5227 13.2329 5.88941 14.8953 6.04773C15.3702 5.88941 14.4994 6.00815 14.7369 5.61234C15.0932 5.33527 15.489 5.09779 15.7265 4.74156C15.8056 4.14785 15.489 3.94994 15.4494 3.43539C15.8848 3.51455 16.0035 3.35623 15.9244 3Z" fill="#039849"/>
<path d="M27.1258 29.4008C27.3633 29.3612 27.3633 29.5196 27.5612 29.5592C27.8382 30.5091 29.0257 30.5883 28.9861 31.8548C28.709 32.6069 27.8778 32.7652 27.5612 33.4381V35.8525C27.2841 35.9317 27.2841 36.2483 26.8487 36.1296C26.4529 36.2879 26.4925 36.842 26.1363 37.0004C25.6217 36.9608 25.4634 36.5254 25.2655 36.1296C24.6322 36.0108 23.9197 35.9317 23.8406 35.2588C23.9197 34.7838 24.3947 34.7443 24.7114 34.5463C24.2364 33.7151 24.6718 33.0423 24.9884 32.2507C24.9093 31.6569 24.5135 31.3799 24.1176 31.1028C24.6718 30.4695 25.8196 29.9154 26.6904 30.1133C26.9675 29.9945 26.9675 29.5987 27.1258 29.4008Z" fill="#039849"/>
</g>
<defs>
<clipPath id="clip0_90_472">
<rect width="29.5669" height="34" fill="white" transform="translate(5 3)"/>
</clipPath>
</defs>
</svg>
