<svg width="40" height="40" viewBox="0 0 40 40" fill="none" xmlns="http://www.w3.org/2000/svg">
<path d="M16.3693 19.3526C16.2582 19.3675 16.1344 19.2071 16.0817 19.1315C16.0657 19.1097 16.005 18.9803 16.0198 18.9608C16.0439 18.9425 16.1699 18.9849 16.2032 19.0124C16.2857 19.0777 16.3521 19.1693 16.3934 19.3263C16.3945 19.3446 16.3785 19.3526 16.3693 19.3526ZM13.6882 17.8666C13.6126 17.8941 13.427 17.6833 13.3754 17.6054C13.2803 17.4621 13.1841 17.3029 13.0833 17.1619C12.9893 17.0371 12.8851 16.9477 12.861 16.7288C12.8587 16.7036 12.8438 16.6383 12.8599 16.6395C12.9618 16.6475 13.0592 16.8262 13.1108 16.8961C13.1474 16.9465 13.191 16.997 13.2242 17.0497C13.2746 17.1264 13.2952 17.2181 13.3479 17.2903C13.4121 17.3773 13.49 17.4598 13.5588 17.5481C13.5954 17.595 13.6447 17.6363 13.6676 17.7005C13.6779 17.7337 13.71 17.8551 13.6882 17.8666ZM12.9206 17.8368C12.8633 17.8322 12.8392 17.7967 12.8037 17.7703C12.7098 17.7005 12.6307 17.5882 12.6284 17.4255C12.6261 17.4094 12.633 17.4049 12.6445 17.4049C12.7567 17.4037 12.8702 17.5767 12.9137 17.6569C12.9263 17.681 12.9561 17.7463 12.9515 17.7921C12.9515 17.8231 12.9378 17.8368 12.9206 17.8368ZM10.369 18.3524C10.3644 18.365 10.3552 18.3799 10.3369 18.381C10.2154 18.3776 10.1788 18.1966 10.1261 18.1141C10.0825 18.0442 10.0436 17.9697 9.99888 17.8998C9.9668 17.8528 9.9267 17.8024 9.90034 17.7474C9.86712 17.6775 9.85222 17.6031 9.81097 17.54C9.79035 17.5068 9.75598 17.4782 9.73192 17.4472C9.66546 17.3579 9.60588 17.2639 9.56349 17.1516C9.55432 17.1115 9.54287 17.0726 9.5337 17.0325C9.50849 16.9649 9.47756 16.8904 9.45464 16.8182C9.44204 16.7827 9.43516 16.7082 9.44204 16.683C9.44777 16.6727 9.45235 16.6647 9.46152 16.667C9.55432 16.6807 9.64369 16.9064 9.68952 16.9901C9.73994 17.0783 9.81785 17.1493 9.86139 17.2399C9.90034 17.3235 9.91409 17.4278 9.95763 17.508C9.99315 17.5698 10.0504 17.6191 10.0894 17.6787C10.1387 17.7555 10.1742 17.8551 10.2131 17.9399C10.2567 18.0362 10.3197 18.1106 10.3575 18.2034C10.3735 18.2424 10.3793 18.31 10.369 18.3524ZM9.89576 14.875C9.8717 14.8326 9.84649 14.7822 9.82931 14.7375C9.80983 14.686 9.80754 14.639 9.78691 14.5897C9.71473 14.4305 9.63453 14.2552 9.56349 14.0982C9.53255 14.0317 9.49131 13.9091 9.51995 13.8255C9.52453 13.814 9.54859 13.8209 9.55891 13.8324C9.58297 13.8541 9.60015 13.8679 9.62078 13.8919C9.63567 13.9149 9.63911 13.9401 9.65515 13.963C9.69067 14.0168 9.73765 14.0707 9.764 14.1314C9.82358 14.2609 9.83962 14.4052 9.8992 14.5313C9.93701 14.6138 10.0012 14.686 10.0436 14.7696C10.0642 14.8166 10.0779 14.8647 10.0917 14.9128C10.1009 14.9495 10.0986 14.9988 10.1009 15.0274C10.102 15.0709 10.0974 15.0973 10.0825 15.0996C9.97023 15.0927 9.93701 14.9552 9.89576 14.875ZM34.1481 25.6177C34.0071 25.0986 32.4844 25.3221 31.2321 25.2075C30.0921 25.1032 28.6301 24.8993 26.8725 24.2886C25.2272 23.718 23.6369 23.0649 22.2493 22.3144C22.2493 22.3144 21.6891 22.0188 21.6295 21.9856C21.5138 21.9157 21.4233 21.8653 21.3098 21.7943C21.2422 21.7542 21.138 21.6923 21.0623 21.6591C20.965 21.619 20.8996 21.5663 20.816 21.5147C20.7301 21.4608 20.6132 21.4047 20.5261 21.3531C20.3989 21.2741 20.3199 21.2134 20.1996 21.1274C20.1251 21.0713 20.0873 21.0552 19.9876 20.9945C19.928 20.959 19.8192 20.9006 19.7665 20.865C19.6553 20.7917 19.5843 20.731 19.472 20.6531C19.4044 20.605 19.354 20.5752 19.2727 20.5248C19.1925 20.4755 19.1145 20.4125 19.0447 20.3609C19.0068 20.3311 18.9473 20.2979 18.9129 20.2612C18.8304 20.1822 18.7491 20.1123 18.6643 20.0435C18.5864 19.9851 18.5119 19.9129 18.4363 19.8545C18.387 19.819 18.3034 19.7491 18.2552 19.7136C18.1292 19.623 18.0501 19.5554 17.9252 19.4649C17.845 19.4053 17.7774 19.3263 17.6972 19.2667C17.6079 19.2003 17.5254 19.1235 17.4326 19.057C17.373 19.0158 17.3042 18.9631 17.2584 18.9161C17.1988 18.8439 17.1427 18.7947 17.0797 18.7236C17.0338 18.6732 16.9456 18.6171 16.8941 18.5655C16.8184 18.467 16.7085 18.3627 16.6053 18.2859C16.5446 18.2298 16.5263 18.2034 16.5022 18.1737C16.485 18.1484 16.4621 18.1198 16.4128 18.066C16.3636 18.0155 16.3452 18.0018 16.3258 17.98C16.3029 17.9617 16.2765 17.9376 16.2089 17.8712C16.1883 17.8494 16.1528 17.8001 16.1172 17.752C16.0863 17.7096 16.0577 17.6672 16.037 17.6455C15.9763 17.5813 15.9362 17.5366 15.8927 17.4908C15.8617 17.4598 15.8285 17.4255 15.7884 17.3831C15.7643 17.3567 15.746 17.3258 15.7242 17.2971C15.7071 17.2685 15.6864 17.2387 15.6658 17.2147C15.6291 17.1745 15.6005 17.1883 15.5936 17.1929C15.5719 17.2078 15.5627 17.2513 15.5868 17.3029C15.62 17.3636 15.6658 17.4312 15.6945 17.4702C15.7013 17.4793 15.7071 17.4873 15.7105 17.4919C15.722 17.5114 15.7323 17.5297 15.7437 17.5492C15.7598 17.5779 15.777 17.6088 15.7976 17.6363C15.8446 17.6993 15.8938 17.752 15.9431 17.8013C15.9603 17.8173 15.9763 17.8345 15.9912 17.8517C16.0244 17.8861 16.0496 17.9227 16.0748 17.9617C16.1024 17.9995 16.131 18.0407 16.1665 18.0797C16.1837 18.0957 16.1986 18.1164 16.2112 18.1347C16.2272 18.1553 16.2433 18.1782 16.2616 18.1966C16.2903 18.2241 16.3178 18.2516 16.3453 18.2791C16.3911 18.3283 16.4404 18.3765 16.485 18.4154C16.5206 18.4452 16.5561 18.483 16.5927 18.5185C16.6855 18.6297 16.7875 18.7408 16.8712 18.8474C16.9181 18.9069 17.0064 18.9516 17.0602 18.9929C17.1198 19.0376 17.1668 19.1155 17.2137 19.1751C17.2504 19.2186 17.3306 19.2896 17.3684 19.3355C17.4612 19.4546 17.5254 19.5188 17.648 19.6104C17.7225 19.6631 17.7786 19.7147 17.8359 19.7857C17.8703 19.8304 17.9757 19.9324 18.0158 19.9817C18.1166 20.11 18.1624 20.2303 18.1475 20.2337C18.0788 20.2521 17.9115 20.1043 17.8118 20.0401C17.7305 19.984 17.7167 19.9622 17.6388 19.9038C17.6216 19.8889 17.4979 19.8029 17.4555 19.7491C17.4223 19.7193 17.3306 19.6196 17.302 19.5852C17.1622 19.4065 17.1152 19.3962 16.9548 19.2392C16.8379 19.1246 16.6924 19.0227 16.579 18.9207C16.5446 18.8852 16.5114 18.8497 16.4782 18.8107C16.4404 18.7729 16.3934 18.7385 16.359 18.7007C16.3052 18.6343 16.2341 18.5025 16.1711 18.4555C16.1046 18.404 16.0554 18.357 15.9878 18.3066C15.9637 18.2905 15.9431 18.2596 15.9179 18.2401C15.8847 18.2172 15.8468 18.1897 15.8216 18.1588C15.7437 18.0591 15.6681 17.9571 15.5868 17.8574C15.5512 17.8093 15.4997 17.7703 15.4642 17.7211C15.3885 17.6134 15.3244 17.5034 15.2476 17.4026C15.1388 17.2616 14.9841 17.1608 14.8798 17.0187C14.7721 16.8721 14.708 16.7025 14.6071 16.549C14.5636 16.4825 14.496 16.4355 14.4479 16.3725C14.4204 16.3359 14.4055 16.2935 14.3791 16.2534C14.3253 16.1709 14.2623 16.0907 14.2073 16.0128C14.1362 15.9073 14.0881 15.7939 14.0159 15.6828C14.0056 15.6679 13.9804 15.5934 13.9357 15.5384C13.8933 15.4846 13.8555 15.4227 13.8074 15.3436C13.757 15.2669 13.7341 15.2153 13.6985 15.1626C13.663 15.1076 13.6401 15.0572 13.6161 15.0205C13.5931 14.9816 13.5416 14.9117 13.5232 14.8842C13.4579 14.7833 13.4396 14.7364 13.372 14.6436C13.3308 14.5863 13.2849 14.5393 13.246 14.5531C13.2162 14.5748 13.2276 14.6103 13.2345 14.6355C13.2643 14.718 13.2643 14.7031 13.2964 14.7627C13.3514 14.8613 13.3709 14.9082 13.4293 14.9988C13.4556 15.0423 13.5026 15.1408 13.5404 15.1935C13.5771 15.2485 13.6161 15.3138 13.6413 15.3585C13.6699 15.4066 13.71 15.5327 13.7501 15.5854C13.7788 15.6232 13.82 15.7 13.8486 15.755C13.9048 15.8672 13.9758 15.9555 14.0343 16.0425C14.0732 16.1147 14.1122 16.1903 14.15 16.2614C14.2279 16.3782 14.3207 16.4871 14.3963 16.6074C14.4433 16.691 14.4891 16.7747 14.535 16.8583C14.5819 16.9271 14.6449 16.9855 14.6896 17.0554C14.7446 17.139 14.7744 17.2307 14.8294 17.3132C14.873 17.3774 14.9279 17.4392 14.9715 17.5034C15.046 17.6134 15.1124 17.7222 15.1903 17.8276C15.2339 17.8849 15.29 17.933 15.3324 17.9915C15.3908 18.0705 15.4378 18.1645 15.4985 18.2309C15.5719 18.2997 15.5925 18.3409 15.6498 18.4062C15.7346 18.5105 15.9465 18.8084 15.9099 18.8107C15.7861 18.8279 15.5467 18.5563 15.4458 18.4578C15.3679 18.3799 15.2808 18.3249 15.227 18.2516C15.1468 18.1439 15.0884 18.0224 15.0082 17.9181C14.9795 17.8792 14.936 17.8506 14.9073 17.8139C14.8523 17.7428 14.7996 17.6672 14.7366 17.6054C14.7103 17.5802 14.6816 17.5572 14.6575 17.5286C14.5602 17.4037 14.4777 17.2697 14.3837 17.139C14.3425 17.0863 14.2921 17.0394 14.252 16.9878C14.2222 16.9454 14.2038 16.8996 14.1775 16.8537C14.1397 16.7953 14.0893 16.7392 14.0514 16.6807C14.0228 16.6372 14.0056 16.5937 13.9758 16.549C13.9243 16.4711 13.8555 16.4035 13.804 16.3244C13.7639 16.2602 13.7524 16.1766 13.71 16.1113C13.6034 15.9486 13.4877 15.7825 13.3835 15.6198C13.356 15.5774 13.3445 15.5304 13.3193 15.4891C13.2334 15.3551 13.1543 15.2107 13.0695 15.079C13.0386 15.0297 13.026 14.9735 12.9951 14.9254C12.9561 14.8658 12.8965 14.8189 12.8576 14.7616C12.8278 14.7157 12.8152 14.6653 12.7923 14.6138C12.7613 14.5439 12.7178 14.4763 12.6823 14.411C12.6605 14.3709 12.649 14.3296 12.6238 14.2918C12.5219 14.1326 12.4382 13.9641 12.3557 13.7877C12.3122 13.6972 12.248 13.6124 12.2056 13.5196C12.1564 13.4176 12.1094 13.3133 12.0647 13.2148C12.0383 13.1472 12.0143 13.0796 11.9914 13.012C11.9421 12.9066 11.8653 12.8161 11.8184 12.7061C11.7851 12.6316 11.7668 12.5629 11.7359 12.4998C11.7164 12.462 11.6797 12.43 11.6534 12.4471C11.6259 12.4632 11.6224 12.4964 11.6396 12.5548C11.6717 12.6671 11.7336 12.7943 11.7622 12.8585C11.8206 12.9845 11.8504 13.1163 11.9077 13.2446C11.9375 13.3168 11.9856 13.3844 12.0177 13.4531C12.0739 13.5757 12.1277 13.6983 12.1839 13.814C12.2148 13.8816 12.24 13.9469 12.2767 14.0111C12.295 14.0443 12.3248 14.0821 12.3397 14.1188C12.3763 14.2013 12.3867 14.2884 12.4245 14.3663C12.4634 14.4476 12.5264 14.5152 12.5642 14.5943C12.7579 15.0068 12.9527 15.3998 13.1864 15.7653C13.2506 15.8672 13.2849 15.991 13.3502 16.0918C13.4178 16.1984 13.5106 16.2786 13.5771 16.3817C13.6332 16.4676 13.647 16.5868 13.6985 16.6784C13.7719 16.8159 13.8727 16.9317 13.9563 17.0611C13.9781 17.0978 13.985 17.1379 14.0079 17.1757C14.0388 17.225 14.0801 17.2731 14.1122 17.3235C14.1534 17.3911 14.1752 17.4679 14.2222 17.5297C14.2714 17.5985 14.3425 17.6535 14.3917 17.7234C14.4525 17.807 14.496 17.9055 14.5602 17.9915C14.6037 18.0499 14.6724 18.0912 14.7171 18.1507C14.7882 18.2435 15.0345 18.5667 15.1055 18.6572C15.2132 18.7958 15.408 18.9997 15.4974 19.1819C15.526 19.2381 15.6234 19.3721 15.6028 19.3985C15.5512 19.4328 15.3072 19.1659 15.266 19.1269C15.164 19.0295 15.0758 18.8943 14.9875 18.7821C14.9658 18.7568 14.732 18.5288 14.7126 18.5036C14.6896 18.4738 14.6656 18.4406 14.6449 18.4108C14.5796 18.3134 14.5395 18.1966 14.4708 18.1049C14.441 18.066 14.3963 18.0373 14.3688 17.9995C14.315 17.9285 14.2783 17.8483 14.2245 17.7761C14.1431 17.6615 14.0354 17.5607 13.9518 17.4472C13.8624 17.3235 13.7971 17.1768 13.7043 17.0531C13.6584 16.9924 13.6 16.9385 13.5565 16.8721C13.537 16.8434 13.5301 16.8148 13.5106 16.785C13.4774 16.7346 13.4327 16.6773 13.4075 16.6223C13.3835 16.5696 13.3663 16.5203 13.3365 16.4733C13.2402 16.3233 13.144 16.164 13.0489 16.0139C13.0042 15.9463 12.9802 15.8741 12.9378 15.8065C12.8656 15.6954 12.7739 15.5957 12.7029 15.4834C12.6181 15.3505 12.5723 15.1901 12.4852 15.0572C12.4302 14.969 12.3649 14.8876 12.3099 14.7994C12.248 14.7043 12.2182 14.5932 12.1621 14.4946C12.114 14.4064 12.0487 14.325 12.0063 14.238C11.9593 14.1417 11.9283 14.0478 11.8825 13.9481C11.8573 13.8954 11.8184 13.8415 11.7954 13.7888C11.7645 13.7201 11.7588 13.6525 11.7267 13.5883C11.6442 13.4039 11.5193 13.2297 11.4322 13.0452C11.3715 12.9158 11.3154 12.7806 11.2649 12.6419C11.2374 12.5663 11.2248 12.4941 11.1905 12.4242C11.1137 12.2547 11.0198 12.0771 10.9464 11.9109C10.9143 11.8204 10.8834 11.7322 10.8502 11.6428C10.8444 11.6176 10.841 11.5936 10.8318 11.5661C10.7963 11.487 10.7494 11.4091 10.7184 11.3323C10.6909 11.2407 10.6623 11.1501 10.6325 11.0585C10.5145 10.7629 10.4079 10.4283 10.2956 10.1201C10.2819 10.0651 10.2784 9.99407 10.2567 9.93334C10.1982 9.77752 10.1398 9.61711 10.0837 9.46015C10.0504 9.37994 9.97482 9.40629 9.992 9.48879C10.0149 9.59649 10.0287 9.62399 10.0481 9.70992C10.0562 9.75461 10.0642 9.797 10.0734 9.84054C10.0871 9.89324 10.1135 9.94824 10.1272 9.99865C10.1581 10.0938 10.1604 10.1866 10.1914 10.2771C10.2383 10.4043 10.2842 10.528 10.3266 10.6586C10.3369 10.7239 10.3518 10.7892 10.3644 10.8557C10.3839 10.9164 10.4091 10.9794 10.4308 11.0344C10.4961 11.196 10.5592 11.3518 10.6153 11.5099C10.6394 11.6016 10.6634 11.6921 10.6852 11.7837C10.7092 11.8342 10.7448 11.8857 10.7665 11.935C10.7872 11.9797 10.7917 12.0209 10.8101 12.0679C10.8513 12.1699 10.888 12.2741 10.935 12.3784C10.9739 12.4632 11.0198 12.5491 11.053 12.6396C11.069 12.6843 11.069 12.7221 11.0851 12.7657C11.1836 13.0361 11.2902 13.3191 11.407 13.5757C11.4357 13.6387 11.4437 13.7052 11.4735 13.7694C11.4964 13.8243 11.5308 13.8816 11.5548 13.9343C11.5663 13.9687 11.5789 14.0042 11.5903 14.0386C11.6259 14.1142 11.6877 14.1761 11.7232 14.2517C11.8229 14.4614 11.9123 14.6619 12.0383 14.8406C12.1541 15.0079 12.2056 15.2279 12.2904 15.4261C12.3351 15.5201 12.3889 15.6003 12.4428 15.6816C12.4691 15.7252 12.4852 15.7733 12.5081 15.8203C12.5654 15.9234 12.5963 16.0128 12.6639 16.1044C12.7178 16.18 12.7132 16.1961 12.759 16.3015C12.7716 16.3324 12.8232 16.5295 12.8129 16.5295C12.7957 16.5409 12.6983 16.4825 12.6651 16.4458C12.6215 16.3966 12.5505 16.3301 12.5035 16.2236C12.4783 16.1697 12.4302 16.0769 12.405 16.0254C12.3443 15.8947 12.24 15.7836 12.1644 15.6633C12.1197 15.5934 12.0956 15.5166 12.0578 15.441C11.9948 15.3024 11.9215 15.1626 11.8539 15.0194C11.8252 14.9598 11.784 14.9025 11.7507 14.8498C11.7141 14.7948 11.698 14.7364 11.6625 14.6802C11.5858 14.5599 11.4987 14.4247 11.4368 14.293C11.391 14.1956 11.3669 14.0982 11.3234 14.0031C11.3085 13.9733 11.2844 13.9435 11.2649 13.9149C11.234 13.8656 11.2214 13.8117 11.1939 13.7567C11.1595 13.6846 11.108 13.6135 11.0736 13.5391C11.0037 13.389 10.9636 13.2331 10.8949 13.0853C10.8605 13.0166 10.8055 12.957 10.7734 12.8883C10.723 12.7829 10.7184 12.6499 10.668 12.5399C10.5385 12.2466 10.3884 11.9453 10.2784 11.6394C10.2613 11.5878 10.2544 11.5282 10.2383 11.4744C10.1902 11.3415 10.1272 11.2177 10.0791 11.0871C10.0573 11.0275 10.0504 10.9725 10.0287 10.9118C9.99659 10.8236 9.95419 10.7296 9.92211 10.6391C9.91409 10.6093 9.90951 10.5773 9.89805 10.5463C9.85795 10.4627 9.83503 10.3619 9.79608 10.2736C9.77431 10.2278 9.74223 10.1808 9.7239 10.1316C9.69296 10.0433 9.70213 9.9322 9.67005 9.8497C9.62536 9.72482 9.57266 9.58962 9.52797 9.46702C9.50047 9.39484 9.49589 9.32609 9.47068 9.25276C9.44204 9.17027 9.40996 9.07861 9.37902 8.99611C9.34923 8.91133 9.35038 8.81967 9.32173 8.7303C9.30111 8.66155 9.27247 8.59166 9.24955 8.5275C9.20716 8.40719 9.18883 8.28001 9.14414 8.16773C9.13727 8.1471 9.12925 8.12533 9.12237 8.10586C9.11091 8.07492 9.09029 8.04513 9.05935 8.0543C9.02384 8.06346 9.02384 8.10815 9.02613 8.13794C9.033 8.22731 9.06623 8.30751 9.09029 8.37969C9.12008 8.45531 9.13383 8.53666 9.15445 8.60885C9.16591 8.65582 9.16476 8.70623 9.17622 8.7555C9.19112 8.82654 9.21862 8.89414 9.23695 8.96403C9.25413 9.03278 9.24497 9.10038 9.26101 9.15423C9.30569 9.30432 9.35611 9.47389 9.40652 9.61711C9.42714 9.69159 9.43058 9.77752 9.4535 9.84168C9.48099 9.9173 9.50964 9.99407 9.53599 10.0708C9.5612 10.135 9.56578 10.1957 9.59213 10.2564C9.62078 10.3195 9.65286 10.3859 9.67692 10.4581C9.70556 10.5509 9.70213 10.6426 9.73421 10.7308C9.78691 10.8729 9.85222 11.0081 9.90034 11.1444C9.91638 11.1948 9.92211 11.2487 9.9393 11.2991C9.98169 11.4171 10.0115 11.5443 10.055 11.6634C10.1169 11.833 10.1959 11.9992 10.2578 12.1664C10.3174 12.3314 10.3266 12.5296 10.3953 12.6843C10.4308 12.7611 10.5042 12.8069 10.5374 12.8814C10.5614 12.9284 10.5546 12.9834 10.5706 13.0395C10.5901 13.1025 10.6199 13.1667 10.6439 13.2251C10.6577 13.279 10.6714 13.3305 10.6863 13.3821C10.7081 13.4451 10.7516 13.5081 10.7791 13.5688C10.825 13.6674 10.8479 13.7705 10.9029 13.8587C10.9476 13.9252 11.0014 13.987 11.0381 14.0615C11.0759 14.1429 11.0896 14.2311 11.1275 14.317C11.1836 14.4431 11.25 14.5634 11.297 14.694C11.3417 14.8131 11.3578 14.9392 11.4139 15.0446C11.4712 15.1477 11.5411 15.2405 11.5972 15.3425C11.6327 15.4204 11.6683 15.4972 11.7049 15.5739C11.7336 15.6358 11.7897 15.6896 11.8252 15.755C11.8688 15.8329 11.9112 15.9154 11.9467 15.9933C11.9753 16.0551 11.9856 16.1113 12.02 16.164C12.0693 16.2453 12.1071 16.3106 12.1609 16.3909C12.2056 16.463 12.2583 16.5547 12.2904 16.6395C12.3156 16.7036 12.342 16.7712 12.3786 16.8251C12.4187 16.8801 12.4703 16.9294 12.5035 16.9901C12.5367 17.0497 12.5837 17.2433 12.5665 17.2525C12.5241 17.2674 12.405 17.1539 12.3729 17.1138C12.2789 17.0004 12.2331 16.8469 12.1472 16.7266C12.0555 16.5948 11.9982 16.5215 11.926 16.3714C11.8859 16.2854 11.8138 16.1296 11.7645 16.0529C11.7152 15.9807 11.6534 15.9154 11.6155 15.8352C11.5858 15.7676 11.5709 15.6874 11.5411 15.6209C11.4964 15.5258 11.4059 15.4628 11.36 15.3631C11.3073 15.2531 11.2844 15.1397 11.2283 15.0366C11.2008 14.9861 11.1653 14.93 11.1412 14.8773C11.1091 14.812 11.0942 14.7478 11.0633 14.6814C11.0003 14.5462 10.9052 14.4327 10.8444 14.2987C10.778 14.1612 10.7425 14.0123 10.6749 13.8736C10.6405 13.798 10.5786 13.7338 10.5431 13.6582C10.4961 13.5585 10.4721 13.4543 10.4251 13.3534C10.3953 13.2927 10.3529 13.2331 10.3243 13.1736C10.2842 13.0865 10.2693 12.9914 10.228 12.9009C10.1375 12.6946 10.0424 12.4827 9.95076 12.2787C9.91638 12.1997 9.90722 12.1183 9.8717 12.0381C9.83733 11.9682 9.80295 11.8995 9.76629 11.8296C9.68838 11.6497 9.65973 11.4389 9.57838 11.2578C9.53714 11.165 9.48672 11.078 9.44891 10.9794C9.39163 10.8236 9.371 10.6632 9.31257 10.5039C9.22549 10.261 9.1556 10.0078 9.06852 9.76721C9.04217 9.69503 9.03988 9.62399 9.01238 9.54837C8.98717 9.47848 8.96082 9.40744 8.93447 9.33755C8.91613 9.27912 8.90468 9.19777 8.88978 9.12444C8.82447 8.91935 8.75917 8.71426 8.695 8.50687C8.67896 8.4576 8.67667 8.36938 8.65948 8.30636C8.64917 8.27085 8.62969 8.2296 8.61595 8.19637C8.60105 8.1494 8.60105 8.10929 8.58616 8.06003C8.53803 7.90993 8.49793 7.73463 8.44981 7.58454C8.43606 7.53756 8.43148 7.46996 8.41658 7.41725C8.35013 7.203 8.3169 6.94062 8.22982 6.7424C8.21608 6.70345 8.19087 6.6622 8.15306 6.67251C8.11525 6.68168 8.12327 6.72521 8.12671 6.76073C8.13816 6.85812 8.17483 6.94176 8.19087 7.02311C8.19774 7.05978 8.19774 7.11019 8.20003 7.15373C8.20462 7.19039 8.2092 7.23508 8.22066 7.27403C8.26076 7.40121 8.30774 7.55131 8.3444 7.6762C8.357 7.73692 8.34555 7.83087 8.36273 7.90077C8.41773 8.10357 8.45783 8.34532 8.53116 8.5275C8.59876 8.69363 8.61136 8.89299 8.65948 9.07288C8.67323 9.15079 8.67782 9.22985 8.68927 9.30776C8.70188 9.38338 8.74313 9.43494 8.76604 9.49796C8.78437 9.54493 8.78208 9.58503 8.80041 9.6343C8.83822 9.76377 8.86916 9.89095 8.91499 10.0216C8.94707 10.1121 8.99634 10.1969 9.02842 10.2839C9.04102 10.3241 9.03759 10.3596 9.0479 10.4031C9.07081 10.4936 9.08571 10.583 9.11091 10.6712C9.17508 10.8488 9.2358 11.0413 9.29882 11.2166C9.33434 11.3151 9.34579 11.4102 9.37902 11.5053C9.51995 11.888 9.66202 12.2673 9.80066 12.6454C9.82358 12.7301 9.84764 12.8149 9.86941 12.8986C9.90034 12.9834 9.95076 13.0555 9.98628 13.1323C10.0321 13.2308 10.0459 13.334 10.0848 13.4382C10.1272 13.5608 10.1856 13.6548 10.2326 13.782C10.2544 13.8415 10.2762 13.9091 10.3037 13.9687C10.3243 14.0122 10.3621 14.0546 10.3839 14.0993C10.4217 14.1738 10.4274 14.2689 10.4629 14.3445C10.5007 14.4201 10.5637 14.4832 10.6084 14.5519C10.6474 14.6184 10.652 14.702 10.6852 14.7765C10.7379 14.8922 10.8055 14.9988 10.8559 15.1213C10.8765 15.1729 10.8857 15.2187 10.9086 15.268C10.935 15.3241 10.9774 15.378 11.0037 15.4376C11.0037 15.4376 11.006 15.4376 11.0083 15.4433C11.0106 15.4513 11.0152 15.4628 11.0163 15.4754C11.0232 15.4983 11.0312 15.5281 11.0392 15.5499C11.0507 15.5819 11.0874 15.6415 11.1022 15.6633C11.1114 15.6748 11.1389 15.7045 11.1595 15.732C11.1698 15.7424 11.179 15.755 11.1893 15.7687C11.2386 15.8478 11.2443 15.9589 11.2856 16.0471C11.3268 16.1308 11.399 16.1995 11.4402 16.2877C11.4735 16.3542 11.4895 16.5203 11.4494 16.5272C11.2775 16.5272 11.2649 16.2866 11.2077 16.1606C11.1607 16.062 11.0919 15.9807 11.0404 15.8867C11.0289 15.8684 11.0129 15.8306 11.0014 15.7916C10.9911 15.7584 10.9762 15.7229 10.9625 15.6954C10.9407 15.6495 10.9407 15.6564 10.9258 15.6232C10.9098 15.5911 10.8616 15.5304 10.8479 15.5017C10.8467 15.5006 10.8456 15.4983 10.8456 15.496C10.7791 15.3906 10.7356 15.2405 10.6886 15.1683C10.6623 15.1294 10.6279 15.0893 10.6015 15.0492C10.5592 14.9804 10.5362 14.8991 10.5019 14.8235C10.4698 14.7558 10.4182 14.6883 10.3861 14.6161C10.3483 14.5313 10.346 14.4247 10.3048 14.3388C10.2853 14.2918 10.2475 14.2448 10.2246 14.2013C10.1765 14.1028 10.1478 13.9985 10.0997 13.9023C10.0779 13.8553 10.0355 13.8117 10.0126 13.7648C9.97482 13.6823 9.95419 13.5952 9.9118 13.5196C9.82129 13.3569 9.7239 13.177 9.65057 13.0051C9.60588 12.9043 9.58984 12.8023 9.54745 12.7049C9.50964 12.619 9.45693 12.5354 9.41912 12.454C9.39163 12.4002 9.3859 12.3452 9.36413 12.2844C9.32746 12.1893 9.28507 12.0908 9.24955 11.9957C9.22893 11.9293 9.21174 11.786 9.19112 11.7288C9.16476 11.6566 9.1281 11.5787 9.09716 11.5076C9.04904 11.4034 9.03529 11.2934 8.98832 11.188C8.95165 11.1055 8.91155 11.0207 8.88176 10.937C8.85541 10.866 8.84853 10.7995 8.81989 10.7342C8.79812 10.6838 8.76833 10.6277 8.75 10.5761C8.72594 10.5142 8.7099 10.4123 8.69157 10.3298C8.66063 10.2393 8.62282 10.1533 8.59532 10.064C8.57814 9.99636 8.57584 9.84283 8.56095 9.80158C8.4647 9.52431 8.37763 9.22756 8.2894 8.95028C8.2493 8.82196 8.22982 8.69363 8.19431 8.56989C8.1817 8.51833 8.18056 8.45531 8.16681 8.4049C8.1416 8.3247 8.10837 8.2422 8.08317 8.15971C8.06942 8.10356 8.06025 8.04628 8.04994 7.99128C8.03734 7.93399 8.0064 7.87441 7.98349 7.81712C7.93078 7.64984 7.90099 7.47225 7.85172 7.30841C7.83568 7.24081 7.83568 7.15258 7.81735 7.09071C7.75204 6.88906 7.73829 6.65418 7.67871 6.44221C7.66496 6.38034 7.65694 6.31847 7.64205 6.26233C7.53778 5.86589 7.49081 5.42134 7.37509 5.04095C7.35332 4.96762 7.38196 4.87481 7.36248 4.79575C7.33842 4.70638 7.31436 4.62847 7.28915 4.55056C7.2777 4.50931 7.27655 4.47838 7.26968 4.44171C7.24905 4.37755 7.22041 4.32599 7.18489 4.33401C7.1425 4.34662 7.15166 4.38557 7.15281 4.43942C7.15739 4.52879 7.16656 4.60212 7.18374 4.67316C7.19864 4.73388 7.18833 4.7843 7.20551 4.83815C7.24218 4.96074 7.25364 5.1349 7.27541 5.24718C7.28228 5.29301 7.27541 5.35603 7.28457 5.40988C7.29717 5.46717 7.34071 5.5405 7.35217 5.60237C7.36477 5.68372 7.36363 5.79027 7.37623 5.87964C7.39227 5.95412 7.41519 6.0263 7.43467 6.09619C7.45071 6.15692 7.43925 6.21535 7.45758 6.27149C7.47477 6.32993 7.5057 6.38722 7.51716 6.45138C7.52633 6.52127 7.51602 6.62324 7.53091 6.68626C7.62028 7.03457 7.64663 7.44704 7.7486 7.78046C7.76121 7.82858 7.7635 7.88014 7.77496 7.92826C7.85974 8.22158 7.92505 8.53323 8.01327 8.8231C8.02473 8.86778 8.02359 8.91476 8.03504 8.96518C8.06369 9.06715 8.08775 9.17714 8.11066 9.27912C8.12098 9.32838 8.11983 9.37192 8.13358 9.41775C8.16337 9.52431 8.20003 9.62743 8.23555 9.73284C8.24816 9.78554 8.25389 9.83595 8.26305 9.88637C8.27222 9.92647 8.29284 9.9723 8.30544 10.0113C8.32378 10.072 8.31805 10.1304 8.33638 10.1866C8.35013 10.2186 8.37648 10.2553 8.3845 10.2897C8.39825 10.3527 8.40627 10.4146 8.42346 10.4753C8.44866 10.5486 8.48762 10.6208 8.51741 10.693C8.54032 10.7537 8.54032 10.8156 8.56324 10.8752C8.60449 10.976 8.64917 11.0974 8.68927 11.2074C8.72135 11.2968 8.72594 11.3885 8.75802 11.479C8.77979 11.5397 8.80843 11.6016 8.82906 11.6612C8.84281 11.707 8.85083 11.7528 8.86687 11.8021C8.88176 11.8445 8.92988 11.9132 8.96082 11.9717C8.98717 12.0347 8.97457 12.1206 8.99405 12.1893C9.01582 12.2592 9.05477 12.3154 9.07883 12.3795C9.1006 12.4449 9.09946 12.5147 9.11779 12.5812C9.13612 12.6328 9.17164 12.682 9.19226 12.7301C9.21289 12.7874 9.23351 12.8424 9.25413 12.8986C9.27017 12.9341 9.30111 12.973 9.31944 13.0074C9.34923 13.0716 9.37444 13.1438 9.40079 13.2102C9.4386 13.3042 9.44204 13.421 9.47183 13.531C9.47985 13.5631 9.47756 13.6376 9.46037 13.6456C9.41569 13.6536 9.36642 13.5837 9.33663 13.5413C9.28507 13.468 9.2358 13.3878 9.19799 13.3007C9.18424 13.2675 9.17737 13.2366 9.16591 13.2022C9.13727 13.13 9.1155 13.0464 9.08227 12.9742C9.06279 12.9284 9.033 12.8802 9.01696 12.8321C8.99405 12.7622 9.00436 12.6797 8.97686 12.619C8.95394 12.5686 8.9127 12.5273 8.88978 12.4769C8.87374 12.43 8.86458 12.3818 8.8451 12.3349C8.81989 12.2787 8.78666 12.2294 8.75458 12.1756C8.73167 12.124 8.7351 12.0736 8.71677 12.0129C8.69729 11.9407 8.67438 11.8697 8.64344 11.8044C8.61365 11.7379 8.5747 11.6715 8.54491 11.6027C8.53116 11.5649 8.52428 11.526 8.51397 11.4881C8.49564 11.4366 8.46814 11.3816 8.44866 11.3312C8.43721 11.2922 8.4269 11.2521 8.41085 11.2155C8.38679 11.1593 8.357 11.0963 8.33409 11.0344C8.3169 10.9852 8.31461 10.9313 8.29628 10.882C8.26534 10.7938 8.23555 10.6953 8.20462 10.6093C8.18629 10.5429 8.18056 10.4753 8.15993 10.4077C8.13473 10.3298 8.10035 10.2519 8.07171 10.1728C8.04994 10.1098 8.04421 10.0422 8.02588 9.97688C7.99609 9.89324 7.9537 9.81533 7.92505 9.72711C7.90787 9.65607 7.90443 9.58503 7.88953 9.51858C7.84141 9.35474 7.78871 9.17371 7.73715 9.00528C7.67757 8.81852 7.67184 8.60655 7.61799 8.4175C7.57903 8.2823 7.53091 8.15169 7.48966 8.01878C7.47477 7.94889 7.47248 7.88472 7.45529 7.81827C7.41863 7.66703 7.36363 7.47225 7.31322 7.31528C7.28801 7.23279 7.29603 7.148 7.27197 7.05978C7.24791 6.97041 7.24676 6.865 7.21812 6.7699C7.19979 6.71261 7.17802 6.67022 7.16427 6.59574C7.14823 6.52127 7.14937 6.43419 7.13906 6.37805C7.12875 6.32191 7.0325 5.99193 7.02105 5.93006C7.00959 5.86933 7.00959 5.75705 7.00271 5.71695C6.99584 5.69059 6.94657 5.54852 6.94084 5.51071C6.93397 5.47404 6.93397 5.43165 6.92022 5.35832C6.90418 5.28499 6.86179 5.1223 6.85491 5.07532C6.84689 5.0272 6.84689 4.9321 6.83773 4.88512C6.82741 4.83815 6.79648 4.72815 6.77471 4.65024C6.74836 4.55514 6.77013 4.45546 6.74377 4.36609C6.72315 4.29964 6.70138 4.23548 6.67617 4.17246C6.66128 4.11976 6.64295 4.04528 6.63951 4.01205C6.63607 3.96049 6.63263 3.85738 6.6292 3.81842C6.62805 3.76572 6.60514 3.67635 6.60055 3.59843C6.59368 3.49188 6.57076 3.37959 6.55358 3.31429C6.54441 3.27533 6.54785 3.2295 6.53983 3.19398C6.51233 3.08972 6.48712 2.99347 6.43442 3.00035C6.39661 3.00608 6.38171 3.03816 6.3989 3.10576C6.41723 3.18711 6.42525 3.25127 6.44702 3.33033C6.45619 3.37272 6.45962 3.47928 6.45962 3.51479C6.46306 3.57208 6.46535 3.58469 6.47223 3.64083C6.47681 3.66145 6.48598 3.71416 6.49285 3.73707C6.50087 3.77374 6.51233 3.82759 6.51118 3.85394C6.51118 3.8906 6.51004 3.92956 6.51004 3.98226C6.51004 4.00976 6.51118 4.01893 6.5215 4.0659C6.53295 4.11173 6.53754 4.12205 6.54097 4.15986C6.54326 4.19308 6.53983 4.22517 6.54212 4.25381C6.54212 4.29047 6.5467 4.32599 6.55816 4.35922C6.57764 4.42911 6.62232 4.52421 6.60513 4.62618C6.58451 4.73503 6.61774 4.83815 6.64294 4.9321C6.6544 4.99282 6.64294 5.05928 6.6544 5.11771C6.67617 5.19792 6.6968 5.2827 6.71742 5.36749C6.73461 5.43623 6.72315 5.49811 6.74148 5.56456C6.76554 5.65507 6.82856 5.77882 6.83772 5.82006C6.8446 5.86131 6.84345 5.97245 6.85491 6.04349C6.86751 6.11338 6.8847 6.19473 6.88928 6.23941C6.89501 6.28524 6.88814 6.30472 6.89272 6.33795C6.89731 6.37117 6.94199 6.53044 6.94887 6.57168C6.95803 6.61293 6.95574 6.6347 6.96491 6.67709C6.97293 6.72178 7.00959 6.8925 7.01647 6.94749C7.02563 7.00363 7.02334 7.03572 7.03365 7.09186C7.04969 7.17664 7.08407 7.24768 7.10125 7.32903C7.11271 7.3909 7.10927 7.42871 7.11615 7.47683C7.13448 7.5536 7.15969 7.62235 7.17343 7.69453C7.18489 7.75182 7.18604 7.80681 7.19635 7.86525C7.2227 7.98784 7.23989 8.11159 7.27426 8.23418C7.29489 8.30637 7.33613 8.37282 7.3579 8.44271C7.37509 8.50687 7.38082 8.57676 7.398 8.63978C7.41519 8.69363 7.453 8.74404 7.46675 8.80248C7.47592 8.85289 7.47477 8.90445 7.48394 8.95601C7.49654 9.0133 7.52175 9.07059 7.5332 9.13017C7.54237 9.17485 7.53779 9.21839 7.55039 9.26537C7.56529 9.31693 7.59164 9.3639 7.60424 9.41317C7.6157 9.47619 7.6157 9.5392 7.63174 9.60337C7.65007 9.67669 7.68101 9.74888 7.70392 9.81648C7.72569 9.87949 7.71423 9.94938 7.73371 10.0181C7.77496 10.1671 7.82423 10.3321 7.87349 10.4719C7.89526 10.5463 7.89183 10.6242 7.91933 10.7056C7.93995 10.7594 7.96286 10.7961 7.98578 10.8431C8.00297 10.8912 7.98692 10.9439 8.00182 10.9989C8.02588 11.0894 8.03848 11.212 8.07171 11.3002C8.10723 11.3999 8.16566 11.4813 8.20004 11.5787C8.23556 11.6806 8.23785 11.7826 8.27222 11.8892C8.30315 11.9797 8.35013 12.0633 8.3845 12.1458C8.41315 12.218 8.40284 12.3142 8.43033 12.3921C8.46242 12.4758 8.52085 12.5399 8.55408 12.6259C8.58959 12.7244 8.61366 12.823 8.64345 12.9203C8.6549 12.9627 8.66178 13.004 8.6698 13.0452C8.70646 13.1736 8.77521 13.2801 8.81989 13.4016C8.83708 13.4577 8.84166 13.5058 8.8577 13.5585C8.88864 13.6468 8.92416 13.7373 8.9654 13.8198C8.99863 13.8954 9.0479 13.9699 9.08227 14.0455C9.11321 14.1154 9.11894 14.1853 9.14873 14.2586C9.17737 14.3285 9.2106 14.4041 9.23695 14.4763C9.25414 14.521 9.25528 14.5611 9.27476 14.6023C9.36184 14.796 9.46725 14.9919 9.55662 15.1809C9.60359 15.2852 9.62651 15.3975 9.67692 15.504C9.71473 15.5865 9.76171 15.6656 9.79952 15.755C9.82243 15.8111 9.82931 15.8649 9.85337 15.9177C9.90149 16.0219 9.97024 16.1273 10.0161 16.2293C10.0287 16.2568 10.0665 16.3668 10.0504 16.4092C10.0482 16.4149 10.0482 16.4229 10.0401 16.4264C10.008 16.4344 9.94388 16.3794 9.90722 16.3427C9.78233 16.2236 9.76285 15.9933 9.67692 15.8363C9.65286 15.7905 9.62192 15.7412 9.6013 15.6942C9.5887 15.6599 9.58182 15.6278 9.56578 15.5957C9.51193 15.4937 9.44433 15.4021 9.39735 15.2944C9.36184 15.2164 9.35725 15.1282 9.32403 15.0549C9.1831 14.7501 9.01925 14.458 8.88405 14.152C8.82218 14.0134 8.80843 13.8564 8.75458 13.7052C8.72136 13.6158 8.6675 13.5436 8.62969 13.4588C8.60105 13.3935 8.59418 13.3248 8.56324 13.2572C8.52428 13.1713 8.46814 13.0899 8.43492 12.9948C8.41544 12.9341 8.40627 12.8722 8.38336 12.8126C8.35471 12.745 8.31003 12.6889 8.28024 12.6247C8.23784 12.5285 8.23097 12.4334 8.20003 12.3234C8.1817 12.2638 8.15764 12.2031 8.13931 12.1492C8.12441 12.0988 8.11754 12.0461 8.10035 11.998C8.05911 11.8823 7.99036 11.7815 7.94682 11.6634C7.91818 11.5844 7.92505 11.4836 7.88953 11.4068C7.86204 11.3438 7.81162 11.2934 7.78641 11.2269C7.75777 11.157 7.78412 11.0745 7.76121 10.9932C7.74058 10.9153 7.7085 10.8431 7.6833 10.7686C7.66955 10.7216 7.66496 10.6769 7.65236 10.6323C7.6157 10.5383 7.58247 10.4432 7.54924 10.3493C7.53091 10.3011 7.53091 10.2564 7.51143 10.2129C7.48508 10.1568 7.44498 10.1041 7.42321 10.0433C7.39915 9.95053 7.39227 9.85429 7.3705 9.76492C7.33384 9.64347 7.28915 9.54722 7.25364 9.4315C7.24676 9.39484 7.24676 9.35932 7.2353 9.31807C7.20666 9.21495 7.19291 9.09923 7.16427 8.99611C7.15281 8.9457 7.1551 8.90331 7.1425 8.85404C7.11385 8.75665 7.08177 8.65926 7.05198 8.56645C7.03594 8.50458 7.03365 8.44386 7.01761 8.38542C6.97063 8.23304 6.92709 8.05315 6.88241 7.90649C6.87095 7.86296 6.87324 7.82285 6.86064 7.77473C6.82398 7.65786 6.77585 7.51808 6.7495 7.39778C6.7369 7.32789 6.73575 7.26029 6.72086 7.19612C6.70253 7.11477 6.67388 7.03686 6.65784 6.95551C6.65211 6.9177 6.65784 6.8902 6.6544 6.85812C6.64753 6.80542 6.64295 6.75386 6.63378 6.70115C6.57993 6.48919 6.49858 6.23025 6.45275 6.01943C6.43785 5.94266 6.43556 5.86589 6.42754 5.79027C6.41838 5.73757 6.41494 5.6757 6.40004 5.6207C6.38286 5.56571 6.3588 5.50842 6.34963 5.45113C6.33817 5.36061 6.33817 5.27124 6.32442 5.18417C6.32442 5.17844 6.32099 5.17156 6.31984 5.16469C6.30151 5.05584 6.24766 4.83586 6.23506 4.74763C6.22131 4.64337 6.2087 4.53567 6.19495 4.43369C6.19266 4.36609 6.1812 4.29506 6.17318 4.22402C6.15714 4.11517 6.13194 4.02007 6.11933 3.90664C6.11131 3.83217 6.11475 3.76572 6.10558 3.70155C6.101 3.66145 6.09871 3.59271 6.04715 3.59271C5.99788 3.59271 6.00476 3.65114 6.00132 3.69812C5.99445 3.8104 6.01621 3.9582 6.02538 4.02809C6.04028 4.15757 6.02996 4.28474 6.04257 4.41651C6.05173 4.49098 6.07465 4.56431 6.08267 4.6342C6.101 4.75909 6.1136 4.88627 6.12965 5.00543V5.0123C6.13423 5.06845 6.1411 5.12344 6.15141 5.17615C6.15256 5.18188 6.15256 5.1876 6.15485 5.19219C6.15485 5.19563 6.15485 5.19792 6.156 5.20021C6.15714 5.20365 6.15714 5.20479 6.15829 5.20937H6.15944C6.16402 5.23458 6.1686 5.25864 6.17548 5.2827C6.18808 5.32968 6.1835 5.36863 6.19725 5.4179C6.23506 5.56227 6.22589 5.71924 6.26714 5.85902C6.32442 6.06869 6.35421 6.30128 6.41494 6.50752C6.42983 6.56825 6.41494 6.62897 6.43213 6.69428C6.44817 6.76073 6.46535 6.82375 6.48139 6.8902C6.49743 6.96812 6.48598 7.04946 6.50775 7.12967C6.52608 7.203 6.54785 7.27747 6.56733 7.34736C6.59024 7.43329 6.59253 7.52152 6.61545 7.61433C6.64295 7.70713 6.67388 7.8091 6.69107 7.9042C6.7094 8.0119 6.72086 8.13335 6.74148 8.24793C6.75867 8.34188 6.81023 8.45531 6.83314 8.55843C6.84002 8.5928 6.83658 8.62718 6.84231 8.66155C6.85491 8.73602 6.87783 8.80821 6.89272 8.87924C6.90074 8.91247 6.89845 8.94226 6.90876 8.97778C6.94199 9.11298 6.98553 9.2837 7.02792 9.4189C7.03823 9.45556 7.04282 9.49452 7.05198 9.53347C7.07948 9.62972 7.10813 9.70075 7.11958 9.75231C7.12875 9.797 7.13333 9.85085 7.14593 9.90012C7.16656 9.97345 7.18833 10.0376 7.20208 10.1018C7.21353 10.1522 7.22156 10.1969 7.2353 10.2473C7.25135 10.308 7.27541 10.3641 7.30061 10.4237C7.34186 10.5452 7.34644 10.6747 7.38998 10.7938C7.41633 10.8637 7.44956 10.9324 7.47248 11.0069C7.49195 11.0757 7.49654 11.1593 7.51716 11.2372C7.55955 11.3541 7.60424 11.4881 7.64663 11.6062C7.69705 11.7471 7.72798 11.8995 7.77496 12.0324C7.79558 12.0862 7.791 12.1378 7.80933 12.1951C7.84829 12.3268 7.89412 12.4769 7.93766 12.611C7.96057 12.682 7.96057 12.7508 7.98921 12.8184C8.0339 12.9307 8.09921 13.0246 8.1416 13.1403C8.17597 13.24 8.18399 13.3385 8.22295 13.4291C8.27222 13.5517 8.32721 13.6765 8.37648 13.806C8.40856 13.8954 8.42002 13.9836 8.45669 14.0672C8.48762 14.1394 8.52887 14.2139 8.56324 14.2872C8.58501 14.3514 8.60678 14.4133 8.6274 14.4774C8.64574 14.5267 8.69729 14.6092 8.73281 14.6745C8.77292 14.7627 8.77864 14.8567 8.81302 14.9518C8.86458 15.0961 8.93676 15.2428 8.99634 15.378C9.0204 15.4307 9.02384 15.48 9.04561 15.5361C9.08227 15.6324 9.14414 15.7045 9.18424 15.7939C9.2232 15.8787 9.23351 15.9681 9.27017 16.0494C9.32632 16.1697 9.36642 16.2316 9.36642 16.4035C9.36527 16.4195 9.36183 16.431 9.3435 16.4378C9.31257 16.4504 9.2759 16.3954 9.25413 16.376C9.16247 16.2877 9.14872 16.2007 9.09029 16.0758C9.00321 15.8867 8.89207 15.708 8.80614 15.5247C8.76031 15.4284 8.74198 15.323 8.69729 15.2233C8.6698 15.1637 8.62969 15.103 8.60334 15.0434C8.56324 14.9564 8.54262 14.8658 8.49793 14.7879C8.43492 14.6745 8.38336 14.537 8.3318 14.4098C8.31232 14.3617 8.31003 14.3147 8.2894 14.2678C8.26649 14.2173 8.22982 14.1738 8.20805 14.1245C8.17597 14.0478 8.1542 13.9504 8.12212 13.869C8.05223 13.7166 7.97432 13.5551 7.91474 13.3935C7.86089 13.2457 7.83568 13.1037 7.78183 12.9524C7.75892 12.8906 7.72913 12.8241 7.70736 12.7611C7.69017 12.7049 7.68903 12.6557 7.66955 12.603C7.62028 12.4678 7.55726 12.3234 7.49768 12.1939C7.47019 12.1286 7.46216 12.0668 7.43696 11.998C7.40831 11.9132 7.3705 11.8227 7.34071 11.7414C7.30061 11.6325 7.29947 11.5053 7.25822 11.3919C7.17114 11.1467 7.05657 10.8912 6.98095 10.6334C6.9672 10.5738 6.97178 10.5131 6.95345 10.4535C6.91335 10.3252 6.87095 10.182 6.83085 10.0433C6.78617 9.89095 6.79075 9.73055 6.74377 9.5816C6.68305 9.38796 6.61316 9.18631 6.55358 8.99611C6.53639 8.93882 6.54441 8.8781 6.52608 8.81623C6.48598 8.66957 6.43442 8.49542 6.38515 8.35907C6.36109 8.29032 6.36109 8.21585 6.33474 8.15169C6.3038 8.07263 6.22474 8.10127 6.23162 8.1895C6.23735 8.2697 6.26484 8.37167 6.27287 8.41292C6.28203 8.46792 6.28203 8.52291 6.29463 8.58135C6.3187 8.68447 6.35192 8.7704 6.38057 8.86435C6.41265 8.96289 6.41265 9.0534 6.439 9.15423C6.45504 9.20349 6.47452 9.25849 6.48941 9.30547C6.5192 9.40629 6.5192 9.514 6.55358 9.60566C6.57993 9.67555 6.59941 9.76377 6.62232 9.84054C6.63607 9.89095 6.63378 9.9322 6.64982 9.98261C6.67617 10.0743 6.70482 10.1648 6.73461 10.2564C6.74836 10.308 6.74377 10.3538 6.75408 10.402C6.77471 10.4753 6.79189 10.5486 6.81252 10.6162C6.83085 10.6804 6.82856 10.7697 6.85147 10.8385C6.89158 10.9634 6.93855 11.0963 6.9798 11.2155C7.02792 11.3472 7.03365 11.4836 7.08063 11.6188C7.16656 11.8548 7.24447 12.1275 7.32926 12.3669C7.35217 12.4277 7.3453 12.4907 7.36363 12.5571C7.39227 12.6591 7.41519 12.7611 7.45071 12.8631C7.46789 12.9112 7.49997 12.9604 7.51945 13.004C7.5481 13.0624 7.55383 13.1254 7.58132 13.1862C7.60309 13.2331 7.63403 13.2824 7.65236 13.3317C7.67871 13.4073 7.66955 13.5012 7.69934 13.5723C7.72111 13.6296 7.75204 13.6926 7.77496 13.7522C7.80016 13.8175 7.79902 13.8885 7.82652 13.9504C7.84829 14.0031 7.88724 14.0546 7.91245 14.1074C7.93766 14.1566 7.94224 14.2093 7.96057 14.2655C7.98349 14.3228 8.01442 14.3812 8.03848 14.435C8.06483 14.4946 8.06598 14.5634 8.09462 14.6264C8.11754 14.6802 8.1542 14.7318 8.17597 14.7902C8.19774 14.8509 8.19889 14.9163 8.22066 14.9804C8.25732 15.0732 8.31461 15.1546 8.35471 15.2428C8.3845 15.3081 8.38794 15.3826 8.41773 15.4502C8.45096 15.5281 8.49793 15.6037 8.53345 15.6782C8.57928 15.7813 8.61365 15.889 8.65948 15.9853C8.7351 16.1571 8.76146 16.345 8.84051 16.5134C8.8978 16.6406 8.97686 16.7575 9.033 16.8801C9.06279 16.95 9.0731 17.0233 9.10519 17.0875C9.13956 17.1619 9.20257 17.225 9.2358 17.3017C9.2633 17.3762 9.28507 17.453 9.31715 17.5252C9.36184 17.6203 9.42256 17.7062 9.4661 17.799C9.49131 17.8517 9.50276 17.9033 9.52683 17.956C9.5738 18.0602 9.65286 18.145 9.70098 18.247C9.7239 18.3134 9.7491 18.3799 9.77202 18.4486C9.82358 18.5575 9.90493 18.6503 9.95878 18.7603C9.99544 18.8416 10.0218 18.9264 10.0699 19.0009C10.1432 19.1166 10.1914 19.1922 10.2635 19.3102C10.3105 19.3859 10.3735 19.497 10.4114 19.5795C10.4492 19.662 10.5122 19.7296 10.5488 19.8098C10.5867 19.8889 10.6348 19.9748 10.6772 20.0493C10.7253 20.1341 10.7734 20.1948 10.8273 20.275C10.912 20.4044 10.9659 20.5431 11.0507 20.6748C11.1091 20.7665 11.1767 20.8593 11.2409 20.9475C11.4139 21.1847 11.6602 21.6052 11.7645 21.7473C11.8527 21.8619 11.9249 21.9993 12.0063 22.1185C12.067 22.2136 12.1449 22.3053 12.2125 22.3923C12.2686 22.4634 12.3122 22.5413 12.366 22.6169L12.4096 22.6742C14.6106 25.4733 16.8734 27.3248 18.7892 28.5405L18.788 28.5416C19.7986 29.1718 20.3428 29.3551 20.3428 29.3551C20.47 29.409 20.3841 29.5018 20.3176 29.543L8.95624 36.8095C8.92072 36.8335 8.83364 36.8977 8.86916 36.9687C8.89551 37.0226 9.01009 36.9928 9.04102 36.9825C18.1601 33.7824 24.7758 31.1505 28.8203 29.2314C32.921 27.2859 34.2982 26.1722 34.1481 25.6177Z" fill="#006B6E"/>
</svg>
