<svg width="40" height="40" viewBox="0 0 40 40" fill="none" xmlns="http://www.w3.org/2000/svg">
<g clip-path="url(#clip0_7_253)">
<path d="M29.2079 12.9241C27.0053 13.3354 24.3947 14.3228 23.1711 14.7342C22.6816 14.8987 21.3763 15.3924 21.3763 15.3924C21.3763 15.3924 22.1921 14.8165 22.7632 14.4051C24.0684 13.5823 26.4342 12.6772 27.9842 11.6899C31.8184 9.05696 32.0632 7 32.0632 7C32.0632 7 30.1053 7.32911 27.6579 8.8924C26.7605 9.46835 25.1289 10.538 23.9053 12.019C20.9684 15.557 17.95 17.2025 16.0737 18.519C16.3184 18.1899 16.4816 17.8608 16.7263 17.5316C16.8079 17.4494 16.8895 17.3671 16.8895 17.2025C17.0526 17.038 17.1342 16.7911 17.2974 16.6266C17.2974 16.5443 17.3789 16.5443 17.3789 16.462C17.4605 16.2975 17.6237 16.2152 17.7053 16.0506C17.7053 16.0506 17.7053 15.9684 17.7868 15.9684C18.6026 14.981 19.4184 14.0759 20.1526 13.0886C20.2342 13.0063 20.3158 12.8418 20.3974 12.7595C21.7026 11.0316 22.6816 9.13924 22.7632 7C20.7237 7.90506 18.5211 10.7848 17.4605 13.1709C16.7263 14.8165 16.4 17.2848 15.2579 18.7658C14.5237 19.7532 13.1368 20.5759 11.9947 21.481C12.6474 20.4937 12.9737 19.2595 12.9737 19.1772C14.5237 13.6646 12.3211 11.443 12.3211 11.443C12.3211 11.443 10.8526 12.5949 11.0158 16.1329C11.0158 16.6266 11.1789 17.2025 11.3421 17.6139C11.4237 18.1076 11.5868 18.6013 11.6684 19.0949C11.8316 20.1646 11.75 21.0696 11.0974 21.8924C10.6079 22.5506 10.0368 23.0443 9.38421 23.6203C8.16053 24.7722 6.85526 26.0063 5.95789 27.5696C4.16316 30.5316 4 33 4 33H4.89737C4.89737 33 4.97895 30.7785 5.95789 29.2975C6.77368 28.2278 8.16053 27.8987 9.46579 28.0633C12.0763 28.3101 15.4211 29.9557 19.3368 27.8165C16.5632 26.2532 12.2395 26.5823 10.8526 26.7468C10.6895 26.7468 10.5263 26.7468 10.2816 26.8291C9.95526 26.9114 9.62895 26.9114 9.38421 26.9937C8.89474 27.0759 8.40526 27.1582 7.99737 27.3228C7.83421 27.3228 7.75263 27.4051 7.58947 27.4051H7.50789C7.42632 27.4051 7.34474 27.4873 7.26316 27.4873C7.18158 27.4873 7.1 27.5696 7.01842 27.5696C7.01842 27.5696 6.93684 27.5696 6.93684 27.6519C6.85526 27.7342 6.69211 27.7342 6.61053 27.8165C7.42632 26.4177 8.32368 25.5127 9.05789 25.019C10.6895 23.7848 12.4026 24.2785 15.5842 24.8544C23.4158 26.1709 25.6184 24.3608 25.6184 24.3608C25.6184 24.3608 23.4974 22.8797 18.6026 22.7152C17.3789 22.7152 15.5026 22.6329 14.0342 22.8797C12.6474 23.0443 11.2605 23.2911 10.0368 23.8671C10.1184 23.7848 10.2 23.7025 10.2816 23.7025L10.3632 23.6203C10.5263 23.4557 10.7711 23.2911 10.8526 23.2089C11.4237 22.7152 11.9947 22.3038 12.5658 21.8924C14.1974 20.6582 15.9105 19.5886 17.2974 19.5886C19.9079 19.5886 21.8658 20.9051 24.3132 21.2342C27.3316 21.5633 29.1263 20.8228 29.1263 20.8228C29.1263 20.8228 28.3105 19.4241 24.7211 18.6835C21.05 17.943 18.6026 18.4367 16.6447 19.0127C17.2974 18.6013 19.9895 16.462 22.7632 15.7215C24.7211 15.1456 27.0868 15.6392 28.9632 15.4747C30.1053 15.2278 31.4921 14.981 32.5526 14.5696C34.7553 13.8291 35 13.0886 35 13.0886C35 13.0886 33.0421 12.1835 29.2079 12.9241Z" fill="#083025"/>
</g>
<defs>
<clipPath id="clip0_7_253">
<rect width="31" height="26" fill="white" transform="translate(4 7)"/>
</clipPath>
</defs>
</svg>
