<svg width="40" height="40" viewBox="0 0 40 40" fill="none" xmlns="http://www.w3.org/2000/svg">
<path d="M3 32.9566H27.976L37.9898 8H27.976L3 32.9566Z" fill="#0093D0"/>
<path d="M26.2811 17.6047C25.8914 17.4099 25.6382 17.0202 25.6382 16.5721C25.6382 15.9487 26.1447 15.4227 26.7876 15.4227C27.411 15.4227 27.937 15.9292 27.937 16.5721C27.937 17.0202 27.6643 17.4293 27.2747 17.6047V17.9359C27.6253 17.9748 28.0539 18.1112 28.3267 18.2476C28.4436 18.2281 28.5994 18.2281 28.7553 18.2281C30.197 18.2281 31.21 19.1827 31.21 20.488C31.21 21.3063 30.4892 22.0466 29.6709 22.0466C28.8527 22.0466 28.1124 21.2478 28.2682 20.4296C28.2682 20.4296 28.1903 20.7023 28.1903 21.053C28.1903 21.2673 28.1903 25.1832 28.1903 25.1832C28.1513 25.6508 27.5279 28.2419 24.6056 28.2419C21.6833 28.2419 21.0599 25.6508 21.0209 25.1832C21.0209 25.1832 21.0209 21.2673 21.0209 21.053C21.0209 20.7218 20.9235 20.4296 20.9235 20.4296C21.0793 21.2089 20.3195 22.0466 19.5208 22.0466C18.7025 22.0466 17.9817 21.3063 17.9817 20.488C17.9817 19.1827 18.9948 18.2281 20.4364 18.2281C20.5923 18.2281 20.7481 18.2281 20.865 18.2476C21.1183 18.1112 21.5664 17.9554 21.9171 17.9359V17.6047C21.5274 17.4099 21.2742 17.0202 21.2742 16.5721C21.2742 15.9487 21.7807 15.4227 22.4236 15.4227C23.0665 15.4227 23.5731 15.9292 23.5731 16.5721C23.5731 17.0202 23.3003 17.4293 22.9107 17.6047V18.0333C23.0081 18.0722 23.1055 18.0917 23.2029 18.1502C23.3782 17.7605 23.7289 17.4683 24.138 17.3319V16.9813C23.7484 16.8059 23.4756 16.3968 23.4756 15.9487C23.4756 15.3253 23.9822 14.7993 24.6251 14.7993C25.2485 14.7993 25.7745 15.3058 25.7745 15.9487C25.7745 16.3968 25.5018 16.8059 25.1316 16.9813V17.3319C25.5407 17.4683 25.8914 17.7605 26.0668 18.1502C26.1642 18.1112 26.2616 18.0722 26.359 18.0333L26.2811 17.6047Z" fill="white"/>
<path d="M30.7231 20.5075C30.7231 19.436 30.0022 18.5788 28.5021 18.5788C27.5085 18.5788 26.3396 19.4165 26.3396 21.5401C26.3396 23.1961 26.3396 24.6962 26.3396 24.6962C26.7682 24.4039 27.3721 24.1507 27.6839 24.1507C27.6839 23.2155 27.6839 21.3647 27.6839 21.2089C27.6839 20.0789 28.5021 19.7477 28.8723 19.7477C28.658 19.9425 28.5216 20.1763 28.5216 20.5075C28.5216 21.1115 29.0086 21.5985 29.6126 21.5985C30.236 21.5985 30.7036 21.1504 30.7231 20.5075Z" fill="#ED1B2F"/>
<path d="M18.3908 20.5075C18.3908 19.436 19.1116 18.5788 20.6118 18.5788C21.6054 18.5788 22.7938 19.4165 22.7938 21.5401C22.7938 23.1961 22.7938 24.6962 22.7938 24.6962C22.3652 24.4039 21.7612 24.1507 21.4495 24.1507C21.4495 23.2155 21.4495 21.3647 21.4495 21.2089C21.4495 20.0789 20.6312 19.7477 20.2611 19.7477C20.4754 19.9425 20.6118 20.1763 20.6118 20.5075C20.6118 21.1115 20.1052 21.5985 19.5208 21.5985C18.8779 21.5985 18.4103 21.1504 18.3908 20.5075Z" fill="#ED1B2F"/>
<path d="M24.5667 27.7938C27.0604 27.7938 27.6254 25.7093 27.7034 25.1638C27.7034 25.1638 27.7034 24.5793 27.7034 24.4624C26.9241 24.6572 26.2422 25.0664 25.7746 25.6898C25.6188 24.9689 25.1512 24.365 24.5667 23.9559C23.9823 24.3455 23.5342 24.9689 23.3588 25.6898C22.8913 25.0664 22.2094 24.6572 21.4301 24.4624C21.4301 24.5793 21.4301 25.1638 21.4301 25.1638C21.4886 25.7093 22.0535 27.7938 24.5667 27.7938Z" fill="#ED1B2F"/>
<path d="M24.7421 16.7475V17.6242C25.1707 17.6827 25.5408 17.9749 25.6772 18.3256C25.1707 18.6568 24.7615 19.1633 24.5667 19.7868C24.3719 19.1633 23.9628 18.6568 23.4562 18.3256C23.6121 17.9749 23.9628 17.6827 24.3914 17.6242V16.7475C24.0407 16.6696 23.768 16.3384 23.768 15.9683C23.768 15.5202 24.1381 15.1695 24.5667 15.1695C25.0148 15.1695 25.3655 15.5202 25.3655 15.9683C25.3655 16.3384 25.0927 16.6696 24.7421 16.7475Z" fill="#ED1B2F"/>
<path d="M22.5406 17.3708V18.2865C23.6316 18.5008 24.4109 19.6503 24.4109 20.7218C24.4109 21.8517 24.4109 23.683 24.4109 23.683C23.9044 23.9753 23.3978 24.5792 23.242 25.0663C23.203 25.0273 23.164 24.9689 23.1056 24.9299C23.1056 24.9299 23.1056 22.7674 23.1056 21.1114C23.1056 19.962 22.4822 18.793 21.3912 18.4229C21.3912 18.4229 21.7419 18.267 22.1899 18.267V17.3514C21.8393 17.2734 21.5665 16.9617 21.5665 16.5721C21.5665 16.124 21.9172 15.7733 22.3653 15.7733C22.8134 15.7733 23.164 16.124 23.164 16.5721C23.164 16.9617 22.8913 17.2734 22.5406 17.3708Z" fill="#ED1B2F"/>
<path d="M26.9435 17.3708V18.267C27.3916 18.267 27.7423 18.4229 27.7423 18.4229C26.6318 18.8125 26.0278 19.9814 26.0278 21.1114C26.0278 22.7674 26.0278 24.9299 26.0278 24.9299C25.9694 24.9883 25.9304 25.0273 25.8915 25.0663C25.7356 24.5597 25.2291 23.9558 24.7225 23.683C24.7225 23.683 24.7225 21.8517 24.7225 20.7218C24.7225 19.6503 25.5018 18.5008 26.5928 18.2865V17.3514C26.2421 17.2734 25.9694 16.9617 25.9694 16.5721C25.9694 16.124 26.3201 15.7733 26.7682 15.7733C27.2162 15.7733 27.5669 16.124 27.5669 16.5721C27.5864 16.9617 27.3137 17.2929 26.9435 17.3708Z" fill="#ED1B2F"/>
</svg>
