<svg width="40" height="40" viewBox="0 0 40 40" fill="none" xmlns="http://www.w3.org/2000/svg">
<g clip-path="url(#clip0_90_496)">
<path d="M35.7624 9.86275C35.5248 8.19939 35.1288 6.61523 34.1783 5.58553C33.2278 4.55582 31.4852 4.23899 29.901 4.08058C28.3169 4.00137 26.4951 4.00137 24.5149 4.23899C24.9901 4.39741 25.307 4.63503 25.6238 4.87265C26.5743 5.82315 27.0495 7.3281 27.2872 8.83305C27.4456 9.94196 27.5248 11.1301 27.4456 12.4766C27.3664 14.536 27.0495 16.9915 26.3367 19.7637C25.8614 21.4271 25.3862 23.0113 24.8317 24.437C24.8317 24.5162 24.8317 24.5162 24.8317 24.5162C25.9406 25.1499 26.9703 25.7043 27.9208 26.1796C29.2674 26.734 30.8515 27.1301 32.1189 26.6548C32.5149 26.5756 32.9109 26.338 33.2278 26.1004L33.307 26.0212C33.7822 24.7538 34.1783 23.3281 34.5743 21.8232C35.208 19.4469 35.604 17.2291 35.7624 15.2489C35.9208 13.1895 35.9208 11.4469 35.7624 9.86275Z" fill="#002F6C"/>
<path d="M26.9704 28.238C25.9407 27.842 24.911 27.2875 23.7229 26.5746C21.9011 25.4657 20.0793 23.9608 18.0199 21.9806C16.7526 20.7133 15.6437 19.4459 14.6932 18.2578C13.5843 18.8915 12.6338 19.4459 11.7625 20.1588C10.5744 21.1093 9.54466 22.2182 9.22783 23.5647C9.14862 23.9608 9.14862 24.3568 9.14862 24.8321C9.14862 24.9113 9.14862 24.9113 9.14862 24.9113C10.0199 25.941 10.9704 26.9707 12.0793 28.0796C13.9011 29.9014 15.6437 31.3271 17.2278 32.436C18.8912 33.6241 20.3961 34.4954 21.8219 35.1291C23.3268 35.7628 24.9902 36.238 26.3367 35.9212C27.6041 35.5251 28.8714 34.2578 29.7427 32.9905C30.6932 31.6439 31.5645 30.139 32.3565 28.3172C31.9605 28.5548 31.5645 28.7925 31.1684 28.9509C29.9803 29.1885 28.3961 28.8717 26.9704 28.238Z" fill="#002F6C"/>
<path d="M10.3367 18.2577C11.208 17.624 12.1585 16.9111 13.3466 16.2775C15.2476 15.327 17.4654 14.3765 20.1585 13.5844C21.9803 13.1091 23.5644 12.7923 24.9902 12.5547C25.0694 12.5547 25.0694 12.5547 25.0694 12.5547C25.1486 11.2874 24.9902 10.0992 24.911 8.99033C24.6733 7.48538 24.2773 5.98043 23.2476 5.02994C23.01 4.95073 22.6931 4.7131 22.2179 4.55469C20.8714 4.79231 19.4456 5.10914 17.9407 5.50518C15.5644 6.13885 13.4258 6.93093 11.604 7.80221C9.78225 8.59429 8.2773 9.46558 7.00997 10.4161C5.66344 11.3666 4.39611 12.6339 4.07928 13.9804C3.68324 15.327 4.23769 16.9903 4.87136 18.4953C5.58423 19.921 6.45551 21.426 7.64363 23.0101C7.56443 22.5349 7.64363 22.0596 7.72284 21.6636C8.03967 20.3963 9.14858 19.2082 10.3367 18.2577Z" fill="#002F6C"/>
</g>
<defs>
<clipPath id="clip0_90_496">
<rect width="31.9208" height="32" fill="white" transform="translate(4 4)"/>
</clipPath>
</defs>
</svg>
