<svg width="40" height="40" viewBox="0 0 40 40" fill="none" xmlns="http://www.w3.org/2000/svg">
<path d="M9.66272 10.2238C10.3411 10.8521 11.2712 11.2495 12.1856 11.3449C13.3382 11.4655 14.2779 10.8153 15.3986 10.8909C16.6414 10.9707 17.3627 11.885 18.335 12.5067C19.3415 13.1538 20.8568 13.8764 22.0858 13.676C22.7937 13.5617 23.553 13.7421 24.1831 14.0597C24.7683 14.3544 25.275 14.7898 25.6963 15.2888C26.1461 15.8236 26.381 16.4612 26.9456 16.8796C27.3607 17.1881 27.7569 17.3326 28.2192 17.5204C28.7986 17.7521 29.2379 18.1161 29.7435 18.4579C30.2427 18.7977 30.7147 18.9372 31.2603 19.1352C31.5974 19.2569 31.8187 19.5758 31.7818 19.9374C31.7502 20.2563 31.4415 20.5028 31.4079 20.7796C31.3868 20.941 31.3404 21.0993 31.2836 21.2515C31.1361 21.6352 30.7642 22.1922 30.3007 22.2077C29.5392 22.2319 28.7754 22.3347 28.0297 22.4908C26.8298 22.7415 25.6068 23.1484 24.6282 23.9055C24.0522 24.3503 23.6946 24.9165 23.3065 25.5101C22.1309 27.3059 20.6777 28.9691 18.9892 30.2996C17.8684 31.1813 16.613 31.9186 15.2425 32.3337C14.9405 32.4232 13.9421 32.8014 13.6674 32.6213C13.3938 32.4358 13.1283 32.2388 12.8706 32.0356C11.2638 30.7715 9.81252 29.1967 8.92035 27.3428C10.4891 26.8321 12.0389 26.2567 13.5595 25.6202C14.6816 25.1503 15.8024 24.6489 16.8479 24.024C17.3103 23.7493 18.4011 23.1842 18.4922 22.5675C18.5457 22.2024 17.044 22.1072 16.7283 22.0087C15.3023 21.5617 14.089 20.5908 13.1945 19.4109C12.7949 18.8827 12.5737 18.421 11.8596 18.2188C10.8717 17.9368 9.94052 18.3289 8.97588 18.4808C7.70679 18.6802 6.374 18.5869 5.16707 18.1422C4.86185 18.03 2.4804 17.0432 3.10349 16.3867C3.39791 16.0765 4.13635 16.7654 4.37758 16.8388C4.73416 16.9479 5.10307 17.0222 5.47021 17.0798C6.1475 17.1881 6.83958 17.231 7.52249 17.1744C8.18714 17.1188 9.24105 16.9771 9.74327 16.4833C10.3034 15.9358 11.0479 15.5142 11.7998 15.3035C13.3569 14.8643 14.7256 15.549 15.7763 16.6898C16.2019 17.1501 17.3282 18.2335 17.9615 17.5622C18.6632 16.8167 19.952 17.5443 20.5758 17.9997C20.8445 18.1967 21.0281 18.139 21.2995 17.9073C21.6329 17.6199 20.9524 17.4616 20.7825 17.4208C20.3054 17.3002 19.8388 17.1198 19.3921 16.9174C18.5362 16.5294 17.714 16.0093 17.088 15.3014C16.6738 14.8337 16.4874 14.2338 15.9901 13.8417C15.1848 13.2084 14.3113 13.2702 13.3517 13.1791C12.7352 13.1233 12.1166 12.9587 11.5409 12.7375C10.6621 12.4009 9.92264 11.885 9.36381 11.1237C9.01038 10.6422 8.7473 9.92805 9.66272 10.2238ZM25.8996 17.706C25.4836 17.706 25.1455 17.8935 25.1455 18.1285C25.1455 18.3592 25.4836 18.549 25.8996 18.549C26.3147 18.549 26.6528 18.3592 26.6528 18.1285C26.6528 17.8935 26.3147 17.706 25.8996 17.706Z" fill="#FB0F0C"/>
<mask id="mask0_90_544" style="mask-type:luminance" maskUnits="userSpaceOnUse" x="3" y="5" width="35" height="31">
<path d="M3.73163 5H37.6619V36H3.73163V5ZM12.4166 11.0296L11.95 10.929C11.95 10.929 11.4843 10.8618 11.0385 10.6575L10.6169 10.4571L9.5682 11.9977L9.82421 12.1844C9.82421 12.1844 10.4241 12.6247 10.5278 12.6644C10.6317 12.7056 10.8331 12.8438 10.8331 12.8438L12.4166 11.0296ZM9.03048 16.5183L8.68128 16.5812C8.68128 16.5812 8.26385 16.7124 7.72372 16.7827C7.1836 16.8538 7.27079 16.8309 7.27079 16.8309L7.12592 18.9092L7.33163 18.9532C7.33163 18.9532 8.07608 18.9406 8.31945 18.9177C8.56484 18.8966 8.81213 18.8012 8.81213 18.8012L9.03048 16.5183ZM13.2332 33.1137C13.2332 33.1137 13.8771 33.0326 14.215 32.9589C14.5526 32.8851 15.7082 32.5732 15.7082 32.5732L16.0835 32.5312L10.6914 26.3768L9.65748 26.706L8.75135 27.008L8.33417 27.162L13.2332 33.1137Z" fill="white"/>
</mask>
<g mask="url(#mask0_90_544)">
<path d="M21.1864 6.13477C28.8819 6.13477 35.1222 12.5705 35.1222 20.5085C35.1222 28.4474 28.8819 34.8816 21.1864 34.8816C13.4893 34.8816 7.25079 28.4474 7.25079 20.5085C7.25079 12.5705 13.4893 6.13477 21.1864 6.13477ZM8.14536 20.4122C8.14536 27.7585 13.849 33.7175 20.8843 33.7175C27.9212 33.7175 33.6254 27.7585 33.6254 20.4122C33.6254 13.0632 27.9212 7.10704 20.8843 7.10704C13.849 7.10704 8.14536 13.0632 8.14536 20.4122Z" fill="#FB0F0C"/>
</g>
</svg>
