<svg width="40" height="40" viewBox="0 0 40 40" fill="none" xmlns="http://www.w3.org/2000/svg">
<path d="M6.00231 19.8389C5.86393 12.297 11.9528 6.06978 19.4946 6.00058C19.5638 6.00058 19.7022 6.00058 19.7714 6.00058C27.3133 5.93139 33.4713 12.0202 33.5405 19.5621C33.5405 19.6313 33.5405 19.7697 33.5405 19.8389C33.6097 27.3807 27.59 33.5388 20.1174 33.6771C19.979 33.6771 19.9098 33.6771 19.7714 33.6771C12.2295 33.7463 6.0715 27.7267 6.00231 20.1848C6.00231 20.1156 6.00231 19.9772 6.00231 19.8389ZM7.31696 19.9081C7.24776 26.758 12.6447 32.3625 19.4946 32.5009C19.5638 32.5009 19.7022 32.5009 19.7714 32.5009C26.6214 32.5701 32.2259 27.104 32.295 20.254C32.295 20.1848 32.295 20.0464 32.295 19.9772C32.4334 13.1273 26.8981 7.4536 20.0482 7.38441C19.979 7.38441 19.8406 7.38441 19.7714 7.38441C12.9215 7.31522 7.31695 12.8505 7.24776 19.7697C7.31695 19.7005 7.31696 19.7697 7.31696 19.9081ZM8.90836 15.7566H15.5507V16.9328L14.2361 17.2788L18.526 20.0464C18.526 20.0464 16.2426 18.0399 17.0038 16.5177C17.3497 15.9641 17.9724 15.6874 18.6643 15.7566H30.7728L23.5077 21.4995L22.6774 20.6692L26.2062 17.2788H19.4946C19.4254 17.2788 19.0795 17.2788 19.0103 17.4864C18.526 18.5242 22.4699 22.4681 26.3446 25.0974L28.0052 26.2045V28.1418L8.90836 15.7566Z" fill="black"/>
</svg>
