<svg width="40" height="40" viewBox="0 0 40 40" fill="none" xmlns="http://www.w3.org/2000/svg">
<g clip-path="url(#clip0_90_688)">
<path d="M8.54428 5.00391H30.9581C32.905 5.00391 34.5024 6.60133 34.5024 8.54819V32.4596C34.5024 34.4065 32.905 36.0039 30.9581 36.0039H8.54428C6.59742 36.0039 5 34.4065 5 32.4596V8.54819C5 7.59972 5.34944 6.70117 6.04831 6.05222C6.74718 5.40326 7.59581 5.00391 8.54428 5.00391Z" fill="#42B0D5"/>
<path d="M24.4687 19.6298L30.3092 12.3915L21.8728 16.385L19.7762 7.34961L17.6796 16.385L9.24321 12.3915L15.0838 19.6298L6.6474 23.6733H15.9823L13.9356 32.7087L19.7762 25.4704L25.6168 32.7087L23.5202 23.6733H32.9051L24.4687 19.6298Z" fill="white"/>
</g>
<defs>
<clipPath id="clip0_90_688">
<rect width="29.5523" height="31" fill="white" transform="translate(5 5)"/>
</clipPath>
</defs>
</svg>
