<svg width="40" height="40" viewBox="0 0 40 40" fill="none" xmlns="http://www.w3.org/2000/svg">
<path d="M19.7833 35.291C28.2632 35.291 35.1375 28.4458 35.1375 20.0019C35.1375 11.558 28.2632 4.71289 19.7833 4.71289C11.3035 4.71289 4.4292 11.558 4.4292 20.0019C4.4292 28.4458 11.3035 35.291 19.7833 35.291Z" fill="#EA3424"/>
<path fill-rule="evenodd" clip-rule="evenodd" d="M15.777 16.452C16.0152 16.3204 16.2751 16.5836 16.5133 16.8249C16.6433 16.9565 16.8815 17.1978 16.6433 17.3075C16.5133 17.5488 16.1452 17.6804 16.0152 17.4391C15.777 17.3075 15.5172 17.0662 15.5172 16.9565C15.5388 16.8249 15.5388 16.452 15.777 16.452ZM19.8484 35.5139C28.3592 35.5139 35.3974 28.5165 35.3974 20.0275C35.4191 11.4288 28.3808 4.54102 19.8484 4.54102C11.2076 4.54102 4.29932 11.4288 4.29932 20.0275C4.29932 28.5165 11.2076 35.5139 19.8484 35.5139ZM26.8433 7.19521C25.0025 6.18618 22.9235 5.55005 20.7146 5.41843C8.24072 7.8094 7.00632 17.0881 7.00632 20.4004C7.00632 27.7707 12.9401 31.8288 18.7439 31.8288C28.3808 31.8288 30.9579 23.603 30.9579 19.5449C30.9579 13.1617 25.6522 11.5604 24.0496 11.5604C22.4471 11.5604 21.4509 11.8017 20.5847 13.1617C21.0828 13.403 22.4471 13.1617 23.0535 12.7888C23.1834 13.7759 22.4254 14.39 22.3172 14.8726C25.0242 16.101 29.8535 20.0275 29.9617 21.5191C29.4636 25.6868 25.8904 31.2365 17.9859 31.2365C17.856 30.0081 17.9859 26.1913 17.9859 25.8184C17.7477 25.2042 16.1235 21.892 15.2789 22.6159C14.4127 23.23 14.0445 23.8442 13.4165 24.0855C13.0484 24.0855 13.1783 23.8442 13.4165 23.7126C13.6547 23.4713 14.2828 22.9668 14.4127 22.7255C14.5426 22.4842 14.7808 22.1113 15.0191 21.87C15.2573 21.4971 15.7554 20.1591 15.7554 19.8959C15.7554 19.6546 16.1235 19.2817 16.2535 19.15C16.3834 19.0184 16.4917 18.7771 16.2535 18.6675C16.1235 18.5359 16.0152 18.2946 15.7554 18.5359C15.5388 18.7991 13.07 21.7384 13.07 22.2429C12.8318 23.4713 12.3337 23.4713 12.0738 23.23C11.8356 22.9888 11.5757 22.4842 11.4675 22.4842C11.2293 22.4842 10.9694 22.7255 11.0993 22.9668C11.0993 23.3397 11.2293 23.8223 10.9694 23.8223C10.7312 23.9539 10.6012 24.1952 10.4713 24.3049C10.4713 24.4365 10.1031 25.0507 9.60505 24.6778C9.47511 24.4365 9.10696 23.4494 9.2369 22.8352C9.47511 22.3526 10.6012 20.3784 11.0777 19.523C11.4458 18.7771 12.0738 17.9217 12.1821 17.4391C12.1821 16.9565 11.684 13.9952 11.9439 13.381C12.1821 12.7668 12.5719 11.67 14.0445 10.683C14.4127 9.69585 15.2789 9.32295 15.907 8.84037C16.9031 7.98489 19.6101 6.7565 21.2127 6.62489C22.9885 6.51521 25.2191 6.51521 26.8433 7.19521ZM19.8484 34.5268C27.8828 34.5268 34.4229 28.012 34.4229 20.0275C34.4229 18.6017 34.2063 17.1978 33.8382 15.9036C31.4343 8.92811 24.1796 6.27392 18.1375 10.5733C17.6394 10.8146 18.0076 11.1875 18.3757 10.9462C24.9159 6.27392 30.9796 11.8017 31.9541 14.2584C37.0216 26.4326 27.0165 33.0571 19.8484 33.0571C9.60505 33.0571 6.0318 24.6997 6.0318 21.0146C6.16174 12.4159 9.88658 9.23521 14.4127 6.77843C15.6038 6.23005 17.228 5.74747 18.6356 5.46231C11.056 6.05456 5.16556 12.3281 5.16556 20.0275C5.16556 28.012 11.7057 34.5268 19.8484 34.5268ZM14.6726 15.7281C14.3044 15.7281 14.0662 15.9694 13.9363 16.2107C13.8063 16.5836 13.8063 17.1978 13.8063 17.5707C13.8063 17.9436 14.0445 18.1849 14.3044 18.1849C14.5426 18.0533 14.6726 17.5707 14.6726 17.4391C14.6726 17.1978 14.5426 16.8249 14.6726 16.5836C14.8025 16.452 15.1707 15.7281 14.6726 15.7281Z" fill="black"/>
</svg>
