<svg width="40" height="40" viewBox="0 0 40 40" fill="none" xmlns="http://www.w3.org/2000/svg">
<path d="M35.0552 19.9373C35.0552 28.2217 28.3393 34.9375 20.0553 34.9375C11.7707 34.9375 5.05518 28.2217 5.05518 19.9373C5.05518 11.6533 11.7707 4.9375 20.0553 4.9375C28.3393 4.9375 35.0552 11.6533 35.0552 19.9373Z" fill="white"/>
<path d="M35.0552 19.9373C35.0552 28.2217 28.3393 34.9375 20.0553 34.9375C11.7707 34.9375 5.05518 28.2217 5.05518 19.9373C5.05518 11.6533 11.7707 4.9375 20.0553 4.9375C28.3393 4.9375 35.0552 11.6533 35.0552 19.9373Z" stroke="white" stroke-width="0.313508"/>
<path d="M24.4007 19.4922C26.4161 21.0797 28.114 22.6214 29.3437 23.9609C30.4821 23.4823 32.7746 22.6012 34.7598 22.2836C35.2183 19.3964 34.8105 16.4336 33.6059 13.7838L24.4007 19.4922Z" fill="#F9A91F"/>
<path d="M29.7368 31.2539C30.6686 30.458 31.5155 29.5309 32.2504 28.4781C32.9863 27.4296 33.5657 26.3162 33.9993 25.1679L31.0163 27.6165L29.7368 31.2539Z" fill="#FCD213"/>
<path d="M27.0056 27.3001C25.3277 26.6047 23.297 25.5366 21.1156 24.1862L18.9089 34.777C21.8057 35.0041 24.7284 34.3736 27.2828 32.9582C26.9052 30.9931 26.9503 28.5345 27.0056 27.3001Z" fill="#1F4FA2"/>
<path d="M15.7998 33.8812C15.3868 33.3721 15.8051 23.235 15.9161 20.6097C10.8425 16.7602 7.57177 12.6442 7.79882 11.5453C3.19386 18.2615 4.84662 27.4574 11.5373 32.1327C13.0333 33.1808 14.6565 33.9167 16.3242 34.3496C16.0872 34.1683 15.9006 34.0069 15.7998 33.8812Z" fill="#D22027"/>
<path d="M19.2659 15.8184C21.6847 14.8156 31.0769 10.9515 31.6965 11.1677C31.8476 11.2184 32.0694 11.344 32.316 11.5002C31.3388 10.0794 30.0941 8.80456 28.5981 7.75673C21.9065 3.07589 12.7065 4.66333 7.97034 11.289C8.92206 10.7046 13.9155 12.362 19.2659 15.8184Z" fill="#009A68"/>
</svg>
