<svg width="40" height="40" viewBox="0 0 40 40" fill="none" xmlns="http://www.w3.org/2000/svg">
<path fill-rule="evenodd" clip-rule="evenodd" d="M5 19.9838C5 28.2802 11.7268 35 20 35C28.2732 35 35 28.2802 35 19.9838C35 11.7184 28.2732 5 20 5C11.7268 5 5 11.7184 5 19.9838ZM5.31585 19.9838C5.31585 11.8764 11.884 5.28408 20 5.28408C28.1155 5.28408 34.7156 11.8764 34.7156 19.9838C34.7156 28.1223 28.1155 34.7155 20 34.7155C11.884 34.7155 5.31585 28.1223 5.31585 19.9838Z" fill="#12704E"/>
<path fill-rule="evenodd" clip-rule="evenodd" d="M6.80032 19.9772C6.80032 12.6902 12.7062 6.75984 20 6.75984C27.2951 6.75984 33.2316 12.6902 33.2316 19.9772C33.2316 27.2953 27.2951 33.2265 20 33.2265C12.7062 33.2265 6.80032 27.2953 6.80032 19.9772ZM5.69507 19.9772C5.69507 27.8948 12.106 34.3301 20 34.3301C27.8949 34.3301 34.3045 27.8948 34.3045 19.9772C34.3045 12.0906 27.8949 5.65625 20 5.65625C12.106 5.65625 5.69507 12.0906 5.69507 19.9772Z" fill="#12704E"/>
<path fill-rule="evenodd" clip-rule="evenodd" d="M15.8314 19L14.3793 21.0833L23.1571 21.051L22.3052 19H15.8314Z" fill="#12704E"/>
<path fill-rule="evenodd" clip-rule="evenodd" d="M20.3478 12.8867L18.8948 14.9687L21.9262 15.0319L22.1787 12.9181L20.3478 12.8867Z" fill="#12704E"/>
<path fill-rule="evenodd" clip-rule="evenodd" d="M18.1055 15.8867L16.3694 18.1576H22.0835L21.8319 15.8867H18.1055Z" fill="#12704E"/>
<path fill-rule="evenodd" clip-rule="evenodd" d="M11.6318 25.0645L10.1478 27.146L29.0948 27.1765L26.1573 25.095L11.6318 25.0645Z" fill="#12704E"/>
<path fill-rule="evenodd" clip-rule="evenodd" d="M23.5048 8.50391L21.0103 12.0687H22.369L23.5048 8.50391Z" fill="#12704E"/>
<path fill-rule="evenodd" clip-rule="evenodd" d="M13.7472 22.0659L12.2637 24.2111H25.3362L23.5368 22.0039L13.7472 22.0659Z" fill="#12704E"/>
</svg>
