<svg width="40" height="40" viewBox="0 0 40 40" fill="none" xmlns="http://www.w3.org/2000/svg">
<path d="M33.8331 21.8216C33.2728 23.683 31.4052 25.4308 29.164 25.794C29.5265 26.3729 29.6913 27.0879 29.6034 27.8824C29.3617 30.0389 27.3623 31.7754 25.22 31.7981C23.7698 31.8095 21.8033 31.1625 20.419 28.9039C19.1776 26.895 19.0018 23.7057 19.0897 22.7409C17.5736 24.3412 16.6288 25.8962 16.1784 26.9744C15.1677 29.4146 14.7831 32.3883 14.8051 33.7844C14.8051 33.7844 14.6184 33.966 14.4426 34C13.8823 33.8979 13.3989 33.6822 13.0364 33.3531C12.5969 32.9445 12.498 32.5586 12.498 32.5586C13.1682 29.0969 14.2338 26.9404 15.8268 24.4774C17.9691 21.1519 21.2759 19.0976 25.198 17.8605C28.0324 16.9638 30.9767 16.7709 32.9981 18.5415C34.0858 19.4721 34.1517 20.8114 33.8331 21.8216ZM17.1342 19.9829C16.464 21.1406 14.6293 23.002 13.1792 23.9667C10.158 25.9643 7.98273 26.1005 6.89511 25.3854C6.76327 25.306 6.65341 25.2038 6.55454 25.1017C5.70861 24.1824 5.85143 22.548 6.84018 21.2087C7.32357 20.5504 7.94977 20.085 8.55401 19.8694C8.0816 19.6424 7.76302 19.1657 7.6971 18.4961C7.56527 17.1568 8.54303 15.3975 9.89432 14.6825C11.0808 14.0583 13.6406 13.434 15.5192 16.3282C16.2553 17.4519 16.9145 19.0522 17.1342 19.9829ZM29.5485 7.81582C29.3837 6.14739 27.6589 5.53449 25.7583 6.37438C24.8574 6.77163 24.0664 7.44127 23.5061 8.20172C23.594 7.44127 23.3853 6.77163 22.8579 6.37438C21.8143 5.59124 19.9137 6.17009 18.6173 7.62287C18.1669 8.13362 16.6947 9.9723 16.6178 12.6736C16.5849 13.9788 17.1452 16.873 18.9908 18.8706C23.9126 16.9525 26.5603 14.0129 27.571 12.7984C28.7355 11.391 29.2299 10.1539 29.4386 9.24591C29.5924 8.53086 29.5705 8.02012 29.5485 7.81582Z" fill="#82C341"/>
<path d="M27.5711 12.7997C28.7356 11.3923 29.23 10.1551 29.4387 9.24716C29.4497 9.20176 29.4607 9.15636 29.4717 9.09961C29.23 10.1097 27.1646 12.7202 24.3082 14.9448C21.3419 17.2488 19.6501 18.4065 19.0019 18.8605C23.9127 16.9537 26.5603 14.0141 27.5711 12.7997Z" fill="#3CB14A"/>
<path d="M13.1792 23.9506C14.6293 22.9859 16.464 21.1245 17.1342 19.9668C15.8378 21.238 13.9262 23.1334 10.6413 24.6316C9.0154 25.3466 7.42241 25.619 6.89508 25.358C7.98271 26.0844 10.158 25.9482 13.1792 23.9506Z" fill="#3CB14A"/>
<path d="M33.833 21.8222C33.9099 21.5725 33.9648 21.3115 33.9868 21.0391C33.833 22.1173 33.1299 23.4225 32.0093 24.1376C31.0205 24.7732 29.878 25.1931 28.5816 25.0796C28.7903 25.2839 28.9551 25.4542 29.1639 25.7833C31.405 25.4315 33.2727 23.6836 33.833 21.8222Z" fill="#3CB14A"/>
<path d="M19.3955 20.6875C19.3855 20.6975 19.3754 20.6975 19.3754 20.7075C19.3754 20.6975 19.3855 20.6875 19.3955 20.6875Z" fill="#F9ED32"/>
<path d="M19.3755 20.6989C15.849 23.3093 14.6515 28.0082 14.4537 33.9896C14.6295 33.9555 14.8163 33.7739 14.8163 33.7739C14.7943 32.3779 15.1788 29.4156 16.1895 26.964C16.64 25.8857 17.5848 24.3308 19.1009 22.7305C19.2107 21.6636 19.3316 21.0393 19.4085 20.6875C19.3865 20.6875 19.3755 20.6989 19.3755 20.6989Z" fill="#3CB14A"/>
</svg>
