<svg width="40" height="40" viewBox="0 0 40 40" fill="none" xmlns="http://www.w3.org/2000/svg">
<g clip-path="url(#clip0_11_1296)">
<path d="M54.7846 38.1922V37.8516C54.7846 37.5961 54.6984 37.4258 54.3538 37.4258H54.1815V38.3625H54.4399C54.5261 38.3625 54.6984 38.3625 54.7846 38.1922ZM55.6461 39.64H55.1292L54.7846 39.129C54.5261 38.7883 54.3538 38.5329 54.1815 38.5329V39.64H53.7507V37.2554H54.4399C55.1292 37.2554 55.3876 37.4258 55.3876 37.8516L55.2153 38.3625L54.7846 38.5329C54.9569 38.5329 55.043 38.7032 55.2153 38.9587L55.5599 39.64M55.7322 37.0851C55.4738 36.8296 54.9568 36.6593 54.5261 36.6593C54.0953 36.6593 53.6646 36.8296 53.3199 37.1703C52.9953 37.4847 52.8095 37.9133 52.803 38.3625C52.803 38.8143 52.9846 39.2475 53.3077 39.5669C53.6308 39.8863 54.0691 40.0658 54.5261 40.0658C55.043 40.0658 55.3876 39.8954 55.7322 39.5548C56.0769 39.2993 56.2492 38.7032 56.2492 38.3625C56.2492 37.9367 56.0769 37.5109 55.7322 37.1703M55.9907 39.7251C55.5599 40.1509 55.1292 40.3212 54.5261 40.3212C53.923 40.3212 53.4922 40.1509 53.0615 39.7251C52.8737 39.55 52.7242 39.3388 52.6219 39.1045C52.5197 38.8702 52.467 38.6177 52.467 38.3625C52.467 38.1074 52.5197 37.8549 52.6219 37.6206C52.7242 37.3863 52.8737 37.1751 53.0615 37C53.4922 36.5741 53.923 36.3187 54.5261 36.3187C55.1292 36.3187 55.5599 36.5741 55.9907 37C56.4215 37.3406 56.6799 37.8516 56.6799 38.3625C56.6799 38.6269 56.6177 38.8877 56.498 39.1242C56.3784 39.3607 56.2047 39.5665 55.9907 39.7251ZM49.443 39.3845C47.8061 39.3845 46.3415 40.4916 46.4276 41.8541C46.4276 42.9612 46.9445 43.8129 47.8922 44.409L49.2707 45.2606C50.0461 45.7716 50.3046 46.2825 50.3046 46.7935C50.3046 47.4748 49.7015 48.4116 48.323 48.4116C46.9445 48.4116 46.4276 47.049 46.4276 47.049V48.7522C46.4276 48.7522 47.3753 49.6038 48.8399 49.6038C50.7353 49.6038 52.5445 48.1561 52.5445 46.1974C52.5598 45.576 52.3454 44.9705 51.9415 44.4941C51.3384 43.6425 50.2184 43.0464 49.3569 42.5354C48.7538 42.28 48.4953 41.769 48.4953 41.5135C48.4953 41.1729 48.7538 40.5767 50.1322 40.5767C51.3384 40.5767 51.8553 41.9393 51.8553 41.9393V40.2361C51.8553 40.2361 50.9938 39.3845 49.443 39.3845ZM27.5599 39.3845C25.923 39.3845 25.0615 40.2361 25.0615 40.2361V41.9393C25.0615 41.9393 25.5784 40.5767 26.9569 40.5767C28.3353 40.5767 28.4215 41.258 28.4215 41.5987C28.4215 41.5987 28.5938 42.0245 28.163 42.6206C27.5599 43.7277 22.7353 43.9832 23.5107 47.56C23.8553 49.0929 24.803 49.5187 25.923 49.5187C27.3015 49.5187 27.9045 48.9225 28.2492 48.3264C28.4215 49.4335 29.1107 49.5187 29.1107 49.5187H31.6953C31.6953 49.5187 30.6615 48.9225 30.6615 47.4748V41.8541C30.6615 40.5767 28.9384 39.3845 27.3876 39.3845M26.6122 48.3264C25.923 48.3264 25.5784 47.7303 25.5784 47.1341C25.5784 44.5793 27.5599 44.2387 28.163 43.5574V47.8154C27.9045 47.9858 27.6461 48.3264 26.5261 48.3264M14.3784 37.7831C13.6892 37.7831 13.3786 37.1018 13.3786 37.7831C13.3786 38.3792 13.7753 38.618 14.3784 38.618C15.0676 38.618 15.6707 38.3792 15.6707 37.7831C15.6707 37.1018 15.0676 37.7831 14.3784 37.7831ZM42.2922 39.5548C39.4492 39.5548 37.9845 42.0245 37.9845 44.7496C37.9845 47.56 39.7938 49.6038 42.3784 49.6038C44.5322 49.6038 45.3076 48.7522 45.3076 48.7522V47.2193C44.6184 48.2412 43.843 48.4967 43.2399 48.4967C42.8811 48.4835 42.529 48.3965 42.2061 48.2412C40.9138 47.7303 40.7415 46.1122 40.7415 46.1122C41.7753 45.0051 42.8953 45.2606 44.3599 43.7277C46.4276 41.6838 44.963 39.4696 42.2061 39.4696M40.5692 45.0903C40.5692 45.0903 40.3107 40.4916 42.1199 40.3212C43.5846 40.3212 43.2399 42.3651 42.8092 43.0464C42.1199 44.3238 41.1722 44.409 40.6553 45.0903M35.7445 37.3406C35.7445 37.3406 35.0553 38.2774 33.8492 39.2993C33.0738 39.8954 31.523 40.6619 31.523 40.6619H33.2461V47.6451C33.2461 49.5187 34.0215 49.5187 34.0215 49.5187H36.6061C36.6061 49.5187 35.6584 48.9225 35.6584 47.56V40.7471H36.2615C37.123 40.7471 37.9845 41.0877 37.9845 41.0877V39.5548H35.6584V37.3406M18.6861 39.5548H16.963C16.963 39.5548 17.9969 39.9806 17.9969 41.5135V47.4748C17.9969 49.5187 18.8584 49.5187 18.8584 49.5187H21.443C21.443 49.5187 20.4953 48.6671 20.4953 47.4748V42.6206C20.4953 42.1948 20.7538 41.8542 21.0984 41.5987C21.443 41.3432 21.8738 41.258 22.3045 41.258C22.8215 41.258 23.5107 41.5135 23.9415 42.1096V40.2361C23.9415 40.2361 23.5969 39.4696 22.563 39.4696C20.8399 39.4696 20.4092 41.5135 20.4092 41.5135C20.323 39.8954 19.8922 39.4696 18.6861 39.4696M13.8615 39.4696H12.1384C12.1384 39.4696 13.1722 39.8954 13.1722 41.5135V47.4748C13.1722 49.4335 14.0338 49.5187 14.0338 49.5187H16.7045C16.7045 49.5187 15.6707 48.8374 15.6707 47.4748V41.8541C15.6707 39.5548 14.3784 39.5548 13.8615 39.5548M2.66147 39.5548C0.679929 39.5548 0.163007 41.4283 0.163007 41.4283C0.163007 41.4283 0.163007 39.5548 -1.56007 39.5548H-3.19699C-3.19699 39.5548 -2.33545 39.9806 -2.33545 41.5987V47.56C-2.33545 49.5187 -1.47392 49.6038 -1.47392 49.6038H1.36916C1.36916 49.6038 0.249161 48.7522 0.249161 47.56V42.28C0.249161 42.0245 0.766084 41.1729 1.97224 41.1729C2.48916 41.1729 3.17839 41.9393 3.17839 42.7058V47.4748C3.17839 49.6038 4.03993 49.6038 4.03993 49.6038H6.62455C6.62455 49.6038 5.67685 48.7522 5.67685 47.56V42.28C5.67685 42.0245 6.10762 41.258 7.14147 41.258C8.00301 41.258 8.60608 41.9393 8.60608 42.6206V47.56C8.60608 49.6038 9.46762 49.6038 9.46762 49.6038H12.0522C12.0522 49.6038 11.1045 48.9225 11.1045 47.56V42.28C11.1045 40.1509 9.38147 39.5548 8.00301 39.5548C6.27993 39.5548 5.84916 41.0025 5.5907 41.4283C5.24608 40.0658 3.86762 39.4696 2.83378 39.4696M-7.33238 37H-13.7078C-13.7078 37 -12.5878 37.8516 -12.6739 39.8103V47.4748C-12.6739 49.4335 -11.8124 49.5187 -11.8124 49.5187H-5.52315C-4.14469 49.5187 -3.71392 48.4967 -3.71392 47.9006V47.2193C-3.71392 47.2193 -4.05853 48.1561 -5.95392 48.1561H-8.9693C-9.83084 48.1561 -9.83084 47.3045 -9.83084 46.7083V42.5354H-7.67699C-6.98776 42.5354 -6.29853 42.7058 -5.69546 42.9612C-5.69546 42.9612 -6.47084 41.258 -8.53853 41.258H-9.83084V39.8954C-9.83084 39.8954 -9.83084 38.7883 -10.0893 38.3625H-8.19392C-6.47084 38.3625 -5.17853 38.3625 -3.71392 39.2141C-3.71392 39.2141 -3.97238 37.0851 -7.33238 37.0851M11.7076 25.5032L9.98454 27.3767C11.2769 28.569 11.7076 29.2503 11.8799 29.7612C11.8799 29.7612 13.6892 28.3135 13.6892 27.8025C13.6892 26.9509 13.1722 26.6954 11.9661 25.5032M7.39993 22.1819H6.53839C6.53839 22.1819 7.39993 22.778 7.39993 24.1406V28.7393C7.39993 31.72 9.98455 34.4451 12.9999 34.4451H15.4984C17.1353 34.4451 17.6522 34.1896 18.5138 33.338L19.3753 32.4012C19.9784 31.8051 20.5815 31.2941 20.5815 29.8464V28.2283C20.5815 26.9509 19.7199 26.5251 19.3753 26.0993L18.5138 25.2477V28.3135L19.3753 29.1651C20.8399 30.2722 19.7199 32.0606 18.5138 32.0606H12.9138C10.243 31.9754 8.08916 29.8464 8.08916 27.2064V24.7367C8.08916 22.1819 7.39993 22.1819 7.39993 22.1819ZM19.4615 4.46834L18.1692 5.6606C17.6522 6.25673 17.8245 7.36382 18.9445 8.21544V10.9406C18.9445 11.1109 18.6861 11.3664 18.6861 11.3664C18.6861 11.3664 17.2215 10.089 15.843 10.089H13.6892C12.3969 10.089 11.2769 11.1961 11.1907 11.2812C10.5876 11.9625 10.5015 13.24 11.1907 13.8361L12.5692 15.1987C12.5692 15.1987 12.2245 12.8993 12.5692 11.3664C12.5692 11.0258 12.9999 10.6 13.5169 10.6C14.723 11.4516 15.843 12.218 16.8769 13.1548L12.9999 17.1574C12.8276 17.3277 12.3107 17.7535 11.7938 17.7535C11.1045 17.7535 10.9322 17.4129 10.5876 17.0722V18.9458C10.5876 19.627 11.4492 20.2232 12.2245 20.2232H17.3938C17.7384 20.2232 18.2553 20.2232 18.5999 19.8825L20.2369 18.0941C20.5815 17.8387 20.6676 17.498 20.6676 17.0722V15.0283C20.6676 13.24 19.203 11.7922 19.203 11.7922C19.203 11.7922 19.4615 11.4516 19.4615 10.6V8.64124C19.4615 8.64124 20.0645 9.23737 20.1507 9.49286L21.1845 8.47092C21.7015 7.95995 20.8399 6.93802 20.5815 6.59737C19.4615 5.49028 19.4615 4.38318 19.4615 4.38318M12.9138 17.8387L17.3938 13.5806C17.3938 13.5806 19.1169 15.2838 19.8061 16.3909C20.0645 16.8167 20.4092 17.8387 18.8584 17.8387H12.9138ZM15.4984 25.5032L13.6892 27.2064C14.9815 28.4838 15.3261 29.1651 15.4122 29.7612C15.5845 29.6761 17.3076 28.2283 17.3076 27.7174C17.3076 26.8658 16.7907 26.6103 15.5845 25.418M8.60608 14.0064H7.74454C8.26147 14.2619 8.69224 15.2838 8.69224 15.9651V19.7122C8.69224 20.649 9.55378 24.3961 12.8276 24.3961H22.6492V30.5277C22.6492 31.4645 22.3045 32.1458 22.0461 32.4012L20.4953 33.5935H21.1845L23.7692 31.209C24.2861 30.698 24.9753 30.0167 24.9753 28.1432V24.3109L26.0953 23.1187L27.9907 21.4154C27.9907 22.9483 28.8522 23.5445 29.5415 23.5445C29.9244 23.5203 30.2883 23.3704 30.5753 23.1187L32.2984 21.5006C33.1599 20.7341 33.5045 18.2645 31.6092 18.2645C30.403 18.2645 29.0245 19.9677 28.8522 20.2232L27.9907 19.3716V20.8193C27.8184 21.16 27.1292 21.6709 26.4399 21.6709H25.0615V20.138C25.0615 19.4567 25.3199 18.6051 25.6645 18.4348L27.2153 16.9871H26.3538L23.4245 19.7122C22.9076 20.2232 22.563 21.3303 22.563 21.5858H11.7076C10.4153 21.5858 9.55378 20.3083 9.55378 19.2012V16.3909C9.55378 14.0916 8.9507 13.9212 8.77839 13.8361M31.1784 22.0116C30.9199 22.0116 30.6615 22.0116 30.3169 21.5858C29.9773 21.2918 29.6866 20.947 29.4553 20.5638C29.5415 20.3935 30.0584 20.2232 30.4892 20.2232C30.8338 20.2232 31.0922 20.2232 31.3507 20.4787C31.8676 21.3303 31.6953 22.0116 31.0922 22.0116M27.043 23.7148V26.7806L27.9907 27.8877C28.8522 28.7393 28.8522 30.2722 26.2676 32.8271C25.8369 33.2529 24.5445 34.5303 22.7353 34.5303H17.9969L20.8399 36.9148H22.6492C24.5445 36.9148 26.2676 36.0632 27.4738 34.9561C28.5076 33.849 29.1107 32.4012 29.1107 30.9535V26.9509C29.1107 25.6735 28.2492 24.8219 27.9045 24.6516L27.043 23.8M26.3538 4.46834L23.5107 7.02318C23.2522 7.1935 22.6492 8.21544 22.6492 9.49286V16.9871C22.5735 17.5909 22.3679 18.1716 22.0461 18.6903L20.5815 19.8825H21.1845L23.9415 17.498C24.1999 17.0722 24.9753 16.3058 24.9753 14.9432V7.61931C24.9753 6.51221 25.4922 5.91608 25.8369 5.57544C25.923 5.31995 26.8707 4.5535 27.043 4.38318L26.3538 4.46834Z" fill="#D71921"/>
</g>
<defs>
<clipPath id="clip0_11_1296">
<rect width="28" height="33" fill="white" transform="translate(6 4)"/>
</clipPath>
</defs>
</svg>
