<svg width="40" height="40" viewBox="0 0 40 40" fill="none" xmlns="http://www.w3.org/2000/svg">
<path d="M34.456 7H35.1697C35.5402 7.31565 35.8387 7.70902 36 8.1706V10.7354C35.7142 11.4286 35.6168 12.1789 35.3677 12.8847C35.0324 13.9268 34.5295 14.9325 33.7695 15.7319C32.8802 16.6662 31.8088 17.4053 30.7327 18.1096C28.0838 19.802 25.3376 21.3359 22.5754 22.838C16.9951 25.8216 11.319 28.6386 5.48007 31.0909C5.00426 31.2146 4.53325 31.3462 4.05426 31.4525C4.09897 30.8958 4.69132 30.6674 5.09048 30.385C14.7534 24.6542 23.4088 17.4022 31.4144 9.5823C32.3884 8.67976 33.2857 7.65826 34.456 7Z" fill="#548F46"/>
<path d="M31.4464 18.8218C31.7976 18.6553 32.2942 18.8202 32.374 19.2263C32.5002 19.8306 32.2543 20.4318 32.0276 20.9806C31.1223 22.9459 29.6996 24.7192 27.8284 25.8486C26.8305 26.4196 25.7304 26.7813 24.6526 27.1699C19.3725 28.9559 13.9423 30.2598 8.50574 31.4795C8.56002 31.5144 8.67179 31.5842 8.72767 31.6207C8.63347 31.6429 8.44826 31.6873 8.35405 31.7095C8.27901 31.4082 7.58607 31.5224 7.92775 31.8063C7.30186 31.9078 6.62808 31.9316 6.09161 32.3059C6.00698 32.1933 5.92556 32.0807 5.84572 31.9665C5.22782 31.9966 4.61471 32.0569 4 32.1108C4.01437 31.8904 4.03193 31.6715 4.05428 31.4526C4.53328 31.3463 5.00428 31.2146 5.48009 31.0909C5.86967 31.0195 6.25766 30.9244 6.63287 30.7911C8.63507 30.0948 10.5862 29.2621 12.5213 28.396C17.9962 25.9152 23.3705 23.2108 28.6267 20.297C29.5623 19.7989 30.4533 19.2025 31.4464 18.8218Z" fill="#F1D212"/>
<path d="M26.9023 27.162C27.3366 27.0858 27.905 26.8304 28.2627 27.2159C28.6922 27.7774 28.2451 28.4705 27.9577 28.9861C26.9231 30.5231 25.5787 31.949 23.8224 32.6565C22.9889 33.0578 22.0485 33.0007 21.1528 33.0958C16.4762 33.3655 11.7964 33.034 7.13901 32.62C6.78137 32.5565 6.36783 32.5772 6.09161 32.3059C6.62809 31.9316 7.30187 31.9078 7.92776 31.8063C8.03473 31.7825 8.24709 31.7333 8.35406 31.7095C8.44826 31.6873 8.63348 31.6429 8.72768 31.6207C11.9593 31.0846 15.1654 30.3978 18.3395 29.5856C21.2215 28.8798 24.0379 27.936 26.9023 27.162Z" fill="#C12237"/>
</svg>
