<svg width="40" height="40" viewBox="0 0 40 40" fill="none" xmlns="http://www.w3.org/2000/svg">
<path d="M11.9572 12.0098H34.6014L24.6669 27.5114H2.02301L11.9572 12.0098Z" fill="white"/>
<path d="M29.0002 27.5344H26.3239L36.3235 12H39L29.0002 27.5344Z" fill="#C9CBCC"/>
<path d="M14.9293 26.4908L14.168 27.5315H17.7561L16.6319 25.1582L14.9293 26.4908Z" fill="#E31B23"/>
<path d="M12.755 12.002C13.511 12.6684 14.0747 13.8013 14.0747 13.8013L16.8641 19.8207L19.3388 20.1628C19.3388 20.1628 25.0676 19.6988 25.321 19.7952C25.8522 19.9992 26.1978 20.9248 26.1978 20.9248L20.4208 22.5267L18.6473 23.7046L19.8065 26.2851C19.8065 26.2851 19.8938 25.9006 19.9671 25.8405C20.0406 25.7792 20.6608 25.2973 20.7771 25.3372C20.8929 25.3757 21.0803 25.6532 21.3745 26.3527C21.5313 26.7243 21.6581 27.1411 21.7579 27.5333H24.6738L34.6673 12.002H12.755Z" fill="#E31B23"/>
<path d="M13.8345 24.139L14.8347 21.2848L12.0628 15.2541C12.0628 15.2541 11.5104 13.9598 11.4681 12.7578L2 27.5328H12.0433C12.9069 25.8795 13.8345 24.139 13.8345 24.139Z" fill="#E31B23"/>
</svg>
