<svg width="40" height="40" viewBox="0 0 40 40" fill="none" xmlns="http://www.w3.org/2000/svg">
<g clip-path="url(#clip0_101_619)">
<path fill-rule="evenodd" clip-rule="evenodd" d="M16.2203 12.0386C13.7775 11.7074 12.5354 13.0737 10.8379 14.3158L5 18.9115L6.11789 19.4912C7.567 20.195 9.59576 19.988 11.0035 18.9529L13.4877 17.007L14.4399 16.2617L19.1185 12.5354L16.2203 12.0386Z" fill="#7CC5D3"/>
<path fill-rule="evenodd" clip-rule="evenodd" d="M5 18.9111L6.11789 19.5322C7.567 20.236 9.59576 20.029 11.0035 18.9939L14.3985 16.3027L5 18.9111Z" fill="#2090B6"/>
<path fill-rule="evenodd" clip-rule="evenodd" d="M26.1571 14.8952L23.0518 14.3569C23.0518 14.3569 20.8575 13.8187 19.0357 15.2264C19.0357 15.2264 17.7108 16.2201 16.7171 17.0067L14.5228 18.7457L9.38875 22.7618L9.34735 22.8032L10.8793 23.6313C12.3284 24.3351 14.3571 24.1281 15.7649 23.093L20.3192 19.4909L26.1571 14.8952Z" fill="#7C2045"/>
<path fill-rule="evenodd" clip-rule="evenodd" d="M16.6757 16.9658C17.6694 16.1792 18.9943 15.1855 18.9943 15.1855C19.3255 14.9371 19.6981 14.7301 20.0708 14.5645L14.3985 16.2206L13.4462 16.9658L11.0034 18.9118C9.59574 19.9469 7.73259 20.1539 6.11786 19.45C7.35996 20.1953 9.30591 20.3609 12.2041 19.4914L14.1915 18.9118L14.4813 18.6634L16.6757 16.9658ZM24.7079 18.7462C25.4118 18.1251 26.2399 17.5869 27.0679 17.1315L20.6918 19.1602L20.3192 19.4914L15.7648 23.0935C14.3571 24.1286 12.494 24.3356 10.8792 23.6318C13.115 24.8739 16.5929 23.963 19.4911 22.9279L19.6567 22.8037L24.7079 18.7462ZM32.2019 22.8037C29.6763 22.0584 28.8897 22.5139 25.8672 23.4248L25.6188 23.6318L20.7746 27.4823C19.3255 28.5174 17.421 28.683 15.7648 27.9791C17.5866 28.9314 19.4497 28.683 22.6378 27.6893L35.4314 23.756L32.2019 22.8037Z" fill="#C1BEB9"/>
<path fill-rule="evenodd" clip-rule="evenodd" d="M33.03 17.5039L29.6349 16.8828C27.6062 16.5102 26.6539 17.1727 24.7079 18.7046L19.6981 22.7621L14.2329 27.1923L15.7648 28.0203C17.2139 28.7242 19.4083 28.5586 20.7746 27.5235L25.6188 23.673L33.03 17.5039Z" fill="#7C2045"/>
<path fill-rule="evenodd" clip-rule="evenodd" d="M14.1915 18.9517L24.9978 15.7637L20.6919 19.1587L9.34735 22.8022L14.1915 18.9517ZM19.4912 22.9264L31.2497 18.9931L25.8673 23.4647L14.1915 27.191L19.4912 22.9264Z" fill="#A22455"/>
</g>
<defs>
<clipPath id="clip0_101_619">
<rect width="30.39" height="16.6027" fill="white" transform="translate(5 12)"/>
</clipPath>
</defs>
</svg>
