<svg width="40" height="40" viewBox="0 0 40 40" fill="none" xmlns="http://www.w3.org/2000/svg">
<path d="M12.7755 15.1603C12.7755 15.3629 12.9764 15.4304 13.1104 15.4979C13.3114 15.5654 13.5123 15.7004 13.5123 15.9705V23.3291H21.6179V23.4641C21.6179 23.5316 21.6179 23.5316 21.6179 23.6667C21.6179 24.2743 21.8188 24.6793 22.1537 24.8143C22.1537 24.8143 22.3547 24.9494 22.6227 24.9494C22.8236 24.9494 23.0246 24.8819 23.2255 24.7468L23.3595 24.6793L23.2255 24.5443C23.0246 24.3418 22.8906 23.8017 22.8906 23.4641V23.3966H25.905V16.6456C25.905 16.6456 25.5031 17.5232 24.0294 18.6034C24.0294 18.6034 24.0964 18.8734 24.3643 19.0084C24.7663 19.211 24.6993 19.4135 24.6993 19.4135V22.1139H22.8236V21.9789V21.8439C22.8236 21.1688 22.6227 19.5485 20.814 19.5485H20.747C20.2111 19.5485 19.6752 19.5485 19.2733 19.5485H19.1393C18.0675 19.5485 17.5316 19.4135 17.3306 19.1435L17.2636 19.0084L17.1966 19.076C16.9957 19.211 16.8617 19.481 16.8617 19.7511C16.8617 20.1561 17.1296 20.6962 17.5316 20.6962C17.7995 20.6962 18.2015 20.6962 18.6034 20.6962C19.2733 20.6962 20.0101 20.6962 20.0101 20.6962C21.4839 20.6962 21.5508 21.3713 21.5508 21.6413V21.9789H14.7181V13C14.7181 13 13.9143 14.0802 12.7755 14.8903V14.9578V15.1603Z" fill="#C4921B"/>
<path d="M8.0862 24.4093C8.0862 24.4093 7.9523 25.4895 10.1629 25.4895C11.9715 25.4895 12.0385 24.3418 12.0385 24.3418V20.1562C12.0385 19.8861 11.9715 19.1435 11.2347 19.1435H4.9378V18.671C4.9378 18.5359 5.0048 18.5359 5.1388 18.4684C5.4737 18.2659 5.5407 18.0634 5.4737 17.9283C4.7368 17.5233 4 16.5781 4 16.5781V20.2237H10.2968H10.3638C10.5648 20.2237 10.8327 20.2912 10.8327 20.6963V23.6667C10.8327 23.6667 10.8327 24.2743 10.2298 24.2743C9.225 24.2743 9.292 23.7342 9.292 23.7342V22.114H4V23.3967H8.1532V24.4093H8.0862Z" fill="#C4921B"/>
<path d="M34.4133 15.9707C34.4133 15.6331 34.6143 15.5656 34.7483 15.4981C34.8823 15.4306 35.0162 15.3631 35.0832 15.0931V15.0255C35.0832 14.8905 35.0162 14.8905 34.8823 14.823C34.7483 14.7555 34.5473 14.6205 34.1454 14.2829C33.4755 13.7428 33.3415 13.4728 33.3415 13.4728L33.1406 13.1353V23.3969H34.4133C34.4133 23.3293 34.4133 16.1732 34.4133 15.9707Z" fill="#C4921B"/>
<path d="M30.1251 24.6796L29.2542 25.5572L28.3834 24.6796L29.2542 23.8019L30.1251 24.6796ZM27.2446 24.6796L29.3212 26.7724L31.3978 24.6796L30.1251 23.3969L31.6658 21.7766V13.1353C31.6658 13.1353 31.0629 14.418 30.0581 15.0931V15.1606C30.0581 15.3631 30.192 15.4306 30.326 15.4981C30.46 15.5656 30.5939 15.7006 30.5939 15.9707C30.5939 16.2407 30.5939 21.169 30.5939 21.169L29.3212 22.5192L28.0484 21.169C28.0484 21.1015 28.0484 16.1732 28.0484 15.9707C28.0484 15.6331 28.1824 15.5656 28.3164 15.4981C28.4504 15.4306 28.5173 15.3631 28.5843 15.1606V15.0931C27.6465 14.418 26.9766 13.1353 26.9766 13.1353V21.9116L28.5173 23.4644L27.2446 24.6796Z" fill="#C4921B"/>
</svg>
