<svg width="40" height="40" viewBox="0 0 40 40" fill="none" xmlns="http://www.w3.org/2000/svg">
<g clip-path="url(#clip0_101_643)">
<path d="M25.2271 17.8438C25.05 18.1095 25.05 18.2866 24.9614 18.3752C24.8728 19.3495 25.2271 20.1023 24.9614 21.0766C24.6957 22.1837 23.8985 23.0695 22.88 23.6009C25.3157 24.2209 26.1128 25.1509 26.1128 27.0552C26.1128 29.4023 24.12 31.0409 21.1528 31.0409C17.7871 31.0409 16.2814 29.7566 15.6614 27.9852C14.5985 28.9595 11.3214 31.8823 10.9671 32.2366C12.96 34.5837 16.2814 35.9566 21.1085 35.9566C28.2385 35.9566 32.5785 31.7052 32.5785 26.3909C32.6228 21.2537 30.1871 18.9952 25.2271 17.8438Z" fill="black"/>
<path d="M13.8456 26.0352H8.84131C8.92988 27.5852 9.15131 28.8694 9.77131 30.1094L13.8456 26.0352Z" fill="black"/>
<path d="M17.4327 22.5371L18.0527 21.9171C17.5213 20.9429 17.4327 19.9243 17.787 18.8614C17.787 18.8614 16.0599 16.8686 15.7056 16.16C15.2627 15.2743 15.2627 14.61 15.2627 13.99C15.2627 12.44 16.237 10.1814 20.0456 10.0043C20.1342 10.0043 20.4885 10.0043 20.577 10.0043C22.9242 10.0043 24.4742 10.8014 25.1827 12.5286L28.637 7.39143C26.6885 5.79714 24.0313 5 20.5327 5C13.9342 5 9.59418 8.80857 9.59418 13.9457C9.59418 18.9057 11.9413 21.3414 17.4327 22.5371Z" fill="black"/>
<path d="M27.3971 13.9469H31.8257C31.6485 12.0426 31.1171 10.4926 30.2757 9.16406C30.2757 9.16406 28.0171 12.9726 27.3971 13.9469Z" fill="black"/>
<path d="M16.5471 26.0791C16.6357 26.3448 16.8128 26.522 16.99 26.6991C17.6985 27.3191 18.6285 27.2305 19.2485 26.6105C19.8685 25.902 19.78 24.972 19.16 24.352C19.0714 24.2634 18.9828 24.1748 18.8942 24.1748C18.8942 24.1748 19.9571 23.2891 20.0014 23.2891C20.09 23.2005 20.5328 23.2005 20.9757 23.112C21.1528 23.112 21.4185 23.112 21.5957 23.0234C22.3928 22.9348 23.1457 22.5805 23.7657 21.9605C24.2971 21.252 24.5628 20.322 24.4742 19.5248C24.3857 18.9048 24.2971 18.3291 24.3857 18.152C24.3857 18.152 24.74 17.4434 25.0942 16.8677C25.0942 16.9562 25.1828 16.9562 25.1828 17.0448C25.8914 17.6648 26.8214 17.5762 27.4414 16.9562C28.0614 16.2477 27.9728 15.3177 27.3528 14.6977C27.0871 14.432 26.8214 14.3434 26.4671 14.2548L31.25 6.28338C31.3385 6.01767 31.25 5.75195 30.9842 5.75195C30.8957 5.75195 30.8071 5.84052 30.7185 5.9291L22.88 17.5762C21.8171 17.0448 20.5328 17.0448 19.6471 17.842C19.5585 17.842 17.1228 16.292 17.1228 16.292C16.9457 16.2034 16.7685 16.2034 16.68 16.3805C16.5914 16.4691 16.5914 16.7348 16.68 16.8234L18.6728 18.9934C18.1414 20.0562 18.3185 21.3405 19.1157 22.2262L8.13281 32.7662C7.77853 33.1205 8.22138 33.5634 8.57567 33.2977C8.57567 33.2977 16.37 26.2562 16.5471 26.0791Z" fill="black"/>
</g>
<defs>
<clipPath id="clip0_101_643">
<rect width="24.6229" height="31" fill="white" transform="translate(8 5)"/>
</clipPath>
</defs>
</svg>
