<svg width="40" height="40" viewBox="0 0 40 40" fill="none" xmlns="http://www.w3.org/2000/svg">
<g clip-path="url(#clip0_101_703)">
<path d="M35.889 6.97852H14.5369C12.0711 6.97852 10.8382 8.09936 9.99755 11.4058L8.98878 15.2727C8.93274 15.3848 9.04483 15.4409 9.15692 15.3848C9.15692 15.3848 10.3898 14.5442 12.5194 14.5442H30.565C32.8066 14.5442 34.4879 12.5827 34.9923 10.9015L36.001 7.14664C36.001 7.03456 36.001 6.97852 35.889 6.97852Z" fill="#006643"/>
<path d="M32.3581 16.5625H12.0148C9.549 16.5625 8.48421 17.5152 7.47545 20.9898L6.46669 24.8007C6.41065 24.9128 6.52274 24.9688 6.63482 24.9128C6.63482 24.9128 7.92378 24.0721 10.0534 24.0721H26.6418C29.2198 24.0721 31.0131 22.0546 31.8537 19.1404L32.5262 16.6746C32.4702 16.5625 32.4142 16.5625 32.3581 16.5625Z" fill="#006643"/>
<path d="M18.6842 26.0938H9.3812C6.97139 26.0938 5.73847 27.1585 4.89784 30.2409L4.00116 33.5473C4.00116 33.6034 4.05721 33.6594 4.11325 33.6594H13.0239C15.2656 33.6594 17.171 32.2584 18.0117 29.1761L18.7963 26.2058C18.7963 26.2058 18.7402 26.0938 18.6842 26.0938Z" fill="#006643"/>
</g>
<defs>
<clipPath id="clip0_101_703">
<rect width="32" height="26.676" fill="white" transform="translate(4 7)"/>
</clipPath>
</defs>
</svg>
