<svg width="40" height="40" viewBox="0 0 40 40" fill="none" xmlns="http://www.w3.org/2000/svg">
<path d="M35.8267 8.00717C35.0933 8.0805 29.08 8.44717 29.08 8.44717C29.08 8.44717 28.86 8.37384 28.4933 8.7405C28.2 9.10717 10.0133 29.6405 10.0133 29.6405C10.0133 29.6405 7.52 32.3538 4 32.6472H28.86L36.34 8.44717C36.34 8.44717 36.56 7.93384 35.8267 8.00717Z" fill="#00387C"/>
<path d="M18.0067 26.7071C17.86 26.7804 17.7133 26.9271 17.64 27.0737C17.5667 27.2937 17.7867 27.5137 18.0067 27.6604C18.3 27.8071 18.6667 27.8804 19.3267 27.8804C20.06 27.8804 20.4267 27.7337 20.4267 27.7337C20.4267 27.7337 20.5733 27.2937 20.72 27.0004C20.8667 26.7071 21.0867 26.1937 21.2333 25.9004C19.84 25.9737 18.74 26.2671 18.0067 26.7071Z" fill="url(#paint0_linear_101_775)"/>
<path d="M31.4267 18.2734C31.4267 18.2734 30.84 19.0068 28.64 18.9334C27.1733 18.9334 26.44 18.4934 24.68 18.4201C22.7 18.4201 21.3067 19.0801 20.8667 19.9601C20.6467 20.4001 19.5467 22.8934 19.5467 22.8934C19.5467 22.8934 20.1333 22.2334 21.16 21.9401C22.5533 21.5001 23.8734 21.5734 25.1934 21.7934C26.1467 21.9401 26.7333 22.1601 27.6133 22.0868C28.42 22.0868 28.86 21.8668 29.1533 21.7201C29.5933 21.5001 29.96 21.1334 30.4733 20.3268C30.9133 19.8134 31.3534 18.5668 31.4267 18.2734ZM17.7867 26.7801C18.08 26.1201 18.52 25.0201 19.1067 23.9934C19.18 23.7734 19.4 23.5534 19.62 23.4068C20.3533 22.7468 22.04 22.2334 24.0934 22.3801C25.56 22.5268 26.1467 22.6734 27.0267 22.7468C27.3934 22.7468 27.8333 22.8201 28.2 22.7468C29.1533 22.6001 29.4467 22.3801 29.4467 22.3801C29.4467 22.3801 28.86 23.9201 27.98 24.8734C26.9533 26.0468 25.9267 26.1201 23.9467 25.9734C21.0867 25.6801 19.1067 26.0468 18.0067 26.7801C17.86 26.8534 17.7133 27.0734 17.64 27.2201C17.64 27.2201 17.64 27.0734 17.7867 26.7801Z" fill="url(#paint1_linear_101_775)"/>
<defs>
<linearGradient id="paint0_linear_101_775" x1="18.0551" y1="26.1716" x2="20.656" y2="27.1908" gradientUnits="userSpaceOnUse">
<stop offset="0.068605" stop-color="#8B350B"/>
<stop offset="0.1507" stop-color="#913C0E"/>
<stop offset="0.2756" stop-color="#A34E14"/>
<stop offset="0.2965" stop-color="#A65215"/>
<stop offset="0.4558" stop-color="#B76519"/>
<stop offset="0.8895" stop-color="#E8A71F"/>
</linearGradient>
<linearGradient id="paint1_linear_101_775" x1="20.4731" y1="20.8248" x2="28.2859" y2="24.6452" gradientUnits="userSpaceOnUse">
<stop stop-color="#E79000"/>
<stop offset="0.0235647" stop-color="#E89400"/>
<stop offset="0.0587068" stop-color="#ECA022"/>
<stop offset="0.07" stop-color="#EDA42C"/>
<stop offset="0.1001" stop-color="#F0B24D"/>
<stop offset="0.2" stop-color="#FBDDAA"/>
<stop offset="0.222" stop-color="#FADAA3"/>
<stop offset="0.2562" stop-color="#F9D48F"/>
<stop offset="0.2986" stop-color="#F7C96C"/>
<stop offset="0.3469" stop-color="#F4BB35"/>
<stop offset="0.35" stop-color="#F4BA30"/>
<stop offset="0.66" stop-color="#EEA900"/>
<stop offset="0.98" stop-color="#E78E00"/>
</linearGradient>
</defs>
</svg>
