<svg width="40" height="40" viewBox="0 0 40 40" fill="none" xmlns="http://www.w3.org/2000/svg">
<path d="M20.875 20.787C20.9418 20.6872 21.0024 20.5829 21.0691 20.4832C21.1096 20.4215 21.1536 20.3607 21.1979 20.3025C21.2417 20.2442 21.306 20.1878 21.3305 20.1186C21.3382 20.1016 21.3361 20.1024 21.3224 20.0855C21.3009 20.0547 21.2922 20.0225 21.2737 19.9925C21.2502 19.9493 21.2235 19.9099 21.1936 19.8713C21.104 19.7487 20.8996 19.4133 20.73 19.1624C20.5624 18.9123 20.3242 18.5257 20.1384 18.2754C20.1384 18.2754 20.067 18.3924 19.9278 18.6268C19.791 18.8619 19.5771 19.1821 19.4495 19.3609C19.3542 19.5021 19.2031 19.6994 18.9401 20.0481C19.0548 20.2175 19.2684 20.6576 19.4542 20.9246C19.6374 21.1919 19.9379 21.6115 20.1388 21.891C20.2386 21.7679 20.3066 21.6875 20.3609 21.5968C20.4191 21.5084 20.5176 21.3939 20.5642 21.3039C20.6144 21.2138 20.6898 21.0982 20.8289 20.8531C20.8412 20.8295 20.8594 20.8083 20.875 20.787Z" fill="#2C1E16"/>
<path d="M20.1805 26.1873C20.2362 26.0587 20.306 25.6758 20.3531 25.4467C20.3989 25.2159 20.4137 24.9252 20.4462 24.6785C20.4807 24.4326 20.436 24.017 20.4077 23.8332C20.378 23.6472 20.3219 23.4508 20.2626 23.3072C20.203 23.1605 20.1358 23.0263 20.0362 22.9297C19.9979 23.0285 19.9878 23.0898 19.9607 23.1699C19.9279 23.2641 19.9179 23.3457 19.88 23.445C19.8434 23.5419 19.7777 23.7739 19.7537 23.8269C19.7146 23.9068 19.7097 23.9824 19.6708 24.1322C19.634 24.2807 19.614 24.5396 19.6077 24.6089C19.6023 24.6798 19.6773 25.1468 19.6983 25.3223C19.7231 25.5002 19.8089 25.8822 19.8599 26.0336C19.9105 26.184 20.0179 26.417 20.0499 26.5045C20.1249 26.4313 20.1249 26.3144 20.1805 26.1873Z" fill="#2C1E16"/>
<path d="M18.0766 24.9108C18.138 24.8313 18.3248 24.58 18.4935 24.4004C18.6632 24.2214 18.7361 24.0256 18.7968 23.8433C18.8595 23.6592 18.9388 23.3226 18.954 23.1433C18.9707 22.9595 18.944 22.8801 18.9387 22.8164C18.9271 22.6994 18.912 22.6697 18.8627 22.7224C18.8318 22.75 18.6848 22.9204 18.5687 23.0551C18.4533 23.1894 18.2674 23.458 18.2021 23.6136C18.1347 23.771 18.0251 24.0354 17.9886 24.2249C17.9493 24.4122 17.9105 24.6942 17.9011 24.7759C17.8921 24.8575 17.9011 24.9819 17.9117 25.0709C17.9689 25.0488 18.0184 24.989 18.0766 24.9108Z" fill="#2C1E16"/>
<path d="M16.8804 23.6093C17.0198 23.5177 17.2044 23.4251 17.4523 23.1652C17.6995 22.9067 17.7915 22.7465 17.9287 22.5119C18.0655 22.2773 18.0954 22.1489 18.1727 22.0162C18.2483 21.8808 18.2544 21.8525 18.1912 21.8635C18.1014 21.8816 18.0852 21.8817 17.8514 22.0204C17.6207 22.1584 17.3606 22.4476 17.2519 22.5511C17.1408 22.6544 16.8859 23.0474 16.8198 23.1735C16.756 23.2958 16.5808 23.6636 16.5198 23.7446C16.4575 23.8285 16.5318 23.8079 16.6434 23.7437C16.7108 23.6981 16.7369 23.7005 16.8804 23.6093Z" fill="#2C1E16"/>
<path d="M15.9804 22.1922C15.7278 22.2528 15.3802 22.2348 15.1839 22.2281C15.247 22.1412 15.4803 21.969 15.6699 21.8263C15.8622 21.6828 16.1451 21.588 16.2422 21.5396C16.3393 21.4903 16.4914 21.4155 16.6069 21.3916C16.7224 21.3636 16.7323 21.3432 16.8343 21.3236C16.9533 21.301 17.0436 21.3102 17.2166 21.2784C17.312 21.2592 17.3595 21.2656 17.473 21.2971C17.5101 21.3066 17.5261 21.3262 17.4962 21.359C17.4754 21.3829 17.4413 21.4016 17.4138 21.4199C17.3947 21.4343 17.3768 21.4484 17.3545 21.4651C17.3118 21.4946 17.2783 21.5295 17.2327 21.5573C17.1903 21.5838 17.148 21.6088 17.1066 21.6354C16.9944 21.7113 16.8823 21.7872 16.7726 21.8683C16.5177 22.0562 16.2294 22.1308 15.9804 22.1922Z" fill="#2C1E16"/>
<path d="M17.4141 20.0083C17.3293 19.9439 17.1078 19.8974 16.9701 19.8692C16.8197 19.8368 16.5986 19.7853 16.443 19.7879C16.2893 19.7906 16.0712 19.7794 15.8856 19.7661C15.7028 19.7555 15.4358 19.7798 15.208 19.8412C14.9781 19.9033 14.7211 19.9746 14.5629 20.0382C14.4548 20.0805 14.3404 20.1146 14.187 20.1862C14.1055 20.2259 14.0038 20.2253 13.888 20.2907C13.7712 20.3565 13.7806 20.3756 13.8154 20.3818C13.8482 20.3888 13.9802 20.4403 14.0737 20.4478C14.2024 20.457 14.4832 20.5311 14.8005 20.5549C15.1194 20.5818 15.449 20.5758 15.7206 20.5671C15.9958 20.5587 16.3162 20.5311 16.7413 20.3815C16.8808 20.3056 16.9351 20.3262 17.0832 20.2738C17.2342 20.2212 17.3147 20.1825 17.5579 20.1135C17.4857 20.0613 17.4984 20.0716 17.4141 20.0083Z" fill="#2C1E16"/>
<path d="M20.225 16.5374C20.2536 16.4676 20.2755 16.4104 20.2893 16.2587C20.3019 16.1207 20.3393 15.9646 20.3503 15.8269C20.3606 15.6922 20.4013 15.4281 20.4026 15.3026C20.4047 15.1059 20.4074 15.0434 20.404 14.9196C20.3984 14.7748 20.385 14.2876 20.3091 13.986C20.2363 13.6843 20.2288 13.5226 20.0375 13.248C19.8551 13.4451 19.8131 13.824 19.7855 14.0103C19.7589 14.1972 19.734 14.5098 19.7256 14.826C19.711 15.2641 19.7545 15.7879 19.8061 15.9946C19.8559 16.2042 19.9577 16.6265 20.005 16.7032C20.0832 16.8227 20.0829 16.7979 20.163 16.6689C20.163 16.6689 20.1906 16.6214 20.225 16.5374Z" fill="#2C1E16"/>
<path d="M21.0537 17.1286C21.0366 17.0997 21.0216 17.0087 21.022 16.9541C21.0196 16.8688 21.0028 16.8693 21.0428 16.7246C21.0838 16.5801 21.1564 16.2383 21.2089 16.0837C21.2611 15.9274 21.3933 15.6367 21.5206 15.5171C21.6478 15.3986 21.9117 15.046 22.117 14.8809C22.117 14.8809 22.0242 15.5184 21.9432 15.7636C21.8688 15.9968 21.7929 16.2081 21.6637 16.4986C21.5305 16.7892 21.3015 17.02 21.1482 17.1473C21.0938 17.1667 21.0713 17.158 21.0537 17.1286Z" fill="#2C1E16"/>
<path d="M22.217 17.8797C22.3764 17.8132 22.6067 17.6302 22.807 17.4701C23.007 17.3076 23.066 17.2264 23.1876 17.0755C23.3081 16.9249 23.4065 16.6721 23.4644 16.564C23.5241 16.453 23.6155 16.3434 23.4848 16.4003C23.3507 16.456 23.3463 16.4768 23.1494 16.5658C22.9508 16.651 22.9852 16.6349 22.6151 16.9475C22.2425 17.2594 22.0199 17.6755 21.9474 17.9433C21.9474 17.9433 22.0595 17.9469 22.217 17.8797Z" fill="#2C1E16"/>
<path d="M23.1896 18.6974C23.3452 18.6513 23.6067 18.4635 23.8657 18.2708C24.1231 18.0791 24.2578 17.8833 24.4653 17.6055C24.3837 17.6122 24.2475 17.6292 24.0751 17.6712C23.9028 17.7123 23.8056 17.7576 23.6578 17.8297C23.5111 17.9004 23.4396 17.9694 23.2487 18.0477C23.0867 18.1195 22.9435 18.2255 22.8055 18.3339C22.7443 18.3835 22.6839 18.4246 22.6394 18.4904C22.5988 18.5536 22.5675 18.6414 22.536 18.7099C22.5157 18.7495 22.4982 18.7971 22.4927 18.8406C22.4849 18.9047 22.5485 18.8846 22.5927 18.8765C22.6569 18.8666 22.7192 18.8435 22.7801 18.8257C22.8804 18.7964 23.0385 18.7449 23.1896 18.6974Z" fill="#2C1E16"/>
<path d="M26.4354 19.9672C26.3974 19.9284 26.333 19.8744 26.1697 19.816C26.0029 19.7578 25.7035 19.6881 25.5339 19.6438C25.3627 19.5948 25.1853 19.5747 24.9898 19.5589C24.7925 19.541 24.6829 19.5386 24.416 19.5235C24.2701 19.5138 24.0095 19.5397 23.7817 19.6015C23.5529 19.6627 22.9156 19.9019 22.7651 19.9485C22.6104 19.9962 22.7209 20.0675 22.7599 20.1115C22.7982 20.158 22.969 20.2115 23.0386 20.2255C23.1069 20.2372 23.2123 20.2747 23.3568 20.2994C23.5013 20.3247 23.8823 20.3659 24.334 20.3645C24.7846 20.3579 25.0928 20.3479 25.4651 20.3119C25.8373 20.2759 26.2463 20.148 26.5197 20.0529C26.5197 20.0529 26.4771 20.0035 26.4354 19.9672Z" fill="#2C1E16"/>
<path d="M25.1888 21.8602C25.1034 21.7973 24.84 21.6655 24.6633 21.5877C24.4876 21.511 24.2236 21.3624 23.9801 21.2745C23.7366 21.1845 23.4974 21.1992 23.3564 21.1965C23.218 21.1941 23.0836 21.1788 22.9289 21.2164C22.9289 21.2164 22.9442 21.2927 23.0572 21.3809C23.17 21.4712 23.5476 21.6488 23.7285 21.731C23.9062 21.814 24.1992 21.9095 24.4835 21.9617C24.765 22.0121 25.0634 22.0149 25.3178 22C25.3178 22 25.2729 21.9261 25.1888 21.8602Z" fill="#2C1E16"/>
<path d="M23.7941 23.6486C23.6748 23.4631 23.5525 23.2601 23.295 22.9912C23.0401 22.721 22.7685 22.5176 22.6159 22.4197C22.4645 22.3209 22.3378 22.2719 22.2189 22.1826C22.0983 22.0947 22.1242 22.177 22.2699 22.4231C22.4156 22.6688 22.6454 23.0759 22.7288 23.1827C22.8129 23.2881 22.9763 23.4006 23.1425 23.4992C23.3116 23.5987 23.4995 23.6983 23.5822 23.7685C23.665 23.8373 23.8342 23.92 23.9231 23.955C23.9078 23.8675 23.8828 23.7918 23.7941 23.6486Z" fill="#2C1E16"/>
<path d="M22.1086 24.2904C22.072 23.9909 21.9232 23.702 21.8118 23.5795C21.6984 23.4578 21.7556 23.502 21.6197 23.321C21.4827 23.14 21.3222 22.9234 21.1705 22.777C21.0808 22.6898 21.0667 22.6552 21.0697 22.7501C21.0697 22.7501 21.0721 22.9351 21.0793 22.996C21.0986 23.178 21.1322 23.461 21.3216 23.9439C21.5146 24.4267 21.8261 24.8539 22.1252 25.194C22.1981 24.9713 22.1401 24.5904 22.1086 24.2904Z" fill="#2C1E16"/>
<path d="M17.6404 18.8299C17.5238 18.7596 17.2839 18.5915 17.0195 18.3817C16.7572 18.1715 16.5842 18.1639 16.4019 18.1033C16.2205 18.0443 15.7551 17.9635 15.7111 17.9458C15.6597 17.927 15.6661 17.923 15.567 17.9054C15.5038 17.8981 15.4849 17.8888 15.3694 17.9072C15.3694 17.9072 15.4092 17.9756 15.434 18.0042C15.4616 18.0345 15.5382 18.1443 15.6287 18.2122C15.7761 18.3278 15.9581 18.4193 16.1516 18.5574C16.3479 18.6978 16.6019 18.7765 16.9107 18.8659C17.2197 18.9527 17.5128 18.9687 17.7368 18.9885C17.9222 18.9821 17.7569 18.9013 17.6404 18.8299Z" fill="#2C1E16"/>
<path d="M18.294 18.0448C18.2824 17.983 18.2302 17.833 18.1261 17.6139C18.0194 17.3962 17.8843 17.2173 17.7542 17.0835C17.6242 16.9487 17.575 16.8941 17.5322 16.8467C17.4924 16.8 17.3733 16.7077 17.3135 16.6693C17.2537 16.6305 17.1076 16.5003 16.9506 16.4344C16.7882 16.3664 16.7301 16.3207 16.5047 16.2338C16.2821 16.1483 16.3304 16.2291 16.3712 16.3098C16.4154 16.3917 16.5312 16.6326 16.6525 16.8568C16.7782 17.0783 16.8359 17.1392 16.9559 17.2671C17.0734 17.3997 17.2539 17.5311 17.4032 17.6419C17.5512 17.7515 17.7184 17.8335 17.8358 17.8953C17.9515 17.959 18.1583 18.0892 18.3061 18.1563C18.3061 18.1563 18.2969 18.0628 18.294 18.0448Z" fill="#2C1E16"/>
<path d="M18.8521 17.0011C18.8433 16.8631 18.8133 16.7202 18.7918 16.6008C18.7741 16.4995 18.7407 16.427 18.6994 16.2967C18.6659 16.1869 18.5888 16.0938 18.5443 15.987C18.5001 15.8827 18.3564 15.6211 18.2081 15.4259C18.0622 15.2324 17.9613 15.0774 17.7925 14.9082C17.7925 14.9082 17.7781 14.9439 17.7957 15.0457C17.8155 15.1452 17.8609 15.3807 17.9264 15.6013C17.9933 15.8175 18.0851 16.0825 18.212 16.3577C18.34 16.6311 18.5983 17.0191 18.845 17.2794C18.845 17.2794 18.8623 17.1392 18.8521 17.0011Z" fill="#2C1E16"/>
<path d="M11.0584 29.957C11.0047 29.9567 8.97067 30.1242 8.66376 30.2332C8.79845 30.4305 9.34999 31.0507 9.64397 31.3247C9.93496 31.5985 10.7892 32.4018 11.0878 32.6417C11.1283 32.6652 11.1185 32.6446 11.1537 32.5129C11.185 32.3799 11.1433 29.9546 11.0584 29.957Z" fill="#2C1E16"/>
<path d="M13.8257 28.0679C13.699 27.9672 13.1433 27.3202 13.0486 27.2178C12.9559 27.1172 12.3207 26.3966 12.2894 26.3618C12.2579 26.328 12.2014 26.2134 12.1519 26.1445C12.1519 26.1445 12.2458 28.3079 12.2755 28.3608C12.3043 28.4121 13.6488 28.4315 14.0919 28.3237C14.0919 28.3237 13.9567 28.1659 13.8257 28.0679Z" fill="#2C1E16"/>
<path d="M13.5286 33.8808C13.5286 33.8808 13.9242 34.0961 13.9987 34.186C14.0742 34.2755 14.3773 34.3597 14.4869 34.4639C14.4869 34.4639 14.5323 34.394 14.5861 34.2925C14.6288 34.2132 14.6577 34.1291 14.7143 34.0303C14.7561 33.9546 14.8013 33.9252 14.8534 33.7814C14.9046 33.6411 15.0604 33.31 15.1133 33.1952C15.166 33.0788 16.2752 30.9114 16.3626 30.7363C16.4519 30.5619 16.8067 29.9179 16.9065 29.7734C16.9065 29.7734 16.8626 29.7435 16.8111 29.7079C16.7555 29.672 16.4894 29.5216 16.4103 29.4714C16.3302 29.4215 16.3759 29.4819 16.2626 29.3789C16.2626 29.3789 15.3142 31.0342 15.262 31.1349C15.2129 31.2354 15.0791 31.4701 15.0223 31.5876C14.962 31.7053 14.8665 31.9192 14.8337 31.9745C14.8035 32.0281 13.8094 33.4896 13.7565 33.5695C13.6789 33.6871 13.6373 33.7209 13.5286 33.8808Z" fill="#2C1E16"/>
<path d="M12.5087 33.3902C12.5788 33.3494 12.6478 33.2928 12.7566 33.1663C12.8665 33.0384 15.1719 29.2894 15.235 29.2191C15.2961 29.1496 15.2354 29.0808 15.1653 29.1043C15.095 29.1309 12.2141 29.4654 12.1045 29.5447C12.1313 29.6242 12.1067 29.8115 12.1334 29.9584C12.1544 30.1017 12.3648 32.8981 12.4043 33.0269C12.4696 33.2239 12.4107 33.2191 12.5087 33.3902Z" fill="#2C1E16"/>
<path d="M11.4266 25.2266C11.4266 25.2266 8.08292 29.0791 8.03528 29.202C8.07115 29.1865 7.98819 29.3022 8.11569 29.2433C8.24501 29.181 10.9562 28.5214 11.015 28.4877C11.0535 28.4486 11.4093 25.5636 11.4266 25.2266Z" fill="#2C1E16"/>
<path d="M7.44419 27.7325C7.53864 27.6016 9.14058 26.0441 9.30964 25.84C9.47712 25.6361 10.3534 24.8041 10.9991 24.0045C10.962 23.8774 10.855 23.5692 10.7972 23.385C10.7421 23.2102 10.7066 23.1046 10.6635 22.9258C10.6635 22.9258 10.5943 23.0295 10.565 23.0785C10.5366 23.1231 10.4319 23.2277 10.2284 23.482C10.0238 23.7367 9.01499 24.7452 8.66819 25.1492C8.32137 25.5532 6.90261 26.9296 6.64062 27.2029C6.64062 27.2029 6.66637 27.3102 6.71287 27.4011C6.75884 27.4924 6.9008 27.7101 7.03215 27.9947C7.03215 27.9947 7.08314 28.0921 7.14477 28.0551C7.14477 28.0551 7.34829 27.8622 7.44419 27.7325Z" fill="#2C1E16"/>
<path d="M6.21296 25.6721C6.33766 25.5993 6.88031 25.0199 6.9831 24.9202C6.9831 24.9202 8.55108 23.3683 8.96088 22.9963C9.37416 22.6252 9.88262 22.0037 10.3258 21.5648C10.3258 21.5648 10.301 20.8326 10.3218 20.6647C10.3436 20.4964 10.3259 20.2383 10.3321 20.0417C10.3358 19.8438 10.329 19.8356 10.29 19.7961C10.29 19.7961 10.19 19.7419 10.0664 19.6846C9.94491 19.6269 8.56143 18.8801 8.44927 18.8314C8.34258 18.7837 8.00885 18.6688 7.81224 18.5673C7.61656 18.467 5.54345 17.2926 5.31778 17.2266C5.31711 17.301 5.27258 17.5575 5.25285 17.7362C5.23488 17.912 5.16987 18.1317 5.164 18.3025C5.20653 18.32 5.58394 18.4957 5.77751 18.5969C5.97516 18.6979 7.44934 19.4844 7.79859 19.6408C8.14803 19.8007 9.58442 20.5173 9.83044 20.6664C9.75605 20.6987 9.48118 20.952 9.33872 21.0532C9.19541 21.1578 8.39317 22.0345 8.13211 22.2866C7.87256 22.5383 7.4792 22.897 7.30726 23.0827C7.13661 23.271 5.98147 24.3561 5.88217 24.417C5.78333 24.4785 5.67892 24.579 5.61934 24.6045C5.63188 24.6731 5.66289 24.9238 5.68693 25.0501C5.71644 25.1775 5.7462 25.4027 5.77265 25.4801C5.79665 25.5564 5.82194 25.7249 5.90186 25.872C5.97561 25.8133 6.07904 25.7462 6.21296 25.6721Z" fill="#2C1E16"/>
<path d="M5.47666 20.0865C5.3085 20.0236 5.24739 19.9988 5.00848 19.9336C5.00848 19.9336 5.01745 19.9577 5.00201 20.1281C4.98866 20.2978 5.04547 21.1363 5.06584 21.3814C5.08674 21.6261 5.16268 22.1977 5.26549 22.7748C5.26549 22.7748 5.3961 22.7318 5.54849 22.622C5.69954 22.5155 6.35862 21.9883 6.63985 21.7654C6.92177 21.5405 7.46011 21.0814 7.58888 20.9861C7.70758 20.8955 7.76566 20.8531 7.76566 20.8531C7.71003 20.8404 7.15196 20.7118 7.0487 20.671C6.93768 20.6265 6.83538 20.6142 6.68684 20.5363C6.54168 20.4603 6.24038 20.362 6.11242 20.2972C6.02073 20.2519 5.69486 20.1676 5.47666 20.0865Z" fill="#2C1E16"/>
<path d="M10.5728 18.0851C10.5671 18.042 10.5997 17.9061 10.6103 17.7889C10.6207 17.6743 10.6353 17.5352 10.7097 17.3468C10.7097 17.3468 10.6441 17.3155 10.5614 17.2887C10.4934 17.2668 9.04277 16.6736 8.62499 16.4902C8.2053 16.3057 6.50535 15.5216 6.34561 15.4275C6.18727 15.3346 6.01642 15.279 5.88829 15.2051C5.88829 15.2051 5.78131 15.3956 5.74303 15.4768C5.70745 15.5562 5.62757 15.9063 5.6178 16.0814C5.6178 16.0814 6.09158 16.2226 6.125 16.2398C6.15649 16.2559 10.0394 17.9648 10.5615 18.1763C10.5615 18.1763 10.5763 18.1305 10.5728 18.0851Z" fill="#2C1E16"/>
<path d="M10.9462 15.827C10.8704 15.7689 7.0671 13.7692 6.97914 13.7106C6.89064 13.6524 6.72742 13.6077 6.61786 13.5303C6.61786 13.5303 6.82531 13.4168 6.93708 13.3747C6.99352 13.356 7.11686 13.315 7.29102 13.278C7.4659 13.2386 10.2121 12.6065 10.3102 12.5921C10.356 12.5851 10.3944 12.6986 10.4041 12.7309C10.4122 12.7651 10.8166 13.9853 10.883 14.2479C10.9495 14.5094 11.2806 15.7499 11.2719 15.7957C11.2647 15.8422 11.2925 15.8984 11.2533 15.9456C11.2533 15.9456 11.0233 15.8877 10.9462 15.827Z" fill="#2C1E16"/>
<path d="M8.38537 11.5449C8.51615 11.4999 10.7199 11.0873 10.8399 11.0556C10.8313 10.9874 10.7364 10.4973 10.7149 10.3423C10.6937 10.1903 10.5277 9.05195 10.4838 8.91566C10.4469 8.81396 10.4453 8.7819 10.3984 8.75586C10.3984 8.75586 10.331 8.75582 10.291 8.77297C10.291 8.77297 10.2268 8.82088 10.1056 8.92751C9.98704 9.03387 9.56139 9.44084 9.2924 9.69629C9.02608 9.95043 8.52304 10.6018 8.36514 10.8116C8.20488 11.0196 7.92681 11.4648 7.79132 11.6903C7.79132 11.6903 7.86266 11.6693 7.94194 11.6334C8.03731 11.5879 8.30361 11.5745 8.38537 11.5449Z" fill="#2C1E16"/>
<path d="M13.2456 13.1711C13.734 12.709 14.1495 12.4035 14.4863 12.2099C14.44 12.1617 14.3226 12.1485 14.2556 12.1272C14.1878 12.1089 12.0624 11.898 11.9313 11.8841C11.8034 11.8695 11.7747 11.8902 11.6778 11.891C11.6778 11.891 11.8367 12.6764 11.8485 12.8428C11.8584 13.0079 11.9988 14.188 12.0505 14.4507C12.1283 14.3529 12.7549 13.63 13.2456 13.1711Z" fill="#2C1E16"/>
<path d="M15.4249 11.1634C15.3157 11.0704 11.6294 8.24989 11.5557 8.1682C11.4131 8.01284 11.4015 8.04017 11.4297 8.26627C11.4564 8.46943 11.5591 8.90759 11.6135 9.17406C11.6667 9.4374 11.8314 10.2152 11.8992 10.709C11.8992 10.709 12.165 10.7453 12.3081 10.777C12.4532 10.8094 15.3043 11.3131 15.5428 11.3109C15.597 11.3108 15.5399 11.2585 15.4249 11.1634Z" fill="#2C1E16"/>
<path d="M17.5196 10.527C17.5006 10.5075 17.2206 10.2297 17.0711 10.0895C16.9179 9.95085 16.4293 9.45946 16.1762 9.23125C15.9185 9.00412 15.2027 8.37353 14.835 8.05179C14.6204 7.86303 13.5536 6.83211 13.4891 6.74414C13.4891 6.74414 13.4566 6.74525 13.3547 6.84043C13.2525 6.93307 12.8053 7.2423 12.7566 7.27084C12.7105 7.29808 12.7028 7.31615 12.7717 7.36691C12.8406 7.41832 16.1881 10.3747 16.3282 10.4848C16.4653 10.5934 16.735 10.7887 16.7539 10.8046C16.7902 10.8347 16.7872 10.8056 16.8659 10.7823C16.9439 10.7605 17.3592 10.6577 17.5744 10.6103C17.5744 10.6103 17.5401 10.5471 17.5196 10.527Z" fill="#2C1E16"/>
<path d="M15.7364 6.60929C15.8314 6.72943 17.6545 8.50458 17.8253 8.67164C17.9979 8.83732 19.1871 10.0446 19.2612 10.0994C19.3321 10.155 19.386 10.2268 19.4121 10.2464C19.4121 10.2464 21.0669 10.181 21.2772 10.2259C21.308 10.1425 21.4265 9.94288 21.5027 9.80635C21.5815 9.66953 22.2694 7.6049 22.4395 7.1935C22.6083 6.77892 22.9594 5.93076 23.0315 5.75026C23.1041 5.56979 23.1285 5.45186 23.2019 5.35814C23.2019 5.35814 23.1498 5.31237 23.0811 5.29804C23.0092 5.2804 22.7503 5.25131 22.6517 5.22059C22.561 5.19767 22.4482 5.18951 22.3139 5.16211C22.3139 5.16211 22.098 5.57543 22.0562 5.68421C22.0132 5.79484 21.471 7.04595 21.3904 7.18562C21.3093 7.32628 20.488 9.77775 20.3634 9.96113C20.3634 9.96113 19.7718 9.26274 19.5787 9.06683C19.3838 8.86868 17.5506 7.09363 17.2262 6.76921C16.9005 6.44315 16.5225 6.08905 16.2176 5.69441C16.2176 5.69441 16.1476 5.71796 15.942 5.77689C15.7362 5.83884 15.4211 5.97148 15.282 6.01868C15.1448 6.06657 15.2053 6.1157 15.27 6.18959C15.4157 6.34965 15.6611 6.51692 15.7364 6.60929Z" fill="#2C1E16"/>
<path d="M20.9264 5C20.9264 5 20.7789 5.00538 20.6189 5.00964C20.4578 5.00823 20.2474 5.00943 19.9975 5.02582C19.741 5.04316 19.2272 5.05738 18.7844 5.10089C18.4575 5.13363 18.2486 5.1512 17.8098 5.27868C17.8098 5.27868 18.067 5.57168 18.1652 5.67486C18.2669 5.77683 18.6696 6.27161 19.0186 6.67176C19.3709 7.07372 19.7783 7.52277 19.9598 7.76375C19.9598 7.76375 20.787 5.53181 20.9264 5Z" fill="#2C1E16"/>
<path d="M22.8557 10.6305C23.0039 10.6672 23.2928 10.7634 23.4032 10.7972C23.496 10.8254 23.4799 10.7849 23.5385 10.6574C23.57 10.5903 23.6507 10.4486 23.7771 10.2684C23.9058 10.09 24.7129 8.9187 24.881 8.73069C25.0491 8.54214 25.2151 8.24849 25.3592 8.06233C25.5021 7.8786 26.0338 7.25158 26.1192 7.0875C26.1588 7.01402 26.2447 6.88851 26.4861 6.54034C26.4861 6.54034 26.4232 6.4956 26.3525 6.45372C26.281 6.40922 26.0956 6.25099 25.9145 6.18541C25.7335 6.11881 25.3954 5.929 25.1702 5.94205C25.1702 5.94205 24.9836 6.30633 24.897 6.45057C24.8132 6.59249 24.3419 7.31926 24.2275 7.49645C24.1115 7.674 22.778 9.90518 22.703 10.0342C22.6256 10.161 22.4885 10.3651 22.3961 10.5179C22.3961 10.5179 22.711 10.5941 22.8557 10.6305Z" fill="#2C1E16"/>
<path d="M25.099 11.2741C25.2169 11.2422 27.0801 10.4541 27.2392 10.4051C27.3991 10.3568 27.4714 10.2979 27.596 10.2033C27.6356 10.1247 27.6956 10.0273 27.6942 9.84721C27.6934 9.66567 27.8262 7.70837 27.8351 7.50388C27.8472 7.28091 27.899 7.12895 27.8046 7.23651C27.7138 7.34292 27.1699 8.06457 27.0072 8.27234C26.8368 8.47993 26.1059 9.47569 25.8871 9.78178C25.6688 10.0864 25.1124 10.9693 24.908 11.3061C24.908 11.3061 24.9816 11.3056 25.099 11.2741Z" fill="#2C1E16"/>
<path d="M27.6683 13.6521C27.6661 13.5708 27.7054 12.0293 27.7156 11.8275C27.7273 11.6258 27.7431 11.6642 27.6352 11.6859C27.5912 11.6905 27.5081 11.723 27.4046 11.7638C27.322 11.7969 26.5182 11.9578 26.3617 11.9958C26.2099 12.0322 25.9091 12.0516 25.7141 12.1454C25.7626 12.1574 26.0044 12.3755 26.1757 12.5213C26.3464 12.6676 26.7436 12.995 26.968 13.1978C27.1945 13.3998 27.4863 13.6812 27.6463 13.823C27.695 13.8675 27.6724 13.7306 27.6683 13.6521Z" fill="#2C1E16"/>
<path d="M29.8161 13.3106C30.0404 13.0334 31.0051 11.846 31.1575 11.7417C31.3119 11.6376 31.5214 11.4239 31.633 11.3382C31.7459 11.2501 31.813 11.1928 31.7597 11.2047C31.7074 11.2167 31.6137 11.2437 31.4789 11.2664C31.3418 11.2905 29.9517 11.5787 29.7337 11.6126C29.5186 11.6489 29.2124 11.6779 28.888 11.7783C28.892 11.8572 28.828 12.591 28.8277 12.774C28.8241 12.9592 28.7847 13.5112 28.7848 13.6055C28.7854 13.6993 28.7527 14.0096 28.7477 14.1151C28.7412 14.2209 28.7281 14.4382 28.7379 14.6424C28.7347 14.6781 28.7612 14.6602 28.8373 14.5637C28.897 14.4591 29.5903 13.5877 29.8161 13.3106Z" fill="#2C1E16"/>
<path d="M29.7332 16.9478C29.7802 16.8933 29.8486 16.8098 29.9261 16.7327C30.0055 16.6557 32.3007 14.127 32.4134 14.0236C32.5292 13.9206 32.6062 13.8039 32.6339 13.7608C32.6529 13.7356 32.8051 13.5725 32.892 13.5079C32.9794 13.4449 32.8708 13.5349 33.3718 13.1195C33.3433 13.0865 33.2522 12.9227 33.2155 12.8524C33.1816 12.785 33.0723 12.66 32.9621 12.4832C32.8509 12.3059 32.7925 12.2342 32.6959 12.1367C32.6959 12.1367 32.5904 12.216 32.5076 12.2859C32.4198 12.354 31.8511 13.0415 31.7557 13.1434C31.6628 13.2456 31.544 13.4658 31.4609 13.5665C31.3799 13.6664 30.6875 14.3708 30.5218 14.5221C30.3553 14.6753 29.4451 15.6973 29.3679 15.7669C29.2919 15.8335 29.2845 15.8759 29.1819 15.967C29.2217 16.0207 29.2397 16.2363 29.2677 16.3574C29.293 16.4814 29.3892 16.9853 29.4466 17.1801C29.5243 17.1172 29.6828 17.0006 29.7332 16.9478Z" fill="#2C1E16"/>
<path d="M31.1354 10.1272C31.0439 10.0135 30.9502 9.87216 30.835 9.73905C30.7177 9.6017 29.824 8.60674 29.7179 8.46888C29.6099 8.32983 29.3667 8.13849 29.2841 8.0433C29.2012 7.95163 29.2129 7.98414 29.1723 7.93433C29.1443 7.90239 29.1118 7.85231 29.0855 7.87474C29.0498 7.90497 29.06 7.96014 29.0502 8.03426C29.0311 8.18358 29.0358 8.24331 28.9982 8.41785C28.9676 8.56005 28.86 10.1673 28.8549 10.2961C28.8492 10.4257 28.8283 10.7122 28.8283 10.7122C28.8283 10.7122 30.8993 10.4337 30.9779 10.4159C31.0893 10.3895 31.107 10.3902 31.2918 10.3642C31.2918 10.3642 31.2218 10.242 31.1354 10.1272Z" fill="#2C1E16"/>
<path d="M30.7583 18.7955C30.8427 18.7261 32.8577 17.1691 32.9836 17.0659C33.1113 16.9599 33.4261 16.7466 33.6962 16.5237C33.9657 16.3018 34.215 16.1242 34.6151 15.8751C34.6151 15.8751 34.6082 15.6772 34.549 15.4635C34.4913 15.2505 34.2107 14.5488 34.2107 14.5488C34.2097 14.5487 34.0456 14.6986 33.9608 14.768C33.8774 14.8375 30.8724 17.4641 30.6305 17.6667C30.3888 17.8669 29.9964 18.2317 29.914 18.3013C29.8281 18.3711 29.7824 18.3948 29.7954 18.4969C29.8054 18.5657 29.8061 18.7934 29.824 18.943C29.8404 19.0915 29.8816 19.3755 29.8555 19.5288C29.8324 19.6834 29.8261 20.0274 29.7928 20.2211C29.919 20.2544 31.3908 20.8217 31.6481 20.9185C31.9043 21.0162 32.4194 21.2114 32.7054 21.3164C32.9936 21.4191 33.6329 21.6576 33.8589 21.7536C34.0863 21.8456 34.5668 22.052 34.8322 22.144C34.864 22.0389 34.8764 21.83 34.8784 21.5844C34.8781 21.3407 34.8624 21.1897 34.8483 20.9992C34.8483 20.9992 34.7346 20.9333 34.6028 20.8776C34.4728 20.8247 33.7305 20.536 33.4203 20.4354C33.1094 20.3372 30.578 19.4093 30.4707 19.3519C30.365 19.2932 30.4033 19.2566 30.4628 19.1702C30.5139 19.0937 30.6398 18.8892 30.7583 18.7955Z" fill="#2C1E16"/>
<path d="M34.9935 19.3026C35.0008 19.1719 35.0003 18.9701 34.9996 18.7937C34.9991 18.452 34.945 17.8581 34.93 17.5814C34.9259 17.5263 34.9214 17.3348 34.9252 17.1927C34.9281 17.048 34.8413 17.1618 34.7519 17.2368C34.6594 17.3121 32.8145 18.7432 32.7594 18.8026C32.7005 18.8606 32.5447 18.9291 32.5768 18.9497C32.6103 18.972 32.6687 18.9707 32.7701 19.0042C32.8957 19.0445 34.1405 19.4696 34.3265 19.5427C34.5122 19.6133 34.8231 19.6957 34.9729 19.7762C34.9815 19.6646 34.9883 19.4324 34.9935 19.3026Z" fill="#2C1E16"/>
<path d="M34.331 24.0291C34.2475 23.9891 34.0732 23.9211 33.9225 23.8218C33.7718 23.723 33.5495 23.5974 33.3793 23.4679C33.2059 23.3397 32.5611 23.0333 32.2999 22.8895C32.036 22.7475 30.5871 21.9836 30.3986 21.8834C30.2142 21.7861 29.8746 21.624 29.6095 21.4844C29.6095 21.4844 29.6136 21.6794 29.609 21.7981C29.6046 21.9194 29.61 22.3015 29.6125 22.4077C29.6141 22.5138 29.6155 22.5762 29.6757 22.6228C29.7347 22.6702 32.1941 24.0737 32.3762 24.1673C32.5574 24.2597 33.9147 25.0442 33.9889 25.0809C34.0955 24.9947 34.1276 24.8816 34.203 24.7652C34.2548 24.6858 34.3342 24.553 34.3836 24.445C34.4303 24.3377 34.499 24.2228 34.5444 24.1407C34.5444 24.1407 34.4237 24.0745 34.331 24.0291Z" fill="#2C1E16"/>
<path d="M32.673 26.4976C32.5446 26.3754 30.6414 25.0386 30.2956 24.7654C29.9502 24.4933 29.2404 23.987 29.1962 23.9435C29.1369 23.8874 29.0983 23.8596 29.0891 23.9444C29.079 24.0337 29.0624 24.1447 29.0888 24.3342C29.1138 24.522 29.1661 25.0863 29.1957 25.2913C29.2238 25.4956 29.2606 25.9734 29.2742 26.2321C29.2891 26.492 29.3334 26.8645 29.3443 27.1636C29.3443 27.1636 29.5823 27.1441 29.7553 27.1374C29.9279 27.1283 32.7842 26.8417 33.0012 26.7463C33.0012 26.7463 32.8043 26.62 32.673 26.4976Z" fill="#2C1E16"/>
<path d="M28.1131 26.0891C28.1043 25.9571 28.0942 25.8056 28.088 25.6895C27.9553 25.8062 27.8989 25.8857 27.7959 26.0153C27.6939 26.1454 27.3483 26.6088 27.1655 26.8026C26.9834 26.9945 26.672 27.2927 26.5473 27.3823C26.4241 27.4715 25.9564 27.8062 25.8895 27.8508C25.8235 27.8961 25.8488 27.9303 25.924 27.9452C26.0013 27.9588 27.6535 27.8216 28.1663 27.7566C28.2113 27.5893 28.1245 26.2204 28.1131 26.0891Z" fill="#2C1E16"/>
<path d="M31.0268 30.4642C31.2332 30.2279 31.9721 29.3459 32.0002 29.2983C32.0289 29.2497 32.5648 28.4315 32.5721 28.3789C32.5829 28.3277 32.6104 28.3261 32.599 28.2617C32.4292 28.3117 29.4872 28.626 29.0815 28.6561C29.0949 28.7552 29.1609 31.7849 29.203 31.9078L29.2178 31.9568L29.2726 31.9394C29.3648 31.8337 30.8212 30.7025 31.0268 30.4642Z" fill="#2C1E16"/>
<path d="M27.6982 29.0812C27.6982 29.0812 27.3246 29.1097 27.155 29.0852C26.9878 29.0624 24.6395 29.0676 24.3958 29.0886C24.3958 29.0886 24.5116 29.203 24.6318 29.3589C24.7524 29.5168 27.809 32.4449 27.888 32.5519C27.9623 32.6611 28.1031 32.6571 28.1583 32.6464C28.2165 32.5401 28.1047 32.2081 28.0888 32.0931C28.049 31.8497 27.7867 29.2687 27.6982 29.0812Z" fill="#2C1E16"/>
<path d="M26.4814 33.7253C26.6577 33.6703 26.731 33.6105 26.7847 33.5611C26.7373 33.4965 26.6465 33.3915 26.418 33.1325C26.19 32.8746 24.0153 30.5222 23.7081 30.2039C23.4012 29.8825 23.3024 29.7753 23.0583 29.5215C23.0583 29.5215 22.9356 29.5717 22.7912 29.6052C22.6435 29.6405 22.4694 29.683 22.3827 29.7107C22.2942 29.7371 22.2532 29.7309 22.3258 29.7795C22.3949 29.8278 24.3225 32.0373 24.5855 32.3237C24.8511 32.6093 25.5255 33.3831 25.6205 33.5043C25.714 33.6243 25.7676 33.7381 25.9183 33.988C26.1324 33.9238 26.3061 33.7803 26.4814 33.7253Z" fill="#2C1E16"/>
<path d="M22.385 32.5567C22.0384 32.1922 21.724 31.8358 21.2677 31.2946C20.8104 30.7478 20.4605 30.4363 19.9662 30.0229C19.7339 30.0196 18.7691 29.9991 18.3932 29.9473C18.3344 30.0367 18.2949 30.1199 18.2573 30.2051C18.2186 30.2853 17.0085 32.7101 16.9178 32.8935C16.8246 33.0782 16.4897 33.6972 16.4212 33.8435C16.3561 33.9907 16.38 33.8733 16.2376 34.0849C16.0927 34.2969 15.9542 34.5671 15.8673 34.8376C15.9414 34.8925 16.1234 34.9591 16.263 35.0184C16.4055 35.0795 16.7502 35.1356 16.8967 35.2015C16.9128 35.1245 18.8297 31.2774 18.9665 30.9922C19.1017 30.7039 19.1998 30.6662 19.3398 30.4477C19.3398 30.4477 20.9435 32.1199 21.1106 32.3408C21.2764 32.5632 22.0188 33.5221 22.2796 33.8651C22.5392 34.2064 22.889 34.5853 23.1248 34.9813C23.1248 34.9813 23.6909 34.8709 23.8121 34.8195C23.936 34.7674 24.2215 34.7036 24.3204 34.6415C24.2052 34.5536 22.7315 32.9176 22.385 32.5567Z" fill="#2C1E16"/>
<path d="M19.2867 35.5548C19.2867 35.5548 19.3374 35.5483 19.6359 35.5546C19.8905 35.5588 19.9038 35.5408 20.1382 35.5438C20.3716 35.5462 20.6804 35.5062 21.0262 35.4261C21.37 35.3462 21.4117 35.3454 21.6767 35.2904C21.9251 35.2394 21.9493 35.2127 21.8749 35.1056C21.7989 34.9983 21.6283 34.7669 21.4706 34.5554C21.3117 34.3454 21.187 34.1947 20.9482 33.9439C20.7058 33.6933 20.2201 33.2352 20.0434 33.0377C19.8717 32.8402 19.6961 32.6417 19.5437 32.4551C19.4881 32.5036 19.3867 32.7394 19.3013 32.8817C19.2168 33.0251 19.0767 33.3688 19.0042 33.5198C18.934 33.6686 18.5927 34.436 18.4565 34.6974C18.3195 34.9562 18.2856 35.1235 18.1504 35.3575L18.1385 35.393L18.1939 35.4081C18.2715 35.4131 18.3542 35.4794 18.5356 35.4863C18.6762 35.4898 19.0401 35.568 19.2867 35.5548Z" fill="#2C1E16"/>
</svg>
