<svg width="40" height="40" viewBox="0 0 40 40" fill="none" xmlns="http://www.w3.org/2000/svg">
<path d="M24.1852 13.7539C24.1852 13.7539 12.2293 17.2307 6.36576 21.8049C0.501352 26.3791 1.36174 29.1765 4.19509 30.718C6.94214 32.2109 15.7052 32.1128 15.7052 32.1128C15.7052 32.1128 3.53828 32.1949 3.22495 27.9826C2.71726 21.1581 25.3044 14.6076 25.3044 14.6076L24.1852 13.7539Z" fill="#FE0B0A"/>
<path fill-rule="evenodd" clip-rule="evenodd" d="M27.8194 13.5916L28.1001 14.5844L27.491 14.6807L24.4616 12.123L24.9953 11.8482L26.8728 12.4899L27.1584 11.3397L27.6376 11.0515L27.9954 12.1875C27.9954 12.1875 28.7209 11.844 29.1858 11.6111C29.6508 11.3782 30.1024 11.1989 30.1024 11.1989L24.0444 7.43899L24.6191 7L31.0323 9.33571L32.8678 9.90875C32.8678 9.90875 35.5646 8.65963 36.2759 8.37143C36.9888 8.08324 37.6867 8.3153 37.9607 8.38316C38.2346 8.45186 38.8931 8.84813 38.0026 9.38346C36.7023 10.1659 34.4982 11.2718 34.4982 11.2718L34.7244 16.316L34.148 16.4543L31.7603 12.4849L27.8194 13.5916Z" fill="#084887"/>
</svg>
