<svg width="40" height="40" viewBox="0 0 40 40" fill="none" xmlns="http://www.w3.org/2000/svg">
<path d="M2 32.6362C2 32.6362 5.84473 32.1564 11.1217 27.0325L28.3986 8H38L30.0012 32.4763L2 32.6362Z" fill="#DE0038"/>
<path d="M14.066 26.1869C14.066 26.1869 14.1981 26.0304 14.3093 26.0304C14.431 26.0304 14.5388 26.1869 14.5388 26.1869H14.066ZM31.8053 16.6028C31.92 16.5958 28.256 16.422 27.0811 16.6515C25.9026 16.8774 24.7937 17.0304 23.7091 18.5947C22.6245 20.1485 21.6442 21.7199 20.9977 22.6202C18.9606 25.4464 18.9606 25.8982 16.6975 26.0999C15.4843 26.2076 15.161 26.1451 14.8551 26.0026C14.4797 25.8218 14.3024 25.6167 13.781 26.0304C13.183 26.5101 12.3592 26.3919 12.38 26.4649H29.657C29.657 26.4649 30.4948 26.4927 30.7902 25.9643L30.3592 25.8044C30.3592 25.8044 30.2653 26.3536 28.548 26.1903C26.8343 26.0303 24.5921 25.6062 24.5921 25.6062L29.9108 18.0975C30.241 17.6873 30.6929 17.2598 31.124 16.8774C31.124 16.8774 28.9756 17.1033 28.0718 18.4139C27.1541 19.7453 23.0799 25.3317 23.0799 25.3317L22.8018 25.2865L28.0058 18.0525C28.0058 18.0525 28.7705 16.8287 31.8053 16.6028Z" fill="white"/>
</svg>
