<svg width="40" height="40" viewBox="0 0 40 40" fill="none" xmlns="http://www.w3.org/2000/svg">
<path d="M24.2141 7.55617C26.0443 8.16739 27.9806 8.636 29.955 8.86032L31.3323 8.87378L31.3748 8.83553C32.1981 8.85803 32.8068 8.49647 33.6075 8.31997C33.6937 8.29972 33.9005 8.24776 33.9883 8.36522C34.0284 8.51823 33.9658 8.68427 33.7926 8.79817C32.8118 9.54848 31.6425 10.1066 30.54 10.5084V10.4858C30.1783 10.5554 29.7914 10.7111 29.4158 10.8345C28.0578 11.2457 26.5118 11.5039 25.0512 11.3987C22.2534 11.2551 19.8756 10.2555 17.4054 10.3737C14.9798 10.2319 12.6729 11.1588 11.3818 12.9881C10.7193 13.9453 10.1924 14.9548 10.0281 16.0649C10.1012 17.07 11.5122 17.456 12.0408 18.2872C12.3442 18.7897 12.4947 19.3436 12.7233 19.8652C13.3093 20.9164 13.8901 21.9666 14.61 22.956L14.592 22.9762C15.0137 23.6379 15.6858 24.2108 16.4804 24.5995C17.5107 25.3359 18.4202 26.2592 18.961 27.2512L18.9328 27.267C19.5414 28.2373 19.8831 29.2432 20.3543 30.2551C20.5656 30.8759 20.7986 31.422 20.9795 32.0262C21.0414 32.0827 21.0413 32.1738 21.0775 32.2532C21.2443 32.7314 21.3862 33.2408 21.5897 33.6843C21.5019 33.7511 21.6583 33.7765 21.6392 33.8415C21.6504 34.1101 21.9123 34.5128 21.5627 34.6927C21.054 34.2432 20.7871 33.5842 20.5123 33.1051C19.9116 32.0574 19.2239 31.0446 18.4831 30.0482L18.5057 30.0279C18.0509 29.4567 17.5484 28.8133 17.0285 28.2221C14.8366 25.7955 11.6153 24.3383 9.26078 22.0281L9.23833 22.0484C9.03762 21.8684 8.90876 21.6302 8.74618 21.425L8.76198 21.4025C8.47507 21.0008 8.30462 20.5426 8.0273 20.1314L8.04302 20.1111C7.31443 19.0261 6.61364 17.8741 6.14242 16.7326C6.04432 16.2274 5.87132 15.7928 5.83294 15.2111L5.778 15.0207C5.80838 14.4913 4.49474 14.1844 5.21726 13.1688C5.67111 12.6794 7.42737 12.0759 8.02476 11.1569C8.03826 11.0197 8.06998 10.8561 7.95162 10.7318C7.95162 10.6337 7.84968 10.5302 7.77858 10.4284C7.44642 10.0154 6.54567 10.3415 6.56048 9.73199C6.65273 9.72749 6.56496 9.6467 6.62571 9.61182C6.57531 9.311 6.55441 9.11184 6.63924 8.85798C6.82105 8.35805 6.99833 7.78252 6.96267 7.27827C6.99934 7.08881 7.18884 6.97566 7.38003 6.90176C7.75389 6.80793 8.08078 6.75757 8.44768 6.70874L8.49383 6.74609C9.34154 6.67656 10.3596 6.73708 10.9221 7.40339C11.1654 7.90854 10.9752 8.50758 10.8386 9.01619C10.7961 9.30918 10.4752 9.54823 10.55 9.8569C10.6614 9.97076 10.8952 9.9638 11.0439 9.90057C12.3237 9.12505 13.4409 8.04868 14.3729 6.96192C15.2319 6.1577 16.4969 5.8795 17.6603 6.04643C20.0173 6.22824 22.0094 7.01844 24.2064 7.55487L24.2141 7.55617Z" fill="#F4CA35"/>
<path d="M18.1389 11.8104C18.471 12.2521 18.0266 12.6416 17.8945 13.0302C16.5112 15.1073 16.0286 17.4601 15.1106 19.685C15.042 19.7615 14.9057 19.7849 14.8072 19.7545C14.5628 19.5799 14.5627 19.2919 14.5907 19.0398C14.775 16.6279 15.4123 14.365 16.4391 12.2087C16.6791 11.8635 17.0886 11.4722 17.6164 11.5539C17.8155 11.5955 17.9937 11.6653 18.1389 11.8104Z" fill="#F4CA35"/>
<path d="M21.784 12.4388C21.9607 13.2317 21.3919 13.882 21.1398 14.5915C19.7939 17.2782 18.1784 19.9072 17.3803 22.779C17.3429 22.8704 17.2896 22.9939 17.1829 23.0339C17.0691 23.0651 16.9735 23.0084 16.9439 22.9278C16.6744 21.7863 16.9846 20.5985 17.2777 19.5135C18.0445 17.1025 18.9722 14.636 20.2695 12.3937C20.42 12.279 20.4434 12.1817 20.6312 12.1285C21.0824 12.0814 21.5345 12.1149 21.784 12.4388Z" fill="#F4CA35"/>
<path d="M25.6767 12.5705C26.0392 12.8436 25.8522 13.3599 25.7098 13.6799C24.1326 17.1725 21.5781 20.1841 20.521 23.8471C20.2289 24.6235 20.0393 25.4259 19.7968 26.2083C19.754 26.3492 19.5481 26.3535 19.4012 26.3188C19.261 25.9867 19.3021 25.565 19.3021 25.206C19.6351 22.2628 20.3385 19.4034 21.7766 16.8412C22.4304 15.5613 23.0625 14.4101 23.7485 13.1608C23.9422 12.8078 24.2667 12.4878 24.7379 12.3722C25.0848 12.352 25.4185 12.433 25.6767 12.5705Z" fill="#F4CA35"/>
<path d="M29.9969 12.7524C30.2498 13.1758 30.0059 13.6418 29.8909 14.047C28.8876 16.8536 27.0114 19.1765 25.5045 21.7336C24.2143 23.8342 23.3701 26.1668 22.511 28.4475C22.2136 29.1326 22.1067 29.8933 21.7459 30.5445C21.7164 30.6147 21.6241 30.5727 21.5609 30.5907C21.3393 30.4037 21.3679 30.1369 21.3157 29.9004C21.486 27.0452 22.5868 24.4654 23.6205 21.8886C24.9142 19.0152 26.6486 16.2711 27.8277 13.3003C27.9919 12.9256 28.3163 12.4666 28.8171 12.3257C29.3188 12.2501 29.6987 12.4308 29.9969 12.7524Z" fill="#F4CA35"/>
</svg>
