<svg width="40" height="40" viewBox="0 0 40 40" fill="none" xmlns="http://www.w3.org/2000/svg">
<path fill-rule="evenodd" clip-rule="evenodd" d="M37.7926 28.5551L29.7032 27.3072L37.1046 23.5632C37.1547 23.5362 37.1938 23.4925 37.2151 23.4397C37.2364 23.3869 37.2385 23.3283 37.2212 23.2741C37.2038 23.2198 37.168 23.1734 37.12 23.1428C37.0719 23.1122 37.0147 23.0994 36.9582 23.1065L28.7393 24.3865L34.6419 18.5451C34.6831 18.5043 34.7083 18.45 34.713 18.3921C34.7176 18.3342 34.7014 18.2766 34.6673 18.2297C34.6331 18.1827 34.5833 18.1496 34.5268 18.1362C34.4703 18.1228 34.4109 18.13 34.3593 18.1566L26.9916 21.9342L30.704 14.5985C30.7288 14.5469 30.7346 14.4883 30.7205 14.4328C30.7064 14.3774 30.6733 14.3286 30.6269 14.2952C30.5804 14.2617 30.5237 14.2456 30.4667 14.2497C30.4096 14.2538 30.3558 14.2778 30.3146 14.3176L24.4843 20.2128L25.8553 12.0092C25.8645 11.9518 25.8531 11.893 25.823 11.8433C25.793 11.7936 25.7463 11.7561 25.6913 11.7375C25.636 11.7197 25.5762 11.7219 25.5224 11.7437C25.4685 11.7656 25.4241 11.8056 25.3969 11.8569L21.5843 19.3054L20.3286 11.206C20.3196 11.1488 20.2906 11.0967 20.2466 11.0589C20.2027 11.0212 20.1468 11.0003 20.0889 11C20.0308 11.0001 19.9747 11.0209 19.9306 11.0587C19.8865 11.0964 19.8574 11.1487 19.8484 11.206L18.5767 19.3012L14.8003 11.825C14.7744 11.7729 14.7307 11.732 14.6771 11.7096C14.6235 11.6872 14.5636 11.6848 14.5084 11.703C14.4533 11.7211 14.4065 11.7582 14.3763 11.8077C14.3461 11.8571 14.3345 11.9158 14.3435 11.973L15.7061 20.2843L9.80177 14.2436C9.76088 14.2026 9.70673 14.1774 9.649 14.1727C9.59128 14.1679 9.53375 14.1839 9.4867 14.2177C9.43966 14.2515 9.40617 14.3009 9.39224 14.3571C9.37831 14.4133 9.38484 14.4726 9.41067 14.5245L13.2544 22.0225L5.72847 18.1322C5.67673 18.105 5.6169 18.0975 5.56002 18.1109C5.50313 18.1243 5.45303 18.1579 5.41895 18.2054C5.38536 18.2527 5.36955 18.3104 5.37432 18.3682C5.37909 18.4261 5.40413 18.4804 5.44502 18.5216L11.4898 24.4218L3.12704 23.0636C3.06986 23.0542 3.01121 23.0657 2.96179 23.096C2.91238 23.1262 2.8755 23.1733 2.85789 23.2285C2.83981 23.2836 2.84209 23.3433 2.86431 23.3968C2.88653 23.4504 2.92723 23.4942 2.97901 23.5203L10.4948 27.2912L2.20607 28.5551C2.1454 28.5639 2.09037 28.5955 2.05223 28.6435C2.01409 28.6915 1.99571 28.7522 2.00085 28.8133C2.00926 28.9412 2.11691 29.0379 2.24223 29.0379H37.7556C37.817 29.0384 37.8763 29.0156 37.9216 28.9741C37.9668 28.9326 37.9946 28.8754 37.9993 28.8142C38.004 28.753 37.9853 28.6923 37.9469 28.6443C37.9085 28.5964 37.8534 28.564 37.7926 28.5551Z" fill="#FF9800"/>
<path fill-rule="evenodd" clip-rule="evenodd" d="M27.8654 29.0568C27.8704 28.9609 27.8233 28.9012 27.7586 28.8911L24.2967 28.3571L27.4642 26.7559C27.4909 26.7421 27.5119 26.7194 27.5237 26.6918C27.5356 26.6642 27.5374 26.6334 27.529 26.6045C27.5196 26.5755 27.5002 26.5508 27.4744 26.5346C27.4486 26.5185 27.4178 26.512 27.3877 26.5162L23.8695 27.0654L26.3969 24.5627C26.4181 24.5413 26.431 24.513 26.4333 24.483C26.4356 24.453 26.4272 24.4231 26.4095 24.3987C26.3921 24.3739 26.3663 24.3563 26.3369 24.3492C26.3075 24.3421 26.2765 24.3459 26.2497 24.36L23.0932 25.9772L24.6828 22.8378C24.6965 22.8108 24.7 22.7798 24.6926 22.7504C24.6851 22.721 24.6673 22.6953 24.6424 22.6781C24.6181 22.6604 24.5883 22.652 24.5583 22.6545C24.5284 22.6569 24.5003 22.6701 24.4792 22.6915L21.9846 25.2144L22.5725 21.7025C22.5769 21.6728 22.5707 21.6425 22.555 21.6168C22.5394 21.5912 22.5152 21.5718 22.4868 21.5621C22.458 21.5521 22.4267 21.553 22.3985 21.5644C22.3703 21.5759 22.3473 21.5972 22.3337 21.6243L20.702 24.8141L20.1629 21.346C20.1593 21.3152 20.1446 21.2869 20.1215 21.2663C20.0984 21.2457 20.0685 21.2344 20.0376 21.2344C20.0066 21.2344 19.9767 21.2457 19.9536 21.2663C19.9305 21.2869 19.9158 21.3152 19.9122 21.346L19.3689 24.8116L17.7524 21.61C17.7382 21.5831 17.7151 21.562 17.687 21.5503C17.6588 21.5386 17.6275 21.5371 17.5984 21.5461C17.5698 21.5558 17.5454 21.5753 17.5296 21.6011C17.5138 21.6269 17.5075 21.6574 17.5118 21.6874L18.0955 25.2447L15.5698 22.657C15.5484 22.6355 15.52 22.6223 15.4897 22.62C15.4594 22.6177 15.4293 22.6263 15.4049 22.6444C15.3801 22.6615 15.3624 22.6871 15.3551 22.7164C15.3478 22.7457 15.3515 22.7766 15.3654 22.8034L17.0105 26.0159L13.7892 24.3491C13.7619 24.3349 13.7304 24.3311 13.7005 24.3382C13.6706 24.3453 13.6442 24.3629 13.6261 24.3877C13.6087 24.4125 13.6006 24.4426 13.6032 24.4728C13.6058 24.5029 13.619 24.5312 13.6404 24.5526L16.2283 27.0788L12.6479 26.4986C12.6181 26.4934 12.5874 26.4992 12.5615 26.5148C12.5355 26.5304 12.5161 26.5548 12.5066 26.5835C12.4977 26.6125 12.4992 26.6436 12.5109 26.6716C12.5225 26.6996 12.5437 26.7226 12.5705 26.7366L15.7868 28.3495L12.24 28.8911C12.1744 28.9012 12.1256 28.9601 12.1323 29.0568H27.8654Z" fill="#FBCE20"/>
</svg>
