<svg width="40" height="40" viewBox="0 0 40 40" fill="none" xmlns="http://www.w3.org/2000/svg">
<g clip-path="url(#clip0_21_873)">
<path d="M23.1917 10.3583C23.8345 9.36596 24.839 8.66341 25.9916 8.4L26.05 8.38333H26.1L34.2917 8.03333L35 8L34.8583 8.70833C33.8333 13.9333 32.8055 19.1556 31.775 24.375C31.2417 26.9917 30.825 29.65 30.2917 32.2667V32.2917C30.2167 32.5917 30.1 33 30.2 33.3L30.4417 33.425H3.69165L5.12498 33.025C6.42065 32.0947 7.54558 30.9472 8.44998 29.6333L8.46665 29.6083L23.1917 10.3583Z" fill="white"/>
<path d="M34.625 8.4502C34.625 8.4502 28.3417 8.79186 26.45 8.8752C24.875 9.0752 23.975 10.2752 23.975 10.2752L8.53336 30.1669C6.10836 32.8502 5.15002 33.1752 5.15002 33.1752H29.775L34.625 8.4502Z" fill="#0F3280"/>
<path d="M22.4417 16.7999L19.4667 17.1082C19.5185 17.3179 19.5354 17.5347 19.5167 17.7499C19.2902 17.5419 19.0196 17.388 18.725 17.2999L14.9833 22.1166L15.5083 26.0749L15.7083 27.0332C15.7083 27.0332 16.0583 28.7082 17.6 28.8999C19.9417 28.9582 20.425 27.7582 20.425 27.7582C20.425 27.7582 20.4667 28.2582 20.4667 28.5666C20.4667 28.7082 20.2917 29.4916 19.175 29.6832C18.0583 29.8749 16.45 29.3499 16.45 29.3499L15.6083 31.1832C15.6083 31.1832 18.3583 32.2999 21.6667 31.2416C24.0167 30.5666 23.6083 28.1916 23.6083 28.1916L22.4417 16.7999ZM19.6417 26.5166C18.7583 26.6499 18.75 25.7249 18.75 25.7249L18.175 20.1916C18.175 20.1916 18.1333 19.5249 18.6667 19.4082C19.2 19.2916 19.475 19.4832 19.5917 19.9499C19.7083 20.4666 20.1917 25.5916 20.1917 25.5916C20.1917 25.5916 20.3583 26.4499 19.6417 26.5166ZM29.6917 27.6499C29.6917 27.5749 29.675 27.5249 29.65 27.5082C29.6342 27.4947 29.6152 27.4853 29.5948 27.4809C29.5745 27.4765 29.5533 27.4773 29.5333 27.4832L29.575 27.9916C29.6137 27.9858 29.6507 27.9716 29.6833 27.9499C29.7068 27.8918 29.7126 27.828 29.7 27.7666L29.6917 27.6499ZM31.45 18.4499C31.45 18.4499 31.25 17.3582 30.3333 16.6582C29.85 16.1832 27.8417 15.7666 25.5333 16.5499C23.225 17.3332 23.7 20.2082 23.7 20.2082C23.7 20.2082 24.125 25.1582 24.3333 26.4416C24.6667 27.8082 25.05 29.5416 27.5667 29.5416C29.4667 29.5416 30.1833 29.2499 30.4083 29.1082L31.9167 21.4332L31.45 18.4499ZM27.775 29.2832L27.7333 28.9416L27.55 28.9582V29.3082L27.1333 29.3416L27.2333 27.3999L27.7417 27.3582L28.2083 29.2416L27.775 29.2832ZM28.4667 29.2416L28.3 27.3249L28.7167 27.2832L28.8833 29.1999L28.4667 29.2416ZM28.5083 27.1082C27.625 27.2416 27.625 26.3166 27.625 26.3166L26.9083 19.3249C26.9083 19.3249 26.875 18.6582 27.4 18.5499C27.925 18.4416 28.2167 18.6166 28.3333 19.0999C28.45 19.6249 29.075 26.1832 29.075 26.1832C29.075 26.1832 29.225 27.0332 28.5083 27.1082ZM29.8583 29.0916L29.7917 28.5416C29.7979 28.4785 29.7863 28.415 29.7583 28.3582C29.7333 28.3332 29.7 28.3249 29.6333 28.3332L29.7167 29.1082L29.2583 29.1499L29.0667 27.2332L29.3917 27.2082C29.5381 27.1892 29.6863 27.1864 29.8333 27.1999C29.9155 27.2097 29.9904 27.2516 30.0417 27.3166C30.0917 27.3916 30.1 27.5082 30.1167 27.6749C30.1314 27.775 30.1257 27.877 30.1 27.9749C30.0853 28.0052 30.063 28.0311 30.0352 28.0501C30.0075 28.0691 29.9752 28.0805 29.9417 28.0832C30.0132 28.0885 30.0807 28.1179 30.1333 28.1666C30.1643 28.1965 30.1873 28.2337 30.2 28.2749C30.2278 28.3639 30.2419 28.4566 30.2417 28.5499L30.2917 29.0582L29.8583 29.0916ZM27.55 28.5999L27.675 28.5916C27.675 28.5916 27.625 28.2916 27.5833 28.0749C27.5667 28.3249 27.55 28.5999 27.55 28.5999Z" fill="white"/>
</g>
<defs>
<clipPath id="clip0_21_873">
<rect width="30" height="25" fill="white" transform="translate(5 8)"/>
</clipPath>
</defs>
</svg>
