<svg width="40" height="40" viewBox="0 0 40 40" fill="none" xmlns="http://www.w3.org/2000/svg">
<g clip-path="url(#clip0_11_1364)">
<path d="M16.5653 21.6439C14.0673 20.3417 12.0204 20.2361 11.049 20.2361H7.68366L7.51019 19.9193H11.4653C11.7428 19.9193 15.0041 19.8841 16.9469 20.4121C19.3755 21.0808 21.0408 22.3479 21.3531 22.5591C21.6653 22.7702 26.0714 25.9731 26.0714 25.9731C26.0714 25.9731 25.3428 26.7475 24.6143 26.7475C23.9204 26.7475 23.1918 26.2195 23.1918 26.2195C23.1918 26.2195 20.8326 24.4949 20.4857 24.2485C20.1041 23.9669 18.2306 22.5239 16.5653 21.6439Z" fill="#009CA9"/>
<path d="M16.3918 24.178C18.0571 25.3043 19.0285 26.1139 19.3408 26.3602C19.653 26.6066 21.1448 27.6625 21.1448 27.6625C21.1448 27.6625 21.804 28.1905 22.6714 28.1905C23.2959 28.1905 24.0938 27.4513 24.0938 27.4513C24.0938 27.4513 20.5203 24.9172 20.2081 24.6708C19.8959 24.4244 18.751 23.5445 16.6346 22.9814C14.8652 22.5238 12.3673 22.5238 12.1938 22.5238H8.96729L9.14075 22.8406C9.14075 22.8406 11.5693 22.8406 11.7428 22.8406C12.1591 22.8758 14.6224 22.9814 16.3918 24.178Z" fill="#009CA9"/>
<path d="M16.9122 19.0041C19.0632 20.1656 21.1796 21.7846 21.5612 22.0662C21.9775 22.3478 25.1694 24.7059 25.1694 24.7059C25.1694 24.7059 25.9326 25.2339 26.6265 25.2339C27.2857 25.2339 28.049 24.4947 28.049 24.4947C28.049 24.4947 22.949 20.7287 22.4632 20.3767C22.0122 20.06 20.1387 18.5113 17.1551 17.7722C14.8653 17.209 10.9796 17.2794 10.702 17.2794H5.98364L6.15711 17.5962H10.2857C11.153 17.5962 14.4143 17.6314 16.9122 19.0041Z" fill="#009CA9"/>
<path d="M35.5775 18.969C34.9531 18.8634 34.1204 18.793 34.1204 18.793L32.9755 19.1098L32.3163 18.5467C32.3163 18.5467 33.6694 18.6523 34.051 18.7226C34.3633 18.7226 34.2592 18.5467 34.1204 18.2299C33.9469 17.9131 33.5653 17.9131 33.5653 17.9131H30.1306C30.1306 17.9131 29.5061 17.9131 28.8122 17.7371C28.1184 17.5612 27.8408 17.0332 27.8408 17.0332C27.5633 17.6667 28.6388 18.4059 28.6388 18.4059L32.0388 20.8696C32.4898 21.1512 32.8714 20.94 32.8714 20.94C32.8714 20.94 33.7388 20.5177 34.2245 20.3769C34.6755 20.2713 36.0286 20.2009 36.1673 20.2713C36.549 20.3417 36.9653 20.7289 36.9653 20.7289C37.2082 19.1802 36.2367 19.0746 35.5775 18.969Z" fill="#003473"/>
<path d="M17.6061 13.8301C19.9653 14.886 23.3306 17.4554 23.8163 17.8073C24.302 18.1593 29.1592 21.7142 29.1592 21.7142C29.1592 21.7142 29.9225 22.2773 30.6163 22.2773C31.3102 22.2773 32.0388 21.5382 32.0388 21.5382C32.0388 21.5382 25.1694 16.5403 24.6837 16.1883C24.198 15.8363 21.9082 13.8653 17.6755 12.739C14.7612 11.9647 9.8 11.9999 9.2102 11.9999H3L3.20816 12.3518H8.89796C10.3204 12.3518 14.4837 12.4574 17.6061 13.8301Z" fill="#003473"/>
<path d="M17.2245 16.3995C14.6918 15.0972 11.5347 14.9564 9.6959 14.9564H4.69998L4.49182 14.6396H9.97345C10.5633 14.6396 14.6918 14.6044 17.4326 15.238C20.5898 15.9771 23.2959 18.0537 23.5735 18.2649C23.851 18.4409 30.0959 22.9812 30.0959 22.9812C30.0959 22.9812 29.3673 23.7204 28.6388 23.7204C27.9449 23.7204 27.1816 23.1572 27.1816 23.1572C27.1816 23.1572 23.1224 20.2007 22.7408 19.9191C22.3245 19.6728 19.6184 17.6314 17.2245 16.3995Z" fill="#003473"/>
</g>
<defs>
<clipPath id="clip0_11_1364">
<rect width="34" height="16.1905" fill="white" transform="translate(3 12)"/>
</clipPath>
</defs>
</svg>
