<svg width="40" height="40" viewBox="0 0 40 40" fill="none" xmlns="http://www.w3.org/2000/svg">
<g clip-path="url(#clip0_11_1376)">
<path d="M25.9025 32.6447L25.5866 32.9546L25.5444 32.8719L25.8393 32.5827L25.9025 32.6447ZM26.092 32.9753L25.7129 33.3472C25.7129 33.3058 25.6919 33.2852 25.6919 33.2439L26.071 32.8719C26.071 32.9133 26.071 32.9339 26.092 32.9753ZM26.1763 33.3885L25.8814 33.6777L25.7972 33.6364L26.1763 33.2645C26.1763 33.3058 26.1763 33.3472 26.1763 33.3885ZM25.3549 32.5414L25.5866 32.2934L25.6498 32.3554L25.397 32.6034C25.376 32.5827 25.3549 32.562 25.3549 32.5414ZM25.1022 32.2728L25.2917 32.0868L25.376 32.1281L25.1864 32.3141L25.1022 32.2728ZM24.8916 32.0868L24.8284 32.0248L24.9758 31.9009L25.06 31.9422L24.8916 32.0868ZM24.5967 31.8596L24.5335 31.7976L24.6178 31.7149C24.6388 31.7356 24.681 31.7356 24.702 31.7562L24.5967 31.8596ZM24.3229 31.6323L24.2597 31.5703L24.3019 31.529L24.3861 31.5703L24.3229 31.6323ZM23.3331 34.0083L23.4384 34.0496L23.3752 34.1116C23.3541 34.091 23.3331 34.0703 23.2909 34.0703L23.3331 34.0083ZM23.7122 34.1323C23.7543 34.1529 23.7753 34.1529 23.8175 34.1529L23.67 34.2976L23.5858 34.2562L23.7122 34.1323ZM24.1334 34.2356L24.2597 34.2562L24.0281 34.4835L23.9438 34.4422L24.1334 34.2356ZM24.6178 34.2769H24.7441L24.4072 34.6075L24.3019 34.5662L24.6178 34.2769ZM25.1654 34.3802L24.8494 34.6901L24.7231 34.6695L25.1022 34.3182L25.1654 34.3802ZM25.376 34.5662L25.4391 34.6281L25.397 34.6695C25.3549 34.6901 25.2917 34.6901 25.2285 34.6901L25.376 34.5662ZM22.0483 34.3596L21.9852 34.2976L22.0905 34.1943C22.1115 34.2149 22.1537 34.2356 22.1747 34.2356L22.0483 34.3596ZM21.8167 34.1116L21.7535 34.0496L21.7956 34.0083L21.8799 34.0703L21.8167 34.1116ZM22.4485 34.3596C22.4906 34.3802 22.5117 34.3802 22.5538 34.4009L22.3432 34.6075L22.259 34.5455L22.4485 34.3596ZM22.8697 34.4629L22.9329 34.5455L22.6802 34.7934L22.5959 34.7521L22.8697 34.4629ZM23.1014 34.7521C23.1224 34.7728 23.1435 34.7934 23.1646 34.8141L23.1225 34.8554H23.0382H22.9961L23.1014 34.7521ZM20.8058 33.9463C20.8058 33.9877 20.8268 34.0083 20.8479 34.0496L20.7636 34.1323C20.7215 34.1323 20.6794 34.1116 20.6583 34.1116L20.8058 33.9463ZM20.3845 33.967L20.3214 33.905L20.553 33.6777C20.5741 33.6984 20.6162 33.6984 20.6373 33.7191L20.3845 33.967ZM20.0476 33.6571L20.2371 33.4711C20.2582 33.4918 20.2792 33.5124 20.3003 33.5331L20.1107 33.7191C20.0897 33.6984 20.0686 33.6777 20.0476 33.6571ZM19.9001 33.4091C19.8791 33.3885 19.858 33.3472 19.858 33.3265L19.9844 33.2025C20.0054 33.2232 20.0265 33.2439 20.0476 33.2645L19.9001 33.4091ZM19.7317 33.0786C19.7106 33.0579 19.7106 33.0166 19.6895 32.9959L19.7527 32.9339C19.7738 32.9546 19.7738 32.9959 19.7948 33.0166L19.7317 33.0786ZM19.5842 32.7067V32.686L19.5632 32.6034L19.5842 32.5827L19.6263 32.6653L19.5842 32.7067ZM14.4243 30.248C14.4664 30.248 14.9087 30.2273 15.1193 30.2273C15.2668 30.2273 15.6459 30.248 15.6248 30.4959C15.6248 30.5372 15.6248 30.5992 15.6037 30.6405C15.5616 30.5372 15.4563 30.4753 15.351 30.4753C15.2457 30.4753 14.7613 30.6199 14.6139 30.6199C14.4664 30.6199 14.4664 30.5372 14.3611 30.5372C14.2348 30.5372 14.1295 30.5992 14.0873 30.7025C14.0242 30.5166 14.1295 30.31 14.319 30.248C14.3611 30.248 14.4033 30.248 14.4243 30.248ZM12.8026 30.062L12.7184 29.9794L12.7816 29.9174L12.8448 29.9794C12.8237 30 12.8237 30.0414 12.8026 30.062ZM12.6131 30.4133L12.4235 30.248C12.4446 30.2273 12.4657 30.2067 12.4867 30.186L12.6342 30.3513C12.6552 30.3513 12.6342 30.3926 12.6131 30.4133ZM12.4446 30.7439L12.2129 30.4959L12.2761 30.4339L12.5078 30.6612L12.4446 30.7439ZM12.2551 31.0744L11.9602 30.7852C11.9813 30.7645 12.0023 30.7439 12.0234 30.7025L12.2972 30.9711C12.2761 31.0331 12.2761 31.0538 12.2551 31.0744ZM12.0655 31.405L11.7496 31.0951L11.7917 31.0124L12.1076 31.3224C12.1076 31.343 12.0866 31.3843 12.0655 31.405ZM11.876 31.7356L11.539 31.405C11.56 31.3843 11.5811 31.343 11.6022 31.3224L11.9391 31.6529C11.9181 31.6736 11.897 31.6943 11.876 31.7356ZM11.7075 32.0248L11.6864 32.0455L11.3284 31.7149L11.3705 31.6323L11.7285 31.9835C11.7285 31.9835 11.7075 32.0042 11.7075 32.0248ZM11.4969 32.3761L11.1388 32.0248L11.181 31.9422L11.539 32.2934C11.5179 32.3141 11.4969 32.3348 11.4969 32.3761ZM11.2863 32.686L10.9282 32.3348C10.9493 32.3141 10.9493 32.2934 10.9703 32.2521L11.3284 32.6034C11.3073 32.624 11.2863 32.6653 11.2863 32.686ZM11.0756 32.9959L10.7176 32.6447L10.7597 32.562L11.1178 32.9133C11.0967 32.9339 11.0967 32.9753 11.0756 32.9959ZM10.865 33.3058L10.5281 32.9753L10.5702 32.8926L10.9072 33.2232L10.865 33.3058ZM10.6544 33.5951L10.3175 33.2645L10.3596 33.1819L10.6966 33.5124C10.6966 33.5331 10.6755 33.5538 10.6544 33.5951ZM10.4228 33.8637L10.1279 33.5744L10.1911 33.4918L10.507 33.8017C10.4649 33.8224 10.4438 33.843 10.4228 33.8637ZM10.17 34.1323L9.89624 33.8637L9.95942 33.781L10.2332 34.0496L10.17 34.1323ZM9.89624 34.3802L9.68563 34.1736C9.70669 34.1529 9.72775 34.1323 9.74882 34.091L9.98048 34.3182C9.95942 34.3389 9.9173 34.3596 9.89624 34.3802ZM9.60139 34.5868L9.45396 34.4422L9.51715 34.3802L9.68563 34.5455C9.64351 34.5455 9.62245 34.5662 9.60139 34.5868ZM9.24336 34.7521L9.18017 34.6901L9.24336 34.6281L9.3276 34.7108L9.24336 34.7521ZM16.0881 28.0372C16.1724 28.0579 17.0148 28.3678 17.4992 28.5538C17.3097 28.5538 17.078 28.5538 16.8674 28.5744C16.7621 28.5744 16.6568 28.5744 16.5515 28.5744L16.2356 28.5331C16.0249 28.5124 16.0671 28.3885 15.8775 28.3472C15.7512 28.3265 15.6248 28.3885 15.5616 28.4918C15.5616 28.1612 15.8565 27.9546 16.0881 28.0372ZM23.6279 28.1199L23.7332 28.1405L23.6068 28.2645C23.5858 28.2439 23.5647 28.2232 23.5437 28.2025L23.6279 28.1199ZM24.007 28.2439L24.0912 28.2852L23.8596 28.5124L23.7964 28.4505L24.007 28.2439ZM24.4703 28.4505L24.1334 28.7604C24.1123 28.7397 24.0912 28.7191 24.0702 28.6984L24.365 28.4091L24.4703 28.4505ZM24.7441 28.6777L24.344 29.0703L24.3019 28.9877L24.681 28.6158C24.702 28.6364 24.7231 28.6571 24.7441 28.6777ZM24.9126 28.8843C24.9337 28.9257 24.9337 28.9463 24.9547 28.967L24.7441 29.1529H24.6178L24.9126 28.8843ZM24.007 29.7728C24.0491 29.7728 24.0912 29.7934 24.1123 29.7934L24.0281 29.8761L23.9438 29.8348L24.007 29.7728ZM24.4493 29.8554L24.5546 29.8761L24.4072 30.0207L24.3229 29.9794L24.4493 29.8554ZM24.8494 29.9587L24.9547 30L24.7441 30.2067L24.6599 30.1653L24.8494 29.9587ZM25.2075 30.124L25.2917 30.1653L25.0179 30.4339L24.9547 30.372L25.2075 30.124ZM25.5866 30.372L25.2707 30.6819C25.2496 30.6612 25.2285 30.6405 25.2075 30.6199L25.5023 30.31L25.5866 30.372ZM25.7761 30.5786L25.8393 30.6612L25.4813 31.0331L25.4391 30.9505L25.7761 30.5786ZM25.9867 31.0124L25.7761 31.2191L25.6919 31.1777L25.9657 30.9091C25.9657 30.9505 25.9867 30.9711 25.9867 31.0124ZM25.3128 31.9215C24.8494 31.6529 23.1014 30.7232 23.1014 30.7232L24.8705 31.0951C25.6497 31.2604 26.1341 31.5083 26.1131 31.7149C26.1552 31.6116 26.1763 31.4877 26.1763 31.3843C26.1763 29.5042 23.1435 29.5868 23.1435 29.5868L23.8385 29.4215C24.6599 29.2562 25.1022 29.2976 25.1654 29.4629C25.1654 29.3596 25.1443 29.2356 25.1232 29.1323C24.8916 28.4091 24.4282 28.1612 22.954 27.81L20.89 27.3348C21.5429 27.9959 21.8167 29.8141 21.0585 30.6612C21.0585 30.4959 20.9742 30.3306 20.8479 30.2067C20.7215 30.6819 20.4477 31.281 19.7738 31.1984C19.7738 31.1777 19.837 31.0744 19.6474 30.9091C19.2683 30.5786 18.0678 29.5042 17.6256 29.1116C17.6045 29.2562 17.5834 29.2976 17.5413 29.5248C17.4781 29.8967 17.1622 30.186 16.7621 30.2067C16.4883 30.1653 16.2356 30.0207 16.0881 29.7934C16.2777 29.9174 16.4883 29.9794 16.6989 29.9794C16.72 29.8761 16.7831 29.7934 16.8674 29.7315C16.9727 29.6488 17.1622 29.5868 17.1833 29.3802C17.2254 29.2356 17.1412 29.091 16.9937 29.0496C16.9516 29.0496 16.9306 29.029 16.8884 29.0496C16.5515 29.1116 16.1724 29.1736 16.0881 29.1943C16.0249 29.1943 15.9407 29.1943 15.8775 29.1529C15.8354 29.1116 15.7722 29.1116 15.709 29.1116C15.5827 29.1323 15.4774 29.1943 15.4352 29.3182C15.3721 29.091 15.4984 28.843 15.7301 28.781C15.7512 28.781 15.7933 28.7604 15.8143 28.7604C15.8565 28.7604 17.0359 28.6984 17.3728 28.6984C17.5624 28.6984 17.7309 28.7191 17.8994 28.781C18.1942 28.967 18.805 29.4009 18.9313 29.5042C19.1841 28.967 19.0998 27.9339 18.826 27.7273C16.9095 27.3554 14.7824 27.686 13.4766 26.9835C13.3081 27.0662 12.7605 27.3348 12.6131 27.3967C12.5288 27.4381 12.4235 27.4794 12.3182 27.5207C12.2761 27.5414 12.234 27.562 12.1919 27.562C12.2129 27.5827 12.6131 27.81 13.1185 27.3141C13.6029 27.562 14.0873 27.7686 14.6139 27.9133C14.4664 28.3885 13.2028 29.3182 12.4235 30.0414C11.1388 31.2191 9.76988 34.5248 8.50623 34.9587C8.69577 35 8.86426 35.0207 9.05381 35.0207C10.6966 35.0414 11.539 33.5124 11.8128 33.1199C11.3494 34.2356 10.9072 34.8761 10.6334 34.8554C11.5811 35.124 12.6131 34.9174 13.3713 34.3182L12.4025 33.8224C12.4025 33.8224 13.6451 34.3182 14.6771 34.3389C15.7512 34.3596 15.9196 33.905 15.9196 33.905L14.7192 33.2439C15.1825 33.4711 15.688 33.5951 16.1934 33.6364C17.7309 33.6571 18.5101 32.2108 18.6154 31.4463C18.5312 31.6116 18.0889 32.2934 17.436 32.2108C17.5203 32.1075 17.4992 31.9629 17.415 31.8802C17.415 31.8802 17.3939 31.8596 17.3728 31.8596C17.2675 31.7976 16.5304 31.0538 15.9618 30.5992C15.9196 30.7439 15.8986 30.8058 15.8565 31.0124C15.7933 31.3224 15.4984 31.5496 15.1825 31.5496C14.9087 31.5083 14.6771 31.343 14.5507 31.1158C14.656 31.2397 14.8034 31.3224 14.9719 31.3637C15.0351 31.2604 15.1404 31.1984 15.2457 31.1571C15.3299 31.1364 15.3931 31.0951 15.4563 31.0538C15.6037 30.9091 15.688 30.7232 15.709 30.5372C15.709 30.4133 15.6459 30.31 15.5405 30.248C15.3931 30.1653 15.2036 30.1447 15.0351 30.1653C14.7402 30.1653 14.6139 30.1447 14.5296 30.062C14.4454 29.9794 14.4454 29.9587 14.3401 29.9587C14.2558 29.9587 14.1716 30 14.1295 30.062C14.1084 29.8554 14.2769 29.6901 14.4664 29.6901H14.4875C14.5086 29.6901 14.5507 29.6901 14.5717 29.7108C14.6771 29.7315 15.7301 30 15.9407 30.1034C16.0671 30.1653 17.2465 31.0744 17.2465 31.0744C17.4992 30.9298 17.6466 30.31 17.6466 30C17.7309 29.9587 17.8994 30 18.131 30.1653C18.3627 30.3306 19.0788 30.9711 19.163 31.0744C19.0156 32.1695 19.7106 34.3182 20.7847 34.3389C20.89 34.3389 20.9953 34.3182 21.0795 34.2769C20.9742 34.2356 20.9321 34.1323 20.89 33.9463L20.7005 33.1819C20.7005 33.1819 20.9321 33.4918 21.7956 34.4215C22.259 34.9381 22.6802 35.062 22.975 35.062C23.1646 35.0827 23.3541 35.0207 23.4805 34.9174C23.3541 34.9174 23.1856 34.7934 22.975 34.5248L22.1326 33.4711C23.4384 34.6488 24.3861 34.9174 24.9547 34.9174C25.2075 34.9381 25.4391 34.8761 25.6498 34.7521L22.8697 32.3141L26.1552 34.1116C26.6185 32.9133 25.7761 32.1901 25.3128 31.9215Z" fill="#A38E5D"/>
<path d="M11.7917 27.1901L11.876 26.8595C11.876 26.8595 12.213 26.7769 12.4446 26.7356C12.6763 26.6943 12.8658 27.0455 12.8658 27.0455C12.8658 27.0455 13.4556 26.9835 13.624 26.6529C13.603 26.5703 12.6552 26.6116 12.4868 26.6323C12.3183 26.6529 12.1708 26.5083 11.876 26.2604C11.6443 26.3637 11.4758 26.591 11.4548 26.8389C11.4548 27.1075 11.7707 27.1901 11.7917 27.1901Z" fill="#A38E5D"/>
<path d="M8.94852 32.7893L9.09594 32.9339C9.07488 32.9545 9.05382 32.9752 9.03276 32.9959L8.86427 32.8306L8.94852 32.7893ZM8.73791 33.2231L8.5273 33.0165L8.61154 32.9752L8.80109 33.1818L8.73791 33.2231ZM8.46412 33.4711L8.19033 33.2025L8.27457 33.1612L8.5273 33.4091L8.46412 33.4711ZM8.19033 33.719L7.87441 33.3884C7.89548 33.3678 7.9376 33.3678 7.95866 33.3471L8.27457 33.657C8.23245 33.6777 8.21139 33.6983 8.19033 33.719ZM7.87441 33.9256L7.51638 33.5744L7.60062 33.5331L7.95866 33.8843C7.91654 33.905 7.89548 33.905 7.87441 33.9256ZM7.51638 34.0702L7.15835 33.719L7.24259 33.6777L7.60062 34.0289C7.57956 34.0496 7.53744 34.0496 7.51638 34.0702ZM7.09516 34.1529L6.80031 33.8636L6.88456 33.8223L7.20047 34.1322L7.09516 34.1529ZM6.54758 34.1322L6.42122 34.0083L6.52652 33.9669L6.71607 34.1529C6.65289 34.1529 6.61076 34.1529 6.54758 34.1322ZM9.26443 32.5826L9.34867 32.6653L9.28549 32.7273L9.18019 32.624L9.26443 32.5826ZM9.58034 32.3967L9.62247 32.438C9.6014 32.4587 9.58034 32.4793 9.55928 32.5L9.4961 32.438L9.58034 32.3967ZM9.47504 33.5537C10.0647 32.6446 11.0967 31.095 11.202 30.9711C10.5913 31.6322 7.79017 33.4504 6.3791 33.8636C6.25273 33.8636 6.12637 33.843 6 33.8223C6 33.8223 6.12637 34.8347 7.4532 34.8554C8.25351 34.8554 8.94852 34.3595 9.47504 33.5537Z" fill="#A38E5D"/>
<path d="M32.642 10.4132L32.5788 10.3512C32.5999 10.3306 32.5999 10.3099 32.5999 10.2892C32.6209 10.3306 32.642 10.3719 32.642 10.4132ZM32.6209 10.9091L32.3893 10.6818L32.4314 10.5992L32.6209 10.7851C32.6209 10.8264 32.6209 10.8677 32.6209 10.9091ZM32.5156 11.3223L32.1576 10.9711C32.1786 10.9504 32.1997 10.9297 32.2208 10.8884L32.5577 11.219C32.5577 11.2603 32.5367 11.281 32.5156 11.3223ZM32.3893 11.6942L31.9259 11.2396L31.9891 11.1777L32.4314 11.6115C32.4103 11.6529 32.4103 11.6735 32.3893 11.6942ZM32.2208 12.0454L31.6521 11.4876C31.6732 11.4669 31.6942 11.4463 31.7153 11.4256L32.2418 11.9421C32.2629 12.0041 32.2418 12.0248 32.2208 12.0454ZM32.0312 12.376L31.3994 11.7562L31.4626 11.6942L32.0944 12.314C32.0733 12.3347 32.0733 12.3553 32.0312 12.376ZM31.8417 12.6859L31.1467 12.0041C31.1677 11.9834 31.1888 11.9628 31.2098 11.9421L31.9049 12.6239C31.8838 12.6446 31.8627 12.6653 31.8417 12.6859ZM31.61 12.9752L30.8518 12.2107L30.915 12.1487L31.6732 12.8925L31.61 12.9752ZM31.3573 13.2438L30.5359 12.438C30.557 12.4173 30.578 12.3967 30.5991 12.376L31.3994 13.1611L31.3573 13.2438ZM31.1045 13.4917L30.22 12.6446L30.3042 12.5826L31.1677 13.4297C31.1467 13.4504 31.1256 13.4711 31.1045 13.4917ZM30.8307 13.7396L29.9251 12.8512C29.9462 12.8306 29.9883 12.8099 30.0094 12.7892L30.915 13.6777C30.8729 13.6983 30.8518 13.719 30.8307 13.7396ZM30.557 13.9876L29.6092 13.0578C29.6303 13.0372 29.6724 13.0165 29.6935 13.0165L30.6412 13.9463C30.5991 13.9463 30.578 13.9669 30.557 13.9876ZM30.2621 14.2149L29.2722 13.2438L29.3565 13.2025L30.3253 14.1529C30.3042 14.1735 30.2832 14.1942 30.2621 14.2149ZM29.9673 14.4421L28.9563 13.4504L29.0406 13.4091L30.0515 14.4008L29.9673 14.4421ZM29.6724 14.6281L28.6404 13.6157C28.6615 13.595 28.7036 13.5744 28.7247 13.5744L29.7566 14.5868L29.6724 14.6281ZM29.3565 14.8347L28.3034 13.8016L28.3877 13.7603L29.4407 14.7934C29.4197 14.7934 29.3986 14.814 29.3565 14.8347ZM29.0406 15.0413L27.9875 14.0082L28.0718 13.9669L29.1248 15L29.0406 15.0413ZM28.7247 15.2479L27.6716 14.2149L27.7559 14.1735L28.8089 15.2066L28.7247 15.2479ZM28.4087 15.4339L27.3346 14.4008L27.4189 14.3595L28.493 15.3925C28.4719 15.3925 28.4509 15.4132 28.4087 15.4339ZM28.0928 15.6198L27.0398 14.5868C27.0609 14.5661 27.0819 14.5454 27.124 14.5454L28.1771 15.5785L28.0928 15.6198ZM27.7559 15.8058L26.7028 14.7727L26.7871 14.7314L27.8401 15.7644C27.798 15.7644 27.7769 15.7851 27.7559 15.8058ZM27.4189 15.9711L26.3658 14.938L26.4501 14.8967L27.5031 15.9297L27.4189 15.9711ZM27.0609 16.1363L26.0289 15.1239L26.1131 15.0826L27.1451 16.095L27.0609 16.1363ZM26.7239 16.3223L25.713 15.3306L25.7972 15.2892L26.8292 16.3016L26.7239 16.3223ZM26.3869 16.4876L25.376 15.5372L25.4602 15.4958L26.4712 16.4876L26.3869 16.5289M26.0289 16.6942L25.039 15.7231L25.1233 15.6818L26.1131 16.6529L26.0289 16.6942ZM25.6708 16.8388L24.702 15.9091L24.7863 15.8677L25.7551 16.8182L25.6708 16.8388ZM25.3128 17.0041L24.3861 16.095L24.4704 16.0537L25.4181 16.9834L25.3128 17.0041ZM24.9548 17.1487L24.0492 16.2603C24.0702 16.2396 24.1123 16.219 24.1334 16.219L25.039 17.1074C25.018 17.1281 24.9758 17.1487 24.9548 17.1487ZM24.5967 17.314L23.7122 16.4463L23.7964 16.4049L24.681 17.2727L24.5967 17.314ZM24.2387 17.4793L23.3963 16.6529L23.4805 16.5909L24.3229 17.438L24.2387 17.4793ZM23.8807 17.6446L23.0593 16.8182L23.1435 16.7768L23.986 17.6033L23.8807 17.6446ZM23.5226 17.8099L22.7013 17.0041L22.7855 16.9628L23.6069 17.7686L23.5226 17.8099ZM23.1857 17.9752L22.3853 17.1901L22.4696 17.1487L23.2699 17.9339C23.2488 17.9545 23.2067 17.9545 23.1857 17.9752ZM22.8487 18.1611L22.0484 17.376L22.1326 17.3347L22.9329 18.1198L22.8487 18.1611ZM22.5117 18.3264L21.7325 17.562C21.7535 17.5413 21.7746 17.5206 21.8167 17.5206L22.617 18.3058L22.5117 18.3264ZM22.1747 18.533L21.3955 17.7686L21.4797 17.7273L22.259 18.4917L22.1747 18.533ZM21.8588 18.719L21.1006 17.9752C21.1217 17.9545 21.1428 17.9339 21.1849 17.9132L21.9431 18.657L21.8588 18.719ZM21.5429 18.9256L20.8058 18.2025L20.89 18.1405L21.6272 18.8636L21.5429 18.9256ZM21.227 19.1322L20.5109 18.4297L20.5741 18.3677L21.2902 19.0702C21.2691 19.0909 21.2481 19.1115 21.227 19.1322ZM20.9111 19.3388L20.2371 18.6777L20.3003 18.6157L20.9953 19.2975L20.9111 19.3388ZM20.6162 19.5454L19.9844 18.9256C20.0055 18.9049 20.0265 18.8843 20.0476 18.8636L20.7005 19.5041L20.6162 19.5454ZM20.3214 19.752L19.7317 19.1735L19.7949 19.1115L20.4056 19.7107L20.3214 19.752ZM20.0265 19.9587L19.479 19.4421C19.5 19.4215 19.5211 19.4008 19.5421 19.3801L20.1108 19.938L20.0265 19.9587ZM19.7317 20.2066L19.2473 19.7314C19.2683 19.7107 19.2894 19.6901 19.3105 19.6487L19.8159 20.1446C19.7738 20.1653 19.7527 20.1859 19.7317 20.2066ZM19.4579 20.4339L19.0367 20.0206C19.0577 20 19.0788 19.9587 19.0788 19.938L19.5211 20.3719C19.5 20.3925 19.479 20.4132 19.4579 20.4339ZM19.1841 20.6818L18.8261 20.3512C18.8471 20.3306 18.8682 20.2892 18.8682 20.2686L19.2262 20.6198C19.2262 20.6405 19.2052 20.6611 19.1841 20.6818ZM18.9103 20.9091L18.6576 20.6611C18.6786 20.6198 18.6786 20.5992 18.6997 20.5785L18.9735 20.8471L18.9103 20.9091ZM18.6576 21.1777L18.5102 21.033C18.5102 20.9917 18.5312 20.9711 18.5523 20.9504L18.7418 21.1363L18.6576 21.1777ZM18.4048 21.4463L18.3627 21.4049C18.3627 21.3636 18.3838 21.343 18.4048 21.3016L18.4891 21.3843L18.4048 21.4463ZM29.6513 12.8512C27.5242 14.1942 24.4704 15.9091 22.4275 16.9834C19.0999 18.781 18.3417 20.7025 18.0468 21.9834C18.805 21.095 23.3963 19.0702 26.8081 17.7066C30.7254 16.157 32.8737 14.4008 32.9158 11.6115C32.9158 10.9917 32.8105 10.3512 32.6209 9.77271C32.5367 10.6405 31.3573 11.7768 29.6513 12.8512Z" fill="#A38E5D"/>
<path d="M21.0164 20.8677L21.0374 20.8471L21.8378 21.6322L21.7324 21.6529L20.9532 20.8884L21.0164 20.8677ZM21.3955 20.6818L22.259 21.5289L22.1537 21.5702L21.3112 20.7438C21.3323 20.7231 21.3744 20.7024 21.3955 20.6818ZM21.7535 20.5372L22.6381 21.4049L22.5328 21.4462L21.6482 20.5785L21.7535 20.5372ZM22.1115 20.3512L23.0172 21.2396L22.9119 21.281L22.0062 20.3925L22.1115 20.3512ZM22.4696 20.2066L23.3963 21.1157L23.291 21.157L22.3643 20.2479L22.4696 20.2066ZM22.8487 20.0619L23.7964 20.9917L23.6911 21.033L22.7434 20.1033L22.8487 20.0619ZM23.2067 19.9173L24.1544 20.8471L24.0702 20.8884L23.1225 19.9586C23.1646 19.938 23.1856 19.9173 23.2067 19.9173ZM23.5858 19.7727L24.5335 20.7024L24.4493 20.7438L23.4805 19.814L23.5858 19.7727ZM23.9649 19.6281L24.8916 20.5372C24.8495 20.5578 24.8284 20.5578 24.8073 20.5785L23.8596 19.6694L23.9649 19.6281ZM24.344 19.5041L25.2707 20.3925L25.1654 20.4338L24.2387 19.5248L24.344 19.5041ZM24.702 19.3595L25.5866 20.2272C25.5655 20.2479 25.5234 20.2479 25.5023 20.2686L24.5967 19.3801C24.6388 19.3595 24.681 19.3595 24.702 19.3595ZM25.0811 19.2148L25.9236 20.0413L25.8393 20.0826L24.9758 19.2355C25.0179 19.2148 25.039 19.1942 25.0811 19.2148ZM25.4602 19.0495L26.2605 19.8347L26.1763 19.876L25.376 19.0909L25.4602 19.0495ZM25.8393 18.9256L26.5764 19.6487C26.5554 19.6694 26.5343 19.69 26.4922 19.69L25.734 18.9462L25.8393 18.9256ZM26.2184 18.781L26.8924 19.4421L26.8292 19.5041L26.1342 18.8429L26.2184 18.781ZM26.5975 18.6363L27.1661 19.1942C27.1451 19.2148 27.124 19.2355 27.103 19.2562L26.5133 18.6776C26.5343 18.657 26.5764 18.6363 26.5975 18.6363ZM26.9766 18.4917L27.4399 18.9462C27.4189 18.9669 27.3978 18.9876 27.3768 19.0082L26.8713 18.533L26.9766 18.4917ZM27.3557 18.3471L27.7137 18.6983L27.6505 18.7603L27.2715 18.3884L27.3557 18.3471ZM27.7137 18.2024L27.9454 18.4297L27.8822 18.4917L27.6295 18.2438L27.7137 18.2024ZM28.0928 18.0578L28.1981 18.1611C28.1771 18.1818 28.156 18.2024 28.1349 18.2231L28.0086 18.0991L28.0928 18.0578ZM21.3534 21.7975L20.6162 21.0743C20.6373 21.0537 20.6794 21.0537 20.7005 21.033L21.4587 21.7562C21.4165 21.7562 21.3955 21.7768 21.3534 21.7975ZM20.9532 21.9008L20.2793 21.2396L20.3635 21.1983L21.0585 21.8801L20.9532 21.9008ZM20.532 22.0041L19.9423 21.4256L20.0265 21.3843L20.6373 21.9834L20.532 22.0041ZM20.1108 22.1074L19.5842 21.5909L19.6685 21.5495L20.2161 22.0867L20.1108 22.1074ZM19.6895 22.2107L19.2683 21.7768L19.3526 21.7355L19.8159 22.19L19.6895 22.2107ZM19.2683 22.2934L18.9524 21.9628L19.0367 21.9215L19.3947 22.2727C19.3526 22.2727 19.3105 22.2727 19.2683 22.2934ZM18.8471 22.376L18.6365 22.1694L18.7207 22.1074L18.9524 22.3347L18.8471 22.376ZM18.4259 22.4586L18.3838 22.4173L18.4259 22.3553L18.5312 22.438C18.4891 22.438 18.447 22.4586 18.4259 22.4586ZM18.3627 22.9338L18.1521 22.7272C18.1521 22.7066 18.1732 22.6859 18.1732 22.6859C18.1732 22.6653 18.1942 22.6653 18.1942 22.6446L18.3627 22.8099C18.3838 22.8512 18.3838 22.8925 18.3627 22.9338ZM18.3206 23.4091L18.0047 23.0991C18.0257 23.0578 18.0257 23.0372 18.0468 23.0165L18.3417 23.3057C18.3206 23.3264 18.3206 23.3677 18.3206 23.4091ZM18.2153 23.8223L17.8573 23.471C17.8783 23.4504 17.8783 23.4091 17.8994 23.3884L18.2574 23.7396C18.2363 23.7396 18.2363 23.781 18.2153 23.8223ZM18.0889 24.1942L17.7098 23.8223C17.7098 23.8016 17.7309 23.7603 17.7519 23.7396L18.131 24.1115C18.11 24.1322 18.11 24.1735 18.0889 24.1942ZM17.9204 24.5454L17.5203 24.1529C17.5413 24.1322 17.5413 24.0909 17.5624 24.0702L17.9626 24.4628C17.9626 24.4834 17.9415 24.5248 17.9204 24.5454ZM17.7098 24.8553L17.3307 24.4834C17.3518 24.4628 17.3729 24.4421 17.3729 24.4008L17.773 24.7727C17.773 24.814 17.7519 24.8347 17.7098 24.8553ZM17.3939 25.0413L17.0991 24.752C17.1201 24.7314 17.1412 24.7107 17.1622 24.69L17.4782 25C17.4571 25.0206 17.436 25.0206 17.3939 25.0413ZM16.8885 25.0619L16.7832 24.9586C16.8042 24.938 16.8463 24.938 16.8674 24.9173L17.0359 25.0826C16.9938 25.0826 16.9306 25.0826 16.8885 25.0619ZM18.0468 22.6239C18.0468 22.6239 17.5203 23.9256 17.3097 24.2975C17.1412 24.6487 16.7832 24.876 16.383 24.8967C16.046 24.8553 15.6459 24.814 15.2246 24.7934C14.4243 24.752 13.4766 24.8553 13.0764 25.0826C12.7395 25.2686 12.234 25.9091 12.234 25.9091C12.4446 26.033 12.6973 26.033 12.929 25.9297C12.929 25.9297 12.7605 25.7644 12.7605 25.7024C12.7605 25.6405 12.8237 25.6198 12.908 25.5578C12.9501 25.7851 13.1607 25.9297 13.3924 25.9091C13.6451 25.8884 13.8346 25.7231 13.8978 25.4752C13.9399 25.3512 13.8978 25.2066 13.8346 25.1033C14.1084 25.1033 14.3401 25.2686 14.3401 25.3305C14.1927 25.6818 13.8768 25.971 13.4977 26.0743C13.5608 26.3223 14.1084 26.3843 14.0874 26.5289C14.0663 26.6115 14.0242 26.6735 13.961 26.7148C13.8768 26.7768 14.3401 26.9215 14.656 26.9421C15.7301 26.9834 16.025 26.5909 16.383 26.095C16.4672 25.9917 16.6147 25.9091 16.7621 25.9091C17.0569 25.9091 18.9524 27.0454 20.9532 27.0867C22.8487 27.1074 24.2387 26.219 24.5335 25.1653C23.986 25.3512 23.4173 25.4752 22.8487 25.4752C20.9321 25.4545 20.1739 24.5454 20.1739 24.5454C20.9111 24.7934 21.6693 24.938 22.4485 24.9586C25.4813 24.9793 26.0499 22.5413 26.2605 21.7355C25.8393 22.0041 24.3861 22.9338 21.564 22.8925C20.9111 22.9132 20.2582 22.7892 19.6685 22.5206C20.6794 22.5413 21.6903 22.4586 22.6802 22.2727C26.0289 21.5909 28.1981 20.0826 28.6825 17.6859C26.2816 18.6983 22.8697 19.7727 20.9532 20.7438C19.1209 21.6735 18.2995 22.0867 18.0468 22.6239Z" fill="#A38E5D"/>
<path d="M20.3213 17.5826L20.3635 17.624C20.3424 17.6446 20.3213 17.6653 20.3003 17.686L20.2792 17.6653C20.3003 17.624 20.3003 17.6033 20.3213 17.5826ZM20.5109 17.2521L20.6162 17.3554L20.553 17.4174L20.4688 17.3347L20.5109 17.2521ZM20.7004 16.9215L20.8689 17.0868C20.8479 17.1074 20.8268 17.1281 20.8057 17.1488L20.6583 17.0041L20.7004 16.9215ZM20.89 16.5909L21.1217 16.8182C21.1006 16.8388 21.0795 16.8595 21.0585 16.8802L20.8479 16.6736C20.8689 16.6529 20.89 16.6322 20.89 16.5909ZM21.1006 16.3017L21.3744 16.5909L21.3112 16.6529L21.0164 16.3636C21.0374 16.343 21.0585 16.3223 21.0585 16.281M21.2901 15.9711L21.6482 16.3223C21.6271 16.343 21.6061 16.3636 21.585 16.3843L21.227 16.0331C21.248 16.0331 21.2691 15.9917 21.2901 15.9711ZM21.5008 15.6818L21.922 16.095L21.8377 16.157L21.4376 15.7438L21.5008 15.6818ZM21.7114 15.3719L22.1958 15.8471L22.1326 15.9091L21.6692 15.4545L21.7114 15.3719ZM21.922 15.0826L22.4485 15.5992L22.3853 15.6612L21.8588 15.1446L21.922 15.0826ZM22.1536 14.7934L22.7433 15.3719L22.6802 15.4339L22.1115 14.876L22.1536 14.7934ZM22.3853 14.5041L23.0171 15.124L22.9539 15.186L22.3432 14.5661C22.3432 14.5455 22.3642 14.5248 22.3853 14.5041ZM22.638 14.2355L23.312 14.8967L23.2488 14.9587L22.5749 14.3182C22.5959 14.2975 22.617 14.2562 22.638 14.2355ZM22.8908 13.9669L23.6068 14.6694L23.5437 14.7314L22.8486 14.0496C22.8486 14.0289 22.8697 14.0083 22.8908 13.9669ZM23.1435 13.719L23.9017 14.4628C23.8806 14.4835 23.8596 14.5041 23.8385 14.5248L23.1014 13.8017C23.1014 13.7603 23.1224 13.7397 23.1435 13.719ZM23.3962 13.4504L24.1755 14.2149C24.1544 14.2355 24.1334 14.2562 24.1123 14.2769L23.333 13.5124L23.3962 13.4504ZM23.67 13.2025L24.4703 13.9876L24.3861 14.0496L23.5858 13.2645C23.6068 13.2645 23.6279 13.2231 23.67 13.2025ZM23.9438 12.9752L24.7652 13.781L24.6809 13.843L23.8596 13.0372C23.9017 13.0165 23.9227 12.9959 23.9438 12.9752ZM24.2176 12.7479L25.06 13.5744L24.9758 13.6364L24.1334 12.8099C24.1755 12.7686 24.1965 12.7479 24.2176 12.7479ZM24.4914 12.5L25.3549 13.3471C25.3338 13.3678 25.3128 13.3884 25.2706 13.4091L24.4282 12.5826L24.4914 12.5ZM24.7862 12.2727L25.6497 13.1405L25.5866 13.1818L24.7231 12.3347L24.7862 12.2727ZM25.06 12.0455L25.9446 12.9132L25.8603 12.9752L24.9758 12.1074C25.0179 12.0661 25.039 12.0661 25.06 12.0455ZM25.3549 11.7975L26.2605 12.686L26.1763 12.7273L25.2706 11.8388L25.3549 11.7975ZM25.6287 11.5702L26.5554 12.4793L26.4711 12.5413L25.5444 11.6322C25.5866 11.6116 25.6076 11.5909 25.6287 11.5702ZM25.9235 11.343L26.8923 12.2727C26.8713 12.2934 26.8291 12.3141 26.8081 12.3141L25.8393 11.405L25.9235 11.343ZM26.1973 11.1157L27.1872 12.0661C27.1661 12.0661 27.1661 12.0868 27.1451 12.0868L27.1029 12.1074L26.1341 11.157L26.1973 11.1157ZM26.4922 10.8884L27.5031 11.8802C27.482 11.9008 27.461 11.9215 27.4188 11.9215L26.4079 10.9504L26.4922 10.8884ZM26.766 10.6612L27.7979 11.6736C27.7769 11.6942 27.7558 11.7149 27.7137 11.7355L26.7028 10.7231L26.766 10.6612ZM27.0608 10.4132L28.1139 11.4463L28.0296 11.4876L26.9976 10.4752C27.0187 10.4752 27.0398 10.4545 27.0608 10.4132ZM27.3557 10.2066L28.4087 11.2397L28.3245 11.3017L27.2714 10.2686L27.3557 10.2066ZM27.6295 9.95868L28.7036 11.0124C28.6825 11.0331 28.6614 11.0537 28.6193 11.0744L27.5452 10.0207L27.6295 9.95868ZM27.9032 9.73141L28.9774 10.8058L28.9142 10.8471L27.8401 9.79339L27.9032 9.73141ZM28.1981 9.50413L29.2933 10.5785C29.2722 10.5992 29.2511 10.6198 29.2301 10.6405L28.1349 9.56612L28.1981 9.50413ZM28.4719 9.27686L29.5671 10.3512C29.546 10.3719 29.5249 10.3926 29.5039 10.4132L28.4087 9.33884C28.4298 9.31818 28.4508 9.29752 28.4719 9.27686ZM28.7667 9.04959L29.8619 10.124L29.7987 10.1653L28.7036 9.09091L28.7667 9.04959ZM29.0616 8.80165L30.1357 9.85537C30.1146 9.87603 30.0936 9.89669 30.0725 9.91736L28.9774 8.86364L29.0616 8.80165ZM29.3354 8.57438L30.4095 9.6281L30.3463 9.69008L29.2722 8.63636L29.3354 8.57438ZM29.6302 8.34711L30.6833 9.38017C30.6622 9.40083 30.6412 9.42149 30.6201 9.44215L29.5671 8.40909L29.6302 8.34711ZM29.904 8.09917L30.936 9.13223L30.8728 9.19422L29.8408 8.18182C29.8619 8.16116 29.883 8.1405 29.904 8.09917ZM30.1778 7.8719L31.1887 8.86364C31.1677 8.8843 31.1466 8.90496 31.1256 8.92562L30.1146 7.93388L30.1778 7.8719ZM30.4516 7.64463L31.4204 8.59504C31.3993 8.6157 31.3783 8.63636 31.3572 8.65703L30.3674 7.68595C30.4095 7.68595 30.4305 7.66529 30.4516 7.64463ZM30.7254 7.39669L31.6521 8.30579C31.631 8.32645 31.61 8.34711 31.5889 8.36777L30.6412 7.43802C30.6833 7.43802 30.7043 7.41736 30.7254 7.39669ZM30.9992 7.14876L31.8837 8.01653C31.8627 8.03719 31.8416 8.05785 31.8416 8.09917L30.936 7.21074C30.9571 7.19008 30.9781 7.16942 30.9992 7.14876ZM31.273 6.90083L32.0944 7.70661C32.0733 7.72727 32.0733 7.7686 32.0522 7.78926L31.2098 6.96281C31.2309 6.94215 31.2519 6.92149 31.273 6.90083ZM31.5257 6.63223L32.2839 7.37603C32.2628 7.39669 32.2628 7.43802 32.2418 7.45868L31.4625 6.69421C31.4836 6.69421 31.5047 6.65289 31.5257 6.63223ZM31.7784 6.3843L32.4313 7.02479L32.3892 7.10744L31.7153 6.44628L31.7784 6.3843ZM32.0101 6.1157L32.5366 6.63223C32.5366 6.67355 32.5156 6.69421 32.5156 6.73554L31.9469 6.17769L32.0101 6.1157ZM32.2628 5.84711L32.5998 6.17769C32.5998 6.21901 32.5998 6.26033 32.5998 6.30165L32.1997 5.92975C32.2207 5.88843 32.2418 5.86777 32.2628 5.84711ZM32.4735 5.53719L32.5366 5.59917C32.5366 5.6405 32.5577 5.70248 32.5577 5.7438L32.4313 5.61983C32.4524 5.59917 32.4735 5.55785 32.4735 5.53719ZM21.2059 17.2107C22.4274 16.3636 25.1864 14.8141 28.2192 13.0992C30.5359 11.7562 32.9579 9.56612 33.021 7.10744C33.021 6.36364 32.8315 5.6405 32.4524 5C32.4313 5.18595 32.3892 5.3719 32.3471 5.53719C31.7995 6.19835 31.1887 6.81818 30.5569 7.39669C29.546 8.30579 24.2808 12.4587 23.5015 13.1818C21.943 14.6694 20.6794 16.4256 19.7738 18.3678C19.7527 18.3884 20.0054 18.0579 21.2059 17.2107Z" fill="#A38E5D"/>
<path d="M9.07487 32.9339L8.92744 32.7893L8.8432 32.8306L9.01169 32.9959C9.03275 32.9546 9.05381 32.9339 9.07487 32.9339Z" fill="#B6A47C"/>
<path d="M8.80107 33.1612L8.61153 32.9546L8.52728 32.9959L8.73789 33.2025L8.80107 33.1612Z" fill="#B6A47C"/>
<path d="M9.62246 32.4381L9.58034 32.3967L9.49609 32.4381L9.55928 32.5C9.58034 32.4794 9.6014 32.4587 9.62246 32.4381Z" fill="#B6A47C"/>
<path d="M9.34866 32.6859L9.26442 32.6033L9.18018 32.6446L9.28548 32.7479L9.34866 32.6859Z" fill="#B6A47C"/>
<path d="M6.69499 34.1529L6.50545 33.9669L6.4212 34.0082L6.54757 34.1322C6.61075 34.1529 6.65287 34.1529 6.69499 34.1529Z" fill="#B6A47C"/>
<path d="M7.20045 34.1529L6.88454 33.843L6.80029 33.8843L7.09514 34.1736L7.20045 34.1529Z" fill="#B6A47C"/>
<path d="M8.25349 33.6363L7.93758 33.3264C7.91651 33.3471 7.87439 33.3471 7.85333 33.3677L8.16925 33.6983C8.21137 33.6983 8.23243 33.657 8.25349 33.6363Z" fill="#B6A47C"/>
<path d="M8.52728 33.4091L8.27455 33.1611L8.19031 33.2025L8.4641 33.4711L8.52728 33.4091Z" fill="#B6A47C"/>
<path d="M7.95864 33.8637L7.6006 33.5125L7.51636 33.5538L7.87439 33.905C7.89545 33.8844 7.93757 33.8844 7.95864 33.8637Z" fill="#B6A47C"/>
<path d="M7.6006 34.029L7.26363 33.6777L7.17938 33.7191L7.51636 34.0496C7.53742 34.0496 7.57954 34.0496 7.6006 34.029Z" fill="#B6A47C"/>
<path d="M32.5999 6.15699L32.2629 5.82642C32.2418 5.84708 32.2208 5.86774 32.1997 5.8884L32.5999 6.2603C32.5999 6.23964 32.5999 6.19832 32.5999 6.15699Z" fill="#B6A47C"/>
<path d="M32.5367 6.63225L32.0101 6.11572L31.947 6.17771L32.5156 6.73556C32.5367 6.69424 32.5367 6.65291 32.5367 6.63225Z" fill="#B6A47C"/>
<path d="M31.1888 8.86368L30.1779 7.87195L30.1147 7.93393L31.1256 8.92567C31.1467 8.90501 31.1677 8.88435 31.1888 8.86368Z" fill="#B6A47C"/>
<path d="M32.4313 7.02477L31.7785 6.38428L31.7153 6.44626L32.4103 7.10742L32.4313 7.02477Z" fill="#B6A47C"/>
<path d="M32.5366 5.59921L32.4735 5.53723C32.4735 5.57855 32.4524 5.59921 32.4313 5.61988L32.5577 5.74384C32.5577 5.70252 32.5577 5.6612 32.5366 5.59921Z" fill="#B6A47C"/>
<path d="M31.4415 8.59507L30.4727 7.64465C30.4517 7.66531 30.4306 7.68598 30.4095 7.70664L31.3994 8.67771C31.3994 8.63639 31.4205 8.61573 31.4415 8.59507Z" fill="#B6A47C"/>
<path d="M31.6731 8.30582L30.7465 7.39673C30.7254 7.41739 30.7043 7.43805 30.6833 7.45871L31.631 8.38846C31.631 8.3678 31.6521 8.34714 31.6731 8.30582Z" fill="#B6A47C"/>
<path d="M31.8838 8.01657L30.9992 7.1488C30.9782 7.16946 30.9571 7.19013 30.936 7.21079L31.8417 8.09922C31.8627 8.07856 31.8627 8.05789 31.8838 8.01657Z" fill="#B6A47C"/>
<path d="M32.284 7.376L31.5258 6.6322C31.5047 6.65286 31.4836 6.67352 31.4626 6.69419L32.2418 7.45865C32.2418 7.43799 32.2629 7.39666 32.284 7.376Z" fill="#B6A47C"/>
<path d="M32.0944 7.70666L31.273 6.90088C31.252 6.92154 31.2309 6.9422 31.2098 6.96286L32.0523 7.78931C32.0523 7.76865 32.0733 7.72733 32.0944 7.70666Z" fill="#B6A47C"/>
<path d="M19.6896 32.9959C19.7106 33.0372 19.7106 33.0578 19.7317 33.0785L19.8159 32.9959C19.7949 32.9752 19.7738 32.9339 19.7738 32.9132L19.6896 32.9959Z" fill="#B6A47C"/>
<path d="M19.858 33.3265C19.8791 33.3471 19.8791 33.3885 19.9002 33.4091L20.0476 33.2645C20.0265 33.2438 20.0055 33.2232 19.9844 33.2025L19.858 33.3265Z" fill="#B6A47C"/>
<path d="M19.5421 32.6239L19.5632 32.7066V32.7272L19.6053 32.6859L19.5632 32.6033L19.5421 32.6239Z" fill="#B6A47C"/>
<path d="M11.3284 31.6942L11.6653 32.0248L11.6864 32.0042C11.7075 31.9835 11.7075 31.9628 11.7285 31.9422L11.3705 31.5909L11.3284 31.6942Z" fill="#B6A47C"/>
<path d="M11.1389 32.0042L11.4969 32.3554C11.518 32.3347 11.518 32.2934 11.539 32.2727L11.181 31.9215L11.1389 32.0042Z" fill="#B6A47C"/>
<path d="M20.2372 33.4711L20.0476 33.657C20.0687 33.6777 20.0897 33.6983 20.1108 33.719L20.3003 33.5331C20.3003 33.5124 20.2582 33.4917 20.2372 33.4711Z" fill="#B6A47C"/>
<path d="M23.8385 34.1529C23.7964 34.1529 23.7754 34.1322 23.7332 34.1322L23.6069 34.2562L23.6911 34.2975L23.8385 34.1529Z" fill="#B6A47C"/>
<path d="M24.7652 34.2769H24.6388L24.344 34.5868L24.4493 34.6281L24.7652 34.2769Z" fill="#B6A47C"/>
<path d="M24.8494 34.6901L25.1654 34.3802L25.1022 34.3182L24.7231 34.6695L24.8494 34.6901Z" fill="#B6A47C"/>
<path d="M24.2598 34.2563L24.1334 34.2356L23.9228 34.4422L24.007 34.4835L24.2598 34.2563Z" fill="#B6A47C"/>
<path d="M20.3214 33.905L20.3845 33.967L20.6373 33.7191C20.6162 33.6984 20.5741 33.6984 20.553 33.6777L20.3214 33.905Z" fill="#B6A47C"/>
<path d="M24.2387 31.5909L24.3019 31.6529L24.3651 31.5909L24.2808 31.5496L24.2387 31.5909Z" fill="#B6A47C"/>
<path d="M25.4392 34.6281L25.376 34.5662L25.2496 34.6901C25.3128 34.6901 25.3549 34.6695 25.4181 34.6695L25.4392 34.6281Z" fill="#B6A47C"/>
<path d="M10.9282 32.3141L11.2863 32.6653C11.3073 32.6447 11.3284 32.6033 11.3284 32.5827L10.9703 32.2314C10.9703 32.2728 10.9493 32.2934 10.9282 32.3141Z" fill="#B6A47C"/>
<path d="M23.4384 34.0496L23.3331 34.0083L23.291 34.0496C23.312 34.0703 23.3541 34.0703 23.3752 34.0909L23.4384 34.0496Z" fill="#B6A47C"/>
<path d="M22.9119 34.5454L22.8487 34.4628L22.5749 34.752L22.6591 34.7933L22.9119 34.5454Z" fill="#B6A47C"/>
<path d="M21.9852 34.2975L22.0484 34.3595L22.1747 34.2355C22.1537 34.2149 22.1115 34.2149 22.0905 34.1942L21.9852 34.2975Z" fill="#B6A47C"/>
<path d="M24.5336 31.8182L24.5968 31.8802L24.7021 31.7769C24.681 31.7563 24.6389 31.7563 24.6178 31.7356L24.5336 31.8182Z" fill="#B6A47C"/>
<path d="M23.1225 34.8554L23.1646 34.8141C23.1435 34.7934 23.1225 34.7727 23.1014 34.7521L22.9961 34.876H23.0382L23.1225 34.8554Z" fill="#B6A47C"/>
<path d="M21.7324 34.0495L21.7956 34.1115L21.8588 34.0495L21.7745 33.9875L21.7324 34.0495Z" fill="#B6A47C"/>
<path d="M22.5538 34.4008C22.5117 34.3802 22.4906 34.3802 22.4485 34.3595L22.259 34.5454L22.3222 34.6074L22.5538 34.4008Z" fill="#B6A47C"/>
<path d="M20.7636 34.1116L20.8479 34.029C20.8268 34.0083 20.8268 33.967 20.8058 33.9257L20.6583 34.0909C20.6794 34.1116 20.7215 34.1116 20.7636 34.1116Z" fill="#B6A47C"/>
<path d="M10.7387 32.6447L11.0967 32.9959C11.1178 32.9752 11.1389 32.9546 11.1599 32.9133L10.8019 32.562L10.7387 32.6447Z" fill="#B6A47C"/>
<path d="M9.9173 33.8636L10.1911 34.1322L10.2543 34.0702L9.98048 33.8016L9.9173 33.8636Z" fill="#B6A47C"/>
<path d="M9.68567 34.1528L9.89628 34.3594C9.91734 34.3388 9.9384 34.3181 9.95946 34.2975L9.72779 34.0702C9.72779 34.1115 9.70673 34.1322 9.68567 34.1528Z" fill="#B6A47C"/>
<path d="M9.45398 34.4421L9.60141 34.5867C9.62247 34.5661 9.66459 34.5454 9.68565 34.5454L9.51716 34.3801L9.45398 34.4421Z" fill="#B6A47C"/>
<path d="M10.1279 33.5744L10.4228 33.8636C10.4438 33.843 10.4649 33.8223 10.486 33.781L10.1701 33.4711L10.1279 33.5744Z" fill="#B6A47C"/>
<path d="M10.5281 32.9546L10.865 33.2852L10.9282 33.2025L10.5913 32.8719L10.5281 32.9546Z" fill="#B6A47C"/>
<path d="M10.3386 33.2644L10.6755 33.595C10.6966 33.5743 10.7177 33.533 10.7387 33.5123L10.4017 33.1818L10.3386 33.2644Z" fill="#B6A47C"/>
<path d="M9.18018 34.69L9.24336 34.752L9.3276 34.7107L9.24336 34.6281L9.18018 34.69Z" fill="#B6A47C"/>
<path d="M24.8284 32.0248L24.8916 32.0868L25.039 31.9422L24.9547 31.9009L24.8284 32.0248Z" fill="#B6A47C"/>
<path d="M26.0499 32.8719L25.6708 33.2438C25.6708 33.2852 25.6919 33.3058 25.6919 33.3472L26.071 32.9753C26.071 32.9339 26.0499 32.9133 26.0499 32.8719Z" fill="#B6A47C"/>
<path d="M25.8393 32.562L25.5444 32.8513L25.5866 32.9339L25.9025 32.624L25.8393 32.562Z" fill="#B6A47C"/>
<path d="M25.5866 32.2933L25.3339 32.5413C25.3549 32.5619 25.376 32.5826 25.376 32.6239L25.6287 32.376L25.5866 32.2933Z" fill="#B6A47C"/>
<path d="M25.7972 33.6363L25.8814 33.6776L26.1763 33.3884C26.1763 33.347 26.1763 33.3057 26.1552 33.2644L25.7972 33.6363Z" fill="#B6A47C"/>
<path d="M25.2917 32.0868L25.1022 32.2727L25.1654 32.3347L25.3549 32.1488L25.2917 32.0868Z" fill="#B6A47C"/>
<path d="M17.3518 24.5042L17.7309 24.8761C17.752 24.8554 17.773 24.8347 17.7941 24.8141L17.415 24.4215C17.3939 24.4422 17.3729 24.4628 17.3518 24.5042Z" fill="#B6A47C"/>
<path d="M20.8479 17.0868L20.6794 16.9215L20.6373 17.0042L20.7847 17.1488C20.8058 17.1281 20.8268 17.1075 20.8479 17.0868Z" fill="#B6A47C"/>
<path d="M23.0172 15.1446L22.3853 14.5248C22.3643 14.5454 22.3432 14.5661 22.3221 14.5868L22.9329 15.2066L23.0172 15.1446Z" fill="#B6A47C"/>
<path d="M20.3424 17.6033L20.3214 17.5826C20.3003 17.6033 20.3003 17.6446 20.2792 17.6653L20.3003 17.6859C20.3003 17.6446 20.3214 17.624 20.3424 17.6033Z" fill="#B6A47C"/>
<path d="M21.1217 16.8388L20.89 16.6116C20.869 16.6322 20.8479 16.6736 20.8479 16.6942L21.0585 16.9008C21.0585 16.8802 21.1006 16.8595 21.1217 16.8388Z" fill="#B6A47C"/>
<path d="M22.7433 15.3718L22.1536 14.7933C22.1326 14.814 22.1115 14.8347 22.0905 14.8553L22.6591 15.4132L22.7433 15.3718Z" fill="#B6A47C"/>
<path d="M22.1958 15.8472L21.7114 15.3719L21.6482 15.4546L22.1115 15.9091L22.1958 15.8472Z" fill="#B6A47C"/>
<path d="M22.4696 15.5992L21.9431 15.0826L21.8799 15.1653L22.4064 15.6818L22.4696 15.5992Z" fill="#B6A47C"/>
<path d="M21.922 16.095L21.5008 15.6818L21.4376 15.7437L21.8378 16.157L21.922 16.095Z" fill="#B6A47C"/>
<path d="M21.3744 16.5909L21.0795 16.3016C21.0585 16.3223 21.0374 16.343 21.0374 16.3843L21.3112 16.6529L21.3744 16.5909Z" fill="#B6A47C"/>
<path d="M21.6482 16.3223L21.2902 15.9711C21.2691 15.9917 21.248 16.0124 21.248 16.0537L21.6061 16.405C21.6061 16.3636 21.6271 16.343 21.6482 16.3223Z" fill="#B6A47C"/>
<path d="M20.5952 17.3554L20.4899 17.2521L20.4478 17.3347L20.532 17.4174L20.5952 17.3554Z" fill="#B6A47C"/>
<path d="M30.6833 9.38023L29.6303 8.34717L29.5671 8.40915L30.6201 9.44221C30.6412 9.42155 30.6622 9.40089 30.6833 9.38023Z" fill="#B6A47C"/>
<path d="M28.4087 11.2397L27.3557 10.2067L27.2925 10.2686L28.3455 11.3017L28.4087 11.2397Z" fill="#B6A47C"/>
<path d="M28.1139 11.4463L27.0609 10.4132C27.0398 10.4339 27.0187 10.4545 26.9977 10.4752L28.0297 11.4876L28.1139 11.4463Z" fill="#B6A47C"/>
<path d="M28.7036 11.0123L27.6295 9.95862L27.5663 10.0206L28.6404 11.0743C28.6404 11.0537 28.6825 11.033 28.7036 11.0123Z" fill="#B6A47C"/>
<path d="M28.9984 10.7851L27.9243 9.71069L27.8611 9.77268L28.9352 10.8264C28.9563 10.8264 28.9774 10.8057 28.9984 10.7851Z" fill="#B6A47C"/>
<path d="M23.312 14.8968L22.6381 14.2356C22.617 14.2563 22.596 14.2769 22.5749 14.2976L23.2488 14.9381L23.312 14.8968Z" fill="#B6A47C"/>
<path d="M27.1451 12.1074C27.1661 12.1074 27.1661 12.0868 27.1872 12.0868L26.1973 11.1364L26.1342 11.1983L27.103 12.1487L27.1451 12.1074Z" fill="#B6A47C"/>
<path d="M27.798 11.6529L26.766 10.6405L26.7028 10.7025L27.7137 11.7149C27.7559 11.6942 27.7769 11.6736 27.798 11.6529Z" fill="#B6A47C"/>
<path d="M30.1357 9.87598L29.0616 8.82227L28.9984 8.88425L30.0936 9.93797C30.0936 9.91731 30.1146 9.89665 30.1357 9.87598Z" fill="#B6A47C"/>
<path d="M30.4095 9.62806L29.3354 8.57434L29.2722 8.63632L30.3463 9.69004L30.4095 9.62806Z" fill="#B6A47C"/>
<path d="M29.2933 10.5785L28.1981 9.50415L28.1349 9.56613L29.2301 10.6405C29.2301 10.5992 29.2512 10.5785 29.2933 10.5785Z" fill="#B6A47C"/>
<path d="M29.862 10.1033L28.7668 9.02893L28.7036 9.09091L29.7988 10.1653L29.862 10.1033Z" fill="#B6A47C"/>
<path d="M29.5671 10.3512L28.4719 9.27686C28.4509 9.29752 28.4298 9.31818 28.4088 9.33884L29.5039 10.4132C29.525 10.3719 29.546 10.3719 29.5671 10.3512Z" fill="#B6A47C"/>
<path d="M27.4821 11.8595L26.4711 10.8678L26.408 10.9298L27.4189 11.9009C27.4399 11.9009 27.461 11.8802 27.4821 11.8595Z" fill="#B6A47C"/>
<path d="M24.1755 14.2355L23.3963 13.4711L23.3331 13.5331L24.1123 14.2975C24.1334 14.2562 24.1544 14.2355 24.1755 14.2355Z" fill="#B6A47C"/>
<path d="M24.4704 14.0083L23.6701 13.2231L23.6069 13.2851L24.4072 14.0703L24.4704 14.0083Z" fill="#B6A47C"/>
<path d="M30.936 9.13227L29.9041 8.11987C29.883 8.14053 29.8619 8.1612 29.8409 8.18186L30.8729 9.19425L30.936 9.13227Z" fill="#B6A47C"/>
<path d="M24.7652 13.781L23.9439 12.9752C23.9228 12.9959 23.9017 13.0165 23.8807 13.0372L24.702 13.843L24.7652 13.781Z" fill="#B6A47C"/>
<path d="M26.8713 12.2934L25.9025 11.3636L25.8393 11.405L26.787 12.3347C26.8292 12.3141 26.8502 12.2934 26.8713 12.2934Z" fill="#B6A47C"/>
<path d="M23.8806 14.4422L23.1224 13.6984C23.1014 13.719 23.0803 13.7397 23.0593 13.7603L23.7964 14.4835C23.8385 14.4835 23.8596 14.4628 23.8806 14.4422Z" fill="#B6A47C"/>
<path d="M23.5858 14.6694L22.8698 13.9669C22.8487 13.9876 22.8276 14.0082 22.8066 14.0289L23.5016 14.7107L23.5858 14.6694Z" fill="#B6A47C"/>
<path d="M25.3549 13.3471L24.4914 12.5L24.4282 12.562L25.2707 13.3884C25.2917 13.3678 25.3338 13.3678 25.3549 13.3471Z" fill="#B6A47C"/>
<path d="M26.5765 12.5L25.6498 11.5909C25.6287 11.6116 25.6077 11.6323 25.5866 11.6529L26.5133 12.562L26.5765 12.5Z" fill="#B6A47C"/>
<path d="M26.2605 12.7067L25.3549 11.8182L25.2917 11.8802L26.1974 12.7687L26.2605 12.7067Z" fill="#B6A47C"/>
<path d="M25.9657 12.9132L25.0811 12.0454C25.0601 12.0661 25.039 12.0867 25.0179 12.1074L25.9025 12.9752L25.9657 12.9132Z" fill="#B6A47C"/>
<path d="M25.6498 13.1198L24.7863 12.2521L24.7231 12.3141L25.6076 13.1612L25.6498 13.1198Z" fill="#B6A47C"/>
<path d="M25.06 13.5537L24.2176 12.7273C24.1965 12.748 24.1755 12.7686 24.1544 12.7893L24.9969 13.6157L25.06 13.5537Z" fill="#B6A47C"/>
<path d="M24.0491 16.2603L24.9548 17.1487C24.9969 17.1281 25.0179 17.1281 25.039 17.1074L24.1334 16.219C24.1123 16.2397 24.0702 16.2603 24.0491 16.2603Z" fill="#B6A47C"/>
<path d="M24.702 15.9092L25.6708 16.8389L25.7551 16.7976L24.7863 15.8472L24.702 15.9092Z" fill="#B6A47C"/>
<path d="M23.7122 16.4462L24.5967 17.314L24.681 17.2727L23.7964 16.4049L23.7122 16.4462Z" fill="#B6A47C"/>
<path d="M25.039 15.7231L26.0289 16.6942L26.1131 16.6528L25.1232 15.6818L25.039 15.7231Z" fill="#B6A47C"/>
<path d="M24.3861 16.0951L25.3128 17.0042L25.397 16.9628L24.4493 16.0331L24.3861 16.0951Z" fill="#B6A47C"/>
<path d="M22.7012 17.0041L23.5226 17.8099L23.6068 17.7686L22.7855 16.9628L22.7012 17.0041Z" fill="#B6A47C"/>
<path d="M23.3752 16.6323L24.2176 17.4587L24.3019 17.4174L23.4594 16.5909L23.3752 16.6323Z" fill="#B6A47C"/>
<path d="M22.3853 17.19L23.1856 17.9752C23.2067 17.9545 23.2488 17.9545 23.2699 17.9338L22.4696 17.1281L22.3853 17.19Z" fill="#B6A47C"/>
<path d="M23.0593 16.8182L23.8806 17.6446L23.9649 17.6033L23.1224 16.7769L23.0593 16.8182Z" fill="#B6A47C"/>
<path d="M25.376 15.5372L26.3869 16.5289L26.4711 16.4876L25.4602 15.4958L25.376 15.5372Z" fill="#B6A47C"/>
<path d="M27.9875 14.0289L29.0406 15.0619L29.1248 15.0206L28.0718 13.9875L27.9875 14.0289Z" fill="#B6A47C"/>
<path d="M27.6716 14.2149L28.7247 15.248L28.8089 15.2066L27.7559 14.1736L27.6716 14.2149Z" fill="#B6A47C"/>
<path d="M27.3347 14.4008L28.4088 15.4339C28.4298 15.4132 28.4719 15.3926 28.493 15.3926L27.4189 14.3595L27.3347 14.4008Z" fill="#B6A47C"/>
<path d="M28.3245 13.8223L29.3775 14.8554C29.3986 14.8347 29.4407 14.8347 29.4617 14.8141L28.4087 13.781L28.3245 13.8223Z" fill="#B6A47C"/>
<path d="M25.713 15.3513L26.7239 16.343L26.8081 16.3017L25.7972 15.2893L25.713 15.3513Z" fill="#B6A47C"/>
<path d="M27.0187 14.5867L28.0718 15.6198L28.156 15.5785L27.103 14.5454C27.0609 14.5661 27.0398 14.5661 27.0187 14.5867Z" fill="#B6A47C"/>
<path d="M26.0289 15.1653L27.0609 16.1777L27.1451 16.1364L26.1131 15.124L26.0289 15.1653Z" fill="#B6A47C"/>
<path d="M22.0483 17.3554L22.8487 18.1405L22.9329 18.0992L22.1326 17.3141L22.0483 17.3554Z" fill="#B6A47C"/>
<path d="M26.3658 14.9793L27.4189 16.0124L27.5031 15.971L26.4501 14.938L26.3658 14.9793Z" fill="#B6A47C"/>
<path d="M26.6818 14.7728L27.7348 15.8058C27.7559 15.7852 27.798 15.7852 27.819 15.7645L26.766 14.7314L26.6818 14.7728Z" fill="#B6A47C"/>
<path d="M28.9563 13.4298L29.9672 14.4215L30.0304 14.3595L29.0195 13.3678L28.9563 13.4298Z" fill="#B6A47C"/>
<path d="M18.4891 21.0331L18.6365 21.1777L18.6997 21.1158L18.5101 20.9298C18.5101 20.9711 18.5101 20.9918 18.4891 21.0331Z" fill="#B6A47C"/>
<path d="M18.6576 20.6611L18.9103 20.9091L18.9735 20.8471L18.6997 20.5785C18.6787 20.6198 18.6576 20.6405 18.6576 20.6611Z" fill="#B6A47C"/>
<path d="M29.2722 13.2438L30.2621 14.2149C30.2831 14.1942 30.3042 14.1736 30.3253 14.1529L29.3565 13.2025L29.2722 13.2438Z" fill="#B6A47C"/>
<path d="M19.0367 20.0206L19.4579 20.4339C19.479 20.4132 19.5 20.3925 19.5211 20.3719L19.0788 19.938C19.0577 19.9586 19.0577 20 19.0367 20.0206Z" fill="#B6A47C"/>
<path d="M18.826 20.3306L19.1841 20.6611C19.2051 20.6405 19.2262 20.6198 19.2473 20.5992L18.8892 20.2479C18.8682 20.2892 18.8471 20.3099 18.826 20.3306Z" fill="#B6A47C"/>
<path d="M29.5881 13.0372L30.5359 13.967C30.5569 13.9463 30.578 13.9256 30.5991 13.905L29.6513 12.9752C29.6513 13.0165 29.6303 13.0165 29.5881 13.0372Z" fill="#B6A47C"/>
<path d="M21.7324 17.562L22.5117 18.3471L22.5959 18.3058L21.7956 17.5C21.7745 17.5207 21.7535 17.5413 21.7324 17.562Z" fill="#B6A47C"/>
<path d="M32.6209 10.2893C32.6209 10.31 32.5999 10.3306 32.5999 10.3513L32.663 10.4133C32.642 10.372 32.642 10.3306 32.6209 10.2893Z" fill="#B6A47C"/>
<path d="M18.3627 21.4049L18.4049 21.4463L18.468 21.3843L18.3838 21.3016C18.3838 21.343 18.3627 21.3636 18.3627 21.4049Z" fill="#B6A47C"/>
<path d="M20.5109 18.4091L21.227 19.1116C21.2481 19.0909 21.2691 19.0703 21.3112 19.0703L20.5952 18.3678L20.5109 18.4091Z" fill="#B6A47C"/>
<path d="M20.8058 18.1818L21.5429 18.905L21.6272 18.8636L20.89 18.1405L20.8058 18.1818Z" fill="#B6A47C"/>
<path d="M21.1006 17.9752L21.8588 18.719L21.9431 18.6776L21.1849 17.9338C21.1638 17.9338 21.1217 17.9545 21.1006 17.9752Z" fill="#B6A47C"/>
<path d="M21.4166 17.7686L22.1958 18.5331L22.2801 18.4918L21.5008 17.7273L21.4166 17.7686Z" fill="#B6A47C"/>
<path d="M19.2473 19.7107L19.7317 20.1859C19.7527 20.1652 19.7738 20.1446 19.7948 20.1239L19.2894 19.6281C19.2894 19.6694 19.2683 19.69 19.2473 19.7107Z" fill="#B6A47C"/>
<path d="M20.2371 18.6571L20.9111 19.3182L20.9953 19.2562L20.3214 18.5951L20.2371 18.6571Z" fill="#B6A47C"/>
<path d="M19.4789 19.4421L20.0265 19.9793L20.0897 19.9173L19.5211 19.3595C19.5211 19.3802 19.5 19.4008 19.4789 19.4421Z" fill="#B6A47C"/>
<path d="M19.7106 19.1528L20.3214 19.7313L20.3846 19.6694L19.7738 19.0702L19.7106 19.1528Z" fill="#B6A47C"/>
<path d="M28.6404 13.6363L29.6724 14.6487L29.7566 14.5867L28.7246 13.5743C28.7036 13.595 28.6614 13.6157 28.6404 13.6363Z" fill="#B6A47C"/>
<path d="M19.9633 18.905L20.5951 19.5248L20.6794 19.4835L20.0476 18.8636C20.0265 18.8636 19.9844 18.8843 19.9633 18.905Z" fill="#B6A47C"/>
<path d="M31.3994 11.7562L32.0312 12.3761C32.0522 12.3554 32.0733 12.3141 32.0733 12.2934L31.4415 11.6736L31.3994 11.7562Z" fill="#B6A47C"/>
<path d="M30.22 12.6446L31.0835 13.4917C31.1045 13.4711 31.1256 13.4504 31.1466 13.4297L30.2832 12.5826L30.22 12.6446Z" fill="#B6A47C"/>
<path d="M30.5359 12.4173L31.3573 13.2231L31.4204 13.1611L30.6201 12.376C30.578 12.3966 30.5569 12.3966 30.5359 12.4173Z" fill="#B6A47C"/>
<path d="M31.6732 11.5082L32.2418 12.0661C32.2629 12.0454 32.2629 12.0041 32.2839 11.9834L31.7574 11.4669C31.7153 11.4669 31.6942 11.4876 31.6732 11.5082Z" fill="#B6A47C"/>
<path d="M32.1576 10.9711L32.5156 11.3223C32.5156 11.281 32.5367 11.2603 32.5367 11.219L32.1997 10.8884C32.1997 10.9298 32.1787 10.9504 32.1576 10.9711Z" fill="#B6A47C"/>
<path d="M29.9041 12.8513L30.8097 13.7397C30.8307 13.7191 30.8518 13.6984 30.8729 13.6777L29.9672 12.7893C29.9672 12.81 29.9462 12.8306 29.9041 12.8513Z" fill="#B6A47C"/>
<path d="M31.9259 11.2396L32.3892 11.6942C32.4103 11.6735 32.4103 11.6322 32.4314 11.5909L31.9891 11.157L31.9259 11.2396Z" fill="#B6A47C"/>
<path d="M32.3892 10.6818L32.6209 10.909C32.6209 10.8677 32.642 10.8264 32.642 10.7851L32.4524 10.5991L32.3892 10.6818Z" fill="#B6A47C"/>
<path d="M31.1046 11.9835L31.7996 12.6653C31.8206 12.6446 31.8417 12.624 31.8627 12.6033L31.1677 11.9215C31.1677 11.9422 31.1467 11.9628 31.1046 11.9835Z" fill="#B6A47C"/>
<path d="M30.8307 12.2108L31.5889 12.9752L31.6521 12.9132L30.8939 12.1694L30.8307 12.2108Z" fill="#B6A47C"/>
<path d="M28.1982 18.1612L28.0928 18.0579L28.0086 18.0992L28.135 18.2232C28.156 18.2025 28.1771 18.1818 28.1982 18.1612Z" fill="#B6A47C"/>
<path d="M27.9454 18.4298L27.7137 18.2231L27.6295 18.2645L27.8822 18.5124L27.9454 18.4298Z" fill="#B6A47C"/>
<path d="M26.9766 18.4917L26.8923 18.533L27.3978 19.0082C27.4189 18.9876 27.4399 18.9669 27.461 18.9462L26.9766 18.4917Z" fill="#B6A47C"/>
<path d="M25.376 19.0909L26.1973 19.8966L26.2816 19.8553L25.4813 19.0702L25.376 19.0909Z" fill="#B6A47C"/>
<path d="M24.9969 19.2355L25.8604 20.0826L25.9446 20.0413L25.1022 19.2148C25.0601 19.2148 25.0179 19.2355 24.9969 19.2355Z" fill="#B6A47C"/>
<path d="M26.5132 18.6777L27.1029 19.2562C27.124 19.2355 27.1451 19.2149 27.1661 19.1942L26.5975 18.6364C26.5764 18.657 26.5343 18.657 26.5132 18.6777Z" fill="#B6A47C"/>
<path d="M26.1342 18.8223L26.8292 19.4835L26.8923 19.4215L26.2184 18.781L26.1342 18.8223Z" fill="#B6A47C"/>
<path d="M25.7551 18.9669L26.5133 19.7108C26.5343 19.6901 26.5554 19.6694 26.5975 19.6694L25.8604 18.9463L25.7551 18.9669Z" fill="#B6A47C"/>
<path d="M27.6926 18.6984L27.3346 18.3472L27.2293 18.3885L27.6084 18.7604L27.6926 18.6984Z" fill="#B6A47C"/>
<path d="M20.6162 21.0744L21.3533 21.7975C21.3955 21.7769 21.4165 21.7769 21.4586 21.7562L20.7005 21.0331C20.6794 21.0331 20.6583 21.0537 20.6162 21.0744Z" fill="#B6A47C"/>
<path d="M24.6178 19.3802L25.5234 20.248C25.5445 20.2273 25.5866 20.2273 25.6077 20.2066L24.7231 19.3389C24.681 19.3595 24.6389 19.3595 24.6178 19.3802Z" fill="#B6A47C"/>
<path d="M21.0164 20.8678L20.9532 20.9091L21.7535 21.6736L21.8588 21.6529L21.0585 20.8678H21.0164Z" fill="#B6A47C"/>
<path d="M21.3112 20.7231L22.1537 21.5496L22.259 21.5082L21.3955 20.6611C21.3744 20.7025 21.3323 20.7025 21.3112 20.7231Z" fill="#B6A47C"/>
<path d="M24.2387 19.5248L25.1654 20.4339L25.2496 20.3926L24.323 19.5042L24.2387 19.5248Z" fill="#B6A47C"/>
<path d="M19.9423 21.4256L20.532 22.0041L20.6373 21.9834L20.0265 21.3843L19.9423 21.4256Z" fill="#B6A47C"/>
<path d="M21.6693 20.5578L22.5538 21.4256L22.6591 21.3842L21.7746 20.5165L21.6693 20.5578Z" fill="#B6A47C"/>
<path d="M23.1224 19.9587L24.0702 20.8884L24.1544 20.8471L23.2067 19.9174C23.1856 19.9174 23.1435 19.938 23.1224 19.9587Z" fill="#B6A47C"/>
<path d="M19.6053 21.5909L20.1318 22.1074L20.2371 22.0868L19.6895 21.5496L19.6053 21.5909Z" fill="#B6A47C"/>
<path d="M23.4805 19.814L24.4282 20.7438L24.5335 20.7025L23.5858 19.7727L23.4805 19.814Z" fill="#B6A47C"/>
<path d="M22.7433 20.1033L23.67 21.0331L23.7543 20.9918L22.8487 20.062L22.7433 20.1033Z" fill="#B6A47C"/>
<path d="M22.3853 20.248L23.312 21.1571L23.4173 21.1158L22.4906 20.2067L22.3853 20.248Z" fill="#B6A47C"/>
<path d="M22.0273 20.3925L22.9329 21.2809L23.0382 21.2396L22.1326 20.3512L22.0273 20.3925Z" fill="#B6A47C"/>
<path d="M20.2792 21.2397L20.9532 21.9008L21.0585 21.8802L20.3635 21.1984L20.2792 21.2397Z" fill="#B6A47C"/>
<path d="M17.7098 23.8223L18.0889 24.1942C18.11 24.1529 18.11 24.1322 18.1311 24.0909L17.752 23.719C17.7309 23.7603 17.7098 23.781 17.7098 23.8223Z" fill="#B6A47C"/>
<path d="M17.8572 23.4505L18.2153 23.8017C18.2153 23.7604 18.2363 23.7397 18.2363 23.6984L17.8783 23.3472C17.8783 23.3885 17.8783 23.4298 17.8572 23.4505Z" fill="#B6A47C"/>
<path d="M17.5413 24.1735L17.9415 24.5661C17.9625 24.5454 17.9625 24.5041 17.9836 24.4834L17.5834 24.0702C17.5624 24.1115 17.5624 24.1322 17.5413 24.1735Z" fill="#B6A47C"/>
<path d="M19.2683 21.7769L19.7106 22.2108L19.8159 22.1901L19.3526 21.7356L19.2683 21.7769Z" fill="#B6A47C"/>
<path d="M18.6365 22.19L18.8471 22.3966L18.9524 22.376L18.7208 22.1281L18.6365 22.19Z" fill="#B6A47C"/>
<path d="M18.9524 21.9835L19.2683 22.2934L19.3736 22.2727L19.0156 21.9215L18.9524 21.9835Z" fill="#B6A47C"/>
<path d="M18.3627 22.4173L18.4049 22.4587C18.447 22.4587 18.468 22.438 18.5102 22.438L18.4259 22.3553L18.3627 22.4173Z" fill="#B6A47C"/>
<path d="M18.1732 22.686C18.1732 22.686 18.1732 22.7066 18.1521 22.7273L18.3627 22.9339C18.3627 22.8926 18.3627 22.8513 18.3627 22.8099L18.1942 22.6447C18.1942 22.6447 18.1942 22.6653 18.1732 22.686Z" fill="#B6A47C"/>
<path d="M23.8596 19.6694L24.7863 20.5991C24.8074 20.5785 24.8495 20.5785 24.8705 20.5578L23.9439 19.6281L23.8596 19.6694Z" fill="#B6A47C"/>
<path d="M18.0047 23.0991L18.3206 23.409C18.3206 23.3677 18.3417 23.3264 18.3417 23.3057L18.0468 23.0165C18.0258 23.0371 18.0258 23.0578 18.0047 23.0991Z" fill="#B6A47C"/>
<path d="M12.7184 29.9793L12.8026 30.062C12.8237 30.0413 12.8447 30 12.8447 29.9793L12.7816 29.9174L12.7184 29.9793Z" fill="#B6A47C"/>
<path d="M12.4446 30.2273L12.6342 30.3926C12.6552 30.3719 12.6552 30.3306 12.6763 30.3099L12.5289 30.1447C12.4868 30.186 12.4657 30.2066 12.4446 30.2273Z" fill="#B6A47C"/>
<path d="M11.539 31.3843L11.876 31.7149C11.897 31.6942 11.9181 31.6529 11.9181 31.6322L11.5811 31.3016C11.5811 31.343 11.5601 31.3636 11.539 31.3843Z" fill="#B6A47C"/>
<path d="M11.9602 30.7851L12.2551 31.0744C12.2761 31.0537 12.2761 31.0124 12.2972 30.9917L12.0234 30.7231C12.0023 30.7438 11.9813 30.7645 11.9602 30.7851Z" fill="#B6A47C"/>
<path d="M12.1919 30.4958L12.4236 30.7438L12.4657 30.6611L12.234 30.4338L12.1919 30.4958Z" fill="#B6A47C"/>
<path d="M11.7496 31.0743L12.0655 31.3843C12.0866 31.3636 12.0866 31.3223 12.1077 31.3016L11.7918 30.9917L11.7496 31.0743Z" fill="#B6A47C"/>
<path d="M25.2917 30.1653L25.2075 30.124L24.9548 30.372L25.018 30.4339L25.2917 30.1653Z" fill="#B6A47C"/>
<path d="M25.2707 30.7025L25.5866 30.3926L25.5234 30.3306L25.2075 30.6198C25.2496 30.6405 25.2496 30.6611 25.2707 30.7025Z" fill="#B6A47C"/>
<path d="M25.4813 31.0124L25.8393 30.6405L25.7761 30.5579L25.4181 30.9091L25.4813 31.0124Z" fill="#B6A47C"/>
<path d="M25.7761 31.219L25.9868 31.0124C25.9868 30.971 25.9657 30.9504 25.9446 30.9091L25.6708 31.1777L25.7761 31.219Z" fill="#B6A47C"/>
<path d="M24.9548 30.0001L24.8495 29.9587L24.6389 30.1654L24.7231 30.2067L24.9548 30.0001Z" fill="#B6A47C"/>
<path d="M24.1123 29.7934C24.0702 29.7934 24.0281 29.7934 24.007 29.7727L23.9438 29.8347L24.0281 29.876L24.1123 29.7934Z" fill="#B6A47C"/>
<path d="M24.7442 29.1735L24.9548 28.9876C24.9337 28.9462 24.9337 28.9256 24.9126 28.9049L24.6178 29.1942H24.7442V29.1735Z" fill="#B6A47C"/>
<path d="M24.5546 29.876L24.4493 29.8553L24.3019 30L24.3861 30.0413L24.5546 29.876Z" fill="#B6A47C"/>
<path d="M23.7122 28.1612L23.6069 28.1405L23.5016 28.2231C23.5226 28.2438 23.5437 28.2645 23.5648 28.2851L23.7122 28.1612Z" fill="#B6A47C"/>
<path d="M24.0913 28.2851L24.0071 28.2438L23.8175 28.4297L23.8807 28.4917L24.0913 28.2851Z" fill="#B6A47C"/>
<path d="M24.1334 28.7603L24.4493 28.4504L24.365 28.4091L24.0702 28.6983C24.0913 28.719 24.1123 28.7396 24.1334 28.7603Z" fill="#B6A47C"/>
<path d="M24.344 29.0703L24.7442 28.6777C24.7231 28.657 24.702 28.6364 24.681 28.6157L24.3019 28.9876L24.344 29.0703Z" fill="#B6A47C"/>
<path d="M16.7831 24.9587L16.8884 25.062C16.9306 25.062 16.9938 25.0826 17.0359 25.0826L16.8674 24.9174C16.8463 24.938 16.8253 24.9587 16.7831 24.9587Z" fill="#B6A47C"/>
<path d="M17.1201 24.7727L17.415 25.0413C17.436 25.0413 17.4782 25.0206 17.5203 25L17.2044 24.6901C17.1622 24.7314 17.1412 24.752 17.1201 24.7727Z" fill="#B6A47C"/>
</g>
<defs>
<clipPath id="clip0_11_1376">
<rect width="27" height="30" fill="white" transform="translate(6 5)"/>
</clipPath>
</defs>
</svg>
