<svg width="40" height="40" viewBox="0 0 40 40" fill="none" xmlns="http://www.w3.org/2000/svg">
<path d="M23.5579 15.1172H15.3528V35.9976H23.5579V15.1172Z" fill="#153152"/>
<path d="M23.9991 9.50045C23.9991 10.3904 23.7352 11.2603 23.2408 12.0003C22.7464 12.7402 22.0436 13.3169 21.2214 13.6575C20.3993 13.998 19.4946 14.0872 18.6217 13.9135C17.7489 13.7399 16.9472 13.3114 16.3179 12.6821C15.6886 12.0528 15.2601 11.2511 15.0865 10.3783C14.9128 9.50544 15.002 8.60073 15.3425 7.77855C15.6831 6.95636 16.2598 6.25363 16.9997 5.75921C17.7397 5.26479 18.6096 5.0009 19.4996 5.0009C20.0938 4.98889 20.6842 5.09707 21.2356 5.31895C21.7869 5.54082 22.2877 5.87181 22.708 6.29205C23.1282 6.71229 23.4592 7.2131 23.6811 7.76444C23.9029 8.31578 24.0111 8.90627 23.9991 9.50045Z" fill="#AD1923"/>
</svg>
