<svg width="40" height="40" viewBox="0 0 40 40" fill="none" xmlns="http://www.w3.org/2000/svg">
<path fill-rule="evenodd" clip-rule="evenodd" d="M4.04596 21.6901C5.71623 20.6141 7.84154 20.4795 9.96724 20.8832C12.0931 21.4214 13.9148 22.6315 16.0407 23.1693C18.6218 23.9758 21.2032 23.7071 23.7834 23.438C26.2126 23.1693 28.6425 22.0933 30.9198 21.286L32.5375 20.7648C30.2598 21.5721 27.8306 22.648 25.4014 22.9168C22.8201 23.1858 20.239 23.4546 17.6585 22.6481C15.5327 22.1099 13.7103 20.8993 11.5851 20.3611C9.45942 19.9583 7.33353 20.0928 5.66399 21.1684L4.04596 21.6901Z" fill="#ED1639"/>
<path d="M4.04596 21.6897C5.71627 20.6136 7.84153 20.4793 9.96725 20.8829C12.0932 21.4212 13.9148 22.6315 16.0407 23.1694C18.6219 23.9758 21.2032 23.7072 23.7837 23.4379C26.2128 23.1694 28.6427 22.0933 30.9197 21.2861L32.5376 20.7648C30.2598 21.572 27.8307 22.6477 25.4016 22.9166C22.8203 23.1859 20.239 23.4545 17.6585 22.6477C15.5327 22.1098 13.7103 20.8991 11.5851 20.3612C9.45942 19.958 7.33355 20.0927 5.664 21.1684L4.04596 21.6897Z" stroke="#ED1639" stroke-width="0.149542" stroke-miterlimit="2.6131"/>
<path fill-rule="evenodd" clip-rule="evenodd" d="M1.00006 18.58C3.1863 17.3649 5.9699 17.2134 8.75291 17.6689C11.5362 18.2767 13.9214 19.6433 16.7046 20.2507C20.0843 21.1618 23.4636 20.8581 26.8434 20.554C30.0241 20.2507 33.2048 19.0359 36.1872 18.1245L38.305 17.5359C35.3234 18.4466 32.1427 19.6618 28.9612 19.9659C25.5821 20.2688 22.2023 20.5729 18.8231 19.6618C16.0399 19.054 13.6538 17.6874 10.8708 17.0804C8.08767 16.6241 5.30465 16.7763 3.11799 17.9915L1.00006 18.58Z" fill="#ED1639"/>
<path d="M1 18.5793C3.18626 17.3644 5.96988 17.2128 8.75286 17.6683C11.5362 18.2762 13.9214 19.6424 16.7045 20.2502C20.0843 21.1613 23.4637 20.8573 26.8435 20.5534C30.024 20.2502 33.2048 19.0352 36.1871 18.1238L38.3047 17.5352C35.3232 18.4462 32.1423 19.6608 28.9611 19.9651C25.5821 20.2679 22.2023 20.5719 18.8231 19.6608C16.0399 19.0533 13.6538 17.6868 10.8708 17.0797C8.08765 16.6238 5.30464 16.7757 3.11792 17.9907L1 18.5793Z" stroke="#ED1639" stroke-width="0.149542" stroke-miterlimit="2.6131"/>
<path fill-rule="evenodd" clip-rule="evenodd" d="M6.80701 16.2012C8.5785 14.9864 10.8331 14.8342 13.0869 15.2897C15.3415 15.8975 17.2739 17.2637 19.5279 17.8719C22.2657 18.7825 25.0032 18.4785 27.7402 18.1755C30.317 17.8719 31.6533 17.2072 34.0686 16.2961L35.3883 15.7437C32.9734 16.6552 32.0323 17.2825 29.4559 17.5862C26.7188 17.8899 23.9814 18.1932 21.2435 17.2825C18.9896 16.6755 17.0571 15.3082 14.803 14.7011C12.5486 14.2456 10.2939 14.3971 8.52325 15.6118L6.80701 16.2012Z" fill="#ED1639"/>
<path d="M6.80701 16.1989C8.5785 14.9839 10.8331 14.832 13.0869 15.2871C15.3415 15.895 17.2739 17.2615 19.5279 17.8694C22.266 18.7805 25.0032 18.4761 27.7404 18.1733C30.317 17.8694 31.6534 17.205 34.0687 16.2939L35.3885 15.7415C32.9732 16.6529 32.0325 17.28 29.4562 17.5839C26.7187 17.8879 23.9815 18.191 21.2435 17.28C18.9896 16.6733 17.0571 15.306 14.803 14.6989C12.5486 14.2433 10.2938 14.3949 8.52326 15.6095L6.80701 16.1989Z" stroke="#ED1639" stroke-width="0.149542" stroke-miterlimit="2.6131"/>
<path fill-rule="evenodd" clip-rule="evenodd" d="M11.9615 14.0162C13.3165 12.9229 15.0408 12.7861 16.7655 13.1962C18.4903 13.7429 19.968 14.973 21.6929 15.5197C23.7868 16.3393 25.8808 16.0659 27.9755 15.793C29.9464 15.5197 30.1006 15.201 31.9481 14.381L32.4194 14.1969C30.5719 15.0168 31.2581 14.9895 29.2879 15.2629C27.1932 15.5362 25.0993 15.8095 23.0057 14.9895C21.2808 14.4429 19.8029 13.2128 18.0779 12.6653C16.3533 12.2559 14.6292 12.3924 13.274 13.4861L11.9615 14.0162Z" fill="#ED1639"/>
<path d="M11.9616 14.0162C13.3165 12.9232 15.0409 12.7863 16.7655 13.1964C18.4903 13.7431 19.9681 14.9731 21.693 15.5198C23.7868 16.3396 25.8806 16.0665 27.9755 15.7933C29.9464 15.5198 30.1004 15.2012 31.9484 14.3813L32.4197 14.1971C30.5721 15.0169 31.2581 14.9896 29.288 15.2631C27.1935 15.5363 25.0993 15.8098 23.0055 14.9896C21.2808 14.4429 19.8029 13.2129 18.078 12.6658C16.3533 12.2561 14.6293 12.3927 13.274 13.4865L11.9616 14.0162Z" stroke="#ED1639" stroke-width="0.149542" stroke-miterlimit="2.6131"/>
<path fill-rule="evenodd" clip-rule="evenodd" d="M9.20648 24.7685C10.242 24.1719 11.5605 24.0977 12.8791 24.321C14.1977 24.619 15.3281 25.2902 16.6468 25.5885C18.2473 26.0352 19.8486 25.8864 21.4496 25.7373C22.9565 25.5885 24.5914 25.274 26.0042 24.8266C26.0042 24.8266 23.9595 25.299 22.4533 25.4482C20.8518 25.5969 19.2511 25.7465 17.6498 25.299C16.3313 25.0003 15.2014 24.3303 13.8828 24.0316C12.5643 23.8086 11.2459 23.8828 10.2094 24.4794L9.20648 24.7685Z" fill="#ED1639"/>
<path d="M9.20648 24.7709C10.2421 24.1742 11.5605 24.0999 12.8791 24.3234C14.1977 24.6212 15.3281 25.2926 16.6469 25.5907C18.2473 26.0378 19.8487 25.8885 21.4494 25.7396C22.9563 25.5907 24.5914 25.2764 26.0042 24.829C26.0042 24.829 23.9596 25.3014 22.4531 25.4507C20.8517 25.5992 19.2512 25.7489 17.6498 25.3014C16.3314 25.0029 15.2014 24.3327 13.8828 24.0341C12.5643 23.811 11.2459 23.8852 10.2094 24.4816L9.20648 24.7709Z" stroke="#ED1639" stroke-width="0.149542" stroke-miterlimit="2.6131"/>
<path fill-rule="evenodd" clip-rule="evenodd" d="M11.9756 27.2612C12.6401 26.7314 13.4865 26.6649 14.3324 26.8637C15.1789 27.1289 15.9039 27.7256 16.7504 27.99C17.7773 28.3875 18.8049 28.2553 19.8322 28.1231C20.0113 28.0984 21.0729 27.8013 21.1667 27.7767C21.3254 27.7344 22.6636 27.1908 22.7213 27.1628C22.8381 27.1062 20.8695 27.812 20.4763 27.8655C19.449 27.9989 18.4213 28.1311 17.3935 27.7332C16.5478 27.468 15.823 26.8725 14.9765 26.6069C14.1304 26.4081 13.284 26.4746 12.6195 27.0048L11.9756 27.2612Z" fill="#ED1639"/>
<path d="M11.9756 27.2618C12.6401 26.732 13.4865 26.6654 14.3324 26.8643C15.1789 27.1294 15.9039 27.7261 16.7503 27.9908C17.7773 28.3883 18.8049 28.2559 19.8322 28.1236C20.0113 28.0989 21.073 27.8019 21.1667 27.7773C21.3254 27.735 22.6636 27.1914 22.7212 27.1633C22.8384 27.1067 20.8698 27.8123 20.4761 27.8662C19.449 27.9993 18.4212 28.1316 17.3935 27.7338C16.5478 27.4688 15.8229 26.8732 14.9765 26.6073C14.1304 26.4088 13.284 26.4754 12.6195 27.0052L11.9756 27.2618Z" stroke="#ED1639" stroke-width="0.149542" stroke-miterlimit="2.6131"/>
<path fill-rule="evenodd" clip-rule="evenodd" d="M16.9966 11.8331C17.6618 11.2508 18.5075 11.1777 19.354 11.3961C20.1997 11.6874 20.9248 12.3437 21.7713 12.6351C22.7985 13.0725 23.8261 12.9268 24.8532 12.7811C25.0324 12.7542 25.2553 12.6631 25.3491 12.6358C25.5083 12.5885 25.7474 12.4793 25.8051 12.449C25.9219 12.3863 25.8915 12.4381 25.4971 12.4978C24.47 12.6443 23.4424 12.7899 22.4152 12.3521C21.5687 12.0611 20.8437 11.4049 19.9981 11.1135C19.1516 10.8948 18.3059 10.9674 17.6406 11.5506L16.9966 11.8331Z" fill="#ED1639"/>
<path d="M16.9966 11.834C17.6618 11.2515 18.5076 11.1784 19.3541 11.3969C20.1998 11.6881 20.9251 12.3445 21.7713 12.6357C22.7984 13.0735 23.8259 12.9277 24.8531 12.7823C25.0324 12.755 25.2552 12.6638 25.349 12.6365C25.5084 12.5892 25.7473 12.4803 25.8053 12.4495C25.922 12.3872 25.8913 12.4395 25.4968 12.4988C24.4701 12.6453 23.4426 12.7908 22.4155 12.3529C21.5689 12.0621 20.8437 11.4057 19.9981 11.1145C19.1516 10.8956 18.3059 10.9683 17.6407 11.5516L16.9966 11.834Z" stroke="#ED1639" stroke-width="0.149542" stroke-miterlimit="2.6131"/>
</svg>
