<svg width="40" height="40" viewBox="0 0 40 40" fill="none" xmlns="http://www.w3.org/2000/svg">
<g clip-path="url(#clip0_101_1207)">
<path d="M13.0029 22.7345H18.675L14.847 29.4124H20.5191L24.375 22.7345H30.9691V29.4124H36.3617V11.5859H30.9691V18.2639H26.9735L30.8014 11.5859H25.1294L21.2735 18.2639H15.6014L19.4294 11.5859H13.7573L3.58673 29.1889V29.4124H9.14702L13.0029 22.7345Z" fill="#FFDD00"/>
<path d="M3.58676 29.1897L13.7574 11.5868H19.4294L15.6015 18.2647H21.2735L25.1294 11.5868H30.8015L26.9735 18.2647H30.9971V11.5868H36.3897V29.3853H30.9971V22.7353H24.375L20.5191 29.4132H14.8471L18.675 22.7353H13.0029L9.14706 29.4132H3.58676V29.1897ZM3 30H36.9485V29.6926V11H3V30Z" fill="#002D62"/>
</g>
<defs>
<clipPath id="clip0_101_1207">
<rect width="33.9485" height="19" fill="white" transform="translate(3 11)"/>
</clipPath>
</defs>
</svg>
