<svg width="40" height="40" viewBox="0 0 40 40" fill="none" xmlns="http://www.w3.org/2000/svg">
<g clip-path="url(#clip0_101_1291)">
<path d="M22.3807 15.5695C21.8872 17.1252 21.7138 18.5935 21.876 20.3145C21.876 20.3167 21.876 20.3193 21.8766 20.322C21.8771 20.3257 21.8776 20.3305 21.8776 20.3348C21.9762 21.3657 22.1941 22.4868 22.5355 23.7721C22.8117 24.8148 22.9013 25.8527 22.8647 26.8473C22.6262 29.4025 21.083 31.3241 19.2297 32.4004C19.2286 32.3999 19.2281 32.3993 19.227 32.3988C19.2281 32.3993 19.2286 32.3999 19.2297 32.3999C19.3633 31.2511 19.3219 29.8799 19.0208 28.2047C18.628 26.0191 17.809 25.2964 17.6929 25.1503C17.6854 25.1412 17.6775 25.1332 17.6812 25.1231C17.6833 25.1156 17.705 25.106 17.7119 25.1012C18.3958 24.6708 18.9938 24.1503 19.2742 23.9103C19.4894 23.7263 19.4046 23.6436 19.1899 23.7428C18.6163 24.0073 17.6584 24.3449 16.445 24.4964C15.3784 24.6287 14.114 24.6127 12.7384 24.3449C12.7384 24.3449 11.7746 24.2015 11.9167 23.2148C11.9559 22.9385 12.0943 22.6553 12.2045 22.3807C12.2395 22.2937 12.3317 22.0265 12.2819 21.81C12.2692 21.7556 12.2008 21.6559 12.161 21.594C12.09 21.4847 12.064 21.3337 12.1377 21.1577C12.2008 21.0084 12.4542 20.7897 12.811 20.7551C13.217 20.7167 13.7185 20.7759 14.1023 20.7076C14.6616 20.6073 14.9956 20.2265 14.9293 20.1017C14.8853 20.0185 14.387 20.1193 14.2174 20.1535C13.9677 20.2036 13.5139 20.0009 13.2764 19.9231C12.9075 19.802 12.7156 19.7055 12.3964 19.8425C12.1971 19.9284 12.0402 20.3321 11.9845 20.1444C11.9585 20.0575 12.0078 19.9625 12.0768 19.8601C12.1414 19.7636 12.2713 19.5817 12.2893 19.4788C12.3095 19.362 12.337 19.1967 12.0158 18.9673C11.7878 18.8057 11.6315 18.674 11.535 18.5753C11.227 18.2623 11.1734 17.9385 11.764 17.4335C12.186 17.0719 13.1174 16.1044 13.4005 15.5135C13.4455 15.4207 13.6703 15.0511 13.4233 14.6809C13.233 14.3961 13.1985 14.3412 13.1487 14.2441C13.0119 13.9785 13.11 13.7428 13.3347 13.3887C13.4445 13.2159 13.5303 13.0063 13.7652 12.2671C14.026 11.4452 14.4475 10.7172 15.0226 10.0969L15.021 10.098L15.0232 10.0964C15.0666 10.0591 15.7219 9.32892 16.463 9.10972C16.6453 9.40892 17.0233 9.81745 17.7824 10.2079C18.5575 10.6068 19.411 10.8287 19.411 10.8287C19.411 10.8287 20.4755 11.1359 21.5537 11.5247C22.4141 11.834 23.3105 12.9567 23.3105 13.1887C23.3105 13.6676 22.843 14.1145 22.3807 15.5695Z" fill="white"/>
<path d="M6.95044 16.8801C6.95044 23.0407 11.3356 28.1591 17.1038 29.1809C17.0572 29.6284 17.0015 30.0455 16.9342 30.3794C16.5382 32.3511 15.1959 34.1639 14.4697 34.5938C16.411 34.4247 17.9541 33.8407 18.8734 32.925H18.8713C18.8066 32.9255 18.1991 32.918 18.1455 32.917C18.5124 32.7751 18.875 32.6012 19.2264 32.3975C19.227 32.3975 19.227 32.397 19.227 32.397C19.227 32.3959 19.2275 32.3948 19.2275 32.3938C19.228 32.3943 19.2291 32.3948 19.2296 32.3953C19.3632 31.2465 19.3219 29.8748 19.0207 28.1996C18.6285 26.0146 17.8094 25.2914 17.6928 25.1458C17.6854 25.1362 17.6774 25.1282 17.6811 25.1186C17.6838 25.1106 17.705 25.1015 17.7124 25.0967C18.3963 24.6658 18.9942 24.1458 19.2747 23.9058C19.4894 23.7218 19.4046 23.6391 19.1899 23.7383C18.6163 24.0028 17.6589 24.3404 16.4449 24.4919C15.3783 24.6241 14.114 24.6082 12.7383 24.3399C12.7383 24.3399 11.7751 24.1969 11.9171 23.2103C11.9558 22.934 12.0942 22.6508 12.2045 22.3762C12.2394 22.2898 12.3317 22.022 12.2819 21.8055C12.2697 21.7511 12.2013 21.6513 12.161 21.5895C12.09 21.4801 12.0645 21.3292 12.1382 21.1527C12.2007 21.0039 12.4541 20.7852 12.8115 20.7506C12.9875 20.734 13.182 20.7351 13.3771 20.7372C13.6305 20.7394 13.8855 20.7415 14.1028 20.7026C14.6616 20.6034 14.9955 20.222 14.9298 20.0972C14.8853 20.014 14.387 20.1148 14.2173 20.149C13.9682 20.1991 13.5144 19.9959 13.2769 19.9186C12.9079 19.7975 12.716 19.701 12.3964 19.838C12.1976 19.9239 12.0407 20.3276 11.9845 20.1399C11.959 20.0529 12.0078 19.958 12.0767 19.8556C12.1414 19.7591 12.2713 19.5772 12.2898 19.4738C12.3094 19.3575 12.3375 19.1922 12.0163 18.9634C11.7883 18.8007 11.6314 18.6695 11.5349 18.5703C11.2269 18.2583 11.1734 17.9345 11.7645 17.4284C12.1859 17.0673 13.1173 16.0999 13.4009 15.5089C13.4455 15.4161 13.6708 15.0466 13.4237 14.6764C13.2334 14.3916 13.199 14.3367 13.1491 14.2396C13.0124 13.974 13.1099 13.7378 13.3347 13.3842C13.4444 13.2114 13.5303 13.0017 13.7651 12.2631C14.026 11.4407 14.4474 10.7127 15.0231 10.0929H15.0215C15.0613 9.97242 15.1297 9.02149 15.6805 8.13509C15.8596 7.79002 16.0998 7.42468 16.4274 7.06895C16.6479 6.83055 16.9946 6.55375 17.4516 6.28708C17.9086 6.02042 18.4742 5.76388 19.1326 5.56655C19.923 5.32922 20.8454 5.17615 21.8701 5.19162C22.6356 5.20282 23.3646 5.26362 24.2313 5.49722C24.2313 5.49722 24.2324 5.49775 24.2329 5.49775C24.2366 5.49882 24.2732 5.50842 24.3363 5.52709C22.7798 4.80016 21.049 4.39375 19.2243 4.39375C12.4457 4.39375 6.95044 9.98362 6.95044 16.8801ZM11.8498 18.4183C11.8339 18.4594 11.8721 18.4801 11.9193 18.5031C12.1461 18.6092 12.2511 18.6636 12.6588 18.9095C13.1353 19.197 13.3426 18.9591 13.4444 18.7756C13.473 18.726 13.5154 18.5223 13.4688 18.4503C13.4221 18.3783 13.3347 18.4247 13.2424 18.5154C13.1385 18.6172 12.8851 18.5623 12.8003 18.5532C12.7166 18.5436 12.3274 18.4449 12.074 18.3916C12.0269 18.3815 11.9882 18.3777 11.9564 18.3777C11.8917 18.3777 11.8583 18.3953 11.8498 18.4183Z" fill="url(#paint0_linear_101_1291)"/>
<mask id="mask0_101_1291" style="mask-type:luminance" maskUnits="userSpaceOnUse" x="-8" y="4" width="55" height="48">
<path d="M-7.52997 51.0684H46.1065V4.40116H-7.52997V51.0684Z" fill="white"/>
</mask>
<g mask="url(#mask0_101_1291)">
<path d="M17.4277 12.6602C17.3662 12.6415 15.7403 12.2826 15.2012 12.3183C14.6626 12.353 14.1982 12.6692 13.9146 12.9951C13.7609 13.1716 13.6914 13.3503 13.6649 13.5012C13.641 13.7631 13.8277 13.8868 14.0477 13.8164C14.2083 13.7647 14.326 13.6495 14.4919 13.4015C14.5937 13.249 14.6552 13.0554 14.8121 12.9551C15.0713 12.7903 15.5166 12.7487 16.2439 12.7679C16.8 12.7828 17.249 12.8106 17.3588 12.8154C17.5613 12.8244 17.5152 12.6874 17.4277 12.6602Z" fill="#413691"/>
<path d="M16.4878 14.17C16.1841 13.9892 15.7753 13.9994 15.6953 13.9844C15.6153 13.9695 15.5999 13.8879 15.7202 13.8292C15.8846 13.7487 16.1926 13.8159 16.2037 13.7636C16.2138 13.7183 16.1438 13.6026 15.9095 13.513C15.7833 13.4639 15.5432 13.4314 15.3693 13.4495C14.8699 13.5023 14.6038 13.8148 14.5476 13.8724C14.4914 13.9295 14.4066 14.0159 14.3848 14.1482C14.3557 14.3231 14.467 14.458 14.573 14.6314C14.6271 14.7188 14.6748 14.7828 14.6923 14.849C14.7172 14.9434 14.7008 14.9818 14.6229 15.0431C14.5354 15.1119 14.5868 15.233 14.7628 15.1839C14.9616 15.1274 15.0703 15.0708 15.2203 14.9434C15.4345 14.7626 15.4308 14.6463 15.5803 14.4959C15.7298 14.3455 16.2005 14.3466 16.4428 14.3807C16.7274 14.4207 16.7921 14.3503 16.4878 14.17Z" fill="#413691"/>
<path d="M31.6258 16.5093C31.6205 15.9536 31.4651 14.8442 31.4402 14.601C31.3729 13.929 31.2128 12.9941 30.6996 11.7024C30.1398 10.2949 29.6871 9.30184 28.3173 7.94237C26.7036 6.3413 24.802 5.67784 24.343 5.54024C24.2751 5.51944 24.2369 5.50984 24.2327 5.50877L24.2316 5.50824C23.3644 5.27464 22.6354 5.21384 21.8705 5.20264C19.1372 5.16157 17.1317 6.31677 16.4277 7.07997C16.0996 7.4357 15.86 7.80104 15.6808 8.1461C15.13 9.0325 15.0616 9.98344 15.0219 10.1045L15.0234 10.1029C15.0664 10.0656 15.7221 9.33544 16.4632 9.11624C16.6456 9.41544 17.0236 9.82397 17.7827 10.2144C18.5578 10.6133 19.4107 10.8346 19.4107 10.8346C19.4107 10.8346 20.4757 11.1424 21.554 11.5306C22.4144 11.8405 23.3108 12.9632 23.3108 13.1946C23.3108 13.6736 22.8432 14.1205 22.381 15.576C21.8869 17.1317 21.7141 18.6 21.8758 20.321C21.8763 20.3232 21.8763 20.3258 21.8768 20.328C21.8774 20.3322 21.8774 20.337 21.8779 20.3413C21.9765 21.3717 22.1944 22.4933 22.5352 23.7786H22.5358C22.812 24.8213 22.9016 25.8592 22.865 26.8538C22.6259 29.409 21.0832 31.3306 19.2299 32.4069C19.2289 32.4064 19.2284 32.4053 19.2273 32.4048C19.2273 32.4058 19.2273 32.4069 19.2273 32.408C18.8753 32.6117 18.5127 32.7861 18.1453 32.928C18.1989 32.9296 18.8069 32.9365 18.8711 32.9354C20.4275 32.9173 22.6301 32.6149 24.5168 30.6245C25.1684 29.9376 25.6789 29.2192 26.0012 28.5418C26.1332 28.2586 26.6946 27.2533 27.0121 25.2576C27.054 24.9909 27.1939 24.1333 27.1939 24.1333C27.1939 24.1333 27.2819 24.744 27.2931 25.289C27.3074 26.0368 27.335 26.9765 26.8934 28.4016C27.0434 28.3685 27.7787 27.8176 28.6497 26.6314C28.9683 26.1984 29.2614 25.7461 29.5297 25.2794C30.7807 23.3088 31.6692 20.9605 31.6258 16.5093Z" fill="#413691"/>
<path d="M24.8721 12.1484C24.8636 12.2332 24.8928 12.2646 24.9702 12.2022C25.3089 11.9276 25.8714 11.5073 26.6374 11.3692C27.5535 11.2044 28.0725 10.7542 28.3116 10.2449C28.4542 9.93878 28.5702 9.38838 29.0161 9.05878C29.1582 8.95371 29.0134 8.91638 28.8952 8.93825C28.7839 8.95851 28.1785 9.12278 27.7846 9.55691C27.5222 9.27425 27.5413 8.88651 27.5784 8.66198C27.5954 8.59531 27.5434 8.54731 27.4554 8.61985C27.1554 8.86304 26.955 9.18518 26.8898 9.41771C26.8898 9.41771 26.6507 9.24491 26.7737 8.81025C26.7943 8.73771 26.7445 8.76491 26.7185 8.78305C26.2876 9.09985 26.3247 9.57291 26.3209 9.63691C26.3209 9.63691 25.8857 9.39425 25.2194 9.30198C25.1038 8.85558 24.3929 8.73825 24.2763 9.19585C24.1708 9.61078 24.8568 9.92651 25.1483 9.58198C25.1483 9.58198 26.0877 9.68118 26.9221 10.5212C27.0069 10.6065 27.0345 10.6748 26.982 10.7238C26.9433 10.7601 26.823 10.686 26.6761 10.5841C26.5107 10.4684 25.3742 9.73185 24.3913 10.238C24.3415 10.2636 24.3378 10.3068 24.3844 10.3174C24.57 10.3718 24.9829 10.5153 25.0874 10.7873C24.8249 10.8561 24.4046 11.0172 24.1029 11.6422C24.0245 11.8044 24.1262 11.8268 24.2116 11.7606C24.3139 11.6828 24.9273 11.3452 25.1568 11.3692C25.1568 11.3692 24.949 11.6753 24.8721 12.1484ZM32.7094 7.43745C32.6707 7.75371 32.7683 8.64385 33.01 9.47265C33.2639 10.3478 32.8128 11.1206 32.0309 11.5745C31.786 11.1926 31.2924 11.0017 30.8535 10.9857C30.5964 10.9761 30.6669 11.0812 30.7936 11.1345C32.6135 11.9014 31.9715 14.0358 31.7367 14.4892C31.4965 14.9521 31.5538 15.5633 31.5538 15.5633C30.9881 15.3969 30.4691 15.5068 30.0127 15.5793C29.1089 15.7238 28.5066 15.5622 28.0364 15.3457C27.6627 15.1734 27.0748 14.782 26.9852 14.0342C26.9682 13.8977 26.8808 13.8033 26.8272 14.0566C26.736 14.4892 26.7996 15.0172 27.1076 15.3494C26.771 17.0161 23.5209 16.8945 23.5209 16.8945C23.3051 16.175 21.8276 15.9564 21.4937 14.9105C21.3352 14.4145 21.465 13.8966 21.465 13.8966C22.3148 14.1025 22.8068 13.6908 23.0824 13.3457C23.2431 13.1441 23.1148 13.135 23.0003 13.2086C21.9236 13.8929 20.9222 13.2092 20.7128 12.2444C20.4334 11.1889 19.4108 10.8364 19.4108 10.8364C20.1556 10.3644 19.9457 9.54891 20.3338 8.85878C21.3553 7.04011 22.8084 7.58465 22.8084 7.58465C22.9489 8.01611 23.3772 8.32811 23.7981 8.45611C24.0436 8.53078 24.0049 8.40811 23.8935 8.32758C22.8614 7.57984 23.1164 6.38891 23.929 5.83318C25.3466 4.86198 25.5894 4.44171 25.5894 4.44171C25.8497 4.64011 26.5399 4.81238 27.2667 4.87691C28.8942 5.02251 29.2774 5.87531 29.3103 6.20065C29.1184 6.30251 28.7908 6.60918 28.6381 7.09878C28.5618 7.34518 28.6848 7.30678 28.7659 7.19584C29.3994 6.32278 30.1797 6.48705 30.9118 6.82465C31.3741 7.03851 32.0441 7.58251 32.7094 7.43745Z" fill="#EF3138"/>
</g>
</g>
<defs>
<linearGradient id="paint0_linear_101_1291" x1="16.1298" y1="7.33946" x2="15.4418" y2="24.3658" gradientUnits="userSpaceOnUse">
<stop stop-color="#D2068A"/>
<stop offset="0.736963" stop-color="#413691"/>
<stop offset="1" stop-color="#413691"/>
</linearGradient>
<clipPath id="clip0_101_1291">
<rect width="33" height="33.6" fill="white" transform="translate(4 4)"/>
</clipPath>
</defs>
</svg>
