<svg width="40" height="40" viewBox="0 0 40 40" fill="none" xmlns="http://www.w3.org/2000/svg">
<g clip-path="url(#clip0_101_1363)">
<path d="M13.0029 21.7345H18.675L14.847 28.4124H20.5191L24.375 21.7345H30.9691V28.4124H36.3617V10.5859H30.9691V17.2639H26.9735L30.8014 10.5859H25.1294L21.2735 17.2639H15.6014L19.4294 10.5859H13.7573L3.58673 28.1889V28.4124H9.14702L13.0029 21.7345Z" fill="#FFDD00"/>
<path d="M3.58676 28.1897L13.7574 10.5868H19.4294L15.6015 17.2647H21.2735L25.1294 10.5868H30.8015L26.9735 17.2647H30.9971V10.5868H36.3897V28.3853H30.9971V21.7353H24.375L20.5191 28.4132H14.8471L18.675 21.7353H13.0029L9.14706 28.4132H3.58676V28.1897ZM3 29H36.9485V28.6926V10H3V29Z" fill="#002D62"/>
</g>
<defs>
<clipPath id="clip0_101_1363">
<rect width="33.9485" height="19" fill="white" transform="translate(3 10)"/>
</clipPath>
</defs>
</svg>
