<svg width="40" height="40" viewBox="0 0 40 40" fill="none" xmlns="http://www.w3.org/2000/svg">
<path d="M15.0439 7.61188C16.3273 7.2848 17.642 7.08771 18.963 7C16.5577 7.21136 14.1488 7.87397 12.1166 9.20869C10.8442 10.0499 9.71024 11.1928 9.14433 12.6306C8.68463 13.7804 8.66402 15.0982 9.10206 16.2575C9.61989 17.6572 10.6841 18.7896 11.8925 19.6339C12.9081 20.3473 14.0484 20.8619 15.2198 21.2614C16.4182 21.6608 17.6399 22.0423 18.7215 22.7102C19.4142 23.1356 20.0493 23.6952 20.4256 24.4265C20.703 23.8838 21.1294 23.4283 21.6123 23.0632C22.751 22.2067 24.1238 21.7586 25.4612 21.319C26.9032 20.8413 28.3076 20.1898 29.4949 19.2302C30.5787 18.361 31.4944 17.2176 31.8764 15.8659C32.2109 14.7204 32.0968 13.4633 31.6032 12.3817C30.975 10.9904 29.8278 9.89772 28.5533 9.09033C26.5507 7.83275 24.2089 7.19709 21.8665 7.00106C24.1391 7.14267 26.4001 7.62403 28.4989 8.51702C29.8416 9.09297 31.1197 9.84435 32.2125 10.8192C33.1155 11.6293 33.8933 12.6042 34.3646 13.7296C34.7303 14.5872 34.8988 15.5288 34.8381 16.4604C34.7773 17.6123 34.3831 18.7388 33.7411 19.6947C32.8783 20.9898 31.6307 21.9821 30.2928 22.752C29.478 23.2201 28.6215 23.6106 27.7433 23.9435C26.4625 24.436 25.1949 24.9977 24.0694 25.7929C22.9682 26.5601 22.0086 27.5466 21.346 28.7186C20.9106 29.4785 20.6094 30.3101 20.4245 31.1656C20.0858 29.6238 19.3276 28.1738 18.2259 27.0394C16.88 25.6265 15.1104 24.7155 13.3091 24.0233C12.0077 23.5335 10.7369 22.939 9.59135 22.1433C8.35174 21.2867 7.24581 20.1755 6.60222 18.7975C5.9486 17.4052 5.80699 15.7645 6.2762 14.295C6.75546 12.7695 7.80009 11.4829 9.02703 10.4848C10.775 9.07606 12.8796 8.16617 15.0439 7.61188Z" fill="#E60012"/>
<path d="M17.1707 7.60998C17.5881 7.52861 18.0066 7.44565 18.4325 7.42188C16.8515 7.61632 15.2959 8.11883 13.9305 8.94629C12.8764 9.59886 11.9163 10.4887 11.4112 11.6406C10.9763 12.6097 10.9641 13.7531 11.3678 14.7338C11.7948 15.7932 12.6349 16.6323 13.5739 17.2564C14.9472 18.1626 16.5387 18.6857 18.144 18.9964C18.9477 19.147 19.8031 19.3192 20.4229 19.8941C21.0623 19.3007 21.9495 19.1374 22.7764 18.9816C24.0752 18.7279 25.3539 18.3264 26.5248 17.7018C27.5959 17.1269 28.5983 16.3412 29.2144 15.2754C29.7708 14.328 29.9325 13.1491 29.6038 12.0955C29.2767 11.0128 28.5121 10.1172 27.6292 9.43612C26.3092 8.42794 24.7151 7.83244 23.094 7.51963C22.8657 7.47049 22.6327 7.44724 22.4007 7.42452C22.9286 7.44671 23.4464 7.56084 23.9616 7.67022C25.6694 8.05701 27.3412 8.73758 28.7193 9.83558C29.6487 10.5817 30.4418 11.5529 30.7906 12.7074C31.1414 13.8429 30.9956 15.1158 30.408 16.1478C29.7808 17.2653 28.7568 18.0981 27.6646 18.7359C26.7526 19.2669 25.7745 19.6738 24.7748 20.004C23.7714 20.3417 22.7267 20.5551 21.7492 20.971C21.2224 21.195 20.7172 21.5295 20.4229 22.0341C20.1249 21.5242 19.6134 21.1887 19.0808 20.9646C17.986 20.5039 16.8113 20.2857 15.6985 19.8772C14.1725 19.333 12.6703 18.6075 11.4841 17.482C10.6772 16.7163 10.059 15.7119 9.90893 14.5964C9.75728 13.5687 10.0025 12.5024 10.5377 11.6179C11.0682 10.7259 11.8402 9.99833 12.693 9.41657C14.0389 8.50773 15.5876 7.93547 17.1707 7.60998Z" fill="#E60012"/>
<path d="M14.5995 9.08047C15.5649 8.47546 16.647 8.06014 17.7624 7.83768C16.7437 8.08867 15.7588 8.50769 14.9065 9.12591C14.1783 9.6617 13.5448 10.3777 13.2637 11.2506C13 12.0442 13.0898 12.9367 13.4787 13.6743C14.014 14.7058 14.9799 15.4418 16.005 15.9438C17.7212 16.7697 19.6773 17.0228 21.5632 16.841C23.1457 16.6767 24.7341 16.1927 26.0181 15.2278C26.8281 14.6159 27.515 13.7562 27.692 12.7338C27.8569 11.8524 27.5848 10.9304 27.0548 10.2202C26.3293 9.2337 25.2403 8.58008 24.1111 8.15208C23.7745 8.02421 23.43 7.92064 23.0813 7.83398C24.0002 8.01364 24.8926 8.33543 25.7217 8.76977C26.7298 9.30926 27.6688 10.0638 28.2194 11.0847C28.6484 11.8699 28.7742 12.8226 28.5216 13.6844C28.2463 14.6492 27.5679 15.4471 26.7859 16.0489C25.7534 16.8373 24.5301 17.352 23.2694 17.6394C22.5703 17.8027 21.8491 17.8471 21.1505 18.0177C20.8752 18.0801 20.62 18.2196 20.4266 18.4257C19.9886 17.9517 19.298 17.9464 18.7072 17.836C17.215 17.6479 15.7424 17.1797 14.4827 16.3454C13.6399 15.7842 12.878 15.0402 12.478 14.0955C12.1144 13.2532 12.1139 12.2672 12.4743 11.4234C12.8901 10.4295 13.7017 9.65166 14.5995 9.08047Z" fill="#E60012"/>
<path d="M20.1308 8.5921C20.815 8.51654 21.5252 8.71204 22.0705 9.13159C22.6982 9.6045 23.1051 10.3554 23.1574 11.14C23.2124 11.8338 22.9936 12.5466 22.5551 13.0887C22.0848 13.6805 21.3614 14.0647 20.6058 14.1101C19.8914 14.1619 19.1638 13.913 18.6275 13.4391C18.0457 12.9345 17.6938 12.1788 17.6822 11.409C17.6611 10.6782 17.9443 9.94532 18.4526 9.42009C18.8912 8.95828 19.4967 8.65815 20.1308 8.5921Z" fill="#E60012"/>
<path d="M11.1147 25.4164C12.4949 25.1559 13.9385 25.4206 15.196 26.0225C16.6792 26.7316 17.9432 27.8607 18.8869 29.2008C19.4945 30.0641 19.9675 31.0258 20.256 32.0425C19.7128 31.2377 19.0565 30.5112 18.3416 29.8544C17.3841 28.9846 16.2893 28.2322 15.0518 27.8264C14.1736 27.5543 13.2098 27.4618 12.3195 27.7292C11.8476 27.8724 11.3969 28.1408 11.1174 28.5556C10.8722 28.9096 10.7676 29.3751 10.9007 29.791C11.045 30.2501 11.4878 30.6021 11.9712 30.6184C12.5324 30.6512 13.0693 30.2221 13.1712 29.6721C13.2653 29.2044 13.0471 28.703 12.6566 28.4346C13.1237 28.6253 13.5411 28.9519 13.79 29.3968C14.1799 30.0668 14.1762 30.9397 13.7942 31.6108C13.4941 32.1545 12.9609 32.5355 12.3892 32.7553C11.6088 33.0575 10.7295 33.0306 9.93746 32.7864C9.1306 32.5365 8.41832 31.9928 7.97077 31.2758C7.4466 30.4441 7.28069 29.3941 7.52745 28.443C7.72929 27.6393 8.20802 26.9149 8.85002 26.3955C9.49572 25.8655 10.3031 25.5733 11.1147 25.4164Z" fill="#E60012"/>
<path d="M27.2012 25.475C28.3034 25.224 29.4759 25.2662 30.5464 25.6356C31.2667 25.867 31.9388 26.2718 32.4402 26.8435C32.9316 27.3946 33.2656 28.0873 33.3702 28.8197C33.5144 29.8041 33.236 30.8445 32.6077 31.6186C31.6212 32.8609 29.7787 33.32 28.3198 32.7103C27.7069 32.4524 27.1568 31.989 26.9084 31.3602C26.6189 30.6617 26.7082 29.8141 27.1605 29.2038C27.4078 28.8519 27.7724 28.6004 28.165 28.4366C27.7306 28.7336 27.5135 29.3275 27.6952 29.8289C27.8585 30.3077 28.352 30.6527 28.8598 30.6194C29.3665 30.5988 29.8247 30.2099 29.9436 29.7196C30.064 29.2456 29.8886 28.7352 29.5668 28.378C29.1462 27.9029 28.5121 27.6784 27.8971 27.6007C26.9787 27.4945 26.0392 27.6763 25.1964 28.0435C24.294 28.4287 23.476 28.9909 22.7347 29.6297C21.9188 30.3409 21.1775 31.142 20.5682 32.0392C21.0787 30.2458 22.1513 28.6342 23.5457 27.4047C24.5899 26.4895 25.8385 25.7804 27.2012 25.475Z" fill="#E60012"/>
</svg>
