<svg width="40" height="40" viewBox="0 0 40 40" fill="none" xmlns="http://www.w3.org/2000/svg">
<path d="M34.9981 20.0325C34.9981 11.66 28.372 5 19.9986 5C11.6251 5 5 11.6609 5 20.0344C5 28.4059 11.628 35.0603 19.9995 35.0603C28.373 35.0621 34.9972 28.4059 34.9972 20.0344L35 20.0325H34.9981Z" fill="#00D66C"/>
<path d="M26.6254 22.1998H25.7819C24.9383 22.1998 24.5787 22.6498 24.4563 23.5226C24.2435 25.1202 22.9801 26.202 21.3231 26.202C19.3968 26.202 18.1635 24.7879 18.1635 22.7374V17.9208C18.1635 17.7278 18.1353 17.5583 18.0882 17.4068C18.2689 17.4887 18.4855 17.531 18.734 17.531H23.1608C24.0063 17.531 24.4864 17.0481 24.4864 16.2064V15.8157C24.4864 14.9712 24.0063 14.4901 23.1608 14.4901H20.664V11.7758C20.664 10.9341 20.1801 10.4512 19.3385 10.4512H18.734C17.8924 10.4512 17.4103 10.9351 17.4103 11.7758V16.2054C17.4103 16.3956 17.4348 16.566 17.4856 16.7186C17.303 16.6376 17.0865 16.5962 16.8379 16.5962H12.4111C11.5685 16.5962 11.0855 17.0782 11.0855 17.9208V18.3134C11.0855 19.157 11.5685 19.639 12.4111 19.639H14.9117V22.7364C14.9117 26.6219 17.4113 29.3333 21.3268 29.3333C24.9722 29.3333 27.3805 27.0126 27.8324 23.5207C27.951 22.647 27.3786 22.1989 26.6245 22.1989L26.6254 22.1998Z" fill="white"/>
</svg>
