<svg width="40" height="40" viewBox="0 0 40 40" fill="none" xmlns="http://www.w3.org/2000/svg">
<g clip-path="url(#clip0_101_1531)">
<path d="M20.4989 35.9949C11.9725 35.9949 5 29.0624 5 20.4965C5 11.9305 11.9725 4.99805 20.4989 4.99805C29.0651 4.99805 35.9978 11.9703 35.9978 20.4965C35.9978 29.0226 29.0651 35.9949 20.4989 35.9949ZM20.4989 5.63551C12.2912 5.63551 5.63749 12.2891 5.63749 20.4965C5.63749 28.7038 12.2912 35.3574 20.4989 35.3574C28.7065 35.3574 35.3603 28.7038 35.3603 20.4965C35.3603 12.2891 28.7065 5.63551 20.4989 5.63551Z" fill="#F1673A"/>
<path d="M30.1807 14.0096C29.9417 14.8862 29.3839 15.6431 28.587 16.0814C27.7902 16.5197 27.073 17.0376 26.3558 17.5954C25.6785 18.1133 24.9613 18.5516 24.2043 18.95C23.8856 19.1492 23.527 19.3484 23.2082 19.5078C21.7739 20.1851 21.6544 21.6991 22.1723 22.8545C22.5309 23.6115 22.9692 24.3685 23.4473 25.0458C24.4434 26.4801 25.5988 27.7949 26.8339 29.0299C26.8738 29.1495 26.8738 29.269 26.7941 29.3487C26.4754 29.3487 26.1566 29.2292 25.8777 29.0698C24.6027 28.273 23.6864 27.1574 22.7301 26.0418C22.4512 25.7231 22.1723 25.3645 21.9731 24.9661C21.495 23.9701 20.5786 23.4521 19.7021 22.974C18.7857 22.4162 17.949 21.6991 17.3513 20.7827C16.4748 19.5078 15.5982 18.2329 14.7217 16.9579C14.4428 16.4798 13.9647 16.1212 13.4069 15.9619C12.7694 15.8424 12.2514 15.3643 12.0522 14.7268C11.9327 14.3284 11.5343 14.0893 11.4546 13.6112C12.0522 13.6909 12.6499 13.7706 13.2077 13.93C13.8053 14.0893 14.3233 14.4877 14.6022 15.0854C14.8014 15.4838 15.0404 15.8424 15.2795 16.2009C15.917 16.9978 16.8334 17.3563 17.7099 17.7548C18.0287 17.9141 18.3076 18.193 18.7857 18.193C18.9052 16.9181 19.1044 15.6033 19.9013 14.5276C20.6981 13.412 21.6942 12.416 22.8098 11.6191L22.4114 15.2049C21.6145 16.1212 21.2958 17.3563 20.8575 18.5914C21.1763 18.6313 21.495 18.5117 21.6942 18.2727C22.2919 17.7149 22.8895 17.1571 23.4871 16.5993C24.3238 15.8424 25.2801 15.165 26.2761 14.6471C26.8339 14.3284 27.4714 14.169 28.1488 14.2487C28.5472 14.2885 28.9456 14.2487 29.344 14.0893C29.7026 14.0096 29.9417 13.9698 30.1807 14.0096Z" fill="#1E3C5E"/>
</g>
<defs>
<clipPath id="clip0_101_1531">
<rect width="30.9978" height="30.9968" fill="white" transform="translate(5 5)"/>
</clipPath>
</defs>
</svg>
