<svg width="40" height="40" viewBox="0 0 40 40" fill="none" xmlns="http://www.w3.org/2000/svg">
<g clip-path="url(#clip0_1_9879)">
<path d="M37.4375 20.0366C37.4375 29.646 29.6479 37.4367 20.0367 37.4367C10.4281 37.4367 2.63745 29.6458 2.63745 20.0366C2.63745 10.4274 10.4281 2.63672 20.0367 2.63672C29.6478 2.63684 37.4375 10.4274 37.4375 20.0366Z" fill="#E32526"/>
<path d="M15.1393 16.5565C15.5328 16.4853 15.8252 16.7245 15.7958 17.0882C15.7664 17.4514 15.4225 17.8064 15.0297 17.8766C14.6388 17.9463 14.3438 17.7072 14.375 17.3432C14.4049 16.9794 14.7465 16.6285 15.1393 16.5565ZM10.9082 19.1648C11.2488 17.8969 11.661 16.6022 12.0688 15.6355C11.247 16.7128 10.3663 18.0836 9.57272 19.4522C10.0346 19.3441 10.4839 19.2482 10.9082 19.1648ZM17.9079 18.1767C18.2146 18.1209 18.9036 18.5379 18.574 18.9243C18.2316 19.3219 17.8452 19.2426 17.2386 19.4958C16.8948 19.6383 16.631 19.9461 16.2544 20.4879C15.7756 21.1904 15.5563 21.8785 15.5169 22.3956C15.5137 22.549 15.5014 22.6257 15.4203 22.6786C14.6187 23.2022 14.3721 22.8087 14.3924 22.3278C14.3976 22.2142 14.4373 22.0347 14.5081 21.8137C13.8913 22.7385 13.3453 23.2063 12.9882 23.2705C12.5095 23.357 12.2394 23.0247 12.2908 22.41C12.3144 22.1304 12.3985 21.8017 12.5551 21.3874C12.7192 20.9668 12.978 20.3918 13.2175 19.9207C13.2786 19.7979 13.3376 19.6801 13.3873 19.5746C13.0239 19.6448 12.5084 19.7514 11.9016 19.8897C11.8934 19.9096 11.8866 19.9206 11.8791 19.9218C11.6212 21.1263 11.601 21.5804 11.462 22.6306C11.4032 23.09 11.4918 23.5842 10.9447 23.6596C10.3977 23.739 10.2162 23.1757 10.2129 22.6947C10.2058 22.205 10.2963 21.6165 10.6424 20.192C10.0741 20.3367 9.47336 20.5032 8.87888 20.6857C8.87048 20.699 8.8646 20.706 8.8646 20.706C7.87736 22.5132 6.90296 24.7492 6.7418 25.4724C6.61328 26.0521 6.35132 26.2297 5.96588 26.0617C5.58116 25.8931 5.35712 25.5055 5.49704 25.0734C5.7506 24.2977 6.5228 22.5566 7.21064 21.307C7.20548 21.3093 7.21064 21.292 7.22684 21.2604C6.72272 21.4562 6.254 21.6662 5.84432 21.892C5.5742 22.0375 5.23508 21.9031 5.17004 21.6014C5.12348 21.3874 5.02124 20.9649 5.54456 20.7352C6.33512 20.3896 7.19036 20.097 8.04464 19.8498C9.85892 16.7973 12.114 13.6568 12.7624 13.7142C13.0431 13.7384 12.9987 14.0418 13.2463 14.3167C13.4906 14.5904 13.5262 14.758 13.2338 15.4837C12.6342 16.9731 12.6819 16.6262 12.1065 18.9498C13.1617 18.7748 14.0802 18.6739 14.1662 18.6606C14.4574 18.6192 14.9587 18.8175 14.6937 19.3863C14.6937 19.3863 14.416 19.8753 14.3065 20.0847C14.1085 20.4312 13.8516 20.9518 13.6965 21.3037C13.598 21.5112 13.5532 21.6698 13.5452 21.786C13.5372 21.8614 13.5655 21.9042 13.6264 21.8932C13.7072 21.8786 13.8256 21.7914 13.9684 21.6435C14.1073 21.4812 14.5761 21.0966 15.4141 19.6848L15.6352 19.2273C15.7065 19.091 15.8086 18.8508 15.8281 18.7405C15.8512 18.5766 15.8575 18.534 15.9945 18.4477C16.2157 18.3066 16.6154 18.1898 16.8462 18.3404C17.0634 18.484 17.0071 18.7442 16.8267 19.0598C17.557 18.2374 17.7448 18.2036 17.9079 18.1767ZM32.1979 20.554C32.6085 20.0491 33.2438 18.8906 33.2835 18.5743C33.3018 18.4291 33.26 18.3717 33.1459 18.3865C33.0048 18.4052 32.6881 18.6639 32.3866 19.0329C31.9452 19.5627 31.3507 20.6313 31.3041 20.9834C31.2846 21.1274 31.3434 21.222 31.4449 21.2098C31.6082 21.1874 31.8904 20.9424 32.1979 20.554ZM34.6584 19.7181C34.8368 19.4348 35.2146 19.5274 35.1135 19.788C35.0263 20.0134 34.8614 20.3794 34.441 20.876C33.9244 21.5112 33.4486 21.8193 33.0186 21.8764C32.6718 21.9253 32.426 21.7767 32.366 21.466L32.3458 21.4028C32.3448 21.3481 32.3173 21.3208 32.2872 21.3259C32.2555 21.3292 32.2323 21.3529 32.1744 21.4076C31.7382 21.8698 31.4046 22.1541 31.0014 22.2093C30.3991 22.288 30.0486 21.8179 30.1339 21.1357C29.9727 21.3742 29.8063 21.6034 29.653 21.7725C29.1824 22.2954 28.7966 22.6275 28.4386 22.6743C27.9556 22.7389 27.7028 22.3946 27.7842 21.7846C27.8205 21.5067 27.9241 21.1831 28.1008 20.7724C28.2844 20.3629 28.5692 19.7998 28.8324 19.3406C29.0425 18.9643 29.2453 18.5388 29.2768 18.3937C29.3011 18.2794 29.3136 18.2574 29.4028 18.1993C29.515 18.1196 29.7364 18.0252 29.8714 18.0145C30.2124 17.9888 30.6648 18.2353 30.3655 18.7464L30.2527 18.9408C30.2365 18.9807 30.0318 19.3507 29.914 19.5525C29.6968 19.8926 29.4188 20.3995 29.2442 20.7426C29.1358 20.9468 29.0833 21.103 29.069 21.2168C29.0571 21.2929 29.0833 21.3382 29.1428 21.3294C29.2262 21.319 29.349 21.2371 29.4981 21.0931C29.6511 20.933 29.7446 20.8268 30.0856 20.3756L30.2094 20.2195C30.3078 20.0911 31.0849 19.0748 31.3185 18.8232C31.9454 18.0752 32.6534 17.545 33.1081 17.4862C33.4068 17.4451 33.6477 17.5814 33.7639 17.8573C33.8458 18.0825 33.862 18.098 34.0618 18.1843C34.3814 18.311 34.4862 18.4183 34.4616 18.5811C34.4497 18.6973 34.4061 18.7873 34.203 19.1066C34.0602 19.3508 33.9028 19.6359 33.79 19.8556C33.5526 20.3257 33.4226 20.6456 33.6529 20.7272C33.7401 20.7573 33.9014 20.6744 34.1028 20.4612C34.3255 20.2251 34.4832 19.9914 34.6584 19.7181ZM30.5406 17.3596C30.9327 17.2898 31.2753 16.9364 31.3063 16.5716C31.3345 16.2075 31.041 15.9705 30.6507 16.0407C30.2577 16.1113 29.9138 16.4643 29.8851 16.8296C29.8538 17.1928 30.1492 17.4302 30.5406 17.3596ZM24.5776 15.6348C23.7616 16.7065 22.885 18.0714 22.0906 19.4344C22.5552 19.3282 23.0016 19.2364 23.4188 19.1575C23.7618 17.8939 24.1706 16.6002 24.5776 15.6348ZM24.7826 18.9289C25.017 18.8943 25.7791 18.804 25.7498 19.1236C25.7049 19.6388 25.5109 19.6311 24.8293 19.7773C24.7004 19.8063 24.5632 19.8357 24.4194 19.8662C24.4089 19.9008 24.3979 19.9209 24.39 19.9221C24.1332 21.1267 24.1129 21.5822 23.9719 22.631C23.9113 23.0904 24.0012 23.5845 23.4543 23.66C22.9076 23.7393 22.7187 23.1757 22.722 22.6951C22.7239 21.8445 23.153 20.1769 23.1552 20.167C22.5988 20.3088 22.0023 20.47 21.4088 20.6552C20.7016 21.8562 19.4128 24.7496 19.2534 25.4727C19.1236 26.0524 18.862 26.23 18.4755 26.0602C18.0909 25.8934 17.876 25.5092 18.0079 25.0737C18.3668 23.8766 19.7236 21.284 19.745 21.2372C19.2417 21.4394 18.7725 21.6564 18.368 21.8871C18.1174 22.0297 17.7978 21.8937 17.7298 21.5932C17.685 21.3771 17.5854 20.9562 18.0748 20.7325C18.8599 20.3746 19.7134 20.0754 20.5658 19.8296C22.3772 16.7829 24.6236 13.657 25.2709 13.7148C25.553 13.7386 25.5091 14.0421 25.7557 14.3169C26.0011 14.5899 26.0356 14.7583 25.7415 15.4839C25.1446 16.9744 25.1937 16.6264 24.6163 18.9541C24.6732 18.9462 24.727 18.937 24.7826 18.9289ZM25.6479 23.1512C26.0954 23.1054 27.4034 22.8187 27.4165 21.3826C27.4195 20.8268 26.8882 20.5338 26.7591 20.1463C26.6758 19.9069 26.6959 19.4128 27.0736 19.2644C27.5403 19.0807 27.6369 19.3874 27.7981 19.6167C27.865 19.7108 28.0788 19.6884 28.1518 19.6119C28.2537 19.5061 28.4025 19.3477 28.4667 19.0788C28.5234 18.8323 28.2618 18.4182 27.5017 18.4438C27.236 18.4497 26.8602 18.495 26.3278 19.0027C26.0823 19.2363 25.3008 20.3052 25.8793 21.2229C26.0354 21.472 26.4109 21.7766 26.1694 22.0106C25.7928 22.3736 25.1457 21.8113 25.0227 21.6415C24.9673 21.5634 24.8067 21.472 24.7012 21.6268C24.6403 21.7156 24.35 22.2331 24.3949 22.4244C24.5256 23.0214 25.296 23.1865 25.6479 23.1512Z" fill="white"/>
</g>
<defs>
<clipPath id="clip0_1_9879">
<rect width="36" height="36" fill="white" transform="translate(2 2)"/>
</clipPath>
</defs>
</svg>
