<svg width="40" height="40" viewBox="0 0 40 40" fill="none" xmlns="http://www.w3.org/2000/svg">
<path fill-rule="evenodd" clip-rule="evenodd" d="M7.0122 31.4078H33L10.4817 9H7L7.0122 31.4078Z" fill="#212061"/>
<path fill-rule="evenodd" clip-rule="evenodd" d="M17.1005 31.4074H32.9999L23.1585 21.6211C22.8662 21.7359 22.582 21.8703 22.3078 22.0235C21.683 22.374 21.0965 22.7889 20.5578 23.2613C19.9725 23.804 19.692 24.3558 19.9725 25.1728C20.0674 25.4335 20.2033 25.6774 20.3749 25.8953C20.5274 26.0935 20.6798 26.2398 20.8414 26.4167C21.0112 26.5961 21.1623 26.7922 21.2926 27.002C21.8139 27.8861 21.3383 28.6757 20.6828 29.2946C19.8717 29.9975 18.9705 30.589 18.003 31.0537C17.7674 31.1697 17.5251 31.2715 17.2774 31.3586L17.1005 31.4074Z" fill="#F9B617"/>
<path fill-rule="evenodd" clip-rule="evenodd" d="M18.1097 31.4095H33L23.6128 22.0684C23.1637 22.3118 22.7528 22.62 22.3933 22.983C21.939 23.4951 21.6341 24.0561 21.9573 24.739C22.022 24.8687 22.1098 24.9854 22.2164 25.0835C22.6097 25.4737 22.9085 25.5042 23.3232 25.7878C23.5073 25.8865 23.6663 26.026 23.7882 26.1957C23.91 26.3653 23.9914 26.5606 24.0262 26.7666C24.0609 26.9726 24.048 27.1838 23.9885 27.384C23.929 27.5843 23.8245 27.7682 23.6829 27.9218C23.548 28.0906 23.4002 28.2486 23.2408 28.3944C23.0489 28.579 22.8452 28.7511 22.6311 28.9096C22.378 29.0956 22.064 29.3029 21.6402 29.5681C20.7917 30.1205 19.9065 30.6145 18.9908 31.0467C18.6707 31.187 18.3354 31.3211 18.1097 31.4095Z" fill="#006535"/>
<path fill-rule="evenodd" clip-rule="evenodd" d="M8.17383 14.2227L9.83846 14.9697L10.2318 13.5703L10.8507 15.4117L12.2561 16.0276L11.2104 16.4757L11.7318 18.0793L10.5122 16.7714L9.26224 17.2623L9.63724 15.805L8.17383 14.2227Z" fill="white"/>
<path fill-rule="evenodd" clip-rule="evenodd" d="M17.2927 18.2877L17.5213 17.373L17.7408 18.5102L18.3689 18.7907L17.8963 19.1382L18.0823 20.2358L17.5305 19.4218L16.939 19.8699L17.1463 18.8517L16.5549 17.9797L17.2927 18.2877Z" fill="white"/>
<path fill-rule="evenodd" clip-rule="evenodd" d="M13.3811 19.9305L14.439 20.1927L14.6829 19.1836L14.9939 20.336L15.936 20.6043L15.2256 21.1378L15.5518 22.3085L14.7744 21.4701L14.0213 22.0585L14.2744 20.9091L13.3811 19.9305Z" fill="white"/>
<path fill-rule="evenodd" clip-rule="evenodd" d="M10.9176 21.6426L11.4359 22.9962L12.7103 23.1181L11.7682 23.8712L12.2591 25.0937L11.1554 24.3102L10.1158 25.112L10.4206 23.7401L9.1554 22.7553L10.6036 22.8986L10.9176 21.6426Z" fill="white"/>
<path fill-rule="evenodd" clip-rule="evenodd" d="M17.3568 23.5599L17.5488 22.6758L17.7714 23.6239L18.3415 23.6697L17.9147 24.191L18.1007 25.0903L17.5885 24.5324L17.0092 25.1025L17.2074 24.13L16.6799 23.5172L17.3568 23.5599Z" fill="white"/>
</svg>
