<svg width="40" height="40" viewBox="0 0 40 40" fill="none" xmlns="http://www.w3.org/2000/svg">
<path d="M8.3338 11.5801H4.72739C4.30918 11.5801 4.08036 12.0667 4.3476 12.3882L14.9352 25.1586C15.7726 26.1684 15.7379 27.6413 14.8536 28.6107L11.8052 31.9521C11.5164 32.269 11.7414 32.7772 12.1699 32.7772H17.7614C18.129 32.7772 18.4807 32.6233 18.7301 32.3515L19.8741 31.1074L22.0636 28.7091C22.9488 27.7397 22.9845 26.2668 22.146 25.2561L12.3855 13.4842C11.3859 12.2776 9.90069 11.5801 8.3338 11.5801Z" fill="#5D0632"/>
<path d="M25.6099 24.8213L28.6752 21.4621C28.8411 21.2811 28.8478 21.0045 28.6912 20.8152L18.4337 8.44323C17.4341 7.23659 15.9487 6.53906 14.3818 6.53906H10.7745C10.3563 6.53906 10.1275 7.02565 10.3947 7.34723L24.8663 24.8035C25.0577 25.0342 25.4083 25.0419 25.6099 24.8213Z" fill="#3DBDAE"/>
<path d="M35.7383 12.4961H31.8777C30.399 12.4961 28.9896 13.1177 27.9919 14.209L27.3974 14.8596C27.2315 15.0414 27.2249 15.3181 27.3815 15.5075L30.2199 18.9352C30.4113 19.1658 30.7619 19.1744 30.9644 18.9538L36.103 13.3229C36.3919 13.006 36.1668 12.4961 35.7383 12.4961Z" fill="#5D0632"/>
</svg>
