<svg width="40" height="40" viewBox="0 0 40 40" fill="none" xmlns="http://www.w3.org/2000/svg">
<g clip-path="url(#clip0_20_12013)">
<path d="M31.7931 7.78787L31.7777 7.86494L31.7622 7.94201L31.7468 8.01908L31.7314 8.09615L31.7006 8.1578L31.6852 8.20404L31.6698 8.21946L31.6543 8.23487H31.6389H31.6235H31.6081L31.5927 8.21946L31.5773 8.20404L31.5619 8.18863L31.5465 8.12697L31.531 8.06532L31.5156 7.98825V7.91118V7.83411V7.75704L31.531 7.69539L31.5465 7.63373L31.5619 7.57207L31.5773 7.52583L31.5927 7.47959L31.6235 7.44876L31.6389 7.43335H31.6543H31.6698H31.6852H31.7006L31.716 7.44876L31.7314 7.46418L31.7468 7.47959L31.7622 7.51042L31.7777 7.55666L31.7931 7.61832V7.67997V7.74163V7.78787Z" fill="#1F2C51"/>
<path d="M31.2691 7.77245V7.84952L31.2537 7.92659L31.2383 8.00366L31.2229 8.08073L31.2075 8.14239L31.1766 8.18863L31.1612 8.20404L31.1458 8.21946L31.1304 8.23487H31.115H31.0996L31.0842 8.21946L31.0687 8.20404L31.0533 8.18863L31.0225 8.14239L31.0071 8.08073L30.9917 8.00366L30.9763 7.92659V7.84952V7.77245L30.9917 7.69539L31.0071 7.63373L31.0225 7.57207L31.0379 7.52583L31.0533 7.47959L31.0842 7.44876L31.0996 7.43335H31.115H31.1304H31.1458H31.1612H31.1766L31.1921 7.44876L31.2075 7.46418L31.2229 7.495L31.2383 7.54125L31.2537 7.58749L31.2691 7.64914V7.69539V7.77245Z" fill="#1F2C51"/>
<path d="M30.7758 7.78792V7.86499V7.94206L30.7604 8.01913L30.745 8.0962L30.7296 8.15786L30.7141 8.2041L30.6987 8.21951L30.6833 8.23493L30.6679 8.25034L30.6525 8.26575H30.6371H30.6217L30.6062 8.25034L30.5908 8.23493L30.5754 8.18868L30.56 8.12703L30.5446 7.97289L30.5292 7.83417V7.77251V7.71086L30.5446 7.6492L30.56 7.58754L30.5754 7.5413L30.5908 7.49506L30.6062 7.47965L30.6217 7.46423H30.6371H30.6525H30.6679H30.6833L30.6987 7.47965L30.7141 7.49506L30.7296 7.52589L30.745 7.57213L30.7604 7.61837L30.7758 7.68003L30.7912 7.74168L30.7758 7.78792Z" fill="#1F2C51"/>
<path d="M30.2517 7.83412V7.91119L30.2671 7.98826V8.04992V8.11157V8.15781V8.18864L30.2517 8.21947L30.2363 8.23488L30.2209 8.26571L30.2055 8.28113L30.19 8.29654L30.1746 8.31195H30.1438H30.1284H30.113L30.0976 8.29654L30.0821 8.28113L30.0667 8.2503L30.0513 8.21947L30.0359 8.18864L30.0051 8.0345L29.9897 7.88036L29.9742 7.81871V7.75705V7.6954V7.64916L29.9897 7.60292L30.0051 7.57209L30.0205 7.55667L30.0359 7.54126H30.0513H30.0667H30.0821H30.0976L30.113 7.55667H30.1284L30.1592 7.5875L30.1746 7.61833L30.19 7.66457L30.2055 7.72623L30.2209 7.78788L30.2517 7.83412Z" fill="#1F2C51"/>
<path d="M29.6968 7.92663L29.7122 7.98828V8.06535V8.14242V8.20408V8.23491V8.26573L29.6968 8.29656L29.6814 8.32739L29.666 8.3428L29.6506 8.35822L29.6352 8.37363L29.6197 8.38905H29.5889H29.5735L29.5581 8.37363L29.5427 8.35822L29.5273 8.3428L29.5118 8.31198L29.4964 8.28115V8.25032L29.4656 8.09618L29.4502 7.95746V7.8958V7.83415V7.77249V7.71084L29.4656 7.66459L29.481 7.63377L29.4964 7.61835L29.5118 7.60294L29.5273 7.58752H29.5427H29.5581H29.5735H29.5889L29.6043 7.60294L29.6352 7.63377L29.666 7.66459L29.6814 7.71084L29.6968 7.77249L29.7122 7.83415L29.6968 7.92663Z" fill="#1F2C51"/>
<path d="M29.219 8.01921L29.2344 8.09628L29.2498 8.17335V8.23501V8.29666V8.32749V8.35832L29.2344 8.38915V8.40456L29.219 8.43539L29.2035 8.46622L29.1881 8.48163L29.1727 8.49704L29.1419 8.51246H29.1265L29.1111 8.49704L29.0956 8.48163L29.0494 8.46622L29.034 8.43539L29.0186 8.40456L29.0032 8.37373L28.9723 8.21959L28.9415 8.08087L28.9261 8.01921V7.95756V7.8959V7.84966L28.9415 7.80342L28.9569 7.75718L28.9723 7.74177L28.9877 7.72635L29.0032 7.71094H29.0186H29.034H29.0494H29.0648L29.0802 7.72635L29.1111 7.75718L29.1419 7.78801L29.1573 7.83425L29.1727 7.88049L29.1881 7.94215L29.219 8.01921Z" fill="#1F2C51"/>
<path d="M28.7566 8.17323L28.772 8.2503L28.7874 8.32737V8.38903V8.45068V8.48151V8.51234L28.772 8.54317V8.57399L28.7566 8.60482L28.7412 8.62024L28.7258 8.63565L28.7104 8.65106L28.6795 8.66648H28.6641H28.6487L28.6333 8.65106L28.6179 8.63565L28.6025 8.62024L28.5871 8.58941L28.5716 8.55858L28.5408 8.40444L28.51 8.26572L28.4946 8.20406V8.14241V8.08075V8.00368L28.51 7.95744L28.5254 7.92661L28.5408 7.9112L28.5562 7.89579L28.5716 7.88037H28.5871H28.6025H28.6179H28.6333L28.6487 7.89579L28.6795 7.92661L28.7104 7.95744L28.7258 8.00368L28.7412 8.06534L28.7566 8.12699V8.17323Z" fill="#1F2C51"/>
<path d="M28.2942 8.32741L28.3096 8.38906L28.325 8.45072L28.3404 8.51238L28.3558 8.57403V8.60486V8.63569V8.66651V8.69734V8.71276L28.3404 8.74358L28.325 8.759L28.3096 8.77441L28.2942 8.78983H28.2788H28.2633L28.2479 8.77441L28.2325 8.759L28.2171 8.74358L28.2017 8.71276L28.1863 8.68193L28.14 8.5432L28.0938 8.40448L28.0784 8.34282L28.063 8.28117L28.0475 8.21951V8.17327V8.12703L28.063 8.08079L28.0784 8.06537L28.0938 8.04996L28.1092 8.03455H28.1246H28.14H28.1554H28.1709H28.1863L28.2171 8.04996L28.2479 8.08079L28.2788 8.12703L28.3096 8.17327L28.325 8.23493L28.2942 8.32741Z" fill="#1F2C51"/>
<path d="M27.8009 8.51238L27.8317 8.57403L27.8472 8.63569L27.8626 8.69735L27.878 8.759V8.82066V8.88231V8.91314L27.8626 8.92855L27.8472 8.94397L27.8317 8.95938L27.8163 8.97479H27.8009H27.7855L27.7701 8.95938L27.7547 8.94397L27.7393 8.92855L27.7238 8.89773L27.7084 8.8669L27.6468 8.72817L27.6005 8.60486L27.5697 8.54321L27.5543 8.48155L27.5389 8.4199V8.37365V8.32741L27.5543 8.28117V8.26576L27.5697 8.25034L27.5851 8.23493L27.6005 8.21952L27.6159 8.2041H27.6314H27.6468H27.6622L27.693 8.21952L27.7238 8.25034L27.7547 8.28117L27.7855 8.32741L27.8163 8.37365L27.8009 8.51238Z" fill="#1F2C51"/>
<path d="M27.3231 8.71265L27.3693 8.85138L27.4002 8.97469L27.4156 9.03634V9.098V9.12883L27.4002 9.14424L27.3848 9.15966L27.3693 9.17507L27.3539 9.19048H27.3385H27.3231L27.3077 9.17507L27.2923 9.15966L27.2769 9.14424L27.2614 9.11341L27.246 9.08259L27.1844 8.95928L27.1381 8.83596L27.1073 8.77431L27.0919 8.72807L27.0765 8.66641V8.62017V8.57393V8.5431V8.52769L27.0919 8.51227L27.1073 8.49686L27.1227 8.48145H27.1381H27.1535H27.169H27.1844L27.2152 8.49686L27.246 8.52769L27.2769 8.55851L27.3077 8.60476L27.3385 8.651L27.3231 8.71265Z" fill="#1F2C51"/>
<path d="M26.8606 8.99014L26.9377 9.09804L26.9994 9.22135L27.0148 9.28301V9.32925V9.36007V9.37549L26.9994 9.40632L26.984 9.42173L26.9685 9.43714L26.9531 9.45256H26.9377H26.9223L26.9069 9.43714L26.8915 9.42173L26.8761 9.40632L26.8606 9.3909L26.7836 9.26759L26.7065 9.15969L26.6757 9.11345L26.6448 9.06721L26.614 9.02097L26.5986 8.97473L26.5832 8.92849V8.88225V8.86683V8.85142V8.836L26.5986 8.82059L26.614 8.80518H26.6294H26.6448H26.6603L26.6911 8.82059L26.7219 8.836L26.7527 8.86683L26.7836 8.89766L26.8144 8.9439L26.8606 8.99014Z" fill="#1F2C51"/>
<path d="M26.4445 9.28308L26.5216 9.39097L26.5832 9.51429L26.5986 9.57594L26.614 9.62218V9.65301V9.68384V9.69925L26.5986 9.71467L26.5832 9.73008L26.5678 9.74549H26.5524H26.537L26.5216 9.73008L26.5062 9.71467L26.4907 9.69925L26.4753 9.68384L26.3983 9.56053L26.3212 9.45263L26.2904 9.40639L26.2595 9.36015L26.2287 9.31391L26.2133 9.26766L26.1979 9.22142V9.19059V9.17518V9.15977L26.2133 9.14435L26.2287 9.12894L26.2441 9.11353H26.2595H26.2749H26.2904H26.3212L26.352 9.12894L26.3828 9.15977L26.4137 9.19059L26.4445 9.23684V9.28308Z" fill="#1F2C51"/>
<path d="M26.0592 9.60669L26.1362 9.71458L26.1979 9.82248L26.2287 9.88414L26.2441 9.93038V9.96121V9.97662L26.2287 10.0074L26.2133 10.0229L26.1979 10.0383L26.1825 10.0537H26.1671H26.1516H26.1362L26.1208 10.0383L26.1054 10.0229L26.09 10.0074L25.9975 9.89955L25.9204 9.80707L25.8896 9.76082L25.8588 9.71458L25.828 9.66834L25.7971 9.6221L25.7817 9.57586L25.7663 9.52962V9.5142V9.49879L25.7817 9.48338L25.7971 9.46796L25.8125 9.45255L25.828 9.43713H25.8434H25.8588L25.8896 9.45255L25.9204 9.46796L25.9513 9.49879L25.9821 9.52962L26.0283 9.57586L26.0592 9.60669Z" fill="#1F2C51"/>
<path d="M25.7046 9.89965L25.7971 9.99214L25.8742 10.1L25.905 10.1463L25.9204 10.1925V10.2233V10.2388V10.2696L25.905 10.285L25.8896 10.3004L25.8742 10.3158H25.8588H25.8434H25.8279H25.8125L25.7971 10.3004L25.7663 10.285L25.6738 10.1925L25.5813 10.1L25.5505 10.0538L25.5197 10.0076L25.4888 9.96131L25.458 9.91507L25.4426 9.86883L25.4272 9.82259V9.80717V9.79176V9.77634L25.4426 9.76093L25.458 9.74552L25.4734 9.7301H25.4888H25.5043H25.5351L25.5659 9.74552L25.6122 9.77634L25.6584 9.80717V9.85341L25.7046 9.89965Z" fill="#1F2C51"/>
<path d="M25.3502 10.2389L25.4272 10.3313L25.5043 10.4238L25.5351 10.4701L25.5506 10.5163V10.5471V10.5625V10.578V10.6088L25.5351 10.6242L25.5197 10.6396H25.5043H25.4889L25.4735 10.6242L25.4427 10.6088L25.4272 10.5934L25.3348 10.5009L25.2423 10.4084L25.2114 10.3776L25.1806 10.3313L25.1498 10.2851L25.119 10.2389L25.1035 10.1926L25.0881 10.1618V10.1464V10.131V10.1155L25.1035 10.1001H25.119L25.1344 10.0847H25.1498H25.1806L25.2114 10.1001L25.2423 10.1155L25.2731 10.1464L25.3193 10.1772L25.3502 10.2389Z" fill="#1F2C51"/>
<path d="M24.9647 10.6087L25.0572 10.6857L25.1497 10.7782L25.1805 10.8245L25.2113 10.8707V10.9015V10.9324V10.9478V10.9786L25.1959 10.994L25.1805 11.0094H25.1651H25.1497H25.1343L25.1034 10.994L25.0726 10.9786L25.0418 10.9632L24.9339 10.8861L24.826 10.809L24.7797 10.7782L24.7335 10.7474L24.7027 10.7011L24.6719 10.6549L24.641 10.6241L24.6256 10.5778V10.5624V10.547V10.5316V10.5162L24.641 10.5008L24.6564 10.4854H24.6719H24.6873H24.7181L24.7489 10.5008L24.7952 10.5162L24.8414 10.547L24.8876 10.5778L24.9647 10.6087Z" fill="#1F2C51"/>
<path d="M24.6257 10.9941L24.7336 11.0557L24.8415 11.1328L24.8877 11.1636L24.9185 11.2099L24.9339 11.2253V11.2407V11.2715V11.3024V11.3178L24.9185 11.3332L24.9031 11.3486H24.8877H24.8723H24.8415L24.8106 11.3332L24.7798 11.3178L24.6565 11.2561L24.5332 11.1945L24.4869 11.1636L24.4407 11.1328L24.3945 11.102L24.3636 11.0712L24.3328 11.0403L24.3174 11.0095V10.9941V10.9787V10.9633V10.9479V10.9324L24.3328 10.917L24.3482 10.9016H24.3636H24.3945H24.4407L24.4869 10.917L24.5332 10.9324L24.5794 10.9633L24.6257 10.9941Z" fill="#1F2C51"/>
<path d="M24.3636 11.4411L24.4715 11.5027L24.5794 11.5798L24.6256 11.626L24.6565 11.6723L24.6719 11.6877L24.6873 11.7185V11.7339V11.7648V11.7802L24.6719 11.7956L24.6565 11.811H24.6411H24.6256H24.5948H24.564L24.5332 11.7956L24.4098 11.7339L24.3019 11.6723L24.2557 11.6415L24.2095 11.6106L24.1632 11.5798L24.117 11.549L24.0862 11.5182L24.0707 11.4873V11.4719V11.4565V11.4411V11.4257V11.4103L24.0862 11.3948L24.1016 11.3794L24.117 11.364H24.1478H24.1786L24.2249 11.3794L24.2711 11.3948L24.3174 11.4257L24.3636 11.4411Z" fill="#1F2C51"/>
<path d="M24.1016 11.8263L24.1632 11.8571L24.2249 11.8879L24.2865 11.9188L24.3482 11.9496L24.3944 11.9958L24.4252 12.0421L24.4407 12.0729V12.0883V12.1191V12.15V12.1808L24.4252 12.1962L24.4098 12.2116L24.3944 12.227H24.379H24.3482L24.3174 12.2116H24.2865L24.1478 12.1654L24.0245 12.1037L23.9628 12.0729L23.9166 12.0421L23.8703 12.0112L23.8241 11.9804L23.7933 11.9496L23.7779 11.9188L23.7625 11.9033V11.8879V11.8725V11.8571L23.7779 11.8417V11.8263L23.7933 11.8109L23.8087 11.7954L23.8395 11.78H23.8858H23.932L23.9782 11.7954L24.0399 11.8263H24.1016Z" fill="#1F2C51"/>
<path d="M23.8858 12.3195L24.0091 12.3812L24.117 12.4582L24.1632 12.4891L24.1941 12.5353L24.2095 12.5507V12.5661V12.597V12.6124V12.6278L24.1941 12.6432L24.1786 12.6586H24.1632H24.1478H24.117H24.0862L24.0553 12.6432L23.932 12.5815L23.8241 12.5199L23.7779 12.4891L23.7316 12.4582L23.6854 12.4274L23.6546 12.3966L23.6238 12.3657L23.6083 12.3349V12.3195V12.3041V12.2887V12.2733L23.6238 12.2578L23.6392 12.2424H23.6546H23.6854H23.7316L23.7779 12.2578L23.8241 12.2733L23.8704 12.2887L23.8858 12.3195Z" fill="#1F2C51"/>
<path d="M23.6854 12.8129L23.8087 12.8591L23.932 12.9208L23.9782 12.9516L24.0091 12.9824L24.0245 12.9978L24.0399 13.0133V13.0441V13.0749V13.0903L24.0245 13.1057L24.0091 13.1212L23.9937 13.1366H23.9782H23.9474H23.9166H23.8858L23.747 13.0903L23.6237 13.0441L23.5775 13.0287L23.5312 13.0133L23.485 12.9824L23.4388 12.9516L23.4079 12.9208L23.3771 12.8899L23.3617 12.8745V12.8591V12.8437V12.8283V12.8129V12.7975L23.3771 12.782L23.3925 12.7666L23.4233 12.7512H23.4696H23.5158L23.5621 12.7666L23.6083 12.782L23.6854 12.8129Z" fill="#1F2C51"/>
<path d="M23.4851 13.3678L23.6238 13.3986L23.7625 13.4448L23.8088 13.4757L23.855 13.5065L23.8704 13.5219L23.8858 13.5373L23.9012 13.5527V13.5836V13.599L23.8858 13.6144L23.8704 13.6298L23.855 13.6452L23.8396 13.6606H23.8088H23.7779H23.7471L23.6084 13.6452L23.4697 13.6144L23.408 13.599L23.3463 13.5836L23.3001 13.5682L23.2539 13.5527L23.223 13.5219L23.1922 13.4911L23.1768 13.4757L23.1614 13.4603V13.4448V13.4294V13.3986L23.1768 13.3832V13.3678L23.1922 13.3524L23.223 13.3369L23.2539 13.3215H23.3001H23.3618L23.4234 13.3369L23.4851 13.3678Z" fill="#1F2C51"/>
<path d="M23.3155 13.8611L23.4542 13.8919L23.5929 13.9227L23.6546 13.9535L23.7008 13.9844L23.7162 13.9998L23.7316 14.0152L23.747 14.0306L23.7625 14.046V14.0769V14.0923L23.747 14.1077L23.7316 14.1231H23.7162H23.6854H23.6546H23.6237L23.4696 14.1077L23.3309 14.0923L23.2692 14.0769L23.2076 14.0614L23.1459 14.046L23.0997 14.0306L23.0534 13.9998L23.0226 13.969L23.0072 13.9535L22.9918 13.9381V13.9227V13.9073V13.8919V13.8765L23.0072 13.8611L23.0226 13.8456L23.0534 13.8302L23.0997 13.8148H23.1459H23.1921H23.2538L23.3155 13.8611Z" fill="#1F2C51"/>
<path d="M23.223 14.3235L23.3617 14.3543L23.5004 14.3851L23.5621 14.4159L23.6083 14.4468L23.6237 14.4622L23.6392 14.4776L23.6546 14.493V14.5084V14.5393V14.5547L23.6392 14.5701L23.6237 14.5855H23.6083H23.5775H23.5467H23.5158L23.3617 14.5701L23.223 14.5547L23.1613 14.5393L23.0997 14.5238L23.038 14.5084L22.9918 14.493L22.9455 14.4622L22.9147 14.4314L22.8993 14.4159V14.4005V14.3851V14.3697V14.3543V14.3389L22.9147 14.3235L22.9301 14.308L22.9609 14.2926L23.0072 14.2772H23.0534H23.1151H23.1767L23.223 14.3235Z" fill="#1F2C51"/>
<path d="M23.0997 14.8474L23.2384 14.8628L23.3771 14.8937L23.4388 14.9091L23.485 14.9399L23.5004 14.9553L23.5158 14.9707L23.5313 14.9861V15.017V15.0324V15.0478L23.5158 15.0632L23.5004 15.094L23.485 15.1094H23.4542H23.4234H23.3925L23.2384 15.094L23.0997 15.0786H23.038L22.9764 15.0632L22.9147 15.0478L22.8685 15.0324L22.8222 15.017L22.7914 14.9861L22.776 14.9707L22.7606 14.9553V14.9399V14.9245V14.9091L22.776 14.8937L22.7914 14.8782L22.8222 14.8628L22.8685 14.8474H22.9147H22.9764H23.038H23.0997Z" fill="#1F2C51"/>
<path d="M23.0072 15.3562H23.0689H23.1459L23.2076 15.3716L23.2693 15.387L23.3309 15.4024L23.3772 15.4333L23.3926 15.4487L23.408 15.4641L23.4234 15.4795L23.4388 15.4949V15.5566V15.572L23.4234 15.5874L23.408 15.6028H23.3926L23.3617 15.6182H23.3309H23.3001H23.1614L23.0226 15.6028H22.961L22.8993 15.5874L22.8377 15.572L22.7914 15.5566L22.7452 15.5412L22.7144 15.5258L22.6989 15.5103L22.6835 15.4949V15.4795V15.4641V15.4487V15.4333V15.4179L22.6989 15.4024L22.7298 15.387L22.7606 15.3716L22.8068 15.3562H22.8531H22.9147H23.0072Z" fill="#1F2C51"/>
<path d="M22.9764 15.8647L23.1151 15.8802L23.2538 15.8956L23.3155 15.911L23.3617 15.9418L23.3772 15.9572L23.3926 15.9726L23.408 15.9881L23.4234 16.0035V16.0343V16.0497L23.408 16.0651L23.3926 16.0805L23.3772 16.096H23.3463H23.3155H23.2847H23.1305H22.9918H22.9302H22.8685H22.8068L22.7606 16.0805L22.7144 16.0651L22.6835 16.0343L22.6681 16.0189V16.0035L22.6527 15.9881V15.9726V15.9572V15.9418V15.9264L22.6681 15.911L22.699 15.8956L22.7298 15.8802L22.776 15.8647H22.8377H22.8993H22.9764Z" fill="#1F2C51"/>
<path d="M22.9456 16.4352L23.0843 16.4506L23.223 16.466L23.2847 16.4814L23.3309 16.5122L23.3463 16.5277L23.3618 16.5431L23.3772 16.5585L23.3926 16.5739V16.6047V16.6201L23.3772 16.6356L23.3618 16.651H23.3463L23.3155 16.6664H23.2847H23.2539H23.0997H22.961H22.8993H22.8377L22.776 16.651L22.7298 16.6356L22.6835 16.6201L22.6527 16.5893L22.6373 16.5739L22.6219 16.5585V16.5431V16.5277V16.5122V16.4968V16.4814L22.6373 16.466L22.6681 16.4506L22.699 16.4352H22.7452H22.7914H22.8531H22.9456Z" fill="#1F2C51"/>
<path d="M22.9301 16.9436H23.0689L23.2076 16.959L23.2538 16.9745L23.3001 17.0053L23.3155 17.0207L23.3309 17.0361L23.3463 17.0515V17.0669V17.0978V17.1132L23.3309 17.1286L23.3155 17.144L23.3001 17.1594H23.2692H23.2384H23.2076H23.0689H22.9301H22.8685H22.8068L22.7606 17.144L22.7143 17.1286L22.6681 17.1132L22.6373 17.0978L22.6219 17.0824L22.6064 17.0669V17.0515V17.0361V17.0207V17.0053V16.9899L22.6219 16.9745L22.6527 16.959L22.6835 16.9436L22.7298 16.9282H22.776H22.8377L22.9301 16.9436Z" fill="#1F2C51"/>
<path d="M22.9302 17.4215H23.0535L23.1768 17.4369L23.223 17.4523L23.2693 17.4677L23.2847 17.4831L23.3001 17.4985L23.3155 17.5139V17.5293V17.5602V17.5756V17.591L23.3001 17.6064L23.2847 17.6218H23.2693L23.2384 17.6372H23.2076H23.0689H22.9456H22.8993H22.8531H22.8068L22.7606 17.6218L22.7144 17.6064L22.6835 17.5756L22.6681 17.5602L22.6527 17.5448V17.5293V17.5139V17.4985V17.4831L22.6681 17.4677V17.4523L22.699 17.4369L22.7298 17.4215L22.776 17.406L22.8223 17.3906H22.8839L22.9302 17.4215Z" fill="#1F2C51"/>
<path d="M22.9147 17.9148H23.0381L23.1614 17.9302L23.2076 17.9456L23.2539 17.9764L23.2693 17.9919L23.2847 18.0073L23.3001 18.0227L23.3155 18.0381V18.0535V18.0689L23.3001 18.0843L23.2847 18.0998L23.2693 18.1152L23.2539 18.1306H23.223H23.1922H23.0535H22.9302H22.8839H22.8223H22.776L22.7298 18.1152L22.6835 18.0998L22.6527 18.0843L22.6373 18.0689L22.6219 18.0535V18.0381V18.0227V18.0073V17.9919L22.6373 17.9764L22.6681 17.961L22.699 17.9456L22.7452 17.9302H22.7914H22.8377L22.9147 17.9148Z" fill="#1F2C51"/>
<path d="M22.9302 18.3926H23.0535L23.1768 18.4081L23.223 18.4235L23.2693 18.4389L23.2847 18.4543L23.3001 18.4697L23.3155 18.4851V18.516V18.5314V18.5468L23.3001 18.5622L23.2847 18.5776L23.2693 18.593L23.2539 18.6084H23.223H23.1922H23.0535H22.9302H22.8685H22.8223L22.776 18.593L22.7298 18.5776L22.6835 18.5622L22.6527 18.5468L22.6373 18.5314L22.6219 18.516V18.5005V18.4851V18.4697V18.4543V18.4389V18.4235L22.6527 18.3926L22.6835 18.3772L22.7298 18.3618H22.776H22.8377L22.9302 18.3926Z" fill="#1F2C51"/>
<path d="M22.9302 18.9321H23.0535L23.1768 18.9475L23.2384 18.963L23.2847 18.9784L23.3001 18.9938L23.3155 19.0092L23.3309 19.0246L23.3463 19.0554V19.0709V19.0863L23.3309 19.1017L23.3155 19.1171L23.3001 19.1325L23.2847 19.1479H23.2538H23.223L23.0843 19.1633H22.961H22.9147H22.8531H22.8068L22.7606 19.1479L22.7144 19.1325L22.6835 19.1171L22.6681 19.1017L22.6527 19.0863V19.0709V19.0554V19.04V19.0246V19.0092L22.6681 18.9938L22.699 18.9784L22.7298 18.963L22.776 18.9475L22.8223 18.9321H22.8839H22.9302Z" fill="#1F2C51"/>
<path d="M22.9455 19.4408H23.0843L23.223 19.4562L23.2846 19.4716L23.3309 19.487L23.3463 19.5024L23.3617 19.5178L23.3771 19.5333L23.3925 19.5487V19.5641V19.5795L23.3771 19.5949L23.3617 19.6103L23.3463 19.6257H23.3309H23.3001H23.2692L23.1305 19.6412H22.9918H22.9301H22.8685H22.8222L22.776 19.6257L22.7297 19.6103L22.6989 19.5949L22.6835 19.5795L22.6681 19.5641V19.5487V19.5333V19.5178V19.5024V19.487L22.6835 19.4716L22.7143 19.4408L22.7452 19.4254L22.7914 19.4099L22.8376 19.3945H22.8993L22.9455 19.4408Z" fill="#1F2C51"/>
<path d="M23.0072 19.934H23.1459L23.2692 19.9494L23.3309 19.9649L23.3771 19.9803L23.3925 19.9957L23.4079 20.0111L23.4234 20.0265L23.4388 20.0419V20.0573V20.0728L23.4234 20.0882L23.4079 20.1036L23.3925 20.119H23.3617H23.3309H23.3001L23.1613 20.1344H23.038H22.9764H22.9147H22.8531L22.8068 20.119L22.7606 20.1036L22.7297 20.0882L22.7143 20.0728L22.6989 20.0573V20.0419V20.0265V20.0111L22.7143 19.9957V19.9803L22.7452 19.9494L22.776 19.934L22.8222 19.9186L22.8685 19.9032H22.9301H23.0072V19.934Z" fill="#1F2C51"/>
<path d="M23.0226 20.3964H23.1613L23.2847 20.4118L23.3463 20.4273L23.3926 20.4427L23.408 20.4581L23.4234 20.4735L23.4388 20.4889L23.4542 20.5043V20.5197V20.5352L23.4388 20.5506L23.4234 20.566L23.408 20.5814H23.3771H23.3463H23.3155L23.1768 20.5968H23.038H22.9764H22.9301H22.8839L22.8531 20.5814L22.8222 20.566L22.7914 20.5506V20.5352L22.776 20.5197V20.5043V20.4889V20.4581L22.7914 20.4273L22.8068 20.4118L22.8377 20.3964L22.8685 20.381L22.9147 20.3656H22.961L23.0226 20.3964Z" fill="#1F2C51"/>
<path d="M23.0997 20.8435H23.223L23.3463 20.8589L23.3925 20.8743L23.4388 20.8897L23.4542 20.9052L23.4696 20.9206L23.485 20.936V20.9514V20.9668V20.9822L23.4696 20.9976L23.4542 21.0131L23.4234 21.0285L23.3617 21.0439H23.2384H23.1151H23.0688H23.0226H22.9918L22.9609 21.0285L22.9301 21.0131L22.9147 20.9976L22.8993 20.9822V20.9668V20.936V20.9206L22.9147 20.9052L22.9301 20.8897L22.9609 20.8743H22.9918H23.038L23.0997 20.8435Z" fill="#1F2C51"/>
<path d="M23.4388 21.2443H23.485H23.5158L23.5312 21.2597L23.5467 21.2751L23.5621 21.2905V21.3214V21.3522V21.3676L23.5467 21.383L23.5312 21.3984L23.5004 21.4138H23.4542H23.4388H23.4233H23.4079L23.3925 21.3984L23.3771 21.383L23.3617 21.3676V21.3522V21.3214V21.306V21.2905V21.2751L23.3771 21.2597L23.3925 21.2443L23.4079 21.2289H23.4233L23.4388 21.2443Z" fill="#1F2C51"/>
<path d="M22.8993 21.121L22.6989 20.9977L22.4985 20.859L22.3136 20.7202L22.1286 20.5661L21.959 20.3965L21.8049 20.2116L21.6508 20.0112L21.512 19.8108L21.3733 19.595L21.2346 19.3792L21.1113 19.148L20.988 18.9168L20.8801 18.6702L20.7876 18.4236L20.6951 18.177L20.618 17.9149L20.541 17.6529L20.4793 17.3908L20.4177 17.1288L20.356 16.8668L20.3098 16.6047L20.2635 16.3427L20.2327 16.0807L20.2019 15.8186L20.171 15.5566L20.1556 15.2946L20.1402 15.0479L20.1248 14.8013V14.5547V14.3235L20.1402 14.0923L20.1556 13.8765V13.7069V13.5528L20.1402 13.4141L20.1248 13.2908L20.1094 13.2445L20.094 13.1983L20.0786 13.152L20.0631 13.1212L20.0477 13.0904L20.0169 13.0595L20.0015 13.0441L19.9707 13.0287L19.5082 12.7204L19.0458 12.4276L18.568 12.1501L18.0902 11.8727L17.6123 11.6106L17.1345 11.3486L16.6413 11.102L16.148 10.8554L15.6548 10.6242L15.1615 10.4084L14.6221 10.1617L14.1134 9.96136L13.6047 9.76098L13.0961 9.57602L12.5874 9.40646L12.0788 9.25232L11.5701 9.09819L11.046 8.95946L10.5374 8.83615L10.0133 8.71284L9.48924 8.62036L8.96516 8.52787L8.44109 8.4508L7.91702 8.38915L7.39295 8.32749L6.86888 8.28125L6.36022 8.25042L5.83615 8.23501L5.32749 8.2196H4.81884L4.31018 8.23501L3.80152 8.26584H3.72445H3.6628H3.63197H3.61655L3.60114 8.25042L3.58573 8.23501L3.5549 8.20418L3.52407 8.15794L3.49324 8.1117L3.447 8.0038L3.36993 7.80342L3.29286 7.60304L3.23121 7.38725L3.16955 7.17145L3.1079 6.94025L3.06166 6.72445L3.03083 6.50866L3 6.29286V6.24662V6.21579L3.01541 6.18497L3.03083 6.15414L3.04624 6.12331L3.07707 6.1079L3.1079 6.09248L3.15414 6.06166L3.49324 6.03083L3.87859 6H4.27935L4.69552 6.01541L5.15794 6.03083L5.63577 6.06166L6.14443 6.1079L6.6685 6.16955L7.20798 6.24662L7.7783 6.36993L8.34861 6.47783L8.93434 6.60114L9.53548 6.73987L10.152 6.894L10.784 7.06356L11.416 7.24852L12.0479 7.4489L12.6953 7.6647L13.3273 7.8959L13.9747 8.12711L14.6066 8.37373L15.2386 8.63577L15.8706 8.91322L16.4871 9.20608L17.1037 9.51436L17.6894 9.83805L18.2751 10.1772L18.8454 10.5317L19.4003 10.9016L19.9244 11.287L20.4331 11.6877L20.9263 12.0885L21.0188 12.1964L21.0959 12.2889L21.1575 12.3659L21.2038 12.443L21.2346 12.5046L21.2654 12.5663L21.2808 12.628V12.6896V12.7513L21.2654 12.8129L21.25 12.8746L21.2346 12.9362L21.1884 13.1058L21.1267 13.3216L21.0805 13.5066L21.0496 13.7069L21.0188 13.9227L20.988 14.1385L20.9726 14.3697L20.9571 14.6163L20.9417 14.863V15.1096V15.3716L20.9571 15.6337L20.9726 15.8957L20.988 16.1731L21.0188 16.4506L21.0496 16.728L21.0805 17.0055L21.1267 17.2829L21.1884 17.5604L21.25 17.8378L21.3117 18.1153L21.3887 18.3927L21.4658 18.6548L21.5583 18.9168L21.6508 19.1789L21.7587 19.4255L21.8666 19.6721L21.9899 19.9033L22.1132 20.1345L22.2519 20.3503L22.4061 20.5661L22.5602 20.7665L22.7297 20.9514L22.8993 21.121Z" fill="#1F2C51"/>
<path d="M19.5391 32.9896L19.7395 32.8201L19.9399 32.6351L20.1403 32.4502L20.3407 32.2652L20.5256 32.0648L20.7106 31.8644L20.8956 31.664L21.0651 31.4483L21.2347 31.2325L21.4042 31.0167L21.5738 30.8009L21.7279 30.5697L21.8821 30.3385L22.0362 30.1072L22.1749 29.876L22.3136 29.6294L22.437 29.3828L22.5603 29.1362L22.6682 28.8896L22.7606 28.6275L22.8531 28.3809L22.9302 28.1189L23.0073 27.8568L23.0689 27.5948L23.1306 27.3328L23.1768 27.0707L23.2076 26.7933L23.2385 26.5158L23.2539 26.2384V25.9609V25.6835L23.2385 25.406L23.2231 25.2519L23.2076 25.0977L23.1768 24.9436L23.146 24.8049L23.1152 24.6662L23.0689 24.5274L23.0227 24.4041L22.9764 24.2808L22.884 24.065L22.8069 23.88L22.7452 23.7413L22.699 23.6643L22.6219 23.5101L22.5294 23.3714L22.437 23.2327L22.3445 23.0939L22.252 22.9552L22.1595 22.8165L22.0516 22.6932L21.9437 22.5545L21.8358 22.4311L21.7279 22.3078L21.62 22.1845L21.5121 22.0612L21.3888 21.9379L21.2809 21.8146L21.1576 21.7067L21.0343 21.5834L20.7877 21.3676L20.5256 21.1672L20.2636 20.9668L20.0016 20.7664L19.7395 20.5815L19.4621 20.3965L19.1846 20.2116L18.9072 20.042L18.6143 19.857L18.3215 19.6875L18.0286 19.5179L17.7357 19.3638L17.4429 19.2096L17.15 19.0555L16.8417 18.9014L16.4101 18.886L15.9785 18.7164L15.547 18.5469L15.3157 18.4698L15.1 18.3927L14.8687 18.3002L14.6375 18.2232L14.4063 18.1615L14.1751 18.0999L13.9439 18.0382L13.7127 17.9765L13.4815 17.9149L13.2657 17.8686L13.0345 17.8224L12.8033 17.7916L12.4642 17.7299L12.1097 17.6683L11.7551 17.6066L11.4006 17.545L11.2157 17.5141L11.0461 17.4833L10.8611 17.4679L10.707 17.4371L10.5375 17.4216L10.3525 17.4062H10.1675H9.98255H9.813H9.5972H9.39682H9.2581H9.21186H9.13479L9.05772 17.3908L8.99606 17.4062L8.919 17.3908L8.85734 17.3754H8.82651H8.8111L8.79568 17.36L8.67237 17.2829L8.54906 17.2058L8.44116 17.1288L8.33327 17.0517L8.11747 16.8822L7.91709 16.6972L7.71671 16.5276L7.53175 16.3273L7.34678 16.1423L7.16181 15.9573L7.13099 15.8957L7.08475 15.8648V15.834V15.8032L7.10016 15.7878L7.13099 15.7569L7.17723 15.7261L7.23888 15.6953L7.33137 15.6645L7.47009 15.6336L7.73213 15.5874L7.99416 15.5566L8.2562 15.5257L8.51823 15.4949L8.78027 15.4795L9.05772 15.4641H9.31976H9.5972L9.87465 15.4795L10.1521 15.4949L10.4296 15.5257L10.707 15.5566L10.9845 15.6028L11.2465 15.649L11.5239 15.6953L11.786 15.7569L12.048 15.8186L12.31 15.8803L12.5721 15.9573L12.8341 16.0344L13.0962 16.1115L13.3428 16.2039L13.5894 16.2964L13.836 16.3889L14.0826 16.4814L14.3138 16.5893L14.5451 16.6972L14.7763 16.8051L14.9921 16.913L15.2078 17.0209L15.4236 17.1442L15.624 17.2521L15.8398 17.3754L16.0556 17.4987L16.1481 17.5604L16.2406 17.6066L16.3176 17.6529L16.3639 17.6991L16.3947 17.7145L16.4255 17.7299L16.441 17.7453L16.4718 17.7607H16.5026H16.5334H16.5643H16.5951H16.6259L16.6413 17.7453L16.6722 17.7299L16.6876 17.7145L16.7184 17.6991L16.7338 17.6837L16.7492 17.6529L16.7647 17.622L16.7801 17.5912L16.7955 17.5604V17.5295V17.4987L16.7801 17.4679L16.7647 17.4371V17.4062L16.7492 17.3754L16.7184 17.3446L16.6876 17.3137L16.6568 17.2829L16.6259 17.2675L16.6105 17.2521L16.5797 17.2367L16.256 17.0517L15.9323 16.8667L15.6086 16.6972L15.2849 16.5276L14.9612 16.3735L14.653 16.2194L14.3293 16.0806L14.021 15.9419L13.7127 15.8186L13.4044 15.7107L13.0962 15.6028L12.7879 15.5103L12.4796 15.4333L12.1867 15.3562L11.8939 15.2791L11.601 15.2175L11.3081 15.1558L11.0307 15.1096L10.7532 15.0633L10.4758 15.0325L10.1983 15.0017L9.93631 14.9863L9.62803 14.9708L9.366 14.9554H9.11938H8.87275L8.62613 14.9708L8.39492 15.0017L8.16372 15.0171L7.93251 15.0479L7.71671 15.0787L7.50092 15.1096L7.31595 15.1404L7.13099 15.1712L7.0385 15.1866L6.96143 15.202H6.88437H6.82271H6.8073L6.79188 15.1866L6.77647 15.1712L6.74564 15.1558L6.68398 15.0941L6.60692 15.0171L6.42195 14.8167L6.20616 14.5855L5.99036 14.3389L5.77457 14.1077L5.60501 13.9227L5.49712 13.8148L5.40463 13.7377L5.35839 13.6915L5.34298 13.6761V13.6607V13.6452V13.6144V13.5836L5.35839 13.5528L5.38922 13.5219L5.42005 13.4911L5.46629 13.4603L5.52795 13.4295L5.60501 13.3986L5.6975 13.3678L5.78998 13.337L5.88246 13.3061L5.97495 13.2753L6.08284 13.2445L6.26781 13.2137L6.46819 13.1828L6.57609 13.1674L6.6994 13.152L6.83812 13.1366L6.99226 13.1212L7.16181 13.1058L7.33137 13.0903H7.51633H7.7013L7.93251 13.1058L8.17913 13.1212L8.42575 13.1366L8.68779 13.1674L8.94982 13.1982L9.21186 13.2291L9.47389 13.2599L9.75134 13.3061L10.0288 13.3524L10.3062 13.3986L10.5837 13.4603L10.8611 13.5219L11.1386 13.5836L11.416 13.6607L11.6935 13.7377L11.9709 13.8148L12.2484 13.9073L12.5258 13.9998L12.8033 14.0922L13.0807 14.1847L13.3582 14.2772L13.6202 14.3697L13.8823 14.4622L14.1443 14.5547L14.4063 14.6471L14.653 14.7396L14.8996 14.8475L15.1462 14.9554L15.3774 15.0633L15.6086 15.1712L15.8244 15.2791L16.0402 15.387L16.0864 15.4024L16.1327 15.4178L16.1789 15.4333L16.2252 15.4487H16.2868H16.3331L16.3485 15.4333H16.3639L16.3793 15.4178L16.3947 15.4024L16.4255 15.3716L16.441 15.3408L16.4564 15.2945V15.2483V15.202L16.441 15.1558L16.4255 15.1096L16.3947 15.0633L16.3639 15.0171L16.3331 14.9863L16.2868 14.9554L16.2406 14.9246L16.1327 14.8784L16.0248 14.8321L15.9015 14.7705L15.7936 14.7396L15.5315 14.6317L15.2849 14.5084L15.0383 14.4005L14.7763 14.2926L14.5296 14.1693L14.2676 14.0768L14.021 13.9689L13.7744 13.8765L13.5123 13.784L13.2657 13.6915L13.0037 13.6144L12.7416 13.5373L12.495 13.4603L12.233 13.3832L11.9709 13.3061L11.7089 13.2291L11.4469 13.1674L11.2002 13.0903L10.9382 13.0287L10.6762 12.9825L10.4141 12.9362L10.1521 12.89L9.89007 12.8437L9.61262 12.7821L9.35058 12.7512L9.08855 12.7204L8.82651 12.6896L8.54906 12.6588L8.27161 12.6279L7.99416 12.6125L7.71671 12.5971L7.43926 12.5817H7.22347H6.99226L6.76105 12.5971L6.52985 12.6125L6.29864 12.6433L6.08284 12.6896L5.86705 12.7358L5.65126 12.7975L5.52795 12.8437L5.40463 12.89H5.37381H5.34298H5.31215H5.28132H5.2505L5.21967 12.8746L5.18884 12.8591H5.15801L5.11177 12.8129L5.05012 12.7358L4.97305 12.6433L4.89598 12.52L4.80349 12.3813L4.71101 12.2272L4.61853 12.073L4.52604 11.9189L4.43356 11.7648L4.35649 11.6106L4.27942 11.4719L4.21777 11.3486L4.17153 11.2407L4.1407 11.1482L4.12528 11.1174L4.10987 11.0865V11.0711L4.12528 11.0557L4.15611 11.0403L4.20235 11.0249H4.23318L4.35649 10.9941L4.49522 10.9632L4.63394 10.9324L4.75725 10.9016L4.84974 10.8862H4.89598H5.00387L5.12719 10.8708L5.26591 10.8553L5.42005 10.8399L5.57419 10.8245L5.75915 10.8091L5.95953 10.7937L6.19074 10.7783L6.43736 10.7629H6.6994L6.99226 10.7783L7.30054 10.7937L7.63964 10.8245L8.00958 10.8553L8.41034 10.9016L8.85734 10.9632L9.05772 10.9941L9.27351 11.0249L9.48931 11.0557L9.7051 11.0865L10.1367 11.1636L10.5683 11.2561L10.9999 11.364L11.4315 11.4873L11.8785 11.626L12.31 11.7648L12.7416 11.9189L13.1732 12.073L13.6048 12.2426L14.021 12.4121L14.4372 12.5817L14.8379 12.7667L15.2387 12.9516L15.624 13.152L15.6857 13.1828L15.7473 13.2137L15.7782 13.2291L15.809 13.2445H15.8398H15.8706H15.9015H15.9323L15.9631 13.2291L15.9785 13.2137L15.994 13.1982L16.0094 13.1674L16.0248 13.1366L16.0402 13.0903V13.0749V13.0441V13.0287L16.0248 12.9979L15.994 12.9516L15.9477 12.9054L15.9015 12.8591L15.8398 12.8129L15.7936 12.7358L15.7319 12.705L15.5932 12.6433L15.4236 12.5663L15.2541 12.4738L15.1 12.3967L14.7608 12.258L14.4217 12.1039L14.0826 11.9651L13.7281 11.8264L13.3736 11.7031L13.0191 11.5798L12.6646 11.4565L12.3255 11.3332L12.1867 11.2869L11.9709 11.2253L11.7397 11.1636L11.5702 11.1174L11.4931 11.0865L11.4006 11.0557L11.2927 11.0249L11.1694 10.9941L11.0307 10.9632L10.9074 10.9324L10.7687 10.9016L10.6299 10.8708L10.4604 10.8399L10.2446 10.7937L10.0134 10.7474L9.78217 10.7166L9.55096 10.6704L9.35058 10.6241L9.18103 10.5933L9.07313 10.5779L8.94982 10.5625L8.78027 10.5316L8.56448 10.5162L8.33327 10.4854L8.10206 10.4546L7.87085 10.4237L7.67047 10.4083L7.51633 10.3929L7.33137 10.3775L7.16181 10.3621L6.96143 10.3467H6.76105L6.36029 10.3313H5.94412H5.74374L5.54336 10.3467L5.34298 10.3621L5.15801 10.3929L4.95763 10.4083L4.77267 10.4237L4.5877 10.4546L4.40273 10.4854L4.32566 10.5008H4.26401H4.23318L4.20235 10.4854L4.15611 10.4546L4.10987 10.4083L4.06363 10.3467L4.01739 10.2696L3.89408 10.0846L3.78618 9.86885L3.67828 9.65306L3.57039 9.45268L3.4779 9.26771L3.41625 9.12899L3.37001 9.08274L3.33918 9.02109L3.30835 8.97485V8.91319V8.88236V8.85154V8.83612L3.32376 8.80529L3.33918 8.78988L3.38542 8.77447L3.41625 8.75905L3.46249 8.74364L3.52414 8.72823L3.60121 8.71281L3.67828 8.6974H3.77077L3.95573 8.68198L4.15611 8.66657L4.34108 8.65116H4.51063H4.63394H4.6956L4.91139 8.63574H5.15801H5.43546H5.72833H6.00578H6.26781H6.49902H6.66857L6.82271 8.65116L7.02309 8.66657L7.2543 8.6974L7.50092 8.72823L7.76296 8.75905L8.04041 8.78988L8.31785 8.82071L8.5953 8.86695L8.88817 8.91319L9.19644 8.95943L9.50472 9.02109L9.813 9.08274L10.1213 9.1444L10.4296 9.22147L10.7378 9.29854L11.0461 9.37561L11.3544 9.45268L11.6627 9.54516L11.9555 9.63764L12.2638 9.73013L12.5567 9.82261L12.8495 9.91509L13.1424 10.0076L13.4353 10.1001L13.7127 10.208L14.0364 10.3313L14.3755 10.47L14.7146 10.6087L15.0537 10.7474L15.362 10.8862L15.6394 11.0249L15.8706 11.1328L16.1173 11.2561L16.3485 11.3794L16.5951 11.5027L16.8417 11.626L17.0883 11.7648L17.335 11.9035L17.5816 12.0422L17.8282 12.1809L18.0594 12.3197L18.2906 12.4584L18.5218 12.6125L18.753 12.7667L18.9842 12.9208L19.2155 13.0749L19.4312 13.2291L19.647 13.3832L19.6779 13.3986L19.6933 13.414L19.7087 13.4295L19.7241 13.4449L19.7395 13.4911L19.7549 13.5373V13.6144V13.6607V13.7377V13.861V13.9844V14.0614V14.1847V14.4159V14.6626V14.8321V15.0325V15.2329V15.4333L19.7704 15.6336L19.7858 15.834L19.8012 16.0498L19.832 16.2502L19.8628 16.466L19.8937 16.6664L19.9399 16.8667L19.9861 17.0671L20.0324 17.2675L20.0786 17.4679L20.1403 17.6683L20.1865 17.8532L20.2482 18.0382L20.279 18.1153L20.3253 18.2386L20.3715 18.3773L20.4331 18.5314L20.4948 18.6856L20.541 18.8243L20.5873 18.9322L20.6181 18.9939L20.6489 19.0555L20.6952 19.148L20.7568 19.2713L20.8185 19.41L20.8802 19.5642L20.9572 19.7029L21.0189 19.8108L21.0651 19.8879L21.1268 19.9958L21.2038 20.1037L21.2809 20.1961L21.358 20.2886L21.435 20.3811L21.5121 20.4736L21.5892 20.5661L21.6663 20.6586L21.8358 20.8435L22.0208 21.0131L22.2057 21.1826L22.3907 21.3368L22.4986 21.4138L22.6219 21.4909L22.7452 21.568L22.8685 21.645L23.0073 21.7221L23.146 21.7992L23.2847 21.8762L23.4234 21.9379L23.5622 21.9996L23.7163 22.0612L23.8704 22.1229L24.0246 22.1691L24.1787 22.2154L24.3329 22.2616L24.487 22.3078L24.6411 22.3541L24.8107 22.3849L24.9648 22.4157L25.1344 22.4466L25.3039 22.4774L25.4735 22.5082L25.6276 22.5236L25.7972 22.539L25.9513 22.5545L26.1054 22.5699H26.2596H26.4137H26.5679H26.722H26.8761L27.0303 22.5545L27.169 22.539L27.354 22.5236L27.5389 22.4928L27.7085 22.462L27.878 22.4311L28.0322 22.4003L28.1863 22.3695L28.3405 22.3387L28.4946 22.2924L28.6333 22.2462L28.772 22.1999L28.9108 22.1537L29.0495 22.1075L29.2961 22.015L29.5582 21.9225L29.6506 21.8762L29.7585 21.83L29.8664 21.7838L29.9743 21.7221L30.2055 21.5988L30.4367 21.4601L30.6525 21.3213L30.8683 21.1826L30.9608 21.1056L31.0533 21.0439L31.1304 20.9822L31.2074 20.9206L31.2383 20.8898L31.2691 20.8743L31.2845 20.8589H31.2999H31.3153L31.3307 20.8743L31.3462 20.8898L31.3616 20.9206L31.3924 20.9822L31.4386 21.0593L31.4695 21.1518L31.5003 21.2443L31.562 21.4447L31.6082 21.6142L31.6699 21.8454L31.7161 22.0612L31.7623 22.2924L31.7932 22.5082L31.824 22.7394L31.8394 22.9552L31.8548 23.171V23.3868V23.6026L31.8394 23.8184L31.824 24.0342L31.7932 24.25L31.7623 24.4658L31.7161 24.6816L31.6699 24.8974L31.6082 25.1132L31.5465 25.329L31.4849 25.5293L31.4078 25.7297L31.3307 25.9301L31.2383 26.1305L31.1458 26.3309L31.0379 26.5312L30.93 26.7316L30.8221 26.932L30.7142 27.117L30.5909 27.3019L30.4676 27.4869L30.3288 27.6719L30.1901 27.8568L30.0514 28.0418L29.9127 28.2113L29.7123 28.4426L29.5119 28.6738L29.2961 28.8896L29.0803 29.1053L28.8491 29.3211L28.6179 29.5215L28.3713 29.7219L28.1247 29.9069L27.878 30.0918L27.616 30.2768L27.354 30.4464L27.0919 30.6159L26.8299 30.7855L26.5525 30.9396L26.275 31.0937L25.9976 31.2325L25.7201 31.3712L25.4427 31.5099L25.1652 31.6332L24.8878 31.7565L24.6103 31.8798L24.3329 32.0032L24.0554 32.111L23.778 32.2035L23.5005 32.296L23.2231 32.3885L22.9456 32.4656L22.6682 32.5426L22.3907 32.6197L22.1287 32.6814L21.8666 32.743L21.6046 32.8047L21.4505 32.8355L21.2038 32.8817L20.8956 32.9434L20.5565 33.0051L20.2174 33.0667L19.9245 33.1129L19.8012 33.1284H19.6933H19.6162H19.57H19.5546V33.1129V33.0975V33.0821V33.0667L19.57 33.0513L19.5854 33.0359L19.5391 32.9896Z" fill="#1F2C51"/>
<path d="M31.6082 10.7474H31.562H31.5157L31.4849 10.7628L31.4541 10.7782L31.4233 10.809L31.4078 10.8399L31.3924 10.8707L31.377 10.9169V10.9478V10.9632V10.9786V10.994L31.3924 11.0402L31.4233 11.0865L31.4541 11.1173L31.5003 11.1481L31.5466 11.1636L31.5928 11.179H31.639H31.6853H31.7315L31.7778 11.1636H31.7932L31.8086 11.1481L31.824 11.1327L31.8394 11.1173L31.8548 11.1019L31.8703 11.0865V11.0711V11.0402V11.0094V10.9786L31.8548 10.9478L31.8394 10.9169L31.8086 10.8707L31.7778 10.8244L31.7315 10.7782L31.6853 10.7474L31.6699 10.732L31.639 10.7166H31.6082V10.7474Z" fill="#1F2C51"/>
<path d="M31.0069 17.622L30.9607 17.6374H30.9144L30.8682 17.622L30.822 17.6065L30.7757 17.5757L30.7295 17.5449L30.6832 17.4986L30.6216 17.4524L30.5599 17.4062L30.5137 17.3445L30.452 17.2829L30.3904 17.2058L30.2825 17.0516L30.1746 16.8821L30.0667 16.7125L29.9742 16.543L29.8817 16.3734L29.8046 16.2193L29.7276 16.0806L29.6659 15.9573L29.6197 15.8494L29.5889 15.7723L29.5426 15.6336L29.4964 15.4948L29.4655 15.3407L29.4347 15.202L29.4039 15.0633L29.3576 14.9399L29.3422 14.8012L29.3268 14.6625L29.3114 14.5238V14.385V14.2463V14.123V14.0151L29.3268 13.8918L29.3422 13.7839L29.3576 13.676L29.3731 13.5681L29.3885 13.4756L29.4039 13.3831L29.4193 13.2907L29.4347 13.2136L29.4655 13.1365L29.4964 13.0749L29.5272 13.0132L29.558 12.967L29.5889 12.9207L29.6197 12.8899L29.6505 12.8591L29.6813 12.8437L29.7122 12.8282H29.743L29.7584 12.8437L29.8046 12.9516L29.9125 13.2598L30.5291 15.0941L30.5599 15.1712L30.637 15.4024L30.7449 15.7106L30.8682 16.0806L30.9915 16.4505L31.0994 16.7742L31.1765 17.0208L31.2073 17.1287L31.2227 17.1595V17.1904V17.2212V17.2674V17.3445L31.2073 17.4062V17.437L31.1919 17.4678L31.1765 17.4986L31.1611 17.5295L31.1302 17.5603L31.0994 17.5911L31.0532 17.622H31.0069Z" fill="#1F2C51"/>
<path d="M34.7526 15.4179H34.7063H34.6755L34.6447 15.4333L34.6293 15.4487V15.4641V15.4795V15.4949L34.6447 15.5104L34.7218 15.5874L34.8142 15.6645L34.8297 15.6799L34.8451 15.6953L34.8605 15.7107V15.7416V15.8032V15.8495V15.9265V16.0498V16.1732V16.2656V16.3427V16.4044V16.466V16.5123V16.5277L34.8759 16.5431L34.8913 16.5585L34.9067 16.5739H34.9221H34.9375H34.953H34.9684L34.9992 16.5585L35.0454 16.5277L35.0917 16.4968L35.1379 16.4506L35.215 16.3581L35.2921 16.2656L35.3383 16.1886L35.3537 16.1577L35.4154 16.0498L35.4616 15.9419L35.5079 15.8495L35.5387 15.757L35.5695 15.6645L35.6003 15.572L35.6312 15.4641L35.662 15.3408V15.3254V15.31V15.2946V15.2792L35.6466 15.2637L35.6312 15.2483L35.6003 15.2329H35.5695H35.5387L35.5079 15.2483L35.477 15.2637L35.4462 15.2792L35.4 15.2946L35.3537 15.31L35.2458 15.3408L35.1225 15.3562L34.9992 15.3716L34.8913 15.387H34.7988L34.7526 15.4179Z" fill="#1F2C51"/>
<path d="M34.2902 7.58752L34.4443 7.51045L34.6138 7.43338L34.7834 7.37173L34.953 7.31007L35.1225 7.26383L35.2921 7.21759L35.4616 7.18676L35.6312 7.15593L35.7853 7.12511L35.924 7.10969L36.0627 7.09428H36.1861H36.294H36.3864L36.4635 7.10969L36.5098 7.12511L36.5406 7.15593V7.18676L36.5252 7.233L36.4789 7.27924L36.4173 7.3409L36.294 7.38714L36.2015 7.46421L36.0936 7.54128L35.8315 7.72625L35.5387 7.92663L35.3845 8.03452L35.215 8.14242L35.0608 8.26573L34.9067 8.38904L34.7063 8.54318L34.5059 8.69732L34.2902 8.85146L34.0898 8.99018L33.9973 9.05184L33.9048 9.11349L33.8123 9.15974L33.7198 9.20598L33.6274 9.2368L33.5349 9.26763L33.4578 9.28305L33.3807 9.29846H33.3345H33.2883L33.242 9.28305L33.2112 9.26763L33.1804 9.25222L33.1495 9.2368L33.1187 9.22139L33.0879 9.19056L33.0262 9.14432L32.98 9.08267L32.9337 9.03642L32.9029 8.99018L32.8875 8.92853V8.8977V8.86687V8.83604L32.9029 8.80522L32.9183 8.77439L32.9337 8.72815L32.98 8.65108L33.0416 8.5586L33.1187 8.46611L33.2112 8.37363L33.3191 8.28115L33.4424 8.18866L33.5657 8.09618L33.7044 8.0037L33.8432 7.91121L33.9973 7.81873L34.1514 7.72625L34.2902 7.58752ZM36.1861 7.81873L36.0165 7.95745L35.847 8.09618L35.662 8.2349L35.477 8.37363L35.0917 8.65108L34.6909 8.94394L34.2902 9.2368L33.8894 9.52967L33.689 9.66839L33.504 9.80712L33.3191 9.96126L33.1495 10.1L33.0879 10.1462L33.0262 10.1771L32.9646 10.1925L32.9183 10.2079H32.8567L32.795 10.1925L32.7179 10.1616L32.6409 10.1308L32.4559 10.0383L32.2864 9.94584L32.2093 9.91501L32.1168 9.88419L32.0243 9.85336L31.9164 9.83795H31.8702H31.8239H31.7931H31.7623L31.7315 9.85336L31.7006 9.86877L31.6698 9.88419L31.639 9.8996L31.5927 9.94584L31.5465 10.0075L31.5157 10.0692L31.5002 10.1308L31.4694 10.2079L31.454 10.2695L31.4386 10.3004L31.3769 10.3312L31.3153 10.362L31.2382 10.4083L31.2074 10.4391L31.1766 10.4853L31.1611 10.5162L31.1149 10.547H31.0687L31.0224 10.5316L30.9762 10.5007L30.9453 10.4545L30.9145 10.3928L30.8991 10.3312L30.8837 10.2695L30.8683 10.1925V10.1154V10.0383L30.8837 9.96126L30.8991 9.88419L30.9145 9.82253L30.9453 9.76088L30.9762 9.71463L31.0224 9.68381L31.0532 9.65298L31.1303 9.57591L31.2536 9.4526L31.4078 9.31387L31.5773 9.15974L31.7469 9.0056L31.9164 8.85146L32.0551 8.71273L32.1785 8.58942L32.3018 8.4507L32.4405 8.31197L32.5792 8.15783L32.7179 8.0037L32.8567 7.84956L33.0108 7.69542L33.1649 7.54128L33.242 7.47962L33.3037 7.41797L33.3653 7.37173L33.427 7.32549L33.4886 7.27924L33.5503 7.24842L33.5965 7.21759L33.6582 7.20218L33.7661 7.17135L33.8586 7.14052L33.9511 7.12511L34.0435 7.09428L34.1514 7.06345L34.2902 7.03262L34.4443 7.00179L34.6293 6.97097L34.8296 6.94014L35.0454 6.90931L35.2921 6.87848L35.5695 6.84766H35.6774H35.847H36.0473L36.2631 6.86307L36.371 6.87848L36.4789 6.8939L36.5714 6.90931L36.6485 6.94014L36.6793 6.95555L36.7101 6.97097L36.7564 7.00179L36.7872 7.04804V7.09428L36.8026 7.14052V7.17135V7.20218V7.233L36.7872 7.26383L36.7564 7.29466L36.7101 7.35631L36.6639 7.41797L36.6176 7.46421L36.1861 7.81873ZM32.0397 10.2695H31.9935H31.9472H31.9164H31.8856L31.8394 10.3004L31.8085 10.362V10.3928L31.8548 10.4391L31.901 10.4545H31.9472L31.9935 10.4699L32.0397 10.4853L32.086 10.5007L32.1322 10.5162L32.1785 10.5316H32.2247H32.2555H32.2864L32.3172 10.5162L32.348 10.4853V10.4545L32.3326 10.4237L32.2864 10.3774L32.2401 10.3466L32.1939 10.3312L32.1322 10.3158L32.0706 10.3004L32.0397 10.2695ZM34.136 12.4583L34.0589 12.4429H33.9973H33.9356L33.874 12.4583L33.8277 12.4737L33.7815 12.5045L33.7507 12.5354L33.7353 12.5816V12.6279V12.6741L33.7507 12.7203L33.7815 12.7666L33.8277 12.8128L33.874 12.8591L33.9356 12.8899L33.9973 12.9207L34.0589 12.9361H34.136H34.1977L34.2593 12.9207L34.3056 12.9053L34.3518 12.8745L34.3826 12.8436L34.3981 12.7974L34.4135 12.7512L34.3981 12.7049L34.3826 12.6587L34.3518 12.6124L34.3056 12.5662L34.2593 12.52L34.1977 12.4891C34.1977 12.4737 34.136 12.4583 34.136 12.4583ZM34.0589 12.1038L33.9973 12.0884H33.9202H33.8432H33.7815L33.7044 12.1038L33.6428 12.1192L33.5811 12.1346L33.5195 12.1654L33.4578 12.1963L33.4116 12.2271L33.3653 12.2579L33.3345 12.3042L33.3037 12.3504L33.2883 12.3966L33.2728 12.4429V12.4737L33.2883 12.5662L33.3037 12.6279L33.3191 12.6895L33.3499 12.7512L33.3807 12.8128L33.4116 12.8745L33.4578 12.9361L33.504 12.9978L33.5503 13.044L33.6119 13.0903L33.6736 13.1365L33.7353 13.1828L33.7969 13.2136L33.8586 13.2444L33.9202 13.2752L33.9819 13.2907L34.0589 13.3061H34.1206H34.1823L34.2439 13.2907L34.3056 13.2752L34.3672 13.2598L34.4289 13.229L34.4751 13.1982L34.5214 13.1673L34.5676 13.1211L34.6138 13.0749L34.6447 13.0286L34.6755 12.967L34.6909 12.9053L34.7063 12.8436V12.782V12.7203L34.6909 12.6587L34.6755 12.597L34.6601 12.5354L34.6293 12.4891L34.5984 12.4429L34.5676 12.3966L34.5214 12.3504L34.4751 12.3042L34.4289 12.2733L34.3672 12.2425L34.3056 12.2117L34.2439 12.1963L34.1823 12.1654L34.1206 12.15C34.1206 12.1192 34.0589 12.1038 34.0589 12.1038ZM34.0589 11.8417H33.9511H33.8586L33.7661 11.8572L33.6736 11.8726L33.5811 11.888L33.504 11.9188L33.427 11.9496L33.3499 11.9959L33.2883 12.0421L33.2266 12.0884L33.1804 12.15L33.1341 12.2117L33.1033 12.2733L33.0725 12.335L33.057 12.4121V12.4891V12.5662L33.0725 12.6587L33.0879 12.7358L33.1187 12.8128L33.1495 12.9053L33.1958 12.9824L33.242 13.0594L33.3037 13.1365L33.3653 13.2136L33.427 13.2752L33.5195 13.3985L33.5965 13.4602L33.689 13.5064L33.7815 13.5527L33.874 13.5835L33.9819 13.6143H34.0281H34.0744H34.1206H34.1668H34.2131H34.2593L34.3056 13.5989L34.3518 13.5835L34.4443 13.5527L34.5368 13.5064L34.6138 13.4602L34.6909 13.3985L34.7526 13.3369L34.8142 13.2752L34.8759 13.1982L34.9221 13.1211L34.953 13.044L34.9838 12.9515L34.9992 12.9053V12.8591V12.8128V12.7666V12.7203V12.6741V12.6279L34.9838 12.5816L34.9684 12.4891L34.9375 12.4121L34.8913 12.335L34.8451 12.2579L34.7834 12.1963L34.7217 12.1346L34.6447 12.073L34.5676 12.0267L34.4905 11.9805L34.3981 11.9496L34.3056 11.9188L34.2131 11.888L34.1206 11.8726L34.0589 11.8417ZM32.9337 10.7474L32.8875 10.7628L32.8258 10.7782L32.7488 10.809L32.7179 10.8244L32.6871 10.8553V10.9323L32.7179 10.9786L32.7642 10.994L32.795 11.0094H32.8413H32.8721L32.9029 11.0248L32.9337 11.0402L32.98 11.0865L33.0262 11.1327L33.0725 11.2252L33.0879 11.2868L33.1033 11.3485L33.1187 11.4102L33.1341 11.441L33.1495 11.4718L33.2112 11.5489L33.242 11.5643H33.2728H33.3037H33.3345L33.4424 11.5335L33.5503 11.5026L33.6582 11.4718L33.7661 11.4564L33.874 11.441L33.9819 11.4256H34.0898L34.1977 11.441L34.3056 11.4564L34.4135 11.4872L34.4597 11.5026L34.5059 11.5181L34.5676 11.5489L34.6138 11.5797L34.6601 11.6105L34.7217 11.6414L34.768 11.6722L34.8142 11.703L34.8759 11.7493L34.9221 11.7955L34.9684 11.8417L35.03 11.888L35.0917 11.9496L35.1379 12.0113L35.1842 12.073L35.2304 12.1346L35.2612 12.1963L35.2921 12.2579L35.3229 12.3196L35.3383 12.3812L35.3537 12.4429L35.3691 12.5045L35.3845 12.5662V12.6279V12.6895V12.7512L35.3691 12.8128L35.3537 12.8745L35.3383 12.9361L35.3229 12.9978L35.2921 13.0594L35.2612 13.1211L35.2304 13.1828L35.1996 13.2444L35.1687 13.2907L35.1225 13.3523L35.0454 13.4602L34.953 13.5681L34.8451 13.6606L34.7372 13.7531L34.7063 13.7839L34.6755 13.8147L34.6447 13.861V13.9072L34.6755 13.938L34.7217 13.9689L34.7526 13.9843L34.9067 14.0151L34.9684 14.0305L35.0146 14.0151H35.0608L35.1071 13.9997L35.1533 13.9843L35.2304 13.9534L35.3075 13.9072L35.3845 13.861L35.4462 13.7993L35.5078 13.7377L35.5695 13.676L35.6312 13.5989L35.6774 13.5219L35.7236 13.4448L35.7699 13.3677L35.8007 13.2907L35.8315 13.2136L35.8624 13.1365L35.8932 13.0594L35.924 12.9207L35.9394 12.7974L35.9549 12.6741V12.5508V12.4275V12.3042L35.9394 12.1809L35.924 12.0575L35.9086 11.9496L35.8778 11.8263L35.847 11.7184L35.8161 11.5951L35.7699 11.4718L35.7236 11.3485L35.6774 11.2406L35.6157 11.1173L35.5849 11.0556L35.5387 10.9786L35.477 10.8861L35.4154 10.7936L35.3383 10.7011L35.2612 10.5932L35.1687 10.4853L35.0763 10.3774L34.9838 10.2695L34.8913 10.1771L34.7988 10.0846L34.7063 10.0075L34.6138 9.93043L34.5214 9.86877L34.4751 9.83795L34.4289 9.82253L34.3826 9.80712L34.3518 9.7917H34.321L34.2747 9.82253L34.2131 9.86877L34.136 9.91501L33.9973 10.0229L33.9202 10.0846L33.8277 10.1616L33.7198 10.2387L33.6119 10.3158L33.5195 10.3928L33.4578 10.4391L33.3807 10.5007L33.2883 10.5624L33.1958 10.6241L33.0262 10.7165L32.9337 10.7474ZM20.7876 22.4157L20.988 22.7085L21.1575 23.0014L21.3117 23.2942L21.4504 23.5871L21.5583 23.88L21.6508 24.1728L21.7279 24.4657L21.7895 24.7586L21.8358 25.0514L21.8666 25.3443L21.882 25.6372V25.93L21.8666 26.2229L21.8358 26.5157L21.7895 26.8086L21.7279 27.1015L21.6508 27.3943L21.5583 27.6718L21.4658 27.9492L21.3425 28.2267L21.2038 28.5041L21.0651 28.7816L20.9109 29.0436L20.7414 29.3057L20.5718 29.5677L20.3869 29.8143L20.1865 30.0609L19.9861 30.3076L19.7703 30.5388L19.5545 30.77L19.3233 31.0012L19.0921 31.217L18.9225 31.3711L18.753 31.5098L18.5834 31.6486L18.4139 31.7873L18.2443 31.9106L18.0594 32.0339L17.8744 32.1572L17.6894 32.2651L17.5045 32.373L17.3195 32.4809L17.1345 32.5888L16.9496 32.6813L16.7646 32.7738L16.5796 32.8663L16.3947 32.9587L16.2097 33.0358L16.0093 33.1129L15.8243 33.1899L15.624 33.267L15.4236 33.3441L15.0228 33.4982L14.6221 33.6369L14.2213 33.7757L13.8205 33.899L13.4044 34.0223L12.9882 34.1302L12.7416 34.2535L12.7878 34.3306L13.1732 34.346L13.5585 34.3614L13.9593 34.3768L14.36 34.3922H14.7608H15.1616H15.5623H15.9631H16.3638L16.7646 34.3768L17.1654 34.3614L17.5661 34.346L17.9669 34.3152L18.3522 34.2843L18.7376 34.2381L19.1229 34.1918L19.3387 34.161L19.5545 34.1302L19.7703 34.0994L19.9707 34.0685L20.1556 34.0377L20.3098 34.0069L20.4485 33.9915L20.541 33.9761L21.1421 33.8682L21.7279 33.7448L22.0053 33.6832L22.2828 33.6215L22.5602 33.5599L22.8377 33.4828L23.1151 33.4057L23.3926 33.3287L23.67 33.2516L23.932 33.1745L24.1941 33.0975L24.4561 33.005L24.7181 32.9125L24.9802 32.82L25.2422 32.7275L25.5043 32.6196L25.7663 32.5117L26.0283 32.3884L26.2904 32.2651L26.5524 32.1418L26.799 32.0031L27.0611 31.8644L27.3077 31.7256L27.5543 31.5715L27.8163 31.4174L28.063 31.2478L28.3096 31.0782L28.5716 30.8933L28.8182 30.7083L29.0649 30.5233L29.4964 30.1997L29.8972 29.8606L30.2826 29.506L30.6371 29.1361L30.9608 28.7662L31.269 28.3808L31.5619 27.9955L31.8239 27.5947L32.0706 27.194L32.2864 26.7778L32.4867 26.3616L32.6563 25.9454L32.8104 25.5293L32.9183 25.1131L33.0108 24.6815L33.0725 24.2499L33.1187 23.8183L33.1341 23.3867L33.1187 22.9551L33.0725 22.5236L33.0108 22.1074L32.9183 21.6758L32.795 21.2596L32.6409 20.8434L32.4559 20.4273L32.2401 20.0111L31.9935 19.6103L31.716 19.2096L31.4232 18.8242L31.0841 18.4389L30.7141 18.0689L30.3134 17.7144L30.2055 17.6219L30.0976 17.5295L30.0051 17.437L29.9743 17.4062L29.8818 17.3137L29.8047 17.2212L29.7277 17.1287L29.6506 17.0362L29.5735 16.9437L29.5119 16.8513L29.4502 16.7588L29.3885 16.6663L29.3269 16.5584L29.2807 16.4505L29.2344 16.3426L29.1882 16.2347L29.1419 16.096L29.0957 15.9418L29.0494 15.7877L29.0032 15.6336L28.9724 15.4794L28.9415 15.3253L28.9107 15.1711L28.8953 15.017L28.8799 14.8629L28.8645 14.7087L28.8491 14.5546V14.4004V14.2463V14.0922L28.8645 13.938L28.8799 13.7839L28.8953 13.6298L28.9107 13.4756L28.9415 13.3369L28.9724 13.1982L29.0186 13.0594L29.0649 12.9361L29.1111 12.8128L29.1728 12.6895L29.2344 12.5662L29.2961 12.4583L29.3731 12.3658L29.4502 12.2733L29.5273 12.1809L29.6198 12.1038L29.7122 12.0267L29.8047 11.9651L29.8356 11.9496L29.8664 11.9651L29.9126 12.0113L29.9434 12.0575L30.0359 12.3504L30.3134 13.1057L30.6679 14.0922L30.745 14.3542L30.822 14.6162L30.8991 14.8783L30.9762 15.1403L31.0532 15.4023L31.1303 15.6644L31.2074 15.9264L31.2999 16.1885L31.3615 16.358L31.4232 16.5121L31.454 16.5738L31.4694 16.6355L31.4848 16.6817V16.7125L31.5002 16.7588L31.5465 16.805L31.5773 16.8358L31.6081 16.8667L31.639 16.8821L31.6852 16.9129L31.7777 16.9591L31.8856 17.0054L31.9935 17.0516L32.1168 17.0979L32.348 17.1749L32.5638 17.2366L32.7488 17.2828L32.8567 17.3137L32.9646 17.3445L33.1649 17.4062L33.2728 17.4216L33.3653 17.437H33.3962L33.427 17.4216L33.4424 17.3445V17.2828L33.427 17.2212L33.4116 17.1595L33.3807 17.0979L33.3499 17.0208L33.3191 16.9437L33.2883 16.8667L33.2574 16.7896L33.2266 16.7125L33.1804 16.6509L33.1495 16.5892L33.1033 16.5276L33.057 16.4813L33.0262 16.4351L32.9954 16.4043L32.8567 16.2964L32.6409 16.1268L32.4405 15.9572L32.348 15.8956L32.2864 15.8339L32.2093 15.7723L32.1322 15.7106L32.0551 15.649L31.9781 15.5873L31.901 15.5257L31.8394 15.464L31.7777 15.4023L31.7623 15.3715L31.7469 15.3407L31.7315 15.2945V15.2636L31.7623 15.2174L31.7931 15.1866L31.8394 15.1711L31.8856 15.1557L31.9318 15.1403H31.9781H32.0243H32.086L32.1939 15.1557L32.3018 15.1711L32.4097 15.202L32.4867 15.2174L32.6409 15.2482L32.7796 15.279L32.9029 15.3099L33.0262 15.3561L33.1495 15.4023L33.2728 15.4486L33.4116 15.5102L33.5503 15.5873L33.7044 15.6644L33.8277 15.7415L33.874 15.7723L33.9202 15.8031L33.9665 15.8339L33.9973 15.8802L34.0281 15.9264L34.0589 15.9727L34.0898 16.0343L34.1052 16.096L34.1206 16.1576L34.136 16.2347V16.3272V16.4197V16.5121L34.1206 16.5892L34.136 16.6355L34.1206 16.7125V16.7588V16.805V16.8513V16.8975L34.136 16.99L34.1514 17.067L34.1668 17.0979L34.2131 17.1287H34.2439L34.321 17.1133L34.4135 17.0979L34.4443 17.0825L34.4751 17.067L34.5214 17.0362L34.5522 17.0054L34.5676 16.9746L34.583 16.9283V16.8821L34.5676 16.8204L34.5368 16.7588L34.5214 16.7279L34.5059 16.6971L34.4905 16.6509V16.6046L34.4751 16.5121V16.4197V16.2193V16.0497V16.0189L34.4597 15.9727L34.4443 15.9264L34.4135 15.8802L34.3826 15.8339L34.3518 15.8031L34.321 15.7569L34.2902 15.726L34.1206 15.5873L33.9819 15.4794L33.9202 15.4332L33.8586 15.3715L33.8277 15.3407L33.8123 15.3099V15.2636L33.8277 15.2174L33.8586 15.1711L33.8894 15.1403L33.9511 15.1249H33.9819H34.0127H34.2131H34.4289H34.6447L34.8451 15.1095L34.9375 15.0941L35.03 15.0787L35.1225 15.0632L35.215 15.0324L35.3075 15.0016L35.4 14.9708L35.4924 14.9399L35.5695 14.8937L35.6157 14.8012V14.7087V14.6317V14.57L35.6003 14.5238L35.5849 14.4775L35.5541 14.4467L35.4924 14.4004L35.4616 14.385H35.4154H35.3691H35.3229L35.215 14.4004L35.0917 14.4313H35.03H34.9684L34.9067 14.4159L34.8605 14.4004L34.8142 14.385L34.768 14.3696L34.7217 14.3542L34.6755 14.3234L34.583 14.2771L34.4905 14.2155L34.3981 14.1384L34.3056 14.0613L34.1977 13.9997H34.0435L33.9511 13.9843L33.8586 13.9689L33.7815 13.9534L33.7044 13.938L33.6274 13.9226L33.5503 13.8918L33.4732 13.861L33.3962 13.8301L33.3345 13.7993L33.2728 13.7531L33.2112 13.7068L33.1495 13.6606L33.0879 13.6143L33.0416 13.5681L32.9954 13.5064L32.9492 13.4448L32.9029 13.3831L32.8567 13.3215L32.8258 13.2598L32.795 13.1828L32.7642 13.1057L32.7488 13.0286L32.7179 12.9515L32.7025 12.8745L32.6871 12.782L32.6717 12.6895V12.597V12.5045V12.4121V12.3196L32.6871 12.2117L32.7025 12.1038L32.7179 11.9805L32.7334 11.8572V11.7955V11.7339V11.6722L32.7179 11.6105L32.7025 11.5489L32.6717 11.5026L32.6409 11.4564L32.5946 11.4256L32.533 11.3947L32.5021 11.3793L32.4713 11.3639L32.4251 11.3485H32.3788H32.3326H32.2864L32.2555 11.3639L32.2247 11.3947L32.1939 11.441L32.163 11.4718L32.1476 11.5026L32.1168 11.5489L32.0706 11.5951L32.0243 11.626L31.9935 11.6414L31.9318 11.6568L31.8702 11.6722H31.8085H31.7469H31.6544L31.5619 11.6568L31.4694 11.6414L31.3769 11.6105L31.3307 11.5951L31.2845 11.5797L31.2382 11.5643L31.192 11.5335L31.1611 11.5026L31.1303 11.4718L31.0995 11.441L31.0841 11.4102L31.0224 11.3331L30.9762 11.2714L30.9145 11.2252L30.8683 11.179L30.822 11.1327L30.7758 11.1019L30.7296 11.0556L30.6833 10.994L30.6371 10.9323L30.6062 10.8707L30.5754 10.7936L30.5446 10.7165L30.5138 10.6395L30.4983 10.5624L30.4829 10.4853L30.4675 10.3928V10.3004V10.2233V10.1308L30.4829 10.0537L30.4983 9.97667L30.5292 9.8996L30.56 9.82253L30.6062 9.76088L30.7604 9.5605L31.0378 9.28305L31.1457 9.19056L31.3461 9.02101L31.4694 8.88229L31.5002 8.83604L31.5157 8.80522V8.77439L31.4694 8.72815L31.4232 8.71273L31.3769 8.69732H31.3307H31.2074H31.0841H30.9608H30.8375L30.5908 8.71273L30.2826 8.62025L30.0359 8.65108L29.7893 8.69732L29.5427 8.75898L29.2961 8.82063L29.0494 8.8977L28.8028 8.97477L28.5716 9.06725L28.3404 9.15974L28.1092 9.26763L27.878 9.37553L27.6622 9.49884L27.4464 9.62215L27.3385 9.68381L27.1998 9.76088L27.0456 9.86877L26.8761 9.99208L26.6757 10.1308L26.4753 10.3004L26.3674 10.3928L26.2595 10.4853L26.1516 10.5778L26.0437 10.6857L25.8588 10.8707L25.6892 11.0556L25.5197 11.256L25.3655 11.4564L25.2114 11.6568L25.0727 11.8726L24.9494 12.0884L24.826 12.3042L24.7027 12.5354L24.5948 12.7666L24.5024 12.9978L24.4099 13.229L24.3328 13.4756L24.2557 13.7222L24.1941 13.9689L24.1324 14.2155L24.0708 14.4621L24.0245 14.7241L23.9783 14.9862L23.932 15.2482L23.9012 15.5102L23.8704 15.7723L23.8396 16.0343L23.8241 16.2964L23.8087 16.5584L23.7933 16.8204L23.7779 17.0825V17.3445V17.6065V17.8686V18.1306L23.7933 18.3772L23.8704 20.4581L23.932 21.198L23.9783 21.4754L24.0245 21.6604L24.0708 21.722L24.117 21.7683L24.1632 21.7991L24.3945 21.8916L24.6257 21.9687L24.8569 22.0303L25.1035 22.0766L25.3501 22.1228L25.5967 22.1536L25.8434 22.169L26.09 22.1844H26.3366H26.5832L26.8298 22.169L27.0765 22.1536L27.3231 22.1228L27.5697 22.092L27.8163 22.0457L28.0475 21.9995L28.2787 21.9378L28.51 21.8762L28.7412 21.7991L28.9724 21.722L29.1882 21.6296L29.404 21.5371L29.6198 21.4446L29.8201 21.3367L30.0205 21.2288L30.2209 21.1055L30.4059 20.9822L30.5908 20.8589L30.7604 20.7355L30.9299 20.5968L31.0841 20.4581L31.2382 20.3194L31.3307 20.2269L31.3769 20.1806L31.4232 20.1498L31.4694 20.1344L31.5157 20.1498L31.5465 20.1806L31.5773 20.2115L31.6081 20.2423L31.639 20.2731L31.6698 20.3348L31.7315 20.4273L31.7931 20.5352L31.8548 20.6431L31.901 20.7664L31.9472 20.8897L32.0397 21.1363L32.1168 21.3829L32.1785 21.5987L32.2247 21.7683L32.2709 21.9532L32.3172 22.1382L32.348 22.3232L32.3788 22.5081L32.3942 22.6931L32.4097 22.8781V23.0785V23.2634V23.4638V23.6642L32.3942 23.8491L32.3788 24.0495L32.348 24.2345L32.3172 24.4349L32.2864 24.6198L32.2555 24.8048L32.2093 24.9898L32.163 25.1747L32.1014 25.3597L32.0397 25.5447L31.9781 25.7296L31.9164 25.9146L31.8394 26.0996L31.7623 26.2691L31.6852 26.4541L31.6081 26.6236L31.5157 26.7932L31.4232 26.9627L31.3307 27.1169L31.2382 27.2864L31.1457 27.4406L31.0378 27.5947L30.7604 27.9646L30.4675 28.3192L30.1592 28.6583L29.851 28.982L29.5273 29.2902L29.1882 29.5985L28.8336 29.8914L28.4637 30.1688L28.0938 30.4309L27.7084 30.6929L27.3077 30.9395L26.9069 31.1707L26.4907 31.4019L26.0746 31.6177L25.643 31.8181L25.2114 32.0031L24.7798 32.188L24.3482 32.3576L23.9012 32.5117L23.4542 32.6659L23.0072 32.8046L22.5602 32.9279L22.1132 33.0512L21.6662 33.1591L21.2192 33.2516L20.7722 33.3441L20.3252 33.4212L19.8782 33.4828L19.4312 33.5445L18.9996 33.5907L18.568 33.6369L18.1364 33.6678H18.1056L18.0594 33.6369L18.0285 33.5907V33.5291L18.0439 33.4828L18.0902 33.4212L18.121 33.3903L18.1981 33.3287L18.306 33.2516L18.5526 33.0666L18.7992 32.8817L19.0458 32.6659L19.3079 32.4501L19.5545 32.2189L19.8165 31.9723L20.0632 31.7102L20.3098 31.4328L20.5564 31.1399L20.7876 30.847L21.0188 30.5388L21.2346 30.2151L21.4504 29.8914L21.6508 29.5523L21.8358 29.2132L22.0053 28.8587L22.1594 28.5041L22.2982 28.1342L22.4061 27.7643L22.4986 27.3789L22.5602 26.9936L22.6064 26.6082L22.6219 26.2229V25.8375L22.591 25.4522L22.5294 25.0668L22.4369 24.6815L22.2982 24.2961L22.144 23.9108L21.9437 23.5255L21.7124 23.1401L21.435 22.7548L21.2963 22.5852L21.1575 22.4311L21.0188 22.2769L20.8647 22.1228L20.7105 21.9841L20.5564 21.8453L20.3869 21.7066L20.2173 21.5833L20.1711 21.5525L20.1248 21.5371H20.0786L20.0477 21.5525L20.0323 21.5833V21.6296L20.0786 21.6912L20.2327 21.8762L20.7876 22.4157ZM36.1244 11.4256L36.0782 11.441H36.0473L36.0165 11.4256L35.9549 11.3485L35.924 11.3023L35.9086 11.2714L35.924 11.2252L35.9549 11.1944L35.9857 11.1635L36.0319 11.1327L36.0782 11.1019L36.1398 11.0865L36.1861 11.0711H36.2323H36.2785L36.294 11.0865L36.3094 11.1327V11.1635V11.2098L36.294 11.256L36.2785 11.3023L36.2477 11.3485L36.2015 11.3793C36.1861 11.3947 36.1244 11.4256 36.1244 11.4256ZM36.109 10.7319L36.0473 10.7474L35.9857 10.7628L35.924 10.7782L35.8624 10.7936H35.8007H35.7545L35.7236 10.7782L35.7082 10.7474L35.7391 10.7011L35.7699 10.6703L35.8161 10.6395L35.8778 10.6086L35.9394 10.5778L36.0011 10.547L36.0627 10.5316L36.1244 10.5162L36.1861 10.5007H36.2323H36.2785H36.3094L36.3402 10.5162L36.371 10.547V10.5778L36.3402 10.6241L36.2785 10.6857L36.2323 10.7011L36.1861 10.7319H36.109ZM35.9086 10.3004L35.847 10.3312L35.7853 10.362L35.7082 10.3774L35.6466 10.3928L35.5849 10.4083H35.5387H35.5078L35.4924 10.3774L35.5078 10.3466L35.5541 10.2849L35.6003 10.2387L35.662 10.1925L35.7236 10.1462L35.7853 10.1154L35.847 10.0846L35.9086 10.0692L35.9703 10.0537L36.0319 10.0383H36.0782H36.1244H36.1552L36.1861 10.0692L36.2015 10.1L36.1861 10.1308L36.1706 10.1616L36.1398 10.1925L36.0936 10.2233L36.0473 10.2541L35.9857 10.2849C35.9549 10.2695 35.9086 10.3004 35.9086 10.3004ZM35.5849 9.83795L35.5233 9.86877L35.4616 9.8996L35.4 9.93043L35.3383 9.96126L35.2766 9.97667L35.2304 9.99208H35.1996L35.1842 9.94584L35.1996 9.91501L35.2304 9.86877L35.2766 9.82253L35.3229 9.77629L35.3845 9.73005L35.4462 9.68381L35.5078 9.63757L35.5541 9.60674L35.6157 9.57591L35.662 9.5605L35.7082 9.54508H35.7545H35.7853L35.8161 9.5605L35.8315 9.59132V9.63757L35.8161 9.66839L35.8007 9.71463L35.7699 9.74546L35.7391 9.77629L35.6928 9.82253L35.5849 9.83795ZM32.3326 7.74166L32.3172 7.7879L32.3018 7.83414L32.2864 7.88039L32.2709 7.92663L32.2555 7.95745L32.2247 7.98828L32.1939 8.0037L32.163 7.97287L32.1476 7.94204L32.1322 7.91121L32.1168 7.86497V7.81873V7.77249V7.72625L32.1322 7.69542L32.1476 7.66459L32.163 7.63376L32.1785 7.60294L32.2247 7.57211L32.2709 7.55669L32.3018 7.57211L32.3326 7.61835L32.348 7.68V7.71083L32.3326 7.74166ZM35.2304 9.51425L35.1687 9.54508L35.1071 9.57591L35.0454 9.60674L34.9838 9.63757L34.9221 9.65298L34.8759 9.66839H34.8451L34.8142 9.62215L34.8296 9.59132L34.8605 9.54508L34.9067 9.49884L34.953 9.4526L34.9992 9.40636L35.0608 9.36012L35.1225 9.31387L35.1842 9.28305L35.215 9.2368L35.2612 9.22139L35.3075 9.20598H35.3537H35.3845L35.4154 9.22139L35.4308 9.25222V9.28305L35.4154 9.31387L35.3845 9.3447L35.3691 9.39094L35.3229 9.42177L35.2766 9.46801L35.2304 9.51425Z" fill="#1F2C51"/>
</g>
<defs>
<clipPath id="clip0_20_12013">
<rect width="33.7872" height="28.4386" fill="white" transform="translate(3 6)"/>
</clipPath>
</defs>
</svg>
