<svg width="40" height="40" viewBox="0 0 40 40" fill="none" xmlns="http://www.w3.org/2000/svg">
<path d="M8.07898 5C4.72451 5 4 5.60859 4 5.60859V10.3706C4 10.3706 4.72132 9.86558 7.00019 9.86558C9.34608 9.86558 11.4686 10.493 13.5846 14.6841L16.288 20.0391L13.0293 26.4041C12.391 27.659 10.6738 30.1059 7.12786 30.1059C4.97347 30.1059 4 29.6573 4 29.6573V34.4601C4 34.4601 4.94155 34.9934 8.29282 34.9934C13.2782 34.9934 16.1603 33.2429 18.9658 27.1727L22.2597 20.0422L18.9499 12.8803C17.7083 10.2075 16.6933 8.26254 14.4496 6.66578C12.7708 5.48624 10.6866 5 8.07898 5ZM32.2879 5C30.7272 5 29.0229 5 27.0951 5.87524C25.1673 6.75048 23.1023 8.61389 21.3149 11.5972L23.9002 17.153C26.1344 13.4481 27.9824 9.85616 32.7539 9.85616C33.8923 9.84478 35.0246 10.0186 36.1052 10.3706V5.45801C34.861 5.13051 33.5757 4.97841 32.2879 5.00627V5ZM23.9002 22.8436L21.3149 28.5342C23.1023 31.5175 25.1449 33.221 27.0951 34.1213C29.0452 35.0216 30.7304 34.9965 32.2879 34.9965C33.58 35.0255 34.8696 34.8734 36.118 34.5448V29.6259C35.0289 29.934 33.9 30.0851 32.7667 30.0745C27.6025 30.0714 26.1344 26.5484 23.9002 22.8436Z" fill="#FF6423"/>
</svg>
