<svg width="40" height="40" viewBox="0 0 40 40" fill="none" xmlns="http://www.w3.org/2000/svg">
<g clip-path="url(#clip0_124_384)">
<path fill-rule="evenodd" clip-rule="evenodd" d="M29.4869 26.0161C27.8843 30.8238 23.333 34.2853 18.0125 34.2853C11.3459 34.2853 5.96125 28.9007 5.96125 22.234C5.96125 15.5674 11.3459 10.1827 18.0125 10.1827C20.0638 10.1827 21.9228 10.6956 23.6536 11.593L24.1023 11.2084C22.3074 10.2468 20.2561 9.66992 18.0766 9.66992C11.0895 9.66992 5.44843 15.3109 5.44843 22.234C5.44843 29.2212 11.0895 34.8622 18.0766 34.8622C23.7177 34.8622 28.5253 31.1443 30.1279 26.0161H29.4869Z" fill="#003366"/>
<path fill-rule="evenodd" clip-rule="evenodd" d="M9.99969 26.1503C17.3074 25.5093 24.4869 24.3554 31.6023 22.5605C31.4741 23.0734 31.4099 23.5221 31.2817 24.0349C22.1151 26.0862 15.833 26.2785 9.99969 26.1503Z" fill="#00B2E2"/>
<path fill-rule="evenodd" clip-rule="evenodd" d="M11.1535 25.3798C17.9484 24.2901 24.9356 22.6234 32.115 20.1875C31.9868 20.7003 31.8586 21.2131 31.7945 21.726C23.7817 24.226 17.0509 25.3157 11.1535 25.3798Z" fill="#00B2E2"/>
<path fill-rule="evenodd" clip-rule="evenodd" d="M12.2433 24.6074C18.91 22.9407 25.7048 20.633 32.6279 17.8125C32.4997 18.3253 32.3715 18.8381 32.3074 19.351C24.9997 22.2356 18.2048 24.0946 12.2433 24.6074Z" fill="#57C8E7"/>
<path fill-rule="evenodd" clip-rule="evenodd" d="M13.333 23.7114C20.0638 21.6601 26.7304 18.5832 33.2689 14.8652C33.1407 15.5063 33.0125 16.0832 32.8202 16.7242C24.9997 20.6986 18.333 23.1986 13.333 23.7114Z" fill="#98DAE9"/>
<path fill-rule="evenodd" clip-rule="evenodd" d="M14.8073 22.7488C22.3714 19.095 28.5253 15.313 34.0381 11.4668C33.9099 12.1719 33.7176 12.813 33.5894 13.5181C27.3073 17.5565 21.0253 20.8258 14.8073 22.7488Z" fill="#57C8E7"/>
<path fill-rule="evenodd" clip-rule="evenodd" d="M15.8972 21.5989C23.3331 16.8553 29.8074 12.1117 34.9997 7.17578C34.8074 8.00911 34.6151 8.84245 34.4228 9.67578C28.269 15.0604 21.9228 18.7142 15.8972 21.5989Z" fill="#00B2E2"/>
<path fill-rule="evenodd" clip-rule="evenodd" d="M35.4485 4.22461C34.7433 4.22461 34.0382 4.28871 33.3331 4.28871C30.7049 7.49384 28.0767 10.2503 25.4484 12.7503C22.5638 15.4426 19.7433 17.9426 16.8587 20.3144C23.1408 16.0195 29.4228 11.2759 35.4485 4.22461Z" fill="#00B2E2"/>
</g>
<defs>
<clipPath id="clip0_124_384">
<rect width="30" height="30.641" fill="white" transform="translate(5.44824 4.22852)"/>
</clipPath>
</defs>
</svg>
