<svg width="40" height="40" viewBox="0 0 40 40" fill="none" xmlns="http://www.w3.org/2000/svg">
<g clip-path="url(#clip0_124_468)">
<g clip-path="url(#clip1_124_468)">
<mask id="mask0_124_468" style="mask-type:luminance" maskUnits="userSpaceOnUse" x="-11" y="9" width="63" height="22">
<path d="M52 9.72266H-11V30.7895H52V9.72266Z" fill="white"/>
</mask>
<g mask="url(#mask0_124_468)">
<path d="M45.4191 11.4492C18.2529 11.4492 0.636983 17.669 -5.46238 27.5403L-5.94391 29.0651H41.4867L46.9841 11.4492C46.4625 11.4492 45.9408 11.4492 45.4191 11.4492Z" fill="#001F60"/>
</g>
<mask id="mask1_124_468" style="mask-type:luminance" maskUnits="userSpaceOnUse" x="-6" y="11" width="52" height="17">
<path d="M-0.446479 11.4453L-5.4624 27.5364C1.39938 18.1867 21.5835 11.4453 45.4191 11.4453H-0.446479Z" fill="white"/>
</mask>
<g mask="url(#mask1_124_468)">
<path d="M19.9784 -13.9961L53.4447 19.4701L19.9784 52.9765L-13.528 19.4701L19.9784 -13.9961Z" fill="url(#paint0_linear_124_468)"/>
</g>
<mask id="mask2_124_468" style="mask-type:luminance" maskUnits="userSpaceOnUse" x="-11" y="9" width="63" height="22">
<path d="M52 9.72266H-11V30.7895H52V9.72266Z" fill="white"/>
</mask>
<g mask="url(#mask2_124_468)">
<path fill-rule="evenodd" clip-rule="evenodd" d="M4.00763 22.7244H6.65604L7.37833 20.4371H9.18406L8.46177 22.7244H11.1102L12.8758 17.0664H10.2274L9.58533 19.153H7.7796L8.42164 17.0664H5.77323L4.00763 22.7244Z" fill="white"/>
</g>
<mask id="mask3_124_468" style="mask-type:luminance" maskUnits="userSpaceOnUse" x="-11" y="9" width="63" height="22">
<path d="M52 9.72266H-11V30.7895H52V9.72266Z" fill="white"/>
</mask>
<g mask="url(#mask3_124_468)">
<path fill-rule="evenodd" clip-rule="evenodd" d="M16.8083 21.3196C16.4873 21.5202 15.8854 21.8813 15.1229 21.8813C14.7618 21.8813 14.4809 21.8412 14.2401 21.6406C13.9191 21.3998 13.9191 21.1189 13.9592 20.8782H17.7312C17.8917 20.3164 18.293 19.1126 17.1293 18.4705C16.8083 18.2699 16.2866 18.1094 15.5242 18.1094C13.6784 18.1094 12.1936 19.1126 11.7522 20.4769C11.3108 21.8412 12.1936 22.8444 14.1599 22.8444C15.8452 22.8444 16.8885 22.0017 17.2497 21.7208L16.8083 21.3196ZM14.1599 19.9954C14.3204 19.6743 14.6013 19.1126 15.2834 19.1126C16.0057 19.1126 15.8854 19.7145 15.8051 19.9954H14.1599Z" fill="white"/>
</g>
<mask id="mask4_124_468" style="mask-type:luminance" maskUnits="userSpaceOnUse" x="-11" y="9" width="63" height="22">
<path d="M52 9.72266H-11V30.7895H52V9.72266Z" fill="white"/>
</mask>
<g mask="url(#mask4_124_468)">
<path fill-rule="evenodd" clip-rule="evenodd" d="M17.2497 22.7244H19.5771L21.3427 17.0664H19.0153L17.2497 22.7244Z" fill="white"/>
</g>
<mask id="mask5_124_468" style="mask-type:luminance" maskUnits="userSpaceOnUse" x="-11" y="9" width="63" height="22">
<path d="M52 9.72266H-11V30.7895H52V9.72266Z" fill="white"/>
</mask>
<g mask="url(#mask5_124_468)">
<path fill-rule="evenodd" clip-rule="evenodd" d="M20.0587 22.7254H22.386L23.7905 18.3516H21.423L20.0587 22.7254Z" fill="white"/>
</g>
<mask id="mask6_124_468" style="mask-type:luminance" maskUnits="userSpaceOnUse" x="-11" y="9" width="63" height="22">
<path d="M52 9.72266H-11V30.7895H52V9.72266Z" fill="white"/>
</mask>
<g mask="url(#mask6_124_468)">
<path fill-rule="evenodd" clip-rule="evenodd" d="M24.6732 17.0664L23.0681 22.3231C22.9477 22.7244 22.7872 23.2059 22.0248 23.567C21.3025 23.8881 20.6204 23.6874 19.6974 23.567L19.4567 24.2893C20.0987 24.49 21.1821 24.6505 22.2255 24.6906C23.1083 24.6906 23.9911 24.5702 24.7134 24.0486C25.2751 23.6473 25.556 22.8849 25.7165 22.4033L27.3618 17.1467H24.6732V17.0664Z" fill="white"/>
</g>
<mask id="mask7_124_468" style="mask-type:luminance" maskUnits="userSpaceOnUse" x="-11" y="9" width="63" height="22">
<path d="M52 9.72266H-11V30.7895H52V9.72266Z" fill="white"/>
</mask>
<g mask="url(#mask7_124_468)">
<path fill-rule="evenodd" clip-rule="evenodd" d="M31.3344 21.3196C30.9732 21.5202 30.4114 21.8813 29.649 21.8813C29.2879 21.8813 29.007 21.8412 28.7662 21.6406C28.4452 21.3998 28.4452 21.1189 28.4853 20.8782H32.2573C32.4178 20.3164 32.8191 19.1126 31.6554 18.4705C31.3344 18.2699 30.8127 18.1094 30.0503 18.1094C28.2445 18.1094 26.7197 19.1126 26.2783 20.4769C25.8369 21.8412 26.7197 22.8444 28.6859 22.8444C30.3713 22.8444 31.4146 22.0017 31.7758 21.7208L31.3344 21.3196ZM28.7261 19.9954C28.8866 19.6743 29.1675 19.1126 29.8496 19.1126C30.5719 19.1126 30.4515 19.7145 30.3713 19.9954H28.7261Z" fill="white"/>
</g>
<mask id="mask8_124_468" style="mask-type:luminance" maskUnits="userSpaceOnUse" x="-11" y="9" width="63" height="22">
<path d="M52 9.72266H-11V30.7895H52V9.72266Z" fill="white"/>
</mask>
<g mask="url(#mask8_124_468)">
<path fill-rule="evenodd" clip-rule="evenodd" d="M33.4611 18.7095H32.8592L32.5381 19.7528H33.1401L32.6585 21.3178C32.5381 21.6789 32.4579 22.1203 32.7789 22.4815C33.0598 22.7624 33.5815 22.8828 34.1031 22.8828C34.9458 22.8828 35.5076 22.642 35.9088 22.4414L35.8286 21.8394C35.7082 21.8796 35.5878 21.8796 35.4674 21.8796C34.8254 21.8796 34.9859 21.398 35.026 21.1974L35.5076 19.7127H36.4706L36.7916 18.6694H35.8286L36.1496 17.5859H33.8222L33.4611 18.7095Z" fill="white"/>
</g>
<mask id="mask9_124_468" style="mask-type:luminance" maskUnits="userSpaceOnUse" x="-11" y="9" width="63" height="22">
<path d="M52 9.72266H-11V30.7895H52V9.72266Z" fill="white"/>
</mask>
<g mask="url(#mask9_124_468)">
<path fill-rule="evenodd" clip-rule="evenodd" d="M21.5433 17.9091H23.8707L24.1917 17.0664H21.8242L21.5433 17.9091Z" fill="white"/>
</g>
<mask id="mask10_124_468" style="mask-type:luminance" maskUnits="userSpaceOnUse" x="-11" y="9" width="63" height="22">
<path d="M52 9.72266H-11V30.7895H52V9.72266Z" fill="white"/>
</mask>
<g mask="url(#mask10_124_468)">
<path d="M36.7516 17.8281C36.6312 17.8281 36.5108 17.9485 36.5108 18.0689C36.5108 18.1893 36.6312 18.3097 36.7516 18.3097C36.8719 18.3097 36.9923 18.1893 36.9923 18.0689C36.9923 17.9485 36.9121 17.8281 36.7516 17.8281ZM36.7516 18.2695C36.6312 18.2695 36.5509 18.1893 36.5509 18.0689C36.5509 17.9485 36.6312 17.8683 36.7516 17.8683C36.8719 17.8683 36.9522 17.9485 36.9522 18.0689C36.9923 18.1893 36.8719 18.2695 36.7516 18.2695Z" fill="white"/>
</g>
<mask id="mask11_124_468" style="mask-type:luminance" maskUnits="userSpaceOnUse" x="-11" y="9" width="63" height="22">
<path d="M52 9.72266H-11V30.7895H52V9.72266Z" fill="white"/>
</mask>
<g mask="url(#mask11_124_468)">
<path d="M36.872 18.0295C36.872 17.9893 36.872 17.9492 36.7516 17.9492H36.6312V18.2702H36.6714V18.1499H36.7516L36.8319 18.2702H36.872L36.7917 18.1097C36.8319 18.0696 36.872 18.0295 36.872 18.0295ZM36.7516 18.0696H36.7115V17.9492H36.7516C36.7917 17.9492 36.8319 17.9492 36.8319 17.9893C36.8319 18.0295 36.8319 18.0696 36.7516 18.0696Z" fill="white"/>
</g>
</g>
</g>
<defs>
<linearGradient id="paint0_linear_124_468" x1="5.72891" y1="5.22294" x2="28.6669" y2="28.1609" gradientUnits="userSpaceOnUse">
<stop stop-color="#DFDFEA"/>
<stop offset="0.036919" stop-color="#C5C8D9"/>
<stop offset="0.1164" stop-color="#919CB9"/>
<stop offset="0.1974" stop-color="#65769E"/>
<stop offset="0.2782" stop-color="#405687"/>
<stop offset="0.359" stop-color="#243E76"/>
<stop offset="0.4397" stop-color="#102D6A"/>
<stop offset="0.5204" stop-color="#042262"/>
<stop offset="0.6011" stop-color="#001F60"/>
<stop offset="0.9597" stop-color="#001F60"/>
<stop offset="1" stop-color="#001F60"/>
</linearGradient>
<clipPath id="clip0_124_468">
<rect width="40" height="40" fill="white"/>
</clipPath>
<clipPath id="clip1_124_468">
<rect width="63" height="21.0669" fill="white" transform="translate(-11 9.71484)"/>
</clipPath>
</defs>
</svg>
