<svg width="40" height="40" viewBox="0 0 40 40" fill="none" xmlns="http://www.w3.org/2000/svg">
<g clip-path="url(#clip0_124_480)">
<path d="M32.1658 21.3842C32.2439 20.4468 32.2439 19.5483 32.0876 18.6108C32.0876 18.6108 32.0876 18.6108 32.0486 18.6108C31.6579 20.2905 30.6814 21.7749 29.3142 22.8295C29.3142 22.8295 29.3142 22.8295 29.2751 22.8295C29.2751 22.8295 29.2751 22.8295 29.2751 22.7905C30.7205 21.2671 31.6189 19.314 31.8142 17.2046C31.5408 16.1109 31.1111 15.0562 30.5642 14.0796C30.9158 16.5796 30.0955 19.1186 28.4158 20.9936C28.4158 20.9936 28.4158 20.9936 28.3767 20.9936C28.3767 20.9936 28.3767 20.9936 28.3767 20.9546C30.0173 18.5718 30.5642 15.6031 29.783 12.8296C25.6423 7.32189 17.8298 6.15003 12.2439 10.2515C11.2673 10.9937 10.3689 11.8531 9.6267 12.8687C8.84545 15.6421 9.39233 18.6499 11.033 20.9936C11.033 20.9936 11.033 20.9936 11.033 21.0327C11.033 21.0327 11.033 21.0327 10.9939 21.0327C9.27514 19.1577 8.49389 16.6187 8.84545 14.1187C8.29858 15.0952 7.86889 16.1499 7.55639 17.2437C7.71264 19.353 8.61108 21.3061 10.0955 22.8295C10.0955 22.8295 10.0955 22.8295 10.0955 22.8686C8.72827 21.8139 7.7517 20.3296 7.36108 18.6499C7.36108 18.6499 7.36108 18.6499 7.32202 18.6499C7.20483 19.5093 7.16577 20.4468 7.24389 21.3842C7.71264 22.6342 8.49389 23.767 9.54858 24.6655C9.54858 24.6655 9.54858 24.6655 9.54858 24.7045C8.76733 24.2358 8.0642 23.6108 7.51733 22.8295C8.96264 29.5873 15.5642 33.9232 22.322 32.4779C27.1267 31.4623 30.9158 27.6733 31.9314 22.8295C31.3845 23.5717 30.6814 24.1967 29.9001 24.7045C29.9001 24.7045 29.9001 24.7045 29.8611 24.7045C30.9158 23.8061 31.697 22.6342 32.1658 21.3842ZM15.0564 29.5092C14.6658 29.5092 14.2751 29.4701 13.8845 29.392L14.158 28.6498C14.9392 28.7279 15.6033 28.6889 15.8767 27.9857L16.697 25.8373H18.4158L17.5173 28.2201C17.0486 29.431 15.8767 29.5092 15.0564 29.5092ZM20.9158 29.392L20.8767 28.6889H19.3142L18.7283 29.392H17.3611L20.2126 26.0717C20.3298 25.9155 20.5251 25.8373 20.7205 25.7983H22.2439L22.5955 29.3529H20.9158V29.392ZM26.9314 29.392H23.0642L24.4314 25.8373H26.1501L25.0564 28.6498H27.2048L26.9314 29.392ZM25.3689 21.853C22.8298 24.353 19.0017 22.7514 19.3923 19.7046C19.7048 17.3609 22.5955 15.0171 24.783 13.7281C24.783 13.7281 24.783 13.7281 24.783 13.689C24.3533 13.2593 23.9236 12.7906 23.533 12.3218C22.6736 11.2281 21.1111 11.0328 20.0173 11.8922C19.822 12.0484 19.6658 12.2047 19.5486 12.4L13.2595 12.9859C13.2595 12.9859 13.2595 12.9859 13.2595 13.025L20.0173 13.4156C21.2283 13.4937 21.6189 14.5484 20.447 15.4468C16.1501 18.689 15.408 22.1264 16.3455 24.8217C16.3455 24.8217 16.3455 24.8217 16.3455 24.8608C15.9548 24.2748 15.6423 23.6108 15.4861 22.9077C11.7361 20.5249 10.6423 15.564 13.0251 11.814C15.408 8.06407 20.2908 6.97033 24.0408 9.35312C27.7908 11.7359 28.8845 16.6968 26.5017 20.4468C26.1501 20.9546 25.7986 21.4233 25.3689 21.853ZM19.9001 28.0248H20.8767L20.8376 26.892L19.9001 28.0248Z" fill="#CC0000"/>
</g>
<defs>
<clipPath id="clip0_124_480">
<rect width="25" height="24.9607" fill="white" transform="translate(7.20496 7.78711)"/>
</clipPath>
</defs>
</svg>
