<svg width="40" height="40" viewBox="0 0 40 40" fill="none" xmlns="http://www.w3.org/2000/svg">
<g clip-path="url(#clip0_124_540)">
<path d="M9.94977 14.6217C9.9924 14.6021 10.0294 14.572 10.0574 14.5344C10.0855 14.4967 10.1036 14.4526 10.1102 14.4062C10.1374 14.261 10.2528 14.2201 10.3897 14.2815C10.7181 14.4304 10.9809 14.6559 11.2087 14.9303C11.3672 15.1205 11.3643 15.3237 11.2872 15.5404C11.1569 15.9063 11.0177 16.2696 10.8982 16.6388C10.7583 17.0706 10.6354 17.5076 10.5066 17.9416C10.5025 17.9788 10.5025 18.0162 10.5066 18.0533C10.6622 17.8947 10.7944 17.7496 10.9369 17.6159C11.2767 17.2976 11.6191 16.982 11.9643 16.6694C12.2684 16.3932 12.5729 16.1173 12.8841 15.8504C13.0631 15.6956 13.2563 15.5579 13.4424 15.4101C13.5252 15.3484 13.6028 15.2799 13.6743 15.2054C13.792 15.0743 13.9822 15.0166 14.0391 14.8208C14.0611 14.7442 14.2509 14.7401 14.3466 14.813C14.4776 14.9117 14.6027 15.0181 14.7211 15.1317C14.8513 15.2597 14.9608 15.4093 15.0933 15.534C15.2891 15.7179 15.2422 15.9145 15.1417 16.1125C14.9302 16.5238 14.7047 16.9277 14.497 17.3409C14.303 17.7269 14.1218 18.1192 13.9386 18.5115C13.7555 18.9039 13.5742 19.2858 13.4115 19.6811C13.2172 20.1535 13.03 20.6303 12.8655 21.1138C12.6645 21.7034 12.4877 22.3012 12.3053 22.8972C12.2559 23.0537 12.2178 23.2135 12.1914 23.3755C12.1608 23.5691 12.1508 23.766 12.1296 23.9875C12.0268 24.0746 11.8318 24.0496 11.7201 23.897C11.4528 23.5327 11.1888 23.1658 10.928 22.7963C10.7601 22.5588 10.7825 22.3079 10.877 22.0455C10.9887 21.7366 11.0717 21.4176 11.1807 21.1075C11.3144 20.7278 11.4592 20.3522 11.604 19.9763C11.7238 19.6655 11.8463 19.3554 11.9762 19.0479C12.1675 18.5912 12.3652 18.1371 12.5595 17.6818C12.5655 17.6583 12.5696 17.6342 12.5718 17.61C12.5205 17.6438 12.4716 17.6811 12.4255 17.7217C12.178 17.9822 11.9353 18.2487 11.687 18.5093C11.493 18.7122 11.2879 18.9042 11.0981 19.1105C10.9202 19.3036 10.756 19.5095 10.5848 19.709C10.4612 19.8531 10.3302 19.9915 10.2126 20.1412C10.1009 20.2837 10.0071 20.439 9.90175 20.5852C9.80571 20.7185 9.7026 20.8458 9.60731 20.9794C9.49936 21.1283 9.38769 21.2791 9.29501 21.4384C9.24685 21.5251 9.21874 21.6215 9.21274 21.7206C9.2053 21.8423 9.17031 21.9309 9.01732 21.9975C8.90751 21.9156 8.76271 21.8356 8.65477 21.7206C8.47022 21.5237 8.29887 21.315 8.14183 21.0956C7.97321 20.86 8.00708 20.5927 8.08339 20.3321C8.24978 19.7622 8.41319 19.1905 8.59335 18.6247C8.74857 18.1382 8.92426 17.6569 9.094 17.176C9.16287 16.9993 9.22226 16.8192 9.27193 16.6362C9.17691 16.7119 9.08596 16.7925 8.99945 16.8778C8.75825 17.1384 8.51034 17.3933 8.29035 17.6707C8.07929 17.9368 7.89615 18.226 7.70669 18.5089C7.54626 18.7487 7.38396 18.988 7.24065 19.2378C7.0497 19.5705 6.87437 19.9126 6.69496 20.2521C6.52857 20.5681 6.35213 20.8801 6.2051 21.205C6.01414 21.626 5.84738 22.0574 5.6728 22.4855C5.66052 22.5153 5.6702 22.5536 5.66536 22.5871C5.65605 22.6504 5.65605 22.7598 5.63 22.7669C5.55332 22.7874 5.45207 22.793 5.38507 22.7576C5.28281 22.7024 5.19328 22.6263 5.12227 22.5343C4.94062 22.2986 4.77014 22.0541 4.60114 21.8084C4.42694 21.5534 4.47682 21.2958 4.59779 21.033C4.88776 20.4002 5.16136 19.7626 5.45803 19.1347C5.66648 18.6928 5.90471 18.2644 6.12805 17.8292C6.28252 17.5277 6.43179 17.2236 6.58924 16.9232C6.79509 16.5298 7.00614 16.1389 7.21571 15.7477C7.42937 15.3487 7.64378 14.95 7.85893 14.5517C8.07929 14.1449 8.30263 13.7402 8.52411 13.3341C8.69832 13.0151 8.87029 12.6946 9.04524 12.3756C9.11969 12.2428 9.2053 12.1173 9.26858 11.9807C9.35382 11.7994 9.42306 11.6107 9.49936 11.4253L9.46996 11.4119C9.45533 11.3903 9.44415 11.3666 9.43683 11.3416C9.42752 11.2634 9.38993 11.1555 9.42641 11.1134C9.47182 11.0613 9.58349 11.039 9.6598 11.0494C9.76328 11.0643 9.87644 11.0762 9.94604 11.196C9.98141 11.2571 10.0897 11.2705 10.1545 11.3204C10.3548 11.4719 10.5558 11.6234 10.7441 11.789C10.8232 11.8626 10.8849 11.9529 10.9246 12.0533C10.9786 12.1873 10.9276 12.3139 10.8424 12.4285C10.6637 12.6678 10.485 12.9076 10.3108 13.1499C10.1869 13.3252 10.0566 13.4964 9.94939 13.6826C9.64267 14.2108 9.34638 14.7449 9.0471 15.2776C9.03381 15.3107 9.02371 15.3449 9.01695 15.3799L9.94977 14.6217Z" fill="#2B3483"/>
<path d="M23.8899 21.9076C23.6274 21.8033 23.399 21.628 23.2303 21.4014C23.1391 21.2778 23.017 21.178 22.9188 21.0578C22.8759 21.0065 22.8461 20.9456 22.8318 20.8802C22.8175 20.8149 22.8193 20.7471 22.8369 20.6826C22.9042 20.3937 22.9657 20.1034 23.0353 19.7892C23.0055 19.8001 22.9773 19.815 22.9515 19.8335C22.7881 20.0044 22.6247 20.1749 22.4658 20.3498C22.2115 20.6297 21.958 20.9104 21.712 21.1978C21.6748 21.2398 21.677 21.3195 21.6748 21.3839C21.6692 21.509 21.5955 21.5827 21.4831 21.5309C21.3185 21.4565 21.167 21.3508 21.0118 21.2555C20.8629 21.1639 20.7386 21.0384 20.7263 20.8616C20.717 20.7235 20.7635 20.581 20.7866 20.4414C20.8132 20.3206 20.8284 20.1976 20.832 20.074C20.7876 20.1092 20.7459 20.1478 20.7073 20.1894C20.4326 20.5307 20.1538 20.8691 19.891 21.219C19.7734 21.3753 19.6096 21.5168 19.6539 21.7587C19.6617 21.8015 19.5601 21.8644 19.4879 21.94C19.2813 21.7695 19.0996 21.6214 18.9202 21.471C18.8383 21.4086 18.762 21.3392 18.6921 21.2636C18.6038 21.1591 18.5309 21.0403 18.4456 20.9205C18.1315 21.1438 17.7912 21.382 17.4566 21.6277C17.2258 21.7971 16.9649 21.7714 16.73 21.5532C16.4322 21.2771 16.1512 20.9845 15.939 20.6368C15.8575 20.5032 15.8214 20.3409 15.7629 20.1872C15.6985 20.2375 15.6383 20.2931 15.5828 20.3532C15.3505 20.6402 15.1164 20.9264 14.9009 21.2257C14.8465 21.3001 14.8584 21.4248 14.8372 21.5417C14.7628 21.6143 14.6649 21.5979 14.5926 21.5309C14.4482 21.3977 14.3183 21.248 14.1832 21.1051C14.0481 20.9621 13.9107 20.8073 13.7655 20.6684C13.6475 20.5568 13.6018 20.4365 13.6662 20.288C13.7871 20.0096 13.917 19.7353 14.0417 19.4583C14.274 18.9434 14.5058 18.4283 14.7371 17.9132C14.7933 17.7881 14.8573 17.6653 14.9009 17.5357C14.9325 17.4476 14.9452 17.3537 14.9381 17.2603C14.9169 17.0649 15.0062 16.9703 15.1856 17.0474C15.5117 17.1877 15.8329 17.3411 16.1504 17.5C16.3366 17.5934 16.3165 17.8067 16.2148 18.0211C16.0573 18.3504 15.8977 18.679 15.7361 19.0068C15.6926 19.0954 15.6386 19.1788 15.5746 19.2904C15.6308 19.2789 15.6639 19.2819 15.6825 19.2666C15.9334 19.0604 16.1828 18.8512 16.4322 18.6428C16.6064 18.4972 16.7829 18.3546 16.9533 18.2046C17.0844 18.0889 17.2046 17.9604 17.3356 17.8443C17.47 17.7183 17.6121 17.6006 17.7611 17.4922C17.9725 17.3405 18.1941 17.2037 18.4244 17.0827C18.7058 16.942 19.0096 16.8996 19.3141 17.0176C19.4775 17.0805 19.6342 17.1613 19.8132 17.2432C19.8839 17.0969 19.9599 16.9398 20.0366 16.7827C20.1758 16.4961 20.3131 16.2083 20.4549 15.9228C20.5726 15.685 20.6943 15.4494 20.8168 15.2156C20.8678 15.1166 20.9262 15.0217 20.9787 14.9234C21.0647 14.763 21.1961 14.6211 21.1577 14.4112C21.1488 14.3613 21.2124 14.2995 21.2631 14.2031C21.6066 14.4384 21.9204 14.642 22.2208 14.8642C22.3615 14.9681 22.3667 15.105 22.2837 15.2573C21.9569 15.8529 21.6186 16.4451 21.3089 17.0507C21.0617 17.5346 20.8439 18.0334 20.6228 18.53C20.4739 18.865 20.3414 19.2097 20.2018 19.5499C20.1951 19.5697 20.1895 19.5898 20.1851 19.6102C20.3046 19.6199 20.9668 18.8709 21.1131 18.683C21.39 18.3271 21.5195 17.908 21.6379 17.4732C21.6279 17.4066 21.6159 17.3269 21.6055 17.2569C21.7228 17.1624 21.8356 17.1661 21.9636 17.2528C22.2063 17.4174 22.4495 17.5808 22.6932 17.7431C22.8358 17.838 22.8853 17.9467 22.8235 18.1093C22.739 18.3327 22.6374 18.546 22.5443 18.766C22.4814 18.9178 22.4256 19.0727 22.3664 19.2264L22.4036 19.248C22.5525 19.0991 22.6973 18.9528 22.8465 18.8077C22.9601 18.696 23.0852 18.597 23.1924 18.4808C23.3241 18.3393 23.4474 18.1902 23.5616 18.0342C23.6204 17.9534 23.6513 17.8514 23.6908 17.7572C23.7124 17.7058 23.7258 17.6508 23.7425 17.5975C23.7888 17.5724 23.8417 17.5618 23.8942 17.5673C23.9466 17.5729 23.9961 17.5942 24.0362 17.6284C24.238 17.7743 24.4438 17.9162 24.6578 18.0435C24.8968 18.186 24.867 18.3379 24.7766 18.581C24.6389 18.9502 24.4885 19.3146 24.3448 19.6817C24.3396 19.6951 24.3467 19.7137 24.35 19.7591C24.5335 19.5592 24.7018 19.3787 24.8667 19.1955C25.0442 18.9979 25.2266 18.8039 25.3926 18.597C25.5903 18.3509 25.7734 18.0933 25.9618 17.8398C26.0619 17.7047 26.1479 17.5588 26.2596 17.4334C26.3787 17.2979 26.3608 17.1579 26.3213 17.006C26.3131 16.9616 26.3089 16.9165 26.3087 16.8713C26.4859 16.7875 26.6333 16.8527 26.7744 16.8966C27.0219 16.9729 27.2627 17.0716 27.5073 17.1572C27.6934 17.2223 27.7362 17.3906 27.6033 17.5432C27.3223 17.8655 27.045 18.1909 26.7584 18.5084C26.5242 18.7689 26.2744 19.0142 26.0396 19.2722C25.7924 19.5421 25.5557 19.8212 25.3092 20.0911C25.1231 20.2973 24.9236 20.4935 24.7382 20.7016C24.5782 20.881 24.43 21.0716 24.2756 21.2562C24.226 21.3158 24.1639 21.3679 24.1237 21.4319C24.06 21.5339 23.9625 21.6229 23.9986 21.7706C24.0064 21.8045 23.929 21.86 23.8899 21.9076ZM19.5043 17.902L19.467 17.8536C19.3926 17.8596 19.3036 17.8402 19.2478 17.8752C19.0245 18.0137 18.7944 18.1481 18.6023 18.3219C18.3001 18.5981 18.012 18.8951 17.7965 19.2484C17.5768 19.6083 17.3688 19.9761 17.1637 20.3439C17.116 20.4287 17.0836 20.53 17.1689 20.6457C17.2364 20.6382 17.3032 20.6249 17.3684 20.6059C17.7812 20.454 18.167 20.237 18.5111 19.9631C18.647 19.8544 18.7944 19.7263 18.8629 19.5737C19.0412 19.1773 19.1789 18.7622 19.333 18.3546C19.3901 18.2043 19.4472 18.0534 19.5043 17.902Z" fill="#2B3483"/>
<path d="M35.173 17.174C35.2869 17.0482 35.4276 17.1505 35.5453 17.2213C35.7537 17.3441 35.9484 17.4904 36.1453 17.6307C36.2611 17.7137 36.283 17.9285 36.203 18.0558C36.1111 18.201 36.0262 18.3506 35.9402 18.4995C35.8933 18.5739 35.8419 18.6421 35.8002 18.7173C35.6953 18.9075 35.5888 19.0973 35.4928 19.292C35.3584 19.5637 35.2322 19.8403 35.1023 20.1135C35.0725 20.1757 35.0279 20.23 34.9984 20.2922C34.8868 20.5356 34.7751 20.7813 34.6634 21.0247C34.5466 21.2767 34.4248 21.5261 34.3091 21.7785C34.1136 22.2055 33.9242 22.6346 33.7269 23.0609C33.5944 23.3502 33.4558 23.6367 33.3111 23.9203C33.2501 24.0409 33.1708 24.1522 33.0971 24.2725C32.9757 24.3469 32.8514 24.3395 32.7174 24.2803C32.4374 24.162 32.1801 23.996 31.9569 23.7897C31.8505 23.6888 31.8695 23.5712 31.9666 23.4658C32.0855 23.3335 32.1936 23.1919 32.2897 23.0422C32.3839 22.8997 32.4635 22.7471 32.5451 22.5956C32.6631 22.3771 32.7773 22.1563 32.8924 21.9363C33.0264 21.6799 33.1607 21.4238 33.2932 21.1669C33.3841 20.9909 33.4738 20.8137 33.5609 20.6358C33.5749 20.5895 33.5843 20.542 33.5888 20.4939C33.4939 20.574 33.4254 20.6279 33.361 20.6864C33.2214 20.8133 33.0893 20.9499 32.9437 21.069C32.7881 21.2007 32.6226 21.3202 32.4486 21.4264C32.4076 21.4474 32.3627 21.4598 32.3167 21.463C32.2707 21.4661 32.2245 21.4599 32.181 21.4446C31.7265 21.2518 31.3911 20.9291 31.2069 20.466C31.1719 20.3782 31.1831 20.2717 31.1726 20.1731C31.0941 20.1731 30.8838 20.4336 30.6563 20.7649C30.5011 20.9912 30.3213 21.1982 30.3102 21.5057C30.2268 21.4893 30.1739 21.4885 30.1296 21.4684C30.0231 21.4217 29.9195 21.3684 29.8196 21.3087C29.7574 21.2715 29.7079 21.2112 29.6502 21.1669C29.4849 21.0419 29.3122 20.9257 29.1525 20.7947C29.0442 20.7054 29.0237 20.5747 29.0457 20.4388C29.0502 20.4105 29.0587 20.3826 29.0654 20.3543L29.0356 20.3272C28.9701 20.3901 28.9035 20.4522 28.8391 20.5163C28.6727 20.6823 28.5093 20.8513 28.3411 21.0154C28.146 21.206 27.9454 21.3906 27.7492 21.5805C27.6734 21.6545 27.5722 21.6968 27.4663 21.6987C27.3604 21.7006 27.2578 21.6621 27.1793 21.5909C27.1049 21.5272 27.0073 21.4874 26.9426 21.4167C26.7434 21.1989 26.5525 20.9737 26.363 20.7467C26.015 20.3309 26.1572 19.9021 26.3466 19.4811C26.4365 19.2753 26.5439 19.0776 26.6679 18.8903C26.8253 18.6584 27.0077 18.4437 27.1838 18.2244C27.3077 18.0703 27.4369 17.9203 27.5687 17.7725C27.6299 17.7004 27.6988 17.6351 27.7741 17.5779C28.0812 17.3571 28.3675 17.1096 28.7148 16.941C28.9387 16.8276 29.1956 16.797 29.4399 16.8546C29.5644 16.8903 29.6784 16.9556 29.7723 17.0448C29.9928 17.2364 30.2016 17.441 30.3976 17.6575C30.5048 17.7785 30.5789 17.9464 30.5417 18.1142C30.5159 18.2161 30.4523 18.3043 30.3638 18.361C30.2625 18.4184 30.1542 18.361 30.0913 18.2494C30.0745 18.2196 30.0481 18.1958 30.0288 18.1671C29.7887 17.815 29.5691 17.812 29.2534 17.981C28.7151 18.2702 28.3057 18.712 27.9569 19.2094C27.7228 19.5421 27.5247 19.8939 27.4358 20.2974C27.4313 20.3525 27.4313 20.4079 27.4358 20.463C27.5917 20.3938 27.7254 20.345 27.8475 20.2769C27.9756 20.2048 28.0974 20.122 28.2115 20.0294C28.4993 19.7952 28.7825 19.5555 29.0643 19.3136C29.2229 19.1773 29.3759 19.034 29.5288 18.8911C29.6818 18.7482 29.8266 18.6063 30.0075 18.4344C30.0563 18.4507 30.1397 18.4768 30.2216 18.5058C30.385 18.5632 30.5484 18.6194 30.7099 18.6812C30.8786 18.7459 30.8994 18.8077 30.8332 18.9815C30.7706 19.1446 30.7148 19.3099 30.6563 19.4744L30.6887 19.4941C30.7881 19.4022 30.8905 19.3132 30.9865 19.2179C31.0714 19.1338 31.1481 19.0415 31.2311 18.9573C31.4741 18.7068 31.7302 18.4675 31.9592 18.2043C32.1567 17.97 32.34 17.7242 32.5082 17.468C32.5551 17.3984 32.5573 17.2905 32.5581 17.2C32.5588 17.1096 32.5279 17.0255 32.64 16.9611C32.8693 16.9637 33.0621 17.11 33.2772 17.193C33.4924 17.276 33.7176 17.3575 33.8765 17.5633C33.9283 17.7338 33.8121 17.8637 33.7276 18.0003C33.6104 18.1917 33.4853 18.3782 33.3617 18.5658C33.2501 18.7377 33.1265 18.9041 33.02 19.0798C32.8968 19.2827 32.784 19.4919 32.6705 19.7003C32.5864 19.8552 32.5086 20.0134 32.4278 20.1697L32.452 20.2043C32.4993 20.1872 32.554 20.1805 32.592 20.1518C32.7978 19.9959 33.0033 19.8384 33.202 19.6732C33.364 19.5388 33.5233 19.3996 33.6718 19.2503C33.862 19.059 34.0399 18.8557 34.2223 18.6547C34.3552 18.5099 34.4948 18.3707 34.6158 18.2166C34.7751 18.0204 34.9216 17.8142 35.0543 17.5991C35.1205 17.4896 35.1287 17.346 35.173 17.174Z" fill="#2B3483"/>
<path d="M16.0436 15.2937C16.2 15.1951 16.3567 15.2193 16.4903 15.3391C16.5849 15.4233 16.7018 15.4817 16.8008 15.5625C16.8627 15.6206 16.9206 15.6828 16.9742 15.7486C17.0948 15.877 17.045 16.0092 16.9724 16.1309C16.8752 16.2924 16.7643 16.4462 16.6522 16.5977C16.548 16.7387 16.4159 16.7618 16.2219 16.6594C16.0852 16.5848 15.9554 16.4981 15.8341 16.4004C15.693 16.2887 15.6748 16.1484 15.7481 15.9842C15.8471 15.759 15.9424 15.5316 16.0436 15.2937Z" fill="#2B3483"/>
<path d="M8.90415 27.9374L9.58273 26.2869C9.58713 26.2742 9.59524 26.2632 9.60599 26.2552C9.61675 26.2473 9.62966 26.2427 9.64303 26.2422H9.84515C9.85874 26.2419 9.87206 26.2461 9.88298 26.2542C9.8939 26.2623 9.90181 26.2738 9.90546 26.2869L10.584 27.9374C10.5922 27.953 10.5926 27.9649 10.584 27.9746C10.5797 27.9793 10.5743 27.9829 10.5683 27.9852C10.5623 27.9874 10.5558 27.9883 10.5494 27.9876H10.287C10.2737 27.9882 10.2605 27.9844 10.2496 27.9767C10.2387 27.969 10.2306 27.9579 10.2267 27.9452L10.1113 27.6634H9.37353L9.26186 27.9452C9.25792 27.9579 9.24987 27.969 9.23896 27.9767C9.22804 27.9844 9.21489 27.9882 9.20156 27.9876H8.93691C8.90067 27.9869 8.88976 27.9701 8.90415 27.9374ZM9.74242 26.6937L9.4852 27.3589H9.99516L9.74242 26.6937Z" fill="#2B3483"/>
<path d="M12.3265 27.9399V26.2901C12.3255 26.2835 12.326 26.2767 12.328 26.2703C12.3301 26.2639 12.3336 26.258 12.3383 26.2532C12.343 26.2484 12.3487 26.2448 12.3551 26.2426C12.3615 26.2404 12.3682 26.2397 12.3749 26.2406H12.6355C12.666 26.2406 12.6813 26.257 12.6813 26.2901V27.9399C12.6822 27.9461 12.6817 27.9526 12.6798 27.9586C12.6779 27.9647 12.6745 27.9702 12.6701 27.9748C12.6656 27.9793 12.6602 27.9828 12.6542 27.9849C12.6482 27.9869 12.6418 27.9876 12.6355 27.9868H12.3749C12.3684 27.9878 12.3618 27.9873 12.3556 27.9854C12.3494 27.9834 12.3437 27.98 12.339 27.9754C12.3343 27.9709 12.3307 27.9653 12.3285 27.9591C12.3264 27.9529 12.3257 27.9464 12.3265 27.9399Z" fill="#2B3483"/>
<path d="M14.6109 27.9416V26.2892C14.6105 26.2774 14.6144 26.2658 14.6217 26.2565C14.6259 26.2515 14.6312 26.2477 14.6373 26.2452C14.6433 26.2428 14.6498 26.2418 14.6563 26.2423H15.422C15.5004 26.2417 15.578 26.258 15.6494 26.2904C15.7169 26.3211 15.7777 26.3647 15.8284 26.4188C15.8783 26.4721 15.9179 26.5342 15.9453 26.6019C15.9731 26.6699 15.9874 26.7426 15.9874 26.816C15.9874 26.9149 15.9585 27.0116 15.9044 27.0944C15.8494 27.181 15.7737 27.2525 15.684 27.3025L16.0116 27.9375C16.0145 27.9425 16.016 27.9481 16.016 27.9539C16.016 27.9596 16.0145 27.9653 16.0116 27.9702C16.0084 27.9758 16.0036 27.9804 15.9978 27.9833C15.9921 27.9862 15.9856 27.9873 15.9792 27.9866H15.6687C15.6566 27.9864 15.6447 27.9824 15.6348 27.9753C15.6249 27.9682 15.6174 27.9583 15.6133 27.9468L15.3278 27.3832H14.9622V27.9416C14.9631 27.9481 14.9624 27.9547 14.9602 27.9608C14.9581 27.967 14.9545 27.9726 14.9498 27.9772C14.9451 27.9817 14.9394 27.9851 14.9332 27.9871C14.9269 27.989 14.9203 27.9895 14.9139 27.9885H14.6559C14.6257 27.9866 14.6109 27.971 14.6109 27.9416ZM15.3375 26.5476H14.9622V27.0739H15.3375C15.4139 27.0764 15.4884 27.0498 15.5459 26.9995C15.5728 26.976 15.5942 26.9469 15.6085 26.9142C15.6229 26.8815 15.6298 26.8461 15.6289 26.8104C15.6292 26.7743 15.6217 26.7387 15.607 26.7058C15.5929 26.6739 15.5721 26.6454 15.5459 26.6224C15.5186 26.5985 15.4872 26.5798 15.4532 26.5669C15.4162 26.553 15.377 26.5458 15.3375 26.5457V26.5476Z" fill="#2B3483"/>
<path d="M17.7659 26.2911C17.7657 26.2842 17.7669 26.2774 17.7694 26.271C17.7718 26.2646 17.7756 26.2588 17.7804 26.2539C17.7858 26.2486 17.7922 26.2445 17.7992 26.2418C17.8063 26.2392 17.8138 26.2381 17.8214 26.2386H18.067C18.0741 26.2378 18.0812 26.2386 18.0879 26.2409C18.0946 26.2432 18.1007 26.2469 18.1058 26.2519C18.1108 26.2568 18.1147 26.2629 18.1172 26.2695C18.1196 26.2762 18.1205 26.2833 18.1199 26.2903V27.6654H18.8227C18.8364 27.6652 18.8497 27.6702 18.8599 27.6795C18.8652 27.6846 18.8694 27.6908 18.8721 27.6977C18.8748 27.7046 18.876 27.712 18.8755 27.7193V27.9334C18.8755 27.9665 18.858 27.9836 18.8227 27.9851H17.8199C17.8128 27.9862 17.8055 27.9856 17.7986 27.9834C17.7918 27.9812 17.7855 27.9775 17.7804 27.9725C17.7752 27.9675 17.7713 27.9613 17.7689 27.9545C17.7665 27.9478 17.7657 27.9405 17.7666 27.9334L17.7659 26.2911Z" fill="#2B3483"/>
<path d="M20.688 27.9398V26.2901C20.6869 26.2835 20.6874 26.2767 20.6895 26.2703C20.6915 26.264 20.695 26.2582 20.6996 26.2534C20.7043 26.2486 20.71 26.2449 20.7163 26.2427C20.7226 26.2405 20.7293 26.2397 20.736 26.2406H20.9965C21.0267 26.2406 21.042 26.2569 21.042 26.2901V27.9398C21.0429 27.9461 21.0424 27.9525 21.0405 27.9585C21.0386 27.9645 21.0353 27.97 21.0309 27.9746C21.0265 27.9791 21.0211 27.9826 21.0151 27.9847C21.0092 27.9868 21.0028 27.9875 20.9965 27.9867H20.736C20.7295 27.9877 20.723 27.9872 20.7168 27.9852C20.7106 27.9832 20.7049 27.9798 20.7003 27.9752C20.6956 27.9707 20.6921 27.9651 20.69 27.959C20.6878 27.9528 20.6871 27.9463 20.688 27.9398Z" fill="#2B3483"/>
<path d="M22.972 26.2928C22.9715 26.2792 22.9763 26.2659 22.9854 26.2556C22.9904 26.2503 22.9966 26.2462 23.0034 26.2436C23.0102 26.2409 23.0176 26.2398 23.0248 26.2404H23.3066C23.3203 26.2405 23.3338 26.2433 23.3465 26.2486C23.3594 26.2536 23.37 26.2633 23.3762 26.2757L24.1683 27.3876V26.2765C24.1699 26.2704 24.1728 26.2648 24.1767 26.2599C24.1806 26.255 24.1855 26.251 24.1911 26.2482C24.2005 26.2436 24.2108 26.2412 24.2212 26.2411H24.4643C24.4778 26.2419 24.4908 26.2469 24.5015 26.2553C24.5075 26.2594 24.5123 26.265 24.5157 26.2715C24.519 26.278 24.5206 26.2852 24.5205 26.2925V27.9333C24.5205 27.9679 24.5015 27.985 24.4628 27.985H24.2246C24.2098 27.9863 24.195 27.9827 24.1825 27.9746C24.1724 27.9664 24.163 27.9573 24.1546 27.9474L23.3197 26.7719V27.9333C23.3197 27.9679 23.3037 27.985 23.2664 27.985H23.0234C23.0163 27.9861 23.009 27.9856 23.0022 27.9834C22.9953 27.9812 22.9891 27.9774 22.984 27.9724C22.9788 27.9674 22.9749 27.9612 22.9726 27.9544C22.9703 27.9476 22.9695 27.9404 22.9705 27.9333L22.972 26.2928Z" fill="#2B3483"/>
<path d="M26.4211 27.94V26.2876C26.4201 26.2813 26.4206 26.2749 26.4225 26.2688C26.4245 26.2628 26.4278 26.2573 26.4322 26.2527C26.4367 26.2482 26.4421 26.2447 26.4481 26.2426C26.4541 26.2405 26.4606 26.2399 26.4669 26.2407H27.6439C27.6503 26.2397 27.6569 26.2403 27.6631 26.2423C27.6693 26.2443 27.6749 26.2477 27.6796 26.2522C27.6842 26.2568 27.6877 26.2623 27.6899 26.2685C27.692 26.2746 27.6927 26.2812 27.6919 26.2876V26.5158C27.6927 26.5222 27.692 26.5288 27.6899 26.5349C27.6877 26.5411 27.6842 26.5466 27.6796 26.5512C27.6749 26.5557 27.6693 26.5591 27.6631 26.5611C27.6569 26.5631 27.6503 26.5637 27.6439 26.5627H26.7725V26.9178H27.4365C27.4719 26.9178 27.4898 26.9334 27.4898 26.9647V27.188C27.4898 27.2193 27.4719 27.2349 27.4365 27.2349H26.7725V27.6652H27.6658C27.6993 27.6652 27.7165 27.6809 27.7165 27.7125V27.94C27.7165 27.9712 27.6993 27.9869 27.6658 27.9869H26.4669C26.4606 27.9877 26.4541 27.987 26.4481 27.9849C26.4421 27.9829 26.4367 27.9794 26.4322 27.9749C26.4278 27.9703 26.4245 27.9648 26.4225 27.9587C26.4206 27.9527 26.4201 27.9462 26.4211 27.94Z" fill="#2B3483"/>
<path d="M29.4682 27.7179C29.4563 27.7056 29.4465 27.6914 29.4392 27.6758C29.433 27.6617 29.4386 27.646 29.456 27.6289L29.6175 27.4737C29.6227 27.468 29.6294 27.4638 29.6368 27.4615C29.6442 27.4592 29.652 27.4589 29.6596 27.4607C29.6752 27.4658 29.6895 27.4742 29.7016 27.4852C29.7258 27.5087 29.7526 27.5329 29.7824 27.5571C29.8125 27.5817 29.8446 27.6038 29.8785 27.623C29.9138 27.6427 29.9513 27.6584 29.9901 27.6699C30.0316 27.6818 30.0746 27.6877 30.1178 27.6874C30.161 27.6882 30.204 27.6819 30.2451 27.6688C30.2795 27.6575 30.3118 27.6404 30.3404 27.6181C30.3657 27.5982 30.3862 27.5727 30.4003 27.5437C30.4139 27.5172 30.4209 27.4878 30.4208 27.4581C30.4218 27.4231 30.4094 27.389 30.3862 27.3628C30.3616 27.3361 30.3326 27.3138 30.3006 27.2969C30.2656 27.2785 30.229 27.2635 30.1911 27.2522C30.1517 27.2407 30.1167 27.2306 30.0839 27.2228C29.8896 27.1667 29.7416 27.0974 29.6398 27.0147C29.5908 26.9767 29.5514 26.9276 29.5249 26.8715C29.4984 26.8153 29.4855 26.7537 29.4872 26.6916C29.4864 26.6229 29.5025 26.555 29.5341 26.494C29.5662 26.4335 29.6113 26.381 29.6663 26.3403C29.7282 26.2945 29.798 26.2606 29.8721 26.2401C29.9582 26.216 30.0473 26.2042 30.1368 26.2051C30.2426 26.2051 30.3469 26.23 30.4413 26.2777C30.5346 26.3238 30.6202 26.3841 30.6951 26.4564C30.702 26.462 30.7074 26.4691 30.7111 26.4772C30.7148 26.4853 30.7166 26.494 30.7164 26.5029C30.7162 26.5118 30.7139 26.5205 30.7099 26.5283C30.7058 26.5362 30.7 26.543 30.6929 26.5483L30.5604 26.6868C30.5548 26.6931 30.5475 26.6977 30.5394 26.7001C30.5313 26.7024 30.5227 26.7023 30.5146 26.6998C30.4982 26.693 30.4829 26.6839 30.4692 26.6727C30.4498 26.657 30.4279 26.6399 30.4029 26.6209C30.3768 26.6016 30.3494 26.5839 30.321 26.5681C30.2911 26.5515 30.2597 26.5378 30.2272 26.5271C30.1942 26.5161 30.1597 26.5105 30.1249 26.5107C30.0931 26.5108 30.0614 26.5131 30.03 26.5178C29.9989 26.5217 29.9687 26.5307 29.9406 26.5446C29.9144 26.558 29.8917 26.5774 29.8744 26.6012C29.8554 26.6301 29.8462 26.6642 29.8479 26.6987C29.8474 26.7266 29.8563 26.7539 29.8732 26.7761C29.8929 26.8003 29.9175 26.82 29.9455 26.8338C29.9814 26.8521 30.0187 26.8674 30.0571 26.8796C30.0996 26.8938 30.1465 26.9079 30.1978 26.9221C30.2797 26.9455 30.3568 26.9719 30.429 27.0006C30.4967 27.0271 30.5603 27.0632 30.6177 27.1078C30.6703 27.1481 30.7141 27.1988 30.7465 27.2567C30.7802 27.3212 30.7968 27.3932 30.7949 27.4659C30.796 27.5439 30.7769 27.6208 30.7394 27.6892C30.7023 27.7558 30.6515 27.8139 30.5905 27.8597C30.5261 27.908 30.4536 27.9445 30.3765 27.9677C30.295 27.9928 30.2102 28.0053 30.1249 28.0049C30.0001 28.005 29.8769 27.9779 29.7638 27.9252C29.6531 27.8754 29.5528 27.8051 29.4682 27.7179Z" fill="#2B3483"/>
<path d="M36.4431 26.1061C35.9536 25.9695 35.4619 25.8422 34.972 25.7086C34.6222 25.6133 34.2767 25.5009 33.9238 25.4179C33.1894 25.2451 32.4524 25.0828 31.7146 24.9246C31.4187 24.861 31.1191 24.8186 30.8213 24.7646C30.4379 24.6957 30.056 24.6157 29.6703 24.5573C29.1432 24.4787 28.6136 24.4165 28.0846 24.3499C27.6539 24.2956 27.2236 24.2383 26.7919 24.194C26.2923 24.1443 25.792 24.1018 25.291 24.0663C24.7111 24.0257 24.1304 23.9885 23.5497 23.9647C23.0658 23.9446 22.5819 23.9405 22.0954 23.9393C20.8439 23.9371 19.5921 23.9353 18.3407 23.9442C17.7503 23.9487 17.1603 23.9777 16.57 23.9982C16.5409 23.9982 16.5119 24.0015 16.4825 24.0045C16.2439 24.0175 16.0053 24.0369 15.7678 24.064C15.5913 24.0823 15.4149 24.1013 15.2381 24.1173C14.5953 24.1761 13.9513 24.2248 13.3092 24.2919C12.9131 24.3328 12.5197 24.3994 12.1247 24.4549C11.7525 24.507 11.3803 24.5532 11.011 24.6135C10.4683 24.7006 9.92856 24.7936 9.38845 24.8949C9.00282 24.9675 8.6209 25.059 8.23676 25.1402C8.0566 25.1774 7.87383 25.2049 7.69553 25.2518C7.39067 25.3293 7.08954 25.4212 6.78542 25.5005C6.50625 25.5731 6.22447 25.6349 5.94492 25.7052C5.65234 25.7797 5.35828 25.8485 5.06905 25.9353C4.64024 26.0622 4.21515 26.2044 3.78671 26.3403C3.62628 26.3912 3.46324 26.4341 3.30578 26.4925C3.03926 26.5911 2.77796 26.7036 2.51106 26.8014C2.39679 26.8431 2.38004 26.8848 2.47607 26.9876C2.66591 26.9247 2.84831 26.8584 3.03443 26.8041C3.28643 26.7296 3.54178 26.6667 3.79527 26.5982C4.14852 26.5029 4.50028 26.402 4.85465 26.312C5.22465 26.2182 5.59576 26.1311 5.96837 26.048C6.30338 25.9736 6.64323 25.9062 6.98122 25.8374C7.21721 25.7893 7.45395 25.7447 7.68846 25.6959C7.82619 25.6673 7.96205 25.6282 8.10089 25.604C8.56668 25.5221 9.03309 25.4427 9.50012 25.3657C9.79418 25.3161 10.089 25.2707 10.3845 25.2295C10.6243 25.1945 10.8647 25.1655 11.1052 25.1342C11.3579 25.1018 11.6103 25.0668 11.8634 25.0382C12.169 25.0039 12.475 24.9768 12.781 24.944C13.0553 24.9146 13.3289 24.874 13.604 24.8528C13.8969 24.8297 14.1914 24.8286 14.4847 24.8081C15.1175 24.7638 15.7503 24.7047 16.3831 24.6682C16.893 24.6391 17.4041 24.6287 17.9152 24.6205C18.5744 24.6097 19.2344 24.6109 19.894 24.6049C20.4151 24.6004 20.9336 24.5855 21.4533 24.5893C22.0515 24.5937 22.65 24.609 23.2478 24.6284C23.7797 24.6458 24.3113 24.6734 24.8428 24.7002C25.2151 24.7188 25.5873 24.7374 25.9595 24.7664C26.6296 24.8163 27.2973 24.8681 27.9655 24.9269C28.4435 24.9689 28.9207 25.0211 29.3975 25.0739C29.5776 25.094 29.7559 25.1316 29.9357 25.1565C30.442 25.2273 30.9497 25.2891 31.4544 25.3672C31.7787 25.4175 32.0988 25.4912 32.4223 25.5534C32.5994 25.5872 32.7766 25.6204 32.9545 25.6505C33.1805 25.6877 33.4094 25.713 33.6331 25.7622C34.2979 25.907 34.9605 26.06 35.6242 26.2115C35.7642 26.2431 35.906 26.2673 36.0441 26.3049C36.3329 26.3831 36.6203 26.4672 36.9077 26.5506C37.2773 26.6578 37.6462 26.7679 38.0158 26.8752C38.1412 26.9124 38.2667 26.9477 38.394 26.9749C38.4531 26.9818 38.5127 26.9826 38.5719 26.9771L38.5809 26.9228C37.788 26.5096 36.4431 26.1061 36.4431 26.1061Z" fill="#2B3483"/>
</g>
<defs>
<clipPath id="clip0_124_540">
<rect width="37" height="18.0924" fill="white" transform="translate(2 10.4785)"/>
</clipPath>
</defs>
</svg>
