<svg width="40" height="40" viewBox="0 0 40 40" fill="none" xmlns="http://www.w3.org/2000/svg">
<path d="M34.7552 21.7825C34.8439 20.7192 34.8261 19.6497 34.702 18.5899C34.2317 20.54 33.1043 22.2686 31.5094 23.4852C33.2043 21.7236 34.2382 19.4302 34.4359 16.9936C34.1204 15.7039 33.6185 14.467 32.946 13.3221C33.1335 14.7625 33.007 16.2264 32.5754 17.6133C32.1437 19.0002 31.417 20.2773 30.4452 21.3568C31.3992 19.9963 32.0416 18.4422 32.3267 16.8052C32.6118 15.1681 32.5326 13.4884 32.0947 11.8854C30.9592 10.3516 29.5327 9.05647 27.8967 8.07394C26.2607 7.09142 24.4472 6.44076 22.5597 6.15912C20.6722 5.87748 18.7478 5.97038 16.8962 6.4325C15.0446 6.89462 13.3022 7.71693 11.7684 8.85246C10.6041 9.69755 9.58053 10.7211 8.73544 11.8854C8.29754 13.4884 8.21833 15.1681 8.50343 16.8052C8.78853 18.4422 9.43095 19.9963 10.385 21.3568C9.40239 20.2842 8.66876 19.0079 8.23646 17.619C7.80415 16.2301 7.68383 14.7629 7.88408 13.3221C7.22481 14.4735 6.72368 15.7084 6.39419 16.9936C6.59192 19.4302 7.62581 21.7236 9.32075 23.4852C7.72583 22.2686 6.59845 20.54 6.12814 18.5899C5.97747 19.6477 5.95959 20.7203 6.07493 21.7825C6.60012 23.2761 7.5194 24.5998 8.73544 25.6136C7.79305 25.0625 6.97721 24.3192 6.34098 23.432C7.03034 26.6963 8.82075 29.6244 11.4121 31.7257C14.0035 33.827 17.2384 34.9737 20.5747 34.9737C23.911 34.9737 27.1459 33.827 29.7372 31.7257C32.3286 29.6244 34.119 26.6963 34.8084 23.432C34.1561 24.3048 33.3435 25.0452 32.4139 25.6136C33.4298 24.4963 34.2243 23.1962 34.7552 21.7825ZM14.9078 31.2539C14.4421 31.2534 13.978 31.1998 13.5243 31.0943L13.8436 30.1897C14.7482 30.2961 15.5463 30.2429 15.8124 29.4448L16.7702 26.9439H18.7389L17.6747 29.7108C17.1958 31.1475 15.8869 31.2539 14.9291 31.2539H14.9078ZM21.6655 31.0943L21.6123 30.2961H19.8031L19.1646 31.0943H17.5151L20.8141 27.2632C20.9628 27.0877 21.1715 26.9739 21.3994 26.9439H23.1554L23.5279 31.0943H21.6655ZM28.6892 31.0943H24.1664L25.7627 26.9439H27.7315L26.4544 30.1897H28.9553L28.6892 31.0943ZM26.8801 22.3678C23.9003 25.2412 19.4839 23.432 19.9096 19.867C20.282 17.1532 23.6343 14.3863 26.1351 12.9496V12.9124C25.6118 12.4245 25.1145 11.9094 24.6453 11.3693C24.4095 11.0663 24.1158 10.8133 23.7813 10.6249C23.4468 10.4366 23.0782 10.3166 22.6969 10.272C22.3157 10.2275 21.9293 10.2592 21.5604 10.3653C21.1915 10.4715 20.8474 10.65 20.5481 10.8904C20.3273 11.058 20.1304 11.2549 19.9628 11.4757L12.673 12.1142L20.4949 12.5399C21.8783 12.6463 22.3572 13.8702 20.9738 14.8812C15.972 18.6591 15.1207 22.6498 16.2381 25.7892C15.759 25.1037 15.4324 24.3235 15.2803 23.5012C13.7178 22.5067 12.4853 21.0712 11.7387 19.3762C10.992 17.6812 10.7647 15.8029 11.0855 13.9788C11.4063 12.1547 12.2608 10.4666 13.5409 9.12807C14.8211 7.78955 16.4694 6.86067 18.2774 6.45888C20.0854 6.0571 21.972 6.20046 23.6985 6.87083C25.4251 7.5412 26.9141 8.70848 27.9773 10.2251C29.0405 11.7417 29.6301 13.5394 29.6716 15.3911C29.7131 17.2428 29.2045 19.0652 28.2103 20.6279C27.8292 21.2474 27.391 21.8299 26.9014 22.3678H26.8801ZM20.4949 29.498H21.6123L21.5591 28.1677L20.4949 29.498Z" fill="#CC0000"/>
</svg>
