<svg width="40" height="40" viewBox="0 0 40 40" fill="none" xmlns="http://www.w3.org/2000/svg">
<path fill-rule="evenodd" clip-rule="evenodd" d="M19.9597 34.9348C27.2042 34.9348 33 28.2595 33 20.0135C32.9996 11.6727 27.2042 5 19.9597 5C12.7958 5 7 11.6727 7 20.0135C7 28.2595 12.7958 34.9348 19.9597 34.9348Z" fill="#0858A5"/>
<path fill-rule="evenodd" clip-rule="evenodd" d="M30.4241 11.0317C28.5725 10.4755 27.2842 12.051 27.7673 14.4607C28.4119 16.7765 28.0894 17.7966 27.3648 19.1863C26.6408 20.669 25.514 21.4102 25.514 21.7801C25.514 22.2454 25.4338 23.4505 25.1114 25.7645C24.7893 28.1743 22.6168 32.2544 18.5107 32.6243C14.326 32.9943 11.8299 31.0497 10.5424 28.1743C9.25408 25.3023 10.4622 22.2454 10.4622 22.2454C10.4622 22.2454 9.33459 19.7425 9.33459 17.7031C9.33459 15.6645 9.81771 13.7187 10.6229 12.3278C11.4277 10.9381 12.7965 9.26994 15.2918 8.80644C17.7872 8.34338 19.2365 9.36264 19.7998 9.64075C20.2821 9.91885 20.8458 10.3828 20.5241 10.6609C20.2825 11.0317 20.1218 10.7532 19.4773 10.1974C17.6258 9.08498 16.1772 9.36308 14.9698 9.54848C13.6815 9.82658 10.8645 11.4948 10.1398 15.1083C9.33459 18.8155 10.8645 21.2252 10.8645 21.2252C10.8645 21.2252 10.8645 21.0403 11.8299 20.0201C12.716 19.0936 14.5668 18.352 15.5323 18.2588C16.4985 18.2588 18.1886 18.4447 19.3163 19.3708C20.3623 20.2051 19.7185 20.4832 19.2361 20.0201C17.2232 18.6296 15.8547 18.815 14.7278 19C13.6811 19.1858 11.5078 20.5763 11.2663 22.245C12.4741 24.3745 14.5664 25.6718 16.9816 25.7641C19.3968 25.9525 22.7774 24.8397 24.7091 21.7797C25.836 18.7228 24.5481 17.3323 23.9043 16.7761C23.2606 16.2199 20.7652 16.1272 19.4773 15.571C18.189 14.9229 18.0284 14.1822 18.0284 13.9037C18.0284 13.6247 18.3504 13.9959 19.7189 13.9959C21.0873 14.0882 21.4903 13.9037 23.019 14.274C24.4683 14.6448 24.7091 15.2933 24.9507 15.7564C25.2728 16.219 25.4338 16.4048 25.4338 15.5705C25.4338 14.6444 25.5949 12.3269 25.7555 11.1231C25.9169 10.0107 27.124 9.82571 27.9291 10.2888C28.7343 10.845 30.0215 10.4742 30.0215 10.4742C30.0215 10.4742 30.102 10.5677 30.4241 11.0317ZM27.4456 11.4021C27.6872 11.4021 27.8482 11.2162 27.8482 10.9381C27.8482 10.6609 27.6872 10.475 27.4456 10.475C27.2842 10.475 27.0427 10.6609 27.0427 10.9381C27.0427 11.2167 27.2842 11.4021 27.4456 11.4021ZM10.9442 27.5271C11.5075 29.3794 13.4403 31.5119 16.6595 31.9741C19.7994 32.3467 21.6502 31.1424 23.2602 28.8249C24.9507 26.4152 24.7893 24.4672 24.8694 23.6355C24.9503 22.8003 24.7893 22.7076 24.468 23.0775C22.9385 24.8406 20.3619 26.6928 16.7401 26.4152C13.1178 26.1375 10.9442 23.0775 10.9442 23.0775C10.4615 24.1899 10.3813 25.7645 10.9442 27.5271Z" fill="#FFE822"/>
</svg>
