<svg width="40" height="40" viewBox="0 0 40 40" fill="none" xmlns="http://www.w3.org/2000/svg">
<path d="M13.983 20.6622C13.1767 21.4786 13.415 22.9082 13.5232 23.3117C13.6831 23.9249 14.1964 25.0856 15.6055 24.5596C17.0168 24.036 16.6272 22.6886 16.4529 22.2877C16.3095 21.9621 14.9044 19.7282 13.983 20.6622Z" fill="#D35D31"/>
<path d="M16.4992 16.7314C15.5218 17.1172 15.5744 18.4749 15.8941 19.4923C16.2168 20.5088 16.8414 21.2629 18.0619 20.7936C19.2793 20.3231 18.8536 18.6913 18.4475 17.9331C18.0453 17.1734 17.2639 16.4281 16.4992 16.7314Z" fill="#D35D31"/>
<path d="M19.9298 14.1274C19.1651 14.3837 18.8536 15.4045 19.2113 17.0205C19.5709 18.633 20.705 18.987 21.5905 18.6452C22.4771 18.3064 22.8172 16.8864 22.1946 15.6176C21.5727 14.3524 20.708 13.8648 19.9298 14.1274Z" fill="#D35D31"/>
<path d="M23.8026 13.5441C23.083 13.9116 23.379 15.6069 23.6367 16.6626C23.8913 17.718 24.3097 19.229 25.6531 18.795C26.9963 18.3624 27.0034 16.8097 26.7643 16.1588C26.1651 14.5453 24.6034 13.1351 23.8026 13.5441Z" fill="#D35D31"/>
<path d="M29.0178 17.0724C28.0303 16.8528 27.7263 17.6859 27.5921 18.8016C27.4571 19.9166 27.9251 20.5701 28.7653 20.6995C29.6053 20.8305 30.0373 20.121 30.1991 19.2075C30.3619 18.2909 29.8516 17.2575 29.0178 17.0724Z" fill="#D35D31"/>
<path d="M23.4182 29.6957C26.2715 27.7248 28.9734 26.0197 29.5043 24.4543C29.8156 23.5376 29.4041 22.1395 25.6747 21.2625C24.6067 21.0114 23.6265 20.0413 22.7749 20.0548C21.1349 20.0822 20.2833 21.7941 19.7537 22.4396C18.6404 23.8004 16.355 25.1904 16.7858 27.2762C17.131 28.9579 20.8153 31.493 23.4182 29.6957Z" fill="#D35D31"/>
<path d="M12.5861 18.7796C12.5861 18.4914 12.819 18.2578 13.1077 18.2578C13.3952 18.2578 13.6292 18.4914 13.6292 18.7796C13.6292 19.0677 13.3952 19.3017 13.1077 19.3017C12.819 19.3017 12.5861 19.0677 12.5861 18.7796Z" fill="#D35D31"/>
<path d="M14.6292 14.9593C14.6292 14.6721 14.8632 14.4395 15.1518 14.4395C15.4394 14.4395 15.6722 14.6721 15.6722 14.9593C15.6722 15.248 15.4394 15.4811 15.1518 15.4811C14.8632 15.4811 14.6292 15.248 14.6292 14.9593Z" fill="#D35D31"/>
<path d="M18.1483 12.7428C18.1483 12.4536 18.3812 12.2207 18.6687 12.2207C18.9595 12.2207 19.1914 12.4536 19.1914 12.7428C19.1914 13.0289 18.9595 13.2644 18.6687 13.2644C18.3814 13.2644 18.1483 13.0289 18.1483 12.7428Z" fill="#D35D31"/>
<path d="M22.5397 12.1379C22.5397 11.8472 22.7717 11.6152 23.0613 11.6152C23.349 11.6152 23.583 11.8472 23.583 12.1379C23.583 12.4243 23.349 12.6591 23.0613 12.6591C22.7719 12.6591 22.5397 12.4243 22.5397 12.1379Z" fill="#D35D31"/>
<path d="M28.2343 15.5248C28.2343 15.2371 28.4671 15.002 28.7558 15.002C29.0433 15.002 29.2783 15.2371 29.2783 15.5248C29.2783 15.8112 29.0433 16.0458 28.7558 16.0458C28.4671 16.0458 28.2343 15.8112 28.2343 15.5248Z" fill="#D35D31"/>
<path d="M28.0095 28.0328C27.1106 28.6817 26.0622 29.3597 24.9386 30.128L24.0358 30.7497C22.6761 31.6872 20.9597 31.8172 19.2043 31.1129C17.4251 30.3982 15.8468 28.9739 15.5632 27.6513C15.387 26.8323 15.4312 26.3362 15.4891 25.707C14.7562 25.8495 14.1966 25.689 13.8336 25.5009C13.1419 25.142 12.6224 24.4241 12.3781 23.4849C12.3471 23.3713 12.2173 22.6902 12.2173 22.0196C12.2173 21.532 12.2896 20.9681 12.511 20.4299C11.7617 20.0725 11.2392 19.308 11.2392 18.4188C11.2392 17.1901 12.24 16.1888 13.4708 16.1888C13.5305 16.1888 13.5905 16.1936 13.6513 16.1993C13.4585 15.8754 13.3462 15.5008 13.3462 15.0981C13.3462 13.9034 14.3181 12.9312 15.5121 12.9312C15.7729 12.9312 16.0213 12.9797 16.25 13.0653C16.2603 12.8942 16.2882 12.7275 16.3305 12.5669C13.9169 9.82307 10.6327 6.87891 6.98653 6.87891H4.17438L12.0202 35.3155L33.409 35.3164C31.6021 32.8799 29.7567 30.391 28.0095 28.0328Z" fill="#7B002B"/>
<path d="M16.9907 11.442C17.4711 10.9631 18.1372 10.6612 18.8822 10.6612C18.9028 10.6612 18.9225 10.6662 18.9421 10.6662C16.4827 7.65148 12.7407 3.69922 8.51741 3.69922C8.51741 3.69922 5.1723 3.70128 3.29822 3.70128L3.83118 5.63735H6.98554C10.9769 5.63735 14.4375 8.60042 16.9907 11.442Z" fill="#D35D31"/>
<path d="M30.3061 25.8867C29.9897 26.3605 29.5401 26.8156 28.9927 27.2722L34.9582 35.3183H37.2983C35.0356 32.2681 32.606 28.9887 30.3061 25.8867Z" fill="#D35D31"/>
</svg>
