<svg width="40" height="40" viewBox="0 0 40 40" fill="none" xmlns="http://www.w3.org/2000/svg">
<path d="M17.2846 18.1946L25.739 9.74023C26.6412 8.91541 27.698 8.24524 28.9868 7.91016H27.5691H24.5534H20.5066C20.4035 7.91016 20.3004 7.91016 20.1973 7.91016C20.1457 7.91016 20.0942 7.91016 20.0426 7.91016C20.0168 7.91016 19.9653 7.91016 19.9395 7.91016C19.6818 7.93593 19.424 7.98748 19.1405 8.03903C19.1147 8.03903 19.1147 8.03903 19.0889 8.03903C19.0374 8.03903 18.9858 8.06481 18.9343 8.06481C18.1095 8.27102 17.362 8.65765 16.7433 9.17316C16.5629 9.30204 16.3825 9.4567 16.2278 9.63713L5.96912 19.9732H13.0316C14.6813 19.9732 16.1763 19.303 17.2846 18.1946Z" fill="#98694C"/>
<path d="M16.2794 21.7277L7.87657 30.1306C7.0002 30.9554 5.91762 31.6255 4.55151 32.0122H5.99495H9.0107H13.0317C13.1348 32.0122 13.2379 32.0122 13.341 32.0122C13.3926 32.0122 13.4441 32.0122 13.4957 32.0122C13.5214 32.0122 13.573 32.0122 13.5988 32.0122C13.8565 31.9864 14.1143 31.9348 14.3978 31.8833C14.4236 31.8833 14.4236 31.8833 14.4494 31.8833C14.5009 31.8833 14.5525 31.8575 14.604 31.8575C15.4288 31.6513 16.1763 31.2647 16.795 30.7492C16.9754 30.5945 17.1558 30.4656 17.3105 30.2852L27.5949 20.0007H20.5324C18.857 19.9749 17.362 20.6451 16.2794 21.7277Z" fill="#86754D"/>
<path d="M31.1262 14.5616V14.5359C31.1262 14.5101 31.152 14.4585 31.1778 14.4585C32.1057 14.175 34.7863 13.8915 34.7863 13.8915C34.7863 13.8915 32.1057 13.711 31.1778 13.4275C31.152 13.4275 31.1262 13.3759 31.1262 13.3502V13.3244C31.2293 13.0151 32.1057 11.881 32.1057 11.881L30.688 12.8862H30.6622C30.6107 12.8862 30.5849 12.8604 30.5849 12.8089C30.3014 11.3912 30.0952 8.7621 30.0952 8.73633C30.0952 8.7621 29.9148 11.3912 29.6054 12.8089C29.6054 12.8347 29.5539 12.8862 29.5281 12.8862H29.5023L28.0847 11.881C28.0847 11.881 28.9353 12.9893 29.0642 13.2986V13.3244C29.0642 13.3502 29.0384 13.4017 29.0126 13.4017C28.0847 13.6853 25.3782 13.8915 25.3782 13.8915C25.3782 13.8915 28.0589 14.175 28.9868 14.4585C29.0126 14.4585 29.0384 14.5101 29.0384 14.5359V14.5616C28.9353 14.8709 28.0589 15.902 28.0589 15.902L29.5023 15.0256H29.5281C29.5797 15.0256 29.6054 15.0514 29.6054 15.1029C29.889 16.5206 30.0694 19.1497 30.0694 19.1755C30.0694 19.1497 30.2756 16.5206 30.5591 15.1029C30.5591 15.0771 30.6107 15.0256 30.6365 15.0256H30.6622L32.0799 15.902C32.0799 15.902 31.2293 14.8709 31.1262 14.5616Z" fill="#98694C"/>
</svg>
