<svg width="40" height="40" viewBox="0 0 40 40" fill="none" xmlns="http://www.w3.org/2000/svg">
<path d="M6.59752 5.16339C6.60488 5.23357 6.62893 5.30473 6.63776 5.37344C6.65396 5.49318 6.66475 5.61391 6.68095 5.72924V5.73513C6.68438 5.78911 6.69175 5.84163 6.70205 5.89267C6.70205 5.89708 6.705 5.9015 6.705 5.90886C6.705 5.91033 6.705 5.91328 6.70794 5.91622C6.70794 5.91769 6.70794 5.92064 6.70941 5.92555C6.71383 5.94861 6.71727 5.97021 6.72463 5.99425C6.73935 6.04039 6.73346 6.07523 6.74524 6.12529C6.78156 6.26319 6.77518 6.41238 6.81297 6.54783C6.86842 6.74807 6.89688 6.97185 6.9543 7.1711C6.96952 7.22803 6.9543 7.28692 6.96952 7.34827C6.98718 7.41158 7.00387 7.4744 7.01811 7.53574C7.03332 7.60985 7.02301 7.68935 7.04068 7.76689C7.05884 7.83462 7.08289 7.90921 7.10202 7.97596C7.12313 8.05693 7.1246 8.14233 7.14718 8.23164C7.1727 8.31998 7.20263 8.41813 7.21735 8.50942C7.23699 8.61199 7.24729 8.73026 7.26692 8.83823C7.28459 8.92706 7.33416 9.0365 7.35379 9.13612C7.36115 9.16753 7.3582 9.2009 7.36409 9.23378C7.37881 9.30642 7.39992 9.37807 7.41366 9.44383C7.42102 9.47573 7.41808 9.50419 7.42691 9.54002C7.46127 9.66811 7.50249 9.83202 7.54371 9.96109C7.55255 9.99839 7.55696 10.0352 7.5658 10.0725C7.59279 10.1653 7.62125 10.232 7.6291 10.2816C7.63941 10.3252 7.64383 10.3773 7.65659 10.4224C7.67622 10.4926 7.69732 10.5534 7.71057 10.6163C7.72137 10.6629 7.72726 10.7075 7.74051 10.7571C7.7572 10.817 7.78124 10.8685 7.80333 10.9254C7.84406 11.0422 7.85142 11.1689 7.89166 11.2798C7.91424 11.35 7.94565 11.4138 7.97117 11.4859C7.9908 11.5531 7.99374 11.6307 8.01583 11.7053C8.05165 11.8162 8.0968 11.9472 8.13803 12.0611C8.18318 12.1951 8.21459 12.3418 8.25925 12.4699C8.27888 12.518 8.27593 12.5695 8.29213 12.6264C8.33139 12.753 8.37605 12.8939 8.4158 13.0235C8.4369 13.0912 8.43985 13.1584 8.46537 13.2222C8.50904 13.3292 8.57039 13.4205 8.61063 13.5329C8.64498 13.6256 8.65382 13.7208 8.69014 13.8092C8.7348 13.9245 8.79123 14.0467 8.83589 14.1694C8.8673 14.2548 8.8781 14.3412 8.91245 14.4216C8.94386 14.4894 8.98509 14.5625 9.01502 14.6307C9.0376 14.6921 9.05575 14.7529 9.07931 14.8143C9.096 14.8609 9.14557 14.9394 9.17845 15.0032C9.21722 15.0861 9.2231 15.1774 9.2555 15.2682C9.30506 15.4076 9.3723 15.5494 9.43168 15.6765C9.45573 15.7295 9.45867 15.7747 9.47928 15.8301C9.51118 15.9214 9.574 15.9911 9.6113 16.0765C9.65007 16.1575 9.66038 16.2448 9.69522 16.3229C9.74822 16.4382 9.78797 16.4961 9.78797 16.6615C9.7865 16.6752 9.78159 16.6885 9.76687 16.6929C9.73399 16.7052 9.69816 16.6527 9.68 16.636C9.59167 16.5491 9.57744 16.4647 9.52493 16.3454C9.43806 16.1648 9.33107 15.9941 9.24862 15.8164C9.20642 15.7266 9.18728 15.6255 9.14606 15.5298C9.11906 15.4714 9.08274 15.413 9.05477 15.3565C9.01845 15.2741 8.9949 15.1853 8.95269 15.1102C8.89282 15.0017 8.84276 14.8712 8.79467 14.75C8.77651 14.7014 8.77356 14.6572 8.75442 14.613C8.73185 14.5664 8.69602 14.5218 8.67345 14.4766C8.64351 14.401 8.62536 14.3083 8.59395 14.2317C8.52671 14.0825 8.45113 13.9299 8.3942 13.7748C8.34169 13.6325 8.31764 13.497 8.26366 13.3493C8.24305 13.2924 8.21459 13.2271 8.1979 13.1673C8.17729 13.1147 8.17582 13.0676 8.15766 13.0166C8.11251 12.887 8.04969 12.7491 7.99521 12.621C7.96675 12.5612 7.96037 12.5013 7.93534 12.436C7.90688 12.3565 7.87252 12.2682 7.84259 12.1882C7.8048 12.0861 7.80333 11.9644 7.76308 11.8535C7.67916 11.6218 7.56923 11.3755 7.49856 11.1247C7.48531 11.0722 7.48825 11.0108 7.47157 10.9529C7.4328 10.8307 7.39158 10.6918 7.35281 10.5618C7.3106 10.4155 7.31502 10.26 7.27036 10.1172C7.21196 9.93214 7.14668 9.74025 7.08975 9.55671C7.0716 9.50272 7.07749 9.44432 7.06129 9.38396C7.02105 9.24164 6.97442 9.07723 6.9278 8.9462C6.90179 8.88043 6.90179 8.80927 6.87922 8.74646C6.84928 8.67431 6.7742 8.69983 6.77959 8.78228C6.78548 8.85933 6.81247 8.95797 6.81836 8.99724C6.82867 9.04975 6.82867 9.10422 6.83946 9.16115C6.86253 9.2593 6.89541 9.34028 6.92241 9.43156C6.95234 9.52432 6.95234 9.61216 6.97933 9.70786C6.99308 9.75596 7.01369 9.81141 7.02743 9.85558C7.05589 9.95128 7.05589 10.0543 7.08877 10.1422C7.11282 10.2099 7.13343 10.2943 7.15601 10.3679C7.16926 10.4155 7.16631 10.4548 7.17858 10.5049C7.20705 10.5903 7.23404 10.6781 7.2625 10.765C7.27575 10.8175 7.27134 10.8607 7.28311 10.9043C7.30127 10.976 7.316 11.0457 7.3371 11.1114C7.35378 11.1728 7.3533 11.2577 7.3744 11.3249C7.41317 11.4457 7.45685 11.5718 7.49807 11.6851C7.54322 11.8118 7.54764 11.9438 7.59377 12.0719C7.67769 12.2986 7.75131 12.5617 7.83572 12.7889C7.85682 12.8487 7.84798 12.9086 7.86712 12.9709C7.89559 13.0706 7.91522 13.1677 7.9481 13.2659C7.96626 13.311 7.99767 13.3601 8.01681 13.4023C8.04233 13.4563 8.04822 13.5177 8.07668 13.5741C8.09631 13.6202 8.12478 13.6654 8.14244 13.7169C8.16944 13.7891 8.15913 13.8764 8.18612 13.9441C8.21017 14.0011 8.24011 14.0609 8.26072 14.1169C8.28476 14.1812 8.28329 14.2489 8.31028 14.3073C8.33286 14.3588 8.37016 14.4099 8.39273 14.4565C8.4158 14.508 8.4212 14.5576 8.44181 14.6101C8.46144 14.666 8.49137 14.7215 8.51542 14.7711C8.53947 14.8295 8.54094 14.8977 8.56843 14.9546C8.591 15.0071 8.62682 15.0572 8.64646 15.1141C8.66609 15.1725 8.66903 15.2348 8.68965 15.2962C8.72449 15.386 8.78093 15.464 8.81577 15.5489C8.84718 15.6103 8.84865 15.6814 8.87859 15.7457C8.91 15.8208 8.95417 15.8905 8.98852 15.9666C9.03662 16.0623 9.06802 16.1653 9.10974 16.2596C9.18335 16.4235 9.20789 16.607 9.28445 16.769C9.33991 16.8872 9.41402 17.0016 9.468 17.1194C9.49794 17.1851 9.50677 17.2543 9.53769 17.3167C9.57204 17.3883 9.63044 17.4477 9.66381 17.5213C9.68982 17.593 9.70995 17.6656 9.74086 17.7348C9.78258 17.8261 9.84196 17.9105 9.88564 17.9973C9.90821 18.0484 9.91704 18.0994 9.94403 18.151C9.98869 18.2476 10.0623 18.3316 10.1079 18.4273C10.1305 18.492 10.1531 18.5578 10.1767 18.6216C10.2262 18.7256 10.3043 18.814 10.3573 18.9205C10.3921 18.9975 10.4157 19.08 10.4638 19.1516C10.5354 19.2611 10.5806 19.3352 10.6488 19.449C10.6949 19.5231 10.7528 19.6282 10.7911 19.7077C10.8255 19.7847 10.8863 19.8505 10.9221 19.927C10.958 20.0041 11.0031 20.0836 11.0458 20.1567C11.091 20.2377 11.1371 20.2976 11.1881 20.3731C11.2725 20.4978 11.3236 20.6318 11.4046 20.7559C11.4571 20.8457 11.5258 20.9336 11.5866 21.0175C11.752 21.2442 11.9866 21.6486 12.0882 21.786C12.1736 21.8955 12.2418 22.028 12.3184 22.1418C12.3797 22.2317 12.4538 22.321 12.5171 22.4044C12.5701 22.4707 12.6123 22.5482 12.6658 22.6194L12.7051 22.6733C14.8193 25.3573 16.9875 27.1368 18.8254 28.3004C19.7917 28.9075 20.3139 29.0837 20.3139 29.0837C20.4361 29.1333 20.3517 29.2216 20.2903 29.2628L9.39389 36.2277C9.35954 36.2513 9.27562 36.3136 9.30703 36.3828C9.33402 36.4358 9.44542 36.4064 9.47536 36.3961C18.2213 33.3259 24.5649 30.8023 28.4429 28.9625C32.3778 27.0961 33.6975 26.0287 33.5542 25.4982C33.4187 24.9966 31.9582 25.2116 30.7544 25.1041C29.6629 25.0045 28.2608 24.8091 26.575 24.2217C24.9982 23.675 23.4729 23.0483 22.1415 22.3283C22.1415 22.3283 21.6021 22.0461 21.5481 22.0128C21.4358 21.947 21.3479 21.897 21.239 21.8307C21.1747 21.7919 21.077 21.734 21.0029 21.7011C20.9101 21.6609 20.8463 21.6128 20.7668 21.5613C20.6839 21.5117 20.5715 21.4577 20.4891 21.4067C20.3669 21.3326 20.2908 21.2727 20.176 21.1903C20.1038 21.1358 20.0709 21.1245 19.9728 21.0651C19.9173 21.0293 19.8103 20.9724 19.7608 20.9385C19.6538 20.8683 19.5861 20.8104 19.4786 20.7383C19.4128 20.6907 19.3647 20.6612 19.2857 20.6146C19.2101 20.566 19.1355 20.5047 19.0693 20.4566C19.032 20.4281 18.9741 20.3967 18.9412 20.3609C18.8627 20.2868 18.7861 20.2171 18.7037 20.1518C18.6281 20.0963 18.5574 20.0267 18.4828 19.9727C18.4382 19.9383 18.3592 19.8701 18.3096 19.8343C18.1913 19.7489 18.1157 19.6836 17.995 19.5967C17.9185 19.5398 17.8542 19.4657 17.7771 19.4073C17.6903 19.344 17.6122 19.2709 17.5244 19.2071C17.466 19.1639 17.4007 19.1158 17.3575 19.0716C17.2991 19.0039 17.2451 18.9548 17.1857 18.8871C17.1426 18.837 17.0562 18.786 17.0081 18.735C16.9325 18.6407 16.829 18.5426 16.7303 18.467C16.6719 18.413 16.6547 18.3875 16.6322 18.3576C16.614 18.335 16.5934 18.308 16.5453 18.2565C16.4967 18.2098 16.4825 18.1951 16.4599 18.1755C16.4383 18.1559 16.4152 18.1323 16.35 18.07C16.3289 18.0489 16.2945 18.0008 16.2616 17.9547C16.2302 17.9139 16.2032 17.8737 16.1836 17.854C16.1267 17.7927 16.0855 17.7485 16.0452 17.7049C16.0153 17.6759 15.9839 17.6435 15.9461 17.6008C15.924 17.5768 15.9044 17.5468 15.8872 17.5184C15.8675 17.4914 15.8479 17.4639 15.8288 17.4413C15.7925 17.4011 15.7655 17.4143 15.7596 17.4202C15.738 17.434 15.7296 17.4771 15.7552 17.5238C15.7836 17.5827 15.8288 17.6474 15.8572 17.6862C15.8617 17.695 15.8675 17.7009 15.8705 17.7073C15.8823 17.725 15.8945 17.7431 15.9034 17.7618C15.9186 17.7888 15.9363 17.8187 15.9559 17.8442C16.0005 17.9056 16.0472 17.9551 16.0958 18.0023C16.108 18.0175 16.1242 18.0351 16.1409 18.0504C16.1738 18.0832 16.1964 18.1176 16.2219 18.1559C16.2479 18.1922 16.2764 18.2339 16.3122 18.2697C16.3245 18.2849 16.3377 18.3055 16.3529 18.3208C16.3647 18.3433 16.3829 18.3639 16.4005 18.3821C16.429 18.4076 16.456 18.4336 16.48 18.4636C16.5266 18.5087 16.5698 18.5549 16.6155 18.5926C16.6474 18.6211 16.6832 18.6584 16.7161 18.6908C16.8088 18.7978 16.9055 18.9028 16.9835 19.0039C17.0297 19.0623 17.1131 19.106 17.1656 19.1448C17.224 19.1865 17.2682 19.263 17.3143 19.3209C17.3462 19.3612 17.4252 19.4309 17.462 19.4716C17.5518 19.5884 17.6127 19.6493 17.7295 19.7366C17.7997 19.7877 17.8561 19.8357 17.9101 19.9054C17.9445 19.9472 18.0436 20.0463 18.0833 20.0919C18.1786 20.2171 18.2247 20.3295 18.2085 20.3353C18.1427 20.3535 17.9818 20.2087 17.887 20.1474C17.8085 20.0963 17.7958 20.0733 17.7202 20.0193C17.7064 20.0056 17.5852 19.9211 17.5455 19.8701C17.5141 19.8416 17.4243 19.7464 17.3978 19.7121C17.2638 19.5418 17.2201 19.53 17.0645 19.3818C16.9516 19.2709 16.8137 19.1742 16.7043 19.0756C16.6714 19.0397 16.6385 19.0049 16.6062 18.9705C16.5703 18.9347 16.5262 18.9004 16.4938 18.865C16.4408 18.8007 16.375 18.6746 16.3122 18.629C16.2489 18.5809 16.2013 18.5333 16.1375 18.4866C16.1134 18.469 16.0923 18.442 16.0702 18.4238C16.0383 18.3983 16.0025 18.3738 15.9775 18.3453C15.9039 18.2491 15.8283 18.1524 15.7547 18.0567C15.7189 18.0091 15.6678 17.9713 15.6364 17.9242C15.5608 17.8221 15.4995 17.7166 15.4273 17.6195C15.3218 17.4845 15.1736 17.3878 15.074 17.2494C14.9719 17.1115 14.9106 16.9491 14.8139 16.8014C14.7707 16.7371 14.7054 16.6919 14.6617 16.6325C14.6333 16.5967 14.6186 16.5555 14.593 16.5172C14.5449 16.4387 14.4821 16.3621 14.4291 16.2861C14.3614 16.1864 14.3123 16.077 14.2461 15.972C14.2328 15.9572 14.2102 15.8861 14.169 15.8321C14.1273 15.7811 14.0925 15.7212 14.0453 15.6456C13.9973 15.572 13.9752 15.5219 13.9433 15.4709C13.9074 15.4184 13.8844 15.3713 13.8603 15.3345C13.8392 15.2986 13.7911 15.2319 13.7735 15.2049C13.7106 15.1082 13.6954 15.0636 13.6287 14.9738C13.587 14.9183 13.5433 14.8761 13.5089 14.8854C13.479 14.9075 13.4913 14.9409 13.4957 14.9654C13.5256 15.0449 13.5256 15.0317 13.5541 15.0861C13.6086 15.1818 13.6287 15.2285 13.6807 15.3134C13.7106 15.3565 13.7524 15.4503 13.7892 15.4999C13.8255 15.5538 13.8598 15.6152 13.8868 15.6579C13.9128 15.7045 13.9511 15.8242 13.9909 15.8758C14.0208 15.9116 14.0581 15.9867 14.0861 16.0392C14.1386 16.1462 14.2073 16.2301 14.2623 16.317C14.301 16.3857 14.3373 16.4568 14.3746 16.5246C14.4478 16.6374 14.5371 16.7425 14.6107 16.8563C14.6554 16.9363 14.6995 17.0158 14.7447 17.0968C14.7893 17.164 14.8502 17.219 14.8909 17.2848C14.9425 17.3662 14.9739 17.4531 15.0264 17.5341C15.0671 17.5954 15.1231 17.6548 15.1643 17.7161C15.2345 17.8217 15.2983 17.9237 15.3704 18.0283C15.4107 18.0808 15.4656 18.1289 15.5073 18.1848C15.5643 18.2584 15.6084 18.3512 15.6668 18.415C15.736 18.4807 15.7581 18.519 15.8106 18.5833C15.8945 18.6825 16.0972 18.9676 16.0629 18.97C15.9417 18.9853 15.7154 18.7251 15.6168 18.6299C15.5417 18.5583 15.4592 18.5019 15.4062 18.4327C15.3311 18.3286 15.2757 18.2133 15.1972 18.1137C15.1702 18.0764 15.127 18.0479 15.099 18.014C15.0465 17.9448 14.9984 17.8732 14.9356 17.8167C14.913 17.7912 14.8831 17.7667 14.8585 17.7397C14.7648 17.62 14.6882 17.4914 14.597 17.3687C14.5597 17.3186 14.5086 17.272 14.4733 17.2215C14.4419 17.1822 14.4267 17.1361 14.4007 17.0953C14.3643 17.0379 14.3167 16.9839 14.2785 16.927C14.2515 16.8853 14.2333 16.8445 14.2078 16.8018C14.1587 16.7268 14.0925 16.6625 14.0439 16.5854C14.0046 16.5241 13.9928 16.4431 13.9526 16.3808C13.852 16.2257 13.7391 16.0662 13.6385 15.9101C13.614 15.8699 13.6027 15.8242 13.5772 15.785C13.4957 15.6584 13.4191 15.5185 13.3372 15.3909C13.3072 15.3448 13.2964 15.2913 13.265 15.2451C13.2277 15.1867 13.1698 15.1431 13.1355 15.0861C13.107 15.043 13.0952 14.9963 13.0712 14.9448C13.0412 14.88 13.002 14.8128 12.9662 14.7519C12.9441 14.7117 12.9333 14.6734 12.9107 14.6351C12.8126 14.4859 12.7321 14.3205 12.654 14.1537C12.6108 14.0668 12.55 13.9849 12.5073 13.898C12.4597 13.7984 12.416 13.6997 12.3733 13.605C12.3493 13.5407 12.3267 13.474 12.3026 13.4097C12.255 13.3086 12.1824 13.2232 12.1373 13.1167C12.1044 13.0465 12.0862 12.9783 12.0602 12.9184C12.0406 12.8797 12.0048 12.8512 11.9807 12.8674C11.9552 12.8841 11.9478 12.9155 11.9655 12.9724C11.9984 13.0794 12.0568 13.2021 12.0838 13.263C12.1407 13.3837 12.1692 13.5093 12.2231 13.6345C12.2546 13.7007 12.2972 13.7679 12.3287 13.8332C12.3856 13.95 12.4337 14.0678 12.4877 14.1777C12.5176 14.244 12.5407 14.3068 12.575 14.3682C12.5961 14.3981 12.6231 14.4339 12.6378 14.4722C12.6712 14.5502 12.6845 14.6332 12.7218 14.7068C12.7576 14.7868 12.8155 14.8496 12.8523 14.9276C13.0388 15.3217 13.2253 15.6991 13.4505 16.049C13.5134 16.1472 13.5433 16.2654 13.6086 16.3636C13.6719 16.4642 13.7607 16.5427 13.826 16.6414C13.879 16.7223 13.8917 16.8372 13.9403 16.9255C14.0125 17.058 14.1077 17.1689 14.1872 17.2926C14.2093 17.327 14.2147 17.3667 14.2387 17.4021C14.2686 17.4497 14.3074 17.4963 14.3369 17.5434C14.3776 17.6077 14.4002 17.6828 14.4419 17.7422C14.4895 17.8064 14.5587 17.8604 14.6058 17.9286C14.6657 18.0081 14.7049 18.1004 14.7648 18.1853C14.8095 18.2393 14.8747 18.281 14.9184 18.336C14.9881 18.4258 15.2202 18.7345 15.2884 18.8243C15.394 18.9563 15.5819 19.1516 15.6673 19.3249C15.6928 19.3803 15.7885 19.5084 15.765 19.5325C15.7169 19.5668 15.4838 19.3126 15.4435 19.2753C15.3469 19.1796 15.2629 19.0515 15.1761 18.9435C15.1569 18.919 14.9326 18.6986 14.9145 18.6746C14.8909 18.6471 14.8669 18.6147 14.8502 18.5858C14.7844 18.4925 14.7491 18.3811 14.6804 18.2913C14.6534 18.254 14.6117 18.2285 14.5822 18.1917C14.5341 18.1269 14.4968 18.0469 14.4458 17.9772C14.3648 17.8688 14.2637 17.7701 14.1857 17.6612C14.0954 17.5429 14.0341 17.4016 13.9472 17.2852C13.9035 17.2268 13.8466 17.1729 13.8049 17.1105C13.7852 17.085 13.7779 17.0551 13.7597 17.0266C13.7298 16.978 13.6856 16.924 13.6616 16.8701C13.6361 16.8205 13.6199 16.7744 13.5929 16.7292C13.5001 16.5835 13.4064 16.4328 13.3166 16.2875C13.2744 16.2232 13.2523 16.1526 13.2115 16.0888C13.1414 15.9833 13.055 15.8861 12.9848 15.7781C12.9038 15.6515 12.8611 15.4974 12.7787 15.3693C12.7247 15.2854 12.6619 15.2088 12.6074 15.1225C12.549 15.0336 12.5191 14.9271 12.4666 14.8305C12.4214 14.7465 12.3571 14.668 12.3174 14.5841C12.2742 14.4928 12.2418 14.402 12.1976 14.3063C12.1736 14.2553 12.1377 14.2072 12.1137 14.1527C12.0852 14.0909 12.0779 14.0222 12.0494 13.9608C11.9694 13.7846 11.8482 13.6178 11.7657 13.4411C11.7044 13.3145 11.6548 13.1874 11.6048 13.0544C11.5793 12.9827 11.567 12.913 11.5371 12.8453C11.4615 12.6829 11.3702 12.5131 11.3 12.3526C11.2696 12.2657 11.2367 12.1828 11.2082 12.0959C11.2009 12.0704 11.1979 12.0478 11.1891 12.0223C11.1562 11.9467 11.1111 11.8731 11.0797 11.797C11.0541 11.7102 11.0281 11.6238 10.9997 11.5355C10.8858 11.2518 10.7832 10.9308 10.6753 10.6339C10.6615 10.5814 10.6586 10.5142 10.6394 10.4563C10.5825 10.3056 10.5271 10.1545 10.4721 10.0008C10.4407 9.92576 10.3666 9.95128 10.3838 10.0293C10.4063 10.1348 10.4216 10.1589 10.4377 10.2428C10.4451 10.2845 10.453 10.3252 10.4633 10.3679C10.475 10.416 10.502 10.472 10.5158 10.5201C10.5428 10.6099 10.5457 10.6992 10.5771 10.7861C10.6203 10.9068 10.6625 11.0251 10.7037 11.1517C10.717 11.2145 10.7293 11.2768 10.7425 11.3411C10.7592 11.3981 10.7832 11.4594 10.8083 11.5129C10.8681 11.6665 10.929 11.8132 10.9845 11.9683C11.0056 12.0552 11.0281 12.1425 11.0502 12.2294C11.0699 12.279 11.1057 12.3276 11.1283 12.3757C11.1474 12.4188 11.1493 12.4581 11.17 12.5008C11.2087 12.5989 11.245 12.701 11.2897 12.8011C11.3285 12.8821 11.3707 12.9636 11.4036 13.0519C11.4183 13.0927 11.4183 13.1314 11.4335 13.1717C11.5272 13.4318 11.6318 13.7037 11.7412 13.9485C11.7697 14.0099 11.7785 14.0722 11.8055 14.1365C11.8281 14.1876 11.861 14.243 11.885 14.2916C11.8968 14.3259 11.9086 14.3588 11.9208 14.3927C11.9552 14.4648 12.0136 14.5247 12.046 14.5973C12.1417 14.799 12.228 14.9885 12.3493 15.1622C12.4587 15.3202 12.5073 15.5322 12.5927 15.7246C12.6344 15.8115 12.6869 15.8895 12.7365 15.9695C12.762 16.0102 12.7797 16.0564 12.7993 16.1001C12.8518 16.1997 12.8832 16.2865 12.947 16.3734C13.0015 16.4451 12.9961 16.4617 13.0398 16.5628C13.0516 16.5928 13.1011 16.7807 13.0913 16.7807C13.0751 16.7915 12.9814 16.7361 12.9485 16.7008C12.9078 16.6541 12.8405 16.5928 12.7949 16.4887C12.7723 16.4377 12.7257 16.3479 12.7007 16.2983C12.6423 16.1702 12.5431 16.0642 12.4705 15.9509C12.4258 15.8851 12.4018 15.81 12.3679 15.7359C12.308 15.6054 12.2374 15.4699 12.1736 15.3335C12.1451 15.2761 12.1049 15.2206 12.074 15.171C12.0381 15.1185 12.0214 15.0611 11.9871 15.0071C11.914 14.8933 11.8305 14.7622 11.7721 14.6371C11.727 14.5453 11.7064 14.4496 11.6627 14.3588C11.6494 14.3289 11.6239 14.3029 11.6082 14.2744C11.5798 14.2293 11.5645 14.1753 11.542 14.1252C11.5076 14.0546 11.4561 13.9873 11.4232 13.9147C11.3569 13.7709 11.3182 13.6202 11.2514 13.4799C11.22 13.4126 11.169 13.3577 11.1361 13.2904C11.0895 13.1893 11.0821 13.0622 11.035 12.9543C10.9128 12.675 10.7661 12.3864 10.661 12.09C10.6449 12.0434 10.639 11.9865 10.6223 11.9349C10.5776 11.8073 10.5168 11.6896 10.4687 11.5639C10.449 11.5055 10.4431 11.454 10.424 11.3956C10.3911 11.3102 10.3504 11.2194 10.3175 11.134C10.3101 11.1041 10.3072 11.0741 10.2964 11.0442C10.2606 10.9627 10.238 10.868 10.1997 10.7831C10.1786 10.7394 10.1482 10.6918 10.1295 10.6467C10.0996 10.5613 10.1084 10.4543 10.08 10.3748C10.0338 10.2526 9.98575 10.1284 9.94305 10.0077C9.91606 9.93754 9.91165 9.87227 9.8876 9.80307C9.85766 9.72455 9.8292 9.63768 9.79926 9.55818C9.76932 9.47671 9.77227 9.38837 9.74527 9.30151C9.72172 9.23427 9.6962 9.16802 9.6751 9.10717C9.63191 8.99282 9.61669 8.87013 9.574 8.76559C9.56762 8.74302 9.56026 8.72094 9.55143 8.70278C9.54112 8.67431 9.52149 8.64438 9.49303 8.65468C9.4572 8.66253 9.45867 8.70719 9.46014 8.73566C9.46603 8.81811 9.49891 8.8981 9.52443 8.96583C9.54995 9.03748 9.5632 9.11502 9.58283 9.1852C9.59609 9.22986 9.59461 9.27942 9.60246 9.32605C9.61866 9.39623 9.64271 9.4615 9.66234 9.52432C9.67853 9.59302 9.67117 9.65682 9.6854 9.70786C9.73055 9.85264 9.77668 10.0141 9.82478 10.1515C9.84588 10.2256 9.84883 10.3066 9.86944 10.3694L9.95041 10.5873C9.97446 10.6487 9.97888 10.7071 10.0029 10.765C10.0299 10.8278 10.0613 10.8901 10.0844 10.9603C10.1129 11.0486 10.1084 11.1365 10.1413 11.2204C10.1894 11.3573 10.2522 11.4864 10.3003 11.6189C10.3165 11.667 10.3209 11.7156 10.3376 11.7651C10.3764 11.879 10.4049 12.0012 10.4461 12.1165C10.5074 12.279 10.584 12.437 10.6419 12.598C10.6974 12.754 10.7062 12.9464 10.7744 13.0927C10.8102 13.1668 10.8794 13.2109 10.9123 13.2821C10.9329 13.3282 10.927 13.3802 10.9408 13.4342C10.9599 13.497 10.9908 13.555 11.011 13.6119C11.0242 13.6619 11.0394 13.713 11.0541 13.7625C11.0723 13.8224 11.1155 13.8833 11.1425 13.9387C11.1847 14.0354 11.2097 14.1355 11.2637 14.218C11.3044 14.2837 11.355 14.3417 11.3888 14.4133C11.4252 14.4928 11.4414 14.5782 11.4757 14.6597C11.5297 14.7794 11.594 14.8957 11.6406 15.0209C11.6838 15.1347 11.6975 15.2555 11.752 15.3556C11.8045 15.4552 11.8718 15.5435 11.9282 15.6441C11.9625 15.7168 11.9969 15.7904 12.0317 15.865C12.0578 15.9234 12.1132 15.9774 12.1446 16.0367C12.1854 16.1138 12.2285 16.1918 12.2629 16.2664C12.2884 16.3263 12.2987 16.3803 12.3316 16.4313C12.3812 16.5084 12.417 16.5712 12.4666 16.6492C12.5142 16.7165 12.5603 16.8058 12.5932 16.8868C12.6172 16.9481 12.6398 17.0134 12.6756 17.0654C12.7129 17.1194 12.7654 17.1645 12.7968 17.2229C12.8297 17.2799 12.8739 17.4663 12.8552 17.4752C12.816 17.4899 12.7031 17.3795 12.6717 17.3412C12.5834 17.2318 12.5353 17.087 12.4543 16.9702C12.3684 16.8465 12.3115 16.7749 12.2442 16.6316C12.205 16.5462 12.1363 16.3989 12.0852 16.3253C12.0421 16.2551 11.9812 16.1943 11.9439 16.1163C11.9169 16.0505 11.9032 15.9734 11.8762 15.9101C11.8315 15.8188 11.7422 15.758 11.699 15.6652C11.6494 15.5568 11.6254 15.4488 11.5714 15.3507C11.5483 15.3011 11.513 15.2481 11.4899 15.1971C11.4571 15.1357 11.4463 15.0734 11.4163 15.0091C11.355 14.881 11.2671 14.7701 11.2043 14.642C11.1415 14.5115 11.1076 14.3686 11.0433 14.2337C11.0105 14.1635 10.9521 14.1012 10.9182 14.0295C10.8716 13.9333 10.8495 13.8337 10.8014 13.7351C10.7759 13.6781 10.7342 13.6197 10.7077 13.5618C10.6659 13.4794 10.6552 13.3886 10.6149 13.3022C10.5266 13.1064 10.4373 12.8998 10.3489 12.7059C10.3146 12.6308 10.3072 12.5494 10.2719 12.4743C10.24 12.4056 10.2071 12.3403 10.1727 12.2746C10.0942 12.1013 10.0687 11.9006 9.99213 11.7264C9.95189 11.6366 9.90085 11.5546 9.86993 11.4574C9.81447 11.3097 9.79141 11.1556 9.73743 11.002C9.65351 10.7689 9.58529 10.5284 9.50284 10.2958C9.4788 10.2281 9.47585 10.1579 9.44886 10.0882C9.42579 10.019 9.3988 9.95177 9.37475 9.88355C9.35807 9.82957 9.34776 9.74958 9.33009 9.67891C9.26875 9.48211 9.20544 9.28777 9.14409 9.08803C9.12937 9.03846 9.12495 8.95601 9.10974 8.89516C9.09943 8.8608 9.08275 8.82105 9.07097 8.78964C9.05281 8.74646 9.05428 8.70719 9.04103 8.66008C8.99293 8.51531 8.95417 8.34894 8.90853 8.20318C8.89626 8.15803 8.89037 8.09227 8.87564 8.0427C8.81233 7.8356 8.7824 7.58727 8.69799 7.39489C8.68425 7.35759 8.6602 7.31931 8.62584 7.32766C8.58855 7.33649 8.59591 7.37919 8.59886 7.41452C8.60965 7.50728 8.64548 7.59022 8.6602 7.6653C8.66658 7.69818 8.66658 7.74775 8.67099 7.79045C8.67394 7.82627 8.67688 7.86848 8.69014 7.90578C8.72792 8.02651 8.77258 8.17324 8.80841 8.2925C8.82068 8.35139 8.81135 8.43973 8.82657 8.50451C8.87908 8.70131 8.91638 8.93147 8.98754 9.10717C9.05183 9.26765 9.06262 9.45708 9.10974 9.62885C9.12348 9.70443 9.12937 9.78098 9.13968 9.85558C9.149 9.92821 9.19071 9.97778 9.21182 10.0377C9.22801 10.0857 9.22801 10.1245 9.2447 10.1702C9.28347 10.2938 9.30899 10.4151 9.35757 10.5412C9.38751 10.6271 9.43414 10.708 9.4626 10.792C9.47732 10.8307 9.4729 10.8661 9.48223 10.9058C9.50431 10.9942 9.51805 11.08 9.54357 11.164C9.60345 11.3328 9.66381 11.5183 9.72368 11.6881C9.75706 11.7823 9.76883 11.8741 9.80171 11.9649C9.93815 12.329 10.0721 12.6966 10.2061 13.0578C10.2272 13.1393 10.2483 13.2203 10.2719 13.3003C10.3018 13.3812 10.3499 13.4509 10.3842 13.5231C10.4279 13.6188 10.4427 13.7169 10.478 13.8175C10.5202 13.9348 10.5747 14.0261 10.6188 14.1468C10.6414 14.2052 10.6606 14.2705 10.689 14.3259C10.7072 14.3682 10.7445 14.4069 10.7641 14.4511C10.7999 14.5232 10.8073 14.6145 10.8412 14.6857C10.8755 14.7593 10.9378 14.8192 10.9776 14.8844C11.0193 14.9473 11.0222 15.0287 11.0546 15.0994C11.1027 15.2123 11.17 15.3129 11.2166 15.4297C11.2372 15.4797 11.2465 15.5239 11.2711 15.571C11.2936 15.6265 11.3344 15.676 11.3594 15.7315L11.3638 15.7403C11.3672 15.7477 11.3702 15.758 11.3731 15.7703C11.379 15.7928 11.3864 15.8213 11.3938 15.8419C11.406 15.8733 11.4389 15.9317 11.4536 15.9499C11.4629 15.9631 11.487 15.9916 11.5106 16.0186C11.5184 16.0274 11.5287 16.0397 11.5361 16.0515C11.5856 16.1266 11.5901 16.235 11.6298 16.3204C11.6686 16.3999 11.7393 16.4642 11.779 16.5501C11.8075 16.6149 11.8256 16.7744 11.7878 16.7788C11.6224 16.7788 11.6092 16.5471 11.5552 16.4274C11.5115 16.3346 11.4443 16.2561 11.3947 16.1648C11.3844 16.1467 11.3687 16.1109 11.356 16.075C11.3471 16.0436 11.3334 16.0078 11.3201 15.9823C11.299 15.9386 11.299 15.9435 11.2828 15.9121C11.2706 15.8822 11.2244 15.8223 11.2092 15.7953C11.2092 15.7938 11.2078 15.7923 11.2078 15.7889C11.1435 15.6893 11.1008 15.544 11.0571 15.4758C11.0325 15.437 10.9987 15.3988 10.9727 15.3605C10.9334 15.2947 10.9113 15.2177 10.8789 15.1455C10.847 15.0798 10.7965 15.016 10.7666 14.9458C10.7293 14.8648 10.7273 14.7622 10.6885 14.6798C10.6694 14.6346 10.6301 14.59 10.6115 14.5488C10.5678 14.454 10.5393 14.3529 10.4903 14.2631C10.4706 14.2155 10.4319 14.1748 10.4093 14.1306C10.372 14.0526 10.3524 13.9672 10.3126 13.8946C10.2257 13.7395 10.132 13.5658 10.0589 13.4018C10.0181 13.3052 10.0034 13.2075 9.96121 13.1133C9.92539 13.0318 9.87582 12.9508 9.83901 12.8728C9.81497 12.8198 9.80761 12.7702 9.78601 12.7104C9.75264 12.6176 9.71092 12.5239 9.67804 12.4326C9.65547 12.3698 9.64074 12.2338 9.61964 12.1769C9.59854 12.1082 9.56124 12.0356 9.53131 11.9668C9.4837 11.8648 9.46848 11.7607 9.42579 11.6586C9.39143 11.5831 9.35365 11.4977 9.32371 11.4177C9.29966 11.35 9.29378 11.2871 9.26384 11.2233C9.2447 11.1757 9.21476 11.1208 9.1966 11.0741C9.17697 11.0128 9.1593 10.9161 9.14262 10.8381C9.11268 10.7498 9.07391 10.6668 9.04839 10.5814C9.03072 10.5186 9.02778 10.3694 9.01257 10.3306C8.92423 10.0617 8.8408 9.77951 8.7559 9.51352C8.71664 9.38985 8.6975 9.26716 8.66609 9.1479C8.65382 9.09981 8.65087 9.03699 8.63762 8.98987C8.61505 8.91184 8.58069 8.83381 8.55665 8.75382C8.5434 8.70278 8.53554 8.64732 8.52671 8.59334C8.51346 8.53739 8.48352 8.48046 8.46095 8.42501C8.41138 8.26551 8.38292 8.09472 8.33433 7.93964C8.31912 7.87388 8.31912 7.78898 8.30145 7.73058C8.24158 7.53525 8.22489 7.31244 8.16944 7.10583C8.15619 7.04989 8.1449 6.98854 8.13508 6.93456C8.03398 6.55471 7.98834 6.12921 7.87841 5.76212C7.85731 5.69342 7.88577 5.60557 7.86467 5.52803C7.84259 5.44411 7.82001 5.36902 7.79597 5.29197C7.78419 5.25615 7.78419 5.22474 7.77486 5.18842C7.7572 5.12707 7.72726 5.07996 7.69634 5.08585C7.65413 5.09763 7.66346 5.13395 7.66493 5.18842C7.66935 5.27087 7.67818 5.34203 7.69192 5.41123C7.70664 5.46816 7.69928 5.51674 7.71646 5.56925C7.74983 5.68605 7.76014 5.85439 7.78124 5.96039C7.7886 6.00652 7.78271 6.06591 7.79155 6.11842C7.80185 6.17093 7.84259 6.24209 7.85584 6.30196C7.86762 6.37999 7.86762 6.48109 7.87841 6.56648C7.89608 6.63912 7.91571 6.70635 7.93387 6.77555C7.94859 6.83395 7.93828 6.8899 7.95693 6.94241C7.97509 7.00081 8.00209 7.05332 8.01386 7.11565C8.02319 7.18141 8.01386 7.28104 8.02761 7.34091C8.11349 7.67414 8.13901 8.06969 8.23667 8.39114C8.24845 8.43727 8.25139 8.48537 8.26023 8.53248C8.34268 8.81075 8.40647 9.11257 8.48892 9.39034C8.49775 9.435 8.49775 9.47867 8.51002 9.52726C8.53603 9.62394 8.56303 9.73044 8.58315 9.82908C8.59345 9.87276 8.59198 9.91595 8.60278 9.95962C8.63272 10.0622 8.67002 10.1638 8.70241 10.2644C8.71418 10.312 8.72056 10.3611 8.7294 10.4101C8.73529 10.4479 8.75933 10.4926 8.76964 10.5299C8.78633 10.5898 8.78191 10.6452 8.80105 10.6987C8.81184 10.7286 8.83687 10.7645 8.8462 10.7969C8.85945 10.8567 8.86681 10.9161 8.8835 10.976C8.90607 11.0447 8.94484 11.1154 8.97478 11.1836C8.99588 11.242 8.99588 11.3019 9.01944 11.3563C9.05723 11.4555 9.09894 11.5708 9.13918 11.6763C9.16912 11.7632 9.17648 11.8496 9.20494 11.9379C9.22605 11.9948 9.25451 12.0547 9.27267 12.1106C9.28592 12.1558 9.29427 12.2004 9.30703 12.2471C9.32322 12.2888 9.36837 12.3555 9.3983 12.4095C9.42382 12.4709 9.41303 12.5528 9.43266 12.6171C9.45376 12.6858 9.49254 12.7393 9.51217 12.8007C9.53376 12.8649 9.53375 12.9302 9.54946 12.9945C9.57007 13.0441 9.60246 13.0907 9.62258 13.1354C9.64221 13.1908 9.66283 13.2433 9.68099 13.2993C9.69767 13.3326 9.72466 13.3685 9.74233 13.4043C9.77227 13.4656 9.79632 13.5339 9.82184 13.5967C9.85913 13.688 9.86061 13.7998 9.89202 13.9073C9.89643 13.9358 9.89644 14.0079 9.8773 14.0168C9.83803 14.0256 9.79042 13.9569 9.75902 13.9171C9.71092 13.8465 9.6643 13.7679 9.62848 13.684C9.61375 13.6526 9.60639 13.6227 9.59854 13.5898C9.57007 13.5211 9.54946 13.4436 9.51707 13.3704C9.49744 13.3282 9.46898 13.2806 9.45426 13.234C9.43315 13.1682 9.44199 13.0882 9.41794 13.0298C9.39438 12.9832 9.35659 12.9444 9.33058 12.8934C9.31684 12.8487 9.308 12.8036 9.28837 12.758C9.2658 12.7054 9.23292 12.6559 9.20298 12.6043C9.18139 12.5577 9.18237 12.5082 9.16569 12.4498C9.14753 12.3811 9.12544 12.3143 9.09698 12.2515C9.06557 12.1872 9.02827 12.1219 9.00128 12.0562C8.98754 12.0213 8.98165 11.9825 8.97134 11.9467C8.95318 11.8986 8.92767 11.8442 8.90705 11.7946C8.89626 11.7588 8.88742 11.721 8.87368 11.6837C8.84914 11.6307 8.82068 11.5708 8.80105 11.5124C8.78289 11.4643 8.77847 11.4133 8.76375 11.3647C8.73234 11.2808 8.70388 11.1856 8.67541 11.1046C8.65725 11.0388 8.65136 10.975 8.63222 10.9093C8.60818 10.8356 8.57382 10.7601 8.5483 10.6864C8.5272 10.6251 8.51984 10.5598 8.50168 10.4955C8.47322 10.4155 8.43298 10.3434 8.40795 10.2551C8.39028 10.1893 8.38831 10.124 8.37359 10.0583C8.3255 9.89926 8.27544 9.72504 8.2244 9.56554C8.17042 9.38494 8.16453 9.18422 8.11202 9.00067C8.07472 8.87258 8.02908 8.74547 7.98982 8.61788C7.97362 8.55359 7.97362 8.49126 7.95693 8.4255C7.92111 8.28219 7.86712 8.09374 7.82001 7.94455C7.79596 7.86603 7.80333 7.78358 7.78124 7.69966C7.7572 7.61426 7.75572 7.51169 7.72726 7.42041C7.7091 7.36496 7.68947 7.32471 7.67327 7.25404C7.6615 7.18141 7.66297 7.09749 7.65364 7.044C7.64334 6.99149 7.5496 6.67592 7.53929 6.61605C7.52703 6.55765 7.52702 6.44919 7.52114 6.41189C7.51525 6.3849 7.46863 6.24847 7.46274 6.21313C7.45537 6.17731 7.45538 6.13608 7.44163 6.06836C7.42691 5.99671 7.38716 5.84015 7.37882 5.79353C7.37293 5.75034 7.37292 5.65808 7.36409 5.61293C7.35329 5.5668 7.32336 5.46374 7.30275 5.38767C7.27723 5.29639 7.29686 5.19971 7.27134 5.11431C7.25318 5.05297 7.23208 4.99064 7.20852 4.9293C7.19478 4.87826 7.17564 4.8071 7.17269 4.77569C7.16926 4.72907 7.16631 4.62797 7.16484 4.59067C7.1619 4.53816 7.13932 4.45424 7.13491 4.38013C7.13049 4.27805 7.10644 4.1696 7.09025 4.1053C7.07945 4.06899 7.08436 4.02433 7.0765 3.98998C7.05197 3.89035 7.02595 3.79907 6.97541 3.80496C6.93811 3.81085 6.92584 3.84078 6.94105 3.90605C6.96019 3.98409 6.96805 4.04396 6.98719 4.12101C6.99651 4.16174 6.99946 4.26431 6.99946 4.29867C7.0024 4.35412 7.00682 4.36443 7.01271 4.41792C7.01712 4.43755 7.0235 4.49055 7.03086 4.51215C7.0397 4.54797 7.05196 4.59901 7.05147 4.62601C7.04853 4.65889 7.04853 4.69766 7.04853 4.74722C7.04853 4.77274 7.05148 4.78305 7.05933 4.82722C7.07111 4.87237 7.07552 4.8812 7.07847 4.91703C7.07994 4.9504 7.07699 4.98181 7.07847 5.00831C7.07994 5.04315 7.08485 5.07898 7.09368 5.11039C7.11331 5.17321 7.15797 5.26694 7.13981 5.36559C7.12067 5.46914 7.15208 5.56729 7.17613 5.65857C7.18644 5.71697 7.17466 5.78077 7.18643 5.83476C7.20901 5.91475 7.22815 5.99573 7.24778 6.07523C7.26594 6.14246 7.2522 6.20185 7.27036 6.26466C7.29588 6.35153 7.35477 6.47079 7.36458 6.50956C7.37047 6.55127 7.369 6.6558 7.37931 6.72451C7.39158 6.79322 7.40924 6.8683 7.41513 6.91247C7.41759 6.95615 7.41219 6.97529 7.4166 7.0067C7.42151 7.03811 7.4647 7.19319 7.47206 7.23245C7.47991 7.27269 7.47648 7.29085 7.48433 7.33208C7.49316 7.37526 7.52752 7.5382 7.53439 7.59218C7.54371 7.64518 7.54077 7.67512 7.5496 7.7291C7.5658 7.81008 7.59917 7.87977 7.61831 7.9578C7.62862 8.01522 7.6242 8.0535 7.63058 8.09767C7.64824 8.17275 7.67082 8.23704 7.688 8.30968C7.69438 8.36072 7.69732 8.41617 7.70763 8.47065C7.73167 8.59039 7.74934 8.70965 7.78124 8.82498C7.80185 8.89368 7.84161 8.95699 7.86271 9.02521C7.8794 9.08655 7.88528 9.1533 7.90148 9.21023C7.91669 9.26568 7.95546 9.31427 7.96626 9.36825C7.97657 9.41782 7.97656 9.46788 7.98245 9.51597C7.9962 9.57143 8.01975 9.62541 8.03202 9.68283C8.03938 9.72504 8.03644 9.76823 8.04675 9.81338C8.06196 9.86196 8.08453 9.9076 8.09926 9.95619C8.11103 10.0161 8.11103 10.0769 8.12478 10.1368C8.14392 10.2075 8.17385 10.2762 8.19495 10.3414C8.21458 10.4028 8.20526 10.4695 8.22195 10.5358C8.26219 10.6786 8.31176 10.8351 8.3574 10.9701C8.3785 11.0418 8.37555 11.1149 8.40107 11.1939C8.41923 11.2464 8.44426 11.2808 8.46242 11.3259C8.48058 11.372 8.46389 11.4241 8.48058 11.4766C8.50266 11.5639 8.5164 11.6793 8.54929 11.7642C8.57922 11.8608 8.63762 11.9389 8.67149 12.0331C8.70437 12.1288 8.70584 12.227 8.73872 12.329C8.7716 12.4164 8.81381 12.4959 8.84669 12.5739C8.87515 12.6456 8.86583 12.7364 8.89135 12.811C8.92128 12.8919 8.97969 12.9533 9.01109 13.0352C9.04398 13.1309 9.06655 13.2232 9.09796 13.3204C9.10679 13.3596 9.11563 13.3999 9.12201 13.4401C9.15636 13.5608 9.2231 13.6624 9.26629 13.7802C9.28298 13.8327 9.2874 13.8808 9.30261 13.9309C9.33107 14.0148 9.36543 14.1026 9.40518 14.1822C9.43806 14.2523 9.48321 14.325 9.51461 14.3986C9.54455 14.4629 9.55191 14.5311 9.58038 14.6013C9.60737 14.6675 9.64026 14.7406 9.66872 14.8118C9.68197 14.854 9.68344 14.8928 9.7016 14.9315C9.78454 15.1166 9.88809 15.307 9.97201 15.4876C10.0181 15.5857 10.0392 15.6947 10.0878 15.7953C10.1241 15.8738 10.1703 15.9504 10.2061 16.0372C10.2272 16.0902 10.2346 16.1428 10.2571 16.1938C10.3052 16.2934 10.3695 16.395 10.4137 16.4941C10.4274 16.5162 10.4588 16.6208 10.4466 16.6654C10.4451 16.6703 10.4436 16.6762 10.4377 16.6792C10.4063 16.6895 10.344 16.6355 10.3082 16.6011C10.1899 16.4829 10.1718 16.265 10.0883 16.1143C10.0648 16.0726 10.0368 16.023 10.0172 15.9788C10.0024 15.946 9.99606 15.916 9.98133 15.8831C9.93029 15.7869 9.86453 15.6996 9.81889 15.5946C9.78748 15.5219 9.78258 15.4351 9.75117 15.3634C9.61424 15.0734 9.45916 14.7927 9.32715 14.4997C9.26728 14.3672 9.25697 14.2131 9.20347 14.0712C9.17206 13.9858 9.12201 13.9147 9.08667 13.8352C9.05674 13.7724 9.04938 13.7041 9.02238 13.6413C8.98361 13.5574 8.92963 13.4794 8.89871 13.3891C8.87663 13.3307 8.87024 13.2708 8.84865 13.2114C8.82019 13.1486 8.77798 13.0946 8.74952 13.0323C8.70928 12.944 8.70093 12.8517 8.67247 12.7467C8.65725 12.6897 8.63321 12.6308 8.61407 12.5783C8.59885 12.5302 8.59444 12.4787 8.57677 12.4321C8.53751 12.3226 8.47175 12.226 8.43052 12.1136C8.40206 12.038 8.40647 11.9408 8.37654 11.8687C8.34807 11.8073 8.29998 11.7573 8.27838 11.6945C8.24845 11.6282 8.27544 11.5482 8.25287 11.4702C8.23324 11.3946 8.2033 11.3244 8.17778 11.2552C8.16158 11.2106 8.15864 11.1669 8.14637 11.1227C8.11496 11.0344 8.08208 10.9436 8.04675 10.8538C8.03202 10.8057 8.03202 10.7625 8.01092 10.7213C7.98687 10.6673 7.94663 10.6177 7.92847 10.5579C7.90491 10.471 7.90001 10.3802 7.87694 10.2929C7.8421 10.176 7.80038 10.0853 7.76455 9.9714C7.75867 9.93558 7.75867 9.90122 7.74934 9.86343C7.72333 9.76381 7.70616 9.6529 7.68064 9.55425C7.66738 9.50567 7.67033 9.46591 7.65806 9.41733C7.63205 9.32457 7.60113 9.23084 7.5712 9.14103C7.555 9.0841 7.55205 9.02423 7.53979 8.96926C7.49218 8.82301 7.45096 8.65076 7.40875 8.50942C7.3955 8.46721 7.40139 8.43139 7.38912 8.3828C7.3533 8.27336 7.30765 8.13791 7.28213 8.02258C7.27036 7.95534 7.26888 7.89204 7.25367 7.82971C7.23747 7.75119 7.20901 7.6761 7.19527 7.59709C7.18938 7.56273 7.19527 7.53427 7.1938 7.50286C7.18202 7.45329 7.17907 7.4052 7.17122 7.3522C7.11822 7.15196 7.04019 6.90266 6.997 6.69948C6.98326 6.62685 6.98032 6.55323 6.97295 6.48011C6.96412 6.43201 6.96216 6.37067 6.94449 6.31619C6.93222 6.26663 6.90572 6.2097 6.89934 6.15571C6.88756 6.06885 6.88609 5.98444 6.8748 5.89905C6.87333 5.89168 6.87284 5.88678 6.86989 5.88089C6.8537 5.77685 6.79971 5.56484 6.78843 5.48092C6.77616 5.37982 6.76291 5.27774 6.75064 5.18057C6.74916 5.11333 6.73739 5.04806 6.72708 4.97935C6.71481 4.87286 6.68929 4.78207 6.67752 4.6741C6.66721 4.60147 6.6731 4.53718 6.66279 4.47583C6.65935 4.43706 6.65789 4.37081 6.60881 4.37081C6.56219 4.37081 6.56807 4.42921 6.5666 4.47289C6.55777 4.58135 6.58034 4.72514 6.58623 4.79041C6.59605 4.91457 6.58378 5.03432 6.59752 5.16339ZM16.3397 19.1595C16.4197 19.2238 16.4854 19.3116 16.5232 19.4628C16.5262 19.479 16.5095 19.4873 16.5006 19.4888C16.3941 19.501 16.2764 19.346 16.2229 19.2753C16.2091 19.2532 16.1493 19.131 16.1659 19.1129C16.188 19.0932 16.3088 19.1354 16.3397 19.1595ZM13.133 16.8853C13.2326 16.8926 13.3283 17.0644 13.375 17.1302C13.4108 17.1788 13.4535 17.2283 13.4859 17.2779C13.532 17.3505 13.5516 17.4403 13.6017 17.509C13.666 17.593 13.7396 17.6725 13.8049 17.7554C13.8422 17.8006 13.8873 17.8408 13.9089 17.9016C13.9197 17.9331 13.9496 18.0494 13.9285 18.0611C13.8559 18.0881 13.6778 17.8855 13.6282 17.8133C13.5369 17.6749 13.4461 17.5198 13.349 17.3849C13.2577 17.2651 13.158 17.1802 13.1369 16.9697C13.133 16.9466 13.1193 16.8838 13.133 16.8853ZM12.9269 17.617C13.0349 17.617 13.1463 17.7839 13.1855 17.8604C13.1988 17.884 13.2258 17.9458 13.2228 17.9915C13.2199 18.0199 13.212 18.0332 13.1929 18.0332C13.1389 18.0288 13.1149 17.9944 13.082 17.9704C12.9892 17.9016 12.9151 17.7961 12.9107 17.6401C12.9107 17.6214 12.9181 17.617 12.9269 17.617ZM10.291 15.1902C10.2679 15.1514 10.2434 15.1033 10.2282 15.0606C10.2076 15.0111 10.2066 14.9659 10.1865 14.9212C10.1178 14.7662 10.0432 14.5983 9.97152 14.4477C9.94305 14.3848 9.90428 14.2671 9.92931 14.1851C9.93569 14.1743 9.95925 14.1822 9.96857 14.1925C9.99164 14.2121 10.0088 14.2283 10.0255 14.2494C10.0432 14.2705 10.0471 14.2955 10.0613 14.3166C10.0942 14.3691 10.1384 14.4216 10.1654 14.482C10.2238 14.6037 10.2375 14.7421 10.2949 14.8633C10.3298 14.9428 10.3955 15.0111 10.4343 15.095C10.4525 15.1367 10.4657 15.1818 10.4795 15.229C10.4868 15.2633 10.4839 15.3129 10.4868 15.3384C10.4927 15.3801 10.4839 15.4086 10.4687 15.4086C10.3631 15.4007 10.3303 15.2702 10.291 15.1902ZM9.85668 16.9265C9.86257 16.9147 9.86698 16.9098 9.87336 16.9113C9.96317 16.925 10.0505 17.1415 10.0927 17.221C10.1403 17.3054 10.2179 17.3731 10.2611 17.4629C10.2974 17.54 10.3077 17.6406 10.3538 17.7181C10.3838 17.778 10.4407 17.8246 10.476 17.882C10.5271 17.9542 10.557 18.0499 10.5958 18.1318C10.6365 18.2231 10.6993 18.2957 10.7351 18.3841C10.7499 18.4228 10.7577 18.4866 10.7455 18.5279C10.7425 18.5411 10.7322 18.5563 10.7155 18.5563C10.6002 18.5519 10.5649 18.3787 10.5128 18.3006C10.4692 18.2334 10.4348 18.1622 10.3916 18.0945C10.3602 18.0484 10.3224 18.0003 10.2969 17.9488C10.264 17.881 10.2508 17.8109 10.2125 17.75C10.1914 17.7171 10.1585 17.6901 10.1359 17.6587C10.0731 17.5748 10.0137 17.484 9.97348 17.3765C9.96318 17.3378 9.95238 17.3 9.94502 17.2612C9.92097 17.194 9.88956 17.1258 9.86993 17.0595C9.85668 17.0237 9.85079 16.9505 9.85668 16.9265Z" fill="#B70031"/>
</svg>
