<svg width="40" height="40" viewBox="0 0 40 40" fill="none" xmlns="http://www.w3.org/2000/svg">
<g clip-path="url(#clip0_1_9889)">
<path fill-rule="evenodd" clip-rule="evenodd" d="M8 19.5702L32.8915 34.9998C33.4477 31.2657 29.9713 29.0816 29.9713 28.7293C29.9017 28.3066 32.7525 27.2498 32.961 24.4316C33.3087 19.7112 26.8425 19.4293 26.6339 22.9521C26.4948 24.7839 28.5807 24.8543 28.6502 23.4452C28.7197 21.6134 30.6666 21.9657 30.9447 24.0089C31.2228 26.0521 28.8588 26.968 27.8854 26.8975C26.3557 26.8271 24.4089 25.6293 24.2003 23.7975C23.9222 21.3316 26.7729 20.9793 23.1574 21.2612C21.6973 21.4021 20.6543 20.6271 20.0286 19.4293C20.8629 18.3021 21.7668 17.5271 23.1574 17.5975C26.7729 17.8793 23.9918 17.5975 24.2003 15.0612C24.4089 13.2293 26.3557 12.0316 27.8854 11.9612C28.8588 11.9612 31.2923 12.8066 30.9447 14.9202C30.6666 17.0339 28.7197 17.3862 28.6502 15.4839C28.5807 14.0748 26.4948 14.1452 26.6339 15.9771C26.8425 19.5702 33.3087 19.218 32.961 14.4975C32.7525 11.6793 30.0408 10.6225 29.9713 10.1998C29.9713 9.98842 33.4477 7.52252 32.8915 3.85888" fill="#B9966E"/>
</g>
<defs>
<clipPath id="clip0_1_9889">
<rect width="24.961" height="31" fill="white" transform="translate(8 4)"/>
</clipPath>
</defs>
</svg>
