<svg width="40" height="40" viewBox="0 0 40 40" fill="none" xmlns="http://www.w3.org/2000/svg">
<g clip-path="url(#clip0_124_804)">
<path d="M-60.452 3.54688H35.1035V37.0928H-60.452V3.54688ZM-58.1759 5.80541C-58.1759 15.3476 -58.1759 24.8904 -58.1759 34.4322C-55.9087 34.431 -53.6418 34.4373 -51.3742 34.4291C-50.1069 34.4212 -48.8334 34.3563 -47.5883 34.1083C-46.0002 33.7964 -44.414 33.1723 -43.2549 32.0146C-42.192 30.9729 -41.597 29.5365 -41.4024 28.0814C-41.1766 26.3837 -41.296 24.5791 -42.0961 23.0339C-42.6026 22.0447 -43.3836 21.204 -44.3124 20.5897C-45.3342 19.9048 -46.5181 19.4958 -47.7228 19.2643C-47.6766 19.2216 -47.6256 19.1852 -47.5613 19.1782C-46.098 18.8815 -44.7707 18.0075 -43.8942 16.8106C-43.1163 15.7572 -42.7141 14.46 -42.6484 13.1624C-42.6016 12.1467 -42.6943 11.113 -43.0192 10.145C-43.281 9.36277 -43.7113 8.63396 -44.2939 8.04402C-45.2338 7.0843 -46.5102 6.52536 -47.8046 6.21632C-49.1898 5.88291 -50.6216 5.81395 -52.0409 5.8051C-54.0861 5.80541 -56.131 5.80541 -58.1759 5.80541ZM-37.4989 34.4325C-36.4689 34.4332 -35.4378 34.4325 -34.4074 34.4325C-34.4074 24.8904 -34.4074 15.3476 -34.4074 5.80541C-35.4378 5.80541 -36.4685 5.80541 -37.4989 5.80541C-37.4989 15.3476 -37.4989 24.8904 -37.4989 34.4325ZM11.6507 5.80541C11.6504 7.80172 11.6504 9.79708 11.6507 11.7934C13.6612 11.7934 15.6726 11.794 17.6837 11.7934C17.6837 9.7974 17.6837 7.80172 17.6837 5.80605C15.6726 5.80478 13.6618 5.80541 11.6507 5.80541ZM19.261 11.7924C21.2722 11.7937 23.2839 11.7931 25.2947 11.7931C25.2954 9.79708 25.2947 7.8014 25.2954 5.80636C23.2839 5.80352 21.2728 5.80573 19.2614 5.8051C19.2601 7.8014 19.261 9.79708 19.261 11.7924ZM19.261 13.3282C19.2614 15.3242 19.2601 17.3195 19.2614 19.3152C21.2722 19.3152 23.2833 19.3152 25.2941 19.3152C25.2963 17.3195 25.2941 15.3235 25.2954 13.3275C23.2839 13.3275 21.2722 13.3275 19.261 13.3282ZM-6.31503 14.8943C-7.32028 15.3352 -8.20639 16.0368 -8.86382 16.9118C-9.74134 18.0657 -10.2354 19.4632 -10.4981 20.874C-10.7749 22.3883 -10.8167 23.9386 -10.6998 25.4711C-10.537 27.4722 -10.0121 29.4963 -8.85649 31.1681C-7.96018 32.4821 -6.65903 33.5133 -5.17665 34.1064C-3.32414 34.8627 -1.27193 34.9731 0.703522 34.7966C1.82248 34.6989 2.9064 34.3949 3.9865 34.1036C3.98586 33.5067 3.98649 32.9107 3.98586 32.3138C3.20899 32.516 2.43595 32.7551 1.63232 32.8335C0.640457 32.9319 -0.37307 32.9392 -1.34901 32.7174C-2.18703 32.5308 -2.98747 32.1756 -3.6777 31.6685C-4.92629 30.7566 -5.77259 29.4018 -6.31694 27.9802C-7.01864 26.1275 -7.28524 24.1363 -7.29543 22.164C-3.41014 22.1634 0.475147 22.164 4.36044 22.1634C4.36713 21.0056 4.2636 19.8365 3.92534 18.7243C3.55045 17.4688 2.83919 16.2814 1.77247 15.489C1.13799 15.011 0.398701 14.6786 -0.370838 14.4793C-1.34296 14.2259 -2.35648 14.1693 -3.35663 14.2234C-4.37048 14.28 -5.38464 14.4805 -6.31503 14.8943ZM-29.4357 14.6782C-29.436 19.3342 -29.4357 23.9908 -29.436 28.6473C-29.4465 29.7889 -29.2108 30.9343 -28.7371 31.976C-28.3858 32.7428 -27.8896 33.4576 -27.2245 33.9881C-26.7088 34.4015 -26.089 34.6875 -25.4351 34.8017C-24.9296 34.8944 -24.4123 34.8697 -23.9014 34.8504C-22.9544 34.8045 -21.9893 34.6663 -21.1284 34.2494C-20.4687 33.9343 -19.9037 33.4475 -19.444 32.8848C-18.6634 31.926 -18.1139 30.8094 -17.5769 29.7054C-17.5571 29.645 -17.5017 29.6159 -17.4498 29.5868C-17.4431 31.2016 -17.4488 32.8174 -17.4469 34.4316C-16.4446 34.4316 -15.4419 34.4322 -14.4398 34.4316C-14.4398 27.8477 -14.4398 21.2622 -14.4398 14.6773C-15.4702 14.6773 -16.5009 14.6773 -17.531 14.6773C-17.5313 17.4828 -17.531 20.2879 -17.5313 23.0934C-17.531 24.0645 -17.6259 25.0359 -17.805 25.9896C-18.0665 27.3533 -18.4853 28.7036 -19.1902 29.9091C-19.6441 30.6759 -20.2327 31.3902 -21.0083 31.8529C-21.6428 32.2379 -22.4037 32.4097 -23.144 32.3312C-23.8437 32.2714 -24.5165 31.952 -25.0016 31.4458C-25.6638 30.7626 -26.0173 29.8449 -26.1992 28.9282C-26.3913 28.0245 -26.3377 27.097 -26.3451 26.1797C-26.3451 22.3456 -26.3451 18.5117 -26.3451 14.6782C-27.3748 14.6782 -28.4056 14.6782 -29.4357 14.6782ZM19.261 20.8851C19.2604 22.8808 19.261 24.8761 19.261 26.8725C21.2722 26.8725 23.2833 26.8725 25.2947 26.8725C25.2954 24.8761 25.2954 22.8808 25.2947 20.8851C23.2833 20.8845 21.2722 20.8845 19.261 20.8851ZM11.6507 28.4417C11.6497 30.4383 11.6504 32.4353 11.6504 34.4322C13.6612 34.4335 15.6726 34.4335 17.6837 34.4322C17.6837 32.4359 17.6844 30.4387 17.6837 28.4417C15.6726 28.4411 13.6618 28.4417 11.6507 28.4417ZM19.261 34.4319C21.2722 34.4332 23.2839 34.4332 25.2947 34.4325C25.2947 32.4353 25.2954 30.439 25.2947 28.4417C23.2839 28.4411 21.2722 28.4417 19.2614 28.4417C19.2601 30.4377 19.261 32.4353 19.261 34.4319ZM26.8074 34.4325C28.8179 34.4332 30.8296 34.4332 32.8408 34.4325C32.8401 32.4353 32.8417 30.439 32.8392 28.4417C30.8287 28.4417 28.8185 28.4417 26.8077 28.4417C26.8064 30.439 26.8077 32.4353 26.8074 34.4325Z" fill="#267FD9"/>
<path d="M11.6506 5.80289C13.6611 5.80289 15.6725 5.80226 17.6836 5.80353C17.6836 7.7992 17.6836 9.79456 17.6836 11.7902C15.6725 11.7915 13.6611 11.7909 11.6506 11.7909C11.6502 9.79456 11.6502 7.79888 11.6506 5.80289Z" fill="#A3A4A5"/>
<path d="M19.261 11.7903C19.261 9.79463 19.26 7.79927 19.2613 5.80296C21.2727 5.8036 23.2839 5.80138 25.2953 5.80423C25.2947 7.7999 25.2953 9.79495 25.2947 11.7909C23.2838 11.7909 21.2721 11.7916 19.261 11.7903Z" fill="#A3A4A5"/>
<path d="M19.2611 13.325C21.2722 13.324 23.284 13.324 25.2955 13.3247C25.2942 15.3203 25.2964 17.3166 25.2942 19.3126C23.2834 19.3126 21.2723 19.3126 19.2614 19.3126C19.2602 17.3166 19.2614 15.3207 19.2611 13.325Z" fill="#A3A4A5"/>
<path d="M19.261 20.8794C21.2722 20.8787 23.2833 20.8787 25.2947 20.8794C25.2954 22.8751 25.2954 24.8704 25.2947 26.8667C23.2833 26.8667 21.2722 26.8667 19.261 26.8667C19.261 24.8704 19.2604 22.8751 19.261 20.8794Z" fill="#A3A4A5"/>
<path d="M11.6506 28.4377C13.6611 28.4377 15.6725 28.437 17.6837 28.4383C17.6843 30.4349 17.6837 32.4319 17.6837 34.4288C15.6725 34.4294 13.6611 34.4294 11.6503 34.4288C11.6503 32.4312 11.6497 30.4349 11.6506 28.4377Z" fill="#A3A4A5"/>
<path d="M19.261 34.4283C19.261 32.4317 19.26 30.4341 19.2613 28.4378C21.2721 28.4378 23.2838 28.4371 25.2947 28.4378C25.2953 30.4344 25.2947 32.4313 25.2947 34.4286C23.2838 34.4296 21.2721 34.4296 19.261 34.4283Z" fill="#A3A4A5"/>
<path d="M26.8073 34.4283C26.8076 32.4311 26.8064 30.4348 26.8083 28.4375C28.8188 28.4375 30.8292 28.4375 32.8397 28.4375C32.8423 30.4348 32.8404 32.4311 32.8413 34.4283C30.8296 34.429 28.8184 34.429 26.8073 34.4283Z" fill="#A3A4A5"/>
</g>
<defs>
<clipPath id="clip0_124_804">
<rect width="30" height="32" fill="white" transform="translate(5.10345 4.11133)"/>
</clipPath>
</defs>
</svg>
