<svg width="40" height="40" viewBox="0 0 40 40" fill="none" xmlns="http://www.w3.org/2000/svg">
<g clip-path="url(#clip0_20_12041)">
<path d="M18.9884 16.0785H21.0116V14.0225H23.0349V12.056H21.0116V10H18.9884V12.056H16.9651V14.1119H18.9884V16.0785ZM31.9197 15.5422C29.9844 15.5422 28.4009 17.1512 28.4009 19.1177C28.4009 21.0843 29.9844 22.6933 31.9197 22.6933C33.855 22.6933 35.4384 21.0843 35.4384 19.1177C35.4384 17.1512 33.855 15.5422 31.9197 15.5422ZM8.08032 27.7885H32.0076V23.766H8.08032V27.7885ZM11.5111 19.1177C11.5111 17.1512 9.92765 15.5422 7.99235 15.5422C6.05706 15.5422 4.47363 17.1512 4.47363 19.1177C4.47363 21.0843 6.05706 22.6933 7.99235 22.6933C9.92765 22.6933 11.5111 21.0843 11.5111 19.1177ZM20.4838 19.1177C20.4838 21.0843 22.0672 22.6933 24.0025 22.6933C25.9378 22.6933 27.5213 21.0843 27.5213 19.1177C27.5213 17.1512 25.9378 15.5422 24.0025 15.5422C22.0672 15.5422 20.4838 17.1512 20.4838 19.1177ZM15.9974 22.6933C17.9327 22.6933 19.5162 21.0843 19.5162 19.1177C19.5162 17.1512 17.9327 15.5422 15.9974 15.5422C14.0622 15.5422 12.4787 17.1512 12.4787 19.1177C12.5667 21.0843 14.0622 22.6933 15.9974 22.6933ZM41.948 31.8111L38.9571 40.9288L35.9662 31.8111H25.9378V48.08H31.9197V35.923L35.8782 48.08H41.8601L45.9066 35.923V48.08H51.8884V31.8111H41.948ZM14.0622 31.8111H8.08032V48.08H24.0025V43.9681H14.0622V31.8111ZM6.05705 31.8111H0.0752296L-5.9066 37.8896V31.8111H-11.8884V48.08H-5.9066V42.0015L0.0752296 48.08H8.08032L-0.89242 38.9623L6.05705 31.8111Z" fill="#00A1DE"/>
</g>
<defs>
<clipPath id="clip0_20_12041">
<rect width="34" height="19.04" fill="white" transform="translate(3 10)"/>
</clipPath>
</defs>
</svg>
