<svg width="40" height="40" viewBox="0 0 40 40" fill="none" xmlns="http://www.w3.org/2000/svg">
<path d="M27.023 6.77729C27.023 6.77729 22.2948 3.80089 16.0785 5.55159C16.0785 5.55159 7.71367 7.95879 4.82353 14.6996C4.82353 14.6996 0.931855 20.9607 4.51897 27.8777C4.51897 27.8777 6.66901 32.7225 12.3998 34.0952C12.3998 34.0952 19.7279 36.0668 25.0987 31.9994C25.0987 31.9994 33.2079 27.7207 33.414 18.6845C33.414 18.6845 34.1999 10.7169 27.023 6.77729ZM30.9599 22.5362C29.4722 26.5637 22.8198 31.0299 22.8198 31.0299C10.9121 36.9837 6.26487 28.3516 6.26487 28.3516C3.6399 22.7476 6.85163 17.4039 6.85163 17.4039C9.91642 11.3622 15.7265 8.96619 15.7265 8.96619C23.8693 5.46426 28.5106 9.40439 28.5106 9.40439C35.0773 14.3077 30.9599 22.5362 30.9599 22.5362Z" fill="#EC2227"/>
<path d="M13.9694 13.9339C13.9694 13.9339 10.771 21.4127 10.7262 21.8637C10.7262 21.8637 9.59798 25.3779 10.1395 28.8021L15.8074 28.9687C15.8074 28.9687 14.2394 28.2153 15.2297 24.2054C15.2297 24.2054 15.9065 21.8174 16.4016 21.6374C16.4016 21.6374 16.5363 21.4127 16.6274 21.8174C16.6274 21.8174 17.7519 25.8715 20.773 28.9368C20.773 28.9368 22.6627 31.5495 27.3488 33.3508C27.3488 33.3508 31.4492 34.4338 33.8825 32.4073C33.8825 32.4073 35.9553 31.1459 35.999 27.4938C35.999 27.4938 36.0341 27.1238 35.6848 27.4054C35.6848 27.4054 34.1519 29.1162 30.2336 28.8021C30.2336 28.8021 29.0633 29.0268 25.8201 26.5498L18.9254 20.8734C18.9254 20.8734 18.6108 20.6476 19.0602 20.6013C19.0602 20.6013 23.0695 19.8809 24.2425 18.9342C24.2425 18.9342 27.8488 17.1622 28.3408 14.5207C28.3408 14.5207 29.0878 11.6258 27.935 9.92511C27.935 9.92511 27.5304 9.6541 27.3957 9.96984C27.3957 9.96984 25.334 12.0964 23.5556 13.2375L18.2482 16.6824C18.2482 16.6824 17.8408 16.9529 18.1592 16.3225L19.6906 12.2674C19.6906 12.2674 20.5468 10.8707 18.2045 11.0512C18.2045 11.0512 14.6738 11.4075 12.7224 13.8125C12.7224 13.8125 12.5712 13.8892 12.8422 13.9792L13.9694 13.9339Z" fill="#EC2227"/>
</svg>
