<svg width="40" height="40" viewBox="0 0 40 40" fill="none" xmlns="http://www.w3.org/2000/svg">
<path d="M3 14.0642C6.39561 15.8652 15.2508 22.4283 24.6689 25.0962C25.1215 25.2241 25.5706 25.342 26.0132 25.4497C30.6165 26.5699 34.5867 26.6018 37.3203 26.3783C23.581 24.0584 19.2341 20.1504 18.6105 19.3053C18.5397 19.2107 18.5073 19.1576 18.5073 19.1576C18.4669 19.1399 20.7347 16.9414 25.1069 16.9981C30.569 17.0679 34.2691 18.7333 34.2691 18.7333C32.3588 17.5858 30.4178 16.8378 28.772 16.3533C27.8789 16.0802 26.9979 15.8738 26.1351 15.7221C25.0937 15.5304 24.4534 15.4839 24.4534 15.4839C21.6288 15.1865 19.5224 15.804 17.7659 16.421C16.1227 16.9971 13.9996 18.0834 11.1856 16.8752C9.97683 16.3568 9.13172 16.1848 7.74141 16.3401C5.54898 15.4308 3.89517 14.355 3.07131 14L3 14.0642Z" fill="url(#paint0_radial_20_12049)"/>
<defs>
<radialGradient id="paint0_radial_20_12049" cx="0" cy="0" r="1" gradientUnits="userSpaceOnUse" gradientTransform="translate(27.953 21.5062) scale(14.5872 14.5872)">
<stop stop-color="#00AEEF"/>
<stop offset="0.47582" stop-color="#00AEEF"/>
<stop offset="0.79884" stop-color="#0B4379"/>
<stop offset="1" stop-color="#1E285A"/>
</radialGradient>
</defs>
</svg>
