<svg width="40" height="40" viewBox="0 0 40 40" fill="none" xmlns="http://www.w3.org/2000/svg">
<path d="M13.4284 16.5391L8.8273 22.3888C8.8273 22.3888 7.79993 23.6284 10.1193 25.117L11.9444 22.7652L12.332 23.0466L10.5807 25.4856L12.3091 26.7322L10.9904 28.4068C10.9904 28.4068 10.2876 29.3443 11.1104 30.337L11.1225 30.3845L8.59679 33.8409C8.59679 33.8409 8.39175 34.1102 8.36671 34.2233C8.34297 34.3373 8.31923 34.4391 8.36671 34.4788C8.41549 34.5125 8.52556 34.5634 8.74355 34.3528C8.95766 34.1335 11.8265 31.3125 11.8265 31.3125C11.8265 31.3125 11.9318 31.0958 12.2828 31.2736C12.6329 31.4515 12.9618 31.6578 13.7103 31.0492C14.4575 30.438 15.9459 28.2748 15.9459 28.2748L16.0655 28.2912L16.2736 31.189L20.225 31.2011L25.4961 35.1703L26.2317 35.1332L17.6575 28.3922L17.9562 28.0823L19.8862 29.5739L18.2299 16.5624L13.4284 16.5391Z" fill="#18468B"/>
<path d="M14.2555 9.86514C12.5245 9.84442 11.5083 10.0037 11.5083 10.0037C10.3131 10.1604 9.88786 10.4979 9.88786 10.4979C8.55272 11.3283 8.70207 13.363 8.70207 13.363L10.026 13.3237L10.0459 13.5408C10.1369 14.4006 10.9748 14.3907 10.9748 14.3907C12.5275 14.2504 12.9316 14.4696 12.9316 14.4696C13.4815 14.5771 13.4845 15.0623 13.4845 15.0623L18.1884 15.023C18.1884 15.023 17.9423 11.4509 17.4174 10.6757C16.984 10.0464 16.2118 9.94456 16.2118 9.94456C15.4879 9.88629 14.8326 9.87205 14.2555 9.86514ZM18.9196 16.8608L19.1963 18.9356L21.4691 18.9947L21.8645 17.7892C21.8645 17.7892 20.5574 16.8733 18.9196 16.8608ZM22.3782 18.1056L21.9827 19.2912L23.2872 20.8127L24.7692 20.773C24.7692 20.773 24.1053 18.9585 22.3782 18.1056ZM19.2555 19.5088L19.7299 22.7692L22.0026 22.8875L22.872 21.0894L21.4691 19.5282L19.2555 19.5088ZM24.8684 21.2672L23.3861 21.3263L22.5953 23.0455L23.7616 24.3692H25.4016C25.6351 22.521 24.8684 21.2672 24.8684 21.2672ZM19.8089 23.3226L20.2634 26.4643L22.3782 26.4246L23.4452 24.6463L22.2992 23.4015L19.8089 23.3226ZM14.0776 24.4089L12.2396 26.6818C13.6153 27.6996 14.4135 26.504 14.4135 26.504C15.2785 25.4612 14.0776 24.4089 14.0776 24.4089ZM23.7616 24.9226L22.7537 26.5239L24.0379 27.7091C24.9392 26.7164 25.2634 24.9226 25.2634 24.9226H23.8009H23.7616ZM22.3976 26.9581L20.323 27.0176L20.7572 30.0804C22.2715 29.6911 23.6628 28.2236 23.6628 28.2236L22.3976 26.9581Z" fill="#419629"/>
<path d="M14.1767 5.67646C10.4493 5.75027 7.79321 8.32444 7.79321 8.32444L10.1057 10.5576C11.149 9.85797 15.5602 10.1821 15.5602 10.1821C17.1686 10.1221 17.3188 11.0121 17.3188 11.0121C17.678 11.8041 18.0306 15.0037 18.0306 15.0037L13.3069 15.0236C12.9879 15.8346 13.4256 16.545 13.4256 16.545L20.1057 16.5847H20.2041C20.4225 16.5593 20.8654 16.1963 21.0739 16.1104C21.5168 15.9282 21.9562 15.6511 22.2398 15.2407C22.3041 15.1427 22.3529 15.0473 22.4375 14.964C22.7125 14.6873 23.1096 14.5484 23.4852 14.5294C24.0343 14.497 24.5592 14.7482 25.1057 14.7862C25.5563 14.8181 26.026 14.7612 26.4296 14.5294C26.8423 14.2907 27.16 13.904 27.3982 13.4624C27.5165 13.2324 27.5765 12.9557 27.7341 12.7511C27.8265 12.629 27.9357 12.5185 28.0699 12.4546C28.2978 12.3501 28.5603 12.354 28.8012 12.4149C29.1426 12.6182 29.5065 12.777 29.8881 12.8301C30.1734 12.8685 30.4605 12.8417 30.7182 12.7114C30.8503 12.6436 30.9815 12.5318 31.0739 12.4149C31.206 12.2556 31.2608 12.0458 31.3113 11.8417L31.6471 9.70777C31.6786 9.50707 31.7469 9.32536 31.8051 9.13458C31.8785 8.89547 31.9161 8.64858 32.0227 8.42328C32.2282 8.00374 32.501 7.63039 32.7932 7.27733V7.21777C32.6331 7.17763 32.4651 7.19403 32.2994 7.19834C31.7689 7.21777 31.2371 7.30495 30.7182 7.41545C29.6938 7.64636 28.7032 8.06547 27.8726 8.75951C27.7293 8.87863 27.5934 9.02409 27.4574 9.15444L27.2994 9.27313C26.6368 9.43413 26.032 9.83682 25.6193 10.4191C25.5183 10.5568 25.4203 10.7005 25.3426 10.8541C25.2969 10.9409 25.2809 11.0328 25.2438 11.1308C25.1704 11.3203 25.0802 11.5085 25.0068 11.7036C24.9166 11.9241 24.7491 12.1227 24.5523 12.2371C24.3705 12.3385 24.1426 12.37 23.9393 12.3955C23.4157 12.4688 22.8921 12.4576 22.3585 12.4149C21.8306 12.4567 21.2876 12.6087 20.8369 12.9289C20.6716 13.0498 20.5213 13.2009 20.3824 13.3636C20.1428 13.6385 19.9934 13.9903 19.7102 14.2134C18.7545 14.9666 18.6212 15.0244 18.3863 15.0037L18.3466 14.6282L22.3387 10.4588L22.2597 10.4389C21.3156 11.1403 21.0147 9.84632 21.0147 9.84632C20.6219 8.35249 19.2756 7.27733 19.2756 7.27733C17.3451 5.50381 14.1767 5.67646 14.1767 5.67646ZM13.9 17.3552L14.2164 17.8295L17.3982 17.8692L17.6352 17.3949L13.9 17.3552ZM14.5523 18.3039L14.8682 18.7385L16.7261 18.7782L17.0227 18.3039H14.5523ZM15.1255 19.193L15.3625 19.5685H16.2517L16.4494 19.193H15.1255ZM15.7182 20.2798C14.2596 20.2095 13.663 21.2087 13.663 21.2087C12.9395 22.4884 13.7023 23.422 13.7023 23.422L15.7182 20.2798ZM15.9159 20.2798L18.1096 23.6391C18.1096 23.6391 18.7459 22.655 17.9512 21.3865C17.9512 21.3865 17.2502 20.3169 15.9159 20.2798ZM16.4891 31.741C16.383 31.741 16.3441 31.8791 16.3109 31.9784L16.2914 34.7641L16.3109 34.8435V34.8633L16.3704 34.903L18.1295 34.922C18.2124 34.922 18.2793 34.8581 18.3073 34.7839C18.2793 34.5267 18.2914 34.2711 18.3665 34.0139H18.4057C18.7459 34.4965 19.2816 34.7718 19.829 34.922L22.3585 34.9617L22.4574 34.903L22.4967 34.7451C22.5243 34.4498 22.5394 34.1304 22.5165 33.8352C22.5523 33.742 22.485 33.6729 22.3978 33.6384C22.2826 33.597 22.1569 33.6444 22.0421 33.6384C21.7033 33.6082 21.3584 33.5046 21.0739 33.3017C20.7622 33.0833 20.492 32.7812 20.3625 32.4126C20.2934 32.2417 20.2753 32.0639 20.2438 31.8791L20.1648 31.8006L16.4891 31.741Z" fill="#C4122E"/>
<path d="M13.9391 9.6543C12.3899 9.6543 11.4976 9.79155 11.4886 9.79241C10.2618 9.95211 9.79687 10.3229 9.76924 10.3457C9.19426 10.7165 8.86749 11.2932 8.70216 11.8279C8.53208 12.3722 8.50532 12.888 8.50446 13.1716C8.50446 13.3075 8.50446 13.3848 8.50446 13.3891L8.52431 13.5868L9.84824 13.5272L9.86809 13.5669C9.9173 14.068 10.1992 14.3533 10.4612 14.4759C10.725 14.6037 10.9589 14.5942 10.9749 14.5942H10.9947C11.3837 14.5605 11.6923 14.5549 11.9431 14.5549C12.3122 14.5549 12.5574 14.5864 12.6942 14.614L12.8129 14.6537H12.8522H12.8721L12.8919 14.6736C13.1138 14.7202 13.1781 14.8221 13.2278 14.9105L13.2869 15.0292V15.0487V15.0685H13.3465H13.6823C13.6814 15.0482 13.675 14.8946 13.5835 14.7129C13.4988 14.5381 13.3132 14.3473 13.0102 14.2782C12.9683 14.2584 12.7218 14.1405 11.9431 14.1397C11.6789 14.1397 11.3517 14.1634 10.955 14.1992C10.8916 14.1953 10.7107 14.1539 10.5596 14.0607C10.4146 13.9657 10.2834 13.8255 10.2436 13.5272C10.2937 13.5276 10.3067 13.5272 10.4016 13.5272C10.7116 13.5272 11.2235 13.5099 11.7061 13.4482C11.9461 13.4171 12.1762 13.3723 12.3778 13.3097C12.5781 13.2436 12.7464 13.1677 12.8721 13.0136L12.5755 12.7568C12.5475 12.7995 12.427 12.8625 12.2595 12.9147C11.751 13.0813 10.8506 13.1141 10.4016 13.1124C10.2277 13.1124 10.1249 13.1124 10.1249 13.1124L8.89986 13.1716C8.89986 12.9173 8.9249 12.43 9.07771 11.9466C9.22879 11.4619 9.50204 10.9845 9.9868 10.682H10.0067C10.0308 10.6621 10.4526 10.3522 11.5481 10.2076L11.7061 10.1878C12.0221 10.1507 12.7948 10.0691 13.9391 10.0691C14.5845 10.0691 15.355 10.1015 16.2119 10.1679H16.2317C16.3612 10.1861 16.9379 10.322 17.2595 10.8002C17.3601 10.941 17.4633 11.2975 17.5561 11.7291C17.6998 12.3778 17.8194 13.2182 17.8919 13.8829C17.9623 14.5454 17.9908 15.0292 17.9908 15.0292L18.3862 15.0094C18.3862 15.0068 18.3188 14.1051 18.1885 13.1124C18.1242 12.6143 18.0529 12.0847 17.9511 11.6302C17.8509 11.1766 17.7378 10.8084 17.5759 10.5633C17.0761 9.84809 16.2706 9.75875 16.2516 9.75314H16.2317C15.3654 9.68494 14.5923 9.6543 13.9391 9.6543ZM11.805 11.1956C11.805 11.1956 11.0604 11.1559 10.9947 11.9665L12.6942 11.9466C12.6942 11.9466 12.6105 11.1688 11.805 11.1956Z" fill="#18468B"/>
</svg>
