<svg width="40" height="40" viewBox="0 0 40 40" fill="none" xmlns="http://www.w3.org/2000/svg">
<path fill-rule="evenodd" clip-rule="evenodd" d="M12.5999 17.0035L15.9915 16.0347C15.9915 16.0347 15.9552 15.8082 15.8336 15.697C15.712 15.5858 15.4932 15.5171 15.4932 15.5171L10.7792 13.8048C10.7792 13.8048 10.6296 13.7544 10.5203 13.815C10.4109 13.8756 10.4148 14.0329 10.4148 14.0329V16.225C10.4148 16.225 10.403 16.4349 10.707 16.9054C11.011 17.3758 11.7311 17.256 11.7311 17.256L12.5999 17.0035Z" fill="#ED1651"/>
<path fill-rule="evenodd" clip-rule="evenodd" d="M26.1017 11.7154L29.2566 9.94785C29.2566 9.94785 29.3041 9.64243 29.1825 9.53125C29.0609 9.42006 28.9161 9.38583 28.9161 9.38583L15.2906 4.52352C15.2906 4.52352 15.141 4.4732 15.0316 4.53376C14.9223 4.59433 14.9262 4.75166 14.9262 4.75166V6.64173C14.9262 6.64173 14.9243 7.07967 15.2283 7.5501C15.5323 8.02053 16.0256 8.14232 16.0256 8.14232L26.1017 11.7154Z" fill="#ED1651"/>
<path fill-rule="evenodd" clip-rule="evenodd" d="M26.1017 17.2222L29.2566 15.5877C29.2566 15.5877 29.3238 15.1739 29.2022 15.0627C29.0806 14.9515 28.9161 14.8926 28.9161 14.8926L10.779 8.30477C10.779 8.30477 10.6294 8.25445 10.52 8.31501C10.4107 8.37558 10.4146 8.53291 10.4146 8.53291V10.423C10.4146 10.423 10.4127 10.8609 10.7167 11.3314C11.0207 11.8018 11.514 11.9236 11.514 11.9236L26.1017 17.2222Z" fill="#ED1651"/>
<path fill-rule="evenodd" clip-rule="evenodd" d="M28.9161 9.38281C28.9161 9.38281 29.1003 9.41073 29.2565 9.56275C29.4127 9.71476 29.4145 9.90046 29.4145 9.90046V12.403C29.4145 12.403 29.4069 12.7449 29.2667 13.0523C29.1265 13.3598 28.9211 13.4325 28.9211 13.4325L28.4937 13.5878L14.8771 18.5337C14.8771 18.5337 14.8117 18.5539 14.7265 18.5539C14.6413 18.5539 14.5758 18.5337 14.5758 18.5337L10.782 17.1556C10.782 17.1556 10.6879 17.1337 10.5543 16.9245C10.4039 16.6898 10.4148 16.2239 10.4148 16.2239C10.4148 16.2239 10.4384 16.4628 10.5734 16.5762C10.7084 16.6896 11.0683 16.5652 11.0683 16.5652L28.4939 10.2357C28.4939 10.2357 29.1858 9.95346 29.1858 9.66667C29.1858 9.46865 28.9162 9.38362 28.9162 9.38362L28.9161 9.38281Z" fill="#2A0088"/>
<path fill-rule="evenodd" clip-rule="evenodd" d="M28.9163 14.8848C28.9163 14.8848 29.1004 14.9127 29.2566 15.0647C29.4128 15.2167 29.4146 15.4024 29.4146 15.4024V17.9049C29.4146 17.9049 29.4071 18.2468 29.2668 18.5543C29.1266 18.8618 28.9212 18.9345 28.9212 18.9345L28.4939 19.0897L14.8773 24.0356V20.6828L28.4939 15.7369C28.4939 15.7369 29.1858 15.4546 29.1858 15.1678C29.1858 14.9698 28.9163 14.8848 28.9163 14.8848Z" fill="#2A0088"/>
<path fill-rule="evenodd" clip-rule="evenodd" d="M22.1568 23.6996C22.2871 23.83 22.2871 24.1168 22.2871 24.1168V25.9881C22.2871 25.9881 22.2796 26.33 22.1394 26.6375C21.9991 26.9449 21.7938 27.0177 21.7938 27.0177L21.3664 27.1729L14.8771 29.5301V26.1772L21.3664 23.82C21.3664 23.82 22.0265 23.5693 22.1568 23.6996Z" fill="#2A0088"/>
<path fill-rule="evenodd" clip-rule="evenodd" d="M17.9706 30.6918C18.101 30.8222 18.101 31.1089 18.101 31.1089V32.9803C18.101 32.9803 18.0935 33.3222 17.9532 33.6296C17.813 33.9371 17.6076 34.0098 17.6076 34.0098L17.1803 34.1651L14.8771 35.0431V31.6902L17.1803 30.8122C17.1803 30.8122 17.8403 30.5615 17.9706 30.6918Z" fill="#2A0088"/>
</svg>
