<svg width="40" height="40" viewBox="0 0 40 40" fill="none" xmlns="http://www.w3.org/2000/svg">
<path d="M22.1117 9.06435L9.69346 24.0008C9.56564 24.1414 9.5177 24.3108 9.57523 24.4418C9.63275 24.5824 9.76057 24.6687 9.93953 24.6687L29.1294 24.6719C29.3019 24.6719 29.4234 24.5249 29.4234 24.3619C29.4234 24.1925 29.3435 24.0935 29.1741 24.0551C28.4839 23.8921 24.7162 23.0772 22.0095 22.2592C20.3318 21.7511 19.6767 20.3098 20.1145 18.386C20.597 16.2545 22.6422 9.40309 22.6486 9.38392C22.6965 9.24331 22.6646 9.06435 22.5176 8.99405C22.3546 8.90457 22.214 8.94611 22.1117 9.06435Z" fill="#00ABBF"/>
<path d="M19.6314 6.11027C27.0613 6.11027 33.1074 12.1596 33.1074 19.647C33.1074 27.0673 27.0613 33.123 19.6314 33.123C12.1536 33.123 6.10742 27.0673 6.10742 19.647C6.10742 12.1628 12.1536 6.11027 19.6314 6.11027ZM19.6314 7.76242C13.0739 7.76242 7.75637 13.08 7.75637 19.6502C7.75637 26.2013 13.0739 31.5188 19.6314 31.5188C26.1889 31.5188 31.5096 26.2013 31.5096 19.6502C31.5096 13.0288 26.1889 7.76242 19.6314 7.76242Z" fill="#00ABBF"/>
</svg>
