<svg width="40" height="40" viewBox="0 0 40 40" fill="none" xmlns="http://www.w3.org/2000/svg">
<g clip-path="url(#clip0_20_12053)">
<path d="M26.2037 17.2304C26.0876 17.2304 25.9899 17.2334 25.935 17.2395C25.8708 17.3555 25.7761 17.511 25.6356 17.7277C27.8224 17.7277 29.8076 17.9076 32.0035 18.3012L31.3835 18.8991C29.4014 18.5483 27.7552 18.408 25.657 18.408C25.3516 18.408 25.2875 18.408 25.2142 18.411C25.1409 18.5208 24.9759 18.7344 24.8111 18.9327C24.9973 18.9205 25.3577 18.9144 25.8555 18.9144C27.5811 18.9144 29.1937 19.0425 30.9437 19.3232L30.3237 19.9242C28.9921 19.7167 27.3642 19.5977 25.9044 19.5977C25.3852 19.5977 24.7958 19.616 24.2674 19.6465C24.1483 19.7838 23.8368 20.1194 23.7421 20.2231C24.4415 20.1499 25.2111 20.1163 26.1273 20.1163C27.4315 20.1163 28.6776 20.2018 29.8564 20.3757L29.2364 20.9705C28.3966 20.8668 27.3765 20.8059 26.4755 20.8059C24.1514 20.8059 22.3189 21.3092 20.4253 22.4654C22.2303 24.3995 25.1867 25.6229 28.0514 25.6229H28.3202L27.3185 26.5901C23.1862 25.8151 18.8372 23.9999 15.1631 21.5135C11.6295 19.131 10.3926 18.4263 7.6347 17.2091L7.61638 16.5013L9.48244 17.3006L10.1177 16.7972L16.2106 19.5855L15.8136 19.9028L12.6862 18.5453L12.3777 18.7862L14.0025 19.6923C15.3739 20.455 16.4183 20.7967 17.3835 20.7967C19.4938 20.7967 21.3874 19.3018 22.609 16.6752C23.5283 16.5562 24.5087 16.5013 25.6876 16.5013C28.1064 16.5013 30.455 16.7331 33.1152 17.2304L32.4677 17.8558C30.8124 17.511 27.9995 17.2304 26.2037 17.2304ZM20.2818 34.6041C12.3553 34.6041 5.92553 28.1815 5.92553 20.2639C5.92553 12.3464 12.3553 5.92369 20.2818 5.92369C28.2082 5.92369 34.638 12.3464 34.638 20.2639C34.638 28.1815 28.2082 34.6041 20.2818 34.6041ZM20.2818 5.00843C11.8361 5.00843 5.00909 11.8276 5.00909 20.2639C5.00909 28.7003 11.8361 35.5195 20.2818 35.5195C28.7275 35.5195 35.5544 28.7003 35.5544 20.2639C35.5544 11.8276 28.7275 5.00843 20.2818 5.00843ZM60.6305 26.3371H69.3868V30.4344H55.9179V10.0935H60.6305V26.3371ZM79.9759 15.789H84.3684V30.4344H80.2377V28.749C79.6267 29.8823 78.376 30.8701 76.0776 30.8701C72.3251 30.8701 70.376 29.1848 70.376 24.3612V15.789H74.7687V24.1577C74.7687 26.1047 75.6124 26.9763 77.3869 26.9763C78.9869 26.9763 79.9759 26.1047 79.9759 24.1577V15.789ZM87.7431 15.237C87.7431 11.6919 89.9832 9.80298 93.5031 9.80298C94.6378 9.80298 95.365 9.97735 95.365 9.97735V13.5224C95.365 13.5224 94.7541 13.4645 94.2303 13.4645C92.8631 13.4645 92.1357 13.9294 92.1357 15.2079V15.789H95.365V19.3632H92.1357V30.4344H87.7431V19.3632H85.5323V15.789H87.7431V15.237ZM103.103 15.789H106.448V19.3632H103.103V25.0586C103.103 26.6278 103.917 27.0346 105.197 27.0346C105.721 27.0346 106.448 26.9474 106.448 26.9474V30.4634C106.448 30.4634 105.43 30.6958 104.354 30.6958C100.834 30.6958 98.7104 29.0977 98.7104 25.5527V19.3632H96.4992V15.789H98.7104V11.5175H103.103V15.789ZM116.173 15.3531C119.898 15.3531 121.846 17.0384 121.846 21.8621V30.4344H117.454V22.0655C117.454 20.1187 116.61 19.2471 114.778 19.2471C113.119 19.2471 112.13 20.1187 112.13 22.0655V30.4344H107.738V10.1227H112.159V17.2128C112.916 16.1376 114.108 15.3531 116.173 15.3531ZM133.046 24.7389C133.046 26.3371 131.533 27.5286 129.206 27.5286C128.072 27.5286 127.402 27.0056 127.402 26.0175C127.402 25.262 127.868 24.6228 129.352 24.4195L131.883 24.0706C132.319 24.0124 132.785 23.9254 133.046 23.8382V24.7389ZM130.603 15.3532C126.268 15.3532 124.173 17.0096 123.999 20.1188H128.275C128.333 19.305 128.799 18.6948 130.603 18.6948C132.203 18.6948 132.959 19.218 132.959 20.0024C132.959 20.7 132.522 20.9614 131.446 21.0776L128.654 21.3681C124.872 21.7749 123.155 23.3441 123.155 26.192C123.155 28.8362 124.785 30.8701 128.247 30.8701C130.603 30.8701 131.999 30.1147 133.221 28.6035V30.4344H137.236V20.8161C137.236 16.777 134.879 15.3532 130.603 15.3532ZM147.393 15.3531C151.204 15.3531 153.153 17.0384 153.153 21.8621V30.4344H148.76V22.0655C148.76 20.1187 147.916 19.2471 146.084 19.2471C144.425 19.2471 143.437 20.1187 143.437 22.0655V30.4344H139.044V15.7891H143.174V17.4745C143.786 16.3411 145.036 15.3531 147.393 15.3531ZM162.419 21.2519C166.142 21.746 168.004 22.9083 168.004 25.9594C168.004 29.0396 165.823 30.8702 161.197 30.8702C156.165 30.8702 154.39 28.8654 154.303 25.9302H158.638C158.754 27.0056 159.51 27.5286 161.197 27.5286C162.913 27.5286 163.612 27.1217 163.612 26.3082C163.612 25.5527 163.03 25.204 161.518 25.0006L159.975 24.797C156.746 24.3612 154.885 23.1118 154.885 20.2059C154.885 17.4163 156.95 15.3531 161.285 15.3531C165.299 15.3531 167.452 16.9513 167.655 20.1187H163.379C163.234 19.2762 162.768 18.753 161.285 18.753C159.83 18.753 159.278 19.2471 159.278 19.8864C159.278 20.5255 159.627 20.8742 160.877 21.0487L162.419 21.2519ZM179.001 24.7392C179.001 26.3372 177.488 27.5286 175.161 27.5286C174.026 27.5286 173.357 27.0056 173.357 26.0175C173.357 25.262 173.823 24.6228 175.306 24.4195L177.837 24.0706C178.274 24.0127 178.738 23.9254 179.001 23.8382V24.7392ZM176.557 15.3532C172.223 15.3532 170.128 17.0096 169.953 20.1188H174.23C174.288 19.305 174.754 18.695 176.557 18.695C178.157 18.695 178.914 19.218 178.914 20.0026C178.914 20.7 178.477 20.9614 177.401 21.0776L174.608 21.3681C170.826 21.7751 169.11 23.3442 169.11 26.192C169.11 28.8362 170.739 30.8701 174.2 30.8701C176.557 30.8701 177.953 30.1147 179.175 28.6035V30.4344H183.19V20.8161C183.19 16.7772 180.833 15.3532 176.557 15.3532Z" fill="#0A1D3D"/>
</g>
<defs>
<clipPath id="clip0_20_12053">
<rect width="32" height="32" fill="white" transform="translate(4.5 4.5)"/>
</clipPath>
</defs>
</svg>
