<svg width="40" height="40" viewBox="0 0 40 40" fill="none" xmlns="http://www.w3.org/2000/svg">
<g clip-path="url(#clip0_124_1104)">
<path fill-rule="evenodd" clip-rule="evenodd" d="M4.05956 19.4098H4.04917L3.57072 20.9873H4.53801L4.05956 19.4098ZM3.31071 21.8527L3.21703 22.1684C3.14414 22.4126 2.86339 22.5144 2.6449 22.5144C2.32251 22.5144 2 22.2802 2 21.9544C2 21.7509 2.11446 21.4354 2.21848 21.1503L3.16504 18.5851C3.3002 18.2289 3.47704 18.0254 3.83068 18.0254H4.278C4.63165 18.0254 4.81888 18.2289 4.95404 18.5851L5.8902 21.1503C5.99427 21.4354 6.10869 21.7509 6.10869 21.9544C6.10869 22.2802 5.78617 22.5144 5.46378 22.5144C5.2453 22.5144 4.97482 22.4126 4.90216 22.1684L4.79798 21.8527H3.31071Z" fill="#1B1979"/>
<path fill-rule="evenodd" clip-rule="evenodd" d="M6.6391 18.7785C6.6391 18.3103 6.90946 18.0254 7.34639 18.0254C7.78324 18.0254 8.05371 18.3103 8.05371 18.7785V21.7712C8.05371 22.2293 7.78324 22.5144 7.34639 22.5144C6.90946 22.5144 6.6391 22.2293 6.6391 21.7712V18.7785Z" fill="#1B1979"/>
<path fill-rule="evenodd" clip-rule="evenodd" d="M11.0389 19.9906C11.4551 19.9906 11.6215 19.8683 11.6215 19.5732C11.6215 19.278 11.4551 19.1558 11.0389 19.1558H10.3422V19.9906H11.0389ZM8.95868 18.9319C8.95868 18.3517 9.21865 18.1074 9.83242 18.1074H11.3927C12.4745 18.1074 12.9633 18.6774 12.9633 19.339C12.9633 19.8989 12.6096 20.2655 12.0584 20.3672V20.3773C12.5057 20.4079 12.8176 20.5607 12.8801 21.0186L12.9322 21.375C12.9633 21.5785 12.9945 21.8025 12.9945 21.9857C12.9945 22.3114 12.6616 22.515 12.36 22.515C11.944 22.515 11.6215 22.342 11.5799 21.9144L11.507 21.3443C11.4654 20.9983 11.2263 20.8965 10.8934 20.8965H10.3422V21.7923C10.3422 22.2502 10.0924 22.515 9.64522 22.515C9.20842 22.515 8.95868 22.2502 8.95868 21.7923V18.9319Z" fill="#1B1979"/>
<path fill-rule="evenodd" clip-rule="evenodd" d="M18.7571 21.3131C19.1211 21.3131 19.3707 21.5168 19.3707 21.873C19.3707 22.2293 19.1211 22.4329 18.7571 22.4329H16.6766C16.1254 22.4329 15.8653 22.1886 15.8653 21.6083V18.7785C15.8653 18.3103 16.1358 18.0254 16.5726 18.0254C17.0096 18.0254 17.28 18.3103 17.28 18.7785V21.3131H18.7571Z" fill="#1B1979"/>
<path fill-rule="evenodd" clip-rule="evenodd" d="M22.7304 18.7785C22.7304 18.3103 23.0007 18.0254 23.4273 18.0254C23.8641 18.0254 24.1346 18.3103 24.1346 18.7785V20.7534C24.1346 22.0665 23.2296 22.5347 22.0125 22.5347C20.7956 22.5347 19.8907 22.0665 19.8907 20.7534V18.7785C19.8907 18.3103 20.1611 18.0254 20.598 18.0254C21.0349 18.0254 21.3054 18.3103 21.3054 18.7785V20.7431C21.3054 21.2013 21.5133 21.4862 22.0125 21.4862C22.5119 21.4862 22.7304 21.2013 22.7304 20.7431V18.7785Z" fill="#1B1979"/>
<path fill-rule="evenodd" clip-rule="evenodd" d="M24.9043 19.0331C24.8106 18.8905 24.7691 18.7785 24.7691 18.6564C24.7691 18.2798 25.0811 18.0254 25.4242 18.0254C25.6322 18.0254 25.8716 18.1271 25.9966 18.3409L26.5061 19.2467L27.0155 18.3409C27.1304 18.1271 27.3692 18.0254 27.5773 18.0254C27.9207 18.0254 28.2328 18.2798 28.2328 18.6564C28.2328 18.7785 28.2016 18.8905 28.1078 19.0331L27.3174 20.2036L28.1806 21.4862C28.2743 21.6186 28.3471 21.7509 28.3471 21.9036C28.3471 22.3514 27.931 22.5144 27.6609 22.5144C27.4005 22.5144 27.1821 22.3717 27.0468 22.1378L26.5061 21.2013L25.9654 22.1378C25.8192 22.3717 25.601 22.5144 25.341 22.5144C25.0811 22.5144 24.6649 22.3514 24.6649 21.9036C24.6649 21.7509 24.7378 21.6186 24.821 21.4862L25.6845 20.2036L24.9043 19.0331Z" fill="#1B1979"/>
<path fill-rule="evenodd" clip-rule="evenodd" d="M30.9896 19.079C30.3965 19.079 30.1156 19.5676 30.1156 20.2699C30.1156 20.9723 30.3965 21.4508 30.9896 21.4508C31.5826 21.4508 31.8629 20.9723 31.8629 20.2699C31.8629 19.5676 31.5826 19.079 30.9896 19.079ZM30.9896 18C32.1648 18 33.2775 18.7533 33.2775 20.2699C33.2775 21.8376 32.1751 22.5298 30.9896 22.5298C29.8035 22.5298 28.701 21.8376 28.701 20.2699C28.701 18.7533 29.8137 18 30.9896 18Z" fill="#1B1979"/>
<path fill-rule="evenodd" clip-rule="evenodd" d="M36.0447 19.9906C36.4604 19.9906 36.627 19.8683 36.627 19.5732C36.627 19.278 36.4604 19.1558 36.0447 19.1558H35.3476V19.9906H36.0447ZM33.9643 18.9319C33.9643 18.3517 34.2241 18.1074 34.8377 18.1074H36.3984C37.4798 18.1074 37.9688 18.6774 37.9688 19.339C37.9688 19.8989 37.6151 20.2655 37.0636 20.3672V20.3773C37.511 20.4079 37.8232 20.5607 37.8857 21.0186L37.9375 21.375C37.9688 21.5785 38 21.8025 38 21.9857C38 22.3114 37.6674 22.515 37.3655 22.515C36.9493 22.515 36.627 22.342 36.5854 21.9144L36.5127 21.3443C36.4711 20.9983 36.2318 20.8965 35.8991 20.8965H35.3476V21.7923C35.3476 22.2502 35.098 22.515 34.6506 22.515C34.2139 22.515 33.9643 22.2502 33.9643 21.7923V18.9319Z" fill="#1B1979"/>
</g>
<defs>
<clipPath id="clip0_124_1104">
<rect width="36" height="4.5298" fill="white" transform="translate(2 18)"/>
</clipPath>
</defs>
</svg>
