<svg width="40" height="40" viewBox="0 0 40 40" fill="none" xmlns="http://www.w3.org/2000/svg">
<path fill-rule="evenodd" clip-rule="evenodd" d="M6.66159 23.0411H10.9222C10.5177 22.3672 10.2853 21.5782 10.2853 20.7351C10.2853 17.2748 13.0903 14.4701 16.5508 14.4701L38 14.569L36.8929 18.4289H32.6613L30.2307 26.9012H25.6772L28.1069 18.4289H23.8316C24.2361 19.103 24.4685 19.8918 24.4685 20.7352C24.4685 24.1948 21.6635 27 18.2032 27L18.0906 26.9993L1 26.9012L4.53652 14.5691H9.09097L6.66159 23.0411ZM14.7746 20.7353C14.7746 19.2982 15.9398 18.1333 17.3768 18.1333C18.8142 18.1333 19.9793 19.2982 19.9793 20.7353C19.9793 22.1725 18.8143 23.3375 17.3768 23.3375C15.9397 23.3375 14.7746 22.1725 14.7746 20.7353ZM16.7742 21.183L18.2245 18.2742C18.4033 18.3615 18.5236 18.5521 18.5236 18.7644C18.5236 18.865 18.4967 18.9594 18.4485 19.0398L17.2002 21.1175L17.6218 21.0524C17.6435 21.049 17.666 21.0474 17.6887 21.0474C17.9244 21.0474 18.1154 21.2387 18.1154 21.4744H19.2902L19.1846 21.3414H18.9697L18.9224 21.2764H19.5469C19.6143 21.3887 19.7342 21.4662 19.8727 21.4744L19.8526 21.5394H17.2113L18.3037 22.3777C18.425 22.4705 18.501 22.6187 18.501 22.7833C18.501 22.9249 18.4447 23.0554 18.3519 23.1484L16.7145 21.5394H14.9014L14.8812 21.4744L16.7742 21.183Z" fill="#1A3171"/>
</svg>
