<svg width="40" height="40" viewBox="0 0 40 40" fill="none" xmlns="http://www.w3.org/2000/svg">
<g clip-path="url(#clip0_124_1176)">
<path fill-rule="evenodd" clip-rule="evenodd" d="M9.1892 4C9.1892 4 12.0272 16.083 20.2892 25.739C20.2892 25.739 10.6992 25.439 7.3422 19.042C4.2552 13.164 6.4262 7.152 9.1892 4ZM23.4142 29.004C26.5472 31.916 30.2942 34.386 34.7482 35.903C34.7482 35.903 28.7782 36.388 25.1762 34.691C21.5742 32.994 17.8242 30.133 15.5052 29.939C13.1862 29.745 11.8302 29.619 11.2122 29.004H23.4142ZM28.7532 29.273C27.2972 25.855 20.2882 25.739 20.2882 25.739C20.2882 25.739 22.1882 27.819 23.4142 29.004C23.4142 29.004 27.6922 28.884 28.7532 29.273Z" fill="#DE0108"/>
</g>
<defs>
<clipPath id="clip0_124_1176">
<rect width="32" height="32" fill="white" transform="translate(4.5 4)"/>
</clipPath>
</defs>
</svg>
