<svg width="40" height="40" viewBox="0 0 40 40" fill="none" xmlns="http://www.w3.org/2000/svg">
<g clip-path="url(#clip0_124_1212)">
<path d="M31.42 10.2274C23.694 10.7623 0.747612 35.6917 -1.02848 37.6343C-1.02848 37.6343 -1.41075 38.0658 -1.65381 38.5828H0.579583C20.5059 17.3165 26.0413 16.2869 27.3601 16.5703C28.9674 16.8215 27.2124 20.9369 24.8191 25.4623C21.5789 31.8561 16.9775 38.563 16.9775 38.563H23.2112C23.6978 37.8168 24.1841 37.0349 24.6602 36.2511C27.0498 32.3701 31.7548 24.389 33.7429 18.5266C34.07 17.6418 34.2813 16.8568 34.4077 16.1751L34.4175 16.1356C34.7552 14.2888 34.4715 13.1215 34.1793 12.2231C33.6838 11.0528 32.9535 10.4525 32.1147 10.2471C31.8984 10.2121 31.6693 10.2102 31.42 10.2274ZM35.7081 35.5003C35.1348 36.6091 34.5833 37.736 34.0307 38.8594H36.3434C36.8678 37.7329 37.4071 36.609 37.9515 35.5003H35.7081ZM40.9291 35.5003C40.8357 36.8082 40.7839 37.4806 40.6908 38.8594H42.974C43.0309 37.4806 43.0585 36.8082 43.1131 35.5003H40.9291ZM44.3837 35.5003C44.066 36.6142 43.7554 37.7422 43.4505 38.8594H45.6342C45.9372 37.7422 46.2396 36.6113 46.5573 35.5003C45.6869 35.4971 45.2521 35.5003 44.3837 35.5003ZM47.689 35.5003C47.6232 35.7784 47.5724 36.0758 47.5302 36.3499C47.2545 38.2029 48.5631 39.1112 49.8032 39.0768C51.7373 39.0173 53.5595 37.6274 54.6173 35.5003H52.2947C51.8055 36.2933 51.1811 36.9032 50.5375 36.9032C50.0395 36.9032 49.7743 36.5105 49.8429 35.8362C49.854 35.7194 49.8734 35.6064 49.8924 35.5003H47.689ZM55.3221 35.5003L55.3021 35.7176C55.0775 37.3049 55.6858 39.1028 57.0989 39.0768C58.2354 39.0517 59.2192 38.1059 59.8484 36.923H59.8979C59.7652 37.6118 59.6327 38.2727 59.5406 38.8594H61.5458C61.6427 37.9226 61.8851 36.6216 62.1414 35.52C61.1758 35.52 60.7028 35.5022 59.7391 35.5003C59.2541 36.3693 58.7297 36.7669 58.3196 36.7649C57.7857 36.7648 57.5592 36.2537 57.5951 35.5003H55.3221ZM63.4517 35.52C63.1458 36.6352 62.8481 37.7443 62.5483 38.8594H64.7222C65.0249 37.7444 65.3257 36.6352 65.6252 35.52C64.7562 35.52 64.3201 35.52 63.4517 35.52ZM67.9681 35.52C67.6683 36.6352 67.364 37.7443 67.0648 38.8594H69.2387C69.5391 37.7465 69.8403 36.6372 70.1417 35.52H67.9681ZM71.3427 35.52C71.0422 36.6352 70.7519 37.7463 70.4495 38.8594H72.6234C72.9255 37.7465 73.219 36.6352 73.5166 35.52H71.3427ZM74.4396 35.52L74.4101 35.7176C74.2033 37.3101 74.8262 39.1028 76.2365 39.0768C77.3701 39.0507 78.3551 38.1068 78.9761 36.923H79.0257C78.8951 37.6087 78.7677 38.2768 78.6782 38.8594H80.6932C80.7873 37.9299 81.0093 36.6258 81.2491 35.52H78.8471C78.3713 36.3903 77.8475 36.7649 77.4375 36.7649C76.9038 36.7648 76.6859 36.2746 76.7129 35.52H74.4396ZM82.5593 35.52C82.2706 36.6383 81.9844 37.7484 81.6858 38.8594C82.5593 38.8595 82.9901 38.8594 83.8597 38.8594C84.1551 37.7464 84.4439 36.6362 84.7332 35.52C83.8636 35.5179 83.4297 35.52 82.5593 35.52ZM87.0758 35.52C86.7893 36.6362 86.4955 37.7463 86.2023 38.8594H88.3762C88.671 37.7485 88.9626 36.6362 89.2497 35.52H87.0758ZM92.7634 35.52C92.2237 36.6341 91.6761 37.7484 91.1355 38.8594H93.4482C93.9676 37.7485 94.4853 36.6341 94.9967 35.52H92.7634ZM97.9647 35.52C97.9151 36.8395 97.877 37.5016 97.796 38.8594H100.079C100.12 37.5046 100.139 36.8405 100.148 35.52C99.2759 35.519 98.8398 35.521 97.9647 35.52ZM101.449 35.52C101.175 36.6393 100.885 37.7516 100.595 38.8594H102.769C103.061 37.7516 103.338 36.6362 103.613 35.52C102.742 35.52 102.319 35.5232 101.449 35.52ZM104.834 35.52C104.56 36.6362 104.28 37.7547 103.99 38.8594H106.164C106.451 37.7547 106.726 36.6362 106.997 35.52H104.834ZM109.817 35.52C109.546 36.6352 109.265 37.7547 108.973 38.8594H111.147C111.44 37.7547 111.719 36.6352 111.99 35.52H109.817ZM113.211 35.52C112.896 36.8395 112.731 37.5097 112.377 38.8594H114.551C114.905 37.5098 115.071 36.8426 115.385 35.52H113.211ZM116.596 35.52C116.283 36.8436 116.123 37.5097 115.772 38.8594C116.642 38.8595 117.076 38.8594 117.946 38.8594C118.298 37.5078 118.466 36.8436 118.78 35.52H116.596ZM121.112 35.52C120.801 36.8426 120.642 37.5108 120.288 38.8594H122.462C122.816 37.5109 122.985 36.8426 123.296 35.52H121.112ZM124.259 35.52C124.169 37.7357 125.431 39.1112 127.078 39.0768C128.039 39.0559 129.027 38.8345 129.917 38.3061C129.947 37.485 129.963 37.0641 129.976 36.2511C129.358 36.6211 128.65 36.8658 127.852 36.8637C127.216 36.8637 126.733 36.6161 126.502 36.1326C126.425 35.971 126.38 35.7274 126.363 35.52C125.521 35.5179 125.1 35.52 124.259 35.52ZM133.937 35.52C134.049 35.7045 134.087 35.9105 134.066 36.1326C134.024 36.6046 133.669 36.9822 133.054 36.9822C132.343 36.9822 131.575 36.5855 131.178 36.3104C130.891 37.1014 130.745 37.5089 130.443 38.3061C130.832 38.744 131.692 39.0434 132.617 39.0768C134.253 39.1289 136.152 38.0512 136.359 35.6781L136.369 35.52H133.937ZM112.774 41.3887C112.456 41.3887 112.112 41.491 111.851 41.7838C111.526 42.1361 111.371 42.6772 111.305 43.1671L111.266 43.3844H110.849L110.72 44.3131H111.137L110.66 47.5933H111.613L112.079 44.3131H112.715L112.854 43.3844H112.209L112.248 43.1868C112.308 42.7648 112.499 42.4162 112.804 42.4162C112.929 42.4162 113.026 42.4234 113.112 42.4755L113.281 41.4875C113.175 41.427 113.006 41.3887 112.774 41.3887ZM118.988 41.4875L118.085 47.5933H119.048L119.941 41.4875H118.988ZM120.725 41.4875L120.07 45.7358C120.03 45.9943 120.001 46.248 120.001 46.5065C120.001 47.2537 120.382 47.6921 121.152 47.6921C122.61 47.6921 123.306 46.1151 123.306 44.7479C123.306 43.9995 122.999 43.2856 122.323 43.2856C121.926 43.2856 121.561 43.5094 121.321 43.8785H121.311L121.688 41.4875H120.725ZM98.6298 41.5467C98.3379 41.5467 98.0908 41.837 98.0838 42.2581C98.0838 42.6281 98.2813 42.8509 98.5405 42.8509H98.5504C98.855 42.8509 99.1063 42.597 99.1063 42.1593C99.1063 41.7894 98.9084 41.5468 98.6298 41.5467ZM102.848 41.5467C102.556 41.5467 102.3 41.837 102.292 42.2581C102.292 42.6281 102.5 42.8509 102.759 42.8509C103.064 42.8509 103.325 42.597 103.325 42.1593C103.325 41.7894 103.127 41.5468 102.848 41.5467ZM132.309 41.5467C132.017 41.5467 131.77 41.837 131.763 42.2581C131.763 42.6281 131.96 42.8509 132.22 42.8509H132.23C132.534 42.8509 132.785 42.597 132.785 42.1593C132.785 41.7894 132.587 41.5468 132.309 41.5467ZM92.4261 41.7048C91.4509 41.7048 90.659 42.4126 90.659 43.582C90.659 44.3397 91.1149 44.7887 91.592 45.1233C92.0023 45.3984 92.1977 45.6052 92.1977 45.9335C92.1977 46.3889 91.8534 46.625 91.483 46.625C91.0713 46.625 90.6956 46.4549 90.4307 46.2496L90.113 47.2574C90.3255 47.4648 90.7712 47.6754 91.3937 47.6921C92.3892 47.6921 93.21 47.0063 93.21 45.7161C93.21 45.0282 92.8609 44.5645 92.3168 44.1946C91.9388 43.9195 91.6714 43.72 91.6714 43.3844C91.6714 43.0655 91.9029 42.7719 92.3466 42.7719C92.7176 42.7636 93.0343 42.9245 93.1801 43.0288L93.4781 41.9815C93.2865 41.8439 92.9695 41.7048 92.4261 41.7048ZM115.852 41.7838L113.678 47.5933H114.7L115.226 46.0916H116.517L116.606 47.5933H117.609L117.082 41.7838H115.852ZM105.141 42.2384L104.159 42.594L104.039 43.3844H103.623L103.484 44.3131H103.9L103.642 45.9927C103.596 46.32 103.583 46.532 103.583 46.7633C103.583 47.2887 103.846 47.6921 104.417 47.6921C104.622 47.6921 104.862 47.6527 104.983 47.5933L105.102 46.625C105.014 46.6427 104.919 46.625 104.834 46.625C104.627 46.625 104.556 46.4955 104.556 46.2891C104.556 46.1432 104.59 45.9192 104.615 45.7556L104.834 44.3131H105.518L105.657 43.3844H104.973L105.141 42.2384ZM116.308 42.7521H116.318C116.339 43.1044 116.369 43.5813 116.388 43.8982L116.477 45.1431H115.504L115.951 43.8982C116.071 43.5625 116.195 43.1044 116.308 42.7521ZM96.0093 43.2856C95.6173 43.2856 95.2317 43.5405 94.9671 43.997H94.957L95.0167 43.3449H94.1629C94.1232 43.7754 94.0384 44.5045 93.9644 45.0047L93.3491 49.2925H94.2919L94.5599 47.5143H94.5701C94.6829 47.6008 94.9106 47.6921 95.1755 47.6921C96.3031 47.6921 97.0515 46.3483 97.0515 44.8862C97.0515 44.0253 96.711 43.2856 96.0093 43.2856ZM101.449 43.2856C101.003 43.2856 100.641 43.6755 100.417 44.2341H100.387C100.407 43.9423 100.437 43.669 100.456 43.3844H99.6224C99.5894 43.745 99.5468 44.446 99.4534 45.0838L99.0964 47.5933H100.049L100.268 46.0322C100.387 45.2078 100.679 44.491 101.29 44.491L101.439 44.5108L101.627 43.3054L101.449 43.2856ZM108.883 43.2856C107.729 43.2856 106.948 44.4921 106.948 45.9532C106.948 46.9933 107.505 47.6921 108.328 47.6921C109.455 47.6921 110.263 46.5649 110.263 45.0245C110.263 44.0708 109.751 43.2856 108.883 43.2856ZM125.966 43.2856C124.368 43.2856 123.644 44.8114 123.644 46.2298C123.644 47.1074 124.044 47.6921 124.626 47.6921C125.003 47.6921 125.41 47.4596 125.708 46.7633H125.728C125.707 47.0635 125.694 47.3431 125.688 47.5933H126.572C126.558 47.068 126.612 46.2372 126.691 45.6964L127.038 43.503C126.768 43.3915 126.35 43.2856 125.966 43.2856ZM129.798 43.2856C129.365 43.2856 128.961 43.5257 128.656 44.076H128.637L128.706 43.3844H127.862C127.823 43.7544 127.763 44.2152 127.684 44.7479L127.276 47.5933H128.229L128.497 45.7161C128.63 44.7875 129 44.2934 129.311 44.2934C129.55 44.2934 129.629 44.4955 129.629 44.7873C129.629 44.9416 129.62 45.1137 129.599 45.2616L129.252 47.5933H130.215L130.572 45.1431C130.598 44.9367 130.622 44.6203 130.622 44.4317C130.622 43.7094 130.327 43.2856 129.798 43.2856ZM135.168 43.2856C133.57 43.2856 132.845 44.8114 132.845 46.2298C132.845 47.1074 133.243 47.6921 133.828 47.6921C134.205 47.6921 134.622 47.4596 134.92 46.7633H134.939C134.92 47.0635 134.897 47.3431 134.89 47.5933H135.773C135.761 47.068 135.823 46.2372 135.902 45.6964L136.24 43.503C135.969 43.3915 135.553 43.2856 135.168 43.2856ZM97.9548 43.3844L97.3294 47.5933H98.2922L98.9077 43.3844H97.9548ZM102.163 43.3844L101.548 47.5933H102.501L103.116 43.3844H102.163ZM131.624 43.3844L131.009 47.5933H131.962L132.587 43.3844H131.624ZM108.764 44.2341C109.149 44.2341 109.271 44.6379 109.271 45.0245C109.271 45.7468 108.98 46.7436 108.456 46.7436C108.126 46.7436 107.94 46.4046 107.94 45.9137C107.934 45.2613 108.214 44.2341 108.764 44.2341ZM125.708 44.2341C125.801 44.2341 125.893 44.2362 125.966 44.2539L125.807 45.2419C125.662 46.2737 125.319 46.6844 125.033 46.6843C124.768 46.6843 124.636 46.4054 124.636 45.9927C124.636 45.21 125.091 44.2341 125.708 44.2341ZM134.91 44.2341C135.003 44.2341 135.096 44.2362 135.168 44.2539L135.019 45.2419C134.874 46.2737 134.52 46.6844 134.235 46.6843C133.969 46.6843 133.848 46.4054 133.848 45.9927C133.848 45.21 134.292 44.2341 134.91 44.2341ZM95.632 44.2934C95.9442 44.2934 96.049 44.6296 96.049 44.9652C96.049 45.7906 95.6558 46.7436 95.1457 46.7436C94.9586 46.7436 94.8052 46.6752 94.6991 46.546L94.8182 45.637C94.9373 44.8116 95.274 44.2934 95.632 44.2934ZM121.877 44.2934C122.169 44.2934 122.304 44.6107 122.304 45.0245C122.304 45.7561 121.902 46.7436 121.351 46.7436C121.132 46.7436 120.99 46.5903 120.983 46.2891C120.976 46.1098 121.002 45.9525 121.023 45.8149L121.083 45.479C121.195 44.7484 121.533 44.2934 121.877 44.2934Z" fill="#005DA2"/>
<path d="M35.7478 14.7148C35.7376 15.139 35.6951 15.6144 35.5988 16.1376L35.589 16.177C35.4623 16.8586 35.2488 17.6436 34.9239 18.5285C32.9358 24.3908 28.2314 32.3718 25.8416 36.253C25.3867 37.0045 24.9204 37.7501 24.4519 38.4661L24.4023 38.5649H27.5488C27.5488 38.5649 34.5408 27.1867 35.8075 22.1445C36.4758 19.3118 36.6769 16.6043 35.7478 14.7148ZM47.3514 24.9109C46.4486 28.3242 45.4792 31.6876 44.5126 35.0674H46.6865C47.648 31.6876 48.6136 28.3241 49.5154 24.9109H47.3514ZM50.6865 24.9109C49.814 28.1512 48.8728 31.3645 47.9371 34.5734C47.8878 34.7423 47.8446 34.8997 47.7983 35.0674H49.9919C50.0182 34.9602 50.0417 34.8576 50.0713 34.7513C50.164 34.4458 50.2142 34.2881 50.3095 33.9807C50.6446 32.7789 51.4285 31.4172 52.4634 31.3724C53.1009 31.34 53.3369 32.0589 53.2178 32.9729C53.1307 33.6378 52.8855 34.3963 52.5329 35.0674C53.4458 35.0706 53.9026 35.0872 54.8158 35.0872C55.203 34.2138 55.4508 33.2618 55.5702 32.3801C55.7871 30.7928 55.1671 29.0718 53.7638 29.1197C52.8566 29.1489 51.9679 29.6338 51.312 30.4634H51.2821C51.824 28.6176 52.3592 26.7744 52.8604 24.9109H50.6865ZM112.248 24.9109C111.48 28.3054 110.728 31.7042 109.926 35.0872H112.099C112.898 31.7042 113.637 28.3054 114.402 24.9109H112.248ZM104.824 25.069C104.162 25.0689 103.524 25.7419 103.434 26.709C103.354 27.5553 103.771 28.0954 104.357 28.0922H104.367C105.056 28.0922 105.691 27.5068 105.777 26.4917C105.847 25.635 105.452 25.069 104.824 25.069ZM116.497 25.069C115.836 25.069 115.209 25.7274 115.127 26.6892C115.056 27.5334 115.473 28.0725 116.06 28.0725H116.07C116.762 28.0693 117.392 27.4839 117.469 26.4719C117.535 25.6194 117.128 25.069 116.497 25.069ZM97.379 25.6223C95.936 28.7968 94.4669 31.9553 92.9619 35.0872C95.3648 35.0872 97.7684 35.0861 100.168 35.0872C100.181 31.9366 100.141 28.7718 100.148 25.6223C99.2238 25.6223 98.302 25.6201 97.379 25.6223ZM40.7506 25.6617C39.197 28.8509 37.5574 31.944 35.9263 35.0674C38.3356 35.0675 40.7356 35.0674 43.1427 35.0674C43.2745 31.9283 43.412 28.8051 43.5397 25.6617C42.611 25.6617 41.679 25.6617 40.7506 25.6617ZM98.2029 27.8551H98.2328C98.2061 28.6628 98.1715 29.7276 98.1534 30.4437C98.1327 31.5682 98.1191 32.1115 98.0937 33.2298H95.9001C96.4086 32.1136 96.6598 31.5703 97.1608 30.4437C97.4997 29.6912 97.8783 28.6628 98.2029 27.8551ZM41.4849 27.9144H41.5148C41.4535 28.7262 41.3665 29.7735 41.3163 30.4831C41.2445 31.5942 41.2096 32.1469 41.1378 33.2495H38.934C39.4908 32.148 39.771 31.5942 40.3237 30.4831C40.6991 29.7349 41.1225 28.7284 41.4849 27.9144ZM122.343 29.0407C121.296 29.0761 120.296 29.7591 119.633 30.8389H119.604C119.707 30.2093 119.755 29.8897 119.862 29.2581C119.092 29.258 118.706 29.2746 117.936 29.2778C117.787 30.1158 117.593 31.1597 117.32 32.3603C117.081 33.4515 116.962 33.9918 116.705 35.0872H118.889C118.937 34.8715 118.96 34.7684 119.008 34.5537C119.298 33.2113 120.004 31.4267 121.093 31.3131C121.588 31.2589 121.787 31.7817 121.738 32.4394C121.712 32.7906 121.652 33.1739 121.579 33.5064C121.439 34.1422 121.369 34.4515 121.222 35.0872H123.396C123.566 34.3483 123.658 33.9843 123.822 33.2495C123.916 32.7858 124.011 32.0451 124.051 31.6293C124.175 30.2379 123.468 29.0063 122.343 29.0407ZM129.023 29.0407C126.55 29.0803 124.565 31.8525 124.299 34.9489L124.289 35.0872H127.326C128.931 35.0393 131.222 34.4218 131.396 31.8861C131.522 30.0903 130.283 29.0188 129.023 29.0407ZM135.336 29.0407C133.803 29.0323 132.033 30.0926 131.882 32.3208C131.801 33.5058 132.454 34.304 133.272 34.8501C133.402 34.9335 133.511 35.008 133.609 35.0872H136.369C136.264 34.0825 135.579 33.4429 134.93 33.0124C134.363 32.6372 134.08 32.3154 134.106 31.9256C134.139 31.4181 134.552 31.076 135.128 31.076C135.775 31.076 136.272 31.3168 136.577 31.5106C136.833 30.7165 136.957 30.3112 137.213 29.5149C136.867 29.2388 136.193 29.0418 135.336 29.0407ZM110.243 29.0604C109.173 29.0771 108.276 30.0606 107.732 31.2143H107.692C107.791 30.5524 107.886 29.9198 107.98 29.2778H106.104C105.9 30.5691 105.671 31.8387 105.409 33.1112C105.226 33.9012 105.135 34.294 104.943 35.0872H107.107C107.468 33.5385 108.266 31.7905 109.677 31.7873C109.799 31.7873 109.917 31.8071 110.025 31.8071C110.277 30.7242 110.4 30.1714 110.65 29.0802C110.517 29.0604 110.375 29.0604 110.243 29.0604ZM88.4655 29.0802C87.4119 29.1198 86.3907 29.8153 85.7059 30.8783H85.6862C85.8091 30.2541 85.8631 29.9271 85.9838 29.2975C85.2173 29.2975 84.834 29.2975 84.0681 29.2975C83.8947 30.1366 83.6673 31.1899 83.3633 32.3801C83.0892 33.4588 82.9586 34.0012 82.6785 35.0872C83.5497 35.0872 83.9741 35.0861 84.8422 35.0872C84.8988 34.8746 84.935 34.7673 84.9912 34.5537C85.3158 33.2103 86.0664 31.4464 87.1552 31.3328C87.6507 31.2807 87.8264 31.786 87.7606 32.4394C87.7279 32.7865 87.6622 33.1812 87.5821 33.5064C87.4262 34.137 87.3484 34.4525 87.1851 35.0872H89.3587C89.5442 34.3525 89.6337 33.9812 89.8154 33.2495C89.9199 32.7889 90.0444 32.0596 90.0934 31.649C90.2554 30.2826 89.5848 29.0416 88.4655 29.0802ZM69.4667 29.1C68.4071 29.1406 67.3815 29.8423 66.6776 30.8981H66.6477C66.7827 30.2769 66.8516 29.9469 66.9854 29.3173C66.2176 29.3173 65.8282 29.3329 65.0595 29.3371C64.8696 30.172 64.6301 31.1941 64.3052 32.3801C64.0155 33.4536 63.8659 34.0012 63.5708 35.0872H65.7447C65.8025 34.8725 65.8381 34.7653 65.8933 34.5537C66.2421 33.2071 67.0197 31.4673 68.1168 31.3526C68.6139 31.2994 68.7803 31.8088 68.7025 32.4591C68.6644 32.8051 68.5866 33.1813 68.504 33.5064C68.3344 34.1318 68.2559 34.4567 68.0869 35.0872H70.2608C70.4562 34.3566 70.555 33.9958 70.7474 33.2693C70.8618 32.8087 71 32.0742 71.0549 31.6687C71.2442 30.3139 70.5829 29.0573 69.4667 29.1ZM80.4153 29.1C77.6115 29.0948 75.1623 31.5239 74.519 35.0872H76.7625C77.0182 33.3311 78.1376 31.2351 79.6114 31.1945C79.8175 31.1892 80.0259 31.2318 80.1869 31.2735C79.9557 32.1428 79.8426 32.5811 79.6114 33.4472C79.4462 34.0912 79.2585 34.6443 79.0555 35.0872H81.3482C81.3965 34.8777 81.4492 34.6768 81.4972 34.4944C81.9387 32.8529 82.3716 31.197 82.7976 29.5544C82.2103 29.3012 81.2821 29.1 80.4153 29.1ZM61.4067 29.1197C58.6011 29.1156 56.0994 31.5301 55.4114 35.0872H57.6548C57.9343 33.3258 59.0899 31.2508 60.5631 31.2143C60.7705 31.2049 60.9795 31.2558 61.139 31.2933C60.8938 32.1594 60.7705 32.5841 60.5234 33.4472C60.3506 34.087 60.1553 34.6422 59.9478 35.0872H62.2507C62.3025 34.8767 62.3485 34.6789 62.3993 34.4944C62.864 32.8613 63.3329 31.2136 63.789 29.5742C63.203 29.3252 62.2761 29.1197 61.4067 29.1197ZM102.918 29.2778C102.474 31.2174 102.022 33.1591 101.548 35.0872H103.722C104.19 33.1591 104.643 31.2215 105.082 29.2778C104.217 29.282 103.784 29.2778 102.918 29.2778ZM114.631 29.2778C114.206 31.2194 113.776 33.1581 113.32 35.0872H115.494C115.951 33.1581 116.376 31.2215 116.794 29.2778C115.93 29.2799 115.497 29.2778 114.631 29.2778ZM72.9906 29.3173C72.4913 31.237 71.9757 33.1706 71.4621 35.0872H73.6357C74.1487 33.1706 74.649 31.2402 75.1445 29.3173C74.2786 29.3173 73.8533 29.3142 72.9906 29.3173ZM128.617 31.0957C129.117 31.0957 129.393 31.4181 129.361 31.8861V31.9058C129.072 33.1992 127.56 33.0843 126.75 33.052C126.965 32.1578 127.605 31.0957 128.617 31.0957ZM74.4041 28.1104H74.4193C75.1149 28.1104 75.7035 27.5236 75.7035 26.5252C75.7035 25.681 75.2499 25.1349 74.6147 25.1349C73.9505 25.1349 73.3756 25.781 73.3632 26.7409C73.3632 27.583 73.8145 28.1104 74.4041 28.1104Z" fill="#ED1941"/>
</g>
<defs>
<clipPath id="clip0_124_1212">
<rect width="35" height="26" fill="white" transform="translate(2 7)"/>
</clipPath>
</defs>
</svg>
