<svg width="40" height="40" viewBox="0 0 40 40" fill="none" xmlns="http://www.w3.org/2000/svg">
<path d="M22.9299 9H35C33.1342 16.4553 31.3399 23.9318 29.4684 31.3858H5V31.1529L5.00193 31.3807C10.962 23.908 16.9434 16.4514 22.9299 9ZM21.5762 13.3137C21.5788 14.917 21.5724 16.5222 21.5801 18.1261C19.9826 18.13 18.3845 18.1222 16.7864 18.13C16.7948 19.5061 16.7948 20.8803 16.7864 22.2558C18.3845 22.2642 19.9826 22.2558 21.5801 22.2603C21.5724 23.8636 21.5788 25.4694 21.5762 27.0727C22.964 27.0804 24.3498 27.0766 25.7369 27.0746C25.7291 25.4694 25.7369 23.8636 25.733 22.2584C27.3369 22.2584 28.9402 22.2603 30.5447 22.2584C30.5421 20.8823 30.5421 19.5048 30.5447 18.1267C28.9408 18.1267 27.3376 18.1267 25.733 18.1287C25.7369 16.5228 25.7291 14.9176 25.7369 13.3125C24.3498 13.3092 22.9633 13.3047 21.5762 13.3137Z" fill="#E60005"/>
<path d="M21.5762 13.3138C22.9639 13.3054 24.3497 13.3093 25.7368 13.3112C25.7291 14.917 25.7368 16.5222 25.733 18.128C27.3369 18.1261 28.9401 18.1261 30.5447 18.1261C30.5421 19.5048 30.5421 20.8823 30.5447 22.2578C28.9408 22.2597 27.3375 22.2578 25.733 22.2578C25.7368 23.863 25.7291 25.4688 25.7368 27.074C24.3497 27.0759 22.9633 27.0798 21.5762 27.0714C21.5788 25.4688 21.5724 23.863 21.5801 22.2597C19.9826 22.2552 18.3845 22.2636 16.7864 22.2552C16.7947 20.8791 16.7947 19.5061 16.7864 18.1293C18.3845 18.1216 19.9826 18.1293 21.5801 18.1255C21.5724 16.5222 21.5788 14.9164 21.5762 13.3138Z" fill="white"/>
</svg>
