<svg width="40" height="40" viewBox="0 0 40 40" fill="none" xmlns="http://www.w3.org/2000/svg">
<mask id="mask0_11_1265" style="mask-type:alpha" maskUnits="userSpaceOnUse" x="3" y="11" width="34" height="18">
<path d="M5.34671 23.8226H30.3728C30.8271 23.8226 31.0241 24.2267 30.8122 24.7246L29.7572 27.1953C29.547 27.6939 29.0092 28.0967 28.5516 28.0967H3.52461C3.07199 28.0967 2.87339 27.6939 3.0844 27.1953L4.13942 24.7246C4.35126 24.2267 4.89077 23.8226 5.34671 23.8226ZM11.4468 11H36.4763C36.9297 11 37.1259 11.4 36.9157 11.8978L35.8623 14.3745C35.6496 14.8729 35.1093 15.2742 34.6534 15.2742H9.6264C9.17295 15.2742 8.97519 14.8729 9.18868 14.3745L10.2412 11.8978C10.453 11.4 10.9909 11 11.4468 11ZM20.53 16.4338L20.9909 17.6768H22.727C23.0969 17.6768 23.1779 17.9695 22.8263 18.3851L21.7332 19.6723L22.18 20.8817C22.281 21.1541 22.3124 21.4469 21.6777 21.4469H20.2272L19.1316 22.7348C18.8585 23.0533 18.7667 23.0592 18.6194 22.6653L18.1668 21.4469H16.4034C16.0311 21.4469 15.9508 21.1512 16.3008 20.7363L17.4154 19.4227L16.9777 18.2378C16.8767 17.9695 16.8478 17.6768 17.4783 17.6768H18.9007L20.0162 16.3632C20.2884 16.0435 20.3803 16.0363 20.53 16.4338Z" fill="white"/>
</mask>
<g mask="url(#mask0_11_1265)">
<path d="M37.1085 11H3V28.9516H37.1085V11Z" fill="#1B358F"/>
</g>
</svg>
