<svg width="40" height="40" viewBox="0 0 40 40" fill="none" xmlns="http://www.w3.org/2000/svg">
<path d="M16.3117 18.8979H16.2679C15.9814 18.8432 15.688 18.3774 15.3946 17.5264C15.256 17.1204 15.1428 16.4308 15.0296 16.3891C14.831 16.3891 14.6369 16.9356 14.5676 17.1985L14.3366 17.1308C14.3597 17.0267 14.5815 16.1211 15.0296 16.1211C15.2745 16.1211 15.4362 16.5661 15.7042 17.3546C15.8728 17.8491 16.1292 18.6012 16.3025 18.6324C16.5566 18.6819 17.6285 17.732 18.5202 16.7847L18.6842 16.9825C18.3816 17.2974 16.85 18.8979 16.3117 18.8979Z" fill="#231F20"/>
<path d="M14.3873 17.2617L13.7474 20.9702L14.2718 20.9936L14.7454 17.6209L14.3873 17.2617Z" fill="white"/>
<path d="M15.45 17.3333L17.1364 17.7028C16.9445 18.0918 16.6748 18.4251 16.3486 18.6761L15.5701 17.9605C15.5139 17.7558 15.4737 17.5459 15.45 17.3333ZM2.03062 12.649C2.05603 13.0081 2.15306 13.6899 2.28473 13.6899C3.43978 13.9866 12.7957 16.0321 12.7957 16.0321C12.7957 16.0321 14.3665 17.4478 14.6207 17.6872C14.5352 18.775 14.2626 20.9454 14.1586 21.0105L10.8229 20.6253V19.9357L10.6103 19.9123L10.5895 20.5707L10.1437 20.5187C10.0097 20.5603 9.9404 20.9298 9.99353 21.0001C10.1737 21.042 10.3557 21.0733 10.5387 21.0938C10.5387 21.0938 10.4648 21.5804 10.474 21.6351C10.5503 21.6351 10.5942 21.6793 10.6796 21.6897C10.6796 21.6897 10.7998 21.2057 10.8113 21.1328C11.7862 21.2681 13.3201 21.4581 13.6458 21.5232C13.6203 21.6415 13.6172 21.7645 13.6367 21.8842C13.6562 22.0039 13.6979 22.1177 13.759 22.218C14.221 22.395 16.4849 22.2831 16.4872 22.3742L15.949 23.2356C15.1751 23.3266 13.4333 23.8914 12.8442 24.0553C12.3937 23.0976 12.1304 24.4197 12.2505 24.6331C12.2251 24.7346 12.6501 25.2602 12.7125 25.3435C13.5441 25.5361 15.2998 25.7235 15.5747 25.7443C15.5886 25.8172 15.6579 25.8692 15.6718 25.9421C16.642 26.1372 18.2129 25.6558 18.3907 25.4866H18.7188L19.6659 24.9662C19.6405 25.3747 19.5735 25.8041 20.0471 26.1216C20.5992 26.3116 22.2856 26.3819 22.8885 26.4417C23.4452 26.486 25.6976 26.702 25.9378 26.6369C26.1781 26.5719 27.8668 25.9447 28.3981 25.5361C28.6799 25.3259 28.9096 25.0384 29.0657 24.7007C29.1419 24.4717 28.9502 24.2167 28.8139 24.0371C28.6213 23.9432 28.4173 23.8826 28.2087 23.8575C27.9268 23.8341 27.3701 23.7508 26.9427 23.7639C26.5153 23.7769 25.5567 23.8159 25.5567 23.8159L24.9352 22.84L24.9838 22.7932L24.9537 22.6682L24.8498 22.6865L24.3415 21.7626L24.4132 21.7444V21.6299L24.3854 21.5778L24.2538 21.6117L23.9026 20.9767C24.9445 20.4432 28.0077 18.9182 28.0077 18.9182C28.0077 18.9182 38.2091 20.3261 38.3569 20.196C39.3641 19.2096 39.1192 18.9702 38.4123 18.913L23.1195 16.7347C22.8024 16.5759 22.4709 16.4563 22.1308 16.3782C21.9724 16.2754 21.7998 16.2033 21.6203 16.1648C21.3777 16.144 20.4652 16.1908 20.285 16.2091C4.54401 12.7791 4.03348 12.6724 2.53191 12.3549C2.19695 12.2716 2.01214 12.4278 2.03062 12.6307V12.649ZM22.2486 22.1113H21.6156L21.4193 21.8511L21.8813 21.7392L21.9852 21.8719L22.147 21.8172L22.2486 22.1113ZM22.2948 22.2597L22.6275 22.9025H22.1654L21.7219 22.2753L22.2948 22.2597ZM22.2948 23.0222H22.6737L22.9162 23.4542H22.6136L22.2532 23.0144L22.2948 23.0222ZM23.8564 20.732C23.8564 20.732 23.8056 20.706 23.8056 20.6956L24.0736 20.5499C24.2551 20.3718 24.4014 20.1528 24.5033 19.9071C24.6972 19.4296 24.7653 18.8994 24.6996 18.3795L27.5664 18.8219C27.5456 18.8349 23.8587 20.6826 23.8564 20.7164V20.732ZM23.9673 21.7184L23.399 21.8615L23.1934 21.6299C23.3796 21.523 23.5386 21.3645 23.6554 21.1693L23.9673 21.7184ZM24.5656 22.7593L24.2445 22.8114L23.5215 21.9994L24.0528 21.8641L24.5656 22.7593ZM25.1801 23.7847L24.3831 22.9701L24.6626 22.9311L25.1801 23.7847ZM23.1773 23.7404C23.1495 23.704 22.6482 22.5824 22.3456 21.8303L23.0202 21.721C23.5607 22.3638 24.2122 23.0222 24.8682 23.8679L23.1773 23.7404ZM20.7124 24.1646C20.7124 24.1646 20.7124 24.1412 20.7124 24.1334C20.7976 24.0481 20.8681 23.9457 20.9203 23.8315L22.8192 23.92C22.743 23.92 23.0156 24.1308 22.9855 24.1802C22.2694 24.0579 21.4285 24.2557 20.7124 24.149V24.1646ZM20.1048 24.7163C20.1048 24.7163 20.3751 24.4561 20.4305 24.4717C20.7401 24.5159 21.8882 24.3962 22.2001 24.4405C21.5118 24.5818 20.8309 24.7651 20.1603 24.9896C20.1135 24.9031 20.0939 24.8013 20.1048 24.7007V24.7163ZM19.6428 22.5954C19.6567 22.5121 19.6636 22.3976 19.6775 22.3143C20.255 22.2154 20.7309 22.0541 21.2483 21.9396L22.6344 23.6702C22.6344 23.6702 22.6344 23.691 22.6344 23.7014C22.5235 23.7014 21.1051 23.6806 20.9226 23.6676C20.9554 23.5054 20.9498 23.3365 20.9064 23.1775C20.863 23.0186 20.7834 22.8753 20.6754 22.7619C20.3382 22.6627 19.9931 22.6017 19.6451 22.5798L19.6428 22.5954ZM18.6541 22.65C18.6818 22.6214 18.6957 22.5719 18.7234 22.5407L18.8943 22.3039H19.2871C19.2871 22.4288 19.2871 22.3533 19.264 22.5641C19.0353 22.5615 18.8943 22.611 18.6564 22.6344L18.6541 22.65ZM17.0994 23.0039L17.7462 22.3065C17.8779 22.3065 18.3676 22.3065 18.4716 22.3351C18.4439 22.3638 18.1528 22.7151 18.1251 22.7437C18.0974 22.7723 17.2311 22.9675 17.1017 22.9883L17.0994 23.0039ZM16.7921 22.3716C16.873 22.3716 17.0925 22.3716 17.2542 22.3976C17.1502 22.5147 16.8245 22.9597 16.8245 22.9597L16.4179 22.8764C16.4179 22.8764 16.7737 22.3976 16.7945 22.356L16.7921 22.3716ZM23.0641 23.7326L22.7822 23.7092L22.6806 23.5557H22.9624L23.0641 23.7326ZM23.2743 24.0085H24.3023L23.3574 24.123L23.2743 24.0085ZM16.6258 23.2278L16.1777 23.2772L16.314 23.0638L16.7921 23.0326L16.6258 23.2278Z" fill="black"/>
<path d="M19.9893 16.2253C20.1193 16.2638 20.2524 16.2873 20.3867 16.2955C20.8081 16.2496 21.2315 16.2305 21.6549 16.2383C21.84 16.2883 22.0175 16.369 22.1816 16.4777C22.5223 16.5519 22.852 16.6798 23.1611 16.8577C23.4452 16.8785 38.574 19.0437 38.574 19.0437C38.9737 19.1061 38.9691 19.3274 38.5625 19.3039L23.6139 17.17C23.6139 17.17 23.8125 17.2714 23.8125 17.2819C24.4617 17.8023 24.926 18.3098 24.6049 19.4627C24.5281 19.8152 24.3685 20.1379 24.1429 20.3969C24.1429 20.3969 24.1105 20.3319 24.1013 20.3319C24.4335 19.8687 24.6036 19.2846 24.5795 18.6898C24.4963 17.8648 23.63 16.7666 22.6644 17.3886C21.3407 18.2578 22.0961 21.0658 23.831 20.5479C23.2974 20.9877 22.6205 21.5238 21.6757 21.0684C21.4239 20.946 21.246 20.6598 20.9249 20.5713C20.6038 20.4828 20.3589 20.717 20.1279 20.7899L20.5229 20.3189L20.5022 20.2252L20.4536 20.1887L18.4924 22.7235C18.4935 22.7339 18.4935 22.7444 18.4924 22.7547C19.0222 22.6909 19.5574 22.7128 20.0817 22.8198C20.0817 22.8198 20.0817 22.838 20.0817 22.851C19.3309 24.0039 16.344 24.6493 14.9533 25.1307L14.9672 24.9147L12.3475 24.6727C12.2389 24.4905 12.2805 23.8425 12.5046 23.7957C12.6686 23.7619 12.7957 24.0559 12.8696 24.1991C13.893 23.8607 15.048 23.4027 15.9859 23.27L16.91 21.784C16.91 21.784 16.91 21.7632 16.91 21.7528L14.4867 22.0911C14.3226 21.9167 14.2949 21.6513 14.3019 21.2948C13.4679 21.1855 11.8739 21.0007 10.7928 20.8706C10.7654 21.1173 10.7198 21.361 10.6565 21.5993C10.6311 21.5993 10.6057 21.5784 10.5803 21.5758C10.5803 21.5264 10.7027 20.92 10.6935 20.7951C10.6935 20.7951 10.6704 20.8706 10.6611 20.868L10.2338 20.8133C10.1183 20.7873 10.1321 20.6077 10.1991 20.5531C10.6011 20.5843 10.6496 20.5531 10.7166 20.6494C10.7328 20.6494 10.7166 19.9259 10.7166 19.9285H10.7882C10.809 19.9285 10.7882 20.6468 10.8021 20.6494C10.8159 20.652 10.8228 20.6077 10.8344 20.6103C11.8046 20.7274 13.1999 20.9018 13.8907 20.9981C14.1217 21.0215 14.2649 21.0293 14.3527 21.0371C14.3735 20.8289 14.4451 20.4126 14.4612 20.3215C14.8771 20.0742 16.2285 19.0671 16.2285 19.0671L16.1107 18.9604C16.1107 18.9604 15.316 19.5772 15.1543 19.6579C14.8355 19.3976 14.8563 18.4946 14.9002 17.8856H14.9256L18.6795 21.2818H18.7326L18.2521 21.4301C17.7416 21.9377 17.2631 22.4847 16.8199 23.067L18.169 22.7677C18.5963 22.2423 18.9967 21.6897 19.3679 21.1126L18.9683 21.2375C18.9382 20.8836 17.5683 19.8608 17.2703 19.6006L13.7405 16.41C13.4102 16.1238 13.1399 15.8401 12.8165 15.5539C12.5855 15.3821 12.3406 15.3873 12.3105 15.2936H12.2574C12.2574 15.2936 12.2574 15.2728 12.2574 15.2624C12.5071 15.3276 12.752 15.4146 12.9897 15.5226L13.722 16.1967C13.722 16.1446 18.4046 17.1205 18.4046 17.1205C18.8581 16.7958 19.3561 16.5575 19.8784 16.4153C19.8784 16.4153 19.9754 16.4153 19.9939 16.3736C19.9639 16.41 19.8623 16.4022 19.8161 16.397C16.0668 15.6007 15.7133 15.5929 2.24314 12.6496C2.05603 12.5637 2.26856 12.3451 2.64279 12.4075L19.9893 16.2253ZM22.14 17.2662C22.4156 17.1283 22.714 17.0574 23.0155 17.058C23.0155 17.058 22.9855 16.9956 22.9855 16.9852L22.9416 16.8577C22.5928 16.7249 22.1816 16.5974 21.8328 16.4543C21.8305 16.4855 22.1077 17.1439 22.14 17.261V17.2662ZM19.9061 16.5844C19.8569 16.6423 19.8246 16.7159 19.8137 16.7952L20.0979 17.2558L20.3728 17.628C20.4652 17.2428 20.8995 17.3209 21.976 17.2793C21.976 17.2793 21.976 17.261 21.976 17.248C21.8697 17.0112 21.7681 16.6651 21.6618 16.4257C21.0731 16.3749 20.4809 16.4267 19.9061 16.5792V16.5844ZM19.4187 16.8577C19.3587 17.1569 19.3794 17.9767 19.5157 18.2109L20.1094 17.9142C20.0933 17.477 19.7329 17.1335 19.5504 16.8368L19.4187 16.8577ZM17.901 19.0203L18.0488 19.1556L18.7188 18.8667C19.0768 18.6065 18.7673 17.9741 18.691 17.6436C18.0858 17.6644 18.0765 18.4191 17.901 19.0151V19.0203ZM28.5274 18.4607C28.2248 18.4607 27.1113 19.0333 26.9404 19.2415L28.5274 18.4607ZM23.2142 18.2005C22.9208 18.4191 22.9462 18.9812 23.1565 19.1035C23.4221 18.9058 23.9511 18.5232 23.9511 18.5128C23.9003 18.2994 23.727 18.2187 23.2234 18.1875L23.2142 18.2005ZM17.73 18.9812C17.7439 18.7548 17.7924 18.2005 17.7416 18.1667C17.5278 18.2737 17.3311 18.4197 17.1594 18.5987C17.1218 18.8001 17.1266 19.0086 17.1733 19.2076C17.3731 19.1608 17.5644 19.0763 17.7393 18.9578L17.73 18.9812ZM23.9442 18.6325L23.4013 19.2233C23.6162 19.218 23.8864 19.0645 23.9534 18.6091L23.9442 18.6325ZM17.3027 21.6201C17.1895 21.7476 17 21.9974 16.8869 22.1249C17.0509 22.1484 17.2218 22.1249 17.3858 22.1406C17.5337 21.9844 17.7531 21.7606 17.9033 21.6045L17.3027 21.6201ZM16.806 22.2368C16.806 22.2368 16.4179 22.7938 16.3902 22.8224L16.7991 22.8926L17.2796 22.2967C17.1571 22.242 16.8222 22.2785 16.8245 22.2134L16.806 22.2368ZM16.3093 22.9681C16.2262 23.1243 16.1615 23.2284 16.1407 23.2596C16.1199 23.2908 16.4803 23.1893 16.6027 23.1789C16.6512 23.1113 16.6928 23.0306 16.739 22.9629C16.7067 22.9239 16.3971 22.9499 16.3278 22.9447L16.3093 22.9681ZM23.0594 24.2693C23.1611 24.402 22.7291 24.5842 22.4172 24.5139C22.4172 24.5139 20.918 24.8132 20.091 25.0344C20.0632 24.9381 20.0401 24.8471 20.0101 24.7612L19.8091 24.9095C19.7583 25.3285 19.8553 25.8073 19.9962 25.8204C20.9503 25.8646 21.6272 25.7657 22.5812 25.8204L22.6967 26.0155C23.0466 25.9207 23.4015 25.8521 23.7594 25.81C24.4524 25.6824 25.0715 25.5159 25.7507 25.3936C25.7635 25.457 25.7728 25.5214 25.7784 25.5861C25.986 25.4665 26.2034 25.3698 26.4276 25.2973C26.9519 25.1099 27.4925 25.0813 28.0446 24.8158C27.8367 24.5556 28.2086 24.108 28.3703 24.0351C27.4691 23.8705 26.5491 23.889 25.6537 24.0898C25.4943 24.108 25.254 24.0559 25.0969 24.0741C25.0969 24.1886 24.6904 24.1991 24.4524 24.1106C24.4039 24.1106 23.6115 24.2329 23.429 24.2173M16.4687 18.7522L18.2798 17.3183L13.8052 16.3866L16.4687 18.7522Z" fill="white"/>
<path d="M23.1357 17.1439C22.3411 17.1075 22.0662 17.818 21.715 17.8648C21.4355 17.9038 20.5461 18.0626 20.1927 18.2916C20.2633 18.3905 20.3109 18.5077 20.3313 18.6325C19.6567 18.8225 18.5017 19.4132 17.5338 19.7177C17.5338 19.7385 17.9634 20.1055 18.1367 20.2668C18.4948 20.1289 20.8811 19.1556 21.3177 19.33C21.8675 19.5512 22.6599 21.2037 23.6555 20.6546C22.9856 20.7483 22.5605 20.488 22.1077 19.7854C21.849 19.3846 21.8028 18.4842 22.1955 17.8284C22.6368 17.0997 23.1565 17.1882 23.57 17.2194C23.4267 17.185 23.2817 17.1598 23.1357 17.1439Z" fill="#FFC425"/>
<path d="M17.1318 19.9355C16.1061 20.2739 15.3253 20.8438 14.3597 21.5621C14.344 21.6784 14.3543 21.7974 14.3897 21.9082C15.4418 21.2977 16.5454 20.8069 17.6839 20.443L17.1318 19.9355Z" fill="#FFC425"/>
<path d="M25.5543 19.3881C25.6859 17.3062 24.7111 15.5262 23.3758 15.4221C22.0406 15.318 20.8925 16.8716 20.7308 18.9093C20.7308 18.8781 20.7308 18.8494 20.7308 18.8182C20.8648 16.6634 22.1168 15.0083 23.5214 15.1228C24.9259 15.2373 25.9655 17.0694 25.8245 19.2242C25.709 21.0719 24.7711 22.5527 23.6207 22.8676C24.6395 22.4694 25.448 21.0901 25.5543 19.3881Z" fill="#231F20"/>
<path d="M25.6191 19.3273C25.7508 17.2454 24.7759 15.468 23.443 15.3613C22.11 15.2546 20.9573 16.8108 20.7979 18.8511C20.7979 18.8199 20.7979 18.7886 20.7979 18.7574C20.9342 16.6052 22.184 14.9501 23.5885 15.062C24.993 15.1739 26.0234 17.0112 25.8986 19.1634C25.7808 21.0111 24.8452 22.4919 23.6925 22.8068C24.7043 22.4112 25.5036 21.0293 25.6191 19.3273Z" fill="white"/>
<path d="M21.2044 18.8325C21.0866 20.7063 21.9621 22.3015 23.1611 22.3952C24.36 22.4889 25.3926 21.094 25.5358 19.2723V19.3556C25.4157 21.2892 24.293 22.7778 23.0317 22.6763C21.7704 22.5748 20.844 20.9275 20.9642 18.9913C21.0704 17.3309 21.9113 16.0011 22.9462 15.7227C22.0383 16.0662 21.2991 17.3049 21.2044 18.8325Z" fill="white"/>
<path d="M21.0774 18.897C20.9596 20.7681 21.8351 22.3634 23.034 22.4597C24.233 22.556 25.2656 21.1585 25.4088 19.3368V19.4201C25.2887 21.3537 24.1683 22.8396 22.9047 22.7407C21.641 22.6419 20.717 20.9893 20.8394 19.0557C20.9434 17.3954 21.7843 16.0656 22.8192 15.7871C21.8998 16.1306 21.1721 17.3694 21.0774 18.897Z" fill="#231F20"/>
<path d="M13.7474 20.9722L14.3873 17.3574L13.7474 20.9722Z" fill="white"/>
<path d="M13.6501 20.9512L14.2904 17.3348L14.4898 17.3796L13.8495 20.996L13.6501 20.9512Z" fill="#231F20"/>
<path d="M16.9562 18.6953C17.0394 18.7291 17.0602 19.1559 17.0348 19.2158C17.0093 19.2756 16.642 19.3511 16.642 19.3511L16.4619 18.9868C16.6206 18.8771 16.7858 18.7797 16.9562 18.6953Z" fill="#231F20"/>
</svg>
