<svg width="40" height="40" viewBox="0 0 40 40" fill="none" xmlns="http://www.w3.org/2000/svg">
<g clip-path="url(#clip0_124_1320)">
<path d="M17.1624 8.91032C18.0872 8.74217 19.3063 8.91032 19.6426 9.91924C19.8108 9.58294 20.063 9.20459 20.4414 9.07848C20.9878 8.82625 21.5764 8.86829 22.1649 8.91032C21.5764 9.41478 21.3662 10.1294 21.198 10.8441C20.9038 12.1052 20.8197 13.4505 20.6095 14.7116C20.5675 15.0059 20.5254 15.3001 20.3573 15.5524C20.2312 15.7205 20.021 15.8046 19.8108 15.8887C19.8108 17.318 19.8108 18.7473 19.8108 20.1766C19.9789 20.3447 20.1891 20.5129 20.3573 20.681C20.8197 18.5371 21.2821 16.3931 21.8707 14.2912C22.1649 13.0721 22.5433 11.853 23.0057 10.718C23.2579 10.1715 23.7203 9.70905 24.2668 9.66701C25.2757 9.5409 26.2006 10.0454 26.9993 10.5919C26.621 10.6759 26.2426 10.76 25.9484 11.0122C25.528 11.3485 25.2757 11.853 25.0235 12.3154C24.5611 13.3243 24.0987 14.3333 23.6363 15.3001C23.4261 15.6364 23.2579 16.0568 22.8796 16.225C22.5012 16.225 22.1649 16.0568 21.7866 15.9727C21.4082 17.6122 20.9878 19.2938 20.6515 20.9333C20.6515 21.1855 20.7777 21.5638 21.0719 21.6059C22.8796 18.411 24.6452 15.174 27.0414 12.3995C27.5038 12.0212 28.1343 11.7269 28.7649 11.895C29.7738 12.1052 30.4885 12.946 31.077 13.7447C30.3203 13.6606 29.5216 13.9129 28.9331 14.4173C27.9662 15.2581 27.1675 16.1829 26.2006 17.0237C25.9484 17.2339 25.6541 17.4441 25.3178 17.4441C24.9815 17.36 24.7292 17.1498 24.435 17.0237C24.2668 16.8976 24.2248 17.1498 24.1407 17.2339C23.1318 18.8734 22.249 20.5129 21.3242 22.1944C21.4503 22.4887 21.6184 22.7829 21.7445 23.0352C23.6783 20.8492 25.6541 18.7052 27.9662 16.9396C28.6808 16.3931 29.4375 15.8887 30.2363 15.4262C31.035 14.9638 32.17 15.174 32.8006 15.8466C33.305 16.4352 33.6414 17.1919 33.9356 17.9065C33.263 17.6122 32.4643 17.4861 31.7496 17.6963C30.5305 18.0747 29.4375 18.7473 28.2605 19.2097C27.9662 19.2938 27.6719 19.3778 27.3777 19.2517C27.0834 19.0415 26.8732 18.7893 26.621 18.5791C25.1917 19.8403 23.9305 21.1855 22.6694 22.6148C22.4592 22.867 22.207 23.1192 21.9968 23.4135C21.9968 23.7919 22.249 24.1282 22.3751 24.4645C25.1076 22.4046 27.9662 20.3027 31.3292 19.3778C32.2961 19.1256 33.3471 18.9154 34.2719 19.4199C34.8605 19.7141 35.1547 20.3447 35.3229 20.9753C35.449 21.4797 35.5751 21.9842 35.6171 22.4887C34.4401 21.5218 32.8426 21.6059 31.4554 21.8161C30.6566 21.9001 29.8579 22.1944 29.1012 21.9001C28.849 21.6059 28.7229 21.2696 28.5127 20.9333C26.4108 22.0262 24.477 23.4135 22.5853 24.8848C22.7114 25.2632 22.8796 25.6415 23.0477 26.0199C25.9063 24.5065 28.9331 23.1192 32.17 22.9931C33.305 22.9931 34.6082 23.0772 35.491 23.96C36.2898 24.8008 36.1636 26.0619 36.0375 27.1549C35.7853 26.7766 35.491 26.3982 35.0707 26.146C33.8936 25.4734 32.5484 25.3893 31.2452 25.2632C30.8248 25.1791 30.4044 25.1791 30.0261 24.9269C29.7738 24.5906 29.7738 24.1282 29.6477 23.7498C27.3777 24.2963 25.2337 25.3052 23.2159 26.4403C23.2579 26.7345 23.4261 27.0708 23.342 27.3651C23.1318 27.7434 22.7955 28.0377 22.5012 28.332C21.7445 29.0466 20.9878 29.8033 19.9789 30.2237C19.3484 30.4339 18.8019 29.9715 18.2974 29.6772C17.4987 29.0466 16.742 28.332 16.0694 27.5333C15.7751 27.1969 16.0273 26.7766 16.1114 26.4403C14.0515 25.3473 11.9076 24.2963 9.63753 23.7919C9.51142 24.2963 9.55345 25.011 8.88084 25.1371C7.57766 25.2632 6.1904 25.1791 4.92925 25.6836C4.2146 25.8938 3.62607 26.3562 3.24772 26.9868C3.03753 26.2301 3.07957 25.4313 3.24772 24.7167C3.49995 23.8759 4.29868 23.2874 5.13944 23.0772C6.61078 22.6989 8.12415 22.909 9.59549 23.2454C11.9496 23.7919 14.1356 24.8428 16.2375 25.9358C16.4057 25.5575 16.5318 25.1791 16.7 24.8008C14.8503 23.3294 12.9165 21.9422 10.7726 20.8492C10.5624 21.1855 10.4363 21.5218 10.184 21.8161C9.72161 22.0262 9.21715 21.9422 8.71269 21.9001C7.57766 21.732 6.35855 21.4798 5.22352 21.6899C4.63498 21.774 4.08849 22.0683 3.62607 22.4466C3.71014 21.732 3.8783 21.0173 4.13052 20.3447C4.38275 19.6301 5.0974 19.1676 5.81205 19.0836C6.69486 18.9575 7.57766 19.2097 8.41842 19.4619C11.5713 20.4708 14.2617 22.4046 16.8681 24.4224C17.0363 24.1282 17.2044 23.7919 17.2885 23.4555C17.2885 23.3294 17.1624 23.2033 17.0783 23.1192C15.691 21.5638 14.2197 20.0084 12.6643 18.5791C12.2439 18.9154 11.9076 19.504 11.3191 19.2938C9.9318 18.8734 8.71269 17.9485 7.28339 17.6543C6.61078 17.4861 5.93817 17.6543 5.34963 17.9065C5.60186 17.2339 5.89613 16.6033 6.31651 16.0148C6.90505 15.2581 7.99804 14.9638 8.88084 15.3422C9.46938 15.5944 9.97384 15.9727 10.5203 16.309C13.1687 18.2008 15.3968 20.5549 17.5828 22.9931C17.7509 22.6989 17.877 22.4466 18.0031 22.1524C17.0363 20.3868 16.0694 18.6212 14.9764 16.8976C14.514 17.1078 14.0515 17.6122 13.5471 17.2759C12.8324 16.8555 12.2859 16.1409 11.6974 15.5944C10.9828 14.9638 10.3942 14.1231 9.42734 13.8288C9.049 13.7027 8.62861 13.7027 8.25027 13.7027C8.92288 12.8619 9.76365 11.811 10.9828 11.811C11.7394 11.7689 12.2019 12.3995 12.6222 12.904C14.8503 15.5944 16.5318 18.6632 18.2133 21.6899C18.3815 21.4798 18.5496 21.2696 18.6337 21.0173C18.3394 19.3358 17.877 17.6543 17.4987 15.9727C17.1203 16.0568 16.784 16.1829 16.4057 16.1829C16.0694 16.0989 15.9012 15.7205 15.7331 15.4262C15.1445 14.2492 14.6401 12.988 14.0095 11.811C13.6732 11.1383 13.0847 10.5919 12.328 10.5078C13.0426 9.96128 13.9254 9.5409 14.8503 9.58294C15.4808 9.58294 15.9853 10.0033 16.2375 10.5498C16.7 11.7269 17.0783 12.904 17.3726 14.1231C17.9611 16.267 18.4656 18.411 18.928 20.5969C19.0961 20.4288 19.3063 20.3027 19.4745 20.0925C19.5165 18.6632 19.4745 17.2339 19.5165 15.8466C19.3063 15.7205 19.0121 15.6364 18.928 15.3842C18.8439 15.132 18.8019 14.8798 18.7178 14.6275C18.5496 13.3664 18.4656 12.0632 18.1713 10.802C17.9191 10.1294 17.6668 9.41478 17.1624 8.91032Z" fill="#7E1D2E"/>
</g>
<defs>
<clipPath id="clip0_124_1320">
<rect width="33" height="21.2713" fill="white" transform="translate(3.12128 8.88867)"/>
</clipPath>
</defs>
</svg>
