<svg width="40" height="40" viewBox="0 0 40 40" fill="none" xmlns="http://www.w3.org/2000/svg">
<path d="M26.1552 33.2973C25.0216 33.2543 24.0832 33.0958 23.7893 33.0097C23.1249 32.8103 22.4731 32.6896 21.8779 32.2676C21.7667 32.2067 21.7299 32.1847 21.6218 32.1249C21.5693 32.1249 21.498 32.0262 21.4455 32.0262C21.0655 31.726 20.7391 31.4237 20.6856 30.9409C20.6047 30.3489 20.8042 29.7905 21.1631 29.3434H21.1663C21.2797 29.2006 21.4088 29.0683 21.5515 28.9571C21.7173 28.8343 21.9325 28.8941 22.0942 28.8343C22.2002 28.8343 22.2569 28.4722 22.4731 28.5309C22.6904 28.6527 22.5308 28.8941 22.3639 29.0159V29.1964C22.4626 29.2321 22.578 29.2027 22.6904 29.2121C22.5854 29.3885 22.4836 29.3916 22.4196 29.4976C22.4196 29.5564 22.6368 29.5564 22.6368 29.6152C22.4731 29.7978 22.1508 29.6782 21.9325 29.7978V29.9196C22.4731 29.8598 23.0693 29.4378 23.6119 29.738C23.6119 29.738 23.4492 29.7978 23.339 29.8598C23.6119 30.0382 23.8827 29.8598 24.1514 29.9196C24.4768 30.0382 24.8012 29.9196 25.1287 29.9784C25.0751 29.8598 24.9103 29.9196 24.8547 29.7978C25.2903 29.6782 25.7238 29.9196 26.1562 30.0382C25.9936 29.8598 25.7773 29.738 25.5076 29.738C25.3438 29.738 25.1811 29.5564 25.0751 29.3748V29.3392C25.0751 29.2919 25.0825 29.2562 25.1287 29.2562C25.2641 29.2226 25.4152 29.2856 25.5601 29.3392C25.6997 29.3916 25.834 29.4347 25.94 29.3748C26.1426 29.2646 26.3 29.4704 26.4942 29.3434H26.5005C26.5121 29.3318 26.5236 29.3255 26.5362 29.3161C26.32 29.0746 25.94 29.3161 25.7238 29.0159C25.94 28.8941 26.1562 29.0159 26.3735 28.8343C26.4827 28.7125 26.7535 28.7125 26.9676 28.7125C27.2395 28.6527 27.5124 28.7744 27.7811 28.7744C27.8346 28.7744 27.9459 28.8941 27.9984 28.8941C28.2146 28.8941 28.4308 29.1334 28.647 29.0159C28.647 28.9571 28.541 28.8941 28.4864 28.8343C28.3206 28.8343 28.1075 28.8343 27.9984 28.6527C27.9984 28.5929 27.9983 28.5309 28.0519 28.5309C28.3206 28.5309 28.541 28.8343 28.8108 28.7125C28.3783 28.4123 27.8923 28.5929 27.4557 28.3525C27.1859 28.1709 26.807 28.1121 26.5887 27.8088C26.5362 27.9305 26.427 27.8718 26.3735 27.8718C26.32 27.8718 26.32 27.75 26.2665 27.75C25.9936 27.75 25.6692 27.8088 25.6692 27.5684C25.6692 27.327 25.9936 27.39 26.1562 27.39C26.7535 27.2682 27.2395 27.6314 27.8346 27.6902C27.8923 27.6902 27.8923 27.8088 27.8923 27.8718C27.8923 27.9904 27.7811 27.9305 27.7275 27.9305C27.9983 27.9904 28.3206 27.9904 28.5935 27.9904C28.9735 27.9904 29.4059 28.0502 29.7859 28.1709C30.0042 28.2307 30.2183 28.3525 30.4366 28.2307C30.2719 28.1121 29.9496 28.2927 30.0042 27.9904C30.0042 27.8718 30.2183 27.9904 30.3264 27.9305L30.2719 27.8718C30.3264 27.75 30.4366 27.8088 30.5448 27.8088C30.1658 27.6314 29.7859 27.4488 29.4059 27.2682C29.6232 26.9051 30.0042 27.1496 30.3264 27.1496C30.3264 27.1496 30.3264 27.0279 30.2719 27.0279C30.3831 26.8463 30.5448 27.0866 30.7054 27.0279C30.6518 26.9051 30.5448 26.9051 30.4366 26.8463C30.0567 26.7864 29.6778 26.6647 29.2988 26.6059C29.3534 26.4863 29.6232 26.6647 29.5696 26.4243C29.4594 26.1241 29.0795 26.1829 28.8643 26.0643C29.0795 25.9425 29.3534 25.8838 29.5696 25.9425C29.8394 26.0045 30.1658 25.8838 30.4366 25.9425C30.0042 25.5206 29.4059 26.0045 28.9189 25.5825C29.027 25.4618 29.1907 25.402 29.2443 25.2204C29.5697 25.339 29.9496 25.1606 30.2719 25.2204C29.8625 25.0525 29.4573 24.8803 29.0501 24.7628C29.0249 24.7544 28.9997 24.7449 28.9735 24.7376C28.8045 24.663 28.6355 24.7061 28.4675 24.7628C28.3668 24.7953 28.2618 24.8383 28.161 24.8583C27.7811 24.98 27.4011 24.98 27.0222 24.7984C27.0453 24.7848 27.0736 24.7722 27.0967 24.7628C27.2982 24.6662 27.5355 24.6179 27.7275 24.6179H28.0519C28.161 24.6179 28.0519 24.4384 28.161 24.4384C28.3783 24.4384 28.647 24.3765 28.8643 24.4384C29.1687 24.6064 29.5014 24.6861 29.8216 24.7628C29.9559 24.7911 30.0882 24.8247 30.2183 24.8583C30.2719 24.9212 30.3264 24.98 30.3831 25.0388C30.7054 25.1018 31.0318 25.1018 31.248 25.339C31.3015 25.402 31.3551 25.339 31.3551 25.2802C31.3036 25 31.2543 24.874 31.4695 24.7628C31.4852 24.7544 31.5041 24.7449 31.5178 24.7376C31.4653 24.557 31.3551 24.4982 31.1913 24.4384C31.5713 24.3167 32.0079 24.2579 32.2767 24.6798H32.4404C32.4404 24.557 32.5496 24.4982 32.6031 24.4384C32.8739 24.3765 33.0366 24.6798 33.3074 24.6798C33.8479 24.557 34.335 24.6179 34.8199 24.557C34.4462 24.4384 34.1188 24.3765 33.7398 24.2579C33.6286 24.2579 33.468 24.2579 33.3599 24.1351C33.5226 23.9577 33.848 24.0165 34.0085 24.0763C34.1188 24.1351 34.1188 23.8359 34.1723 23.8947C34.4462 23.9577 34.7149 24.0165 34.9312 24.1351C35.0949 24.1981 35.4193 24.3167 35.6344 24.4384C35.4193 23.9577 34.7149 24.0165 34.7149 23.5945C34.6604 23.3594 35.0771 23.7593 35.244 23.5504C34.2195 23.3069 33.1951 23.4035 32.1685 23.2324C32.114 23.1726 32.0604 23.1138 32.0079 23.054C32.3291 22.8724 32.6566 22.7506 32.9831 22.8125C33.0366 22.8724 33.087 22.8724 33.1426 22.9322C33.3599 22.9322 33.468 22.9322 33.6874 22.991V22.8724C33.3074 22.7506 32.9274 22.8125 32.5496 22.7506C32.2766 22.632 31.9502 22.8125 31.6815 22.8724C30.7589 22.9322 29.8394 22.7506 28.9189 22.8125C28.4864 22.8125 28.0519 22.7506 27.5659 22.8125C27.1859 22.9322 26.7535 22.8125 26.3735 22.8125C26.0471 22.7506 25.6692 22.8125 25.3438 22.8724C25.0751 22.8724 24.8012 22.8724 24.587 22.7506C24.5314 22.6918 24.587 22.632 24.6385 22.632C25.3438 22.5102 25.9936 22.6918 26.6422 22.632C26.3735 22.3906 25.9936 22.5102 25.6692 22.4504C25.6146 22.4504 25.5601 22.3287 25.5076 22.2699C25.7238 22.1471 25.9936 22.209 26.2087 22.209C26.2665 22.209 26.2665 22.2699 26.2665 22.3287H27.294L27.2395 22.2699C27.9459 22.0904 28.647 22.209 29.3534 22.0904C28.8643 21.9099 28.2671 22.1471 27.7811 21.9686C27.9459 21.8469 28.1075 21.8469 28.2671 21.9099C28.2146 21.7881 27.9983 21.8469 27.9459 21.7283C28.4308 21.5467 28.9189 21.6695 29.4059 21.6065C29.4059 21.4879 29.2988 21.3651 29.4059 21.2465C29.4594 21.3651 29.5697 21.4249 29.6232 21.4249C29.9496 21.3651 30.2183 21.3063 30.4366 21.6065C30.2719 21.7283 30.1102 21.7283 29.9496 21.7283C30.1102 21.9686 30.3831 21.7283 30.5983 21.7881C30.6518 21.7881 30.6518 21.8469 30.6518 21.9099C30.9762 21.9099 31.3551 21.9686 31.6815 21.7881C31.735 21.7881 31.8442 22.0285 31.9502 21.8469C31.628 21.6695 31.248 21.7283 30.9762 21.5467C30.7054 21.3651 30.3831 21.1247 30.1102 20.8844C30.2183 20.7626 30.4366 20.7626 30.5448 20.8844C30.7054 21.0061 30.8156 21.0061 30.9762 21.0659C31.0853 21.1247 31.0318 20.8844 31.1378 20.8844C31.3551 20.8245 31.628 20.8245 31.8442 20.9431C32.1685 21.1247 32.4939 21.0659 32.8739 21.1247C32.9274 21.1247 32.9274 21.0659 32.9831 21.0061C32.9831 21.0754 33.0376 21.0638 33.0828 21.0659C32.7647 20.7962 32.3648 21.0513 32.0604 20.8245C31.9502 20.7028 31.8442 20.6429 31.6815 20.5212C31.8977 20.4026 32.114 20.4624 32.2767 20.6429C32.2767 20.5852 32.2767 20.4624 32.3291 20.4624C32.4404 20.4624 32.5496 20.6429 32.6566 20.5852C32.4939 20.3438 32.2231 20.4624 32.0079 20.2808C31.628 20.1024 31.1378 20.221 30.7589 20.0405C30.7589 19.9806 30.8156 19.9806 30.8691 19.9806C30.9216 19.9218 30.8691 19.862 30.8156 19.862C30.4366 19.862 30.0567 19.862 29.7302 19.6206C30.0567 19.4401 30.4366 19.4999 30.7589 19.6206C30.8691 19.6804 31.0318 19.799 31.1913 19.862C31.248 19.862 31.4107 19.9218 31.4107 19.799C31.3551 19.7403 31.3015 19.6206 31.1913 19.5587C31.3551 19.3813 31.5713 19.7403 31.735 19.5587C31.6815 19.4999 31.6815 19.4401 31.6815 19.3813C31.9502 19.1987 32.3837 19.5587 32.5496 19.3813C32.8162 19.1357 32.9831 19.4401 33.2539 19.3813C33.024 19.1987 32.7742 19.1073 32.5202 19.0381C32.1696 18.9457 31.8075 18.889 31.4653 18.7148C31.5178 18.5962 31.628 18.5962 31.735 18.5962C31.5713 18.4146 31.3551 18.4146 31.1378 18.296C31.4107 18.2372 31.6815 18.2372 31.9502 18.296C32.1685 18.3547 32.3837 18.4744 32.6031 18.5363C32.7091 18.5962 32.8162 18.656 32.8739 18.7767C32.7091 18.4146 32.4939 18.2372 32.1685 18.1144C32.114 18.0525 32.1685 17.9926 32.2231 17.9926C32.3291 17.9328 32.4404 18.0525 32.5496 18.1144C32.6031 18.1144 32.6566 18.0525 32.6031 17.9926C32.5496 17.9926 32.4939 17.9328 32.4939 17.9328C32.7091 17.6924 32.9274 17.9328 33.1426 17.9328C33.1961 17.9328 33.2539 18.0525 33.3074 18.1144C33.3074 18.0525 33.3074 17.9926 33.3599 17.9328C32.7668 17.6924 32.1685 17.3922 31.5713 17.3293C31.0853 17.2705 30.5983 17.2705 30.1102 17.2705C29.1372 17.2106 28.161 17.2705 27.1859 17.1519C27.7275 16.8485 28.3783 17.2106 28.9189 16.9713C28.8643 16.8485 28.6995 16.9105 28.647 16.7887C29.027 16.5483 29.513 16.9713 29.8394 16.7299C29.3534 16.5483 28.8108 16.6082 28.3206 16.4287C28.4098 16.3048 28.5169 16.2828 28.6271 16.287C28.5631 16.2229 28.4486 16.1138 28.5935 16.0067C28.7572 15.9448 28.9735 16.0665 29.1372 16.0067C28.5935 15.886 27.9984 15.886 27.6184 15.4042C28.3206 15.104 29.0795 15.2226 29.8394 15.104C30.2183 14.9823 30.5983 14.9823 30.9762 15.104C31.0853 15.1628 31.1913 15.2226 31.248 15.3444C31.3551 15.1628 31.1913 15.1628 31.1378 15.104C30.8691 14.8637 30.5448 14.8637 30.2183 14.7409C30.0042 14.6821 29.7859 14.6821 29.5696 14.6223C28.9189 14.3819 28.2671 14.6223 27.5659 14.5005C27.4557 14.4407 27.294 14.5593 27.1324 14.5593C27.1859 14.6821 27.4011 14.5593 27.3476 14.6821C27.1859 14.9823 26.807 14.7409 26.4827 14.8007C25.8875 14.9224 25.2903 14.7409 24.6952 14.6223C25.1287 14.3819 25.6146 14.6223 26.1038 14.5593C26.0471 14.5005 26.2087 14.4407 26.1038 14.3819C26.3735 14.2013 26.5887 14.5593 26.8595 14.4407C26.9151 14.3819 26.7535 14.2601 26.807 14.1373C26.8595 14.0187 26.9676 14.1373 27.0757 14.0785V13.9599C27.5124 13.6566 27.8923 13.9599 28.3206 14.1373C28.1075 13.9599 27.8346 13.897 27.674 13.6566C27.6184 13.538 27.7275 13.4782 27.7811 13.4782C28.2146 13.4782 28.647 13.4782 29.027 13.6566C28.5935 13.2367 27.9459 13.2367 27.3476 13.2367C26.4827 13.2966 25.5601 13.4782 24.6952 13.2966C23.3915 13.116 22.2002 12.9932 20.9049 12.6941C20.8472 12.6342 20.7391 12.5713 20.7391 12.5125C20.7391 12.2711 21.012 12.5125 21.0655 12.3309L21.012 12.2711C21.1212 12.1525 21.2807 12.1525 21.3909 12.2711C21.4455 12.3309 21.3909 12.3928 21.3342 12.3928H21.2272C21.1736 12.6342 21.4455 12.5125 21.498 12.5125C21.8779 12.5713 22.3104 12.5125 22.6904 12.4527C23.1774 12.3309 23.6644 12.6342 24.1514 12.6941C24.0979 12.6342 23.9363 12.6342 23.9898 12.5125C24.1514 12.2711 24.4768 12.4527 24.6952 12.4527C25.1287 12.4527 25.5601 12.5713 26.0471 12.7529C26.1562 12.7529 26.2665 12.8746 26.3735 12.8158C26.5362 12.8158 26.32 12.7529 26.32 12.6941C25.7238 12.3309 25.0751 12.4527 24.5314 12.0307C24.4768 11.9709 24.5314 11.9121 24.587 11.9121C24.6952 11.8502 24.7487 12.0307 24.8547 11.9709C24.3687 11.4272 23.5563 11.9709 22.9591 11.6088C23.0693 11.4272 22.9591 11.2487 23.0168 11.127C23.0693 10.9454 23.339 11.0682 23.5563 11.0682C23.6119 11.127 23.6644 11.127 23.7179 11.127C24.0979 11.19 24.4223 11.3673 24.7487 11.4901C24.8547 11.5489 24.6952 11.4272 24.6952 11.3673C24.6952 11.3086 24.7487 11.2487 24.8012 11.2487C24.9103 11.2487 25.0216 11.3086 25.0216 11.4272C25.2347 11.3673 25.454 11.3673 25.6146 11.4272C25.7773 11.5489 25.8875 11.7893 26.1038 11.7893C26.0471 11.6088 25.8875 11.5489 25.7773 11.4272C25.7238 11.3673 25.7773 11.3086 25.8298 11.3086H26.1038C25.94 11.3086 25.8298 11.2487 25.7238 11.2487C25.3963 11.19 25.1811 10.9454 24.9103 10.8268C24.9639 10.705 25.1287 10.768 25.2347 10.705C24.9103 10.4647 24.4223 10.705 24.0979 10.4048C24.4223 10.2243 24.6952 10.2243 25.0216 10.2831C24.6385 10.1655 24.3162 10.2243 23.9363 10.2243C23.7757 10.2831 23.6119 10.2243 23.5028 10.0427C23.4492 9.9241 23.7179 9.98287 23.6119 9.86427C23.3915 9.74251 23.1228 9.9241 22.852 9.80234L22.9055 9.74251C22.6368 9.50109 22.3639 9.62285 22.0942 9.68268C22.2569 9.80234 22.0396 9.80234 22.0396 9.86427C21.6607 9.86427 21.2807 9.98288 20.9049 9.98288C20.5218 10.0427 20.0883 10.1655 19.7671 10.2243C19.5488 10.2243 19.3872 9.9241 19.1143 9.86427C19.1688 9.74251 19.3336 9.80234 19.4396 9.80234C19.8731 9.74251 20.3623 9.9241 20.7947 9.80234C20.9049 9.80234 21.1736 9.98288 21.2272 9.68268C21.1212 9.68268 21.012 9.74251 20.9574 9.62285C21.3342 9.44231 21.7173 9.62285 22.0942 9.44232C21.8779 9.44232 21.7173 9.26073 21.5515 9.2009C21.7173 8.90175 21.9325 9.13897 22.0942 9.26073C22.2002 9.32371 22.2569 9.13897 22.3639 9.2009C22.6368 9.44231 22.9591 9.62285 23.2855 9.50109C22.9591 9.38354 22.6368 9.32371 22.4196 9.02036C22.852 8.90175 23.2855 9.02036 23.6644 9.2009C23.4492 8.96158 23.1774 8.83878 22.852 8.77895C21.6071 8.65719 20.4148 8.53858 19.2234 8.65719C19.1143 8.65719 18.7899 8.90175 18.7364 8.72017C18.6829 8.41682 19.1143 8.59736 19.2759 8.41682C19.0628 8.23944 18.7899 8.53858 18.6829 8.29822C19.2234 8.0568 19.8196 8.29821 20.4148 8.41682C20.3623 8.17646 20.0883 8.35699 20.0348 8.17646C20.0348 8.11663 20.0883 8.0568 20.146 8.0568C20.4148 8.0568 20.7391 8.23944 20.9574 8.17646C21.2807 8.0568 21.6607 8.23944 21.985 8.23944C21.7667 7.99487 21.498 7.99487 21.2807 7.93504C20.7947 7.75346 20.2531 7.87626 19.7671 7.57607L19.8196 7.51309C19.7671 7.51309 19.7136 7.45431 19.7136 7.45431C20.0883 7.03236 20.5785 7.51309 20.9574 7.45431C20.8472 7.45431 20.7947 7.39448 20.7391 7.3357C20.9049 7.2129 21.0655 7.3357 21.2272 7.27272C20.2531 7.03236 19.2759 7.03236 18.2504 6.85077C18.1413 6.85077 18.1948 6.73216 18.1948 6.67233C18.5747 6.31021 19.0628 6.67233 19.4953 6.49075C18.9547 6.43092 18.3564 6.37844 17.8159 6.43092C17.3267 6.47605 16.8376 6.52118 16.3495 6.4897C16.3506 6.4897 16.3516 6.49075 16.3527 6.49075C16.3527 6.55058 16.5689 6.61356 16.4052 6.67233C16.1365 6.73216 15.8656 6.67233 15.5969 6.79094C15.8121 6.85077 16.084 6.73216 16.2991 6.85077C15.8121 7.15412 15.1603 6.97253 14.7268 7.3357C14.6208 7.45431 14.3468 7.3357 14.1873 7.39448C13.8619 7.57607 13.4284 7.57607 13.103 7.81748C13.5355 7.87626 13.9144 7.81748 14.3468 7.63485C14.4046 7.63485 14.4581 7.75345 14.4581 7.75345C14.8381 7.51309 15.2138 7.63485 15.6463 7.57607C15.704 7.51309 15.8121 7.57607 15.8121 7.45431C15.8656 7.57607 16.0304 7.69468 15.8656 7.75345C15.4857 7.87626 15.1603 8.11663 14.7845 7.99487C14.6208 7.99487 14.4581 7.99487 14.2943 8.0568C14.1873 8.11663 14.0781 8.23944 13.9144 8.23944C13.9679 8.29822 13.6992 8.35699 13.8619 8.35699C13.9679 8.35699 14.0256 8.23944 14.1873 8.23944C14.2943 8.23944 14.2408 8.47875 14.3468 8.41682C14.4046 8.29821 14.5652 8.23944 14.6208 8.29822C15.1057 8.35699 15.6463 8.0568 16.084 8.29822C16.084 8.29822 15.9738 8.53858 15.8656 8.53858C15.3251 8.53858 14.7845 8.65719 14.2943 8.72017C13.8619 8.72017 13.3738 8.90175 12.8868 8.72017C12.6149 8.65719 12.4008 8.72017 12.1825 8.90175C12.4008 8.96158 12.6149 8.83878 12.7797 8.96158C12.5625 9.2009 12.236 9.2009 11.9673 9.38353C11.856 9.50109 11.6965 9.56092 11.5873 9.74251C12.236 9.44231 12.9424 9.32371 13.5932 9.07914C13.6992 9.02036 13.7538 9.32371 13.5932 9.38353C13.5008 9.38353 13.4116 9.50529 13.3224 9.51264C13.5197 9.54098 13.717 9.44651 13.9144 9.50109C14.0256 9.50109 14.2408 9.50109 14.2943 9.38353C14.2943 9.32371 14.1317 9.26073 14.0781 9.2009C14.4046 8.96158 15.1603 8.83878 15.1057 9.44232C15.1057 9.56092 14.9451 9.50109 14.8916 9.50109C14.7845 9.44231 14.8916 9.32371 14.8381 9.26073C14.7268 9.2009 14.6208 9.38354 14.5116 9.32371C14.5116 9.50109 14.8381 9.38354 14.7845 9.62285C14.7268 9.68268 14.6743 9.80234 14.6208 9.80234C13.9679 9.68268 13.4284 9.98288 12.8333 9.9241C12.6149 9.9241 12.236 9.80234 12.0744 9.98288C12.1825 9.98288 12.3431 9.98287 12.4008 10.1046C12.4008 10.2243 12.1825 10.2243 12.1279 10.346C12.1825 10.346 12.236 10.346 12.2895 10.4048C12.4008 10.2831 12.5625 10.2831 12.6695 10.2831C13.5355 10.1655 14.4046 10.0427 15.2705 10.0427C15.4332 10.0427 15.8121 9.98288 15.8121 10.1655C15.7575 10.4647 15.3251 10.2831 14.9976 10.346C14.8916 10.4048 14.7845 10.5864 14.7268 10.5864C14.3468 10.705 14.0256 10.4647 13.6457 10.5266C13.6457 10.5864 13.6457 10.6462 13.5932 10.6462H12.8333L12.8868 10.705C12.8333 10.8268 12.6695 10.768 12.5625 10.768C12.1279 10.5864 11.6965 10.4048 11.2074 10.5266C11.3165 10.5266 11.4813 10.4647 11.5873 10.5266C11.6965 10.5864 11.7479 10.6462 11.856 10.6462C11.9673 10.705 11.856 10.9454 11.8036 10.9454C11.3711 10.8268 10.9912 10.8268 10.6112 10.8866C10.7224 11.0682 10.9376 10.8268 10.9912 11.0094C10.9912 11.2487 10.7224 11.0094 10.6647 11.19C10.3425 11.0094 10.016 11.3673 9.63923 11.3086C9.96356 11.4901 10.2889 11.2487 10.6647 11.3673C10.7749 11.3673 10.882 11.3086 10.9912 11.2487C11.4813 11.19 11.9673 11.19 12.4543 11.3673C12.4543 11.3673 12.4543 11.4901 12.4008 11.4901H11.9673C11.9106 11.4901 11.9106 11.6088 11.9106 11.6088C12.236 11.7316 12.5625 11.4272 12.8868 11.7316C12.8333 11.7893 12.7797 11.9121 12.6695 11.8502C12.4543 11.7893 12.236 11.8502 12.0208 11.7893C12.0208 11.9121 11.8561 11.8502 11.9106 11.9121C12.0744 12.0307 12.2895 11.9709 12.4543 11.9709C12.4543 12.0307 12.6695 12.0307 12.5068 12.1525C12.4921 12.1693 12.4732 12.1766 12.4543 12.1787C12.659 12.2637 12.9046 12.2217 13.103 12.3309C13.1597 12.3928 13.103 12.4527 13.0484 12.4527H12.8333C12.9424 12.6342 13.2132 12.3928 13.2668 12.6342C13.2668 12.6941 13.2132 12.7529 13.1597 12.7529C12.5625 12.7529 11.9673 12.8158 11.4236 12.4527C11.3711 12.3928 11.4236 12.3309 11.4813 12.3309C11.8036 12.2711 12.0208 12.5125 12.3431 12.5125C12.0208 12.2711 11.5307 12.3928 11.2074 12.0926C11.3165 11.9709 11.4236 11.9709 11.5873 11.9709C11.262 11.7893 10.9912 12.0307 10.6647 11.9709C10.5041 11.9121 10.396 11.7893 10.2323 11.8502V11.9709C9.79877 12.1525 9.36527 12.1525 8.93282 12.3309C9.31174 12.3928 9.63923 12.1525 10.016 12.3309C9.96356 12.4527 9.74524 12.3928 9.74524 12.5713C10.016 12.5713 10.2323 12.5125 10.5041 12.6342C9.8523 12.8746 9.09342 12.7529 8.44684 13.116C8.88034 12.9932 9.25926 12.9344 9.69171 12.9932C9.79877 12.9932 9.74524 13.1748 9.79877 13.1748C10.3425 12.9932 10.7749 13.1748 11.262 13.2966C11.3165 13.3564 11.3711 13.4152 11.4236 13.4782C11.1549 13.5968 10.8285 13.4152 10.5577 13.4152C9.79877 13.2966 9.1501 13.5968 8.44684 13.897C8.88034 13.7783 9.36527 13.5968 9.8523 13.6566C9.90898 13.6566 10.016 13.8371 10.0685 13.7783C10.4485 13.7783 10.8285 13.897 11.2074 13.8371C11.6965 13.7196 12.1279 13.7196 12.6149 13.897C12.4008 14.0187 12.1279 13.897 11.9106 13.9599C11.9106 13.9599 11.9106 14.0785 11.9673 14.0785C11.262 14.4407 10.5577 14.0785 9.79877 14.2013C9.47548 14.3189 9.20363 14.3819 8.88034 14.3819C9.36527 14.4407 9.90898 14.1373 10.3425 14.3819C10.6112 14.5593 11.0436 14.5005 11.4236 14.5005C11.4813 14.5005 11.4813 14.5593 11.4813 14.6223C11.6965 14.6223 11.6965 14.7409 11.7479 14.9224C11.2074 15.0411 10.7224 14.7409 10.1777 14.7409C10.1242 14.7409 10.1242 14.8637 10.1242 14.8637C10.3425 14.9224 10.5577 14.8007 10.7224 14.9823C10.6112 15.104 10.5577 15.2825 10.4485 15.3444C10.0685 15.4042 9.74524 15.2226 9.36527 15.4042C9.63923 15.4042 9.96356 15.3444 10.016 15.5848C10.0685 15.7044 9.8523 15.5848 9.79877 15.7044C9.47548 15.526 9.1501 15.7632 8.82471 15.7632C8.98531 15.886 9.1501 15.7044 9.31174 15.7632C9.36527 15.7632 9.36527 15.8262 9.36527 15.886C9.31174 15.9448 9.31174 16.0067 9.25926 16.0067C9.09342 16.0067 8.93282 16.0665 8.77013 16.0665C8.33768 16.1264 7.8517 16.0665 7.4182 16.0665C7.4182 16.1852 7.25446 16.1264 7.30799 16.1852C7.52527 16.2481 7.79397 16.0067 8.01125 16.1852C7.68691 16.4885 7.25446 16.1852 6.92802 16.3667C6.76638 16.4885 6.54911 16.5483 6.44205 16.7299C6.87449 16.6701 7.25446 16.4287 7.68691 16.5483C7.68691 16.6701 7.52527 16.6701 7.52527 16.7299C7.63338 16.7887 7.8517 16.6701 7.95772 16.7887C7.68691 17.0301 7.30799 17.0301 7.03929 17.2106C7.20093 17.2705 7.4182 17.092 7.36152 17.2106C7.20093 17.5108 6.76638 17.6336 6.49453 17.874C6.71285 17.8142 6.92803 17.7512 7.1474 17.6924C7.47279 17.6336 7.8517 17.4521 8.22642 17.5108C8.39121 17.5738 8.33768 17.7512 8.22642 17.8142C7.74149 17.8142 7.30799 17.874 6.82096 17.9926C6.60579 18.0525 6.33288 18.2372 6.16914 18.4744C6.49453 18.296 6.82096 17.9926 7.20093 18.1144C7.30799 18.1144 7.52527 18.1144 7.57775 18.2372C7.57775 18.3547 7.30799 18.5363 7.36152 18.5363C7.68691 18.656 8.06688 18.4146 8.39121 18.5962C8.14455 18.8176 7.67326 18.7347 7.46754 19.0381C7.44864 19.0664 7.4308 19.101 7.4182 19.1357C7.52002 19.101 7.61973 19.0643 7.7205 19.0381C7.78243 19.0286 7.84121 19.0181 7.90523 19.0181C8.66412 18.9583 9.36527 18.656 10.1242 18.8365C9.90898 18.9257 9.69171 18.9919 9.47338 19.0381C8.44055 19.2637 7.38567 19.1 6.36122 19.332C6.54911 19.3225 6.71285 19.4243 6.87449 19.5587C6.54911 19.7403 6.16914 19.4999 5.90043 19.6804C5.68211 19.799 5.36092 19.7403 5.19613 20.0405C5.52047 19.9806 5.90044 19.6206 6.06208 19.9806C6.11561 20.1633 5.62963 19.9806 5.73984 20.2808C5.73984 20.3438 6.06208 20.1633 6.16914 20.3438C6.16914 20.4026 6.0096 20.3438 6.0096 20.4624C6.44204 20.5212 6.87449 20.3438 7.25446 20.5212C6.92803 20.7028 6.54911 20.5852 6.22582 20.6429V20.7626C6.27935 20.8245 6.44204 20.7626 6.38851 20.8245C6.27935 21.0061 5.95397 20.8844 5.78917 21.0659C6.0096 21.0659 6.16914 21.0659 6.38851 21.1846C6.49453 21.3063 6.82096 21.0659 6.87449 21.2465C6.92803 21.5467 6.49453 21.4879 6.27935 21.4879C5.68211 21.4879 5.08697 21.4879 4.49078 21.5467V21.6695C4.70805 21.6065 4.92323 21.5467 5.1405 21.6695C4.65452 22.0285 4.06148 21.8469 3.51567 22.0904C3.84211 22.0904 4.16854 22.0904 4.49078 22.2699C4.16854 22.5722 3.73504 22.3906 3.35508 22.5102C4.11081 22.632 4.92323 22.3906 5.68211 22.5722C5.68211 22.6918 5.574 22.632 5.52047 22.6918C5.30319 22.7506 5.08697 22.632 4.8697 22.7506C4.70805 22.8125 4.54746 22.8724 4.38372 22.8724C4.32808 22.9322 4.27455 22.991 4.16854 22.991C4.49078 23.1138 4.76263 22.7506 5.08697 22.8724C5.24966 22.991 5.52047 22.8724 5.46694 23.054C5.46694 23.1726 5.19613 23.1138 5.08697 23.3541C5.24966 23.3541 5.46694 23.2943 5.574 23.4717C5.1405 23.7131 4.70805 23.7131 4.27455 23.6543C3.78857 23.5357 3.24486 23.5945 2.75888 23.6543C2.91843 23.7131 3.08427 23.6543 3.19133 23.8359C2.97511 24.0165 2.7043 24.1351 2.43245 24.2579C2.59619 24.2579 2.7043 24.1981 2.81242 24.1351C2.8649 24.1351 2.97511 24.2579 3.08427 24.1981C3.08427 24.1351 3.08427 24.0763 3.13675 24.0763C3.35508 24.0763 3.5713 24.0165 3.73504 24.1351C3.62378 24.2579 3.40861 24.0763 3.35508 24.3167C3.73504 24.3765 4.27455 24.0763 4.60099 24.3765C4.28715 24.5644 3.94287 24.6704 3.59229 24.7628C3.03599 24.9129 2.46604 25.0325 2 25.402C2.16374 25.402 2.43245 25.339 2.54266 25.339C3.30259 25.2204 4.00375 25.1018 4.76263 25.1606C4.92323 25.1606 5.24966 25.1018 5.19613 25.339C5.08697 25.7022 4.70805 25.8229 4.27455 25.8229C4.27455 25.8229 4.27455 25.9425 4.32809 25.9425C4.54746 25.8838 4.76263 25.9425 4.92323 25.8229C5.08697 25.761 5.24966 25.7022 5.41341 25.5825C5.574 25.5206 5.73984 25.4618 5.90043 25.5206C5.95397 25.5825 5.95397 25.6423 5.95397 25.7022C5.62963 26.0643 5.19613 26.0643 4.76263 26.1829C5.08697 26.3057 5.41341 26.0643 5.78917 26.0643C6.11561 26.1241 6.38851 25.8838 6.76638 25.9425C6.71285 25.8229 6.49453 25.8838 6.54911 25.761C6.65932 25.5825 7.03929 25.1018 7.20093 25.339C7.30799 25.4618 6.98156 25.5825 7.03929 25.5825C7.4182 26.0045 7.79397 25.2802 8.28415 25.4618V25.339C8.12041 25.2802 7.95772 25.402 7.79397 25.2802C8.17394 25.0388 8.66412 25.0388 9.04304 24.7984C9.06928 24.7984 9.03149 24.7848 8.98426 24.7628C8.93702 24.7376 8.88034 24.7103 8.88034 24.6798C8.88034 24.4384 9.09342 24.4982 9.20363 24.4982C9.90898 24.3167 10.6112 24.0165 11.262 24.3167C10.882 24.4384 10.5577 24.557 10.1777 24.4982C10.3425 24.7376 10.7224 24.3167 10.7749 24.6798C10.7833 24.7061 10.7833 24.7365 10.7802 24.7628C10.7592 24.894 10.5881 24.9695 10.4485 24.9212C10.5041 25.2204 10.8285 24.9212 10.7749 25.1018C10.7749 25.1606 10.6647 25.339 10.6112 25.339C10.3425 25.4618 10.016 25.2802 9.74524 25.339C9.36527 25.4618 8.98531 25.2802 8.60639 25.5206C8.55286 25.5825 8.60639 25.6423 8.66412 25.6423C8.39121 25.8229 8.06688 25.6423 7.8517 25.9425H7.68691C8.06688 26.0045 8.39121 25.8838 8.77013 25.9425L8.7166 26.0045L8.77013 26.0643C8.60639 26.1241 8.50037 26.3057 8.33768 26.3645C8.01125 26.4243 7.68691 26.2459 7.36152 26.4863C7.63338 26.5461 7.90523 26.4243 8.17394 26.5461C8.01125 26.6647 7.79397 26.6059 7.63338 26.6647C7.63338 26.7277 7.63338 26.7864 7.68691 26.7864C8.06688 26.7864 8.50037 26.7277 8.88034 26.8463C8.60639 27.0279 8.28415 27.2084 8.01125 27.327C8.01125 27.327 7.95772 27.2084 7.90523 27.2084C7.68691 27.2084 7.52527 27.0866 7.30799 27.0279C7.03929 26.9691 6.76638 27.0866 6.49453 27.1496C6.54911 27.1496 6.65932 27.1496 6.65932 27.2084C6.60579 27.327 6.44205 27.2682 6.33288 27.2682C5.95397 27.0279 5.52047 27.1496 5.1405 26.9691C4.76263 26.7864 4.32808 26.7277 3.95022 26.9051C3.95022 26.9051 3.67836 26.9051 3.78857 26.9691C4.16854 27.0866 4.65452 26.8463 4.98096 27.0866C4.54746 27.5075 3.89564 27.39 3.51567 27.8088C4.22207 27.5684 4.92323 27.4488 5.62963 27.4488C5.90043 27.4488 6.22582 27.327 6.49453 27.5684C5.90043 27.6902 5.41341 27.9904 4.81616 28.1709C4.76263 28.2307 4.76263 28.3525 4.65452 28.4123C4.11081 28.5929 3.62378 28.8343 3.19133 29.1334C3.46319 29.1964 3.73504 28.9571 4.00375 28.9571C4.32809 28.9571 4.81616 28.4722 5.1405 28.7744C4.95787 29.0316 4.5716 29.0683 4.39631 29.3392C4.36587 29.3853 4.34593 29.4378 4.32809 29.4976C4.35957 29.4284 4.40681 29.3811 4.46139 29.3392C4.50652 29.3087 4.55376 29.2825 4.60099 29.2562C4.8697 29.1964 5.08697 29.1334 5.30319 28.9571C5.41341 28.8941 5.574 29.0159 5.68211 28.9571C5.84585 28.8343 6.0096 28.7744 6.16914 28.7125C6.22582 28.7125 6.22582 28.7745 6.22582 28.8343C6.16914 28.9571 6.0096 28.9571 5.95397 29.0746C6.11561 29.1964 6.27935 28.9571 6.44205 28.9571C6.71285 28.9571 6.92803 28.5929 7.1474 28.5309C7.63338 28.3525 8.12041 28.3525 8.60639 28.2307C8.77013 28.2307 8.93282 28.1121 9.09342 28.0502C9.69171 27.9305 10.2323 27.8718 10.8285 27.75C11.1014 27.6902 11.3711 27.5684 11.6409 27.75C10.9912 28.0502 10.2889 28.1709 9.5836 28.1709C9.4188 28.2307 9.31174 28.4722 9.09342 28.5309C8.39121 28.6527 7.74149 28.6527 7.09282 28.9571C7.4182 29.1334 7.79397 28.7744 8.12041 29.0159C8.12041 29.0746 8.12041 29.1964 8.06688 29.1964C7.82756 29.2699 7.61029 29.2993 7.38462 29.3392C7.25446 29.3654 7.12221 29.3916 6.98156 29.4378C7.25446 29.3748 7.57775 29.2562 7.8517 29.4378C7.74149 29.4976 7.68691 29.6152 7.63338 29.738C7.63338 29.7978 7.74149 29.7978 7.79397 29.7978C7.90523 29.738 7.90523 29.6152 8.01125 29.5564C8.22642 29.4378 8.44684 29.4378 8.66412 29.4378C8.7166 29.4378 8.77013 29.5564 8.77013 29.6782C8.96011 29.6068 9.1333 29.4546 9.31594 29.3392C9.44924 29.2594 9.58884 29.1964 9.74524 29.1964C10.3425 29.1334 10.882 29.0746 11.4813 29.0159C11.1549 28.9571 10.882 29.0746 10.5577 28.9571C11.1014 28.6527 11.6965 28.6527 12.2895 28.4722C12.4008 28.4722 12.5625 28.4123 12.5068 28.5309C12.4543 28.7744 12.0744 28.5309 11.9106 28.8343C12.1279 28.9571 12.3431 28.8343 12.5625 28.8941C12.6149 28.8941 12.6149 28.7744 12.6695 28.7744C13.2668 28.7125 13.9679 28.5309 14.4581 28.8941C13.9679 29.0746 13.4284 28.7744 12.9424 28.8941C12.5562 29.0253 12.1972 29.1534 11.7689 29.3423L11.6493 29.3434C11.558 29.3717 11.4656 29.4053 11.3711 29.4378H10.9912C10.5041 29.4378 10.016 29.4378 9.53006 29.6152C9.53006 29.6152 9.53006 29.738 9.5836 29.738C9.04304 29.9196 8.44684 30.2187 7.90523 30.2786C7.52527 30.2786 7.1474 30.6417 6.71285 30.7604C6.98156 30.9409 7.20093 30.6417 7.52527 30.5189C7.57775 30.5189 7.63338 30.5189 7.68691 30.5788C7.74149 30.7604 7.68691 30.8821 7.57775 31.0049C7.52527 31.1225 7.63338 31.1823 7.68691 31.2421C7.79397 31.0049 8.06688 30.7604 8.28415 31.0049C8.33768 31.0637 8.28415 31.1823 8.28415 31.2421C8.50038 30.9409 8.82471 30.7005 9.1501 30.7005C9.25926 30.7005 9.25926 30.8821 9.1501 30.9409C9.4188 30.9409 9.63923 30.7604 9.8523 30.5788C10.016 30.5189 10.1777 30.7005 10.3425 30.5788C10.7224 30.4003 11.1014 30.2187 11.5307 30.161C11.5873 30.161 11.5873 30.2187 11.5873 30.2786C11.7479 30.2187 11.9106 30.161 12.0744 30.161C12.1279 30.1012 12.236 30.161 12.236 30.0382C12.236 30.1012 12.4543 30.1012 12.2895 30.2187C12.8333 30.2786 13.3738 30.1012 13.9144 30.1012C13.6992 29.9196 13.4284 30.161 13.2668 29.9196C13.2668 29.8598 13.2668 29.7978 13.3192 29.7978C13.8619 29.7978 14.4581 29.8598 14.9976 29.7978C14.7268 29.5564 14.3468 29.7978 14.0256 29.738C13.9679 29.738 13.9679 29.6782 13.9144 29.6152C14.0036 29.5564 14.0949 29.505 14.1873 29.462C14.8192 29.2132 15.641 29.2394 16.1921 29.1964C16.2572 29.1964 16.2635 29.2636 16.2572 29.3392C16.2519 29.3916 16.2446 29.4483 16.2446 29.4976C16.084 30.0382 15.9192 30.5788 15.704 31.0637C15.4332 31.6043 15.0532 32.086 14.5652 32.4492C13.9144 32.8701 13.2279 33.1882 12.4449 33.2984L4.06148 33.2963C4.06148 33.4621 4.05833 33.8505 4.06148 33.9082H28.858H29.3083H37V33.2973H26.1552ZM28.161 27.5684C28.2671 27.6314 28.4308 27.6314 28.541 27.75C28.3783 27.8088 28.1075 27.9904 27.9459 27.8088C27.8923 27.6902 28.161 27.8088 28.1075 27.6902C28.0519 27.6314 27.8923 27.75 27.8923 27.6314C27.9459 27.5075 28.0645 27.5159 28.161 27.5684ZM30.3831 23.1138C30.7589 23.1726 31.1913 23.1138 31.5713 23.3541C31.628 23.4129 31.5713 23.4717 31.5178 23.4717C31.3015 23.4717 31.1179 23.5231 30.9216 23.4129C30.7054 23.2943 30.4891 23.3541 30.2719 23.2324C30.3264 23.1726 30.3264 23.1138 30.3831 23.1138ZM29.1907 18.4146C29.2443 18.4146 29.2558 18.6161 29.3534 18.5363C29.5697 18.3547 29.7859 18.5363 30.0042 18.5962C30.0042 18.656 30.2183 18.7148 30.0567 18.7767C29.7859 18.8365 29.513 18.8365 29.2443 18.7767C29.1372 18.7148 28.9735 18.4744 29.1907 18.4146ZM5.30319 22.1471C5.19613 21.8469 5.90044 21.8469 6.22582 21.8469C6.27935 21.8469 6.27935 21.9099 6.33288 21.9099C6.06208 22.209 5.46694 22.5102 5.30319 22.1471ZM8.06688 23.8947C7.95772 24.1981 7.52527 23.9577 7.25446 23.8359C7.30799 23.7131 7.47278 23.6543 7.52527 23.7131C7.74149 23.7131 8.12985 23.7205 8.06688 23.8947ZM8.50038 23.5945C8.39121 23.5945 8.17394 23.6543 8.17394 23.5357C8.12041 23.4129 8.39121 23.3541 8.50038 23.4717V23.5945ZM8.50038 22.3287C8.50038 22.3906 8.50037 22.4504 8.44684 22.4504C8.01125 22.3906 7.63338 22.632 7.20093 22.4504C7.30799 22.3906 7.36152 22.3287 7.47278 22.3906V22.2699C7.25446 22.3287 7.03929 22.2699 6.82096 22.2699C6.82096 22.3906 6.76638 22.3906 6.71285 22.4504C6.60579 22.5102 6.60579 22.3906 6.54911 22.3287C6.54911 22.3906 6.54911 22.4504 6.49453 22.4504C6.44204 22.3287 6.38851 22.5102 6.33288 22.4504C6.27935 22.3906 6.22582 22.3906 6.27935 22.3287C6.65932 22.0904 7.03929 21.9686 7.47278 22.0285C7.52527 22.0285 7.52527 22.0904 7.52527 22.1471C7.90523 22.1471 8.22642 21.9686 8.60639 22.1471C8.55286 22.209 8.50037 22.209 8.44684 22.209C8.39121 22.2699 8.44684 22.2699 8.50038 22.3287ZM21.3909 27.5075C21.2807 27.5075 21.1736 27.5684 21.1212 27.4488C21.1212 27.5075 21.1212 27.5684 21.0655 27.5684H20.5785C20.5218 27.5684 20.5218 27.4488 20.5218 27.39C20.5785 27.327 20.6856 27.2682 20.7947 27.2682C20.9574 27.2682 21.012 27.327 21.1212 27.4488C21.2272 27.39 21.3342 27.327 21.4455 27.39C21.4455 27.4488 21.3909 27.5075 21.3909 27.5075ZM20.4683 20.0405V19.9218C20.632 19.9218 20.8472 19.7403 21.012 19.9218C20.8472 20.1024 20.6856 20.1024 20.4683 20.0405ZM20.6856 24.3167C20.632 24.3765 20.5785 24.4384 20.5218 24.3167C20.5218 24.1981 20.5218 24.0165 20.632 23.9577C20.7391 23.9577 20.7947 24.1981 20.6856 24.3167ZM20.6856 25.4618C20.7391 25.2204 21.012 25.1606 21.2807 25.2204C21.3342 25.2204 21.3342 25.2802 21.3342 25.339C21.2807 25.4618 21.1505 25.488 21.0655 25.5825C20.9049 25.761 20.7391 26.1241 20.5218 26.0643C20.3066 26.0045 20.5785 25.7022 20.6856 25.4618ZM21.4455 26.3645C21.4455 26.4243 21.3741 26.3813 21.3342 26.4243C21.1736 26.6059 21.0655 26.9691 20.7947 26.7864C20.9574 26.5461 21.1212 26.3057 21.3342 26.1829C21.3909 26.1829 21.4455 26.1829 21.4455 26.2459V26.3645ZM21.2272 23.2943C21.1212 23.2324 20.9763 23.0739 21.1212 22.991C21.2272 22.9322 21.3909 22.991 21.498 22.991C21.8779 22.8125 22.2569 22.8125 22.6368 22.8125C22.6904 22.8125 22.6904 22.8724 22.7428 22.9322C22.7428 22.991 22.7428 23.054 22.6904 23.054C22.3639 23.1726 22.0396 22.9322 21.7667 23.1138C21.6071 23.1726 21.4455 23.2943 21.2272 23.2943ZM22.7428 25.761C22.4731 25.761 22.2002 25.8229 21.9325 25.761C22.0396 25.5206 22.3104 25.6423 22.4196 25.4618C22.5791 25.5825 22.7995 25.402 22.9055 25.5825C22.9591 25.7022 22.7995 25.7022 22.7428 25.761ZM23.339 27.2682C23.339 27.2084 23.339 27.1496 23.3915 27.1496C23.4492 27.1496 23.4492 27.1391 23.5028 27.1496C23.8827 27.2084 24.2617 27.2084 24.6385 27.39C24.587 27.4488 24.5314 27.5684 24.4768 27.5684C24.1514 27.4488 23.8827 27.5075 23.6119 27.39C23.5563 27.39 23.3915 27.39 23.339 27.2682ZM24.587 28.7125H24.2617C24.2617 28.7744 24.2617 28.8343 24.2081 28.8343C23.9898 28.7745 23.7757 28.8343 23.6119 28.7125C23.7757 28.3525 24.0979 28.5309 24.4223 28.5309C24.4768 28.5309 24.587 28.4722 24.6385 28.5929C24.6385 28.6527 24.6385 28.7125 24.587 28.7125ZM27.7811 25.7022C27.4557 25.8229 26.9676 26.0045 26.7535 25.6423C26.6422 25.5206 26.9193 25.4377 26.9676 25.4618C27.2395 25.5825 27.5659 25.402 27.7811 25.7022ZM27.3476 24.1981C27.4011 24.3167 27.1859 24.3167 27.0222 24.3167C26.807 24.3167 26.5362 24.3765 26.3735 24.1981C26.7 24.0763 27.2395 23.8359 27.3476 24.1981ZM26.427 23.054C26.5887 23.1726 26.7535 23.2324 26.9151 23.2324C26.9676 23.2324 27.0222 23.2943 27.0222 23.3541C26.9676 23.4717 26.8553 23.4402 26.807 23.4129C26.5887 23.2943 26.32 23.4717 26.1562 23.2324C26.2665 23.1726 26.32 22.991 26.427 23.054ZM25.2347 26.0643C25.3963 26.0643 25.558 26.0192 25.7238 26.0643C25.94 26.1241 26.2087 26.0643 26.3735 26.2459C26.427 26.3057 26.3735 26.3645 26.32 26.3645C26.0471 26.3057 25.7773 26.4243 25.5076 26.3057C25.3963 26.3057 25.2903 26.3057 25.1811 26.1829C25.1287 26.1241 25.1811 26.0643 25.2347 26.0643ZM25.2347 28.6527C25.0216 28.7125 24.8547 28.7744 24.6385 28.7125C24.7487 28.6527 24.8547 28.4722 24.9639 28.5309C25.0751 28.5929 25.1811 28.5309 25.2347 28.6527ZM24.8547 27.1496C24.6385 27.0866 24.4223 27.2084 24.2617 27.1496C24.2081 27.0866 24.0979 27.1496 24.0979 27.0279C24.0979 26.9691 24.0979 26.9691 24.1514 26.9051C24.2081 26.8463 24.227 27.0331 24.3162 26.9691C24.4768 26.8463 24.7487 26.9051 24.9103 27.0279C24.9639 27.0866 24.9103 27.1496 24.8547 27.1496ZM24.8547 24.4384C24.8547 24.557 24.6952 24.4384 24.6385 24.557C24.587 24.6179 24.5314 24.557 24.5314 24.4982C24.587 24.4384 24.6259 24.3765 24.7487 24.3765C24.8012 24.3765 24.8547 24.4384 24.8547 24.4384ZM24.587 23.5357C24.6385 23.5357 24.6385 23.5945 24.6952 23.6543C24.6952 23.7131 24.6952 23.7771 24.6385 23.7771C24.5314 23.7771 24.4223 23.6543 24.3162 23.7131C24.0444 23.7771 23.7757 23.6543 23.5563 23.8359C23.7757 23.8947 24.0444 23.7771 24.2617 23.8947C23.7757 24.1351 23.1774 24.3167 22.6904 24.1981C22.6526 24.1844 22.6148 24.175 22.577 24.1676C22.5906 24.1907 22.6053 24.2253 22.6368 24.2579C22.4731 24.3765 22.3639 24.4982 22.1508 24.4982C22.0942 24.4982 22.0942 24.557 22.0396 24.557C21.985 24.557 21.985 24.4982 21.985 24.4384C22.0826 24.2243 22.2674 24.2012 22.4626 24.1529C22.1981 24.134 21.9241 24.1897 21.7173 23.9577C21.985 23.6543 22.3639 23.6543 22.6904 23.7771C22.6368 23.8359 22.6368 23.8359 22.5791 23.8947C22.7995 23.7771 23.1228 23.9577 23.232 23.7131C23.2855 23.6543 23.0168 23.6543 23.0168 23.5357C23.0168 23.4717 23.1774 23.4129 23.2855 23.4129C23.5028 23.4129 23.7757 23.5357 23.9898 23.5357C24.2081 23.5945 24.3687 23.5357 24.587 23.5357ZM24.4223 22.6918C24.4223 22.632 24.3687 22.632 24.3162 22.632C24.3162 22.6918 24.3162 22.7506 24.2617 22.7506C24.0979 22.7506 23.9898 22.6918 23.8292 22.632C23.3915 22.5722 22.9591 22.6918 22.5791 22.4504C22.6904 21.9686 23.1228 22.3906 23.4492 22.209C22.7995 21.9099 22.0396 22.5722 21.498 22.0904C21.4455 22.0285 21.7173 22.0285 21.8244 21.9686C21.7173 21.8469 21.6187 21.9099 21.498 21.9099C21.4455 21.9099 21.4455 21.8469 21.3909 21.8469C21.6607 21.5467 21.9325 21.3651 22.2569 21.1846C22.4196 21.0659 22.7995 21.1247 23.0168 21.3651C22.7995 21.4879 22.4731 21.3063 22.3104 21.6065C22.3104 21.6695 22.3104 21.7881 22.3639 21.7881C22.5308 21.7881 22.6904 21.7283 22.852 21.7283C23.1774 21.7881 23.3915 22.0285 23.7179 21.9099C23.8292 21.8469 23.9363 21.6695 24.0979 21.7283C24.2617 21.7881 24.2617 22.0285 24.0979 22.0904H23.8292C23.8827 22.5102 24.4223 22.1471 24.587 22.5102C24.6385 22.632 24.4768 22.632 24.4223 22.6918ZM22.4196 18.0525C22.4731 17.9328 22.5854 17.9622 22.6904 17.9926C22.9055 18.0525 23.1228 17.874 23.2855 18.0525C23.0693 18.296 22.3639 18.5363 22.4196 18.0525ZM24.9639 16.5483C25.2347 16.4287 25.7238 16.3667 25.7773 16.6701C25.8298 16.7299 25.5685 16.7562 25.454 16.7887C25.0216 16.9105 24.587 17.0301 24.1514 16.7887C24.4223 16.7299 24.6952 16.6082 25.0216 16.6082L24.9639 16.5483ZM25.8298 21.1846C25.8298 21.1247 25.8875 21.1247 25.94 21.0659C25.94 21.1247 25.9935 21.1153 26.0471 21.1247C26.3735 21.1846 26.7 21.1846 26.9676 21.3651C26.7535 21.4249 26.807 21.4879 26.7 21.6695C26.427 21.4879 25.9936 21.6065 25.7773 21.3063C25.7773 21.2465 25.8875 21.2465 25.94 21.2465C25.8875 21.2465 25.8298 21.2465 25.8298 21.1846ZM25.7773 18.5962C25.7773 18.5363 25.8875 18.5363 25.94 18.5363C25.9936 18.5363 26.3735 18.5363 26.2087 18.7148C26.1038 18.7767 25.8875 18.7148 25.7773 18.5962ZM25.1287 17.2106C25.3963 17.092 25.6787 17.007 25.94 17.1519C26.0471 17.2106 26.1562 17.092 26.2665 17.2106C25.94 17.3922 25.5076 17.3922 25.1287 17.2106ZM24.9639 18.296C25.0751 18.3547 25.3438 18.3547 25.2903 18.4744C25.1287 18.8365 24.587 18.4744 24.2617 18.3547C24.4768 18.2372 24.7718 18.1868 24.9639 18.296ZM24.3162 17.1519C24.3162 17.092 24.4223 17.092 24.4768 17.092V17.2106C24.4223 17.2106 24.3162 17.2106 24.3162 17.1519ZM24.2617 19.3183C23.9898 19.4999 23.6644 19.5587 23.339 19.4401C23.5028 19.3813 23.6644 19.3813 23.7757 19.1987C23.9363 19.3183 24.0979 19.1987 24.2617 19.3183ZM24.5314 19.9806C24.4768 19.9218 24.5314 19.862 24.587 19.862C24.6385 19.862 24.65 19.8253 24.6952 19.862C24.9103 20.0405 25.2347 19.799 25.454 20.0405C25.454 20.1024 25.454 20.1633 25.3963 20.1633C25.1287 20.0405 24.8012 20.221 24.5314 19.9806ZM24.6952 21.6065C24.6385 21.4879 24.756 21.3063 25.0751 21.3063C25.1287 21.3063 25.1287 21.3651 25.1811 21.3651L25.1287 21.4249C25.3438 21.4879 25.6146 21.4249 25.8298 21.6695C25.8875 21.7283 25.8298 21.7881 25.7773 21.7881C25.3963 21.7881 24.8547 21.9686 24.6952 21.6065ZM25.6146 22.0904C25.5076 22.0904 25.2903 22.1471 25.1811 21.9686C25.6692 21.8469 26.1562 21.8469 26.6422 21.8469C26.807 21.8469 27.0222 21.8469 27.1859 21.9686C26.7 22.3906 26.1562 22.0904 25.6146 22.0904ZM27.6184 20.8844C27.6184 20.9431 27.6184 21.0061 27.5659 21.0061C27.0222 21.0061 26.427 21.1247 25.8875 20.8245C26.0471 20.6429 26.32 20.8844 26.4827 20.6429C26.5887 20.5212 26.7787 20.6965 26.9676 20.6429C27.1859 20.5852 27.5124 20.5852 27.6184 20.8844ZM26.9151 16.4287C26.8595 16.4287 26.807 16.4287 26.807 16.3667C26.9676 16.2481 27.1859 16.2481 27.3476 16.3667C27.294 16.4885 27.1859 16.4287 27.0757 16.4287C27.5124 16.6701 27.9983 16.2481 28.3783 16.4885C27.9983 16.6082 27.6152 16.6344 27.1859 16.7299C26.9151 16.7887 26.807 16.5483 26.5887 16.4885C26.7 16.308 26.807 16.5483 26.9151 16.4287ZM26.5362 16.9105C26.5362 16.9713 26.5362 17.0301 26.4827 17.0301C26.1562 16.8485 25.8298 17.2106 25.5076 16.9713C25.7238 16.7887 25.9873 16.7887 26.2665 16.7887C26.3735 16.7887 26.4827 16.7887 26.5362 16.9105ZM24.4223 16.0665C25.0751 16.1852 25.6692 16.0067 26.2665 16.1852C26.1038 16.4885 25.8298 16.1852 25.6146 16.308C25.5076 16.3667 25.3438 16.4885 25.2347 16.4287C24.9639 16.2481 24.6385 16.308 24.3687 16.1852C24.3162 16.1264 24.3687 16.0665 24.4223 16.0665ZM23.6119 15.104C23.8292 15.1628 24.0444 15.2226 24.2081 15.3444C24.1514 15.4042 24.1514 15.4641 24.0979 15.4641C23.8292 15.4042 23.5028 15.526 23.2855 15.2825C23.3915 15.2226 23.4461 15.0568 23.6119 15.104ZM21.9325 13.4782C22.4731 13.4782 23.0168 13.2966 23.5028 13.6566C23.5563 13.7196 23.5028 13.7783 23.4492 13.7783C23.1774 13.7783 22.852 13.538 22.5791 13.7196C22.2569 13.897 21.8244 13.7196 21.4455 13.7196C21.3909 13.7196 21.3909 13.5968 21.3909 13.538C21.5515 13.3564 21.7667 13.4782 21.9325 13.4782ZM21.9325 15.526C22.0396 15.526 22.2002 15.526 22.1508 15.6446C22.0942 16.0067 21.6071 15.8262 21.3909 15.7044C21.5515 15.6446 21.7174 15.526 21.9325 15.526ZM21.6607 18.9583C21.7173 19.0181 21.8244 19.0181 21.8779 19.1357C21.8779 19.1987 21.8779 19.2585 21.8244 19.2585C21.6607 19.3183 21.4392 19.4212 21.3909 19.2585C21.3342 19.0769 21.5515 18.9583 21.6607 18.9583ZM21.3909 20.221L21.3342 20.2808H21.2272C21.1736 20.221 21.2272 20.1633 21.2807 20.1633C21.3342 20.1633 21.3909 20.1633 21.3909 20.221ZM21.498 11.127C21.5515 11.127 21.625 11.1112 21.6607 11.19C21.7173 11.3086 21.9325 11.19 21.985 11.3086C21.8244 11.3673 21.5515 11.4901 21.3909 11.3673C21.498 11.3086 21.3909 11.19 21.498 11.127ZM21.0655 11.2487C21.1212 11.3086 21.1736 11.3673 21.0655 11.4272C20.9574 11.4272 20.7947 11.4901 20.7947 11.3673C20.7391 11.2487 20.9784 11.1532 21.0655 11.2487ZM21.3342 11.6088C21.3909 11.6088 21.4455 11.5489 21.498 11.4901C21.5515 11.4901 21.6071 11.5489 21.5515 11.6088C21.3342 11.7893 20.9574 11.8502 20.6856 11.7316C20.8472 11.4901 21.1128 11.6088 21.3342 11.6088ZM20.8472 15.4042C21.012 15.4042 21.1736 15.4042 21.2807 15.526C21.1212 15.6446 20.9049 15.8262 20.6856 15.7632C20.632 15.7632 20.632 15.7044 20.632 15.6446C20.6856 15.5848 20.6856 15.5848 20.7391 15.526C20.6856 15.526 20.5218 15.5848 20.5218 15.4641C20.5785 15.3444 20.7391 15.4042 20.8472 15.4042ZM21.012 17.3922C21.0655 17.4521 21.012 17.5108 20.9574 17.5108H20.5218C20.4683 17.5108 20.4683 17.4521 20.4148 17.4521C20.5218 17.2705 20.8472 17.2705 21.012 17.3922ZM20.2531 10.8866C20.3066 10.8866 20.3066 10.9454 20.3066 11.0094C20.146 11.19 19.8731 11.3673 19.6559 11.19C19.7671 11.0094 19.9267 11.0682 20.0348 10.9454C20.0883 10.8866 20.1985 11.0094 20.2531 10.8866ZM19.5488 10.8866H19.6559C19.7136 10.8866 19.8731 10.768 19.8731 10.8866C19.8196 11.0094 19.6559 11.19 19.4953 11.0094C19.4953 10.9454 19.4953 10.8866 19.5488 10.8866ZM17.7623 11.2487C18.2504 11.19 18.6829 11.19 19.1143 11.3673C19.0628 11.5489 18.9012 11.4901 18.7899 11.4901C18.6272 11.5489 18.4677 11.6088 18.3564 11.5489C18.1948 11.4272 18.0846 11.3673 17.924 11.3673C17.924 11.4901 17.8683 11.5489 17.8159 11.5489C17.4359 11.6088 17.058 11.6088 16.7326 11.4272C17.058 11.3086 17.4359 11.2886 17.7623 11.2487ZM17.8683 16.0665C17.8683 16.1264 17.8159 16.1852 17.8159 16.1852C17.6553 16.0665 17.3288 16.1264 17.3824 15.886C17.3824 15.7632 17.544 15.7044 17.7078 15.7044C17.8683 15.7044 17.924 15.8262 17.9765 15.886C17.9765 16.0067 17.8159 15.9448 17.7623 15.9448C17.8159 16.0067 17.8159 16.0067 17.8683 16.0665ZM17.2753 13.4152C17.2753 13.3564 17.4359 13.2966 17.4359 13.4152C17.4359 13.4782 17.2753 13.4782 17.2753 13.4152ZM17.7078 16.4885C17.7623 16.5483 17.7078 16.6082 17.6553 16.6082C17.4915 16.6082 17.3824 16.6082 17.2176 16.4885L17.1116 16.6082C17.0024 16.5483 16.8964 16.4287 16.8964 16.308C16.8964 16.1852 17.0622 16.2187 17.1651 16.2481C17.3824 16.308 17.544 16.3667 17.7078 16.4885ZM17.0024 17.2705C17.0024 17.2106 17.0024 17.1519 17.058 17.1519C17.1116 17.1519 17.0885 17.2106 17.1651 17.2106C17.2176 17.2106 17.2176 17.2705 17.2753 17.2705C17.1651 17.3922 17.1116 17.3922 17.0024 17.2705ZM16.9489 23.2943C16.8964 23.2943 16.8964 23.2324 16.8964 23.1726C16.8964 23.1138 16.9489 23.1138 16.9489 23.054C17.058 23.1138 17.058 23.2324 16.9489 23.2943ZM16.6781 14.3819C16.6224 14.4407 16.5689 14.5593 16.5164 14.5593C16.2991 14.5593 16.1365 14.7409 15.9738 14.8007C15.9192 14.8007 15.9192 14.6821 15.8121 14.6821C15.4857 14.6821 15.1057 14.7409 14.7845 14.5005C15.0532 14.2601 15.3797 14.5005 15.704 14.3819C15.9738 14.2601 16.3527 14.2013 16.6781 14.3819ZM13.7265 22.6226C13.4315 22.7747 13.0957 22.6992 12.871 22.4997C12.9781 22.378 13.1419 22.4997 13.251 22.5596C13.4662 22.6068 13.611 22.3895 13.7716 22.4189C14.0582 22.2951 14.351 22.2384 14.6743 22.1471C14.8381 22.1471 14.9451 22.2699 15.0532 22.3906C14.5935 22.441 14.1747 22.6645 13.7265 22.6226ZM14.0781 23.2324C13.7538 23.5357 13.3192 23.4717 13.0484 23.2324C13.1597 23.1138 13.3192 23.2324 13.4284 23.2943C13.6992 23.3541 13.8619 22.991 14.0781 23.2324ZM11.8036 22.5102C11.6965 22.5102 11.4813 22.5722 11.4813 22.4504C11.5307 22.1471 11.9106 22.2699 12.1279 22.209C12.4543 22.0904 12.7146 22.1471 13.103 22.1471C13.1597 22.1471 13.1597 22.209 13.2132 22.209C12.7797 22.4504 12.2895 22.3287 11.8036 22.5102ZM14.7845 20.2808C14.7268 20.2808 14.6208 20.221 14.6208 20.1633C14.6208 20.0405 14.7268 19.9218 14.8381 19.9806C14.9451 20.1024 15.0532 20.2808 15.1603 20.4624C15.1603 20.5212 15.1603 20.5852 15.1057 20.5852C14.9976 20.5852 14.9451 20.5212 14.8916 20.4624V20.3438C14.8916 20.2808 14.8381 20.2808 14.7845 20.2808ZM13.0484 14.4407C13.4819 14.2601 13.9679 14.3819 14.4046 14.5593C14.3468 14.8007 14.1317 14.7409 13.9144 14.7409C13.6457 14.7409 13.4284 14.8007 13.1597 14.6821C13.2668 14.5593 13.4284 14.6223 13.5932 14.5593C13.4284 14.5005 13.2132 14.6223 13.0484 14.4407ZM14.7268 15.526C14.8381 15.5848 14.7268 15.7632 14.7845 15.8262C14.8916 15.886 15.0931 15.7936 15.1603 15.9448C15.2138 16.0665 15.0532 16.0665 14.9976 16.1264C14.7845 16.0067 14.4581 16.308 14.3468 16.1264C14.1873 15.886 14.4581 16.0665 14.5652 15.9448C14.0781 15.7632 13.5932 15.886 13.103 15.7632C13.6457 15.7044 14.1873 15.526 14.7268 15.526ZM15.4857 17.1519C15.4857 17.2106 15.4206 17.2442 15.3797 17.2106C15.2138 17.092 14.9976 17.0301 14.8916 16.8485C14.8916 16.7887 14.8916 16.7299 14.9451 16.7299C15.1603 16.7299 15.4332 16.9105 15.4857 17.1519ZM13.3192 17.6924C13.4284 17.4521 13.7538 17.5738 14.0256 17.6924C13.9144 17.8142 13.8084 17.874 13.7538 17.9926C13.5932 18.0525 13.2668 17.8142 13.3192 17.6924ZM14.1873 19.1987C14.0256 19.3183 13.9249 19.4401 13.7538 19.4401H13.5932C13.5355 19.4401 13.4819 19.3813 13.5355 19.3183C13.6992 19.1357 14.0256 19.0181 14.1873 19.1987ZM14.0781 17.9926C14.2943 17.8142 14.6208 17.874 14.8916 17.9926C14.6208 18.2372 14.2943 18.1144 14.0781 17.9926ZM15.1603 21.6695C14.9976 21.7881 14.8381 21.9099 14.6208 21.9099C14.2943 21.9099 14.0256 22.1471 13.6992 22.0285C13.8619 21.7283 14.1873 21.9099 14.4046 21.7283C14.5652 21.5467 14.8916 21.6065 15.1603 21.6695ZM15.1057 23.4717C15.1057 23.5357 15.3251 23.5357 15.1603 23.6543C15.0532 23.7131 14.8916 23.5819 14.8916 23.7131V23.8359C14.6743 23.8947 14.3468 24.0165 14.1873 23.7771C14.4581 23.4717 14.7845 23.5357 15.1057 23.4717ZM15.7575 25.0388C15.5969 25.339 15.2705 24.98 15.1057 25.2204C14.9976 25.0388 14.7845 25.2802 14.6743 25.1018C14.9451 24.8583 15.4332 24.98 15.7575 25.0388ZM15.5969 20.0405C15.5392 20.0405 15.4332 20.1024 15.3797 19.9806C15.3797 19.9218 15.3797 19.862 15.4332 19.862C15.4857 19.862 15.5014 19.82 15.5392 19.862C15.5969 19.9218 15.7575 19.9806 15.5969 20.0405ZM16.084 20.2808C15.9192 20.3438 15.8121 20.4026 15.6463 20.2808C15.8121 20.1633 15.9192 20.1633 16.084 20.2808ZM15.5969 23.3541C15.7575 23.4129 16.0714 23.4098 16.0304 23.6543C15.9738 23.9577 15.5969 23.8359 15.3797 23.6543C15.4332 23.5357 15.4857 23.3541 15.5969 23.3541ZM16.1921 24.1981C16.2446 24.2579 16.2991 24.4384 16.1921 24.4384C15.9738 24.4982 15.6463 24.4384 15.6463 24.2579C15.6463 24.0165 16.0535 24.0427 16.1921 24.1981ZM15.4332 25.339C15.6463 25.339 15.9738 25.2802 16.1921 25.339C16.2991 25.402 16.3527 25.6423 16.2446 25.761C15.9192 25.339 15.3828 25.5825 14.8916 25.5825C14.7845 25.5825 14.7268 25.5206 14.6743 25.4618C14.8916 25.2802 15.2138 25.339 15.4332 25.339ZM16.2991 25.8229C16.2991 25.8838 16.3527 26.0045 16.2446 26.0643C16.1921 26.0643 16.1365 26.0045 16.0304 26.0045C15.9738 26.0045 15.9738 25.9425 15.9192 25.8838C16.0304 25.8229 16.1921 25.8229 16.2991 25.8229ZM15.0532 19.1987C15.2705 19.1357 15.5497 18.7882 15.704 18.9583C15.7575 19.0181 15.9192 18.8964 15.9738 18.9583C16.084 19.1357 16.2446 19.0769 16.4052 19.1987C16.4639 19.2585 16.4052 19.3183 16.3527 19.3183C15.9192 19.3183 15.4857 19.3813 15.0532 19.1987ZM15.9192 17.3922C15.8121 17.3922 15.8656 17.1519 15.7575 17.092C15.9192 16.9713 16.1008 16.9503 16.2446 17.0301C16.3527 17.092 16.5164 17.092 16.6224 17.2106C16.4639 17.5108 16.1365 17.2705 15.9192 17.3922ZM15.9738 12.0307C16.0304 12.0307 16.0304 12.0926 16.084 12.0926C15.9738 12.2123 15.8656 12.2123 15.8121 12.0926C15.8121 12.0307 15.9192 12.0307 15.9738 12.0307ZM14.8381 11.5489C14.9976 11.5489 15.1047 11.5951 15.2705 11.5489C15.4857 11.4901 15.6463 11.5489 15.8121 11.6088C15.6463 11.6707 15.5969 11.7893 15.4857 11.8502C15.2705 11.9709 14.9976 11.7893 14.7845 11.6707C14.7845 11.6088 14.7845 11.5489 14.8381 11.5489ZM14.4046 11.6707H14.6208C14.6743 11.6707 14.6743 11.7316 14.6743 11.7893C14.5652 11.9121 14.3468 11.9814 14.3468 11.7893C14.3468 11.7316 14.4046 11.6707 14.4046 11.6707ZM14.1873 12.8746C14.4046 12.8158 14.6208 12.8746 14.8381 12.9344C14.6743 13.0562 14.5116 12.9344 14.3468 13.0562C14.6208 13.0562 14.8916 12.8746 15.1057 13.1748C14.7268 13.3564 14.2943 13.3564 13.8619 13.2367C13.6992 13.2367 13.5932 13.1748 13.4284 13.2966C13.3738 13.116 13.3192 13.0562 13.1597 12.9932C13.4819 12.8158 13.8671 12.9638 14.1873 12.8746ZM13.6992 14.1373C14.1317 14.0187 14.6208 14.0187 15.0532 14.1373C15.0532 14.0785 15.0532 14.0187 15.1057 14.0187C15.3251 14.0187 15.6463 13.8371 15.7575 14.1373C15.8121 14.3189 15.5969 14.2601 15.5392 14.2601C14.6743 14.3819 13.8084 14.3819 12.9424 14.3189C13.1597 14.0187 13.4284 14.2013 13.6992 14.1373ZM13.5932 18.8365C13.4819 18.9583 13.3738 18.9583 13.2132 18.9583C13.0484 18.9583 12.8868 18.8964 12.7797 18.8365C13.0484 18.7148 13.3192 18.7148 13.5932 18.8365ZM13.4819 20.5212C13.1597 20.7028 12.6695 20.7028 12.2895 20.5852C12.4008 20.3438 12.5551 20.4026 12.723 20.4026C12.9949 20.4026 13.2668 20.2808 13.4819 20.5212ZM12.0208 16.1264V16.2481C11.7479 16.3667 11.4236 16.4885 11.1014 16.308C11.3711 16.1264 11.6965 16.2481 12.0208 16.1264ZM11.9673 17.8142L11.9106 17.874C12.1825 18.1144 12.5068 17.6924 12.723 17.9328C12.723 17.9926 12.5866 17.9401 12.5625 17.9926C12.3431 18.4744 11.7479 18.296 11.3711 18.1732C11.2074 18.1144 10.9912 18.1144 10.8285 17.9926C11.1549 17.8142 11.5873 17.6336 11.9673 17.8142ZM10.2323 18.3547C10.396 18.296 10.4957 18.3547 10.6647 18.3547C10.9376 18.3547 11.1549 18.2372 11.4236 18.296C11.4813 18.3547 11.5307 18.4744 11.6409 18.5363C11.5307 18.7148 11.3165 18.5363 11.1549 18.5962V18.7767C10.7749 19.0181 10.4485 18.656 10.1242 18.4744C10.1777 18.4146 10.1777 18.3547 10.2323 18.3547ZM10.1242 19.9806C10.2323 19.9218 10.2889 20.0405 10.3425 20.1024C10.3425 20.1633 10.3425 20.2808 10.2889 20.2808C10.1242 20.2808 9.96356 20.3438 9.79877 20.221C9.90898 20.1633 10.016 20.0405 10.1242 19.9806ZM9.79877 21.4879C10.8285 21.4249 11.8561 21.3651 12.8868 21.3063C12.6149 21.1247 12.2895 21.3063 12.0208 21.2465C12.0208 21.2465 11.8036 21.1247 11.9673 21.0659C12.723 20.8245 13.5407 20.9736 14.3468 20.8245C14.6743 20.7626 14.9976 20.8844 15.1057 21.1846C15.2138 21.4249 14.8916 21.3063 14.8381 21.3063C14.2943 21.3651 13.6992 21.1247 13.2132 21.4249C13.5355 21.3651 13.8619 21.3651 14.1873 21.4879C14.1873 21.4879 14.4046 21.6065 14.2408 21.6065C13.5932 21.7283 12.9949 21.8469 12.4008 21.8469C12.1279 21.9099 11.8036 21.7881 11.5307 21.7283C10.8285 21.6695 10.0685 21.6695 9.36527 21.6695C9.47548 21.4879 9.69171 21.4879 9.79877 21.4879ZM11.1549 22.0904C11.0436 22.1471 10.9912 22.209 10.882 22.209C10.8285 22.6918 10.2889 22.4504 10.016 22.6918C9.8523 22.7506 9.8523 22.5102 9.74524 22.4504C9.90898 22.3287 10.1242 22.3906 10.3425 22.3287C10.4485 22.3287 10.396 22.1471 10.396 22.1471C10.016 22.0285 9.63923 22.2699 9.25926 22.1471C9.20363 22.0904 9.04303 21.9686 9.1501 21.9686C9.96356 21.7881 10.7749 21.7283 11.5873 21.9686V22.0904C11.4236 22.0904 11.262 22.0285 11.1549 22.0904ZM8.93282 26.6059C8.82471 26.6059 8.82471 26.4243 8.77013 26.3057C8.77013 26.1241 9.00945 26.0517 9.09342 26.1241C9.31174 26.3057 9.47548 26.1829 9.69171 26.1829C9.90898 26.2459 10.1777 26.0045 10.396 25.9425C10.5041 25.9425 10.6112 26.0045 10.7224 26.0643C10.8285 26.0643 10.9912 25.9425 11.1014 26.0643C10.4485 26.6059 9.69171 26.4863 8.93282 26.6059ZM10.9376 26.9691C10.882 26.9691 10.882 27.0866 10.882 27.1496C10.6647 27.327 10.3425 27.2682 10.1777 27.1496C9.96356 27.0279 9.79877 27.327 9.5836 27.0866C10.2323 26.8463 10.9376 26.7864 11.5873 26.5461C11.9106 26.4243 12.2895 26.3645 12.6695 26.5461C12.1279 26.8463 11.5307 26.9691 10.9376 26.9691ZM12.6695 25.5825C12.2895 25.761 11.8561 25.7022 11.4236 25.7022C10.7749 25.5825 10.2323 25.8838 9.5836 26.0643C9.53006 26.0643 9.47548 25.9425 9.47548 25.9425C9.63923 25.7022 9.90898 25.761 10.1242 25.6423C10.1777 25.5825 9.90898 25.5825 9.90898 25.5825C10.1777 25.339 10.5041 25.5206 10.7749 25.4618L10.7224 25.339C10.7224 25.2204 10.882 25.2204 10.9376 25.1606C11.2074 25.1018 11.4813 25.2204 11.7479 25.1018C11.8561 24.98 11.9673 24.7984 12.1279 24.7376H12.4543L12.5068 24.8583C12.4008 25.0388 12.236 25.0388 12.0744 25.1606C12.1279 25.1606 12.1279 25.2204 12.1279 25.2802C12.236 25.2802 12.3431 25.2802 12.4543 25.1606C12.6149 25.1018 12.6695 25.2802 12.7797 25.402C12.8333 25.4618 12.723 25.5206 12.6695 25.5825ZM13.103 24.6798C13.0484 24.557 12.8868 24.6179 12.8333 24.6179C12.3431 24.4384 11.8561 24.6798 11.4236 24.7984C11.262 24.8583 10.9376 24.98 10.882 24.7984C10.8285 24.557 11.1549 24.6798 11.3165 24.4982C11.4236 24.4384 11.6409 24.557 11.7479 24.4982C12.2895 24.2579 12.8333 24.2579 13.3738 24.3765C13.9144 24.4384 14.5116 24.4384 14.9976 24.7984C14.6743 24.9212 14.4046 24.9212 14.0781 24.9212C13.9144 24.9212 13.8619 24.6798 13.6992 24.6179C13.4819 24.6179 13.2668 24.557 13.103 24.6798ZM16.3527 28.5929C16.2446 28.8343 16.0304 28.6527 15.8656 28.7125C15.704 28.7744 15.3797 28.9298 15.3797 28.7125C15.3797 28.6527 15.4332 28.5309 15.4857 28.5309C15.6463 28.5309 15.7575 28.4722 15.8656 28.4123C16.0304 28.4123 16.1921 28.2927 16.3527 28.4123V28.5929ZM16.4052 27.0866C16.3527 27.2084 16.1365 27.2682 16.084 27.1496C16.084 27.0279 16.1365 26.9051 16.1921 26.7864C15.5969 26.8463 15.0532 26.7864 14.4581 26.9051C14.1317 27.0279 13.7433 27.136 13.5355 26.9051C13.4819 26.8463 13.3192 26.7864 13.4819 26.7277C14.0256 26.5461 14.7268 27.0279 15.0532 26.4243C15.4857 26.5461 15.9192 26.3057 16.2991 26.5461C16.4639 26.6059 16.4639 26.9051 16.4052 27.0866ZM16.4639 18.1732C16.5689 18.1144 16.7673 18.2372 16.7851 18.296C16.8429 18.4744 16.6224 18.296 16.5164 18.3547C16.5164 18.296 16.2991 18.2372 16.4639 18.1732ZM16.6224 22.2699L16.6781 22.3287C16.9489 22.5102 17.0024 22.9322 16.7326 22.9322C16.6224 22.9322 16.4639 22.5102 16.6224 22.2699ZM16.8429 23.5357C16.8429 23.4129 16.9489 23.4129 17.058 23.5357C16.9489 23.5945 16.8429 23.6543 16.8429 23.5357ZM17.1116 24.3167C17.0024 24.1981 16.8964 24.0165 16.8964 23.8359C16.8964 23.7771 17.0024 23.7771 17.058 23.7771C17.1116 23.7771 17.0885 23.8422 17.1116 23.8947C17.1651 24.0165 17.2176 24.1981 17.1116 24.3167ZM17.3288 19.0769C17.2176 19.1357 17.0024 18.8365 17.2176 18.7148C17.2176 18.7148 17.3047 18.7211 17.3288 18.7767C17.3824 18.8964 17.4359 19.0769 17.3288 19.0769ZM17.4915 25.8838C17.4359 25.8838 17.4359 25.8229 17.4359 25.761C17.4359 25.7022 17.4915 25.7022 17.4915 25.6423C17.5975 25.7022 17.5975 25.8229 17.4915 25.8838ZM17.8683 17.9328C17.7623 17.9926 17.7078 17.874 17.6553 17.8142C17.6553 17.7512 17.7623 17.7512 17.8159 17.7512C17.8683 17.7512 17.8683 17.8142 17.924 17.8142C17.924 17.874 17.924 17.9328 17.8683 17.9328ZM17.8683 17.1519C17.8683 17.092 17.7078 17.092 17.8159 16.9713C17.924 16.8485 18.0846 16.9105 18.0846 17.0301C18.0846 17.092 17.9765 17.2106 17.8683 17.1519ZM18.4677 24.3765C18.3008 23.9577 18.41 23.4717 18.3008 22.991C18.3008 22.8724 18.4677 22.9322 18.517 22.9322C18.6272 22.9322 18.7364 23.054 18.7364 23.1138C18.6829 23.5357 18.7899 24.0763 18.4677 24.3765ZM18.2504 21.4879C18.3008 21.4249 18.3008 21.3063 18.41 21.3651C18.4677 21.3651 18.5055 21.4449 18.4677 21.4879C18.41 21.5467 18.41 21.6065 18.3564 21.6065C18.3008 21.6065 18.3008 21.5467 18.2504 21.4879ZM18.0846 21.0061C18.0342 20.9431 18.0846 20.8844 18.1412 20.8844C18.2504 20.8844 18.41 20.8245 18.517 20.9431C18.517 20.9431 18.5747 20.8844 18.6272 20.8844C18.6829 20.9431 18.7364 21.0061 18.7899 21.0659C18.6272 21.2465 18.2504 21.1846 18.0846 21.0061ZM18.2504 19.4401C18.2504 19.3183 18.4876 19.2228 18.5747 19.3183C18.6272 19.3813 18.5747 19.4999 18.517 19.4999H18.8435C18.9012 19.4999 19.2234 19.5587 19.0628 19.6206C18.9012 19.7403 18.5747 19.5587 18.41 19.7403C18.41 19.6206 18.2504 19.7403 18.2504 19.6206C18.2504 19.5671 18.2504 19.5156 18.2829 19.503C18.263 19.4915 18.2504 19.4726 18.2504 19.4401ZM18.6829 15.886C18.6829 16.0067 18.41 16.0665 18.2504 16.0067C18.3008 15.9448 18.3564 15.8262 18.4677 15.8262C18.5747 15.8262 18.7364 15.7632 18.6829 15.886ZM18.4677 14.4407H18.5747L18.517 14.5005L18.4677 14.4407ZM18.7364 18.7767C18.7899 18.7148 18.9012 18.7148 18.9547 18.7148C18.9547 18.7736 19.1489 18.8313 19.0292 18.888C19.0786 18.91 19.1143 18.9541 19.1143 19.0181C19.1143 19.1357 18.9547 19.1987 18.8435 19.1987C18.7364 19.1987 18.6829 18.9583 18.8435 18.8964C18.8655 18.8848 18.8875 18.8775 18.9106 18.8733C18.8456 18.8512 18.77 18.8134 18.7364 18.7767ZM18.6272 17.9926H18.517C18.517 17.9328 18.3008 17.874 18.4677 17.8142C18.3564 17.6924 18.3564 17.5108 18.4677 17.4521C18.5747 17.4521 18.6829 17.3922 18.7899 17.5108C18.8435 17.5738 19.0072 17.6336 19.0072 17.6924C18.9012 17.874 18.6272 17.6336 18.4677 17.8142C18.5747 17.8142 18.7364 17.7512 18.8435 17.874C18.8435 17.9328 18.8435 17.9926 18.7899 17.9926H18.6272ZM18.6829 19.0769C18.6829 19.1357 18.6829 19.1987 18.6272 19.1987C18.517 19.1987 18.3564 19.2585 18.3008 19.1357C18.3008 19.0181 18.4677 19.0181 18.5747 19.0181C18.6272 19.0181 18.6272 19.0769 18.6829 19.0769ZM19.1688 17.9328C19.0628 17.9926 18.9547 18.0525 18.8435 17.9328C18.9547 17.8142 19.0628 17.8142 19.1688 17.9328ZM19.0628 18.4146C19.0072 18.296 18.7899 18.2372 18.8435 18.0525C18.9012 17.9926 18.9547 18.0525 18.9547 18.1144C18.9547 18.0525 19.0072 18.0525 19.0628 18.0525C19.1688 18.1144 19.2234 18.2372 19.1688 18.3547C19.1688 18.3547 19.1143 18.4146 19.0628 18.4146ZM18.4677 17.092C18.41 17.092 18.41 17.0301 18.41 16.9713C18.5747 16.7299 18.9012 16.8485 19.1143 16.8485C19.1688 16.8485 19.1688 16.9105 19.2234 16.9105C19.0072 17.1519 18.7364 17.092 18.4677 17.092ZM18.8435 14.6821C18.7364 14.6223 18.6272 14.3819 18.7899 14.2601C18.8435 14.2601 18.918 14.2664 19.0628 14.3189C19.2234 14.3819 19.3336 14.3189 19.3872 14.5005C19.4396 14.6223 19.3336 14.6223 19.2759 14.6821C19.1143 14.7409 18.9547 14.7409 18.8435 14.6821ZM18.9012 16.6082C18.9012 16.6701 19.1143 16.7299 18.9547 16.7887C18.7899 16.7887 18.6272 16.7299 18.517 16.6701C18.6272 16.5483 18.7899 16.6082 18.9012 16.6082ZM18.3008 18.656H18.41C18.41 18.7148 18.6356 18.8365 18.4677 18.8365C18.41 18.8365 18.3008 18.8964 18.2504 18.7767C18.2504 18.7148 18.2504 18.656 18.3008 18.656ZM18.7899 20.3438C18.7899 20.221 19.0072 20.1633 19.0628 20.2808C19.1143 20.4026 19.0628 20.6429 18.9547 20.6429C18.8435 20.7028 18.7899 20.4624 18.7899 20.3438ZM19.1143 27.2084C19.0072 26.7864 18.8707 26.2154 19.1688 25.8838C19.2234 25.8229 19.3336 25.8838 19.3336 25.9425C19.2759 26.3645 19.3336 26.8463 19.1143 27.2084ZM19.3336 24.7984C19.2759 24.7376 19.2234 24.7376 19.2234 24.6798C19.3336 24.3765 19.1143 24.0165 19.4396 23.8359C19.5488 24.1351 19.4953 24.4982 19.3336 24.7984ZM19.6023 23.4129C19.5488 23.4717 19.4953 23.5357 19.4396 23.5945C19.3872 23.5945 19.3336 23.5945 19.3336 23.5357C19.3336 23.3541 19.3336 23.1138 19.4953 23.1138C19.511 23.1075 19.5257 23.1043 19.5404 23.1033L19.4953 23.054L19.5488 22.991V23.1033C19.6727 23.1022 19.7262 23.2786 19.6023 23.4129ZM17.9765 12.3309C18.0342 12.3309 18.0342 12.3928 18.0342 12.4527H18.4677C18.4677 12.3928 18.4677 12.3309 18.517 12.3309C18.5747 12.3309 18.6272 12.4527 18.6272 12.4527C18.7899 12.3309 19.0072 12.4527 19.1143 12.5713C18.7899 12.8158 18.41 12.5713 18.0846 12.5713C17.8159 12.5713 17.4915 12.6342 17.2176 12.4527C17.5975 12.1525 18.0342 12.1525 18.4677 12.1525C18.9547 12.1525 19.3872 12.0307 19.8731 12.1525C19.2759 12.5125 18.6272 12.1525 17.9765 12.3309ZM20.4683 28.9571C20.0883 28.7744 20.4683 28.2307 20.4148 27.8088C20.4683 27.8088 20.4683 27.5684 20.5785 27.75C20.5785 27.8088 20.5785 27.8088 20.5218 27.8718C20.5218 27.9305 20.5386 27.9473 20.5785 27.9904C20.632 28.0502 20.7391 28.0502 20.7391 28.1121C20.7391 28.2927 20.7947 28.3525 20.7391 28.4722C20.6856 28.6527 20.5218 29.0159 20.4683 28.9571Z" fill="#007B5E"/>
</svg>
