<svg width="40" height="40" viewBox="0 0 40 40" fill="none" xmlns="http://www.w3.org/2000/svg">
<path d="M2.59973 13.7007C2.59973 13.7007 3.48513 13.6146 3.78898 13.6483C4.14082 13.6883 4.85003 13.9771 5.20126 14.0167C5.49563 14.0499 6.11516 14.2169 6.40976 14.2006C6.77578 14.1811 7.37931 13.7801 7.91772 13.8749C10.7446 14.3727 15.0644 19.4615 17.9325 19.3377C23.1083 19.1147 22.9875 13.6223 24.3572 13.6223H37.5997C29.8356 17.1961 24.5402 21.1764 27.2868 23.5022C29.801 25.6321 37.3634 22.9766 37.3634 22.9766C37.3634 22.9766 34.2111 26.1172 28.771 26.1172C18.2476 26.1172 11.1791 17.1694 5.9505 15.0017C5.12098 14.6584 3.53577 13.9966 2.59973 13.7007Z" fill="#529FC9"/>
</svg>
