<svg width="40" height="40" viewBox="0 0 40 40" fill="none" xmlns="http://www.w3.org/2000/svg">
<path d="M34.0226 19.5571C33.9853 19.5571 33.3511 19.5197 33.3511 19.5197C30.7025 19.3332 30.7398 16.9085 30.7398 16.9085C30.7771 13.9614 29.0984 9.26113 22.4583 9H11.006L10.8567 9.55956H20.4812C21.4511 9.59687 22.1226 10.3056 21.8241 11.4621L20.1081 17.7292C19.4367 19.5944 17.7207 19.5197 17.7207 19.5197C15.9674 19.3705 16.4523 17.6918 16.4523 17.6918L17.2357 14.8194C17.4969 13.8495 16.7881 13.3646 16.1912 13.3646H9.81222L9.66301 13.9241H12.3862C13.3934 13.9614 13.6172 14.7075 13.4307 15.379C13.4307 15.379 13.095 16.5727 12.6846 18.0649C12.3116 19.5197 10.9686 19.5571 10.7448 19.5571H8.09623L7.90971 20.2285H10.4091C10.7075 20.2285 12.0505 20.2658 11.6401 21.7207C11.2298 23.2129 10.894 24.4066 10.894 24.4066C10.7075 25.0781 10.0734 25.8241 9.06614 25.8614H6.34294L6.19373 26.421H12.5727C13.1696 26.3837 14.1395 25.936 14.4379 24.9661L15.2213 22.0937C15.2213 22.0937 15.6317 20.415 17.4969 20.2658C17.4969 20.2658 19.2875 20.1539 18.8771 22.0564L17.1611 28.3235C16.8254 29.4799 15.7809 30.1887 14.7737 30.226H5.14921L5 30.8229H16.4896C23.279 30.5618 27.5317 25.8614 29.1357 22.9144C29.1357 22.9144 30.4041 20.527 33.1646 20.3031L33.836 20.2658C33.836 20.2658 33.8734 20.2658 33.9107 20.2285C33.948 20.1166 34.0599 19.669 34.0599 19.6317C34.0599 19.5571 34.0599 19.5571 34.0226 19.5571Z" fill="#002856"/>
<mask id="mask0_20_12061" style="mask-type:luminance" maskUnits="userSpaceOnUse" x="5" y="9" width="30" height="22">
<path d="M34.0226 19.5571C33.9853 19.5571 33.3511 19.5197 33.3511 19.5197C30.7025 19.3332 30.7398 16.9085 30.7398 16.9085C30.7771 13.9614 29.0984 9.26113 22.4583 9H11.006L10.8567 9.55956H20.4812C21.4511 9.59687 22.1226 10.3056 21.8241 11.4621L20.1081 17.7292C19.4367 19.5944 17.7207 19.5197 17.7207 19.5197C15.9674 19.3705 16.4523 17.6918 16.4523 17.6918L17.2357 14.8194C17.4969 13.8495 16.7881 13.3646 16.1912 13.3646H9.81222L9.66301 13.9241H12.3862C13.3934 13.9614 13.6172 14.7075 13.4307 15.379C13.4307 15.379 13.095 16.5727 12.6846 18.0649C12.3116 19.5197 10.9686 19.5571 10.7448 19.5571H8.09623L7.90971 20.2285H10.4091C10.7075 20.2285 12.0505 20.2658 11.6401 21.7207C11.2298 23.2129 10.894 24.4066 10.894 24.4066C10.7075 25.0781 10.0734 25.8241 9.06614 25.8614H6.34294L6.19373 26.421H12.5727C13.1696 26.3837 14.1395 25.936 14.4379 24.9661L15.2213 22.0937C15.2213 22.0937 15.6317 20.415 17.4969 20.2658C17.4969 20.2658 19.2875 20.1539 18.8771 22.0564L17.1611 28.3235C16.8254 29.4799 15.7809 30.1887 14.7737 30.226H5.14921L5 30.8229H16.4896C23.279 30.5618 27.5317 25.8614 29.1357 22.9144C29.1357 22.9144 30.4041 20.527 33.1646 20.3031L33.836 20.2658C33.836 20.2658 33.8734 20.2658 33.9107 20.2285C33.948 20.1166 34.0599 19.669 34.0599 19.6317C34.0599 19.5571 34.0599 19.5571 34.0226 19.5571Z" fill="white"/>
</mask>
<g mask="url(#mask0_20_12061)">
<path d="M34.4702 8.44043H7.57397V19.8928H34.4702V8.44043Z" fill="#DD2027"/>
</g>
</svg>
