<svg width="40" height="40" viewBox="0 0 40 40" fill="none" xmlns="http://www.w3.org/2000/svg">
<g clip-path="url(#clip0_124_1368)">
<path fill-rule="evenodd" clip-rule="evenodd" d="M16.3006 18.0947V22.8616L16.3039 22.8299C16.3039 23.001 16.1646 23.1442 15.9932 23.1442H13.5311L12.6982 24.4126H16.8472C17.2581 24.4126 17.5975 24.095 17.6299 23.6911V23.6801V15.5808C17.6299 15.2733 17.3796 15.0234 17.0724 15.0234C16.8827 15.0234 16.7148 15.1199 16.6148 15.2663L9.64264 25.8604L11.065 25.8637L16.3006 17.9197V18.0947Z" fill="#151B59"/>
<path fill-rule="evenodd" clip-rule="evenodd" d="M19.0913 23.8797V15.275V15.2642C19.0735 14.2227 18.223 13.3848 17.1758 13.3848C16.5325 13.3848 15.9608 13.7045 15.6145 14.1942L7.93457 25.8456L9.40708 25.8528C9.41063 25.8456 9.41413 25.8421 9.41759 25.8387L16.4828 15.1036V15.0963C16.6222 14.9284 16.8364 14.8176 17.0724 14.8176C17.4905 14.8176 17.8334 15.1591 17.8334 15.577V23.6874L17.8297 23.6941C17.794 24.2055 17.3689 24.6055 16.8472 24.6055H12.5658L11.7836 25.8027H17.1507H17.2186C18.2731 25.8027 19.095 24.9486 19.095 23.8907L19.0913 23.8797Z" fill="#151B59"/>
<path fill-rule="evenodd" clip-rule="evenodd" d="M34.9042 18.0947V22.8616V22.8299C34.9042 23.001 34.7652 23.1442 34.5934 23.1442H32.1348L31.2991 24.4126H35.4476C35.8588 24.4126 36.2015 24.095 36.2304 23.6911V23.6801V15.5808C36.2304 15.2733 35.9801 15.0234 35.6728 15.0234C35.4834 15.0234 35.3154 15.1199 35.2154 15.2663L28.2434 25.8604L29.6693 25.8637L34.9009 17.9197L34.9042 18.0947Z" fill="#151B59"/>
<path fill-rule="evenodd" clip-rule="evenodd" d="M37.6919 23.8797V15.275V15.2642C37.6743 14.2227 36.8235 13.3848 35.7799 13.3848C35.1331 13.3848 34.5649 13.7045 34.2182 14.1942L26.5352 25.8456L28.011 25.8528C28.011 25.8456 28.0148 25.8421 28.0181 25.8387L35.083 15.1036L35.0868 15.0963C35.2226 14.9284 35.4372 14.8176 35.6728 14.8176C36.0947 14.8176 36.4302 15.1591 36.4302 15.577V23.6874V23.6941C36.3946 24.2055 35.9695 24.6055 35.4475 24.6055H31.17L30.3839 25.8027H35.7514H35.8193C36.8733 25.8027 37.6953 24.9486 37.6953 23.8907L37.6919 23.8797Z" fill="#151B59"/>
<path fill-rule="evenodd" clip-rule="evenodd" d="M4.10031 24.7252H4.06443C3.53548 24.7075 3.11394 24.2748 3.11394 23.739C3.11394 23.5564 3.16742 23.3819 3.25332 23.2314L9.70376 13.4258H8.23118L1.9382 22.9781L1.94159 22.9993C1.78448 23.2742 1.69531 23.5957 1.69531 23.9394C1.69531 24.9435 2.47065 25.765 3.4571 25.8438H3.48582H3.59988H7.29869L8.04878 24.7252H4.10031Z" fill="#151B59"/>
<path fill-rule="evenodd" clip-rule="evenodd" d="M5.40806 23.3425C5.21531 23.3425 5.05426 23.1852 5.05426 22.9853C5.05426 22.9208 5.07935 22.8383 5.11499 22.7849L11.2832 13.4258H9.94657L3.43918 23.317L3.42839 23.328C3.3569 23.4496 3.31421 23.589 3.31421 23.7389C3.31421 24.1643 3.65013 24.5147 4.07167 24.5253L4.10026 24.5215H8.18493L8.97465 23.3425H5.41164L5.40806 23.3425Z" fill="#151B59"/>
<path fill-rule="evenodd" clip-rule="evenodd" d="M23.8443 20.0097H27.307H27.2929C27.6464 20.0097 27.936 19.8237 28.0968 19.5381L28.0753 19.5699L28.1183 19.502C28.1112 19.5164 28.104 19.5254 28.0968 19.5381L30.4731 15.8872L30.4552 15.9014C30.5231 15.7929 30.5625 15.666 30.5625 15.5284C30.5625 15.1387 30.2446 14.8207 29.8514 14.8207V14.8027H22.9188L22.111 16.0963H28.429H28.5003C28.6397 16.0963 28.7545 16.211 28.7545 16.3538C28.7545 16.4217 28.7256 16.4897 28.6794 16.5361L28.6616 16.5682L27.1677 18.8661L23.1044 18.8393L18.6982 25.7237H20.1132L23.8443 20.0097Z" fill="#151B59"/>
<path fill-rule="evenodd" clip-rule="evenodd" d="M32.1206 15.4447C32.1206 14.2941 31.188 13.3613 30.037 13.3613L30.023 13.3739H23.8048L23.0581 14.5729H29.8514C30.3769 14.5729 30.8018 14.9979 30.8018 15.5236C30.8018 15.7002 30.7556 15.8629 30.6734 16.0057L30.6984 15.9702L30.6734 16.0075V16.0057L28.2935 19.6795L28.2969 19.6868C28.0862 20.0299 27.7073 20.2603 27.2748 20.2603L27.3104 20.2582H23.9584L20.3742 25.7188H21.7356L24.5054 21.4699H27.532L27.4498 21.4804C28.2613 21.4804 28.9723 21.0483 29.3692 20.4047L29.3188 20.473L31.8526 16.4668C32.0205 16.165 32.1206 15.8148 32.1206 15.4447Z" fill="#151B59"/>
</g>
<defs>
<clipPath id="clip0_124_1368">
<rect width="36" height="12.4969" fill="white" transform="translate(1.69531 13.3633)"/>
</clipPath>
</defs>
</svg>
