<svg width="40" height="40" viewBox="0 0 40 40" fill="none" xmlns="http://www.w3.org/2000/svg">
<g clip-path="url(#clip0_2_161)">
<path d="M38.0001 18.6167C38.0001 18.6167 36.2716 16.8167 33.2622 16.9333C30.2529 16.9333 26.2861 19.7 26.2861 19.7C26.2861 19.7 29.2457 19.2833 30.6384 19.8667C30.6508 19.8667 34.4685 16.55 38.0001 18.6167Z" fill="#C1092B"/>
<path d="M21.2871 21.6334C20.056 21.0834 19.2478 21.0501 16.2633 18.5001C14.5348 16.9834 12.4581 16.3334 10.4187 16.6667C14.5099 15.0501 17.7804 16.7334 20.0187 18.4334C22.2571 20.1334 24.856 20.4667 28.6737 20.2667C32.541 20.0667 34.1079 23.7501 34.1079 23.7501C33.3866 23.0667 32.541 22.6834 31.6332 22.6501C29.2084 22.6501 27.8778 24.7167 24.6073 24.7167C23.8115 24.7167 23.0156 24.6501 22.2446 24.4834C20.9887 24.1667 19.6954 24.1001 18.4395 24.3167C18.4395 24.3167 9.32444 25.8334 2.01252 24.4501C2.00009 24.4167 15.5172 25.0001 21.2871 21.6334Z" fill="#C1092B"/>
</g>
<defs>
<clipPath id="clip0_2_161">
<rect width="36" height="9" fill="white" transform="translate(2 16)"/>
</clipPath>
</defs>
</svg>
