<svg width="40" height="40" viewBox="0 0 40 40" fill="none" xmlns="http://www.w3.org/2000/svg">
<path d="M22.2042 4.00586C18.9603 4.00586 16.0221 5.29605 13.8804 7.37795C15.2017 8.89201 16.1684 10.7138 16.655 12.7211C17.719 10.7471 19.8054 9.40395 22.2042 9.40395C25.6819 9.40395 28.5019 12.2239 28.5019 15.7017C28.5019 19.1795 25.6819 21.9995 22.2042 21.9995C20.3408 21.9995 18.6666 21.1914 17.5135 19.9048V26.4498C18.9507 27.0593 20.5405 27.3907 22.2042 27.3907C28.7531 27.3907 34.058 22.1606 34.058 15.7017C34.058 9.24281 28.7531 4.00586 22.2042 4.00586ZM6.05798 4.17755V9.72673C7.59507 10.2389 8.8631 11.3261 9.6155 12.7348C10.1022 10.7221 11.0714 8.89526 12.397 7.37795C10.4357 5.60203 8.35622 4.57899 6.05798 4.17755ZM13.1318 8.16774C11.4615 10.1211 10.4308 12.6219 10.3504 15.3583C10.3505 15.3606 10.3502 15.3629 10.3504 15.3652L10.3435 16.2168C10.3435 22.6267 10.3435 29.0367 10.3435 35.4466H15.9201C15.9201 28.9176 15.9201 22.3886 15.9201 15.8596C15.9217 15.6941 15.9167 15.518 15.9133 15.3652C15.835 12.6252 14.8034 10.1236 13.1318 8.16774Z" fill="#C240BF"/>
</svg>
