<svg width="40" height="40" viewBox="0 0 40 40" fill="none" xmlns="http://www.w3.org/2000/svg">
<path d="M19.4646 20.1157C19.4646 20.7574 19.9838 21.2777 20.623 21.2777C21.2632 21.2777 21.7824 20.7574 21.7824 20.1157C21.7824 19.4741 21.2632 18.9538 20.623 18.9538C19.9838 18.9538 19.4646 19.4741 19.4646 20.1157ZM18.3656 16.5789C18.1113 16.1709 17.8205 15.5019 17.5499 14.6813C17.1535 13.4783 16.687 12.9206 15.8751 12.5902C15.0622 12.2598 14.376 12.6249 13.9949 12.6039C13.6139 12.582 13.802 12.2862 13.802 12.2862C14.0487 11.5004 15.2608 10.3394 16.1524 9.70228C13.6638 10.7793 11.6368 12.7271 10.4554 15.1641C10.5178 15.0756 10.5801 15.0574 10.6396 15.1304C10.6732 15.1705 10.7068 15.2079 10.7414 15.2426C11.1224 15.626 11.5639 15.6287 12.0677 15.3211C12.6167 14.9861 14.4825 14.3911 15.3568 16.0312C15.8818 17.0179 16.593 17.5866 17.0767 17.8832C17.4049 17.3593 17.8464 16.9129 18.3656 16.5789ZM20.8773 15.9235C20.9906 15.4753 21.3716 14.7333 21.9369 13.8835C22.6375 12.8302 22.7892 12.1174 22.5483 11.2722C22.3083 10.4261 21.5981 10.1094 21.3802 9.79448C21.1624 9.4805 21.5108 9.44669 21.5108 9.44669C22.4628 9.08889 24.7768 9.5462 25.6128 9.94233C24.1079 9.19845 22.4139 8.7804 20.623 8.7804C19.406 8.7804 18.2342 8.97301 17.1362 9.33081C17.1314 9.40474 17.1295 9.45494 17.1304 9.50423C17.1391 10.0455 17.4549 10.3549 18.0297 10.4854C18.6565 10.6269 20.4109 11.4985 19.9042 13.2875C19.5673 14.475 19.7458 15.4544 19.9032 15.9774C20.1374 15.9372 20.3773 15.9162 20.623 15.9162C20.7084 15.9162 20.7929 15.9189 20.8773 15.9235ZM23.9111 17.5153C24.3229 17.2835 25.0772 17.0334 26.0168 16.8271C27.2511 16.5579 27.8538 16.1508 28.2655 15.375C28.6782 14.5982 28.3874 13.8762 28.4479 13.4984C28.5093 13.1205 28.7828 13.3386 28.7828 13.3386C29.6024 13.6955 30.7426 15.2381 31.2292 16.1955C30.233 13.4856 28.2358 11.2631 25.6867 9.97977C25.9007 10.0929 25.9842 10.1979 25.8681 10.2755C25.8239 10.3047 25.7836 10.3339 25.7452 10.3649C25.3258 10.7054 25.2769 11.1444 25.5293 11.6793C25.8038 12.2625 26.1982 14.1866 24.4812 14.8866C23.4831 15.2928 22.8544 15.9135 22.5022 16.3617C23.0521 16.6391 23.533 17.0352 23.9111 17.5153ZM24.7922 20.5036C25.2452 20.6095 25.9861 20.9619 26.8365 21.4885C27.9104 22.1548 28.6254 22.2817 29.4604 22.0115C30.2945 21.7404 30.5843 21.0184 30.8905 20.7884C31.1966 20.5593 31.2427 20.9071 31.2427 20.9071C31.5508 21.6519 31.3799 23.2702 31.1141 24.3353C31.6362 23.031 31.9231 21.6072 31.9231 20.1157C31.9231 18.9976 31.7619 17.917 31.4605 16.8965C31.45 16.9568 31.4125 16.9841 31.3434 16.9713C31.2916 16.9613 31.2417 16.954 31.1937 16.9494C30.6563 16.902 30.3165 17.1849 30.1274 17.7444C29.9211 18.356 28.873 20.0144 27.1532 19.3217C26.1272 18.9082 25.2241 18.9274 24.6626 19.0095C24.7586 19.3618 24.8095 19.7333 24.8095 20.1157C24.8095 20.2463 24.8037 20.3759 24.7922 20.5036ZM23.2873 23.356C23.5368 23.753 23.8199 24.5133 24.0627 25.469C24.3747 26.6966 24.8008 27.2862 25.5878 27.6723C26.3758 28.0584 27.085 27.7417 27.4641 27.7901C27.8423 27.8384 27.635 28.1205 27.635 28.1205C27.3403 28.8707 26.1003 29.914 25.1722 30.4954C27.5275 29.4549 29.4614 27.6322 30.6467 25.354C30.6188 25.354 30.5929 25.3384 30.5689 25.3038C30.5382 25.2609 30.5075 25.2216 30.4749 25.1842C30.1217 24.7753 29.6812 24.7424 29.1571 25.0135C28.5861 25.3083 26.6839 25.772 25.9266 24.0743C25.463 23.0383 24.7807 22.4177 24.3181 22.0918C24.0589 22.5783 23.7077 23.0073 23.2873 23.356ZM20.4666 24.3125C20.3764 24.7707 20.051 25.5237 19.5567 26.3927C18.9319 27.4934 18.8302 28.2145 19.1287 29.0414C19.4271 29.8675 20.1575 30.134 20.3965 30.4325C20.6355 30.7309 20.2909 30.7893 20.2909 30.7893C19.5058 31.149 17.6996 30.9911 16.6458 30.7291C17.8829 31.1955 19.2237 31.4511 20.623 31.4511C21.8438 31.4511 23.0195 31.2567 24.1203 30.8979C24.105 30.8788 24.1002 30.8505 24.105 30.814C24.1127 30.762 24.1184 30.7118 24.1213 30.6625C24.1491 30.1221 23.8564 29.7908 23.2921 29.621C22.6759 29.4357 20.9867 28.4436 21.6173 26.6948C22.0041 25.6205 21.9398 24.6932 21.8313 24.1382C21.4494 24.2532 21.0434 24.3153 20.623 24.3153L20.4666 24.3125ZM7.73828 20.1157C7.73828 13 13.5074 7.23057 20.623 7.23057C27.7396 7.23057 33.5087 13 33.5087 20.1157C33.5087 27.2315 27.7396 33 20.623 33C13.5074 33 7.73828 27.2315 7.73828 20.1157ZM17.3752 22.7654C16.9577 23.0028 16.2907 23.2665 15.4778 23.5048C14.2656 23.8607 13.6936 24.308 13.3356 25.1112C12.9785 25.9144 13.3183 26.6145 13.2838 26.996C13.2492 27.3775 12.9613 27.1785 12.9613 27.1785C11.6954 26.7304 9.52246 23.6617 10.154 23.7348C10.2068 23.7402 10.2567 23.7439 10.3056 23.7448C10.845 23.7549 11.1646 23.4491 11.3143 22.8768C11.4775 22.2534 12.4075 20.5255 14.1715 21.096C15.1716 21.42 16.0325 21.3617 16.5911 21.2512C16.4903 20.8898 16.4366 20.5091 16.4366 20.1157C16.4366 19.893 16.4538 19.674 16.4874 19.4604C16.0238 19.3381 15.3683 19.0643 14.6284 18.6745C13.5103 18.0858 12.7876 18.0091 11.9746 18.3377C11.1617 18.6654 10.9218 19.4066 10.6329 19.6566C10.3431 19.9076 10.274 19.5636 10.274 19.5636C9.81807 18.6481 10.0321 16.2822 10.3392 15.4124C9.6866 16.8454 9.3238 18.4381 9.3238 20.1157C9.3238 24.6676 11.9987 28.5933 15.8578 30.3969C15.8271 30.3512 15.8338 30.3074 15.8866 30.2673C15.9288 30.2353 15.9672 30.2034 16.0027 30.1696C16.3972 29.8009 16.4154 29.3591 16.1275 28.8425C15.8127 28.2811 15.2848 26.389 16.9491 25.5703C17.9443 25.0811 18.5346 24.3938 18.8484 23.92C18.2745 23.6508 17.7716 23.2538 17.3752 22.7654Z" fill="#01145C"/>
<path d="M5.62305 20.1211C5.62305 11.8371 12.3384 5.12109 20.623 5.12109C28.9076 5.12109 35.623 11.8371 35.623 20.1211C35.623 28.4052 28.9076 35.1211 20.623 35.1211C12.3384 35.1211 5.62305 28.4052 5.62305 20.1211Z" stroke="#01145C" stroke-width="1.06238" stroke-miterlimit="3.864"/>
</svg>
