<svg width="40" height="40" viewBox="0 0 40 40" fill="none" xmlns="http://www.w3.org/2000/svg">
<g clip-path="url(#clip0_7_271)">
<path fill-rule="evenodd" clip-rule="evenodd" d="M25.7749 11.3493C26.6133 12.3434 27.8378 12.6976 28.6208 12.1258C29.1114 11.7653 29.2928 11.1104 29.1861 10.3957C29.6512 10.4661 30.1034 10.6069 30.6432 10.8245C30.9098 10.9141 31.2277 9.79836 30.8138 9.75996C26.368 9.11996 23.8997 12.7082 23.9594 12.6506C24.6464 12.1344 25.2138 11.697 25.7749 11.3493ZM28.3114 11.7589C27.7248 12.2346 26.7456 11.9381 26.0565 11.1786C26.9845 10.6048 27.7717 10.3338 28.6186 10.3445C28.7914 10.8906 28.6421 11.4965 28.3114 11.7589ZM6.16104 13.3418C6.92691 10.833 8.26024 8.55889 9.99251 6.67089C17.6533 3.43889 27.5306 3.46236 34.9333 9.42076C30.289 7.05276 16.5546 4.53329 6.16104 13.3418ZM5.7173 21.5552C5.38023 19.744 5.32263 17.8752 5.57863 16.0426C10.9994 10.5322 19.1125 6.90556 27.6288 8.68689C22.9674 8.69756 11.793 11.8912 5.7173 21.5552ZM8.61652 28.3413C7.71625 27.0784 6.97169 25.6874 6.43837 24.2069C9.66397 17.3781 15.8826 11.4304 24.241 10.1354C20.081 11.7034 11.4112 18.0842 8.61652 28.3413ZM13.8773 33.2032C12.593 32.4458 11.4325 31.5178 10.3914 30.4682C11.5051 23.249 15.9146 15.7034 22.9674 11.7866C22.449 12.5504 22.2101 13.4442 22.2528 14.3957C18.1418 18.5642 14.0586 25.0368 13.8773 33.2032ZM20.401 35.4794C19.0101 35.2874 17.6661 34.9418 16.3925 34.4512C16.4394 27.9168 18.5578 20.1578 22.4042 15.4005C22.6176 16.2346 23.0229 17.0901 23.6778 17.9477C26.7221 14.3658 30.2336 11.8336 34.5941 10.7136C28.6485 12.9706 19.3941 20.1706 20.401 35.4794ZM-144.617 29.7984H-137.852C-137.212 29.7984 -136.482 29.2928 -136.209 28.6144L-135.932 27.9509H-139.488L-137.809 24.0085H-128.395V24.0213L-132.16 32.7765C-132.89 34.3872 -134.035 35.537 -136.173 35.424L-153.129 35.4026L-144.493 15.2384C-143.757 13.6128 -142.622 12.5354 -140.478 12.5802H-123.497L-127.548 22.0266H-133.395L-131.744 18.144H-139.159C-139.42 18.144 -139.731 18.3744 -139.829 18.6453L-144.617 29.7984ZM-143.123 4.56316L-160.128 4.59302C-162.291 4.53329 -163.411 5.64476 -164.166 7.27676C-164.457 7.88902 -164.919 8.95783 -165.493 10.3018L-176.267 35.424H-159.168C-157.007 35.4368 -155.878 34.3637 -155.136 32.7381C-154.859 32.1258 -154.374 31.0485 -153.805 29.7152L-167.748 29.6725L-164.879 22.993H-157.007L-154.562 17.2842H-162.419L-159.637 10.7989C-159.518 10.528 -159.211 10.2976 -158.944 10.2976H-145.581L-143.123 4.56316ZM-17.2779 22.1034H-10.5408C-9.90723 22.1034 -9.19255 21.5573 -8.89815 20.9066L-7.69496 18.1461H-15.1147C-15.3771 18.1461 -15.6822 18.3765 -15.7973 18.6474L-17.2779 22.1034ZM-16.8725 27.9104H-19.872C-20.8256 30.0992 -21.6086 31.8912 -22.016 32.7765C-22.7456 34.3872 -23.8635 35.4474 -26.0288 35.4197H-29.1307L-25.9435 27.9402C-23.7334 22.7498 -21.312 17.0688 -20.4864 15.2405C-19.7611 13.6298 -18.6112 12.4885 -16.4672 12.5888L0.499176 12.5845C-1.69815 17.7685 -4.13869 23.456 -4.97496 25.2906C-5.7067 26.8928 -6.84163 28.0341 -8.98349 27.9381L-3.70135 35.4218H-11.8187L-16.8725 27.9104ZM-103.654 12.5888L-100.535 12.5845C-102.737 17.7685 -105.152 23.456 -105.984 25.2906C-106.714 26.8928 -107.849 28.0341 -109.986 27.9381H-113.967C-114.91 30.1333 -115.691 31.8933 -116.083 32.7786C-116.809 34.3893 -117.95 35.5392 -120.092 35.4261L-123.215 35.4389L-120.002 27.9424H-126.953C-124.74 22.7498 -122.325 17.0688 -121.504 15.2405C-120.762 13.6298 -119.633 12.4885 -117.495 12.5888L-114.387 12.5781L-118.413 22.0949L-111.671 22.1034C-111.031 22.1034 -110.295 21.568 -110.033 20.9066C-109.261 19.0058 -108.508 17.1136 -107.646 15.2405C-106.921 13.6298 -105.807 12.5376 -103.654 12.5888ZM-38.2891 35.4218L-35.1488 35.4261C-33.0005 35.5392 -31.8699 34.3893 -31.1445 32.7786L-22.4768 12.5845L-25.6128 12.5888C-27.7611 12.4906 -28.896 13.6298 -29.6214 15.2405C-30.464 17.0688 -32.8875 22.7498 -35.0891 27.9424L-38.2891 35.4218ZM-95.4453 22.1034H-88.8043C-88.1515 22.1034 -87.4496 21.5573 -87.1616 20.9066L-85.9627 18.144H-93.2928C-93.5531 18.144 -93.8645 18.3786 -93.9797 18.6453L-95.4453 22.1034ZM-97.9179 27.9104L-87.0059 27.9381C-84.8 27.9381 -83.7397 26.8928 -83.008 25.2906C-82.176 23.456 -79.7589 17.7685 -77.5659 12.5845L-94.5493 12.5888C-96.7019 12.5269 -97.8155 13.6298 -98.5515 15.2405L-107.166 35.424H-104.041C-101.867 35.4624 -100.768 34.3872 -100.032 32.7765C-99.6288 31.8912 -98.8629 30.0992 -97.9179 27.9104ZM-77.3056 35.4154L-74.159 35.4261C-72.0277 35.5392 -70.8992 34.3893 -70.1675 32.7786C-69.3632 30.9973 -67.0613 25.5573 -64.9131 20.4821C-64.8491 20.3456 -63.9829 18.2826 -63.9147 18.1461H-57.0027L-54.656 12.5952L-71.5691 12.5845C-73.7237 12.4906 -74.8523 13.632 -75.5776 15.2426L-76.8107 18.1674L-69.9328 18.1461L-77.3056 35.4154ZM-49.536 22.1034H-42.9163C-42.2805 22.1034 -41.5509 21.5573 -41.2736 20.9066L-40.0832 18.1461H-47.3707C-47.6352 18.1461 -47.9403 18.3765 -48.0512 18.6474L-49.536 22.1034ZM-44.2646 27.9381H-52.0086C-52.9579 30.1226 -53.7323 31.8933 -54.1312 32.7786C-54.8715 34.3893 -55.9957 35.5392 -58.2144 35.4261L-61.2459 35.4218L-58.0694 27.9424C-55.8592 22.7498 -53.4379 17.0688 -52.5974 15.2405C-51.872 13.6298 -50.8502 12.5781 -48.5931 12.5888H-31.6694L-40.3093 32.7765C-41.0347 34.3872 -42.176 35.537 -44.3243 35.424H-47.3622L-44.2646 27.9381Z" fill="#00265D"/>
</g>
<defs>
<clipPath id="clip0_7_271">
<rect width="32" height="32" fill="white" transform="translate(4 4)"/>
</clipPath>
</defs>
</svg>
