<svg width="40" height="40" viewBox="0 0 40 40" fill="none" xmlns="http://www.w3.org/2000/svg">
<path d="M36.2384 16.0019C24.72 16.3212 13.5727 18.9352 12.5369 22.6421C12.442 22.9783 12.4184 23.3107 12.4184 23.6494C12.4184 27.3001 20.0393 28.5488 28.2894 29.5773C28.4309 29.5939 28.4247 29.4812 28.3786 29.4001C28.3462 29.3426 28.2227 29.1245 28.1379 28.9741C28.1048 28.9155 28.0693 28.8769 27.9539 28.8438C23.4384 27.6948 18.8544 26.0164 18.8544 24.4514C18.8544 21.4912 26.5351 18.5591 35.2816 17.2187C35.5704 17.1631 35.7082 17.1089 35.9021 16.9549C36.1447 16.7616 36.6785 16.3255 36.9042 16.1453C37.0514 16.023 36.9991 15.9844 36.9435 15.9856C36.7091 15.9903 36.4747 15.9948 36.2384 16.0019Z" fill="#1B1D80"/>
<path d="M23.4964 33.8726C17.5131 32.3731 11.5834 27.3515 12.5175 22.6991C13.8825 15.9111 23.0113 9.3357 34.4037 6.24575C34.6606 6.16965 34.7554 6 34.4261 6H18.8775C16.1855 6 15.6018 6.34804 14.5591 7.75892C14.0035 8.50926 9.35027 14.9256 7.25189 17.8178C6.98187 18.1621 6.60023 18.5326 5.7509 18.5326H2C2 18.5338 2 18.5345 2.00312 18.5363C6.44808 31.0951 11.2229 34.0566 16.0059 34.0566H23.5576C23.6642 34.0566 23.7708 33.9418 23.4964 33.8726Z" fill="#DF0011"/>
</svg>
