<svg width="40" height="40" viewBox="0 0 40 40" fill="none" xmlns="http://www.w3.org/2000/svg">
<path fill-rule="evenodd" clip-rule="evenodd" d="M6.08385 12.8984C5.60867 14.4051 5.1335 15.9118 4.65833 17.4178C4.86888 17.5171 5.07944 17.6165 5.32206 17.717C5.5653 17.8182 5.8406 17.9207 6.1379 18.025C6.4352 18.1294 6.75449 18.235 7.09705 18.3368C7.44022 18.4392 7.80666 18.5379 8.20641 18.6284C8.60616 18.719 9.0386 18.8019 9.44651 18.8673C9.85381 18.932 10.2366 18.9798 10.647 19.0138C11.0568 19.0483 11.4955 19.0691 11.9374 19.0678C12.3786 19.0659 12.8236 19.042 13.246 19.0012C13.669 18.9603 14.0694 18.9031 14.4547 18.829C14.84 18.7554 15.2096 18.6643 15.5339 18.5687C15.8582 18.4732 16.1373 18.3739 16.3912 18.2758C16.6451 18.1784 16.8739 18.0828 17.1216 17.9684C17.3698 17.854 17.637 17.7202 17.8934 17.5743C18.1492 17.4279 18.395 17.2695 18.686 17.0784C18.977 16.8879 19.3133 16.6648 19.5961 16.458C19.8783 16.2512 20.1071 16.0607 20.3095 15.8678C20.5119 15.6748 20.6873 15.4793 20.8815 15.2694C21.0757 15.0601 21.2881 14.8357 21.4245 14.6854C21.5603 14.5346 21.6206 14.4585 21.681 14.3818C21.5188 14.4963 21.3566 14.6106 21.1316 14.7458C20.9066 14.8803 20.6181 15.0349 20.29 15.1801C19.9619 15.3247 19.5936 15.4592 19.2184 15.5749C18.8425 15.6912 18.4604 15.788 18.0933 15.8565C17.7268 15.9244 17.3755 15.9633 16.9462 15.9885C16.5163 16.0136 16.0084 16.0256 15.4704 16.0268C14.9324 16.0281 14.3654 16.0193 13.872 15.9746C13.3786 15.93 12.9594 15.8502 12.5785 15.7616C12.1982 15.6729 11.8569 15.5768 11.515 15.4699C11.1725 15.363 10.8299 15.2468 10.4767 15.1173C10.1234 14.9884 9.75952 14.8464 9.40377 14.6999C9.0474 14.5534 8.69919 14.402 8.33464 14.231C7.96945 14.0594 7.58793 13.8677 7.28121 13.7036C6.97448 13.5396 6.74192 13.4025 6.55462 13.2731C6.36731 13.1436 6.2259 13.021 6.08385 12.8984Z" fill="#FCCA15"/>
<path fill-rule="evenodd" clip-rule="evenodd" d="M4.5603 18.0293C4.07821 19.5592 3.59612 21.0892 3.1134 22.6191C3.41636 22.7379 3.71869 22.8573 4.02352 22.9635C4.32836 23.0704 4.63572 23.1647 4.95187 23.2608C5.26802 23.357 5.59361 23.4551 5.91354 23.5418C6.23346 23.6286 6.5471 23.7046 6.9173 23.78C7.28751 23.8561 7.71366 23.9328 8.07067 23.9831C8.42831 24.0334 8.71618 24.0572 9.19323 24.0692C9.6703 24.0818 10.3359 24.0818 10.9506 24.0497C11.566 24.0183 12.1298 23.9548 12.593 23.8687C13.0562 23.7832 13.4189 23.6744 13.791 23.5506C14.1631 23.4262 14.5452 23.2866 14.9079 23.1402C15.2706 22.9937 15.6144 22.8403 15.9098 22.6882C16.2052 22.5361 16.4522 22.3853 16.691 22.2269C16.9305 22.0691 17.1618 21.9031 17.3919 21.7353C17.6219 21.5669 17.8501 21.3953 18.0688 21.2136C18.2882 21.032 18.4981 20.8396 18.6791 20.6768C18.8595 20.514 19.0103 20.3808 19.18 20.2142C19.3491 20.0482 19.5377 19.849 19.7187 19.6497C19.9004 19.4505 20.0751 19.2506 20.2498 19.0507C19.801 19.3053 19.3523 19.5599 18.9462 19.7591C18.5408 19.9584 18.1782 20.1017 17.7413 20.2431C17.3051 20.3845 16.7948 20.5247 16.3303 20.6202C15.8664 20.7164 15.4491 20.7686 14.9997 20.8069C14.5509 20.8453 14.07 20.8692 13.6766 20.8798C13.2831 20.8912 12.977 20.8886 12.5986 20.8641C12.2203 20.8396 11.769 20.7931 11.3529 20.7284C10.9368 20.6636 10.5553 20.5806 10.2272 20.5033C9.89845 20.426 9.62378 20.3544 9.32649 20.2657C9.02918 20.1777 8.70989 20.0721 8.40693 19.9571C8.10335 19.8421 7.81674 19.7176 7.50121 19.5768C7.18506 19.4367 6.84125 19.2801 6.51504 19.1199C6.18946 18.9583 5.88148 18.793 5.55841 18.6101C5.23597 18.4278 4.89845 18.2286 4.5603 18.0293Z" fill="#FCCA15"/>
<path fill-rule="evenodd" clip-rule="evenodd" d="M3.00969 23.1387C2.5408 24.69 2.07191 26.2419 1.60303 27.7938C1.97072 27.9139 2.33778 28.0346 2.68348 28.1395C3.0298 28.2451 3.35476 28.335 3.69605 28.4199C4.03734 28.5054 4.39499 28.5852 4.77022 28.6531C5.14608 28.7203 5.53892 28.7756 5.90158 28.8222C6.26362 28.8687 6.59549 28.907 7.00592 28.9422C7.41636 28.9774 7.90599 29.0095 8.38116 28.9994C8.85633 28.99 9.31642 28.9378 9.74949 28.8737C10.1825 28.8096 10.588 28.7335 10.9921 28.6399C11.3969 28.5456 11.8004 28.4343 12.2448 28.2885C12.6891 28.1427 13.1744 27.9623 13.6175 27.7668C14.0612 27.5707 14.4641 27.3595 14.8186 27.1495C15.1725 26.939 15.4792 26.7303 15.7966 26.4984C16.1134 26.2664 16.4415 26.0118 16.769 25.7309C17.0958 25.4499 17.422 25.1432 17.7143 24.8402C18.0059 24.5366 18.2636 24.2368 18.5213 23.9369C18.3422 24.04 18.1624 24.1437 17.9487 24.2569C17.7344 24.37 17.4861 24.4932 17.187 24.6296C16.8878 24.7667 16.5377 24.9169 16.1084 25.0564C15.6791 25.196 15.17 25.3242 14.6401 25.4273C14.1109 25.5304 13.5609 25.6089 13.0267 25.6624C12.4918 25.7152 11.972 25.7428 11.434 25.7428C10.8959 25.7428 10.3397 25.7145 9.80228 25.6416C9.26489 25.5687 8.74697 25.4512 8.2586 25.3248C7.7696 25.1978 7.30951 25.0621 6.83873 24.8987C6.36733 24.7352 5.88524 24.5441 5.45532 24.3606C5.02541 24.1771 4.64765 24.0017 4.24854 23.7993C3.85004 23.5969 3.42955 23.3675 3.00969 23.1387Z" fill="#FCCA15"/>
<path fill-rule="evenodd" clip-rule="evenodd" d="M33.1228 27.4286C33.598 25.922 34.0732 24.4159 34.5477 22.9092C34.3378 22.8099 34.1272 22.7112 33.8846 22.61C33.6414 22.5095 33.3661 22.4064 33.0681 22.302C32.7708 22.1983 32.4522 22.0927 32.109 21.9903C31.7664 21.8884 31.4 21.7898 31.0003 21.6993C30.6005 21.6081 30.1674 21.5251 29.7602 21.4604C29.3522 21.395 28.9701 21.3479 28.5596 21.3133C28.1492 21.2794 27.7111 21.258 27.2693 21.2599C26.828 21.2611 26.383 21.2857 25.96 21.3259C25.5376 21.3667 25.1373 21.4239 24.752 21.4981C24.3667 21.5723 23.9971 21.6628 23.6728 21.7583C23.3485 21.8539 23.0694 21.9538 22.8155 22.0512C22.5615 22.1493 22.3327 22.2442 22.0845 22.3586C21.8368 22.4736 21.5697 22.6069 21.3133 22.7534C21.0568 22.8992 20.8117 23.0576 20.5207 23.2487C20.2297 23.4397 19.8934 23.6623 19.6106 23.8691C19.3283 24.0759 19.0996 24.2669 18.8972 24.4599C18.6948 24.6529 18.5188 24.8477 18.3252 25.0577C18.131 25.2676 17.9185 25.492 17.7821 25.6422C17.6457 25.7925 17.5854 25.8692 17.5257 25.9452C17.6879 25.8308 17.85 25.7164 18.075 25.5819C18.3001 25.4474 18.5886 25.2921 18.9166 25.1476C19.2447 25.003 19.6131 24.8685 19.9883 24.7522C20.3635 24.6365 20.7463 24.5391 21.1134 24.4712C21.4798 24.4027 21.8312 24.3637 22.2605 24.3386C22.6904 24.3135 23.1982 24.3015 23.7363 24.3003C24.2737 24.299 24.8412 24.3078 25.3346 24.3524C25.828 24.3971 26.2473 24.4775 26.6275 24.5655C27.0084 24.6541 27.3497 24.7509 27.6916 24.8572C28.0336 24.964 28.3767 25.0809 28.73 25.2098C29.0832 25.3393 29.4471 25.4807 29.8029 25.6272C30.1593 25.7736 30.5075 25.9251 30.872 26.0967C31.2366 26.2683 31.6181 26.4594 31.9255 26.6234C32.2322 26.7881 32.4647 26.9245 32.6521 27.0546C32.8394 27.1841 32.9808 27.3061 33.1228 27.4286Z" fill="#FCCA15"/>
<path fill-rule="evenodd" clip-rule="evenodd" d="M34.6459 22.3012C35.1286 20.7712 35.6107 19.2419 36.0934 17.712C35.7904 17.5926 35.4881 17.4738 35.1833 17.3669C34.8784 17.2607 34.5711 17.1664 34.2549 17.0702C33.9388 16.9741 33.6132 16.8754 33.2933 16.7886C32.9733 16.7019 32.6597 16.6265 32.2895 16.5504C31.9193 16.4744 31.4931 16.3983 31.1361 16.348C30.7785 16.2977 30.49 16.2732 30.0129 16.2613C29.5365 16.2493 28.8709 16.2493 28.2555 16.2808C27.6408 16.3122 27.077 16.3757 26.6138 16.4618C26.1506 16.5479 25.7879 16.656 25.4158 16.7805C25.0437 16.9043 24.6616 17.0445 24.2989 17.1909C23.9356 17.3374 23.5924 17.4908 23.297 17.6429C23.0016 17.795 22.7546 17.9458 22.5151 18.1036C22.2763 18.262 22.045 18.4273 21.8149 18.5958C21.5849 18.7642 21.3567 18.9358 21.1374 19.1175C20.9186 19.2991 20.7081 19.4908 20.5277 19.6536C20.3473 19.8164 20.1964 19.9503 20.0267 20.1163C19.857 20.2828 19.6691 20.4815 19.4875 20.6807C19.3064 20.8806 19.1317 21.0805 18.957 21.2797C19.4057 21.0252 19.8545 20.7706 20.2606 20.5714C20.666 20.3727 21.0286 20.2288 21.4648 20.0874C21.9017 19.9459 22.412 19.8064 22.8759 19.7102C23.3404 19.614 23.7577 19.5619 24.2071 19.5242C24.6559 19.4858 25.1367 19.4613 25.5302 19.4506C25.9237 19.4399 26.2298 19.4418 26.6081 19.4663C26.9865 19.4908 27.4378 19.5374 27.8539 19.6021C28.27 19.6668 28.6515 19.7498 28.9796 19.8271C29.3083 19.9044 29.583 19.9761 29.8803 20.0647C30.177 20.1534 30.4969 20.2583 30.7998 20.3734C31.1034 20.4884 31.39 20.6135 31.7056 20.7536C32.0211 20.8944 32.3655 21.0503 32.6911 21.2112C33.0173 21.3721 33.3253 21.5381 33.6477 21.7204C33.9708 21.9027 34.3083 22.1019 34.6459 22.3012Z" fill="#FCCA15"/>
<path fill-rule="evenodd" clip-rule="evenodd" d="M36.197 17.1894C36.6659 15.6375 37.1348 14.0862 37.603 12.5342C37.236 12.4136 36.8689 12.2935 36.5226 12.1879C36.1769 12.0829 35.8519 11.9924 35.5106 11.9076C35.1693 11.8227 34.8117 11.7422 34.4358 11.675C34.0606 11.6071 33.6678 11.5524 33.3051 11.5059C32.9431 11.4594 32.6112 11.421 32.2008 11.3858C31.7903 11.3506 31.3007 11.318 30.8255 11.328C30.3504 11.3381 29.8896 11.3896 29.4572 11.4537C29.0242 11.5178 28.6187 11.5945 28.214 11.6882C27.8098 11.7818 27.4057 11.8931 26.9613 12.0389C26.5169 12.1848 26.0323 12.3652 25.5886 12.5613C25.1455 12.7567 24.7426 12.9686 24.3881 13.1785C24.0336 13.3885 23.7275 13.5971 23.4101 13.8291C23.0933 14.061 22.7652 14.3162 22.4377 14.5972C22.1109 14.8775 21.7847 15.1843 21.4924 15.4872C21.2008 15.7908 20.9431 16.0907 20.6854 16.3911C20.8645 16.2874 21.0436 16.1837 21.258 16.0705C21.4723 15.9574 21.7206 15.8348 22.0197 15.6978C22.3189 15.5608 22.669 15.4106 23.0983 15.271C23.5276 15.1321 24.0367 15.0039 24.5659 14.9002C25.0958 14.7971 25.6458 14.7185 26.18 14.6657C26.7149 14.6123 27.2347 14.5846 27.7721 14.5846C28.3108 14.5852 28.867 14.6135 29.4044 14.6864C29.9412 14.7594 30.4591 14.8763 30.9481 15.0032C31.4371 15.1296 31.8972 15.2654 32.368 15.4294C32.8394 15.5928 33.3215 15.7839 33.7514 15.9668C34.1813 16.1504 34.559 16.3264 34.9582 16.5288C35.3567 16.7312 35.7771 16.96 36.197 17.1894Z" fill="#FCCA15"/>
</svg>
