<svg width="40" height="40" viewBox="0 0 40 40" fill="none" xmlns="http://www.w3.org/2000/svg">
<path fill-rule="evenodd" clip-rule="evenodd" d="M28.7625 31.4253C28.5823 31.4788 28.3931 31.4951 28.2065 31.4731C28.0198 31.4511 27.8396 31.3913 27.6768 31.2975C26.852 30.8349 26.0886 30.2707 25.4045 29.6179C25.267 29.5105 25.1575 29.3715 25.0854 29.2126C25.0134 29.0537 24.9808 28.8797 24.9906 28.7055C25.1213 27.9692 25.0574 27.1869 25.4617 26.5117C25.8012 25.9377 25.9671 25.2776 25.9395 24.6112C25.9277 24.0752 25.9842 23.5398 26.1077 23.018C26.3274 21.8736 26.3774 20.703 26.2563 19.544C26.1091 19.4728 25.9423 19.4532 25.7826 19.4883C25.6229 19.5234 25.4797 19.6112 25.3759 19.7374C24.771 20.1854 24.0836 20.5093 23.3531 20.6908C22.3141 21.0211 21.3041 21.4366 20.3333 21.9329C19.9639 22.1222 19.649 22.4029 19.4185 22.7482C19.188 23.0935 19.0497 23.4919 19.0166 23.9058C18.6169 25.8146 18.0161 27.6758 17.2243 29.4581C16.9361 30.1164 16.7678 30.827 16.5452 31.5145C16.523 31.6382 16.4854 31.7586 16.4331 31.8728C15.8451 32.8777 15.456 33.9864 15.2868 35.1383C15.256 35.2908 15.1842 35.4349 15.1382 35.5869C15.0417 35.901 15.5162 36.1959 15.2375 36.4662C15.0457 36.6785 14.945 36.9576 14.9571 37.2435C14.8697 37.3123 14.7646 37.3548 14.6541 37.3663C14.5435 37.3777 14.4319 37.3575 14.3324 37.308C13.4228 36.7018 12.3399 36.335 11.6826 35.3789C11.3284 34.9299 11.1256 34.3801 11.1034 33.8087C11.0857 33.6553 11.1186 33.5004 11.197 33.3675C11.2755 33.2346 11.3952 33.131 11.538 33.0723C12.1253 32.7637 12.6429 32.3373 13.0583 31.8199C13.4738 31.3025 13.7782 30.7051 13.9527 30.0649C14.1933 29.3538 14.5219 28.6756 14.9307 28.046C15.2879 27.455 15.4713 26.7562 16.022 26.2835C16.1308 25.2477 16.7701 24.4116 17.1996 23.5233C17.581 22.7332 17.8345 21.9228 18.153 21.1237C18.5545 20.1249 18.7732 19.0841 19.0816 18.0646C19.153 17.7914 19.2468 17.5245 19.362 17.2666C19.9952 16.103 20.5181 14.8826 20.9238 13.6215C21.2788 12.3614 21.9001 11.1776 22.2658 9.92034C22.6583 8.5582 23.0935 7.214 23.5825 5.88269C23.6567 5.60832 23.696 5.32571 23.6997 5.04152C23.7477 4.47609 23.8714 3.91968 24.0676 3.3872C24.348 2.638 24.9564 2.36657 25.6075 2.78997C25.9377 2.97401 26.2189 3.23453 26.4276 3.5497C26.6363 3.86486 26.7664 4.22548 26.807 4.6013C26.9293 5.75764 27.1166 6.90669 27.2097 8.07032C27.3179 9.42405 27.3644 10.78 27.3672 12.1332C27.3706 13.8649 27.5355 15.5809 27.651 17.3036C27.8356 19.31 28.1586 21.3013 28.6178 23.2631C28.688 23.6358 28.7056 24.0166 28.6699 24.3942C28.551 25.8391 28.6424 27.2936 28.9414 28.7122C29.2011 29.6097 29.1378 30.5698 28.7625 31.4253ZM24.505 8.18864C24.1478 8.45932 23.9035 8.85266 23.8192 9.29282C23.4591 10.5658 22.8927 11.7681 22.5899 13.063C22.4637 13.6783 22.2501 14.2724 21.9557 14.8272C21.5961 15.3483 21.3545 15.9416 21.248 16.5656C21.1758 17.2841 21.0161 17.9911 20.7724 18.6708C20.6631 19.0581 20.6098 19.459 20.6143 19.8614C20.8848 19.8954 21.1594 19.8498 21.4044 19.7302C22.8064 19.0785 24.1999 18.4168 25.6024 17.7702C25.7638 17.7049 25.9002 17.5899 25.9917 17.4419C26.0833 17.2939 26.1253 17.1205 26.1116 16.947C26.088 16.4744 26.1166 16.0007 26.1969 15.5344C26.2792 15.1357 26.2521 14.7222 26.1184 14.3377C25.8937 13.687 25.7285 13.0173 25.6249 12.3368C25.5172 11.1356 25.0641 10.0112 24.943 8.81672C24.9267 8.68433 24.8783 8.55794 24.8019 8.44856C24.7256 8.33918 24.6236 8.25014 24.505 8.18921V8.18864Z" fill="#CD1520"/>
</svg>
