<svg width="40" height="40" viewBox="0 0 40 40" fill="none" xmlns="http://www.w3.org/2000/svg">
<g clip-path="url(#clip0_124_1620)">
<path d="M34.6819 5.38359V14.9641L30.6974 20.3798H34.6819V34.3079H3.22229L24.305 5.3418L34.6819 5.38359Z" fill="#DEBB5C"/>
<path d="M107.566 20.38L95.3008 20.3931L100.422 13.416H108.991C112.073 13.416 114.846 16.1917 114.846 19.2702V20.38H125.445L120.314 27.344H114.846V34.3082H100.855C97.6327 34.3082 94.0501 31.6761 94.0501 27.3467C94.0501 23.0173 97.6329 20.38 100.855 20.38H107.566H107.566ZM47.4925 20.38L35.2252 20.3931L40.3457 13.416H48.9157C51.9969 13.416 54.7725 16.1917 54.7725 19.2702V34.3082H40.7792C37.5569 34.3082 33.9744 31.6761 33.9744 27.3467C33.9744 23.0173 37.5569 20.38 40.7792 20.38H47.4925Z" fill="#DEBB5C"/>
<path d="M73.3094 14.5229V33.2009H61.6737C58.5873 33.2009 55.3259 30.3521 55.3259 26.5528V14.523H60.5482V26.712C60.5482 27.6599 61.2089 28.4537 62.5459 28.4537H68.0868V14.523H73.3092L73.3094 14.5229ZM33.5747 33.2009H5.3999L24.8716 6.44922H30.8852L14.7403 28.4564H33.5747V33.2009Z" fill="#BA282E"/>
<path d="M19.0905 26.2371L33.5745 6.44922V14.6014L28.5115 21.4897H33.5745V26.2368L19.0905 26.2371Z" fill="#BA282E"/>
</g>
<defs>
<clipPath id="clip0_124_1620">
<rect width="33" height="31.7778" fill="white" transform="translate(2 4.10742)"/>
</clipPath>
</defs>
</svg>
