<svg width="40" height="40" viewBox="0 0 40 40" fill="none" xmlns="http://www.w3.org/2000/svg">
<rect width="30" height="30" transform="translate(5 5)" fill="#FFEC00"/>
<path d="M28.3286 17.8182H29.1613L29.4351 16.5293H31.0246L30.7499 17.8182H31.8L31.5767 18.8669H30.5272L30.1794 20.5015C30.1017 20.8688 30.1806 20.9206 30.6081 20.9206C30.8025 20.9206 30.9621 20.9133 31.1739 20.906L30.9633 21.8954C30.6313 21.9401 30.205 21.9703 29.74 21.9703C28.7055 21.9703 28.3321 21.716 28.5187 20.8386L28.9386 18.8669H28.106L28.3286 17.8182Z" fill="#231F20"/>
<path d="M26.1708 17.8203H27.7598L26.8965 21.883H25.3076L26.1708 17.8203Z" fill="#231F20"/>
<path d="M26.4734 16.3945H28.0625L27.8583 17.354H26.2693L26.4734 16.3945Z" fill="#231F20"/>
<path d="M21.9612 17.8204L21.0975 21.8831L22.6437 21.8831L23.5076 17.8204L21.9612 17.8204Z" fill="#231F20"/>
<path d="M25.3364 17.6387C24.6269 17.6387 23.4975 18.3377 23.1998 19.5823L23.1234 19.8627H23.15C23.3757 19.3225 23.9412 19.0334 24.703 19.0334C24.9083 19.0334 25.1417 19.0615 25.3294 19.1037L25.6382 17.653C25.5371 17.644 25.4317 17.6387 25.3364 17.6387Z" fill="#231F20"/>
<path d="M19.7182 17.8203H21.3069L20.4436 21.883H18.8546L19.7182 17.8203Z" fill="#231F20"/>
<path d="M20.0205 16.3945H21.6097L21.4061 17.354H19.8168L20.0205 16.3945Z" fill="#231F20"/>
<path d="M15.7904 20.8926C16.518 20.8926 16.9916 20.5329 17.1346 19.8585C17.2781 19.1831 16.9574 18.8241 16.2306 18.8241C15.4884 18.8241 15.0124 19.2284 14.8789 19.8585C14.7449 20.4881 15.0484 20.8926 15.7904 20.8926ZM13.7227 17.8199H15.2667L15.1524 18.3593H15.1672C15.5924 17.947 16.2039 17.7148 16.8487 17.7148C18.2878 17.7148 19.0557 18.5088 18.7562 19.9183C18.5059 21.0952 17.4336 22.0464 15.9424 22.0464C15.2378 22.0464 14.7479 21.8142 14.5413 21.5148H14.5265L14.1356 23.3514H12.5469L13.7227 17.8199Z" fill="#231F20"/>
<path d="M9.26663 20.6189C9.25753 20.7686 9.29199 20.8885 9.41815 20.9642C9.54326 21.0466 9.75105 21.0908 10.0959 21.0908C10.448 21.0908 10.8373 21.0235 10.8995 20.7312C10.9456 20.514 10.8007 20.4536 10.4207 20.4088L9.04011 20.2365C8.13506 20.1239 7.7328 19.7943 7.87981 19.1044C8.11332 18.0029 9.13146 17.6582 10.653 17.6582C11.7326 17.6582 13.0551 17.8527 12.8999 19.007H11.1163C11.1378 18.8346 11.049 18.7225 10.9045 18.6622C10.7613 18.5954 10.5565 18.5722 10.3538 18.5722C9.89656 18.5722 9.60466 18.6773 9.54546 18.9547C9.51852 19.0822 9.59962 19.1944 9.99472 19.2396L11.3347 19.3893C12.4034 19.5094 12.8713 19.8466 12.7027 20.641C12.4986 21.6003 11.4888 22.0495 9.80238 22.0495C8.67761 22.0495 7.19864 21.8481 7.42269 20.6189H9.26663Z" fill="#231F20"/>
<path d="M32.2726 18.1381C32.2914 18.1381 32.3064 18.1337 32.3176 18.1249C32.3285 18.1161 32.3341 18.1038 32.3341 18.0883C32.3341 18.0739 32.3294 18.062 32.32 18.0526C32.3106 18.0432 32.2954 18.0385 32.2744 18.0385H32.2344V18.1381H32.2726ZM32.1514 17.9753H32.2892C32.3258 17.9753 32.3571 17.9836 32.3831 18.0002C32.4091 18.0168 32.4222 18.0446 32.4222 18.0833C32.4222 18.1022 32.417 18.1199 32.4065 18.1365C32.3959 18.1531 32.3807 18.1658 32.3607 18.1747L32.4338 18.306H32.3458L32.2909 18.198H32.2344V18.306H32.1514V17.9753ZM32.2792 18.404C32.3136 18.404 32.3458 18.3977 32.3756 18.3849C32.4056 18.3722 32.4314 18.3544 32.4529 18.3317C32.4745 18.309 32.4915 18.2818 32.5036 18.2503C32.5157 18.2187 32.5218 18.1836 32.5218 18.1448C32.5218 18.106 32.5157 18.0706 32.5036 18.0385C32.4915 18.0063 32.4745 17.9787 32.4529 17.9554C32.4314 17.9321 32.4056 17.9141 32.3756 17.9014C32.3458 17.8887 32.3136 17.8823 32.2792 17.8823C32.2438 17.8823 32.2115 17.8887 32.1821 17.9014C32.1527 17.9141 32.1272 17.9321 32.1056 17.9554C32.0841 17.9787 32.0672 18.0063 32.055 18.0385C32.0427 18.0706 32.0367 18.106 32.0367 18.1448C32.0367 18.1836 32.0427 18.2187 32.055 18.2503C32.0672 18.2818 32.0841 18.309 32.1056 18.3317C32.1272 18.3544 32.1527 18.3722 32.1821 18.3849C32.2115 18.3977 32.2438 18.404 32.2792 18.404ZM32.2792 18.4754C32.235 18.4754 32.1935 18.4674 32.1547 18.4513C32.116 18.4352 32.0819 18.4125 32.0525 18.3832C32.0231 18.3539 32.0001 18.319 31.9836 18.2785C31.9669 18.2381 31.9586 18.1935 31.9586 18.1448C31.9586 18.0961 31.9669 18.0512 31.9836 18.0102C32.0001 17.9692 32.0231 17.9341 32.0525 17.9047C32.0819 17.8753 32.116 17.8526 32.1547 17.8365C32.1935 17.8205 32.235 17.8125 32.2792 17.8125C32.3236 17.8125 32.3651 17.8205 32.4039 17.8365C32.4427 17.8526 32.4768 17.8753 32.5061 17.9047C32.5355 17.9341 32.5584 17.9692 32.575 18.0102C32.5916 18.0512 32.5999 18.0961 32.5999 18.1448C32.5999 18.1935 32.5916 18.2381 32.575 18.2785C32.5584 18.319 32.5355 18.3539 32.5061 18.3832C32.4768 18.4125 32.4427 18.4352 32.4039 18.4513C32.3651 18.4674 32.3236 18.4754 32.2792 18.4754Z" fill="#231F20"/>
</svg>
