<svg width="40" height="40" viewBox="0 0 40 40" fill="none" xmlns="http://www.w3.org/2000/svg">
<rect width="30" height="30" transform="translate(5 5)" fill="#3DAF29"/>
<g clip-path="url(#clip0_124_1704)">
<path d="M11.2896 17.123C11.6228 17.123 11.9239 17.1447 12.1921 17.189C12.4579 17.2312 12.6855 17.3112 12.8694 17.4247C13.0557 17.5394 13.1981 17.698 13.2993 17.8997C13.398 18.1026 13.4474 18.3618 13.4474 18.677C13.4474 18.8633 13.4209 19.0445 13.3646 19.2222C13.3092 19.3986 13.2252 19.5566 13.1181 19.6972C13.0088 19.8365 12.8787 19.9515 12.727 20.0458C12.575 20.1388 12.3992 20.1981 12.2014 20.2228V20.2408C12.5166 20.3269 12.7595 20.4937 12.9305 20.7384C13.1018 20.9829 13.187 21.2671 13.187 21.5892C13.187 21.9495 13.1163 22.2659 12.9769 22.5392C12.8378 22.8113 12.6491 23.0377 12.4143 23.2171C12.1792 23.3977 11.9094 23.5347 11.6066 23.6268C11.302 23.7198 10.9817 23.7662 10.6469 23.7662H7.11285L8.49879 17.1231L11.2896 17.123ZM10.5822 22.6297C10.9187 22.6297 11.1927 22.5403 11.4073 22.3615C11.6189 22.1818 11.7258 21.9148 11.7258 21.5614C11.7258 21.3868 11.6912 21.251 11.6189 21.1517C11.5488 21.0536 11.4585 20.9777 11.3456 20.9235C11.2336 20.8711 11.1102 20.839 10.975 20.8266C10.8369 20.8148 10.7041 20.8082 10.5735 20.8082H9.14178L8.75014 22.6298L10.5822 22.6297ZM11.0033 19.813C11.2697 19.813 11.5 19.7399 11.696 19.5942C11.8911 19.4485 11.988 19.2296 11.988 18.9385C11.988 18.6782 11.9194 18.4999 11.7794 18.403C11.64 18.3088 11.4525 18.2594 11.2174 18.2594H9.67279L9.34768 19.813H11.0033Z" fill="white"/>
<path d="M15.6786 18.959L14.6566 23.7667H13.3363L14.3487 18.959H15.6786Z" fill="white"/>
<path d="M17.5859 18.9552L17.4372 19.6289H17.4553C17.884 19.0951 18.4451 18.8281 19.1399 18.8281C20.0757 18.8281 20.5444 19.2586 20.5444 20.1198C20.5444 20.1698 20.5376 20.2327 20.5252 20.3098C20.5128 20.388 20.4987 20.4666 20.4833 20.5473C20.468 20.6273 20.4517 20.7044 20.4364 20.7755C20.4217 20.8453 20.4088 20.9043 20.4045 20.9459L19.8103 23.7629H18.4903L19.0746 20.9471C19.0851 20.8742 19.1029 20.7755 19.1258 20.6509C19.148 20.5274 19.1583 20.4302 19.1583 20.3628C19.1583 20.2204 19.0905 20.1027 18.959 20.0094C18.8247 19.9163 18.6814 19.87 18.5255 19.87C18.3274 19.87 18.1522 19.9082 18.0005 19.9859C17.8482 20.0629 17.7175 20.1641 17.6095 20.2875C17.5002 20.4127 17.4114 20.5539 17.3404 20.7156C17.2666 20.8766 17.2133 21.0401 17.1784 21.2075L16.6384 23.7629H15.3271L16.3214 18.9552H17.5859Z" fill="white"/>
<path d="M24.0757 18.9565L23.8698 19.8373H22.9303L22.4378 22.2295L22.4107 22.3635L22.3996 22.4523C22.3996 22.5399 22.4146 22.607 22.4429 22.654L22.5489 22.76L22.6934 22.8015L22.8481 22.8066C23.0079 22.8066 23.1657 22.7973 23.3219 22.7789L23.0973 23.791C22.9616 23.8042 22.8258 23.8144 22.6888 23.8244C22.5519 23.8331 22.4131 23.8386 22.2713 23.8386C22.1148 23.8386 21.9631 23.8244 21.8098 23.7962C21.6569 23.7691 21.5218 23.7191 21.4004 23.6481C21.2812 23.5764 21.1831 23.4786 21.1124 23.3552C21.0407 23.2311 21.0073 23.0695 21.0148 22.8708C21.0148 22.8091 21.0208 22.739 21.0332 22.6616C21.0456 22.5845 21.0606 22.502 21.0807 22.4156L21.6187 19.837H20.7544L20.9585 18.9562H21.8056L22.1024 17.498H23.4236L23.1262 18.9562L24.0757 18.9565Z" fill="white"/>
<path d="M25.1369 21.7657V21.8398V21.9602C25.1369 22.2395 25.2246 22.4653 25.3961 22.6387C25.5713 22.813 25.8371 22.8988 26.1966 22.8988C26.3287 22.8988 26.4434 22.8799 26.5458 22.8386C26.6481 22.7988 26.7384 22.7464 26.8155 22.6853C26.8937 22.6248 26.9609 22.5517 27.0214 22.4719C27.0795 22.3919 27.1331 22.3142 27.1836 22.2395H28.5037C28.3989 22.5123 28.2737 22.7516 28.1319 22.9563C27.9898 23.161 27.8191 23.3338 27.6198 23.4731C27.4224 23.6125 27.19 23.717 26.9272 23.7853C26.6626 23.8539 26.3594 23.8876 26.0105 23.8876C25.6878 23.8876 25.3949 23.8446 25.1327 23.7582C24.8675 23.67 24.6436 23.5378 24.4596 23.3627C24.2727 23.185 24.1291 22.9662 24.0271 22.7064C23.9235 22.4472 23.8735 22.1432 23.8735 21.7958C23.8735 21.4123 23.9352 21.042 24.0593 20.6844C24.1833 20.3289 24.3573 20.0143 24.5837 19.7374C24.8112 19.4616 25.087 19.241 25.4157 19.0769C25.7438 18.9129 26.1147 18.8301 26.5217 18.8301C26.8591 18.8301 27.1626 18.8738 27.4392 18.9607C27.715 19.0477 27.9504 19.1799 28.1466 19.3563C28.3429 19.5321 28.4922 19.7521 28.6024 20.0161C28.7104 20.2795 28.764 20.5833 28.764 20.9297C28.764 21.1648 28.7388 21.4147 28.6894 21.6817H25.1457L25.1369 21.7657ZM27.457 20.4815C27.4359 20.3599 27.3941 20.2506 27.3323 20.1525C27.2683 20.0532 27.18 19.9725 27.062 19.915C26.9437 19.8553 26.7896 19.8256 26.5969 19.8256C26.4109 19.8256 26.2459 19.8542 26.1048 19.9096C25.9624 19.9655 25.8371 20.0402 25.7321 20.1329C25.6267 20.2265 25.5385 20.3334 25.4669 20.4586C25.3949 20.5815 25.3344 20.7121 25.2851 20.8479H27.4886C27.4886 20.7238 27.4786 20.6022 27.457 20.4815Z" fill="white"/>
<path d="M30.9987 18.9627L30.8031 19.8264L30.8218 19.8447C30.9711 19.5093 31.1962 19.2556 31.4967 19.0849C31.7959 18.9145 32.124 18.8281 32.4768 18.8281C32.6132 18.8281 32.7501 18.838 32.8871 18.8579L32.6162 20.1427C32.5238 20.1238 32.4305 20.1057 32.3386 20.0867C32.2453 20.0692 32.1529 20.0587 32.0593 20.0587C31.8055 20.0587 31.5897 20.1021 31.4133 20.1897C31.2351 20.2767 31.0864 20.3944 30.9659 20.5431C30.8452 20.6912 30.7495 20.8607 30.6785 21.0494C30.6071 21.2391 30.549 21.435 30.5078 21.6403L30.0605 23.7704H28.7471L29.7441 18.9627L30.9987 18.9627Z" fill="white"/>
<path d="M14.498 18.2125L14.7398 17.123H16.0691L15.828 18.2125H14.498Z" fill="white"/>
</g>
<defs>
<clipPath id="clip0_124_1704">
<rect width="26" height="6.9907" fill="white" transform="translate(7 17)"/>
</clipPath>
</defs>
</svg>
