<svg width="40" height="40" viewBox="0 0 40 40" fill="none" xmlns="http://www.w3.org/2000/svg">
<path fill-rule="evenodd" clip-rule="evenodd" d="M20.8101 14.4907C26.0187 14.1576 30.1905 12.5205 30.1236 10.7361C30.0398 8.95054 25.7501 7.93542 20.5427 8.21639C15.3183 8.54948 11.1454 10.1843 11.2292 11.971C11.2949 13.7565 15.5846 14.826 20.8101 14.4907ZM3 11.3524C3 9.53401 10.6106 8 19.9921 8C29.3883 8 37 9.53401 37 11.3524C37 13.1561 29.3883 14.6742 19.9921 14.6742C10.6106 14.6742 3 13.1561 3 11.3524Z" fill="#D71A21"/>
<path fill-rule="evenodd" clip-rule="evenodd" d="M22.5119 28.111V8.18359L17.9718 14.5757V34.6538L22.5119 28.111Z" fill="#D71A21"/>
</svg>
