<svg width="40" height="40" viewBox="0 0 40 40" fill="none" xmlns="http://www.w3.org/2000/svg">
<path d="M17.8626 19.0188C18.1134 17.1594 16.031 17.4088 16.031 17.4088C16.1184 16.4592 17.6983 14.3952 19.8622 14.9731C22.0302 15.5527 22.1958 17.862 22.1958 17.862C24.1353 7.71911 32.3998 4.97336 36 4.24898V4H4V35.999H30.649C15.6416 33.4255 17.8626 19.0188 17.8626 19.0188Z" fill="#312667"/>
<path d="M28.9822 21.6153C26.0236 20.1337 21.9449 20.7485 21.9449 20.7485C22.793 32.5753 32.0658 35.3994 34.9541 35.9995H36V5.49023C25.2446 10.4432 28.9822 21.6153 28.9822 21.6153Z" fill="#E6001F"/>
</svg>
