<svg width="40" height="40" viewBox="0 0 40 40" fill="none" xmlns="http://www.w3.org/2000/svg">
<path d="M24.75 3C21.0025 3 17.5338 5.6625 15.5625 7.59375C8.55 14.4338 4.84375 19.0625 4.84375 19.0625H36.0938L37.5 15.9375H12.2812C12.2812 15.9375 14.185 13.33 18.2812 9.46875C19.31 8.50625 22.0037 6.09375 24.75 6.09375C26.5537 6.09375 27.9688 7.22125 27.9688 8.75C27.9688 10.2625 26.6875 10.6875 26.6875 10.6875C26.8213 10.0413 26.3875 8.28125 24.6875 8.28125C22.925 8.28125 22.1875 9.62625 22.1875 10.5312C22.1875 12.3912 23.88 13.7188 25.8438 13.7188C29.62 13.7188 31.375 11.0338 31.375 8.4375C31.375 5.8175 28.8213 3 24.75 3ZM4.3125 20.6875C4.3125 20.6875 5.9525 25.4037 8.125 29.9062C9.96625 33.7425 13.02 36.0625 16.75 36.0625C20.255 36.0625 22.625 33.3962 22.625 30.8438C22.625 27.955 20.4275 26.0625 17.8125 26.0625C15.0238 26.0625 14.4375 28.1588 14.4375 28.6875C14.4375 29.9062 15.4575 31.0312 16.75 31.0312C18.785 31.0312 18.9375 29.4062 18.9375 29.4062C18.9375 29.4062 19.5625 29.8062 19.5625 30.8438C19.5625 31.8412 18.7175 33.125 16.75 33.125C15.18 33.125 12.8725 32.2975 11.2812 28.9375C9.41 25.0037 9.28125 23.8438 9.28125 23.8438H33.9375L35.3438 20.6875H4.3125Z" fill="#231F20"/>
</svg>
