<svg width="40" height="40" viewBox="0 0 40 40" fill="none" xmlns="http://www.w3.org/2000/svg">
<path d="M24.8395 15.9152C24.7099 15.8142 24.5803 15.8815 24.4507 15.9488C24.3729 16.0162 24.2693 16.0835 24.1915 16.1508C24.1656 16.1845 24.1656 16.1845 24.1397 16.1508C24.036 16.0162 24.036 16.0162 24.1656 15.9152C24.7617 15.3092 25.3838 14.6696 25.98 14.0636C26.0318 14.0299 26.0577 14.0299 26.0837 14.0636C26.0837 14.0972 26.1096 14.0972 26.1096 14.0972C26.1355 14.1309 26.1355 14.1646 26.1096 14.1982C26.0059 14.2992 25.9281 14.4339 25.8504 14.5686C25.7467 14.7369 25.7726 14.9389 25.8504 15.1409C25.9022 15.2419 25.9541 15.3429 26.0059 15.4102C26.1614 15.6795 26.3169 15.9152 26.4724 16.1845H27.8721C28.2609 15.7469 28.6756 15.3092 29.0644 14.8715C29.0644 15.2082 29.0385 15.5112 29.0385 15.8479C28.9348 15.9488 28.8311 16.0498 28.7275 16.1845H32.6932L35 11H26.4984L19.8629 16.2182H25.0728C25.0469 16.1845 25.0209 16.1508 24.995 16.1172C24.9691 16.0162 24.9173 15.9825 24.8395 15.9152ZM28.9607 12.3466C28.9867 12.313 28.9867 12.313 28.9607 12.3466C29.0385 12.1783 29.1163 12.2456 29.194 12.2456C29.3495 12.2793 29.4791 12.313 29.6347 12.3466C29.8679 12.414 30.1271 12.4476 30.3604 12.515C30.3863 12.515 30.4122 12.515 30.4382 12.515C30.49 12.5486 30.5418 12.4813 30.5678 12.4476C30.6196 12.313 30.6974 12.2456 30.7751 12.1783C30.801 12.1446 30.801 12.1783 30.827 12.1783C30.9306 12.313 30.9306 12.3466 30.801 12.4476C30.7751 12.4813 30.7492 12.515 30.6974 12.5486C30.801 12.5823 30.9047 12.616 30.9825 12.616C31.0084 12.616 31.0343 12.616 31.0343 12.5823C31.1639 12.4476 31.2676 12.313 31.3972 12.1783C31.5009 12.0773 31.5786 11.9426 31.6823 11.8416C31.8119 11.707 31.9415 11.606 32.097 11.505C32.1489 11.4713 32.2007 11.4377 32.2525 11.4377C32.3303 11.4377 32.3562 11.4713 32.3303 11.5387C32.3044 11.707 32.2266 11.8416 32.1489 11.9763C32.0452 12.1783 31.9156 12.313 31.7601 12.4813C31.6046 12.6496 31.475 12.8179 31.3194 12.9863L31.2935 13.0199C31.2935 13.1546 31.3194 13.2893 31.3194 13.4576C31.3713 13.3903 31.4231 13.3229 31.475 13.2556C31.5009 13.2219 31.5527 13.2219 31.5786 13.2556C31.6564 13.3566 31.6564 13.3903 31.5527 13.4913C31.5009 13.5249 31.5009 13.5923 31.449 13.6259C31.4231 13.6596 31.3713 13.6259 31.3454 13.6933C31.3194 13.7269 31.3194 13.7269 31.3194 13.7606C31.3454 14.1309 31.3454 14.4676 31.3713 14.8379C31.3713 15.0735 31.3972 15.3092 31.3972 15.5449C31.3972 15.6122 31.3972 15.6459 31.3454 15.6795C31.3194 15.7132 31.2676 15.7469 31.2417 15.7805C31.1898 15.6459 31.1639 15.5112 31.138 15.3765C31.0602 15.0062 30.9825 14.6359 30.8788 14.2992C30.8529 14.2319 30.8529 14.1982 30.827 14.1309C30.7751 14.0299 30.6974 13.8952 30.6455 13.7942C30.6196 13.7606 30.6196 13.7269 30.5937 13.7942C30.5418 13.8616 30.49 13.8952 30.4382 13.9626C30.3345 14.0636 30.2567 14.1646 30.1531 14.2656C30.0494 14.3329 30.0235 14.4339 30.0494 14.5686C30.0753 14.8379 30.0753 15.0735 30.0753 15.3429C30.0753 15.4102 30.0753 15.4439 30.0235 15.4439C29.9975 15.4775 29.9716 15.4775 29.9716 15.5112C29.8939 15.5785 29.8939 15.5785 29.8679 15.4775C29.7902 15.2419 29.7124 14.9725 29.6087 14.7369C29.531 14.7706 29.4532 14.8379 29.3755 14.9052C29.3495 14.9389 29.3236 14.9052 29.3236 14.9052C29.2977 14.9052 29.3236 14.8715 29.3236 14.8379V14.8042C29.3755 14.7032 29.4273 14.6359 29.4791 14.5349C29.2977 14.4002 29.0903 14.2319 28.9089 14.0972C28.8571 14.0636 28.883 14.0636 28.9089 14.0299C28.9348 13.9962 28.9607 13.9626 28.9867 13.9289C29.0126 13.8952 29.0385 13.8616 29.0903 13.8952C29.2199 13.9289 29.3495 13.9626 29.4791 13.9962C29.5828 14.0299 29.6606 14.0299 29.7643 14.0636C29.7902 14.0636 29.8161 14.0636 29.842 14.0299C29.9457 13.8616 30.0494 13.7269 30.179 13.5586C30.2308 13.4913 30.2826 13.4576 30.3345 13.3903C30.2308 13.2893 30.1271 13.1883 30.0494 13.0536C29.9716 12.9526 29.842 12.9189 29.7383 12.8516C29.6087 12.7506 29.4532 12.6833 29.3236 12.616C29.194 12.5486 29.0385 12.4476 28.9089 12.3803C28.9089 12.414 28.9089 12.3803 28.9607 12.3466Z" fill="#CCCCCC"/>
<path d="M20.9256 22.4136H22.0402C22.0142 22.2116 21.9624 22.0096 21.9106 21.8413C21.8587 21.6056 21.8069 21.3363 21.755 21.1006C21.6773 20.7303 21.5995 20.3937 21.5477 20.0233C21.4699 19.653 21.4181 19.2827 21.3144 18.946C21.2885 18.8114 21.3144 18.744 21.3922 18.6767C21.5736 18.5084 21.755 18.34 21.9106 18.1381C21.9365 18.1044 21.9624 18.1044 21.9883 18.1381C22.2216 18.3064 22.4549 18.4747 22.7141 18.643C22.8955 18.7777 23.051 18.8787 23.2325 19.0134C23.4657 19.1817 23.699 19.35 23.9582 19.5183C24.1397 19.653 24.3211 19.754 24.4766 19.8887C24.5025 19.8887 24.5284 19.9223 24.5284 19.956C24.3211 20.1917 24.1137 20.4273 23.9064 20.663C23.8286 20.7303 23.7768 20.8313 23.699 20.8986C23.1288 20.461 22.5845 20.057 22.0142 19.6193C22.0661 19.9223 22.1179 20.1917 22.1698 20.4946C22.2475 20.8986 22.3253 21.3026 22.403 21.6729C22.4289 21.8749 22.4808 22.0433 22.5326 22.2453C22.4549 22.3463 22.3771 22.4136 22.2994 22.5146C23.8286 20.7976 25.3579 19.047 26.9131 17.3301H26.8871C26.8612 17.3301 26.8612 17.3637 26.8353 17.3637C26.6279 17.5657 26.4465 17.8014 26.2392 18.0034C26.2132 18.0371 26.1873 18.0707 26.1614 18.1044C26.0059 17.8351 25.8504 17.5657 25.6948 17.3301H18.6187L12.0092 22.4136H17.582C17.6338 22.3463 17.6856 22.3126 17.7375 22.2453C18.9039 21.1006 20.0703 21.3363 20.9256 22.4136Z" fill="#CCCCCC"/>
<path d="M25.1246 22.4159C25.1505 22.3822 25.1764 22.3149 25.1764 22.2476C25.2023 22.1466 25.1505 21.9446 25.0727 21.8773C24.8913 21.7089 24.7099 21.5743 24.5284 21.4396C24.3988 21.3386 24.2952 21.2376 24.1656 21.1703C24.3211 20.9683 24.5025 20.8 24.658 20.6316C24.7876 20.497 24.8913 20.3623 25.0209 20.2276C25.3579 20.4633 25.6689 20.699 26.0059 20.9009C26.1355 20.9683 26.2651 21.0356 26.3947 21.0019C26.4983 21.0019 26.602 20.9346 26.7057 20.8336C26.7316 20.8 26.7316 20.8 26.7575 20.8336C26.8612 21.0019 26.8612 21.0019 26.7316 21.1029C26.3169 21.5069 25.9022 21.9446 25.4875 22.3486H29.8938L32.1488 17.1641H27.7425C26.1873 18.8473 24.6321 20.5643 23.1028 22.3486L25.1246 22.4159ZM27.0426 18.0394C27.1463 17.9384 27.25 17.8037 27.3537 17.7027C27.561 18.073 27.7943 18.4434 28.0017 18.78C28.0535 18.8473 28.1054 18.9147 28.1831 18.982C28.3127 19.083 28.4164 19.0493 28.546 18.982C28.6497 18.9147 28.7533 18.8137 28.8311 18.7463C28.857 18.7127 28.857 18.7127 28.8829 18.7463C28.9607 18.881 28.9607 18.881 28.857 18.982C28.2609 19.588 27.6388 20.2276 27.0426 20.8336C26.9908 20.8673 26.9908 20.9009 26.939 20.8336C26.8612 20.699 26.8612 20.699 26.9649 20.6316C27.0686 20.5306 27.1463 20.4296 27.1982 20.295C27.3018 20.093 27.2759 19.9246 27.1982 19.7563C26.9908 19.3523 26.7316 18.982 26.4983 18.578C26.7057 18.4097 26.8612 18.2414 27.0426 18.0394Z" fill="#CCCCCC"/>
<path d="M18.4373 22.4138H19.0593C18.8261 22.3464 18.6187 22.3464 18.4373 22.4138Z" fill="#CCCCCC"/>
<path d="M19.163 26.9931C19.6036 27.2624 20.0442 27.2624 20.4849 26.8247C20.9773 26.3197 21.081 25.6464 20.8996 24.9395C20.3294 25.6464 19.7591 26.3197 19.163 26.9931Z" fill="#CCCCCC"/>
<path d="M19.2148 25.9795C19.7073 25.4072 20.1998 24.8686 20.6663 24.2963C20.5627 24.0943 20.459 23.8586 20.3294 23.6566C20.3035 23.5893 20.2516 23.5556 20.2257 23.4883H17.6078C17.4523 24.1953 17.6856 25.0706 18.178 25.8785C18.3336 26.1479 18.515 26.3835 18.6705 26.5855L18.6964 26.5519C18.8779 26.3499 19.0593 26.1479 19.2148 25.9795Z" fill="#CCCCCC"/>
<path d="M23.2843 24.2626C23.388 24.2626 23.4657 24.1616 23.5435 24.0943C23.5694 24.0606 23.5953 24.0606 23.6212 24.0943C23.699 24.2289 23.699 24.2289 23.5953 24.3299C23.1806 24.7676 22.74 25.2052 22.3253 25.6429C22.2734 25.6765 22.2475 25.7102 22.2216 25.6429C22.1697 25.5419 22.1697 25.5419 22.2216 25.4409C22.3253 25.2726 22.3771 25.0706 22.403 24.8686C22.403 24.7002 22.403 24.5656 22.3771 24.3973C22.3253 24.0943 22.2734 23.8249 22.2216 23.5219H22.1438C22.0142 23.6903 21.8846 23.8249 21.755 23.9596C21.7291 23.9933 21.7032 24.0269 21.6513 24.0606C21.8846 25.1716 21.6254 26.3499 20.7701 27.2925C19.9666 28.1341 19.0853 28.2351 18.3336 27.7975C18.3336 27.7975 18.3077 27.7975 18.3077 27.8311C15.612 29.7838 15.0159 26.1815 16.8562 23.7239C15.5861 26.8212 16.1304 28.4371 17.7375 27.3598C17.7634 27.3598 17.7634 27.3262 17.7893 27.3262C17.6338 27.1578 17.4783 26.9558 17.3487 26.7538C16.7525 25.7775 16.5711 24.5992 16.9599 23.5219H10.6614L4 28.7065H27.1982L29.505 23.4883H22.7918C22.8177 23.6229 22.8436 23.7576 22.8955 23.8923C22.9473 24.1279 23.0769 24.2963 23.2843 24.2626Z" fill="#CCCCCC"/>
<path d="M20.4849 26.826C20.0443 27.2636 19.6036 27.2636 19.163 26.9943C18.9038 27.2973 18.6446 27.4993 18.3336 27.7349C19.0852 28.1726 19.9665 28.0716 20.77 27.2299C21.6513 26.321 21.9105 25.1427 21.6513 23.998C21.3921 24.301 21.1329 24.604 20.8737 24.907C21.081 25.6813 20.9774 26.3546 20.4849 26.826Z" fill="#CF3339"/>
<path d="M21.1848 22.7809C21.107 22.6462 21.0033 22.5116 20.9256 22.4106C20.0961 21.3333 18.9038 21.0976 17.7634 22.2422C17.7115 22.3096 17.6597 22.3432 17.6078 22.4106C17.3227 22.7472 17.1154 23.0839 16.9598 23.4879C16.5711 24.5652 16.7525 25.7435 17.3486 26.7198C17.4782 26.9554 17.6338 27.1237 17.7893 27.2921C18.0485 27.1237 18.3595 26.8544 18.6705 26.5514C18.4891 26.3494 18.3336 26.1138 18.1781 25.8444C17.6856 25.0365 17.4523 24.1612 17.6078 23.4542C17.6597 23.1512 17.7893 22.8819 17.9966 22.6799C18.1262 22.5452 18.2818 22.4442 18.4373 22.3769C18.6446 22.3096 18.852 22.3096 19.0593 22.3769C19.4741 22.5116 19.9147 22.8819 20.2776 23.4542C20.3035 23.5215 20.3553 23.5552 20.3813 23.6225C20.5108 23.8245 20.6145 24.0602 20.7182 24.2622C20.9515 23.9928 21.1848 23.7235 21.418 23.4542C21.444 23.4205 21.4699 23.3869 21.5217 23.3532C21.3921 23.1849 21.2884 22.9829 21.1848 22.7809Z" fill="#CF3339"/>
<path d="M22.2994 22.4141H22.0402C22.0661 22.4814 22.0661 22.5824 22.092 22.6497C22.1438 22.5824 22.2216 22.5151 22.2994 22.4141Z" fill="#CF3339"/>
<path d="M22.5326 22.1769C22.4807 21.9749 22.4548 21.8065 22.403 21.6045C22.3252 21.2006 22.2475 20.8302 22.1697 20.4262C22.1179 20.1233 22.066 19.8539 22.0142 19.5509C22.5844 19.9886 23.1287 20.3926 23.699 20.8302C23.7767 20.7629 23.8286 20.6619 23.9063 20.5946C24.1137 20.3589 24.321 20.1233 24.5284 19.8876C24.5284 19.8539 24.5025 19.8539 24.4766 19.8203C24.2951 19.6856 24.1137 19.5846 23.9582 19.4499C23.7249 19.2816 23.4916 19.1133 23.2324 18.945C23.051 18.8103 22.8954 18.7093 22.714 18.5746C22.4807 18.4063 22.2475 18.238 21.9883 18.0697C21.9623 18.036 21.9364 18.0697 21.9105 18.0697C21.7291 18.238 21.5735 18.44 21.3921 18.6083C21.3143 18.6756 21.2884 18.743 21.3143 18.8776C21.418 19.2479 21.4699 19.5846 21.5476 19.9549C21.6254 20.3252 21.7031 20.6619 21.755 21.0322C21.8068 21.2679 21.8587 21.5372 21.9105 21.7729C21.9623 21.9749 21.9883 22.1769 22.0401 22.3452H22.2993C22.3771 22.3452 22.4548 22.2442 22.5326 22.1769Z" fill="#CF3339"/>
<path d="M29.4013 12.6851C29.5309 12.7524 29.6864 12.8197 29.816 12.9207C29.9197 12.9881 30.0234 13.0217 30.1271 13.1227C30.2307 13.2237 30.3085 13.3247 30.4122 13.4594C30.3603 13.5267 30.3085 13.5604 30.2567 13.6277C30.1271 13.7624 30.0234 13.9307 29.9197 14.099C29.8938 14.1327 29.8679 14.1327 29.8419 14.1327C29.7383 14.099 29.6346 14.099 29.5568 14.0654C29.4272 14.0317 29.2976 13.998 29.168 13.9644C29.1162 13.9644 29.0903 13.9644 29.0644 13.998C29.0384 14.0317 29.0125 14.0654 28.9866 14.099C28.9607 14.1327 28.9348 14.1327 28.9866 14.1664C29.168 14.301 29.3754 14.4693 29.5568 14.604C29.505 14.705 29.4531 14.806 29.4013 14.8733V14.907C29.4013 14.9407 29.3754 14.9743 29.4013 14.9743C29.4272 14.9743 29.4272 15.008 29.4531 14.9743C29.5309 14.907 29.6087 14.8733 29.6864 14.806C29.7642 15.0417 29.8419 15.311 29.9456 15.5466C29.9715 15.6476 29.9715 15.6476 30.0493 15.5803C30.0752 15.5466 30.1011 15.5466 30.1011 15.513C30.1271 15.4793 30.153 15.4456 30.153 15.412C30.153 15.1427 30.153 14.907 30.1271 14.6377C30.1271 14.503 30.1271 14.4357 30.2307 14.3347C30.3344 14.2673 30.4122 14.1327 30.5159 14.0317C30.5677 13.9644 30.6195 13.9307 30.6714 13.8634C30.6973 13.8297 30.7232 13.8634 30.7232 13.8634C30.7751 13.998 30.8269 14.099 30.9047 14.2C30.9306 14.2337 30.9565 14.301 30.9565 14.3683C31.0343 14.7387 31.112 15.109 31.2157 15.4456C31.2416 15.5803 31.2675 15.715 31.3194 15.8496C31.3712 15.816 31.3971 15.7823 31.423 15.7486C31.449 15.715 31.4749 15.6813 31.4749 15.614C31.4749 15.3783 31.449 15.1427 31.449 14.907C31.423 14.5367 31.423 14.2 31.3971 13.8297C31.3971 13.796 31.3971 13.7624 31.423 13.7624C31.449 13.7287 31.5008 13.7287 31.5267 13.695C31.5786 13.6614 31.6045 13.594 31.6304 13.5604C31.7341 13.4594 31.7341 13.4257 31.6563 13.3247C31.6304 13.291 31.5786 13.2574 31.5526 13.3247C31.5008 13.392 31.449 13.4594 31.3971 13.5267C31.3971 13.392 31.3712 13.2237 31.3712 13.0891C31.3712 13.0891 31.3712 13.0554 31.3971 13.0554C31.5526 12.8871 31.6822 12.7187 31.8378 12.5504C31.9674 12.3821 32.1229 12.2474 32.2266 12.0454C32.3043 11.9108 32.3821 11.7761 32.408 11.6078C32.408 11.5068 32.3821 11.4731 32.3302 11.5068C32.2784 11.5068 32.2266 11.5404 32.1747 11.5741C32.0192 11.6414 31.8896 11.7761 31.76 11.9108C31.6563 12.0118 31.5786 12.1127 31.4749 12.2474C31.3453 12.3821 31.2416 12.5167 31.112 12.6514C31.0861 12.6851 31.0861 12.6851 31.0602 12.6851C30.9565 12.6514 30.8787 12.6514 30.7751 12.6177C30.801 12.5841 30.8528 12.5504 30.8787 12.5167C30.9824 12.3821 30.9824 12.3821 30.9047 12.2474C30.8787 12.2137 30.8787 12.2137 30.8528 12.2474C30.7751 12.3147 30.6973 12.3821 30.6455 12.5167C30.6195 12.5504 30.5936 12.6177 30.5159 12.5841C30.4899 12.5841 30.464 12.5841 30.4381 12.5841C30.2048 12.5167 29.9456 12.4831 29.7123 12.4157C29.5568 12.3821 29.4272 12.3484 29.2717 12.3147C29.194 12.3147 29.1162 12.2474 29.0644 12.3821L29.0384 12.4157C28.9866 12.4831 28.9866 12.4831 29.0644 12.5167C29.1162 12.5167 29.2717 12.5841 29.4013 12.6851Z" fill="black"/>
<path d="M26.4465 16.2144C26.291 15.9451 26.1355 15.7094 25.9799 15.4401C25.9281 15.3391 25.8763 15.2718 25.8244 15.1708C25.7467 14.9688 25.7207 14.8004 25.8244 14.5985C25.9022 14.4638 26.0059 14.3628 26.0836 14.2281C26.1095 14.1945 26.1355 14.1608 26.0836 14.1271L26.0577 14.0935C26.0318 14.0261 26.0059 14.0261 25.954 14.0935C25.3579 14.6994 24.7358 15.3391 24.1396 15.9451C24.036 16.0461 24.036 16.0461 24.1137 16.1807C24.1396 16.2144 24.1396 16.2144 24.1656 16.1807C24.2433 16.0797 24.3211 16.0124 24.4248 15.9787C24.5544 15.8777 24.684 15.8441 24.8136 15.9451C24.8913 16.0124 24.9431 16.0461 24.995 16.1471C25.0209 16.1807 25.0468 16.2144 25.0727 16.2481C25.2801 16.5847 25.4875 16.9214 25.6948 17.2917C25.8503 17.561 26.0059 17.8304 26.1614 18.066C26.1873 18.0323 26.2132 17.9987 26.2391 17.965C26.4465 17.763 26.6279 17.5274 26.8353 17.3254C26.8612 17.3254 26.8612 17.2917 26.8871 17.2917C26.913 17.258 26.9649 17.2244 26.9908 17.157C26.8094 16.8204 26.6279 16.5174 26.4465 16.2144Z" fill="#CF3339"/>
<path d="M24.995 22.6146C24.8913 22.7156 24.8913 22.7156 24.9691 22.8502C24.995 22.9176 25.0209 22.9176 25.0727 22.8502C25.2283 22.6819 25.3579 22.5472 25.5134 22.3789H25.1246C25.0987 22.5136 25.0468 22.5809 24.995 22.6146Z" fill="#CF3339"/>
<path d="M26.7576 20.897C26.7316 20.8633 26.7316 20.8633 26.7057 20.897C26.602 20.9643 26.5243 21.0317 26.3947 21.0653C26.2651 21.0653 26.1355 21.0317 26.0059 20.9643C25.6689 20.7623 25.3579 20.5267 25.0209 20.291C24.9173 20.4257 24.7877 20.5603 24.6581 20.695C24.5025 20.897 24.3211 21.0653 24.1656 21.2337C24.2952 21.3347 24.3989 21.4356 24.5285 21.503C24.7099 21.6376 24.8913 21.7723 25.0728 21.9406C25.1505 22.008 25.2024 22.21 25.1765 22.311C25.1505 22.3783 25.1246 22.412 25.1246 22.4793H25.5134C25.9281 22.0753 26.3428 21.6376 26.7576 21.2337C26.8612 21.0317 26.8612 21.0317 26.7576 20.897Z" fill="#CF3339"/>
<path d="M27.2241 20.2895C27.1464 20.4242 27.0686 20.5252 26.9909 20.6262C26.8872 20.7272 26.9131 20.7272 26.9649 20.8282C26.9909 20.8955 27.0168 20.8955 27.0686 20.8282C27.6648 20.1885 28.2869 19.5825 28.883 18.9766C28.9867 18.8756 28.9867 18.8756 28.9089 18.7409C28.883 18.7072 28.883 18.7072 28.8571 18.7409C28.7534 18.8082 28.6757 18.9092 28.572 18.9766C28.4424 19.0439 28.3387 19.0776 28.2091 18.9766C28.1313 18.9092 28.0795 18.8756 28.0277 18.7746C27.7944 18.4042 27.587 18.0339 27.3797 17.6973C27.276 17.7983 27.1723 17.8993 27.0686 18.0339C26.9131 18.2359 26.7317 18.4042 26.5502 18.5726C26.7835 18.9766 27.0427 19.3132 27.2501 19.7509C27.3019 19.9192 27.3278 20.1212 27.2241 20.2895Z" fill="#CF3339"/>
<path d="M23.6471 24.0963C23.6212 24.0289 23.5953 24.0626 23.5694 24.0963C23.4916 24.1636 23.4139 24.2309 23.3102 24.2646C23.1028 24.2983 22.9732 24.1299 22.8955 23.8943C22.8695 23.7596 22.8436 23.6249 22.7918 23.4903C22.7399 23.2883 22.714 23.12 22.6622 22.918C22.5844 22.9853 22.5067 23.0863 22.4289 23.1873C22.3511 23.2546 22.2993 23.3556 22.2215 23.423C22.2215 23.4566 22.2215 23.4566 22.2475 23.4903C22.3252 23.7596 22.3771 24.0626 22.403 24.3656C22.4289 24.5339 22.4548 24.6686 22.4289 24.8369C22.4289 25.0389 22.3511 25.2409 22.2475 25.4092C22.1697 25.5102 22.1697 25.5102 22.2475 25.6112C22.2734 25.6786 22.2993 25.6786 22.3511 25.6112C22.7659 25.1736 23.2065 24.7359 23.6212 24.2983C23.7249 24.2309 23.7249 24.2309 23.6471 24.0963Z" fill="#CF3339"/>
<path d="M21.5217 23.4916C21.4958 23.458 21.4958 23.4243 21.4699 23.3906C21.444 23.4243 21.4181 23.458 21.3662 23.4916H21.5217Z" fill="black"/>
<path d="M27.8462 16.2183C27.5352 16.5549 27.2241 16.9253 26.9131 17.2619C25.3579 18.9789 23.8286 20.6958 22.2994 22.4464C22.0143 22.7494 21.7291 23.0861 21.4699 23.3891C21.4959 23.4227 21.4959 23.4564 21.5218 23.4901H21.3922C21.1589 23.7594 20.9256 24.0287 20.6923 24.298C20.1999 24.8704 19.7074 25.409 19.2408 25.9813C19.0853 26.1833 18.878 26.3516 18.7224 26.5536L18.6965 26.5873C18.3855 26.8903 18.0745 27.1596 17.8153 27.3279C17.7893 27.3279 17.7893 27.3616 17.7634 27.3616C16.1564 28.4052 15.6121 26.7893 16.8821 23.7257C15.0678 26.1833 15.638 29.7519 18.3336 27.8329C18.3336 27.8329 18.3596 27.8329 18.3596 27.7993C18.6706 27.5636 18.9298 27.3279 19.189 27.0586C19.7592 26.3853 20.3295 25.712 20.9256 25.005C21.1848 24.702 21.444 24.399 21.7032 24.096C21.7291 24.0624 21.7551 24.0287 21.8069 23.995C21.9365 23.8267 22.0661 23.6921 22.1957 23.5574C22.2216 23.5237 22.2475 23.5237 22.2475 23.4901C22.3253 23.4227 22.403 23.3217 22.4549 23.2544C22.6622 23.0187 22.8955 22.7494 23.1029 22.5138C24.6321 20.7631 26.1873 19.0125 27.7425 17.3293C28.0535 16.9926 28.3905 16.6223 28.7015 16.2856C28.8052 16.1846 28.9089 16.05 29.0126 15.949C29.0126 15.6123 29.0385 15.3093 29.0385 14.9727C28.6497 15.343 28.235 15.7806 27.8462 16.2183Z" fill="black"/>
<path d="M22.2216 23.4212C22.2994 23.3539 22.3512 23.2529 22.429 23.1855C22.3771 23.2529 22.2994 23.3202 22.2216 23.4212Z" fill="black"/>
</svg>
