<svg width="40" height="40" viewBox="0 0 40 40" fill="none" xmlns="http://www.w3.org/2000/svg">
<path fill-rule="evenodd" clip-rule="evenodd" d="M23.2415 24.4941H17.0902L17.5813 22.4006H21.5357C22.8926 22.4006 23.5516 21.2246 22.5824 20.5526C21.639 19.8936 21.0187 19.3637 20.0754 18.6917C18.1757 17.3348 19.0674 14.1946 22.2593 14.1687H28.0617L27.5577 16.2364H23.6679C22.5953 16.2235 22.3627 17.3994 23.0606 17.8259L25.5547 19.6739C27.6094 21.2375 26.4076 24.4941 23.2415 24.4941ZM30.3103 35.75C29.69 36.9001 28.2168 37.3912 27.0279 36.8226C20.7215 33.8245 15.1647 29.6116 10.5512 24.4941H16.3148L16.8317 22.4135H13.1875C13.0841 22.4135 12.9807 22.4135 12.8773 22.4006C12.3345 22.3231 12.0115 22.1034 11.8306 21.8191C11.6496 21.5348 11.5979 21.2246 11.6367 20.9662C11.6367 20.9015 11.8306 20.1132 11.8435 20.0357V20.0099L12.3862 17.8388C12.6318 16.8308 13.4718 16.2364 14.5831 16.1976H18.3179L18.8089 14.1429H16.2373L13.0065 15.3576L13.3167 14.1429H12.8644C11.8306 14.1299 11.1069 14.2204 10.59 14.453C10.1247 14.6727 9.78873 15.0216 9.63366 15.5385L8.14752 21.6382C6.85523 19.9969 5.6534 18.2911 4.54203 16.4948C3.85711 15.3835 4.14142 13.8586 5.23986 13.109C13.7302 7.31956 23.7713 4.05006 34.045 3.81745C35.3761 3.77868 36.5004 4.82544 36.6167 6.14357C36.8364 8.81862 36.8364 11.4937 36.6426 14.1687H31.1632L25.9682 24.4424H29.7676L30.3749 23.0726C30.4396 22.9304 30.5042 22.8917 30.6722 22.8917H33.3989C33.4506 22.8917 33.5669 22.9046 33.5669 23.0468L33.6057 24.4424H34.8333C33.7737 28.371 32.2488 32.1703 30.3103 35.75ZM33.5281 21.0566L33.3989 16.8567C33.3989 16.7145 33.2697 16.7016 33.2051 16.8438L31.2925 21.0954C31.2149 21.2634 31.2666 21.4185 31.4088 21.4055H33.3343C33.4894 21.3926 33.5411 21.2634 33.5281 21.0566Z" fill="#EF001E"/>
</svg>
