<svg width="40" height="40" viewBox="0 0 40 40" fill="none" xmlns="http://www.w3.org/2000/svg">
<path fill-rule="evenodd" clip-rule="evenodd" d="M17.4338 11.4561C17.1371 11.5006 16.848 11.5855 16.5744 11.7086C16.3394 11.8103 16.1216 11.9478 15.9287 12.1164C15.7236 12.2997 15.5731 12.5218 15.351 12.6893C14.7114 13.1748 13.437 13.2245 12.9236 12.5181C12.9636 12.4574 13.034 12.347 13.034 12.347C13.42 12.7451 14.0523 12.8398 14.5779 12.75C15.002 12.6874 15.3845 12.4602 15.6423 12.1176C15.724 12.0113 15.8177 11.9148 15.9215 11.83C16.0124 11.7529 16.1108 11.685 16.2152 11.6273C16.288 11.5884 16.4907 11.5569 16.4822 11.461H3.74058C3.79884 11.745 3.69082 12.1152 3.37647 12.1892H2.79388L3.03663 13.1602H4.22971L3.50876 13.9042L4.20908 14.6324C4.33118 14.4265 4.50008 14.2523 4.7021 14.1239C4.90412 13.9955 5.13356 13.9164 5.37182 13.8933C6.07578 13.852 6.65715 14.346 7.10258 14.8351C7.52375 15.2988 7.73979 15.9432 8.3248 16.237C9.01055 16.5804 9.76427 16.3948 10.2886 15.8522C10.5182 16.0894 10.7195 16.3525 10.8882 16.6363C11.0964 16.9469 11.2834 17.2713 11.4477 17.6073C11.7587 18.2569 11.9863 18.9432 12.125 19.6499C12.4599 21.3261 12.1407 23.0132 11.455 24.5582C11.3598 25.5766 11.5269 26.6024 11.9405 27.5379C12.2524 28.2564 12.7221 28.8244 13.2586 29.384C13.8436 29.9908 14.4444 30.6062 15.1253 31.1099C15.192 31.0565 18.3877 28.2892 22.359 24.8471H21.5786C21.4558 24.833 21.3426 24.7737 21.261 24.6809C21.1793 24.5881 21.1351 24.4682 21.1368 24.3446H22.9416C24.0158 23.4137 25.1372 22.4427 26.2599 21.4681H20.2083L19.7629 20.854H26.766C26.9128 20.8418 27.0523 20.7846 27.1654 20.6901L30.0868 18.1559H18.3999L17.969 17.549H30.588C30.8939 17.5187 31.1281 17.2638 31.349 17.072L32.3564 16.1981L34.0156 14.7599L15.5379 14.7635L15.1131 14.1676H34.3603C34.7086 14.1348 35.0169 13.8799 35.2718 13.659L36.1311 12.9102C36.6854 12.4247 37.2396 11.9416 37.7939 11.461H17.4338V11.4561ZM10.2728 10.9646C10.2728 11.0483 10.3942 10.9306 10.4003 10.91C10.4245 10.8566 10.4197 10.7995 10.4488 10.7485C10.5435 10.6024 10.6807 10.4888 10.8421 10.4233C11.2571 10.2315 11.6249 10.3601 12.0558 10.348C12.5061 10.3334 12.96 10.1526 13.1882 9.74114C13.2691 9.59873 13.3431 9.4543 13.4103 9.30785C13.4746 9.15977 13.6142 8.94859 13.602 8.77988C13.2074 9.03611 12.7312 9.13567 12.267 9.05903C12.0242 9.00927 11.8397 8.87819 11.6164 8.78716C11.3347 8.66119 11.017 8.64135 10.7219 8.73133C10.5559 8.7928 10.4053 8.88983 10.2808 9.01563C10.1563 9.14143 10.0607 9.29295 10.0009 9.45956C9.91334 9.72215 9.90952 10.0055 9.99002 10.2703C10.0556 10.5021 10.2667 10.717 10.2728 10.9621V10.9646ZM8.87583 12.0812C9.15741 12.1237 9.45599 12.3239 9.76063 12.597C9.51789 12.7791 9.19746 12.6116 8.9972 12.5303C8.88554 12.4841 8.52142 12.7099 8.48258 12.5181C8.43039 12.2535 8.61124 12.0909 8.87583 12.0812Z" fill="#164194"/>
</svg>
