<svg width="40" height="40" viewBox="0 0 40 40" fill="none" xmlns="http://www.w3.org/2000/svg">
<path d="M3 36L28.5 35.42L36 7.58L30.9174 7.32366C26.9084 7.12147 23.0638 8.93716 20.6732 12.1617L3 36Z" fill="#1C4E9C"/>
<path d="M17.1648 26.7875L17.3392 29.5791L17.1463 28.7176L16.3307 26.9315L15.3248 27.6465L14.5508 28.1963L14.1555 29.9168L14.2053 29.0989L13.7444 26.5274L12.6447 27.3614L13.5391 32.3848L14.6824 31.7645L14.5495 31.0241L14.7227 30.3575L15.2917 31.434L16.4652 30.7974L15.3025 28.7353L15.5291 28.0084L16.7742 30.2116C16.8025 30.2661 16.8955 30.427 16.9184 30.4841C17.113 30.9667 16.8929 31.0841 16.6661 31.2071C16.5354 31.278 16.4741 31.307 16.4072 31.3433L16.4452 32.4101C16.6317 32.34 16.8081 32.2752 17.221 32.0512C17.5281 31.8846 17.9564 31.6522 18.1199 31.0221C18.1889 30.7519 18.1874 30.459 18.1883 30.1721C18.1953 30.0523 18.1971 29.9352 18.199 29.8182L18.2716 25.9483L17.1648 26.7875Z" fill="white"/>
<path d="M12.6482 28.7684C12.624 28.6914 12.5957 28.6138 12.5685 28.5463C12.2536 27.7653 11.5595 27.8555 10.7084 28.3173C10.4414 28.4621 9.99077 28.7453 9.7233 29.2542C9.4559 29.7782 9.46166 30.371 9.65117 30.8411C9.95063 31.5838 10.4658 31.5826 10.8371 31.5748L11.2512 31.5516C11.5617 31.5301 11.6754 31.5228 11.7919 31.5834C11.8678 31.6195 11.949 31.6991 11.9925 31.8071C12.0693 31.9975 12.0714 32.368 11.749 32.5428C11.5626 32.644 11.388 32.5917 11.2917 32.5046C11.2308 32.445 11.1847 32.3614 11.1488 32.2726C11.1233 32.2092 11.116 32.1743 11.093 32.1173L9.95511 32.9803C9.95931 32.9907 9.96365 33.0015 9.96848 33.0135C10.3473 33.9531 11.0769 33.8597 11.9481 33.387C12.3107 33.1903 12.8695 32.8404 13.1281 32.0965C13.297 31.6025 13.2717 31.0978 13.1001 30.6722C12.7852 29.8912 12.2651 29.8949 11.9215 29.8955L11.4972 29.9244C11.1414 29.9549 11.0682 29.956 10.9569 29.9081C10.8935 29.8883 10.7998 29.8231 10.7537 29.7088C10.682 29.531 10.7083 29.2615 10.9956 29.1057C11.1415 29.0265 11.3786 28.9905 11.5066 29.308C11.5246 29.3526 11.5691 29.4907 11.5839 29.5758L12.6482 28.7684Z" fill="white"/>
<path d="M18.3736 25.7226L17.9344 26.0558L17.5254 24.7344L18.6978 23.8453L19.4258 26.4699L19.6694 27.6607L19.4829 23.6279L20.4492 22.8952L21.2519 25.296C21.2529 25.2989 21.2539 25.3013 21.2548 25.3045L21.6051 26.6254L21.2525 22.7161L22.4413 21.8145L22.7735 27.3802L21.2377 28.2134L20.6574 26.4853C20.5343 26.1032 20.5033 25.9962 20.3977 25.6276C20.4246 25.9383 20.4329 26.0501 20.4525 26.3874L20.5223 28.6015L18.9813 29.4375L18.3477 27.3909L18.3736 25.7226Z" fill="white"/>
<path d="M24.0107 23.4617C24.1466 23.388 24.2731 23.4273 24.3551 23.6306C24.4121 23.7721 24.46 24.0668 24.4798 24.2094L23.8943 24.6553C23.8109 24.1655 23.6697 23.6467 24.0107 23.4617ZM24.7086 25.2107C24.7496 25.5531 24.7019 25.73 24.4818 25.8494C24.3255 25.9342 24.1727 25.87 24.0985 25.6422C24.0465 25.483 24.0408 25.3788 24.0157 25.2463L25.6287 24.0184C25.6105 23.8967 25.5589 23.6121 25.4386 23.3138C25.114 22.5088 24.4823 22.4626 23.7878 22.8394C22.8912 23.3258 22.7127 23.9334 22.7057 24.5254C22.701 24.9692 22.8358 25.6699 22.9894 26.0509C23.0509 26.2033 23.2174 26.6005 23.6169 26.7085C23.7992 26.7646 23.9884 26.7317 24.1701 26.6794C24.3287 26.6321 24.485 26.5628 24.6311 26.4836C25.0924 26.2333 25.5283 25.9058 25.6969 25.3949C25.8069 25.0618 25.7697 24.7799 25.7109 24.4476L24.7086 25.2107Z" fill="white"/>
<path d="M27.4147 22.3978L27.0587 22.4438C26.7913 22.4805 26.592 22.5035 26.5178 22.3194C26.4588 22.1733 26.5416 22.028 26.6874 21.9489C26.8335 21.8696 26.9522 21.8747 27.0265 22.059C27.0393 22.0907 27.0843 22.2525 27.0971 22.2843L28.0232 21.5818C28.0106 21.5396 27.9982 21.5003 27.9881 21.4754C27.7551 20.8975 27.1899 20.9874 26.4797 21.3727C26.1875 21.5312 25.9034 21.7397 25.7083 22.0467C25.4274 22.4777 25.4351 22.9529 25.5734 23.296C25.8038 23.8675 26.223 23.8568 26.5008 23.8454L26.8771 23.8194C27.1419 23.7917 27.2958 23.7777 27.3701 23.9619C27.4213 24.089 27.3872 24.2776 27.1957 24.3815C27.11 24.428 26.9203 24.5079 26.8076 24.2284C26.7922 24.1902 26.7758 24.122 26.768 24.0874L25.8443 24.788C25.8534 24.813 25.8638 24.8382 25.8751 24.866C26.0353 25.2636 26.3497 25.3962 26.7685 25.2556C27.0635 25.1653 27.3051 25.0343 27.3908 24.9877C27.6629 24.8401 28.0653 24.5751 28.2605 24.1755C28.4401 23.7993 28.4601 23.3009 28.3092 22.9266C28.0685 22.3449 27.6468 22.38 27.4147 22.3978Z" fill="white"/>
<path d="M28.8556 20.862L28.2782 21.3284L28.5414 22.7977C28.5779 22.9946 28.6116 23.1699 28.6807 23.3411C28.7857 23.6016 28.9483 23.8227 29.3094 23.8049C29.4713 23.7945 29.6197 23.7371 29.7658 23.6578C30.0277 23.5157 30.2314 23.3357 30.4071 23.1785L30.264 22.3816C30.2086 22.4271 30.1609 22.4608 30.1007 22.4935C30.0299 22.5319 29.8537 22.6275 29.764 22.4051C29.7333 22.329 29.7153 22.2384 29.6555 21.9533L29.4109 20.5625L29.7785 20.363L29.6716 19.7703L29.3038 19.9698L29.1347 19.0169L28.0155 19.8654L28.1505 20.5955L27.8887 20.7375L27.9903 21.3331L28.8556 20.862Z" fill="white"/>
</svg>
