<svg width="40" height="40" viewBox="0 0 40 40" fill="none" xmlns="http://www.w3.org/2000/svg">
<g clip-path="url(#clip0_21_841)">
<path d="M30.6587 13.1722C32.9492 10.8822 33.5013 8.35003 32.5784 7.41988C31.65 6.49918 29.1188 7.05178 26.8283 9.34183L22.8611 13.309L20.8397 12.7501C21.0377 12.5094 21.1506 12.2128 21.1506 11.8956C21.1506 11.5329 21.0102 11.1927 20.7551 10.9384L20.4356 10.6189C19.9257 10.1091 19.0302 10.1091 18.5213 10.6189L17.354 11.7858L16.3392 11.505C16.5548 11.2588 16.6776 10.9492 16.6776 10.6176C16.6776 10.2549 16.5372 9.91468 16.2825 9.66043L15.9626 9.34003C15.4347 8.81398 14.5761 8.81308 14.0483 9.34003L12.8495 10.5393L8.44578 9.32113C8.07543 9.21898 7.67403 9.32383 7.40223 9.59653L6.63273 10.3651C6.39603 10.6027 6.28488 10.9303 6.32853 11.2629C6.37218 11.5954 6.56343 11.883 6.85413 12.0508L17.7882 18.381L15.3285 20.8407C14.0154 22.1538 12.7478 23.673 11.7447 25.1076L7.80408 24.0163C7.43148 23.9182 7.03278 24.0235 6.76368 24.2926L6.31323 24.7435C6.07698 24.9798 5.96628 25.3065 6.00948 25.639C6.05268 25.972 6.24393 26.2596 6.53373 26.4283L9.91503 28.3849C9.62973 29.1801 9.58653 29.7988 9.89388 30.1089C10.0419 30.256 10.2593 30.3244 10.5338 30.3244C10.8326 30.3244 11.2016 30.238 11.6169 30.0886L13.5717 33.4672C13.74 33.7566 14.0276 33.9474 14.3606 33.9906C14.4078 33.9969 14.4555 34 14.5019 34C14.7845 34 15.0536 33.8898 15.2561 33.6873L15.707 33.2368C15.9761 32.9677 16.0818 32.569 15.9819 32.1915L14.892 28.2567C16.3262 27.2536 17.8458 25.9851 19.1585 24.672L21.6182 22.2123L27.9483 33.1464C28.1162 33.4371 28.4037 33.6283 28.7363 33.672C28.7835 33.6787 28.8317 33.6814 28.8785 33.6814C29.1606 33.6814 29.4302 33.5707 29.634 33.3673L30.4022 32.5987C30.6753 32.3265 30.7811 31.9264 30.678 31.5547L29.4599 27.151L30.6596 25.9522C31.1865 25.4244 31.1865 24.5658 30.6596 24.0379L30.3401 23.7184C29.8343 23.2122 29.0274 23.1964 28.4951 23.6617L28.2143 22.6465L29.3811 21.4797C29.6358 21.225 29.7767 20.8848 29.7767 20.5221C29.7767 20.1594 29.6363 19.8196 29.3811 19.5649L29.0621 19.2454C28.5842 18.7675 27.7706 18.7437 27.2504 19.1622L26.691 17.1394L30.6587 13.1722ZM19.158 11.2548C19.3263 11.0842 19.6283 11.0847 19.7993 11.2548L20.1188 11.5747C20.2934 11.7493 20.292 12.0414 20.1188 12.216L19.8569 12.4779L18.3512 12.0612L19.158 11.2548ZM14.6846 9.97678C14.8614 9.79858 15.1499 9.79948 15.3258 9.97678L15.6458 10.2972C15.8199 10.4713 15.819 10.7643 15.6458 10.9384L15.3524 11.2318L13.8467 10.8151L14.6846 9.97678ZM7.30458 11.2723C7.24068 11.2354 7.22403 11.1774 7.21998 11.1459C7.21593 11.1148 7.21683 11.0541 7.26858 11.0019L8.03808 10.2328C8.08173 10.1892 8.14608 10.1716 8.20503 10.1887L22.1285 14.0403L18.4457 17.7231L7.30458 11.2723ZM6.98508 25.6503C6.92163 25.6134 6.90543 25.5549 6.90138 25.5234C6.89688 25.4919 6.89778 25.4311 6.94863 25.3803L7.39908 24.9294C7.44138 24.8866 7.50888 24.8691 7.56828 24.8853L11.216 25.8955C10.8411 26.4787 10.5167 27.0381 10.2674 27.5502L6.98463 25.6507L6.98508 25.6503ZM15.113 32.4264C15.1296 32.4894 15.113 32.5578 15.0702 32.6005L14.6193 33.051C14.568 33.1014 14.5091 33.1018 14.4762 33.0982C14.4447 33.0942 14.3862 33.078 14.3498 33.0154L12.449 29.7309C12.962 29.4807 13.52 29.1603 14.1045 28.7841L15.1134 32.4259L15.113 32.4264ZM18.5222 24.0357C14.8583 27.6996 11.2889 29.536 10.5464 29.4532C10.4685 28.6932 12.3014 25.1395 15.9639 21.4774L27.4641 9.97768C29.5719 7.87033 31.56 7.67548 31.9412 8.05618C32.3232 8.44048 32.1302 10.4281 30.0219 12.5355L18.5222 24.0357ZM29.0616 24.3547C29.2385 24.1774 29.5269 24.1783 29.7038 24.3547L30.0228 24.6742C30.2001 24.8511 30.2001 25.1391 30.0228 25.3159L29.184 26.1543L28.7673 24.6486L29.0607 24.3552L29.0616 24.3547ZM27.7836 19.8817C27.9546 19.7116 28.2552 19.7116 28.4253 19.8817L28.7448 20.2012C28.9181 20.3745 28.9185 20.6701 28.7448 20.8429L27.9384 21.6493L27.5217 20.1436L27.7836 19.8817ZM29.8109 31.795C29.8275 31.8544 29.8109 31.9183 29.7663 31.9624L28.9977 32.731C28.9451 32.7828 28.8843 32.7837 28.8537 32.7801C28.8222 32.776 28.7642 32.7594 28.7273 32.6955L22.277 21.5535L25.9598 17.8707L29.8113 31.7941L29.8109 31.795Z" fill="#787878"/>
</g>
<defs>
<clipPath id="clip0_21_841">
<rect width="27" height="27" fill="white" transform="translate(6 7)"/>
</clipPath>
</defs>
</svg>
