<svg width="40" height="40" viewBox="0 0 40 40" fill="none" xmlns="http://www.w3.org/2000/svg">
<path d="M6 17.1634C6 17.5294 6 17.8954 6.18421 18.2614C6.92105 19.9085 8.57894 21.0065 10.7895 20.0915C11.3421 19.9085 26.079 14.0523 26.079 14.0523C26.079 14.0523 20.3684 28.6928 20 29.2418C19.0789 31.2549 20.1842 33.268 21.8421 33.817C22.2105 34 22.5789 34 22.9474 34C24.4211 34 25.5263 33.085 26.2632 31.6209C26.4474 31.4379 33.6316 11.6732 33.8158 11.1242C33.8158 10.7582 34 10.2092 34 9.66013C34 8.7451 33.6316 7.83007 32.8947 7.09804C32.1579 6.36601 31.2368 6 30.3158 6C29.7632 6 29.3947 6 28.8421 6.18301C28.6579 6.36601 10.0526 13.3203 8.39473 13.8693C6.73683 14.4183 6 15.6993 6 17.1634Z" fill="#E41E26"/>
</svg>
