<svg width="40" height="40" viewBox="0 0 40 40" fill="none" xmlns="http://www.w3.org/2000/svg">
<g clip-path="url(#clip0_124_2136)">
<path d="M28.869 20.3555L28.8853 20.5895V20.9713C28.8526 21.5749 28.8034 22.1661 28.8034 22.7696C28.8034 23.3239 28.7707 23.7181 28.7707 24.0753L28.7543 24.765C28.7543 25.0729 28.6724 25.3686 28.6233 25.6519C28.4595 26.6126 27.8535 27.4625 26.8872 28.103C26.5432 28.337 26.1993 28.5217 25.8226 28.6819L25.4458 28.8174L25.4131 28.8297H25.364C25.1674 28.7311 24.9709 28.6449 24.7743 28.5464C24.3649 28.3616 23.8735 28.2261 23.3822 28.1769C23.1529 28.1522 22.8744 28.1276 22.6124 28.1522C21.0564 28.3 19.4841 29.2115 18.7634 30.2585C18.5505 30.5787 18.3867 30.899 18.2884 31.2685C18.2229 31.5271 18.2229 31.8597 18.2721 32.1307C18.4031 33.1407 18.8781 33.9659 19.8116 34.668C20.303 35.0375 20.8271 35.3331 21.3676 35.6164C21.5641 35.715 21.7771 35.8135 21.9736 35.8997L22.0064 35.9367H22.0227V35.949C21.2038 35.9244 20.2702 35.5672 19.6479 35.2469C19.2056 35.0129 18.747 34.7789 18.3539 34.4709C18.1246 34.2985 17.9445 34.1014 17.7643 33.9167C17.5678 33.695 17.3549 33.4733 17.2075 33.2392C16.7816 32.5618 16.5359 31.7119 16.6014 30.862C16.6342 30.357 16.798 29.8766 17.0109 29.4332C17.1256 29.1869 17.3057 28.9652 17.4859 28.7435C18.4031 27.6103 20.0082 26.8959 21.4004 26.1815C22.3012 25.7258 23.202 25.27 24.1028 24.802C24.9709 24.3585 25.8226 23.9274 26.5596 23.3362C27.2311 22.7943 27.7716 22.1538 28.1811 21.5133C28.3776 21.2177 28.7379 20.6388 28.869 20.3555Z" fill="#E93034"/>
<path d="M28.7379 17.3633L28.7543 17.6466V18.2501C28.7543 18.6443 28.7379 19.1123 28.6724 19.4818C28.525 20.3071 28.0336 20.9476 27.4768 21.625C27.2966 21.859 27.0837 22.0684 26.8871 22.2901C26.707 22.4872 26.5104 22.6843 26.2975 22.8567C25.9208 23.14 25.5277 23.3987 25.1183 23.6327C24.4631 24.0022 23.8407 24.3594 23.1528 24.6674C22.4486 24.9876 21.7934 25.3448 21.1219 25.6897C19.697 26.4164 18.2065 27.254 17.2074 28.3625C16.929 28.6828 16.7325 29.0276 16.5523 29.3848C16.2739 29.9391 16.1101 30.5919 16.1756 31.257C16.2247 31.8729 16.4704 32.4272 16.7652 32.9445C16.9454 33.2771 17.1747 33.6096 17.4531 33.9176C17.7807 34.2747 18.2229 34.6073 18.6815 34.9029C19.1401 35.1985 19.6151 35.4818 20.1064 35.7282L20.8762 35.9992L20.434 35.9499C19.5168 35.8021 18.6815 35.4326 17.9936 35.0138C16.323 33.9791 15.2256 32.5503 15.111 30.8875C15.0782 30.3086 15.1274 29.742 15.373 29.2493C16.3885 27.254 18.8617 25.7266 21.1055 24.4457C21.8917 24.0022 22.6615 23.5465 23.4477 23.1031C23.9554 22.8198 24.4631 22.5242 24.9709 22.2409L25.4295 21.9083C26.232 21.2925 26.9527 20.652 27.5095 19.9376C27.6733 19.7405 27.8535 19.5311 27.9845 19.3217C28.2302 18.9399 28.4267 18.5088 28.5414 18.0777C28.6396 17.8437 28.7215 17.6096 28.7379 17.3633Z" fill="#B99550"/>
<path d="M28.5088 4L28.8855 4.08622C28.9837 4.19707 28.9346 4.505 28.9346 4.66513C28.951 5.44111 29.0001 13.1147 29.0001 13.5951C29.0001 14.1247 28.9837 14.7775 28.9837 15.3072C28.951 16.7606 28.2958 18.0539 27.4605 19.2117C27.1493 19.6428 26.8709 20.0862 26.4287 20.4681C26.1011 20.739 25.7899 21.01 25.4296 21.2687C24.7253 21.7614 23.9883 22.1925 23.2513 22.6236C22.4815 23.1039 21.7117 23.5843 20.9419 24.0647C20.4014 24.3726 19.8609 24.6805 19.3368 25.0254C19.0092 25.2471 18.6816 25.4811 18.3541 25.7028C18.0101 25.9369 17.6989 26.2078 17.3877 26.4542C16.4214 27.2055 15.5861 28.0431 15.1766 29.0038C15.0292 29.3364 14.931 29.6567 14.8654 30.0262C14.8163 30.3341 14.8491 30.6913 14.8818 30.9992C15.0129 32.6128 16.0119 34.0416 17.6826 35.0269C18.2067 35.3349 18.7472 35.6058 19.3368 35.8029L19.8118 35.9384V35.9507C17.8136 35.766 16.0119 35.2363 14.4724 34.3618C14.1776 34.2017 13.9155 34.0046 13.6534 33.8075C11.7044 32.3911 10.7708 30.3587 11.0493 28.154C11.1803 27.1193 11.5079 26.1586 12.032 25.2841C12.9492 23.806 14.4232 22.6112 16.0775 21.4781C16.4378 21.2563 16.7981 21.0223 17.1584 20.8006C17.7808 20.4188 18.3868 20.0369 19.0092 19.6428C19.2877 19.458 19.5825 19.2733 19.8609 19.0762C20.6962 18.485 21.5643 17.9184 22.3177 17.2656C23.2349 16.4773 24.1193 15.6767 24.8891 14.8268C25.3477 14.3095 25.7736 13.7921 26.183 13.2625C26.5106 12.856 26.789 12.4249 27.0347 12.0062C27.9355 10.4542 28.5088 8.66821 28.5907 6.82063C28.6234 6.22941 28.5579 5.67513 28.4596 5.1455C28.4105 4.96074 28.3777 4.77598 28.3286 4.59122L28.2631 4.18476L28.5088 4Z" fill="#0D539C"/>
</g>
<defs>
<clipPath id="clip0_124_2136">
<rect width="18" height="32" fill="white" transform="translate(11 4)"/>
</clipPath>
</defs>
</svg>
