<svg width="40" height="40" viewBox="0 0 40 40" fill="none" xmlns="http://www.w3.org/2000/svg">
<path d="M23.1278 22.8129L25.1891 10.2578L4.0155 31.1486H32.4401L35.8661 10.2578L23.1278 22.8129Z" fill="white"/>
<path d="M4.0155 31.1292H21.7631L25.1891 10.2461L4.0155 31.1292Z" fill="#001F60"/>
<path d="M23.1285 22.8047C23.1285 22.8047 22.755 20.0916 22.7648 19.38C22.7738 18.7766 22.9166 14.2864 22.9767 12.4219L22.4484 12.9422C22.4116 14.697 22.3229 18.8297 22.2921 19.3526C22.2718 19.6947 21.7398 22.7113 21.7398 22.7113C21.7398 22.7113 20.7433 20.1936 20.6269 19.4649C20.5352 18.8906 20.2692 16.4903 20.1309 15.2276L19.671 15.6819C19.8401 16.9455 20.1331 19.1503 20.1715 19.5489C20.2211 20.0718 20.073 23.0207 20.073 23.0207C20.073 23.0207 18.6602 20.515 18.5039 20.0701C18.3717 19.6921 17.9899 18.3411 17.7705 17.5567L17.406 17.9159C17.6112 18.6317 17.9809 19.9227 18.0711 20.2639C18.1673 20.6239 18.6159 23.6842 18.6159 23.6842C18.6159 23.6842 16.889 21.7469 16.5343 21.1794C16.2322 20.6743 15.938 20.163 15.6521 19.6458L15.2861 20.0067C15.5439 20.4396 15.9722 21.1657 16.1315 21.4863C16.3081 21.8395 17.273 24.7249 17.273 24.7249C17.273 24.7249 14.9382 22.9179 14.7826 22.7747C14.5978 22.605 14.0605 21.9552 13.7268 21.5454L13.3533 21.914C13.6997 22.3255 14.2724 23.007 14.4279 23.1982C14.6218 23.4382 16.1841 26.0416 16.1841 26.0416C16.1841 26.0416 13.711 24.9752 13.3909 24.7326L11.7527 23.4922L11.3724 23.8668C11.8624 24.2363 12.8386 24.9744 13.1346 25.2075C13.5359 25.523 15.3575 27.6164 15.3575 27.6164L12.3756 27.0463C11.3671 26.656 10.3604 26.2597 9.35546 25.8573L8.92261 26.2842C9.72143 26.5988 11.682 27.3729 12.2111 27.5992C12.5477 27.7432 14.8593 29.3265 14.8593 29.3265C14.8593 29.3265 12.2892 29.3823 11.8601 29.3703C11.4829 29.36 7.57296 28.723 6.61032 28.5653L6.06024 29.1079C7.24006 29.2657 11.0951 29.7826 11.797 29.9035C12.8002 30.1915 14.6924 31.125 14.6924 31.125L23.1248 22.8201L23.1285 22.8047Z" fill="#FFCC05"/>
<path d="M14.6917 31.1292H32.4393L35.866 10.2461L14.6917 31.1292Z" fill="#EE2A29"/>
</svg>
