<svg width="40" height="40" viewBox="0 0 40 40" fill="none" xmlns="http://www.w3.org/2000/svg">
<mask id="mask0_124_2220" style="mask-type:luminance" maskUnits="userSpaceOnUse" x="3" y="6" width="35" height="28">
<path d="M29.8826 6.85612C29.1809 7.72042 17.2589 25.6283 15.9972 27.1875C15.2249 28.1376 14.5224 28.6579 14.0303 28.8331C13.3402 29.1739 9.24021 30.8883 3.01825 33.2205H32.5129L37.9046 6.67752L37.7696 6.57023C37.4222 6.56296 36.5298 6.54688 35.452 6.54688C33.4891 6.54688 30.9105 6.6002 29.8826 6.85612Z" fill="white"/>
</mask>
<g mask="url(#mask0_124_2220)">
<path d="M11.5718 -14.168L-15.5669 37.2355L20.4744 65.7851L47.6195 14.3816L11.5718 -14.168Z" fill="url(#paint0_linear_124_2220)"/>
</g>
<mask id="mask1_124_2220" style="mask-type:luminance" maskUnits="userSpaceOnUse" x="22" y="14" width="12" height="14">
<path d="M28.2812 14.2014C26.7467 14.2058 25.3588 14.9672 24.3506 16.1969L23.549 18.2976C24.3913 16.131 26.1934 14.628 28.2827 14.6214C29.0407 14.6192 29.7622 14.8142 30.4137 15.167L28.7792 14.2266C28.6203 14.2099 28.4594 14.2014 28.2971 14.2014C28.2917 14.2014 28.2868 14.2014 28.2812 14.2014ZM33.548 21.0413C33.55 22.0132 33.3765 22.9356 33.0641 23.7632L33.8701 21.6506C33.8838 21.4525 33.8904 21.2518 33.8899 21.0492C33.8858 19.1704 33.268 17.4702 32.2698 16.2338L31.8263 15.9795L30.6307 15.2916C32.3549 16.3434 33.5418 18.5232 33.548 21.0413ZM22.721 20.4676C22.7066 20.6708 22.6997 20.8769 22.7 21.0845C22.7043 22.9567 23.3176 24.6512 24.309 25.8863L25.9988 26.8579C24.2527 25.8147 23.0476 23.6184 23.0414 21.0738C23.0396 20.1139 23.2098 19.2019 23.5168 18.3818L22.721 20.4676ZM28.3084 27.5047C28.3041 27.5047 28.2992 27.5047 28.2951 27.5047C27.5278 27.5047 26.7984 27.3025 26.1409 26.9393L27.3738 27.648L27.8297 27.9102C27.9878 27.926 28.1475 27.9339 28.309 27.9336C29.8385 27.9289 31.2221 27.1731 32.2292 25.951L33.0463 23.8093C32.2068 25.9879 30.4019 27.4978 28.3084 27.5047Z" fill="white"/>
</mask>
<g mask="url(#mask1_124_2220)">
<path d="M21.3106 24.1744L25.7637 12.5039L26.8331 13.1178L22.3798 24.7879L21.3106 24.1744Z" fill="#F9F790"/>
<path d="M22.3798 24.7874L26.8331 13.1172C26.8331 13.1172 26.9112 13.162 27.0477 13.2405L22.5943 24.9106C22.4579 24.8322 22.3798 24.7874 22.3798 24.7874Z" fill="#F9F790"/>
<path d="M22.5944 24.9084L27.0478 13.2383C27.1842 13.3169 27.3793 13.429 27.6134 13.5637L23.1601 25.2337C22.926 25.0992 22.7309 24.987 22.5944 24.9084Z" fill="#F9F489"/>
<path d="M23.1599 25.2364L27.6131 13.5664C28.0813 13.8357 28.7054 14.1947 29.3296 14.5539L24.8766 26.2233C24.2523 25.8644 23.6281 25.5056 23.1599 25.2364Z" fill="#F9EE77"/>
<path d="M24.8768 26.2202L29.3298 14.5508C29.954 14.9099 30.5781 15.2689 31.0463 15.5383L26.5935 27.207C26.1254 26.9379 25.5012 26.579 24.8768 26.2202Z" fill="#FAD947"/>
<path d="M26.5935 27.2156L31.0462 15.5469C31.2803 15.6815 31.4753 15.7937 31.6118 15.8723L27.1592 27.5409C27.0227 27.4623 26.8276 27.3502 26.5935 27.2156Z" fill="#FAC71B"/>
<path d="M27.1592 27.5319L31.6118 15.8633C31.7483 15.9417 31.8263 15.9865 31.8263 15.9865L27.3737 27.6552C27.3737 27.6552 27.2956 27.6103 27.1592 27.5319Z" fill="#FBC10E"/>
<path d="M27.3737 27.6647L31.8263 15.9961L33.8877 17.1788L29.4341 28.849L27.3737 27.6647Z" fill="#FBBF09"/>
<path d="M29.4342 28.8459L33.8878 17.1758L35.2779 17.9751L30.8248 29.6453L29.4342 28.8459Z" fill="#FABB09"/>
</g>
<mask id="mask2_124_2220" style="mask-type:luminance" maskUnits="userSpaceOnUse" x="22" y="14" width="12" height="14">
<path d="M28.2844 14.2188C25.1934 14.2276 22.6911 17.3045 22.6986 21.0978C22.7076 24.8917 25.2191 27.9626 28.3101 27.9532C30.5375 27.9462 32.4538 26.3454 33.3496 24.0324L33.3753 23.9614C33.706 23.0817 33.8916 22.0994 33.8896 21.0662C33.8834 18.3307 32.5767 15.9713 30.6885 14.8735L30.6499 14.8499C29.9349 14.4425 29.1375 14.2188 28.2973 14.2188L28.2844 14.2188ZM28.2844 14.6369C31.1842 14.6277 33.5401 17.5078 33.5489 21.0583C33.5558 24.6178 31.2102 27.5098 28.3101 27.5193H28.2973C25.4024 27.5195 23.0477 24.6452 23.0392 21.0899C23.0328 17.5399 25.3834 14.646 28.2844 14.6369ZM28.2908 14.9209C26.2948 14.9262 24.5747 16.3531 23.7656 18.4156L23.7206 18.5339C23.4308 19.3149 23.2686 20.1839 23.2706 21.0978C23.2758 23.5465 24.4469 25.6619 26.1375 26.6515L26.2018 26.6831C26.8448 27.0456 27.5617 27.2533 28.3165 27.2511C29.6677 27.2463 30.8962 26.5736 31.7941 25.5076C31.8324 25.4691 31.8653 25.4306 31.8969 25.3814C31.8653 25.3432 31.8331 25.3025 31.7941 25.2631C30.0009 23.0747 27.5506 21.7046 24.839 21.6342L24.5369 22.005V20.4036H24.5755C25.6726 20.4007 26.6425 20.5216 27.5645 20.8296C27.0626 20.5591 26.5358 20.3591 26.0025 20.2142V18.9678L31.7812 18.9442H33.0218C32.7503 18.0571 32.3217 17.2642 31.7748 16.6327C31.4063 16.196 30.9854 15.8331 30.5213 15.552L30.3349 15.4494C29.7147 15.1118 29.0303 14.9209 28.3101 14.9209L28.2908 14.9209ZM33.1439 19.4411L31.7812 19.449H30.5792L30.547 19.7015H31.7812L33.1953 19.6936C33.1789 19.6055 33.1604 19.5285 33.1439 19.4411ZM33.2789 20.1906L31.7812 20.1984L28.6572 20.2063C29.9068 21.0694 30.9741 22.2779 31.7876 23.709C31.8516 23.8162 31.9121 23.9163 31.9676 24.0245V24.0403C31.9676 24.0403 31.9666 24.0457 31.9676 24.0482C31.9655 24.0508 31.9676 24.0535 31.9676 24.0639V25.2946C32.3034 24.8531 32.5901 24.3552 32.8097 23.8115L32.8997 23.567C33.175 22.8018 33.326 21.9526 33.3239 21.0662C33.3239 20.7636 33.3118 20.4831 33.2789 20.1906Z" fill="white"/>
</mask>
<g mask="url(#mask2_124_2220)">
<path d="M25.5976 11.9492L20.8538 24.3899L30.9906 30.2118L35.7344 17.7712L25.5976 11.9492Z" fill="url(#paint1_linear_124_2220)"/>
</g>
<mask id="mask3_124_2220" style="mask-type:luminance" maskUnits="userSpaceOnUse" x="2" y="2" width="64" height="32">
<path d="M2.83624 33.207H65.0585V2.59847H2.83624V33.207Z" fill="white"/>
</mask>
<g mask="url(#mask3_124_2220)">
<path d="M37.9016 6.65718C37.9016 6.65718 31.4984 6.55809 29.9312 6.94748C29.3049 7.71901 17.0021 26.1469 15.8747 27.5376C15.2846 28.2646 14.5896 28.8209 14.0049 29.0683C8.7564 31.2841 -8.55551 37.7473 -11.3159 38.4336" stroke="white" stroke-width="0.0849219"/>
</g>
<defs>
<linearGradient id="paint0_linear_124_2220" x1="-15.5669" y1="36.6045" x2="24.4216" y2="57.534" gradientUnits="userSpaceOnUse">
<stop stop-color="#15B8EC"/>
<stop offset="0.55" stop-color="#15B8EC"/>
<stop offset="0.72" stop-color="#006BB6"/>
<stop offset="1" stop-color="#006BB6"/>
</linearGradient>
<linearGradient id="paint1_linear_124_2220" x1="21.0618" y1="24.2073" x2="31.6736" y2="28.2518" gradientUnits="userSpaceOnUse">
<stop stop-color="#F9F5A5"/>
<stop offset="0.335178" stop-color="#FBDA63"/>
<stop offset="0.581323" stop-color="#FFC409"/>
<stop offset="1" stop-color="#FFBF0A"/>
</linearGradient>
</defs>
</svg>
