<svg width="40" height="40" viewBox="0 0 40 40" fill="none" xmlns="http://www.w3.org/2000/svg">
<g clip-path="url(#clip0_124_2280)">
<mask id="mask0_124_2280" style="mask-type:luminance" maskUnits="userSpaceOnUse" x="3" y="4" width="34" height="32">
<path d="M36.65 4.00391H3.65002V35.796H36.65V4.00391Z" fill="white"/>
</mask>
<g mask="url(#mask0_124_2280)">
<path d="M24.9575 26.9069C23.6529 31.1587 19.836 34.2026 15.3426 34.2026C9.73787 34.2026 5.24445 29.4677 5.24445 23.6697C5.24445 21.2056 6.01752 18.983 7.37037 17.1953" stroke="#740054" stroke-width="0.712182" stroke-miterlimit="3.864"/>
</g>
<mask id="mask1_124_2280" style="mask-type:luminance" maskUnits="userSpaceOnUse" x="3" y="4" width="34" height="32">
<path d="M36.65 4.00391H3.65002V35.796H36.65V4.00391Z" fill="white"/>
</mask>
<g mask="url(#mask1_124_2280)">
<path d="M23.9429 26.616C23.2181 29.3701 20.8023 31.4477 17.9033 31.4477C13.6998 31.5926 11.6705 28.5487 11.6705 24.9733C11.6705 24.7317 11.6705 24.5385 11.7189 24.2969" stroke="#740054" stroke-width="0.712182" stroke-miterlimit="3.864"/>
</g>
<mask id="mask2_124_2280" style="mask-type:luminance" maskUnits="userSpaceOnUse" x="3" y="4" width="34" height="32">
<path d="M36.65 4.00391H3.65002V35.796H36.65V4.00391Z" fill="white"/>
</mask>
<g mask="url(#mask2_124_2280)">
<path d="M10.4143 9.75448C16.7437 8.78815 16.8404 10.286 16.8404 10.286C16.8404 10.286 16.4538 13.1366 16.4538 13.1849V12.9917C16.4538 12.9917 16.3089 13.2332 16.019 13.1366C14.7628 12.4602 9.88284 9.80279 10.4143 9.75448Z" fill="#F58220"/>
</g>
<mask id="mask3_124_2280" style="mask-type:luminance" maskUnits="userSpaceOnUse" x="3" y="4" width="34" height="32">
<path d="M36.65 4.00391H3.65002V35.796H36.65V4.00391Z" fill="white"/>
</mask>
<g mask="url(#mask3_124_2280)">
<path d="M10.4143 9.75448C16.7437 8.78815 16.8404 10.286 16.8404 10.286C16.8404 10.286 16.4538 13.1366 16.4538 13.1849V12.9917C16.4538 12.9917 16.3089 13.2332 16.019 13.1366C14.7628 12.4602 9.88284 9.80279 10.4143 9.75448Z" stroke="#F58220" stroke-width="0.0459004" stroke-miterlimit="3.864"/>
</g>
<mask id="mask4_124_2280" style="mask-type:luminance" maskUnits="userSpaceOnUse" x="3" y="4" width="34" height="32">
<path d="M36.65 4.00391H3.65002V35.796H36.65V4.00391Z" fill="white"/>
</mask>
<g mask="url(#mask4_124_2280)">
<path d="M16.1639 13.0901C16.1639 13.0901 16.0673 13.0418 16.0673 12.9452C16.4539 9.7563 14.3279 11.3507 14.183 11.2541C13.9414 11.2541 13.7481 11.0608 13.7481 10.8192C13.7481 10.8192 12.9268 10.0945 13.0234 9.4664C13.0234 9.4664 12.6369 9.22483 11.9121 9.56304C11.8638 9.56304 11.7672 9.85293 12.202 10.4327C12.202 10.4327 11.9604 10.5777 11.9604 10.7226C11.9604 10.7709 12.8785 12.3171 14.8594 13.1868C14.9077 13.1384 16.1639 13.0901 16.1639 13.0901Z" fill="#004A2A"/>
</g>
<mask id="mask5_124_2280" style="mask-type:luminance" maskUnits="userSpaceOnUse" x="3" y="4" width="34" height="32">
<path d="M36.65 4.00391H3.65002V35.796H36.65V4.00391Z" fill="white"/>
</mask>
<g mask="url(#mask5_124_2280)">
<path d="M16.1639 13.0901C16.1639 13.0901 16.0673 13.0418 16.0673 12.9452C16.4539 9.7563 14.3279 11.3507 14.183 11.2541C13.9414 11.2541 13.7481 11.0608 13.7481 10.8193C13.7481 10.8193 12.9268 10.0945 13.0234 9.4664C13.0234 9.4664 12.6369 9.22483 11.9121 9.56304C11.8638 9.56304 11.7672 9.85293 12.202 10.4327C12.202 10.4327 11.9604 10.5777 11.9604 10.7226C11.9604 10.7709 12.8785 12.3171 14.8594 13.1868C14.9077 13.1384 16.1639 13.0901 16.1639 13.0901Z" stroke="#004A2A" stroke-width="0.0459004" stroke-miterlimit="3.864"/>
</g>
<mask id="mask6_124_2280" style="mask-type:luminance" maskUnits="userSpaceOnUse" x="3" y="4" width="34" height="32">
<path d="M36.65 4.00391H3.65002V35.796H36.65V4.00391Z" fill="white"/>
</mask>
<g mask="url(#mask6_124_2280)">
<path d="M15.101 13.4252C15.1493 13.2319 15.7291 13.1836 16.1156 13.1836C21.672 13.1836 26.2137 17.9186 26.2137 23.7165C26.2137 24.8761 26.0687 26.2773 25.7788 27.5335C25.7788 27.3886 22.0585 26.1807 22.1551 26.0357C22.2517 25.8424 25.2957 23.33 22.8799 17.8219C22.7832 17.6287 18.3381 18.6433 15.101 13.4252Z" fill="#740054"/>
</g>
<mask id="mask7_124_2280" style="mask-type:luminance" maskUnits="userSpaceOnUse" x="3" y="4" width="34" height="32">
<path d="M36.65 4.00391H3.65002V35.796H36.65V4.00391Z" fill="white"/>
</mask>
<g mask="url(#mask7_124_2280)">
<path d="M15.101 13.4252C15.1493 13.2319 15.7291 13.1836 16.1156 13.1836C21.672 13.1836 26.2137 17.9186 26.2137 23.7165C26.2137 24.8761 26.0687 26.2773 25.7788 27.5335C25.7788 27.3886 22.0585 26.1807 22.1551 26.0357C22.2517 25.8424 25.2957 23.33 22.8799 17.8219C22.7832 17.6287 18.3381 18.6433 15.101 13.4252Z" stroke="#740054" stroke-width="0.0459004" stroke-miterlimit="3.864"/>
</g>
<mask id="mask8_124_2280" style="mask-type:luminance" maskUnits="userSpaceOnUse" x="3" y="4" width="34" height="32">
<path d="M36.65 4.00391H3.65002V35.796H36.65V4.00391Z" fill="white"/>
</mask>
<g mask="url(#mask8_124_2280)">
<path d="M22.9766 33.5747C25.1508 31.1589 26.2137 27.0036 26.2137 23.7181C26.2137 18.1135 21.817 13.4751 16.4539 13.1369C18.3865 10.9143 21.3821 9.46484 24.426 9.46484C27.0351 9.46484 29.2094 10.866 31.0454 12.5088C28.0498 11.4941 25.6823 11.3008 23.7013 11.4458C29.4509 11.4458 34.1376 16.4224 34.1376 22.5102C34.1376 28.5981 29.4509 33.5747 23.7496 33.5747C23.5563 33.5747 23.1215 33.5747 22.9766 33.5747Z" fill="#D83A4E"/>
</g>
<mask id="mask9_124_2280" style="mask-type:luminance" maskUnits="userSpaceOnUse" x="3" y="4" width="34" height="32">
<path d="M36.65 4.00391H3.65002V35.796H36.65V4.00391Z" fill="white"/>
</mask>
<g mask="url(#mask9_124_2280)">
<path d="M22.9766 33.5747C25.1508 31.1589 26.2137 27.0036 26.2137 23.7181C26.2137 18.1135 21.817 13.4751 16.4539 13.1369C18.3865 10.9143 21.3821 9.46484 24.426 9.46484C27.0351 9.46484 29.2094 10.866 31.0454 12.5088C28.0498 11.4941 25.6823 11.3008 23.7013 11.4458C29.4509 11.4458 34.1376 16.4224 34.1376 22.5102C34.1376 28.5981 29.4509 33.5747 23.7496 33.5747C23.5563 33.5747 23.1215 33.5747 22.9766 33.5747Z" stroke="#D83A4E" stroke-width="0.0459004" stroke-miterlimit="3.864"/>
</g>
<mask id="mask10_124_2280" style="mask-type:luminance" maskUnits="userSpaceOnUse" x="3" y="4" width="34" height="32">
<path d="M36.65 4.00391H3.65002V35.796H36.65V4.00391Z" fill="white"/>
</mask>
<g mask="url(#mask10_124_2280)">
<path d="M23.7979 4.29297C16.5022 5.16266 16.4055 13.0865 16.4538 12.9899C19.8843 9.70439 23.7979 9.26956 23.7979 9.41451C23.8462 9.55946 24.4743 7.24026 23.7979 4.29297Z" fill="#740054"/>
</g>
<mask id="mask11_124_2280" style="mask-type:luminance" maskUnits="userSpaceOnUse" x="3" y="4" width="34" height="32">
<path d="M36.65 4.00391H3.65002V35.796H36.65V4.00391Z" fill="white"/>
</mask>
<g mask="url(#mask11_124_2280)">
<path d="M23.7979 4.29297C16.5022 5.16266 16.4055 13.0865 16.4538 12.9899C19.8843 9.70439 23.7979 9.26956 23.7979 9.41451C23.8462 9.55946 24.4743 7.24026 23.7979 4.29297Z" stroke="#6D1F60" stroke-width="0.0459004" stroke-miterlimit="3.864"/>
</g>
<mask id="mask12_124_2280" style="mask-type:luminance" maskUnits="userSpaceOnUse" x="3" y="4" width="34" height="32">
<path d="M36.65 4.00391H3.65002V35.796H36.65V4.00391Z" fill="white"/>
</mask>
<g mask="url(#mask12_124_2280)">
<path d="M13.7481 10.8631C13.7481 10.6699 13.8931 10.4766 14.1346 10.4766C14.3279 10.4766 14.5212 10.6699 14.5212 10.8631C14.5212 11.0564 14.3762 11.2496 14.1346 11.2496C13.9414 11.2496 13.7481 11.1047 13.7481 10.8631Z" fill="white"/>
</g>
<mask id="mask13_124_2280" style="mask-type:luminance" maskUnits="userSpaceOnUse" x="3" y="4" width="34" height="32">
<path d="M36.65 4.00391H3.65002V35.796H36.65V4.00391Z" fill="white"/>
</mask>
<g mask="url(#mask13_124_2280)">
<path d="M14.1346 11.2496C14.3481 11.2496 14.5212 11.0766 14.5212 10.8631C14.5212 10.6496 14.3481 10.4766 14.1346 10.4766C13.9212 10.4766 13.7481 10.6496 13.7481 10.8631C13.7481 11.0766 13.9212 11.2496 14.1346 11.2496Z" stroke="white" stroke-width="0.136735" stroke-miterlimit="3.864"/>
</g>
<mask id="mask14_124_2280" style="mask-type:luminance" maskUnits="userSpaceOnUse" x="3" y="4" width="34" height="32">
<path d="M36.65 4.00391H3.65002V35.796H36.65V4.00391Z" fill="white"/>
</mask>
<g mask="url(#mask14_124_2280)">
<path d="M31.8184 12.7971C30.0307 11.0094 27.2284 9.125 24.5227 9.125C21.3338 9.125 18.2899 10.5745 16.3089 12.9903L16.5988 13.2319C18.4831 10.9127 21.4304 9.51152 24.5227 9.51152C26.7935 9.51152 29.2576 10.961 30.9487 12.5071L31.8184 12.7971Z" fill="#B99765"/>
</g>
<mask id="mask15_124_2280" style="mask-type:luminance" maskUnits="userSpaceOnUse" x="3" y="4" width="34" height="32">
<path d="M36.65 4.00391H3.65002V35.796H36.65V4.00391Z" fill="white"/>
</mask>
<g mask="url(#mask15_124_2280)">
<path d="M26.0204 23.7184C26.0204 26.7623 25.0058 30.9658 22.7832 33.4783L22.6383 33.5749L23.1214 33.6232C25.3923 31.0625 26.3586 26.8106 26.3586 23.7184C26.3586 20.8677 25.2957 18.162 23.363 16.1327C21.4304 14.1035 18.8213 12.9922 16.0673 12.9922C15.7291 12.9922 15.0526 12.9922 14.7144 13.0888V13.1371L15.0526 13.427C15.3908 13.3787 15.7774 13.3787 16.0673 13.3787C18.7247 13.3787 21.1888 14.4417 23.0731 16.4227C25.0058 18.3553 26.0204 20.9644 26.0204 23.7184Z" fill="#B99765"/>
</g>
</g>
<defs>
<clipPath id="clip0_124_2280">
<rect width="33" height="31.7921" fill="white" transform="translate(3.65002 4.00391)"/>
</clipPath>
</defs>
</svg>
