<svg width="40" height="40" viewBox="0 0 40 40" fill="none" xmlns="http://www.w3.org/2000/svg">
<path d="M36.8924 9.56735C37.3388 9.31475 36.2815 9.25861 35.8116 9.11828C32.4985 7.88332 29.397 16.6964 25.8255 18.0156C24.7917 18.2962 22.0661 16.4719 26.2015 13.0757C26.5539 12.7951 26.4364 12.346 25.9195 12.5986C19.3875 14.872 6.7698 8.52886 2 9.17441C11.0697 15.1527 27.5643 22.1134 17.1083 24.8359C20.0454 25.4253 21.1262 25.0324 21.1262 25.0324C18.5416 27.5865 12.4795 30.3932 8.861 31.9369C8.50855 32.0772 7.82715 32.4421 8.93149 32.3018C31.9581 25.7902 26.6009 15.1247 36.8924 9.56735Z" fill="#CC1719"/>
</svg>
