<svg width="40" height="40" viewBox="0 0 40 40" fill="none" xmlns="http://www.w3.org/2000/svg">
<g clip-path="url(#clip0_124_2352)">
<path fill-rule="evenodd" clip-rule="evenodd" d="M-62.4682 28.4623C-62.4682 28.4623 -65.2994 29.1366 -68.0636 29.1366C-74.4003 29.1366 -75.0746 25.6311 -75.0746 25.6311H-61.0526C-61.0526 20.0347 -63.1425 12.2835 -70.8948 12.2835C-78.6471 12.2835 -81.4113 18.6191 -81.4113 23.5402C-81.4113 30.5522 -76.4902 34.0557 -69.4792 34.0557C-65.9737 34.0557 -62.4682 32.7081 -62.4682 32.7081V28.4623ZM-75.8148 21.4513C-75.8148 21.4513 -74.3993 17.2045 -70.8948 17.2045C-66.648 17.2045 -66.648 21.4513 -66.648 21.4513H-75.8148ZM-103.185 34.0567C-103.185 34.0567 -99.679 34.8001 -96.1746 34.8001C-91.9278 34.8001 -82.8269 34.0567 -82.8269 23.5412C-82.8269 13.0258 -92.6691 12.2845 -92.6691 12.2845C-95.5003 12.2845 -96.8489 13.0258 -96.8489 13.0258V6.68909H-103.186L-103.185 34.0567ZM-96.8478 29.1377V18.6201C-96.8478 18.6201 -95.4992 17.9469 -94.0836 17.9469C-91.9267 17.9469 -88.4212 19.3635 -88.4212 23.5423C-88.4212 27.7891 -91.2524 29.1387 -94.7579 29.1387L-96.8478 29.1377ZM-146.732 28.4623C-146.732 28.4623 -143.9 29.1366 -138.98 29.1366C-134.059 29.1366 -134.8 27.787 -134.8 27.787C-134.8 24.2815 -146.732 27.787 -146.732 18.6181C-146.732 15.1136 -143.227 12.2824 -137.631 12.2824C-133.384 12.2824 -130.553 13.0237 -130.553 13.0237V18.6181C-130.553 18.6181 -134.059 17.2025 -136.89 17.2025C-140.395 17.2025 -140.395 17.9438 -140.395 18.6181C-140.395 22.1236 -128.463 18.6181 -128.463 27.0457C-128.463 34.0557 -134.059 34.0557 -138.98 34.0557C-143.227 34.0557 -146.732 33.3834 -146.732 33.3834V28.4623ZM-13.9996 34.0567V13.0258H-7.66286V14.4414C-7.66286 14.4414 -5.57503 13.0258 -1.39421 13.0258H-0.652908V18.6201H-2.80981C-5.57504 18.6201 -7.66286 20.0357 -7.66286 20.0357V34.0577L-13.9996 34.0567ZM-24.515 13.0258H-18.2464V34.0567H-24.515V13.0258ZM-24.515 6.68909C-24.515 4.5992 -23.1675 3.18359 -21.0116 3.18359C-19.662 3.18359 -17.5061 4.5992 -17.5061 6.68909C-17.5061 8.77795 -19.663 10.1946 -21.0116 10.1946C-23.1675 10.1946 -24.515 8.77795 -24.515 6.68909ZM-51.9517 27.7881C-51.9517 28.4623 -51.9517 28.4623 -51.2104 29.1377H-49.1205V34.0567C-50.5361 34.8001 -51.2104 34.8001 -51.9517 34.8001C-55.4572 34.8001 -57.5471 32.7102 -58.2214 30.5533V6.68909H-51.9517V27.7881ZM-115.858 13.0258C-122.128 13.0258 -126.374 17.2045 -126.374 23.5412C-126.374 29.8779 -122.128 34.8001 -115.858 34.8001C-110.196 34.8001 -105.274 29.879 -105.274 23.5412C-105.274 17.2045 -110.196 13.0258 -115.858 13.0258ZM-115.858 29.879C-118.622 29.879 -120.779 27.0478 -120.779 23.5423C-120.779 20.7111 -118.622 17.9469 -115.858 17.9469C-113.027 17.9469 -110.937 20.7111 -110.937 23.5423C-110.937 27.0467 -113.027 29.879 -115.858 29.879ZM-37.8637 12.2845C-42.1085 12.2845 -45.615 13.7001 -45.615 13.7001V18.6201C-45.615 18.6201 -43.5251 17.2045 -38.605 17.2045C-33.684 17.2045 -34.3582 20.71 -34.3582 20.71C-34.3582 20.71 -35.0995 20.0357 -37.1894 20.0357C-40.6929 20.0357 -47.7049 21.4514 -47.7049 27.0478C-47.7049 33.3845 -40.6929 34.0577 -37.1894 34.0577C-32.2683 34.0577 -28.7618 33.3855 -28.7618 33.3855C-28.7618 33.3855 -28.0896 31.9699 -28.0896 22.868C-28.0896 14.4404 -32.2683 12.2845 -37.8637 12.2845ZM-42.1085 27.0467C-42.1085 23.5412 -34.3572 24.9568 -34.3572 24.9568V29.8779C-34.3572 29.8779 -42.1085 30.5533 -42.1085 27.0467ZM23.8845 7.4304C23.8845 7.4304 20.3811 10.9359 20.3811 15.1157C20.3811 19.3635 26.0435 20.0358 26.0435 24.9568C26.0435 29.1377 18.9655 34.0567 18.9655 34.0567H21.1224C28.1324 34.0567 34.4691 28.4623 34.4691 20.71C34.4691 13.7001 30.2223 8.77796 23.8845 7.4304Z" fill="#314998"/>
<path fill-rule="evenodd" clip-rule="evenodd" d="M17.6159 34.059C17.6159 34.059 21.1213 30.5556 21.1213 26.3748C21.1213 22.128 16.2002 20.7124 16.2002 16.5336C16.2002 11.6125 22.4689 6.69141 22.4689 6.69141H21.1213C13.368 6.69141 7.03131 13.0281 7.03131 20.7124C7.03234 27.0491 11.2792 32.7125 17.6159 34.059Z" fill="#314998"/>
</g>
<defs>
<clipPath id="clip0_124_2352">
<rect width="32" height="33.6842" fill="white" transform="translate(4.5 3.15625)"/>
</clipPath>
</defs>
</svg>
