<svg width="40" height="40" viewBox="0 0 40 40" fill="none" xmlns="http://www.w3.org/2000/svg">
<path d="M33.8036 19.9275C33.8036 27.285 27.8391 33.2493 20.4816 33.2493C13.1241 33.2493 7.15979 27.285 7.15979 19.9275C7.1596 12.57 13.1241 6.60547 20.4816 6.60547C27.8391 6.60547 33.8036 12.57 33.8036 19.9275Z" fill="#FB0F0C"/>
<path d="M9.56278 17.5381C9.56278 17.5381 8.55999 16.8348 10.7421 16.252C10.7421 16.252 11.4873 15.8367 10.2414 15.8677C10.2414 15.8677 4.53543 15.8988 3.06184 17.447C3.06184 17.447 2.53059 17.4888 4.5823 17.8173C4.5823 17.8173 17.9305 24.6946 36.6421 28.5439C36.6421 28.5439 38.0091 28.8959 38 28.4829C38 28.4829 13.8212 18.3426 9.56278 17.5381ZM16.6087 16.7651L17.7663 19.2721L19.9434 20.0949L25.6969 17.6944L23.0009 21.2046L25.4151 22.2195L31.3344 15.6244H25.3885L20.3279 18.1287L20.0552 15.4961H14.0827L12.3969 17.3372L14.847 18.191L16.6087 16.7651Z" fill="white" stroke="black" stroke-width="0.761906"/>
</svg>
