<svg width="40" height="40" viewBox="0 0 40 40" fill="none" xmlns="http://www.w3.org/2000/svg">
<path d="M28.3 19.3414C28.3 19.4414 26.5 19.5414 24 19.6414C23.5 19.3414 23.2 19.1414 23 18.9414C26 19.1414 28.3 19.2414 28.3 19.3414Z" fill="#757F8B"/>
<path d="M26.5 15.0413C26.5 15.1413 25 15.2413 22.9 15.3413C23.2 15.1413 23.5 14.9413 23.9 14.8413C25.4 14.9413 26.5 14.9413 26.5 15.0413Z" fill="#757F8B"/>
<path d="M10.5 24.3414C9.49995 24.3414 8.59995 24.3414 7.99995 24.3414C6.99995 24.3414 6.19995 24.0414 6.19995 23.6414C6.19995 23.2414 6.99995 22.9414 7.99995 22.9414C8.89995 22.9414 9.99996 22.9414 11.4 22.9414C10.8 23.8414 10.6 24.2414 10.5 24.3414Z" fill="#757F8B"/>
<path d="M11 25.2415C11.3 25.6415 11.6 25.9415 12.1 26.3415C12.1 26.3415 12.3 26.5415 12.7 26.3415C13.2 26.1415 13.6 25.8415 14.1 25.2415C15.5 25.2415 16.9 25.3415 18.2999 25.3415C18.4 25.5415 18.7 25.8415 18.9 26.3415C14.9 26.4415 10.6 26.5415 8.39996 26.5415C7.49996 26.5415 6.69995 26.2415 6.69995 25.9415C6.69995 25.5415 7.39996 25.3415 8.39996 25.3415C9.19996 25.2415 9.99995 25.2415 11 25.2415Z" fill="#757F8B"/>
<path d="M9.5 28.5413C8.7 28.5413 8 28.2413 8 27.9413C8 27.6413 8.7 27.3413 9.5 27.3413C11.7 27.3413 16.1 27.4413 19.9 27.5413C20.1 27.8413 20.3 28.0413 20.4 28.3413C16.5 28.5413 11.8 28.5413 9.5 28.5413Z" fill="#757F8B"/>
<path d="M22.1 30.3415C18.9 30.4415 13.4 30.5415 11.2 30.5415C10.6 30.5415 10 30.3415 10 30.1415C10 29.9415 10.5 29.7415 11.2 29.7415C13.4 29.7415 18.5 29.8415 21.7 29.9415C21.8 30.0415 21.9 30.2415 22.1 30.3415Z" fill="#757F8B"/>
<path d="M13.8 31.5413C15.7 31.5413 21.4 31.6413 21.4 31.8413C21.4 32.0413 15.7 32.1413 13.8 32.1413C13.4 32.1413 13.1 32.0413 13.1 31.8413C13.1 31.7413 13.4 31.5413 13.8 31.5413Z" fill="#757F8B"/>
<path d="M13.7999 20.0415C11.3999 20.0415 9.29995 20.1415 7.99995 20.1415C6.99995 20.1415 6.19995 19.8415 6.19995 19.4415C6.19995 19.0415 6.99995 18.7415 7.99995 18.7415C9.59995 18.7415 12.2 18.7415 15 18.8415C14.5 19.2415 14.0999 19.6415 13.7999 20.0415Z" fill="#757F8B"/>
<path d="M25.4 16.9414C26.8 17.0414 27.7 17.1414 27.7 17.1414C27.7 17.2414 26.6 17.3414 25 17.4414C25.3 17.2414 25.4 17.0414 25.4 16.9414Z" fill="#757F8B"/>
<path d="M8.49999 17.8414C7.59999 17.8414 6.79999 17.5414 6.79999 17.2414C6.79999 16.8414 7.49999 16.6414 8.49999 16.6414C10.4 16.6414 13.8 16.6414 17.2 16.7414C16.8 17.1414 16.4 17.4414 16 17.8414C13 17.8414 10.2 17.8414 8.49999 17.8414Z" fill="#757F8B"/>
<path d="M18.8 15.5414C15.3 15.6414 11.5 15.6414 9.5 15.6414C8.7 15.6414 8 15.3414 8 15.0414C8 14.7414 8.7 14.4414 9.5 14.4414C11.7 14.4414 16.1 14.5414 19.9 14.6414C19.7 14.7414 19.5 14.9414 19.3 15.0414C19.1 15.2414 18.9 15.3414 18.8 15.5414Z" fill="#757F8B"/>
<path d="M11.1 13.3414C10.5 13.3414 9.89996 13.1414 9.89996 12.9414C9.89996 12.7414 10.4 12.5414 11.1 12.5414C13.6 12.4414 19.6 12.5414 22.6 12.7414C22.4 12.8414 22.2 13.0414 22 13.1414C18.9 13.2414 13.4 13.3414 11.1 13.3414Z" fill="#757F8B"/>
<path d="M7.8 22.2413C6.8 22.2413 6 21.9413 6 21.5413C6 21.1413 6.8 20.8413 7.8 20.8413C9 20.8413 10.9 20.8413 13 20.9413C12.6 21.4413 12.3 21.8413 12 22.2413C10.3 22.2413 8.8 22.2413 7.8 22.2413Z" fill="#757F8B"/>
<path d="M13.1 11.2414C13.1 11.0414 13.4 10.9414 13.8 10.9414C15.7 10.9414 21.4 11.0414 21.4 11.2414C21.4 11.4414 15.7 11.5414 13.8 11.5414C13.4 11.5414 13.1 11.3414 13.1 11.2414Z" fill="#757F8B"/>
<path d="M28.5 21.0414C28.5 21.3414 28.5 21.7414 28.5 22.0414C25.2 22.1414 22 22.3414 22 22.6414C22 22.8414 25.1 23.0414 28.4 23.2414C28.3 23.6414 28.3 24.0414 28.2 24.3414C25 24.4414 22 24.6414 22 24.8414C22 25.0414 24.8 25.2414 27.9 25.3414C27.8 25.7414 27.6 26.1414 27.4 26.5414C24.7 26.6414 22.5 26.8414 22.5 27.0414C22.5 27.2414 24.4 27.3414 26.9 27.5414C26.8 27.7414 26.6 27.9414 26.5 28.1414C26.3 28.3414 26.2 28.5414 26 28.8414C24.5 28.9414 23.4 29.0414 23.4 29.2414C23.4 29.3414 24.1 29.4414 25.3 29.5414C24.7 30.1414 23.9 30.7414 23.1 31.2414C23.1 31.2414 22.1 30.3414 21.2 29.3414C20.4 28.4414 18.8 25.9414 18.5 25.4414C18.1 24.9414 17.9 24.7414 17.4 24.9414C16.8 25.1414 16.1 25.2414 15.9 25.2414C15.7 25.2414 15.6 25.1414 15.9 25.0414C16.3 24.9414 17.7 24.2414 18.3 22.8414C19.1 21.3414 18.4 19.1414 18.4 19.1414C18.1 20.2414 17.5 20.7414 17.5 20.7414C17.7 19.6414 17.5 18.7414 17 18.0414L16.6 19.2414C16.6 19.2414 16.4 19.2414 16 19.6414C15.6 20.0414 15.4 20.5414 15.4 20.5414C15.8 20.6414 16.2 20.3414 16.2 20.3414C15.7 22.3414 14.9 24.0414 14.3 24.9414C13.7 25.8414 13.3 26.1414 12.7 26.3414C12.2 26.5414 12.1 26.3414 12.1 26.3414C11.7 25.9414 11.4 25.6414 11 25.2414C11 25.2414 11 25.2414 11.1 25.2414C11.3 25.2414 11.8 24.8414 11.8 24.6414C11.9 24.4414 11.9 24.3414 11.8 24.3414C11.7 24.3414 11.7 24.4414 11.2 24.7414C10.8 25.0414 10.5 24.8414 10.4 24.6414C10.3 24.5414 10.4 24.3414 10.5 24.2414C10.6 24.1414 12.9 19.7414 19.2 15.0414C27.4 8.94142 32.7 7.34142 33 7.14142C33.2 7.04142 33.5 6.94142 33.6 7.04142C33.7 7.14142 33.7 7.24142 33.7 7.34142C33.7 7.44142 33.6 7.44142 33.3 7.64142C30.1 9.04142 26.4 11.3414 24.4 12.7414C21.8 14.0414 19.4 15.8414 19.3 15.8414C19.1 15.9414 19.2 16.1414 19.4 16.0414C23.8 13.1414 28.9 11.1414 34.5 9.54142C34.8 9.44142 34.9 9.44142 35 9.54142C35.1 9.64142 35.1 9.64142 35.1 9.74142C35.1 9.84142 35 9.94142 34.8 9.94142C28.7 12.2414 24.3 14.2414 21.4 16.2414C21.4 16.2414 21.1 16.4414 21.1 16.6414C21.1 16.7414 21.3 16.7414 21.3 16.7414C22.7 16.7414 24.7 16.8414 25.6 16.9414C25.6 16.9414 25.5 17.4414 24.6 17.7414C23.9 18.0414 23.3 17.9414 22.7 17.9414C22.6 17.9414 22.4 18.0414 22.6 18.2414C22.4 18.4414 23.7 20.5414 28.5 21.0414Z" fill="#5C0D34"/>
</svg>
