<svg width="40" height="40" viewBox="0 0 40 40" fill="none" xmlns="http://www.w3.org/2000/svg">
<path d="M18.388 25.5837C15.6018 25.5837 13.3198 23.3229 13.3198 20.5372C13.3198 17.7515 15.6018 15.4699 18.388 15.4699V12.9492C14.2087 12.9492 10.7986 16.3586 10.7986 20.5372C10.7986 24.7158 14.2087 28.1252 18.388 28.1252V25.5837Z" fill="#FC2D18"/>
<path d="M25.9774 20.5391C25.9774 24.7176 22.5621 28.127 18.388 28.127V26.8589C21.876 26.8589 24.7038 24.0108 24.7038 20.5391H25.9774Z" fill="#DEB66B"/>
<path d="M31.1288 20.5391C31.1288 27.545 25.3952 33.2567 18.388 33.2567V30.6945C23.9813 30.6945 28.5453 26.1313 28.5453 20.5391H31.1288Z" fill="#1060B3"/>
<path d="M18.388 33.2567C25.3952 33.2567 31.1288 27.545 31.1288 20.5391H33.468C33.468 28.8339 26.6843 35.6163 18.388 35.6163V33.2567Z" fill="#FC2D18"/>
<path d="M18.388 34.4292C10.7363 34.4292 4.47766 28.1725 4.47766 20.5232C4.47766 12.8531 10.7363 6.61719 18.388 6.61719V7.78641C11.3809 7.78641 5.66805 13.5182 5.66805 20.5232C5.66805 27.5281 11.3809 33.2391 18.388 33.2391V34.4292Z" fill="#DDB759"/>
<path d="M18.388 30.6885C12.7948 30.6885 8.23077 26.1256 8.23077 20.5337C8.23077 14.947 12.7948 10.3789 18.388 10.3789V12.9462C14.2087 12.9462 10.7987 16.3554 10.7987 20.5337C10.7987 24.7172 14.2087 28.1264 18.388 28.1264V30.6885Z" fill="#1060B3"/>
<path d="M21.6576 16.1242V17.9588L23.9604 17.252V19.3309H26.4451V9.01953L21.6576 16.1242Z" fill="#DDB759"/>
<path d="M31.6901 19.3309H34.1957V17.2468L36.4777 17.9536V16.1242L31.6901 9.01953V19.3309Z" fill="#DDB759"/>
<path d="M27.7344 17.1701H30.4219V4.75391H27.7344V17.1701Z" fill="#DDB759"/>
<path d="M18.3879 30.6924C12.7946 30.6924 8.23062 26.1297 8.23062 20.538C8.23062 14.9515 12.7946 10.3836 18.3879 10.3836V7.80078C11.3807 7.80078 5.66791 13.538 5.66791 20.538C5.66791 27.5432 11.3807 33.2544 18.3879 33.2544V30.6924Z" fill="white"/>
<path d="M25.9774 20.5391H28.5401C28.5401 26.1313 23.9761 30.6945 18.388 30.6945V28.127C22.5621 28.127 25.9774 24.7177 25.9774 20.5391Z" fill="white"/>
</svg>
