<svg width="40" height="40" viewBox="0 0 40 40" fill="none" xmlns="http://www.w3.org/2000/svg">
<g clip-path="url(#clip0_124_2628)">
<path d="M17.0942 24.6507L18.5709 26.3546L19.5365 25.2755L17.6622 23.1171L16.6966 22.038L15.8446 21.0156L14.9926 22.1516L15.9582 23.2875L17.0942 24.6507Z" fill="#0F2D53"/>
<path d="M36.0082 16.3949C34.645 15.0887 33.225 14.464 31.7483 14.5208C30.5555 14.5776 29.6467 15.0319 28.9652 15.4862L28.9083 15.543C28.8516 15.5998 28.738 15.6566 28.6812 15.7134L27.6588 14.6344C27.4316 14.3504 27.034 13.8961 26.9204 13.6121C26.8636 13.385 26.8068 13.2146 26.8068 13.0442C26.75 12.5899 26.6932 11.9084 26.6932 11.9084C26.6932 11.9084 26.6932 11.738 26.6364 11.5676L26.5228 11.3405C26.5228 11.3405 27.3748 10.9429 27.9996 10.9997L28.3404 11.454V10.9997V10.375C28.3404 10.375 28.2836 10.0343 27.9996 9.75031C27.7724 9.57993 27.6588 9.52316 27.3748 9.52316C26.9772 9.46637 26.9204 9.57994 26.6364 9.29598L26.3524 8.89844H24.7621L24.1373 9.12562C24.1373 9.12562 23.7965 9.18241 23.5693 9.80712L23.1149 11.2837C23.1149 11.2837 23.0013 11.7948 22.9445 12.5331C22.9445 12.5331 22.8877 13.6689 22.7741 14.0096L22.4901 14.9183C22.1493 15.7702 21.7517 16.2245 21.7517 16.2245L20.3318 17.8715L19.9342 18.3258L19.5366 17.8715L18.6846 16.8492L18.571 16.7357L18.1166 16.2245C18.1166 16.2245 17.719 15.7702 17.3214 14.8047L17.0942 14.0096C16.9807 13.6689 16.9238 12.5331 16.9238 12.5331C16.9238 11.7948 16.7535 11.2837 16.7535 11.2837L16.2991 9.80712C16.0719 9.23921 15.7311 9.12562 15.7311 9.12562L15.1063 8.89844H13.5159L13.2887 9.29598C13.0047 9.57994 12.948 9.46637 12.5504 9.52316C12.2664 9.57995 12.1528 9.57993 11.9256 9.75031C11.5848 10.0343 11.5848 10.375 11.5848 10.375V10.9997V11.454L11.9256 10.9997C12.5504 10.9429 13.4023 11.3405 13.4023 11.3405L13.2887 11.5676C13.2319 11.738 13.2319 11.9084 13.2319 11.9084C13.2319 11.9084 13.1751 12.6467 13.1183 13.0442C13.1183 13.1578 13.0615 13.385 13.0047 13.6121C12.8911 13.9529 12.2096 14.6911 12.096 14.8615L11.3008 15.7702C10.676 15.2591 9.59683 14.5776 8.23366 14.5208C6.7569 14.464 5.33694 15.0887 3.97377 16.3949L3.57617 16.7924L3.86016 17.3036C3.91696 17.3604 4.99614 19.0641 6.98409 19.4616C8.29046 19.6888 9.65362 19.348 10.96 18.3826L9.99442 17.3036C9.02885 17.9851 8.12006 18.269 7.26808 18.0986C6.4161 17.9282 5.79133 17.4171 5.45054 17.0196C6.35931 16.2813 7.21128 15.9405 8.12006 15.9973C9.71042 16.0541 10.7896 17.3036 10.7896 17.3036L13.1183 19.9727L14.0839 18.8937L12.3232 16.8492L14.4247 14.2368L15.2767 13.1578C15.4471 14.18 16.4127 15.9974 16.8103 16.6221L14.4815 19.2913L13.5727 20.3703L12.6071 21.5061C12.096 22.0172 10.2784 23.8345 8.23366 24.9136C8.23366 24.9136 8.91524 25.3679 9.76722 25.3679C10.2784 25.3679 10.9032 25.1975 11.4712 24.6296C11.6984 24.4024 12.0392 24.1185 12.38 23.7777C12.38 23.7777 12.2096 24.1753 12.6071 24.8568C12.8911 25.3679 13.4023 25.7087 14.0839 25.7087C15.1631 25.7654 15.9015 25.1975 16.4695 24.5728L15.7311 23.721C15.7311 23.721 15.0495 24.6864 14.1975 24.1185C13.9135 23.8346 13.9135 23.3234 13.9135 23.3234C13.9135 23.3234 13.9135 23.153 14.0839 22.8123C14.6519 21.8468 16.2423 19.8024 17.151 18.6098L17.8894 17.7011L18.9118 18.8937L19.3094 19.348L17.4918 21.5629L18.287 22.4716L20.1614 20.4271L22.4901 22.9827L23.4557 24.0617L23.7965 24.4025L24.0237 24.6864C24.5349 25.2543 25.2732 25.7654 26.2388 25.7087C26.9204 25.7087 27.4316 25.3679 27.7156 24.8568C28.1132 24.1753 27.9428 23.7777 27.9428 23.7777C28.2836 24.1185 28.6244 24.4024 28.8515 24.6296C30.3851 26.0494 32.0323 24.9136 32.0323 24.9136C29.9307 23.7777 28.17 22.0172 27.6588 21.5061L27.0908 20.8246L25.898 22.1308C26.466 22.9259 26.4092 23.3234 26.4092 23.3234C26.4092 23.3234 26.4092 23.8346 26.1252 24.1185C25.2732 24.7432 24.5348 23.6642 24.5348 23.6642L22.2061 20.8246L21.0133 19.348L21.9221 18.3258L22.4333 17.7011L22.6605 17.985L24.1941 20.0295L25.2732 18.7801L23.5125 16.7357L23.3421 16.5653C23.7397 15.9405 24.7052 14.1232 24.8756 13.101L25.7276 14.18L27.7724 16.7924L27.3748 17.3036L25.614 19.348L24.0805 21.1085L23.6261 21.6197L24.5917 22.6987L25.33 21.8469L25.3868 21.7333L26.5228 20.4271L27.2044 19.6888L29.2491 17.3036C29.2491 17.3036 30.3283 16.0541 31.9187 15.9973C32.8274 15.9405 33.7362 16.3381 34.5882 17.0196C34.1906 17.4171 33.5658 17.9282 32.7706 18.0986C31.9187 18.269 31.0099 18.0419 29.9875 17.3036L29.022 18.3826C30.3283 19.348 31.7483 19.7456 32.9979 19.4616C34.9858 19.0641 36.065 17.3604 36.1218 17.3036L36.4058 16.7924L36.0082 16.3949ZM21.2973 27.242L20.3318 28.3779L20.4454 28.4914L21.0133 29.1729C21.2973 29.5704 22.1493 30.5359 22.3197 31.5581C22.3197 31.5581 23.1717 30.4223 22.5469 28.7754C22.4901 28.7754 22.3765 28.3211 21.2973 27.242Z" fill="#0F2D53"/>
<path d="M20.5021 25.057L18.9686 26.8177C17.435 28.2377 17.3214 28.8057 17.3214 28.8057C16.6966 30.4528 17.5486 31.5888 17.5486 31.5888C17.6622 30.5664 18.5142 29.6008 18.855 29.2032L19.423 28.5217L21.5245 26.0794L22.7741 24.6594L21.8653 23.5234C21.8085 23.5234 20.5021 25.057 20.5021 25.057Z" fill="#0F2D53"/>
</g>
<defs>
<clipPath id="clip0_124_2628">
<rect width="33" height="22.7165" fill="white" transform="translate(3.46259 8.88672)"/>
</clipPath>
</defs>
</svg>
