<svg width="40" height="40" viewBox="0 0 40 40" fill="none" xmlns="http://www.w3.org/2000/svg">
<g clip-path="url(#clip0_124_2664)">
<path d="M14.929 20.7604C14.929 20.7604 11.9582 19.4028 12.0148 18.6599C12.0218 18.5852 12.058 18.516 12.1311 18.4563C12.1311 18.4563 13.679 16.7504 16.6797 15.5499C19.101 14.5783 19.6741 14.6451 19.6741 14.6451C19.6316 15.7567 20.3509 16.6324 21.5089 17.0365C21.5089 17.0365 26.0473 15.5916 28.6093 15.3841C31.7012 15.1325 32.8246 16.2842 32.8246 16.2842C32.8246 16.2842 35.3936 16.4328 36.2466 16.9595C36.2466 16.9595 36.3559 17.0467 36.3504 17.0915C36.3488 17.1065 36.3339 17.1143 36.2985 17.1143C36.1562 17.1167 35.6845 17.0137 34.9959 17.0876C33.3489 17.2653 30.3812 17.6285 29.5047 18.1159C29.5047 18.1159 24.7407 25.6659 3.35077 25.5574C3.34998 25.5574 9.97082 24.1141 14.929 20.7604Z" fill="#25407B"/>
<path d="M20.0916 13.3668C20.2818 13.3558 20.7252 13.4313 20.8203 13.686C20.8203 13.686 20.1246 13.2701 11.3348 16.0609C8.57781 16.9327 4.42308 14.039 3.36023 13.1341C3.36023 13.1341 6.68401 14.0099 20.0916 13.3668Z" fill="#D42B3F"/>
</g>
<defs>
<clipPath id="clip0_124_2664">
<rect width="33" height="12.4229" fill="white" transform="translate(3.34998 13.1367)"/>
</clipPath>
</defs>
</svg>
