<svg width="40" height="40" viewBox="0 0 40 40" fill="none" xmlns="http://www.w3.org/2000/svg">
<path d="M32.6009 19.8215C32.8379 14.5333 24.2419 13.0866 13.4024 16.5875C9.3136 17.9047 5.49069 19.7432 2.30225 21.8C5.87833 19.0761 10.6245 16.5811 15.7938 14.9102C26.6348 11.4088 35.2301 12.8566 34.9953 18.1426C34.847 21.4395 31.305 25.4452 26.0352 28.8447C29.9578 25.8565 32.4758 22.5887 32.6009 19.8215Z" fill="#0495B2"/>
<path d="M27.4517 22.6294C27.9008 18.0343 20.7752 16.4089 11.5369 18.9969C8.05253 19.9727 4.76784 21.4105 2 23.0671C5.12365 20.8454 9.21135 18.8716 13.6197 17.6358C22.8576 15.0499 29.984 16.6753 29.5342 21.2699C29.2544 24.1328 26.1 27.4714 21.5295 30.2106C24.9543 27.7722 27.2176 25.0335 27.4517 22.6294Z" fill="#081C59"/>
</svg>
