<svg width="40" height="40" viewBox="0 0 40 40" fill="none" xmlns="http://www.w3.org/2000/svg">
<path fill-rule="evenodd" clip-rule="evenodd" d="M23.5912 20.3783V20.4801C23.5912 21.1164 23.5912 22.1854 23.5912 23.0253C24.0238 22.5926 24.66 22.389 25.3981 22.389H27.3068C28.0448 22.389 28.681 22.5926 29.0118 23.0253V7.11771C29.0118 5.94691 28.3756 5.31061 27.3068 5.31061H25.2963C24.3292 5.31061 23.693 5.8451 23.5912 6.78683V6.88864C23.5912 6.88864 22.6241 5.28516 19.3412 5.28516C15.0912 5.28516 12.0118 8.67029 12.0118 13.7607C12.0118 18.8511 14.8876 22.3635 19.2139 22.3635C21.7588 22.3635 23.0313 20.9891 23.5657 20.3528M20.4864 17.8076C18.5777 17.8076 17.2035 16.3314 17.2035 13.7862C17.2035 11.3428 18.8068 9.86654 20.4864 9.86654C22.5987 9.86654 23.7693 11.8773 23.7693 13.7862C23.7693 16.6623 22.0642 17.8076 20.4864 17.8076Z" fill="#525350"/>
<path fill-rule="evenodd" clip-rule="evenodd" d="M28.9863 26.3223V25.686C28.9863 24.5152 28.35 23.8789 27.2812 23.8789H25.3725C24.8381 23.8789 24.4054 24.0825 24.1 24.4134C23.8964 24.7443 23.7692 25.0497 23.7692 25.686C23.7692 26.755 23.2348 27.4931 22.8021 27.9258C22.3695 28.3585 21.7333 28.5621 20.7916 28.5621C19.7228 28.5621 19.0866 28.3585 18.6794 27.9258C18.3485 27.4931 17.7123 26.9841 17.8396 25.686C17.8396 25.0497 17.636 24.7188 17.4069 24.5152C17.2033 24.0825 16.6689 23.8789 16.1345 23.8789H14.2258C13.0551 23.8789 12.5207 24.5152 12.5207 25.686V26.4241C12.5207 26.4241 12.5207 26.4241 12.6225 27.1622C12.8261 30.6746 16.6434 33.7289 20.7916 33.8561C24.8126 33.7543 28.63 30.6746 28.9608 27.1622C28.9608 27.1622 28.9608 26.7295 28.9608 26.3223H28.9863Z" fill="#F69E25"/>
</svg>
