<svg width="40" height="40" viewBox="0 0 40 40" fill="none" xmlns="http://www.w3.org/2000/svg">
<g clip-path="url(#clip0_21_773)">
<path d="M-107.03 16.4C-106.13 16.22 -105 15.87 -104.49 15.38C-104.01 14.91 -103.56 14.25 -103.69 13.55C-103.97 12.73 -104.65 14.03 -105.26 13.7C-105.56 13.49 -104.78 12.73 -104.29 12.89C-104.15 12.73 -104.06 12.5 -104.04 12.31C-104.16 12.17 -104.41 12.14 -104.56 12.23C-105.21 12.59 -105.77 13.16 -105.71 14.05C-105.59 15.06 -104.63 13.84 -104.11 14.13C-104.71 15.25 -106.2 15.66 -107.03 16.4ZM-57.06 20.46C-57.24 20.66 -57.38 20.91 -57.48 21.14C-57.64 21.48 -57.61 22.12 -57.28 22.34C-56.92 22.55 -56.21 22.41 -55.86 21.68C-55.66 21.77 -55.48 21.84 -55.13 21.71C-54.55 21.45 -54.57 20.51 -54.57 19.91C-54.84 20.14 -54.65 20.62 -54.99 20.84C-55.32 21.03 -55.62 20.67 -55.62 20.42C-55.8 20.7 -55.93 21.22 -56.31 21.41C-56.53 21.53 -56.86 21.63 -57.07 21.45C-57.38 21.14 -56.96 20.77 -57.06 20.46ZM-47.08 13.03C-52.89 14.8 -59.12 16.73 -65.19 18.08L-65.81 19.59C-59.71 17.9 -53.45 16.22 -47.57 13.99L-47.08 13.03ZM18.38 11.02C18.38 11.02 17.68 11 17.23 11.23C17.23 11.23 18.84 11.66 19.61 13.52C20.4 11.66 21.99 11.23 21.99 11.23C21.56 11 20.85 11.02 20.85 11.02C20.78 10.78 20.51 10.59 20.51 10.59C20.73 10.34 21.14 10.07 21.14 10.07L19.62 6.45996L18.12 10.07C18.12 10.07 18.53 10.34 18.74 10.59C18.72 10.59 18.45 10.78 18.38 11.02ZM-306.14 30.14C-308.27 26.75 -309.76 23.01 -311.22 19.39H-314.15C-314.21 19.39 -314.22 19.41 -314.22 19.45C-314.22 19.55 -313.14 19.84 -313.41 21.26C-313.82 23.41 -314.79 25.76 -317.42 31.07C-317.44 31.11 -317.6 31.41 -317.63 31.48C-317.65 31.51 -317.66 31.53 -317.42 31.53H-315.02C-314.96 31.53 -314.94 31.5 -314.94 31.46C-314.94 31.24 -315.96 31.24 -315.79 30.47C-315.56 29.61 -314.79 28.06 -314.25 26.85H-310.3C-309.54 28.28 -308.88 29.79 -307.98 31.13V31.14C-307.91 31.25 -307.8 31.44 -307.73 31.49C-307.64 31.55 -307.34 31.54 -307.18 31.54C-306.8 31.55 -304.82 31.54 -304.82 31.54C-304.77 31.54 -304.75 31.51 -304.75 31.47C-304.75 31.27 -305.41 31.24 -306.14 30.14ZM-313.87 25.95C-312.88 23.59 -312.54 21.66 -312.54 21.66C-311.86 22.95 -310.77 25.95 -310.77 25.95H-313.87ZM-137.37 33.13C-136.3 32.61 -135.13 32.46 -134.02 32.15C-133.12 31.6 -133.01 30.56 -132.69 29.68C-133.71 30.21 -134.94 30.34 -136.04 30.71C-137.13 31.01 -137.07 32.34 -137.37 33.13ZM-127.08 16.56C-127.63 16.07 -128.41 15.67 -129.04 15.37C-129.4 15.91 -129.87 16.59 -129.99 17.34C-129.35 17.87 -128.69 18.16 -128.02 18.56C-127.46 17.79 -127.24 17.02 -127.08 16.56ZM-155.65 19.1C-150.26 18.01 -144.93 16.7 -139.73 15.2C-139.15 15 -137.74 14.8 -137.83 13.92C-143.507 15.4314 -149.226 16.7819 -154.98 17.97L-155.32 18.46C-155.44 18.61 -155.87 19.06 -155.65 19.1ZM-120.21 27.5L-120.15 26.51C-119.97 24.53 -122.41 23.72 -122.86 21.96C-122.79 21.4 -122.53 20.94 -122.16 20.52C-121.33 19.73 -120.33 19.48 -119.16 19.82C-117.81 20.26 -117.34 21.57 -117.15 22.85C-118.2 27.61 -123.48 29.91 -127.23 31.86L-126.88 31.84C-124.44 31.52 -122.74 31.15 -120.83 30.48C-118.89 29.76 -117.55 27.53 -116.9 25.69C-116.12 23.41 -115.71 20.08 -117.43 18.1C-118.37 17.17 -119.96 16.77 -121.16 17.37C-122.44 17.92 -123.41 19.28 -123.56 20.73C-123.9 23.46 -122.34 25.91 -120.21 27.5ZM-118.35 31.93C-116.4 31.9 -113.37 31.45 -112.27 31.01C-110.27 29.93 -109.58 28.09 -109.12 25.9C-108.75 24.07 -109.27 22.9 -108.03 22.07C-107.53 21.77 -107.74 20.79 -107.62 20.04C-107.69 19.94 -107.81 19.85 -107.93 19.85C-109.39 20.34 -109.3 21.87 -109.49 23.15C-110.23 27.59 -114.12 30.43 -117.7 31.65L-118.35 31.93ZM-147.94 21.59C-147.76 22.55 -146.43 21.94 -145.99 21.16C-145.9 21.31 -145.8 21.39 -145.61 21.43C-145.42 21.44 -145.1 21.4 -144.9 20.88C-144.76 20.54 -144.7 20.04 -144.93 19.58L-145.01 20.09C-145.037 20.2209 -145.106 20.3392 -145.208 20.4262C-145.309 20.5131 -145.437 20.5637 -145.57 20.57C-145.86 20.58 -145.8 20.24 -145.84 20.08C-146.18 20.2 -146.07 20.72 -146.7 21.05C-146.92 21.17 -147.31 21.3 -147.48 21.01C-147.63 20.69 -147.37 20.42 -147.34 20.15C-147.75 20.42 -147.99 21.04 -147.94 21.59ZM-169.07 31.54C-168.47 31.41 -168.06 31.07 -167.65 30.27C-166.5 27.84 -165.86 24.82 -163.82 24.36C-163.5 24.62 -163.58 25.12 -163.48 25.56C-162.82 28.84 -159.57 30.37 -156.93 30.94C-147.79 32.75 -139.08 30.16 -132.11 24.16L-132 24.08C-132.4 26.32 -131.01 27.18 -129.96 26.99C-128.5 26.74 -127.91 25.06 -127.41 23.99C-127.1 23.27 -126.89 22.74 -126.75 22.25C-126.62 21.84 -126.52 21.45 -126.43 21.05L-126.78 21.26C-127.76 22.01 -127.95 23.33 -128.84 24.17C-129.19 24.49 -129.74 24.7 -130.26 24.55C-130.93 24.32 -131.1 23.73 -131.12 23.12C-131.11 22.57 -130.99 22.02 -130.99 21.68L-130.98 21.49H-130.99L-130.98 21.36C-136.58 26.13 -143.19 28.87 -150.6 29.18C-155.13 29.11 -159.79 28.65 -162.48 24.84C-162.96 24.01 -163.15 23.03 -163.37 22.11C-164.07 21.84 -164.86 22.49 -165.35 22.94C-167.25 24.69 -167.32 27.33 -169.12 29.06C-170.02 29.55 -171.56 28.59 -171.54 27.09C-171.49 24.99 -170.07 23.3 -168.39 21.92C-165.76 19.78 -163.57 17.03 -163.08 13.94C-164.29 14.48 -165.77 14.7 -167.12 14.99C-167.86 15.33 -167.98 16.33 -168.23 17.43C-167.15 17.08 -165.82 16.92 -164.61 16.57L-164.6 16.63C-165.71 19.32 -168.56 20.31 -170.52 22.4C-172.43 24.44 -172.91 27.71 -171.79 30C-171.13 31.31 -170.26 31.67 -169.07 31.54ZM-41.01 30.66C-42 31.14 -43.26 31.32 -44.36 31.63C-45.39 31.98 -45.41 33.34 -45.74 34.16C-44.75 33.72 -43.59 33.52 -42.53 33.23C-41.51 32.81 -41.41 31.54 -41.01 30.66ZM-217.25 30.48C-217.32 29.92 -217.4 27.29 -217.43 25.92L-217.4 19.8C-217.4 19.8 -217.38 19.48 -217.48 19.43C-217.59 19.38 -217.87 19.4 -218.03 19.4H-220.38C-220.43 19.4 -220.45 19.42 -220.45 19.46C-220.45 19.68 -219.7 19.69 -219.61 20.46C-219.54 21.02 -219.46 23.65 -219.43 25.01L-219.45 30.17C-219.46 30.57 -219.46 31.05 -219.46 31.15C-219.47 31.23 -219.46 31.45 -219.38 31.5C-219.29 31.57 -219 31.55 -218.84 31.55H-216.49C-216.44 31.55 -216.42 31.52 -216.42 31.48C-216.41 31.26 -217.17 31.24 -217.25 30.48ZM8.78 32.43C8.82999 32.94 8.84 33.41 8.84 33.41H30.31C30.31 33.41 30.33 32.97 30.37 32.48C30.42 31.97 30.48 31.57 30.48 31.57H8.67999C8.66998 31.58 8.75 32 8.78 32.43ZM-23.14 31.54H-23C-20.57 31.59 -18.34 31.75 -16.14 30.84C-14.25 29.79 -13.57 28.06 -13.05 26.34C-11.59 21.4 -13.05 16.25 -16.83 12.89C-17.87 16.04 -16.58 19.26 -16.31 22.33C-16.13 23.38 -16.29 24.57 -16.04 25.59C-14.92 22.4 -15.78 19.3 -16.35 16.35L-16.37 16.14C-14.5 18.52 -13.1 20.77 -13.28 23.65C-13.77 28.77 -19.41 30.05 -23.14 31.54ZM-287.5 19.4H-289.85C-289.91 19.4 -289.93 19.42 -289.93 19.46C-289.93 19.68 -289.18 19.69 -289.09 20.46C-289.01 21.02 -288.99 23.65 -288.95 25.01L-288.96 29.81C-288.96 29.81 -288.98 30.68 -289.27 31.54C-289.65 32.68 -291.46 33.94 -292.81 33.94C-294.79 33.94 -297.28 33.04 -296.22 29.59C-296.56 29.47 -296.68 29.97 -297.2 30.17C-298.56 30.65 -300.72 30.63 -302.18 30.17C-302.21 28.6 -302.23 27.24 -302.23 25.67V19.82C-302.23 19.82 -302.2 19.5 -302.29 19.45C-302.4 19.4 -302.68 19.42 -302.84 19.42H-305.18C-305.24 19.42 -305.26 19.44 -305.26 19.48C-305.26 19.7 -304.51 19.71 -304.41 20.48C-304.38 20.76 -304.34 21.57 -304.3 22.48C-304.26 25.47 -304.19 28.69 -304.38 31.57H-297.21C-297.21 31.57 -297.37 33.55 -296.65 34.42C-295.66 35.62 -294 35.58 -292.42 35.13C-290.08 34.42 -287.12 32.45 -286.92 30C-286.88 28.68 -286.88 27.31 -286.88 25.95L-286.85 19.83C-286.85 19.83 -286.83 19.51 -286.92 19.46C-287.06 19.38 -287.34 19.4 -287.5 19.4ZM36.61 20.12C37.35 19.87 37.26 19.05 37.26 19.05C37.1 18.11 36.1 18.25 36.1 18.25C36.73 17.51 36.24 16.94 36.24 16.94C35.76 16.34 34.99 16.73 34.99 16.73C35.34 15.95 34.88 15.56 34.88 15.56C34.26 15.03 33.62 15.58 33.62 15.58C33.6 14.83 33.06 14.64 33.06 14.64C32.41 14.37 31.93 14.95 31.93 14.95C31.46 13.64 30.54 14.3 30.31 14.41C30.09 14.53 30.06 14.4 30.06 14.4C30.02 12.82 28.68 13.42 28.68 13.42C29.04 12.64 28.41 12.19 28.41 12.19C27.72 11.77 27.15 12.36 27.15 12.36C27.08 11.32 26.31 11.63 26.07 11.72C25.84 11.77 25.33 11.8 25.33 11.8C23.73 11.6 23.16 11.69 23.16 11.69C21.23 11.65 19.58 14.86 19.58 14.86V14.88L19.55 14.85C19.55 14.85 17.9 11.64 15.97 11.68C15.97 11.68 15.38 11.59 13.8 11.79C13.8 11.79 13.31 11.77 13.06 11.71C12.81 11.62 12.04 11.31 11.98 12.35C11.98 12.35 11.41 11.76 10.72 12.18C10.72 12.18 10.09 12.63 10.45 13.41C10.45 13.41 9.11002 12.81 9.07001 14.39C9.07001 14.39 9.06 14.52 8.82001 14.4C8.61002 14.29 7.67999 13.64 7.20999 14.94C7.20999 14.94 6.73001 14.35 6.09 14.63C6.09 14.63 5.53998 14.82 5.51999 15.57C5.51999 15.57 4.88 15.02 4.26001 15.55C4.26001 15.55 3.81003 15.94 4.14001 16.72C4.14001 16.72 3.39001 16.33 2.92001 16.93C2.92001 16.93 2.41998 17.5 3.06 18.24C3.06 18.24 2.04001 18.1 1.89999 19.04C1.89999 19.04 1.82001 19.86 2.54001 20.11C2.54001 20.11 1.70999 20.5 1.85001 21.16C1.85001 21.16 1.89999 21.83 2.76999 21.96C2.76999 21.96 2.04001 22.44 2.34 23.11C2.34 23.11 2.63 23.89 3.56 23.67C3.56 23.67 3.20001 24.48 3.75 24.84C3.75 24.84 4.26001 25.28 4.89001 24.85C4.89001 24.85 5.22 24.73 5.35001 24.96C5.35001 24.96 5.59 25.33 5.09 25.89C5.09 25.89 7.79001 25.67 8.53 30.03H30.61C31.34 25.67 34.08 25.89 34.08 25.89C33.57 25.34 33.81 24.96 33.81 24.96C33.94 24.73 34.27 24.85 34.27 24.85C34.9 25.27 35.42 24.84 35.42 24.84C35.94 24.47 35.61 23.67 35.61 23.67C36.54 23.89 36.84 23.11 36.84 23.11C37.11 22.44 36.39 21.96 36.39 21.96C37.27 21.83 37.3 21.16 37.3 21.16C37.46 20.51 36.61 20.12 36.61 20.12ZM8.17001 26.59C7.91 26.4 7.98999 26.2 7.98999 26.2C8.63998 25.52 8.70001 25.13 8.70001 25.13C8.14001 24.7 6.75 24.81 6.75 24.81C6.97 23.84 7.60999 23.2 7.60999 23.2C5.64999 22.28 5.70001 20.26 5.70001 20.26C5.70001 16.64 9.10999 16.69 9.10999 16.69C8.88998 17.4 9.03 18.08 9.13 18.36C9.23999 18.63 9.47 18.92 9.89001 20.22C10.3 21.5 10.02 22.76 10.02 22.76C11.47 23.16 12.12 23.99 12.12 23.99C11.28 24.57 11.28 25.17 11.28 25.17C11.99 25.51 12.91 25.32 12.91 25.32C12.85 26.22 11.89 26.32 11.89 26.32C10.71 26.48 9.82001 25.43 9.82001 25.43C9.80002 26.85 8.45001 26.77 8.17001 26.59ZM11.46 29.38L9.59 28.69L11.49 27.82L13.45 28.48L11.46 29.38ZM15.59 29.11C15.19 29.11 14.86 28.79 14.86 28.39C14.86 28.01 15.19 27.69 15.59 27.69C15.99 27.69 16.29 28 16.29 28.39C16.29 28.79 15.99 29.11 15.59 29.11ZM16.38 24.88C16.38 24.88 15.95 26.02 14.82 26.08C14.82 26.08 13.85 26.13 13.61 25.18C13.61 25.18 14.45 24.97 14.74 24.39C14.74 24.39 14.42 23.74 13.25 23.74C13.25 23.74 13.24 23.12 14.67 21.76C14.67 21.76 13.72 21.37 12.8 19.31C11.88 17.24 12.61 15.59 12.86 15.24C13.09 14.9 13.63 14.24 14.4 13.81C14.4 13.81 14.97 13.46 15.62 13.39C15.62 13.39 16.08 13.33 16.56 13.9C17.01 14.48 17.55 15.15 17.83 16.53C17.83 16.53 18.1 18.07 17.94 19.06C17.79 20.04 17.63 20.62 17.06 21.21C17.06 21.21 18.52 21.76 19.21 22.84C19.21 22.84 18.06 23.21 17.83 23.88C17.83 23.88 18.11 24.26 19.14 24.47C19.14 24.47 19.1 25.3 18.12 25.51C18.12 25.51 16.96 25.63 16.38 24.88ZM19.6 29.11L17.69 28.33L19.6 27.56L21.55 28.33L19.6 29.11ZM23.63 29.11C23.23 29.11 22.91 28.79 22.91 28.39C22.91 28.2003 22.9853 28.0185 23.1194 27.8844C23.2535 27.7503 23.4354 27.675 23.625 27.675C23.8146 27.675 23.9965 27.7503 24.1306 27.8844C24.2647 28.0185 24.34 28.2003 24.34 28.39C24.34 28.79 24.03 29.11 23.63 29.11ZM24.39 26.08C23.25 26.02 22.84 24.88 22.84 24.88C22.26 25.63 21.08 25.51 21.08 25.51C20.12 25.3 20.06 24.47 20.06 24.47C21.11 24.26 21.37 23.88 21.37 23.88C21.14 23.21 20 22.84 20 22.84C20.68 21.76 22.14 21.21 22.14 21.21C21.57 20.62 21.41 20.04 21.26 19.06C21.11 18.07 21.37 16.53 21.37 16.53C21.67 15.15 22.19 14.48 22.64 13.9C23.12 13.32 23.6 13.39 23.6 13.39C24.23 13.47 24.82 13.81 24.82 13.81C25.58 14.24 26.11 14.91 26.36 15.24C26.59 15.59 27.33 17.24 26.41 19.31C25.49 21.37 24.54 21.76 24.54 21.76C25.96 23.12 25.96 23.74 25.96 23.74C24.78 23.74 24.47 24.39 24.47 24.39C24.76 24.97 25.59 25.18 25.59 25.18C25.37 26.12 24.39 26.08 24.39 26.08ZM27.75 29.38L25.75 28.47L27.72 27.82L29.59 28.68L27.75 29.38ZM31.58 23.13C31.58 23.13 32.22 23.8 32.46 24.75C32.46 24.75 31.07 24.64 30.51 25.07C30.51 25.07 30.56 25.46 31.21 26.15C31.21 26.15 31.33 26.35 31.04 26.54C30.77 26.71 29.41 26.8 29.37 25.37C29.37 25.37 28.49 26.43 27.3 26.28C27.3 26.28 26.36 26.16 26.3 25.27C26.3 25.27 27.2 25.45 27.92 25.12C27.92 25.12 27.9 24.53 27.07 23.96C27.07 23.96 27.72 23.12 29.18 22.73C29.18 22.73 28.9 21.46 29.31 20.18C29.74 18.9 29.95 18.59 30.06 18.31C30.18 18.05 30.32 17.37 30.1 16.65C30.1 16.65 33.5 16.58 33.52 20.22C33.51 20.21 33.54 22.24 31.58 23.13ZM-192.98 19.46C-192.98 19.68 -192.2 19.74 -192.1 20.28C-191.59 23 -191.79 29.05 -191.79 29.05C-195.12 26.27 -197.83 22.88 -200.56 19.51C-200.72 19.36 -201.16 19.4 -201.42 19.4H-203.23C-203.28 19.4 -203.3 19.42 -203.3 19.46C-203.32 19.69 -202.84 19.66 -202.32 20.27C-202.04 20.63 -201.85 21.05 -201.83 21.42C-201.75 22.69 -201.8 23.59 -201.84 25.05C-201.87 26.51 -202.07 30.98 -202.07 31.14C-202.08 31.22 -202.08 31.44 -201.99 31.49C-201.9 31.56 -201.61 31.54 -201.44 31.54H-200C-199.95 31.54 -199.93 31.51 -199.93 31.47C-199.92 31.25 -200.68 31.24 -200.78 30.48C-200.82 30.08 -200.87 28.65 -200.92 27.37C-200.95 25.71 -200.91 24.41 -200.81 22.93C-198.04 26.16 -191.72 32.14 -191.29 32.48C-191.02 32.68 -190.99 32.53 -190.99 32.53C-190.7 28.43 -190.85 23.6 -190.59 19.4H-192.92C-192.96 19.4 -192.98 19.42 -192.98 19.46ZM-204.06 30.14C-206.19 26.75 -207.68 23.01 -209.13 19.39H-212.07C-212.12 19.39 -212.15 19.41 -212.15 19.45C-212.15 19.55 -211.06 19.84 -211.34 21.26C-211.75 23.41 -212.72 25.76 -215.36 31.07C-215.38 31.11 -215.53 31.41 -215.57 31.48C-215.58 31.51 -215.59 31.53 -215.35 31.53H-212.95C-212.9 31.53 -212.87 31.5 -212.87 31.46C-212.87 31.24 -213.89 31.24 -213.73 30.47C-213.49 29.61 -212.73 28.06 -212.19 26.85H-208.23C-207.47 28.28 -206.81 29.79 -205.91 31.13V31.14C-205.83 31.25 -205.72 31.44 -205.65 31.49C-205.56 31.55 -205.26 31.54 -205.1 31.54C-204.71 31.55 -202.75 31.54 -202.75 31.54C-202.69 31.54 -202.67 31.51 -202.67 31.47C-202.67 31.27 -203.32 31.24 -204.06 30.14ZM-211.79 25.95C-210.81 23.59 -210.47 21.66 -210.47 21.66C-209.78 22.95 -208.7 25.95 -208.7 25.95H-211.79ZM-89.66 25.18C-89.05 21.04 -90.77 16.98 -93.02 14.33C-93.42 16.56 -93.12 22.55 -92.63 26.26C-91.37 23.55 -92.68 20.77 -92.45 17.92C-91.71 19.01 -91.3 20.12 -90.85 21.34C-90.11 23.34 -90.59 26.01 -92.18 27.72C-93.15 28.76 -94.53 29.36 -95.82 28.93C-96.31 28.77 -96.75 28.25 -96.75 28.25C-96.75 28.25 -96.4 27.39 -96 25.96C-95.25 22.83 -95.81 20.13 -97.86 16.73C-99.56 20.24 -99.89 24.93 -98.53 28.48C-99.93 29.96 -101.77 29.22 -102.14 28.64C-100.3 25.24 -100.69 20.43 -102.88 16.87C-104.48 20.06 -105.08 24.64 -103.92 28.6C-105.73 30.28 -107.94 31.17 -110.04 32.18C-107.35 32.03 -105.04 31.83 -103.13 30.37C-102.45 31.16 -101.62 31.79 -100.57 31.79C-99.33 31.79 -98.23 30.97 -97.58 30.37C-96.16 31.85 -94.13 31.64 -93.19 31.09C-91.01 29.82 -89.99 27.44 -89.66 25.18ZM-102.95 27.34C-104.16 25.34 -103.86 22.32 -102.95 20.27C-101.88 22.26 -101.11 25.41 -102.95 27.34ZM-97.92 20.33C-96.71 22.11 -95.93 24.89 -97.56 27.21C-98.87 25.52 -98.57 22.48 -97.92 20.33ZM-224.57 19.46C-224.58 19.68 -223.79 19.74 -223.69 20.28C-223.17 23 -223.38 29.05 -223.38 29.05C-226.71 26.27 -229.42 22.88 -232.15 19.51C-232.31 19.36 -232.75 19.4 -233 19.4H-234.81C-234.87 19.4 -234.88 19.42 -234.89 19.46C-234.9 19.69 -234.42 19.66 -233.9 20.27C-233.62 20.63 -233.44 21.05 -233.41 21.42C-233.34 22.69 -233.39 23.59 -233.42 25.05C-233.45 26.51 -233.66 30.98 -233.66 31.14C-233.66 31.22 -233.67 31.44 -233.59 31.49C-233.5 31.56 -233.2 31.54 -233.05 31.54H-231.58C-231.54 31.54 -231.51 31.51 -231.51 31.47C-231.51 31.25 -232.26 31.24 -232.36 30.48C-232.4 30.08 -232.46 28.65 -232.5 27.37C-232.53 25.71 -232.49 24.41 -232.39 22.93C-229.62 26.16 -223.3 32.14 -222.87 32.48C-222.59 32.68 -222.58 32.53 -222.58 32.53C-222.28 28.43 -222.44 23.6 -222.18 19.4H-224.5C-224.55 19.4 -224.57 19.42 -224.57 19.46ZM-275.58 19.59C-278.39 19.08 -281.64 19.48 -283.49 21.33C-285.2 23.03 -285.78 28.84 -282.38 30.71C-280.31 31.86 -277.11 31.77 -275.07 30.58C-272.05 28.81 -271.75 25.07 -272.66 22.1C-273.1 20.61 -274.34 19.89 -275.58 19.59ZM-274.66 28.84C-274.8 29.01 -274.94 29.14 -275.11 29.24C-276.89 30.42 -280.83 29.74 -282.03 28.16C-282.63 27.29 -282.83 25.97 -282.8 24.73C-282.81 23.79 -282.7 22.64 -282.16 21.75C-280.97 19.88 -276.12 20.7 -274.79 22.43C-273.56 24.25 -274.04 28.02 -274.66 28.84ZM-247.15 22.81C-248.3 18.83 -253.48 19.4 -257.7 19.4H-259.19C-260.02 19.4 -259.02 19.56 -258.85 20.23C-258.73 25.02 -258.83 28.94 -258.83 28.94C-258.84 29.36 -258.84 29.78 -258.84 30.2C-258.9 31.1 -259.7 31.42 -260.28 31.05C-262.2 29.54 -262.75 26.92 -264.36 25.86C-263.53 25.34 -262.61 24.74 -262.09 23.84C-261.63 22.82 -261.6 21.28 -262.48 20.46C-263.19 19.68 -264.57 19.41 -266.2 19.41H-270.63C-271.53 19.41 -270.27 19.61 -270.27 20.43C-270.11 24.24 -270.25 31.55 -270.25 31.55H-267.26C-267.25 31.25 -268.02 31.22 -268.13 30.77C-268.13 30.77 -268.19 26.72 -268.2 26.47C-268.2 26.2 -267.97 26.2 -267.97 26.2C-267.15 26.16 -266.5 26.04 -266.04 26.65C-265.58 27.25 -263.73 31.38 -261.25 32.09C-260.93 32.17 -260.61 32.21 -260.28 32.2C-259.37 32.23 -258.51 31.9 -257.77 31.43C-254.77 31.58 -251.48 32.06 -249.03 30.17C-246.46 28.4 -246.53 25.45 -247.15 22.81ZM-267.85 24.96C-268.06 24.94 -268.16 24.79 -268.16 24.61V20.8C-266.78 20.34 -264.67 20.31 -264.03 21.35C-263.5 22.2 -263.52 23.92 -264.15 24.54C-264.96 25.23 -267.59 25 -267.85 24.96ZM-249.83 29.33C-251.31 30.61 -254.68 30.03 -256.74 29.82V20.93C-255.91 20.65 -255.4 20.63 -253.94 20.69C-252.38 20.75 -250.26 21.23 -249.45 22.6C-248.5 24.15 -248.21 27.94 -249.83 29.33ZM-235.67 30.14C-237.8 26.75 -239.29 23.01 -240.76 19.39H-243.69C-243.74 19.39 -243.77 19.41 -243.77 19.45C-243.77 19.55 -242.68 19.84 -242.96 21.26C-243.37 23.41 -244.33 25.76 -246.98 31.07C-247 31.11 -247.16 31.41 -247.19 31.48C-247.2 31.51 -247.21 31.53 -246.97 31.53H-244.57C-244.51 31.53 -244.5 31.5 -244.5 31.46C-244.5 31.24 -245.52 31.24 -245.35 30.47C-245.11 29.61 -244.34 28.06 -243.81 26.85H-239.85C-239.09 28.28 -238.43 29.79 -237.54 31.13V31.14C-237.46 31.25 -237.35 31.44 -237.28 31.49C-237.19 31.55 -236.89 31.54 -236.73 31.54C-236.34 31.55 -234.37 31.54 -234.37 31.54C-234.32 31.54 -234.3 31.51 -234.3 31.47C-234.28 31.27 -234.94 31.24 -235.67 30.14ZM-243.41 25.95C-242.42 23.59 -242.08 21.66 -242.08 21.66C-241.4 22.95 -240.3 25.95 -240.3 25.95H-243.41ZM-320.74 30.72L-320.79 27.17C-318.85 24.78 -316.98 22.25 -316.17 19.41H-318.27C-319.18 19.41 -317.92 19.61 -317.92 20.43C-318.08 22.17 -319.77 24.3 -321.26 26.06L-325.19 19.42H-328.14C-328.19 19.42 -328.21 19.44 -328.21 19.48C-328.22 19.71 -327.64 19.62 -327.11 20.37C-325.588 22.6047 -324.173 24.9106 -322.87 27.28C-322.87 28.53 -322.83 31.55 -322.83 31.55H-319.87C-319.88 31.12 -320.66 31.2 -320.74 30.72ZM-330.9 19.59C-333.71 19.08 -336.95 19.48 -338.8 21.33C-340.27 22.8 -340.91 27.3 -338.88 29.72H-338.89L-338.87 29.74C-338.82 29.81 -338.76 29.87 -338.7 29.94C-338.62 30.04 -338.56 30.16 -338.59 30.26C-338.97 31.37 -340.43 31.35 -340.91 31.05C-342.83 29.54 -343.39 26.92 -345 25.86C-344.16 25.34 -343.24 24.74 -342.72 23.84C-342.26 22.82 -342.23 21.28 -343.1 20.46C-343.8 19.68 -345.2 19.41 -346.82 19.41H-351.26C-352.16 19.41 -350.91 19.61 -350.91 20.43C-350.74 24.24 -350.87 31.55 -350.87 31.55H-347.89C-347.88 31.25 -348.64 31.22 -348.76 30.77C-348.76 30.77 -348.82 26.72 -348.82 26.47C-348.83 26.2 -348.61 26.2 -348.61 26.2C-347.79 26.16 -347.13 26.04 -346.68 26.65C-346.22 27.25 -344.37 31.38 -341.89 32.09C-340.39 32.46 -338.79 31.79 -337.7 30.93L-337.57 30.8C-335.49 31.87 -332.4 31.76 -330.4 30.6C-327.37 28.83 -327.08 25.09 -327.99 22.12C-328.42 20.61 -329.65 19.89 -330.9 19.59ZM-348.47 24.96C-348.69 24.94 -348.79 24.79 -348.79 24.61V20.8C-347.41 20.34 -345.29 20.31 -344.65 21.35C-344.13 22.2 -344.14 23.92 -344.76 24.54C-345.58 25.23 -348.2 25 -348.47 24.96ZM-329.89 28.84C-330.02 29.01 -330.17 29.14 -330.35 29.24C-332.13 30.42 -336.06 29.74 -337.27 28.16C-337.86 27.29 -338.06 25.97 -338.04 24.73C-338.05 23.79 -337.93 22.64 -337.41 21.75C-336.21 19.88 -331.35 20.7 -330.03 22.43C-328.79 24.25 -329.27 28.02 -329.89 28.84ZM-34.94 25.56C-34.49 26.51 -33.99 27.39 -32.9 27.73C-31.99 28.03 -30.38 27.33 -29.43 23.78C-28.97 24.52 -28.75 25.13 -28.07 25.75C-25.11 28.64 -22.83 24.11 -20.14 23.63C-19.82 22.99 -19.65 22.11 -19.61 21.42C-20.54 21.45 -21.41 22.17 -22.5 21.87C-22.82 21.76 -23.2 21.61 -23.22 21.14C-22.77 16.69 -23.57 12.12 -26.65 9.04996C-28.04 12.87 -26.1 16.8 -25.91 20.64C-25.06 17.94 -25.71 15.16 -26.2 12.57C-24.13 15.4 -23.61 18.83 -23.95 22.56C-24.27 24.57 -26.09 24.46 -26.9 23.89C-30.09 21.39 -29.65 16.36 -31.16 13.4C-31.9 14.86 -31.33 16.46 -31 17.87C-30.57 19.65 -29.24 23.12 -31.15 24.84C-32.36 25.92 -33.7 25.06 -34.16 23.98C-35.33 21.14 -35.61 18.14 -36.2 15.07L-36.5 14.82C-36.68 15.48 -36.87 16.27 -36.79 17.03C-36.6 18.44 -35.98 22.08 -35.3 24.48C-36.19 26.6 -37.49 26.92 -38.15 26.78C-39.62 26.14 -39.18 24.41 -39.21 23.17C-42.54 25.03 -45.97 27.03 -48.75 27.86C-55.31 29.85 -63.45 31.35 -70 28.24C-72.37 27.08 -74.34 24.81 -74.3 22.06C-74.34 21.77 -74.64 21.62 -74.95 21.65C-77.63 22.63 -78.19 25.56 -79.06 27.83C-80.01 30.29 -82.28 28.62 -82.47 27.66C-82.77 24.07 -79.28 21.82 -77.24 19.48C-75.78 17.8 -75.03 15.81 -74.85 13.48C-75.97 14.19 -77.59 14.47 -78.82 14.88C-79.57 15.27 -79.5 16.63 -79.73 17.42L-76.17 16.32L-76.06 16.26C-77.33 19.67 -81.81 20.79 -82.84 24.55C-83.34 26.44 -83.38 29.44 -81.93 30.85C-81.33 31.35 -80.19 31.84 -79.31 31.31C-77.55 29.6 -77.9 27.14 -76.47 25.31C-76.02 24.74 -75.39 23.99 -74.82 24.21L-74.5 25.92C-73.64 29.31 -69.98 31.2 -66.87 31.89C-58.9 33.2 -50.86 31.34 -44.12 28.04C-42.69 27.37 -41.49 26.45 -40.11 25.81C-40 27.66 -39.34 29 -38.21 29.22C-37.36 29.36 -36.07 28.53 -34.94 25.56ZM-34.02 14.95C-33.46 12.35 -33.53 9.42996 -33.21 6.84996L-33.49 6.91996L-33.68 8.07996C-34.28 12.79 -38.92 14.22 -42.35 16.64C-40.9 16.29 -39.45 15.85 -38.11 15.36C-36.39 14.72 -35.06 13.19 -34.17 11.85C-34.05 12.7 -34.57 13.84 -34.02 14.95Z" fill="#B18446"/>
</g>
<defs>
<clipPath id="clip0_21_773">
<rect width="37" height="28" fill="white" transform="translate(1 6)"/>
</clipPath>
</defs>
</svg>
