<svg width="40" height="40" viewBox="0 0 40 40" fill="none" xmlns="http://www.w3.org/2000/svg">
<path d="M25.1078 19.454C22.5462 25.0314 16.4691 28.1868 12.9541 29.2735C12.8253 29.3133 12.8233 29.4964 12.952 29.5363C19.3872 31.5297 26.2435 30.2902 28.9161 29.3993C31.2963 28.7192 32.7418 26.7693 33.549 24.8998C34.3494 23.046 33.5722 21.0048 33.1219 19.0365C32.3854 15.8176 33.4229 12.2949 34.2832 10.4754C34.3266 10.3836 34.259 10.2776 34.1575 10.2805C31.8407 10.3461 29.9454 11.4322 28.5558 12.6964C26.656 14.4249 26.1799 17.1199 25.1078 19.454Z" fill="#DF5040"/>
<path d="M19.4182 19.3665C17.3255 22.8574 13.352 24.8892 10.9102 25.6573C10.781 25.6979 10.7807 25.8819 10.9105 25.9204C15.7037 27.3451 20.7811 26.4382 22.7699 25.7849C24.226 25.375 25.2157 24.3406 25.8596 23.2234C26.88 21.453 26.0032 19.3171 25.7828 17.2857C25.5552 15.1871 26.2058 13.0498 26.7702 11.8513C26.8136 11.7592 26.7462 11.6527 26.6444 11.6565C25.35 11.705 24.2328 12.1715 23.3193 12.7957C21.173 14.2621 20.7548 17.137 19.4182 19.3665Z" fill="#F4F4F4"/>
<path d="M13.4033 19.9589C11.6125 22.3929 8.70392 23.848 6.82162 24.4449C6.69189 24.4861 6.69119 24.6718 6.82207 24.7091C10.7923 25.8412 14.9775 25.1056 16.6235 24.5747C17.6024 24.3041 18.3283 23.7011 18.8541 22.9981C20.0963 21.3373 19.1264 19.0739 19.0962 17.0002C19.0745 15.515 19.5302 14.0785 19.9394 13.2118C19.9831 13.1192 19.9158 13.0122 19.8136 13.0167C19.0378 13.0512 18.3391 13.2625 17.7257 13.5704C15.3679 14.7541 14.9667 17.8338 13.4033 19.9589Z" fill="#314E8A"/>
</svg>
