<svg width="40" height="40" viewBox="0 0 40 40" fill="none" xmlns="http://www.w3.org/2000/svg">
<g clip-path="url(#clip0_124_2760)">
<path d="M6.10507 27.1742C6.02894 27.1742 6.02894 27.2503 6.10507 27.2884L6.18119 27.3645L9.68292 27.2503C11.9286 27.1361 14.0981 26.2226 15.7348 24.7001C15.7348 24.7001 15.811 24.624 15.7348 24.5859H15.6587L9.56873 25.0807L8.27462 25.1949C8.19849 25.1949 8.19849 25.1949 8.19849 25.2711C7.62756 25.9562 6.90438 26.6032 6.10507 27.1742Z" fill="#DE0031"/>
<path d="M10.3301 22.1515L9.03595 23.8643C9.03595 23.9405 9.03595 23.9405 9.03595 23.9785C9.03595 23.9785 9.03595 23.9785 9.11207 23.9785L15.4685 23.3315C17.6761 23.027 19.8076 22.3038 21.6346 21.0858C22.3958 20.6291 23.1951 20.0581 23.8802 19.4111C23.8802 19.4111 23.8802 19.3349 23.8802 19.2969H23.8041L12.0048 21.2761C11.3577 21.3903 10.7488 21.7329 10.3301 22.1515Z" fill="#F5DA00"/>
<path d="M7.32328 21.2734L3.40287 27.3253C3.32675 27.4014 3.40287 27.4395 3.47899 27.4395C4.8873 27.2111 6.21948 26.3737 7.05685 25.1938L9.60702 21.6159C10.0638 20.9689 10.787 20.5502 11.5863 20.3599L23.7281 18.1142C26.9254 17.4672 30.0465 16.2111 32.825 14.4222C34.0811 13.6609 35.3371 12.7474 36.4409 11.872C36.4409 11.872 36.4409 11.7959 36.4409 11.7578H36.3648L12.8423 17.5052C10.5205 18 8.57934 19.3703 7.32328 21.2734Z" fill="#00529C"/>
</g>
<defs>
<clipPath id="clip0_124_2760">
<rect width="33" height="15.6817" fill="white" transform="translate(3.36462 11.7578)"/>
</clipPath>
</defs>
</svg>
