<svg width="40" height="40" viewBox="0 0 40 40" fill="none" xmlns="http://www.w3.org/2000/svg">
<g clip-path="url(#clip0_124_2772)">
<path fill-rule="evenodd" clip-rule="evenodd" d="M24.8616 31.6838H26.2153L36.1 8.21094H34.7207L24.8616 31.6838Z" fill="#002D62"/>
<path fill-rule="evenodd" clip-rule="evenodd" d="M3.71298 31.6838H22.6139H22.8182L22.9715 31.6328L23.1503 31.5561L23.3035 31.454L23.4568 31.3518L23.5845 31.1986L23.6867 31.0453L23.7633 30.8921L32.9073 9.02828L32.9583 8.84948L32.9839 8.72177L32.9583 8.56852L32.9328 8.44081L32.8562 8.33865L32.7285 8.28756L32.6008 8.23648L32.4475 8.21094H25.0148L24.8616 8.23648L24.7083 8.28756L24.5551 8.38973L24.4274 8.4919L24.1464 8.74732L23.8655 9.02828L3.22768 30.8921L3.15106 31.0198L3.09998 31.173L3.12552 31.3007L3.1766 31.4284L3.27877 31.5306L3.38094 31.6328L3.53419 31.6838H3.71298Z" fill="#002D62"/>
<path fill-rule="evenodd" clip-rule="evenodd" d="M20.2641 16.4102C23.3291 16.4102 25.8322 18.9133 25.8322 22.0038C25.8322 25.0944 23.3291 27.5975 20.2641 27.5975C17.1735 27.5975 14.6449 25.0944 14.6449 22.0038C14.6449 18.9133 17.1735 16.4102 20.2641 16.4102ZM17.9909 23.4597C17.5311 23.4086 17.3012 23.332 16.9181 23.3831C16.5094 23.4086 15.922 23.7917 15.5644 24.1749C15.2579 23.5108 15.0791 22.7701 15.0791 21.9783C15.0791 19.1431 17.4034 16.8188 20.2641 16.8188C21.4901 16.8188 22.6395 17.2786 23.5079 17.9937L17.9909 23.4597ZM19.9065 23.7917L24.6828 24.6602C25.1681 23.8684 25.4235 22.9744 25.4235 21.9783C25.4235 20.4713 24.7594 19.092 23.7122 18.147L19.9065 23.7917ZM20.1364 24.5835L22.5373 26.5503L18.093 24.3537C17.6844 24.2515 17.3012 24.2259 16.9181 24.2004C16.4839 24.1749 16.1008 24.2515 15.641 24.3281C16.5094 25.9883 18.2463 27.1377 20.2641 27.1377C22.0265 27.1377 23.6101 26.2182 24.5551 24.8134L20.1364 24.5835Z" fill="white"/>
</g>
<defs>
<clipPath id="clip0_124_2772">
<rect width="33" height="23.4729" fill="white" transform="translate(3.09998 8.21484)"/>
</clipPath>
</defs>
</svg>
