<svg width="40" height="40" viewBox="0 0 40 40" fill="none" xmlns="http://www.w3.org/2000/svg">
<path fill-rule="evenodd" clip-rule="evenodd" d="M4.19758 20.1809C4.11671 20.2091 3.84993 20.2864 3.52202 20.2864C2.84685 20.2864 2.5882 19.9112 2.5882 19.2707C2.5882 18.7414 2.76966 18.2971 3.50287 18.2971C4.01631 18.2971 4.21673 18.4913 4.25581 18.7204H3.85806C3.84239 18.6266 3.77274 18.4322 3.47192 18.4322C3.02406 18.4322 2.95054 18.9048 2.95054 19.1988C2.95054 19.5196 2.98962 20.1521 3.6263 20.1521C3.91165 20.1521 4.11226 20.0521 4.19758 19.9974V20.1809ZM4.62203 18.7061C4.62203 18.4803 4.60268 18.4544 4.29025 18.426V18.363L4.9807 18.2971V19.1845H5.8799V18.329H6.24302V20.2549H5.88009V19.3194H4.98089V20.2549H4.62222L4.62203 18.7061ZM7.41673 18.6889L7.79475 19.525H7.06522L7.41673 18.6889ZM6.55584 20.2549H6.76033L7.00738 19.6594H7.84911L8.09558 20.2549H8.43955L7.6367 18.329H7.01531V18.3912C7.14628 18.4086 7.26971 18.4121 7.26971 18.5257C7.26971 18.546 7.2314 18.6467 7.21147 18.6949L6.55584 20.2549ZM10.2764 19.5132C10.2764 19.8977 10.2383 20.2864 9.49332 20.2864C8.91391 20.2864 8.7013 20.0489 8.7013 19.6223V18.7059C8.7013 18.466 8.69395 18.4635 8.37339 18.4258V18.3628L9.06462 18.2969V19.4792C9.06462 19.8057 9.06462 20.1517 9.5353 20.1517C10.0412 20.1517 10.0412 19.8339 10.0412 19.5451V18.329H10.2764V19.5132ZM11.2257 18.4637H10.9984C10.7398 18.4637 10.6626 18.5346 10.6434 18.7432H10.5508L10.5626 18.3292H12.2488L12.2642 18.7525H12.1714C12.1714 18.5315 12.0675 18.4637 11.8125 18.4637H11.5889V20.2551H11.2257V18.4637ZM13.0323 18.6889L13.4103 19.525H12.6807L13.0323 18.6889ZM12.1756 20.2549H12.3801L12.6272 19.6594H13.4646L13.7117 20.2549H14.0549L13.252 18.329H12.6306V18.3912C12.7624 18.4086 12.8856 18.4121 12.8856 18.5257C12.8856 18.546 12.8504 18.6467 12.8315 18.6949L12.1756 20.2549ZM15.8962 19.5132C15.8962 19.8977 15.8535 20.2864 15.1089 20.2864C14.53 20.2864 14.3176 20.0489 14.3176 19.6223V18.7059C14.3176 18.466 14.3101 18.4635 13.9895 18.4258V18.3628L14.68 18.2969V19.4792C14.68 19.8057 14.68 20.1517 15.1514 20.1517C15.6567 20.1517 15.6567 19.8339 15.6567 19.5451V18.329H15.8964L15.8962 19.5132ZM16.6948 19.2991C16.6948 18.9127 16.7337 18.432 17.2433 18.432C17.7447 18.432 17.7757 18.9239 17.7757 19.2991C17.7757 19.6656 17.7563 20.1519 17.2433 20.1519C16.7567 20.1519 16.6948 19.654 16.6948 19.2991ZM18.0463 20.4667C17.9846 20.4754 17.9264 20.484 17.8649 20.484C17.5832 20.484 17.4905 20.407 17.4251 20.2779C17.9693 20.2182 18.139 19.8523 18.139 19.2993C18.139 18.6838 17.9303 18.2971 17.2435 18.2971C16.5296 18.2971 16.3325 18.6838 16.3325 19.2993C16.3325 19.8115 16.4942 20.1749 16.9502 20.2551C17.0618 20.5334 17.251 20.6077 17.7567 20.6077C17.8533 20.6077 17.954 20.5934 18.0465 20.5736L18.0463 20.4667ZM20.1692 19.5132C20.1692 19.8977 20.1303 20.2864 19.3853 20.2864C18.8064 20.2864 18.5942 20.0489 18.5942 19.6223V18.7059C18.5942 18.466 18.5867 18.4635 18.2663 18.4258V18.3628L18.9567 18.2969V19.4792C18.9567 19.8057 18.9567 20.1517 19.428 20.1517C19.9331 20.1517 19.9331 19.8339 19.9331 19.5451V18.329H20.1693V19.5132H20.1692ZM21.2765 18.6889L21.6507 19.525H20.9256L21.2765 18.6889ZM20.4162 20.2549H20.6207L20.8677 19.6594H21.7089L21.9559 20.2549H22.2993L21.4926 18.329H20.8749V18.3912C21.0064 18.4086 21.1299 18.4121 21.1299 18.5257C21.1299 18.546 21.091 18.6467 21.0716 18.6949L20.4162 20.2549ZM24.3719 18.6889L24.7464 19.525H24.017L24.3719 18.6889ZM23.5112 20.2549H23.716L23.9631 19.6594H24.8046L25.0517 20.2549H25.391L24.5881 18.329H23.9708V18.3912C24.1024 18.4086 24.2213 18.4121 24.2213 18.5257C24.2213 18.546 24.1869 18.6467 24.1678 18.6949L23.5112 20.2549ZM25.7501 18.7061C25.7501 18.4662 25.7383 18.4637 25.4183 18.426V18.363L26.1089 18.2971V20.2549H25.7501V18.7061ZM27.058 18.7204C27.058 18.5149 27.058 18.4637 27.2788 18.4637C27.5566 18.4637 27.7609 18.5487 27.7609 18.858C27.7609 19.1791 27.4596 19.2309 27.2478 19.2309H27.0582L27.058 18.7204ZM26.6957 20.2549H27.058V19.3646H27.2633L27.8456 20.2549H28.2242L27.6185 19.3134C27.8804 19.2757 28.1236 19.1671 28.1236 18.8408C28.1236 18.3292 27.4405 18.3292 27.1933 18.3292H26.3831V18.3914C26.6918 18.4347 26.6955 18.4347 26.6955 18.7184V20.2549H26.6957ZM28.6057 18.7061C28.6057 18.4662 28.5985 18.4637 28.2782 18.426V18.363L28.9692 18.2971V19.9064C28.9692 20.12 28.9692 20.12 29.1888 20.12H29.4745C29.6831 20.12 29.8649 20.1088 29.8649 19.8397H29.9568L29.9458 20.2549H28.6059L28.6057 18.7061ZM30.3933 18.7061C30.3933 18.4662 30.3815 18.4637 30.0646 18.426V18.363L30.7556 18.2971V20.2549H30.3933V18.7061ZM31.3546 18.6951C31.3546 18.4291 31.3039 18.4403 31.022 18.3914V18.3292H31.7169L32.7552 19.8855H32.7591V18.3292H32.9676V20.2551H32.6552L31.5662 18.6266H31.5587V20.2551H31.3546V18.6951ZM33.5348 18.7184C33.5348 18.4345 33.5273 18.4345 33.2224 18.3914V18.3292H34.801L34.8128 18.7525H34.7202C34.7202 18.5234 34.5811 18.4637 34.3613 18.4637H34.1063C33.9446 18.4637 33.8982 18.4749 33.8982 18.6117V19.1819H34.2957C34.5269 19.1819 34.5466 19.0563 34.5696 18.9616H34.6584V19.5625H34.5696C34.5696 19.4077 34.4959 19.3163 34.2957 19.3163H33.8982V19.9543C33.8982 20.1148 33.9446 20.1198 34.1063 20.1198H34.4731C34.6582 20.1198 34.747 20.0635 34.7701 19.8395H34.8627L34.8509 20.2547H33.5348V18.7184ZM36.422 18.5605C36.3332 18.5236 36.0898 18.4322 35.8318 18.4322C35.658 18.4322 35.5147 18.5205 35.5147 18.7094C35.5147 19.1499 36.5882 19.1104 36.5882 19.7232C36.5882 20.1318 36.2133 20.2866 35.7581 20.2866C35.5075 20.2866 35.2526 20.2267 35.1829 20.2126V19.9804C35.2831 20.0318 35.5497 20.1521 35.812 20.1521C36.0206 20.1521 36.2251 20.0782 36.2251 19.8177C36.2251 19.353 35.1523 19.3963 35.1523 18.7927C35.1523 18.478 35.4302 18.2973 35.8933 18.2973C36.1208 18.2973 36.3369 18.3342 36.4218 18.3496V18.5605H36.422Z" fill="#324176"/>
<path fill-rule="evenodd" clip-rule="evenodd" d="M6.41304 21.2279L6.60592 21.7518H6.2163L6.41304 21.2279ZM5.94623 22.202H6.05418L6.19327 21.8196H6.62488L6.76823 22.202H6.93364L6.49391 21.0467H6.19695V21.0762C6.28169 21.0961 6.32792 21.1114 6.32792 21.157C6.32792 21.1842 6.3169 21.2179 6.30142 21.249L5.94623 22.202ZM8.16907 21.2279C8.16907 21.1272 8.177 21.1131 8.28882 21.1131C8.42424 21.1131 8.54709 21.1632 8.54709 21.3265C8.54709 21.5665 8.33525 21.5665 8.21531 21.5665H8.16907V21.2279ZM8.01837 22.202H8.16907V21.6339H8.25419L8.59758 22.202H8.76299L8.41612 21.6233C8.56663 21.6032 8.71327 21.5394 8.71327 21.3441C8.71327 21.0961 8.53954 21.0467 8.33138 21.0467H7.84464V21.0762C7.99167 21.1052 8.01817 21.1089 8.01817 21.2279V22.202H8.01837ZM9.15726 21.226C9.15726 21.1292 9.13366 21.0959 8.98372 21.0762V21.0467H9.79393L9.80128 21.2563H9.74769C9.73202 21.167 9.73589 21.1133 9.59331 21.1133H9.41166C9.31164 21.1133 9.30796 21.1348 9.30796 21.2262V21.5657H9.52406C9.66663 21.5657 9.67844 21.5033 9.69333 21.4231H9.73222V21.7786H9.69333C9.67418 21.6783 9.6705 21.6324 9.52406 21.6324H9.30796V22.0356C9.30796 22.1363 9.31899 22.1363 9.44687 22.1363H9.6322C9.74769 22.1363 9.75949 22.0992 9.78232 21.9692H9.83668L9.82488 22.2022H9.15726V21.226ZM10.408 21.2279C10.408 21.1292 10.419 21.1131 10.5542 21.1131C10.7086 21.1131 10.8049 21.1767 10.8049 21.3469C10.8049 21.5684 10.6432 21.5788 10.4807 21.5788H10.408V21.2279ZM10.2609 22.202H10.408V21.6455H10.4888C10.697 21.6455 10.9711 21.6455 10.9711 21.3469C10.9711 21.0465 10.7125 21.0465 10.5041 21.0465H10.0872V21.076C10.2379 21.0981 10.2607 21.1236 10.2607 21.2277L10.2609 22.202ZM12.1446 21.7744C12.1446 21.9856 12.1446 22.2211 11.755 22.2211C11.3844 22.2211 11.3609 22.0194 11.3609 21.7811V21.2426C11.3609 21.1238 11.3027 21.1292 11.1874 21.1151V21.0855L11.508 21.0467V21.7813C11.508 21.9065 11.508 22.1549 11.7587 22.1549C12.0404 22.1549 12.0404 21.9562 12.0404 21.7956V21.0469H12.1448L12.1446 21.7744ZM12.7697 21.2426C12.7697 21.1272 12.7778 21.1131 12.897 21.1131C13.0359 21.1131 13.152 21.1593 13.152 21.3365C13.152 21.5481 12.9512 21.558 12.8548 21.558H12.7695L12.7697 21.2426ZM12.6235 22.202H12.9206C13.0516 22.202 13.3795 22.202 13.3795 21.8911C13.3795 21.6781 13.2367 21.6099 13.1176 21.5871V21.5839C13.1947 21.5667 13.3176 21.4992 13.3176 21.3228C13.3176 21.0563 13.0556 21.0465 12.9316 21.0465H12.4536V21.076C12.5962 21.105 12.6235 21.1099 12.6235 21.2424V22.202ZM12.7697 21.6254H12.855C12.9667 21.6254 13.21 21.6283 13.21 21.8911C13.21 22.0849 13.0632 22.1363 12.9125 22.1363C12.7697 22.1363 12.7697 22.1243 12.7697 21.9943V21.6254ZM13.7889 21.2426C13.7889 21.1238 13.7387 21.1292 13.619 21.1151V21.0855L13.9396 21.0467V21.9844C13.9396 22.1245 13.9396 22.1363 14.0819 22.1363H14.2323C14.3636 22.1363 14.3673 22.0627 14.383 21.9479H14.4373L14.4255 22.202H13.7887L13.7889 21.2426ZM14.8035 21.2426C14.8035 21.1238 14.7498 21.1292 14.63 21.1151V21.0855L14.9543 21.0467V22.202H14.8035V21.2426ZM16.2013 22.173C16.12 22.2005 16.039 22.2213 15.877 22.2213C15.5565 22.2213 15.3793 21.9344 15.3793 21.5858C15.3793 21.2737 15.483 21.0273 15.8382 21.0273C16.0968 21.0273 16.1895 21.1632 16.2011 21.2799H16.0351C16.0233 21.2262 15.9962 21.1054 15.8264 21.1054C15.6453 21.1054 15.5484 21.2785 15.5484 21.5408C15.5484 21.7852 15.5992 22.1434 15.9736 22.1434C16.0736 22.1434 16.1816 22.1071 16.2013 22.1009V22.173ZM17.6213 21.2279L17.8145 21.7518H17.4247L17.6213 21.2279ZM17.1581 22.202H17.2663L17.4015 21.8196H17.8337L17.9801 22.202H18.1461L17.7021 21.0467H17.405V21.0762C17.4901 21.0961 17.5404 21.1114 17.5404 21.157C17.5404 21.1842 17.5247 21.2179 17.5129 21.249L17.1581 22.202ZM18.4978 21.2426C18.4978 21.1238 18.4435 21.1292 18.3243 21.1151V21.0855L18.648 21.0467V22.202H18.498L18.4978 21.2426ZM19.2964 21.2279C19.2964 21.1272 19.3046 21.1131 19.4162 21.1131C19.5516 21.1131 19.675 21.1632 19.675 21.3265C19.675 21.5665 19.4624 21.5665 19.3427 21.5665H19.2964V21.2279ZM19.1463 22.202H19.2964V21.6339H19.3816L19.7248 22.202H19.8909L19.5433 21.6233C19.6977 21.6032 19.841 21.5394 19.841 21.3441C19.841 21.0961 19.6669 21.0467 19.4587 21.0467H18.972V21.0762C19.119 21.1052 19.1461 21.1089 19.1461 21.2279L19.1463 22.202ZM20.2036 21.2459C20.1763 21.11 20.1612 21.1033 20.0302 21.0762V21.0467H20.3156L20.5046 21.9881H20.509L20.7789 21.0467H20.9259L21.196 21.9444H21.1995L21.3889 21.0467H21.4777L21.2343 22.2213H21.138L20.8255 21.1958H20.8217L20.528 22.2213H20.4048L20.2036 21.2459ZM22.1604 21.2279L22.3535 21.7518H21.9638L22.1604 21.2279ZM21.6934 22.202H21.8015L21.9406 21.8196H22.3728L22.5156 22.202H22.6818L22.2413 21.0467H21.9443V21.0762C22.0292 21.0961 22.0759 21.1114 22.0759 21.157C22.0759 21.1842 22.0641 21.2179 22.0524 21.249L21.6934 22.202ZM23.1602 21.659L22.9135 21.2488C22.8478 21.1321 22.8243 21.0842 22.7087 21.076V21.0465H22.9633L23.2641 21.5496L23.5728 21.0465H23.6893L23.3068 21.659V22.202H23.1602V21.659ZM24.5612 21.1754C24.5109 21.1512 24.3991 21.1052 24.2794 21.1052C24.1557 21.1052 24.0712 21.1719 24.0712 21.2768C24.0712 21.5481 24.6384 21.5131 24.6384 21.8894C24.6384 22.1268 24.4419 22.2213 24.2213 22.2213C24.1293 22.2195 24.0377 22.2078 23.9481 22.1865V22.0675C24.0097 22.099 24.1288 22.1434 24.2451 22.1434C24.3954 22.1434 24.4877 22.0714 24.4877 21.9251C24.4877 21.6358 23.936 21.6783 23.936 21.318C23.936 21.1303 24.0787 21.0273 24.3105 21.0273C24.4186 21.0273 24.5111 21.0447 24.5614 21.0548L24.5612 21.1754ZM26.5256 22.173C26.4447 22.2005 26.3639 22.2213 26.2052 22.2213C25.881 22.2213 25.7034 21.9344 25.7034 21.5858C25.7034 21.2737 25.8119 21.0273 26.1633 21.0273C26.4213 21.0273 26.5138 21.1632 26.5256 21.2799H26.3598C26.3484 21.2262 26.3213 21.1054 26.1516 21.1054C25.97 21.1054 25.8735 21.2785 25.8735 21.5408C25.8735 21.7852 25.9234 22.1434 26.2977 22.1434C26.3983 22.1434 26.5063 22.1071 26.5256 22.1009V22.173ZM27.2898 22.1547C27.0199 22.1547 27.0083 21.8393 27.0083 21.6254C27.0083 21.3879 27.0272 21.0948 27.2898 21.0948C27.5565 21.0948 27.568 21.4086 27.568 21.6254C27.5678 21.8602 27.5484 22.1547 27.2898 22.1547ZM27.2898 22.2213C27.6295 22.2213 27.7374 21.9887 27.7374 21.6254C27.7374 21.2841 27.6335 21.0273 27.2898 21.0273C26.9508 21.0273 26.8421 21.2581 26.8421 21.6254C26.8419 21.9668 26.9346 22.2213 27.2898 22.2213ZM28.1735 21.2488C28.1735 21.1112 28.1541 21.107 28.0038 21.076V21.0465H28.3787L28.7221 22.0333H28.726L29.0657 21.0465H29.2739V22.2018H29.1236V21.1369H29.1195L28.7606 22.2018H28.6262L28.271 21.1369H28.2669V22.2018H28.1741V21.2488H28.1735ZM29.9067 21.2279C29.9067 21.1292 29.9146 21.1131 30.0537 21.1131C30.2083 21.1131 30.3008 21.1767 30.3008 21.3469C30.3008 21.5684 30.1421 21.5788 29.9837 21.5788H29.9067V21.2279ZM29.7604 22.202H29.9067V21.6455H29.9875C30.1965 21.6455 30.4708 21.6455 30.4708 21.3469C30.4708 21.0465 30.2116 21.0465 30.0038 21.0465H29.5867V21.076C29.733 21.0981 29.7604 21.1236 29.7604 21.2277V22.202ZM31.1574 21.2279L31.3547 21.7518H30.9606L31.1574 21.2279ZM30.6941 22.202H30.8022L30.9374 21.8196H31.3696L31.5163 22.202H31.6824L31.2381 21.0467H30.9411V21.0762C31.0299 21.0961 31.0763 21.1114 31.0763 21.157C31.0763 21.1842 31.0609 21.2179 31.0491 21.249L30.6941 22.202ZM32.0256 21.2488C32.0256 21.1112 31.9984 21.0996 31.8523 21.076V21.0465H32.1957L32.736 21.9842H32.7399V21.0465H32.8291V22.2018H32.6971L32.1187 21.1939H32.1146V22.2018H32.0258V21.2488H32.0256ZM33.5193 21.659L33.2731 21.2488C33.2032 21.1321 33.1839 21.0842 33.0678 21.076V21.0465H33.3228L33.6236 21.5496L33.9324 21.0465H34.0488L33.6664 21.659V22.202H33.5193V21.659Z" fill="#CC3E39"/>
<path fill-rule="evenodd" clip-rule="evenodd" d="M4.19758 20.1809C4.11671 20.2091 3.84993 20.2864 3.52202 20.2864C2.84685 20.2864 2.5882 19.9112 2.5882 19.2707C2.5882 18.7414 2.76966 18.2971 3.50287 18.2971C4.01631 18.2971 4.21673 18.4913 4.25581 18.7204H3.85806C3.84239 18.6266 3.77274 18.4322 3.47192 18.4322C3.02406 18.4322 2.95054 18.9048 2.95054 19.1988C2.95054 19.5196 2.98962 20.1521 3.6263 20.1521C3.91165 20.1521 4.11226 20.0521 4.19758 19.9974V20.1809ZM4.62203 18.7061C4.62203 18.4803 4.60268 18.4544 4.29025 18.426V18.363L4.9807 18.2971V19.1845H5.8799V18.329H6.24302V20.2549H5.88009V19.3194H4.98089V20.2549H4.62222L4.62203 18.7061ZM7.41673 18.6889L7.79475 19.525H7.06522L7.41673 18.6889ZM6.55584 20.2549H6.76033L7.00738 19.6594H7.84911L8.09558 20.2549H8.43955L7.6367 18.329H7.01531V18.3912C7.14628 18.4086 7.26971 18.4121 7.26971 18.5257C7.26971 18.546 7.2314 18.6467 7.21147 18.6949L6.55584 20.2549ZM10.2764 19.5132C10.2764 19.8977 10.2383 20.2864 9.49332 20.2864C8.91391 20.2864 8.7013 20.0489 8.7013 19.6223V18.7059C8.7013 18.466 8.69395 18.4635 8.37339 18.4258V18.3628L9.06462 18.2969V19.4792C9.06462 19.8057 9.06462 20.1517 9.5353 20.1517C10.0412 20.1517 10.0412 19.8339 10.0412 19.5451V18.329H10.2764V19.5132ZM11.2257 18.4637H10.9984C10.7398 18.4637 10.6626 18.5346 10.6434 18.7432H10.5508L10.5626 18.3292H12.2488L12.2642 18.7525H12.1714C12.1714 18.5315 12.0675 18.4637 11.8125 18.4637H11.5889V20.2551H11.2257V18.4637ZM13.0323 18.6889L13.4103 19.525H12.6807L13.0323 18.6889ZM12.1756 20.2549H12.3801L12.6272 19.6594H13.4646L13.7117 20.2549H14.0549L13.252 18.329H12.6306V18.3912C12.7624 18.4086 12.8856 18.4121 12.8856 18.5257C12.8856 18.546 12.8504 18.6467 12.8315 18.6949L12.1756 20.2549ZM15.8962 19.5132C15.8962 19.8977 15.8535 20.2864 15.1089 20.2864C14.53 20.2864 14.3176 20.0489 14.3176 19.6223V18.7059C14.3176 18.466 14.3101 18.4635 13.9895 18.4258V18.3628L14.68 18.2969V19.4792C14.68 19.8057 14.68 20.1517 15.1514 20.1517C15.6567 20.1517 15.6567 19.8339 15.6567 19.5451V18.329H15.8964L15.8962 19.5132ZM16.6948 19.2991C16.6948 18.9127 16.7337 18.432 17.2433 18.432C17.7447 18.432 17.7757 18.9239 17.7757 19.2991C17.7757 19.6656 17.7563 20.1519 17.2433 20.1519C16.7567 20.1519 16.6948 19.654 16.6948 19.2991ZM18.0463 20.4667C17.9846 20.4754 17.9264 20.484 17.8649 20.484C17.5832 20.484 17.4905 20.407 17.4251 20.2779C17.9693 20.2182 18.139 19.8523 18.139 19.2993C18.139 18.6838 17.9303 18.2971 17.2435 18.2971C16.5296 18.2971 16.3325 18.6838 16.3325 19.2993C16.3325 19.8115 16.4942 20.1749 16.9502 20.2551C17.0618 20.5334 17.251 20.6077 17.7567 20.6077C17.8533 20.6077 17.954 20.5934 18.0465 20.5736L18.0463 20.4667ZM20.1692 19.5132C20.1692 19.8977 20.1303 20.2864 19.3853 20.2864C18.8064 20.2864 18.5942 20.0489 18.5942 19.6223V18.7059C18.5942 18.466 18.5867 18.4635 18.2663 18.4258V18.3628L18.9567 18.2969V19.4792C18.9567 19.8057 18.9567 20.1517 19.428 20.1517C19.9331 20.1517 19.9331 19.8339 19.9331 19.5451V18.329H20.1693V19.5132H20.1692ZM21.2765 18.6889L21.6507 19.525H20.9256L21.2765 18.6889ZM20.4162 20.2549H20.6207L20.8677 19.6594H21.7089L21.9559 20.2549H22.2993L21.4926 18.329H20.8749V18.3912C21.0064 18.4086 21.1299 18.4121 21.1299 18.5257C21.1299 18.546 21.091 18.6467 21.0716 18.6949L20.4162 20.2549ZM24.3719 18.6889L24.7464 19.525H24.017L24.3719 18.6889ZM23.5112 20.2549H23.716L23.9631 19.6594H24.8046L25.0517 20.2549H25.391L24.5881 18.329H23.9708V18.3912C24.1024 18.4086 24.2213 18.4121 24.2213 18.5257C24.2213 18.546 24.1869 18.6467 24.1678 18.6949L23.5112 20.2549ZM25.7501 18.7061C25.7501 18.4662 25.7383 18.4637 25.4183 18.426V18.363L26.1089 18.2971V20.2549H25.7501V18.7061ZM27.058 18.7204C27.058 18.5149 27.058 18.4637 27.2788 18.4637C27.5566 18.4637 27.7609 18.5487 27.7609 18.858C27.7609 19.1791 27.4596 19.2309 27.2478 19.2309H27.0582L27.058 18.7204ZM26.6957 20.2549H27.058V19.3646H27.2633L27.8456 20.2549H28.2242L27.6185 19.3134C27.8804 19.2757 28.1236 19.1671 28.1236 18.8408C28.1236 18.3292 27.4405 18.3292 27.1933 18.3292H26.3831V18.3914C26.6918 18.4347 26.6955 18.4347 26.6955 18.7184V20.2549H26.6957ZM28.6057 18.7061C28.6057 18.4662 28.5985 18.4637 28.2782 18.426V18.363L28.9692 18.2971V19.9064C28.9692 20.12 28.9692 20.12 29.1888 20.12H29.4745C29.6831 20.12 29.8649 20.1088 29.8649 19.8397H29.9568L29.9458 20.2549H28.6059L28.6057 18.7061ZM30.3933 18.7061C30.3933 18.4662 30.3815 18.4637 30.0646 18.426V18.363L30.7556 18.2971V20.2549H30.3933V18.7061ZM31.3546 18.6951C31.3546 18.4291 31.3039 18.4403 31.022 18.3914V18.3292H31.7169L32.7552 19.8855H32.7591V18.3292H32.9676V20.2551H32.6552L31.5662 18.6266H31.5587V20.2551H31.3546V18.6951ZM33.5348 18.7184C33.5348 18.4345 33.5273 18.4345 33.2224 18.3914V18.3292H34.801L34.8128 18.7525H34.7202C34.7202 18.5234 34.5811 18.4637 34.3613 18.4637H34.1063C33.9446 18.4637 33.8982 18.4749 33.8982 18.6117V19.1819H34.2957C34.5269 19.1819 34.5466 19.0563 34.5696 18.9616H34.6584V19.5625H34.5696C34.5696 19.4077 34.4959 19.3163 34.2957 19.3163H33.8982V19.9543C33.8982 20.1148 33.9446 20.1198 34.1063 20.1198H34.4731C34.6582 20.1198 34.747 20.0635 34.7701 19.8395H34.8627L34.8509 20.2547H33.5348V18.7184ZM36.422 18.5605C36.3332 18.5236 36.0898 18.4322 35.8318 18.4322C35.658 18.4322 35.5147 18.5205 35.5147 18.7094C35.5147 19.1499 36.5882 19.1104 36.5882 19.7232C36.5882 20.1318 36.2133 20.2866 35.7581 20.2866C35.5075 20.2866 35.2526 20.2267 35.1829 20.2126V19.9804C35.2831 20.0318 35.5497 20.1521 35.812 20.1521C36.0206 20.1521 36.2251 20.0782 36.2251 19.8177C36.2251 19.353 35.1523 19.3963 35.1523 18.7927C35.1523 18.478 35.4302 18.2973 35.8933 18.2973C36.1208 18.2973 36.3369 18.3342 36.4218 18.3496V18.5605H36.422Z" fill="#324176"/>
</svg>
