<svg width="40" height="40" viewBox="0 0 40 40" fill="none" xmlns="http://www.w3.org/2000/svg">
<path d="M20.5134 5.22266C28.6027 5.22266 35.1602 11.7798 35.1602 19.8693C35.1602 27.9585 28.6027 34.5161 20.5134 34.5161C12.4245 34.5161 5.86719 27.9585 5.86719 19.8693C5.86719 11.7798 12.4244 5.22266 20.5134 5.22266Z" fill="#E31D1A"/>
<path fill-rule="evenodd" clip-rule="evenodd" d="M29.5143 21.1898C29.5143 21.1898 28.8931 19.8432 27.6588 19.1513C26.424 18.4595 24.7421 18.4052 24.7421 18.4052C24.7421 18.4052 20.738 20.4968 18.6599 22.5143C16.5823 24.5318 15.5582 26.7305 15.5582 26.7305C15.5582 26.7305 14.414 25.857 14.429 25.4359C14.444 25.0146 16.4154 22.5294 18.3127 21.0844C20.2103 19.6395 23.0714 18.4501 23.0714 18.4501C23.0714 18.4501 19.5923 18.6759 15.8438 20.7837C12.0954 22.8917 9.00867 26.4295 9.00867 26.4295C9.00867 26.4295 10.4234 23.5246 15.0005 20.6332C19.5773 17.7421 23.02 17.4298 25.5195 17.6807C29.4184 18.0717 29.5143 21.1898 29.5143 21.1898ZM24.6931 16.4834C24.9118 16.3541 24.5367 15.7724 24.0654 15.7496C23.5943 15.7269 22.9784 16.0014 22.9784 16.0014C22.9784 16.0014 24.4744 16.6123 24.6931 16.4834ZM28.1724 15.2908C28.4102 15.2016 28.1417 14.5632 27.6816 14.4594C27.2215 14.3552 26.5678 14.5187 26.5678 14.5187C26.5678 14.5187 27.9345 15.3802 28.1724 15.2908ZM27.6993 17.4765C27.6993 17.4765 27.434 16.8838 26.7097 16.4247C25.9855 15.9651 25.2836 15.7473 25.2836 15.7473L25.1674 14.8514C25.1674 14.8514 21.2481 13.7611 16.9318 14.9605C12.6156 16.1593 9.41355 18.7934 9.41355 18.7934C9.41355 18.7934 12.3504 15.3035 18.1395 13.4722C23.9287 11.6406 28.7352 13.1602 28.9382 13.4252C29.1407 13.6903 29.2118 14.4302 29.4836 14.4927C29.7557 14.555 30.7695 14.6486 31.3533 15.4666C31.9373 16.2842 31.6342 17.5077 31.6342 17.5077C31.6342 17.5077 30.6447 16.908 29.4993 16.986C28.3539 17.0639 27.6993 17.4765 27.6993 17.4765Z" fill="white"/>
</svg>
