<svg width="40" height="40" viewBox="0 0 40 40" fill="none" xmlns="http://www.w3.org/2000/svg">
<path d="M17.5 10.3008L22.5982 15.399L19.5641 26.078L15.6978 22.2848L13.3985 13.0985L17.5 10.3008Z" fill="#008FC5"/>
<path d="M26.0474 23.4531H31.7975L27.1976 27.6707L19.5637 26.0828L26.0474 23.4531Z" fill="#008FC5"/>
<path d="M27.1977 27.666L20.2973 29.556L12.2479 33.8004L19.5638 26.0781L27.1977 27.666Z" fill="#003568"/>
<path d="M15.6988 30.1523L8.7984 31.494L12.248 33.7947L15.6988 30.1523Z" fill="#62CAE3"/>
<path d="M26.0483 23.446H31.7984L28.8825 22.2969L26.0483 23.446Z" fill="#003568"/>
<path d="M30.7908 24.3768L31.7972 25.3846V23.4531L30.7908 24.3768Z" fill="#003568"/>
<path d="M26.0474 23.4524L22.5979 15.4023L19.5638 26.0821L26.0474 23.4524Z" fill="#62CAE3"/>
<path d="M13.3986 13.1001L14.5488 7.34957L9.94775 6.19922L13.3986 13.1001Z" fill="#003568"/>
<path d="M17.4999 10.2991L14.5487 7.34766L13.3984 13.097L17.4999 10.2991Z" fill="#62CAE3"/>
</svg>
