<svg width="40" height="40" viewBox="0 0 40 40" fill="none" xmlns="http://www.w3.org/2000/svg">
<path d="M36.2497 19.7442C36.2497 28.5978 29.0797 35.7667 20.2287 35.7667C11.3766 35.7667 4.198 28.5978 4.198 19.7442C4.198 10.8906 11.3766 3.71484 20.2287 3.71484C29.0798 3.71484 36.2497 10.8906 36.2497 19.7442Z" fill="#BED600"/>
<path d="M19.0609 11.3789C16.5366 11.3789 14.899 11.5184 13.7135 11.9585C11.7214 12.7345 10.3457 14.3609 10.3457 16.4983C10.3457 18.2785 11.1746 19.5678 13.5735 21.0506C16.1331 22.6023 16.6438 23.1151 16.6438 24.05C16.6438 25.0733 15.6412 26.2381 13.0614 26.2381C12.1611 26.2381 10.8049 26.1135 9.9383 25.9015L9.5248 25.7972C9.29413 26.4156 8.7705 27.8784 8.61084 28.4092L9.02027 28.5296C9.79979 28.7782 11.6497 28.9724 12.9752 28.9724C17.3844 28.9724 20.0151 26.3085 20.0151 23.5191C20.0151 21.805 19.2371 20.5023 16.6069 18.8612C15.2876 18.0497 14.6153 17.5234 14.207 17.116C13.876 16.6908 13.8394 16.3743 13.8394 16.0399C13.8394 15.7207 13.9104 15.3529 14.1208 15.0835C14.3484 14.7504 14.7659 14.5381 15.3309 14.363C15.9116 14.1703 16.9876 14.1652 18.6635 14.1652H20.2239L21.3381 11.379L19.0609 11.3789ZM30.8533 11.3789H23.0121L21.8978 14.165H24.4968C26.2457 14.165 26.5821 14.1273 27.0213 14.1273C26.3873 15.5777 22.5662 25.3147 22.5662 25.3147H25.8001C25.8001 25.3147 30.6377 13.1938 31.1504 11.923C31.2924 11.6394 31.2219 11.3789 30.8533 11.3789Z" fill="white"/>
</svg>
