<svg width="40" height="40" viewBox="0 0 40 40" fill="none" xmlns="http://www.w3.org/2000/svg">
<path d="M3 9L11.4692 30.6966H36.3746L12.2673 9H3Z" fill="white"/>
<path d="M11.9973 29.7144L26.6987 23.0173L31.4354 27.2598C32.8564 28.5169 34.2501 29.7986 34.2501 29.7986H12.0304L11.9973 29.7144Z" fill="#163683"/>
<path d="M6.58799 16.0887H18.882L11.9653 9.77637H4.14032L6.58799 16.0887Z" fill="#D92632"/>
<path d="M6.6839 16.3086L20.4546 17.5131L25.6211 22.0958L11.79 29.3577L21.4682 20.3769L6.6839 16.3086Z" fill="#008A43"/>
<path d="M6.76801 16.532L15.4586 22.0935L11.7036 29.1285L6.76801 16.532Z" fill="#231F20"/>
<path d="M7.57202 13.08C7.57202 12.594 7.76752 12.1279 8.11551 11.7843C8.4635 11.4406 8.93548 11.2476 9.42761 11.2476C9.91975 11.2476 10.3917 11.4406 10.7397 11.7843C11.0877 12.1279 11.2832 12.594 11.2832 13.08C11.2832 13.566 11.0877 14.032 10.7397 14.3757C10.3917 14.7193 9.91975 14.9124 9.42761 14.9124C8.93548 14.9124 8.4635 14.7193 8.11551 14.3757C7.76752 14.032 7.57202 13.566 7.57202 13.08Z" fill="url(#paint0_linear_21_793)"/>
<path d="M6.76798 16.5319L15.4586 22.0935L11.7036 29.1285L11.7912 29.3577L21.4682 20.3769L6.6839 16.3086L6.76798 16.5319Z" fill="url(#paint1_linear_21_793)"/>
<defs>
<linearGradient id="paint0_linear_21_793" x1="9.42761" y1="11.2476" x2="9.42761" y2="14.9124" gradientUnits="userSpaceOnUse">
<stop stop-color="#FFF2DA"/>
<stop offset="1" stop-color="#B09964"/>
</linearGradient>
<linearGradient id="paint1_linear_21_793" x1="20" y1="19.5" x2="11" y2="22" gradientUnits="userSpaceOnUse">
<stop stop-color="#FFF2DA"/>
<stop offset="1" stop-color="#B09964"/>
</linearGradient>
</defs>
</svg>
