<svg width="40" height="40" viewBox="0 0 40 40" fill="none" xmlns="http://www.w3.org/2000/svg">
<path d="M15.0413 21.0302C15.0413 21.0302 13.3955 14.1816 17.1523 13.0852C20.908 11.9899 21.4494 13.6731 21.4494 13.6731L21.5799 14.5868L22.573 14.1237L22.8069 15.4845C22.8069 15.4845 25.6784 14.9851 25.3379 16.2405C24.9962 17.498 20.0863 18.6989 19.3985 21.5273C19.3985 21.5273 26.819 16.5321 30.2705 17.5468C33.7243 18.5649 32.3385 20.0597 32.3385 20.0597L33.1069 20.6692L32.1989 21.5069L33.7777 24.2887C33.7777 24.2887 33.7209 27.1297 29.4931 28.5677L23.8113 25.7052C23.8113 25.7052 29.1537 29.8253 27.4932 32.8739C25.8339 35.9259 23.9657 34.6241 23.9657 34.6241L23.0679 33.1009L22.3358 34.3676L21.6923 33.9658C21.6923 33.9658 17.0763 35.4118 16.6336 35.2006C16.1921 34.9873 15.6428 30.874 17.133 28.8015C18.6233 26.7324 17.0366 29.0614 17.0366 29.0614C17.0366 29.0614 13.3933 30.9932 11.9019 34.0838C10.4082 37.1744 7.69334 33.5549 7.69334 33.5549L7.90331 32.4051L7.19621 32.4085L5.14983 31.7026C5.14983 31.7026 3.32249 26.4611 5.88189 23.9142C8.44016 21.3627 7.84202 22.5193 7.84202 22.5193L7.21891 21.172L8.44016 21.3627C8.44016 21.3627 9.70567 17.6183 10.5433 17.5037C11.3809 17.3913 14.1866 23.8189 16.5735 24.2956C18.9615 24.7711 15.2921 22.4693 15.0413 21.0302Z" fill="#F04923"/>
<path d="M30.4943 12.4351C30.2741 12.0515 29.5965 12.2126 28.9813 12.7915C28.8463 12.9163 28.7282 13.0548 28.6249 13.1967C28.6703 13.0162 28.6647 12.855 28.6 12.7404C28.4229 12.434 27.8815 12.5622 27.3901 13.0253C26.8975 13.4895 26.6421 14.116 26.818 14.4225C26.9951 14.7289 27.5376 14.6007 28.0291 14.1365C28.1187 14.0525 28.1948 13.9628 28.2674 13.8731C28.2243 14.0071 28.2016 14.1365 28.2027 14.2522C24.4084 19.8512 21.1646 22.8907 19.7516 24.0802C19.4043 23.4355 18.3385 21.4436 17.7551 20.2552C18.1274 21.9816 18.2069 25.4967 18.2069 25.4967L15.946 25.2776C15.946 25.2776 16.1866 26.3286 15.5828 26.0971C14.9778 25.8678 13.197 24.5251 12.928 24.9564C12.659 25.3855 15.0788 26.3059 13.7543 26.1482C12.4275 25.9915 9.99976 27.4568 9.99976 27.4568C13.9098 26.8394 14.7372 26.8337 14.7372 26.8337L17.0265 26.777C17.1195 27.5851 18.3555 27.7633 18.8334 27.8382C19.3112 27.912 19.1466 26.3877 19.7425 26.9858C20.3406 27.5874 21.2248 30.2387 21.2248 30.2387C21.3462 29.5657 20.8196 26.4626 20.8196 26.4626C20.8196 26.4626 21.3701 27.2582 21.7333 27.635C22.0953 28.013 22.7559 27.6793 22.7979 26.6555C22.8399 25.634 20.688 25.4808 21.6856 24.608C22.6821 23.7363 25.0418 25.3979 25.3993 24.9473C25.7557 24.4979 24.6752 23.1881 24.6752 23.1881C25.0055 23.0201 28.9983 21.5548 28.9983 21.5548C27.1665 21.5196 23.3654 22.8987 21.2895 23.7113C22.7162 21.4413 25.868 17.8944 28.0858 15.4951C28.062 15.6392 28.0745 15.7675 28.1301 15.8639C28.306 16.1692 28.8485 16.041 29.34 15.5779C29.8337 15.1148 30.0891 14.4872 29.9131 14.1807C29.8961 14.1512 29.8734 14.1308 29.8507 14.1103C30.4171 13.5372 30.7065 12.8028 30.4943 12.4351Z" fill="#FDB913"/>
<path d="M32.6744 6.97941C33.167 6.51519 33.4224 5.88867 33.2465 5.58108C33.0694 5.2735 32.528 5.40289 32.0366 5.86937C31.5428 6.33359 31.2886 6.95897 31.4645 7.26429C31.6393 7.57188 32.1818 7.44476 32.6744 6.97941Z" fill="#FDB913"/>
<path d="M29.265 10.2154C29.6589 9.84429 29.862 9.34489 29.7224 9.09859C29.5806 8.85343 29.147 8.95445 28.7532 9.32673C28.3593 9.69901 28.155 10.2007 28.2969 10.4447C28.4365 10.691 28.8712 10.5877 29.265 10.2154Z" fill="#FDB913"/>
<path d="M35.4733 4.95768C35.3314 4.71252 34.899 4.81467 34.5051 5.18581C34.1113 5.55923 33.9059 6.05976 34.0477 6.30492C34.1896 6.55235 34.6232 6.4468 35.017 6.07679C35.4097 5.70451 35.614 5.20511 35.4733 4.95768Z" fill="#FDB913"/>
<path d="M32.2966 11.8316C31.804 12.2969 31.5486 12.9223 31.7245 13.2288C31.9016 13.5352 32.443 13.4092 32.9344 12.9439C33.427 12.4797 33.6824 11.852 33.5065 11.5467C33.3305 11.2391 32.788 11.3662 32.2966 11.8316Z" fill="#FDB913"/>
<path d="M32.8187 8.55266C32.5985 8.1679 31.921 8.3302 31.3069 8.91132C30.6918 9.49244 30.3717 10.2722 30.5919 10.6581C30.8121 11.0406 31.4908 10.8817 32.1048 10.3006C32.7223 9.72058 33.04 8.93629 32.8187 8.55266Z" fill="#FDB913"/>
<path d="M17.7538 20.2375C17.6676 19.8403 17.5665 19.5372 17.4474 19.3931C17.2431 19.1445 17.4201 19.5588 17.7538 20.2375Z" fill="#FDB913"/>
</svg>
