<svg width="40" height="40" viewBox="0 0 40 40" fill="none" xmlns="http://www.w3.org/2000/svg">
<g clip-path="url(#clip0_124_2976)">
<path d="M29.3701 15.7063C29.0132 15.8942 28.236 16.5253 28.236 16.5253L22.1677 22.6735C22.1677 22.6735 20.7484 24.0683 19.7366 24.3813C18.7254 24.8123 17.2802 24.951 17.2802 24.951H-36.841V25.653H25.0613C25.0613 25.653 28.6462 26.1812 30.8849 23.1071C33.7266 20.3692 36.1577 16.9091 38.3964 16.2837C39.168 15.9494 41.1666 15.7084 41.1666 15.7084H52.0869V15.168H31.5118C31.5118 15.168 29.729 15.5164 29.3701 15.7063Z" fill="#240C82"/>
<path d="M15.8841 14.0898C15.8841 14.0898 14.018 14.1633 13.0956 14.5234C12.3382 14.7568 11.1823 15.6234 11.1823 15.6234L5.52881 21.3148C5.52881 21.3148 4.10305 22.6483 3.16311 23.0995C2.2252 23.5503 1.05129 23.5503 1.05129 23.5503H-36.8411V24.2527H8.17802C8.17802 24.2527 10.5615 24.2426 11.7651 23.6394C12.9687 23.0363 13.5956 22.2705 13.5956 22.2705C13.5956 22.2705 19.604 16.1455 20.53 15.7105C20.8076 15.556 21.8823 15.0278 22.0706 14.9923C22.4869 14.7847 25.2256 14.6322 25.2256 14.6322H52.0868V14.0898H15.8841Z" fill="#240C82"/>
<path d="M22.0706 15.0007C21.8823 15.0362 20.8076 15.5644 20.53 15.7189C19.604 16.1539 13.5956 22.2789 13.5956 22.2789C13.5956 22.2789 12.9687 23.0446 11.7651 23.6478C10.5615 24.251 8.17802 24.2611 8.17802 24.2611H-36.8411V24.9635H17.2801C17.2801 24.9635 18.7253 24.8248 19.7365 24.3938C20.7482 24.0808 22.1676 22.686 22.1676 22.686L28.2359 16.5378C28.2359 16.5378 29.0131 15.9068 29.37 15.7189C29.7289 15.5289 31.5117 15.1805 31.5117 15.1805H52.0868V14.6406H25.2256C25.2256 14.6406 22.4869 14.7931 22.0706 15.0007Z" fill="#EFE900"/>
</g>
<defs>
<clipPath id="clip0_124_2976">
<rect width="36" height="11.7391" fill="white" transform="translate(2 13.6289)"/>
</clipPath>
</defs>
</svg>
