<svg width="40" height="40" viewBox="0 0 40 40" fill="none" xmlns="http://www.w3.org/2000/svg">
<g clip-path="url(#clip0_21_857)">
<path d="M29.8503 21.7304C29.1317 22.449 28.1138 22.6286 27.6946 22.2095C27.2754 21.7903 27.515 20.7723 28.2335 20.0538C28.9521 19.3352 29.97 19.0957 30.3293 19.5148C30.8084 19.934 30.5688 21.0119 29.8503 21.7304Z" fill="#FCD20A"/>
<path d="M32.8443 21.6107C32.3054 22.2095 31.5869 22.3892 31.2875 22.0898C30.9282 21.7904 31.1078 21.0119 31.5869 20.473C32.1258 19.9341 32.8443 19.6347 33.1437 19.9341C33.503 20.2335 33.3234 21.0119 32.8443 21.6107Z" fill="#FCD800"/>
<path d="M20.5089 17.958C19.5508 17.7783 18.1735 18.0777 17.2753 18.9759C16.3172 19.934 15.5987 21.2514 15.958 22.3292C16.0777 22.7484 16.7364 23.2274 17.2753 23.2274C18.2933 23.2873 19.431 22.8083 20.2095 22.0897C21.0478 21.3113 21.5268 20.1735 21.5268 19.3951C21.5268 19.2155 21.5268 19.0957 21.467 18.916C21.3472 18.4969 20.928 18.0178 20.5089 17.958Z" fill="#F8A81B"/>
<path d="M25.8383 21.7904C24.8802 22.7485 23.4431 23.0479 22.8443 22.509C22.3054 21.97 22.6048 20.5928 23.6227 19.6347C24.5808 18.6766 25.9581 18.497 26.497 19.0359C27.0958 19.6347 26.7964 20.8922 25.8383 21.7904Z" fill="#F9BB16"/>
<path d="M32.2454 17.2388C31.6466 18.0771 30.6886 18.3765 30.2095 18.0771C29.7305 17.7178 29.7305 16.6999 30.3293 15.9214C30.9281 15.0831 31.8862 14.7238 32.3652 15.0232C32.8442 15.3226 32.8442 16.4005 32.2454 17.2388Z" fill="#FCD20A"/>
<path d="M34.5808 18.1379C34.1017 18.7966 33.3832 19.096 33.0239 18.8565C32.6047 18.5571 32.6646 17.7787 33.1437 17.12C33.6227 16.4613 34.3413 16.102 34.7604 16.3415C35.1197 16.5811 35.0598 17.4793 34.5808 18.1379Z" fill="#FCD800"/>
<path d="M24.4611 14.6643C23.2635 16.1014 21.4072 16.7002 20.6287 15.9816C19.7305 15.0834 19.6707 13.6463 21.0479 11.9696C22.485 10.1134 24.1018 10.0535 25 10.772C25.7784 11.3708 25.6587 13.2271 24.4611 14.6643Z" fill="#F9B517"/>
<path d="M29.0119 16.1017C28.1137 17.5987 26.7365 17.5987 26.1377 17.1197C25.5389 16.6406 25.7185 15.2035 26.5569 14.1855C27.4551 13.1676 28.8323 12.7484 29.3712 13.2873C29.8503 13.7664 29.6706 14.9041 29.0119 16.1017Z" fill="#FAC113"/>
<path d="M19.2514 7.23932C16.0777 5.92195 12.9041 10.1734 13.1436 12.6285C13.3233 14.4848 14.5209 15.2034 16.1975 14.9639H16.2574C17.9939 14.7243 19.4909 13.2872 20.1496 12.0297C20.3891 11.6106 20.5688 11.0717 20.6286 10.5327C20.6286 10.3531 20.6885 10.1136 20.6885 9.87405C20.6885 8.73632 20.2694 7.65848 19.2514 7.23932Z" fill="#F7A11C"/>
<path d="M12.6048 16.8201C11.8863 16.9399 11.1677 17.2393 10.5689 17.6584C9.55095 18.2572 8.71262 19.0357 8.23358 19.9938C7.63478 21.1315 7.69466 22.2093 8.23358 22.9279C8.4731 23.3471 8.7725 23.5267 9.13179 23.7063C9.31143 23.7662 9.49107 23.8261 9.67071 23.886C10.2096 24.0058 10.8084 24.0058 11.527 23.8261C13.503 23.2872 15.8384 21.1315 15.7785 19.0357C15.7785 17.0596 14.2815 16.4608 12.6048 16.8201Z" fill="#F7991D"/>
<path d="M32.2455 24.7842C31.7066 25.3231 30.988 25.5027 30.6287 25.2033C30.3293 24.9039 30.509 24.1255 31.0479 23.5866C31.5868 23.0477 32.3653 22.8081 32.6647 23.1674C33.0239 23.4668 32.7844 24.2453 32.2455 24.7842Z" fill="#FCD800"/>
<path d="M28.7724 25.8016C27.994 26.4603 27.0359 26.64 26.6766 26.2208C26.3173 25.8016 26.6167 24.9034 27.3353 24.2447C28.1137 23.5861 29.0119 23.4064 29.3712 23.8256C29.8502 24.2447 29.5508 25.1429 28.7724 25.8016Z" fill="#FCD20A"/>
<path d="M24.1616 27.2396C23.1437 28.1378 21.8862 28.3175 21.3473 27.7786C20.8083 27.1798 21.2275 25.9821 22.2455 25.1438C23.2634 24.2456 24.461 24.066 25 24.6049C25.5389 25.1438 25.1796 26.3414 24.1616 27.2396Z" fill="#F9BD15"/>
<path d="M18.473 25.2632C16.4371 24.6644 13.2036 27.2992 13.6826 29.3351C13.8024 29.8141 14.461 30.2333 14.9401 30.2932C16.976 30.4728 19.2515 28.3171 19.3712 26.7603C19.3712 26.5806 19.3712 26.401 19.3712 26.2213C19.2515 25.7423 18.8323 25.383 18.473 25.2632Z" fill="#F9A81A"/>
<path d="M12.9641 27.5386C12.6048 25.9817 10.6886 26.1015 9.49103 26.4608C9.01199 26.5805 8.53295 26.7602 8.11379 26.9997C7.4551 27.2991 6.91618 27.7182 6.43714 28.1374C5.83834 28.7362 4.82037 29.9937 5.00001 31.2512C5.17966 32.5685 6.8563 32.9278 8.35331 32.6284C10.1497 32.2093 13.5629 29.9338 12.9641 27.5386Z" fill="#F79A1D"/>
</g>
<defs>
<clipPath id="clip0_21_857">
<rect width="30" height="25.7485" fill="white" transform="translate(5 7)"/>
</clipPath>
</defs>
</svg>
