<svg width="40" height="40" viewBox="0 0 40 40" fill="none" xmlns="http://www.w3.org/2000/svg">
<g clip-path="url(#clip0_124_3000)">
<path fill-rule="evenodd" clip-rule="evenodd" d="M25.612 13.6641C24.184 13.6641 22.2278 13.6651 21.9636 13.6651C21.7797 13.6651 21.7039 13.7713 21.7039 13.7713L11.6515 26.2398C11.5929 26.3117 11.6054 26.3857 11.7066 26.3857C11.9373 26.3857 12.8655 26.3857 13.1947 26.3851C13.344 26.3851 13.3587 26.3452 13.3852 26.3062L15.525 23.5629C15.525 23.5629 15.5582 23.5129 15.6031 23.5129C15.6379 23.5129 19.1949 23.5125 19.1949 23.5125C19.1949 23.5125 19.25 23.5088 19.2392 23.5629C19.2279 23.6168 18.715 26.2527 18.715 26.2527C18.7084 26.2884 18.7185 26.3851 18.8433 26.3851C19.3125 26.3851 22.6903 26.3843 23.1838 26.3843C23.2465 26.3843 23.2684 26.3634 23.2805 26.3029L25.726 13.7951C25.7256 13.7951 25.7694 13.6641 25.612 13.6641ZM19.4624 22.2152H16.6375C16.6375 22.2152 16.6195 22.2193 16.6074 22.2021C16.5961 22.1855 16.6174 22.1599 16.6174 22.1599L20.3726 17.3438C20.3726 17.3438 20.4009 17.3063 20.4306 17.3063C20.4603 17.3063 20.4499 17.3479 20.4499 17.3479L19.5083 22.1771C19.5083 22.1771 19.5054 22.1974 19.4962 22.2064C19.4874 22.2152 19.4624 22.2152 19.4624 22.2152Z" fill="#2B3087"/>
<path fill-rule="evenodd" clip-rule="evenodd" d="M1.94233 24.7898C1.90666 24.9387 1.98763 25.0647 2.25741 25.2874C2.76581 25.7066 4.27482 26.6164 6.66901 26.6158C10.9795 26.6149 12.5427 23.8286 11.9961 21.4674C11.8498 20.8358 11.0423 17.5685 10.9254 17.1085C10.5857 15.7711 11.2358 14.8076 12.5121 14.8065C13.6033 14.8057 14.2846 15.2196 14.8809 15.5935C14.993 15.6651 15.0754 15.704 15.1052 15.5728C15.1228 15.497 15.3188 14.4802 15.3188 14.4802C15.3188 14.4802 15.3766 14.2832 15.1199 14.1491C14.7235 13.9425 13.7374 13.3836 11.6581 13.3828C7.79241 13.3808 6.14708 15.8621 6.8203 18.5521C7.03555 19.4127 7.89758 22.6347 7.90086 23.2554C7.90127 23.4938 8.02693 25.1387 6.04561 25.1387C4.20573 25.1387 2.93904 23.8819 2.51141 23.4471C2.44089 23.3745 2.34659 23.4145 2.30251 23.5727C2.27976 23.6547 1.94233 24.7898 1.94233 24.7898Z" fill="#2B3087"/>
<path fill-rule="evenodd" clip-rule="evenodd" d="M24.8026 24.8507C24.7671 24.9997 24.8479 25.1262 25.118 25.3491C25.6267 25.7677 27.0159 26.6086 29.4105 26.6075C33.7211 26.6069 35.284 23.8208 34.7368 21.4586C34.5915 20.8278 33.7832 17.5607 33.6665 17.1003C33.3277 15.7624 33.9775 14.7991 35.2528 14.7981C36.3445 14.7979 37.0257 15.2116 37.6214 15.5857C37.7344 15.6571 37.8166 15.6952 37.8463 15.5646C37.8635 15.4886 38.0597 14.4722 38.0597 14.4722C38.0597 14.4722 38.1185 14.2758 37.8611 14.1411C37.465 13.9338 36.4777 13.3758 34.4002 13.375C30.5339 13.3725 28.8886 15.8543 29.5616 18.5441C29.7771 19.4047 30.6393 22.626 30.6424 23.248C30.643 23.4858 30.7691 25.1301 28.7871 25.1301C26.9464 25.1305 25.7324 23.9177 25.3017 23.4868C25.206 23.3919 25.0633 23.427 25.0438 23.5653C25.0321 23.6482 24.8026 24.8507 24.8026 24.8507Z" fill="#2B3087"/>
</g>
<defs>
<clipPath id="clip0_124_3000">
<rect width="40" height="40" fill="white"/>
</clipPath>
</defs>
</svg>
