<svg width="40" height="40" viewBox="0 0 40 40" fill="none" xmlns="http://www.w3.org/2000/svg">
<g clip-path="url(#clip0_7_217)">
<path d="M8.83805 32.6716C9.98748 32.6716 10.861 31.7595 10.861 30.6651C10.861 29.525 9.9415 28.6586 8.83805 28.6586C7.68863 28.6586 6.81506 29.5706 6.81506 30.6651C6.81506 31.7595 7.7346 32.6716 8.83805 32.6716Z" fill="#E5002B"/>
<path d="M30.6312 32.626C31.7347 32.626 32.6083 31.7596 32.6083 30.6651C32.6083 29.5707 31.7347 28.7042 30.6312 28.7042C29.5278 28.7042 28.6542 29.5707 28.6542 30.6651C28.6542 31.7596 29.5278 32.626 30.6312 32.626Z" fill="#E5002B"/>
<path d="M19.7346 33.9942C21.5737 33.9942 23.0909 32.4893 23.0909 30.6652C23.0909 28.8411 21.5737 27.3362 19.7346 27.3362C17.8955 27.3362 16.3783 28.8411 16.3783 30.6652C16.3783 32.4893 17.8955 33.9942 19.7346 33.9942Z" fill="#E5002B"/>
<path d="M8.83806 22.6846C10.4013 22.6846 11.6886 21.4078 11.6886 19.8573C11.6886 18.3068 10.4013 17.0299 8.83806 17.0299C7.27484 17.0299 5.98749 18.3068 5.98749 19.8573C5.98749 21.4078 7.27484 22.6846 8.83806 22.6846Z" fill="#E5002B"/>
<path d="M30.6312 23.1406C32.4703 23.1406 33.9875 21.6358 33.9875 19.8117C33.9875 17.9876 32.4703 16.4827 30.6312 16.4827C28.7921 16.4827 27.2749 17.9876 27.2749 19.8117C27.3209 21.6814 28.7921 23.1406 30.6312 23.1406Z" fill="#E5002B"/>
<path d="M19.7347 23.6879C21.8496 23.6879 23.5968 21.955 23.5968 19.8573C23.5968 17.7596 21.8496 16.0267 19.7347 16.0267C17.6197 16.0267 15.8726 17.7596 15.8726 19.8573C15.9186 21.955 17.6197 23.6879 19.7347 23.6879Z" fill="#E5002B"/>
<path d="M30.6312 12.0593C32.3324 12.0593 33.7117 10.6912 33.7117 9.00392C33.7117 7.31663 32.3324 5.94855 30.6312 5.94855C28.9301 5.94855 27.5508 7.31663 27.5508 9.00392C27.5968 10.7368 28.9761 12.0593 30.6312 12.0593Z" fill="#E5002B"/>
<path d="M19.7347 11.2384C20.976 11.2384 21.9416 10.2351 21.9416 9.04946C21.9416 7.86379 20.9301 6.86053 19.7347 6.86053C18.4933 6.86053 17.5278 7.86379 17.5278 9.04946C17.5278 10.2351 18.5393 11.2384 19.7347 11.2384Z" fill="#E5002B"/>
<path d="M8.8381 11.0104C9.94155 11.0104 10.8151 10.1439 10.8151 9.04947C10.8151 7.95501 9.94155 7.08856 8.8381 7.08856C7.73465 7.08856 6.86108 7.95501 6.86108 9.04947C6.86108 10.1439 7.73465 11.0104 8.8381 11.0104Z" fill="#E5002B"/>
</g>
<defs>
<clipPath id="clip0_7_217">
<rect width="28" height="28" fill="white" transform="translate(6 6)"/>
</clipPath>
</defs>
</svg>
