<svg width="40" height="40" viewBox="0 0 40 40" fill="none" xmlns="http://www.w3.org/2000/svg">
<g clip-path="url(#clip0_21_789)">
<path fill-rule="evenodd" clip-rule="evenodd" d="M17.2225 32.4053H14.9786L19.4664 25.5088C19.4664 25.5088 20.1677 24.0749 19.2561 22.5727L13.0152 12.6035C13.0152 12.6035 12.4542 11.6476 13.0152 10.7599L14.8384 8.09692L22.1311 19.7048C22.1311 19.7048 24.0244 22.163 21.9908 25.1674L17.2225 32.4053ZM22.5518 30.2885L25.2866 26.2599C25.2866 26.2599 26.0579 24.6211 28.1616 24.6211H31.0366L33.0701 27.6938C33.0701 27.6938 31.4573 27.5573 30.7561 28.6498L27.811 33.0198C27.811 33.0198 26.8292 35.0683 24.2347 35.0683H10.2103L15.5396 27.1476C15.5396 27.1476 16.311 26.1916 15.2591 24.6894L10.4908 17.2467C10.4908 17.2467 9.29876 16.1542 10.561 14.3106L11.9634 12.2621L18.5549 22.641C18.5549 22.641 19.7469 24.0749 18.5549 25.7819L13.6463 33.293H24.0244C24.0244 33.293 25.2164 33.4978 26.1981 32.0639L28.7927 28.1718C28.7927 28.1718 29.3536 26.8744 30.686 26.3282H28.5823C28.5823 26.3282 27.4603 26.3965 26.689 27.6255L24.375 31.1079C24.375 31.1079 23.5335 32.5418 21.7103 32.5418H18.064L22.4817 25.9185C22.4817 25.9185 24.8658 22.8458 23.1829 20.0463L15.8201 8.30176C15.8201 8.30176 15.2591 7.27753 15.8902 6.32159L17.503 4L25.7774 16.9736C25.7774 16.9736 26.9695 18.8855 26.9695 20.3877C26.9695 21.8899 25.9878 23.5969 25.4969 24.4846L21.8506 30.0154C21.8506 30.0154 21.4299 30.5617 21.7103 30.7665C21.9908 30.9714 22.2713 30.63 22.5518 30.2885Z" fill="#F99F1C"/>
</g>
<defs>
<clipPath id="clip0_21_789">
<rect width="23" height="31" fill="white" transform="translate(10 4)"/>
</clipPath>
</defs>
</svg>
