<svg width="40" height="40" viewBox="0 0 40 40" fill="none" xmlns="http://www.w3.org/2000/svg">
<path d="M35.5839 11.4832C33.8871 13.9214 32.7128 14.2717 31.2544 14.4479L30.6678 14.5039L28.6828 14.619L26.3953 14.7921C25.4604 14.9113 24.7586 15.0824 24.1689 15.4328C24.9358 14.4479 26.104 12.9956 27.098 12.2959C28.1532 11.6013 29.3804 11.5402 30.1392 11.4251L30.6067 11.3681H30.6678L31.3125 11.311C33.1274 11.0758 35.1745 10.7285 37.1646 9.21707C36.4608 10.263 35.5839 11.4832 35.5839 11.4832ZM21.9528 17.8129C21.9528 17.8129 21.3101 18.7428 21.1879 18.8609C19.1418 19.1502 17.0366 19.7918 14.8704 20.7766C12.1215 22.1108 9.31361 23.9716 6.38654 26.5269C8.43569 24.2028 11.1255 21.3562 14.8704 19.1502C17.2128 17.7569 20.0177 16.5918 23.3542 15.9573C23.1199 16.1874 21.9528 17.8129 21.9528 17.8129ZM38.0374 8C35.8161 10.3211 33.4207 10.6124 31.2544 10.9026L30.1891 11.0442C29.027 11.1715 28.035 11.2509 26.9249 12.0087C25.8148 12.7012 24.5234 14.2717 23.6454 15.4328C20.1939 16.0713 17.3259 17.2324 14.8704 18.6297C10.5409 21.1861 7.55676 24.5531 5.33447 27.0514L3.17023 29.7218L3.57659 29.6037C7.55675 25.7131 11.2996 22.9246 14.8704 21.2441C17.0926 20.1401 19.2579 19.4975 21.3631 19.2683H21.4242L23.7045 16.1294C24.2891 15.5499 25.167 15.3156 26.4544 15.2026L28.7418 15.0274L30.6678 14.9113L31.3125 14.8522C32.832 14.619 34.1193 14.2717 35.9343 11.7154L38.3327 8.23017L38.0374 8Z" fill="#231F20"/>
<path d="M3.4065 29.4886L2 31C9.13842 25.54 13.2316 25.0766 19.1418 25.1306C19.6693 25.1917 20.1928 25.1917 20.5462 24.494L22.3011 21.9397V21.9387C14.0515 22.0548 10.3636 24.1457 3.4065 29.4886Z" fill="url(#paint0_linear_1_9877)"/>
<path d="M3.77924 29.0516C3.77822 29.0628 3.77517 29.074 3.77313 29.0842C10.5694 22.5976 16.343 19.6695 21.3447 19.0412C21.8101 18.4616 23.3541 16.3046 23.8206 15.6059C12.5197 17.5695 7.33266 25.3821 3.77924 29.0516Z" fill="url(#paint1_linear_1_9877)"/>
<path d="M3.75382 29.0842C3.66216 29.1738 3.43504 29.4519 3.21811 29.6648C3.15089 29.7279 3.03173 29.8858 3.0246 29.8949C4.33944 28.8082 7.0129 26.6949 9.45925 25.3007C11.8944 23.9176 14.8653 22.7718 19.0838 22.1689C19.4932 21.7044 20.7561 19.9476 21.3447 19.0198C13.5606 20.1819 8.43571 24.7252 3.75382 29.0842Z" fill="url(#paint2_linear_1_9877)"/>
<path d="M18.6132 22.7524C18.38 23.3879 18.7313 23.0997 19.7854 23.7413C20.6063 24.2587 20.4291 24.494 20.368 24.7832C21.1288 23.5651 22.5913 21.8786 22.5913 21.8786C22.2257 21.7492 21.8336 21.6953 21.4425 21.6953C20.0869 21.6953 18.7517 22.346 18.6132 22.7524Z" fill="url(#paint3_linear_1_9877)"/>
<path d="M26.5154 14.8522C24.8746 15.0273 23.8806 15.4887 23.2379 16.3045L21.0432 19.4628C21.5677 18.9984 23.0006 18.7427 24.5843 18.7427H24.9907C25.225 18.7427 25.4602 18.6857 25.6914 18.6857C27.9748 18.6297 31.075 18.2793 32.949 16.0153L35.6714 12.0881L35.9718 11.6461C33.5733 14.8981 28.2121 14.5609 26.5154 14.8522Z" fill="url(#paint4_linear_1_9877)"/>
<path d="M30.6066 11.1918C29.9069 11.311 28.3283 11.2509 27.0369 12.1237C25.6915 12.9955 24.0619 15.1201 23.2981 16.2241C24.0049 15.4113 25.0519 15.1434 26.4543 14.9662C27.8639 14.7921 29.8509 14.8522 31.3114 14.6179C32.7128 14.4478 34.0032 14.1556 35.758 11.6013L38.2156 8.11607C35.701 10.7284 32.9491 10.8425 30.6066 11.1918Z" fill="url(#paint5_linear_1_9877)"/>
<path d="M27.8007 18.3354C26.104 18.5696 24.1679 18.6297 23.5884 18.6857C22.6544 18.6857 21.363 19.033 21.0147 19.4984C19.9025 20.8917 18.9116 22.1689 18.6132 22.7514C19.2589 22.1108 21.4241 22.1688 24.0589 22.0548C26.6886 21.9387 29.3213 20.7175 31.4295 18.2202L33.0234 15.8859C31.9714 17.3382 30.0831 17.987 27.8007 18.3354Z" fill="url(#paint6_linear_1_9877)"/>
<defs>
<linearGradient id="paint0_linear_1_9877" x1="6.8428" y1="21.2288" x2="15.3436" y2="29.6213" gradientUnits="userSpaceOnUse">
<stop stop-color="#C4161D"/>
<stop offset="0.300003" stop-color="#ED1C24"/>
<stop offset="0.331066" stop-color="#ED1C24"/>
<stop offset="0.529175" stop-color="#F79AAA"/>
<stop offset="0.651645" stop-color="#ED1C24"/>
<stop offset="0.747455" stop-color="#ED1C24"/>
<stop offset="1" stop-color="#C4161D"/>
</linearGradient>
<linearGradient id="paint1_linear_1_9877" x1="3.60305" y1="14.9398" x2="24.1077" y2="29.8374" gradientUnits="userSpaceOnUse">
<stop stop-color="white"/>
<stop offset="0.34" stop-color="white"/>
<stop offset="0.54" stop-color="white"/>
<stop offset="0.91" stop-color="#CBD3EF"/>
<stop offset="1" stop-color="#CBD3EF"/>
</linearGradient>
<linearGradient id="paint2_linear_1_9877" x1="7.17484" y1="19.5117" x2="18.5289" y2="30.7201" gradientUnits="userSpaceOnUse">
<stop stop-color="#1C4E9D"/>
<stop offset="0.12958" stop-color="#1C4E9D"/>
<stop offset="0.400056" stop-color="#8093D2"/>
<stop offset="0.462249" stop-color="#8093D2"/>
<stop offset="0.607704" stop-color="#1C4E9D"/>
<stop offset="0.6371" stop-color="#1C4E9D"/>
<stop offset="0.916614" stop-color="#1C4E9D"/>
<stop offset="1" stop-color="#1C4E9D"/>
</linearGradient>
<linearGradient id="paint3_linear_1_9877" x1="18.4122" y1="21.3395" x2="23.004" y2="24.3215" gradientUnits="userSpaceOnUse">
<stop stop-color="#C4161D"/>
<stop offset="0.450781" stop-color="#ED1C24"/>
<stop offset="1" stop-color="#F79AAA"/>
</linearGradient>
<linearGradient id="paint4_linear_1_9877" x1="22.3081" y1="10.3995" x2="35.1003" y2="21.0349" gradientUnits="userSpaceOnUse">
<stop stop-color="#CBD8F1"/>
<stop offset="0.0730286" stop-color="#CBD8F1"/>
<stop offset="0.104863" stop-color="#CBD8F1"/>
<stop offset="0.370789" stop-color="#1C4E9D"/>
<stop offset="0.536455" stop-color="#1C4E9D"/>
<stop offset="0.949432" stop-color="#CBD8F1"/>
<stop offset="1" stop-color="#CBD8F1"/>
</linearGradient>
<linearGradient id="paint5_linear_1_9877" x1="25.0101" y1="7.39195" x2="36.9743" y2="17.3389" gradientUnits="userSpaceOnUse">
<stop stop-color="white"/>
<stop offset="0.174164" stop-color="white"/>
<stop offset="0.251152" stop-color="white"/>
<stop offset="0.386503" stop-color="#DDE1F4"/>
<stop offset="0.559722" stop-color="white"/>
<stop offset="0.699997" stop-color="white"/>
<stop offset="1" stop-color="white"/>
</linearGradient>
<linearGradient id="paint6_linear_1_9877" x1="20.2784" y1="14.7116" x2="31.071" y2="23.6846" gradientUnits="userSpaceOnUse">
<stop stop-color="#F79AAA"/>
<stop offset="0.0561829" stop-color="#F79AAA"/>
<stop offset="0.214115" stop-color="#ED1C24"/>
<stop offset="0.276074" stop-color="#ED1C24"/>
<stop offset="0.470473" stop-color="#C4161D"/>
<stop offset="0.516861" stop-color="#C4161D"/>
<stop offset="0.550582" stop-color="#C4161D"/>
<stop offset="0.6919" stop-color="#ED1C24"/>
<stop offset="0.891412" stop-color="#F78F9B"/>
<stop offset="1" stop-color="#F79AAA"/>
</linearGradient>
</defs>
</svg>
