<svg width="40" height="40" viewBox="0 0 40 40" fill="none" xmlns="http://www.w3.org/2000/svg">
<path d="M14.5572 4.06046C16.9058 3.91878 19.3015 4.4822 21.3157 5.70529C23.1316 6.79002 24.6488 8.36056 25.6883 10.2009C27.1286 12.7263 27.631 15.7571 27.1406 18.6186C28.3025 18.1846 29.4574 17.7282 30.584 17.2107C31.1895 16.9204 31.8101 16.6633 32.4228 16.3909C33.0345 16.1101 33.6505 15.8163 34.3196 15.7029C35.026 15.571 35.8013 15.6292 36.4253 16.0118C36.7372 16.2079 36.9997 16.4703 37.2506 16.7369C36.7388 16.7203 36.2282 16.6475 35.7145 16.673C35.0135 16.7057 34.3066 16.7606 33.6281 16.9498C33.203 17.0659 32.8055 17.2612 32.4047 17.4392C31.5163 17.8489 30.6427 18.2908 29.7477 18.6873C28.751 19.1374 27.7263 19.5346 26.7868 20.0993C26.4238 21.3454 25.8514 22.5263 25.1236 23.5985C26.0212 23.6006 26.9185 23.6006 27.8156 23.6013C27.6494 27.7513 27.4633 31.9003 27.2798 36.0488C26.1259 36.0513 24.9714 36.0467 23.8175 36.0467C23.9232 35.1629 24.0355 34.2791 24.1193 33.3932C23.1165 33.3932 22.1132 33.3963 21.1094 33.3953C20.7073 34.2781 20.2984 35.1568 19.9057 36.0426C18.7398 36.0534 17.5719 36.0467 16.4055 36.0467C18.0863 33.0619 19.7919 30.0888 21.4707 27.1019C20.2185 27.8626 18.8307 28.3993 17.3888 28.6637C15.2661 29.0548 13.0389 28.8373 11.028 28.0541C9.12434 27.3184 7.431 26.07 6.13005 24.4995C4.34991 22.3647 3.33029 19.6193 3.25778 16.8431C3.19958 15.1268 3.49622 13.3961 4.12398 11.7973C4.98763 9.58161 6.50124 7.62099 8.43991 6.24115C10.2228 4.96061 12.3655 4.1853 14.5572 4.06046ZM8.83433 6.57404C6.9725 7.85968 5.51531 9.70696 4.65422 11.7962C3.83959 13.7515 3.58455 15.9225 3.84214 18.021C4.11045 20.1143 4.93325 22.1373 6.21965 23.813C7.57116 25.586 9.43962 26.9645 11.545 27.7074C13.2761 28.3242 15.1584 28.4794 16.9747 28.219C18.7467 27.9494 20.4495 27.2489 21.9023 26.2002C22.032 26.1134 22.1247 25.9847 22.199 25.8499C22.6192 25.0984 23.0443 24.3529 23.4708 23.6054C23.8201 23.6024 24.1693 23.6085 24.5188 23.6013C25.1785 22.6637 25.7401 21.6512 26.1133 20.5647C24.974 21.316 23.8328 22.1408 22.4839 22.4645C21.2164 22.7313 19.9152 22.7165 18.6275 22.7694C17.1749 22.8222 15.7246 23.0058 14.3151 23.3624C13.4002 23.5819 12.5067 23.8829 11.5927 24.1099C11.1049 24.225 10.5402 24.2439 10.1177 23.9363C9.97139 23.838 9.88714 23.5799 10.0523 23.4612C10.3462 23.2526 10.7082 23.1788 11.0541 23.1061C12.1585 22.897 13.2651 22.6994 14.368 22.4839C15.3963 22.2789 16.4315 22.1043 17.4521 21.8628C18.5055 21.6124 19.5544 21.2491 20.4395 20.6091C18.3916 19.9974 16.384 19.2407 14.4714 18.2849C13.1763 17.6467 12.0234 16.7412 11.0464 15.6825C10.0332 14.6289 9.30789 13.3474 8.63648 12.0607C8.01332 10.9048 7.4938 9.69292 7.11368 8.43485C8.83484 9.52928 10.5266 10.6778 12.341 11.6152C13.3598 12.121 14.4305 12.5282 15.5385 12.787C14.188 11.8256 13.0775 10.4961 12.4837 8.94007C14.2988 9.71232 16.1068 10.5017 17.9173 11.2844C18.0523 11.3293 18.1108 11.4651 18.1695 11.5823C18.6686 12.6494 19.3609 13.6236 20.1812 14.4689C21.5465 15.9176 23.0642 17.2275 24.7205 18.3337C25.2658 18.7138 25.9512 18.9403 26.6147 18.7792C27.1 16.1745 26.7564 13.4092 25.5696 11.0329C24.5469 8.96815 22.9135 7.20461 20.9154 6.05453C19.1215 5.01499 17.037 4.48807 14.9649 4.55292C12.7811 4.60474 10.6224 5.32363 8.83433 6.57404ZM22.43 30.9884C23.0831 30.9915 23.7356 30.9915 24.3881 30.9915C24.6082 29.2361 24.8377 27.4807 25.0243 25.7213C24.1816 27.4869 23.2881 29.229 22.43 30.9884Z" fill="#00477F"/>
</svg>
