<svg width="40" height="40" viewBox="0 0 40 40" fill="none" xmlns="http://www.w3.org/2000/svg">
<path d="M25.5912 20.9343C25.3151 20.4678 24.9526 20.0584 24.5229 19.728L23.7961 19.2047L35.285 19.1392L32.5019 16.9592C31.9501 14.5803 30.7677 12.3939 29.0792 10.6299L25.2353 15.7165L25.0897 13.6236L30.2126 8.18107L26.6374 8.65326C24.5906 7.34697 22.2131 6.65358 19.7849 6.65507L20.6641 12.7735L19.0508 12.8606V4.14062L16.9289 6.94566C14.5241 7.49833 12.3295 8.73203 10.607 10.499L15.1994 14.234C14.7681 14.5693 14.3907 14.9686 14.0803 15.4185L8.31796 9.27085L8.69584 12.9696C7.40083 15.1187 6.7198 17.5819 6.72661 20.091L13.5138 19.19C13.8408 19.7736 14.244 20.3113 14.7128 20.7886L14.8218 20.9049L4.28497 20.9558L7.05361 23.1358C7.6216 25.6896 8.91342 28.0256 10.7743 29.8646L13.6809 25.8388V27.0523L14.5529 27.1758L9.64789 32.2189L13.1868 31.7393C15.1864 32.9538 17.4816 33.5948 19.8213 33.5923H20.2064L19.4798 28.2368L21.0858 28.0697V36.0047L23.2147 33.1416C26.4922 32.4659 29.2753 29.4286 29.2753 29.4286L24.9879 25.9842C25.3545 25.5833 25.6425 25.1175 25.838 24.6109L31.7459 30.6567L31.2154 26.6237L31.2735 26.5439C32.3175 24.5638 32.8614 22.3585 32.8574 20.1202V19.982L25.5912 20.9343ZM29.8567 15.7968L24.9954 18.747C25.1786 18.5622 25.3026 18.3268 25.3513 18.0711V17.6715C25.3513 17.4318 25.2859 17.1482 25.2642 16.8212L29.8567 15.7968ZM23.3604 13.326C23.0476 13.2679 22.757 13.188 22.4739 13.1152C22.3138 13.0716 22.1396 13.0354 21.9649 12.999L24.1449 9.85971L23.3604 13.326ZM17.7941 13.0135L16.428 13.4639L15.5633 9.64171L17.7941 13.0135ZM9.67003 15.7531L13.4995 16.676C13.3839 17.0801 13.3251 17.4982 13.3251 17.9185C13.3188 18.037 13.3188 18.156 13.3251 18.2746L9.67003 15.7531ZM9.62639 24.553L13.7103 21.8788C13.7103 21.8788 13.6157 22.3366 13.6157 22.4094C13.6157 22.4822 13.6666 23.2232 13.6739 23.6301L9.62639 24.553ZM15.6723 30.6425L16.2245 27.5905L17.2853 27.9611L15.6723 30.6425ZM22.1467 27.7359L22.3721 27.6269C22.6915 27.5049 23.0021 27.3616 23.3022 27.1981L24.0288 30.5409L22.1467 27.7359ZM29.9003 24.4731L26.0562 23.6957C26.1005 23.4217 26.1226 23.1447 26.1217 22.8673C26.1209 22.6235 26.0994 22.3804 26.0562 22.1405V22.0025L29.9003 24.4731ZM21.471 19.2264C22.3051 19.6303 23.0962 20.1174 23.8328 20.6798C24.5376 21.1801 24.9506 21.9957 24.9372 22.8598C24.9621 24.0618 24.3409 25.185 23.3095 25.8028C22.0969 26.5961 20.6745 27.0086 19.2256 26.9874C18.5241 27.0001 17.8271 26.8715 17.1763 26.6095C16.4389 26.3287 15.6776 26.1147 14.9018 25.97V24.2696C14.9018 23.5575 14.9018 22.9399 14.8437 22.4021C14.8809 22.3374 14.9508 22.2985 15.0255 22.3004C15.1279 22.2761 15.2326 22.2614 15.338 22.2567C15.4359 22.2569 15.5337 22.2693 15.6286 22.2929C15.6969 22.2999 15.757 22.341 15.7885 22.4019C15.9831 23.4189 16.5189 24.3392 17.3072 25.0107C17.828 25.5374 18.502 25.8859 19.2328 26.0061C19.8634 26.1156 20.5108 25.9519 21.0132 25.5557C21.3758 25.2561 21.5772 24.8046 21.5585 24.335C21.4925 23.6403 21.0479 23.0389 20.4029 22.7726C19.6761 22.3366 18.8696 21.915 18.0194 21.5082C17.1678 21.1116 16.3614 20.6243 15.6141 20.0548C14.9271 19.582 14.5148 18.8032 14.5097 17.9693C14.5171 16.8549 15.0781 15.8172 16.0065 15.2007C17.2189 14.3811 18.6651 13.9781 20.1268 14.0526C20.8074 14.0404 21.4867 14.1188 22.1467 14.2851C22.7466 14.4532 23.3555 14.5867 23.9707 14.6846C23.9707 15.106 24.0141 15.6437 24.0505 16.2832C24.0869 16.9226 24.1304 17.4458 24.1885 17.8674C24.1485 17.9282 24.0795 17.9638 24.0067 17.9619C23.9143 17.9874 23.8191 18.0019 23.7233 18.0055C23.6267 18.0168 23.5294 18.0168 23.4327 18.0055C23.3576 17.9959 23.2897 17.9568 23.2437 17.8965C23.0346 17.0803 22.622 16.3303 22.0447 15.7165C21.5297 15.2005 20.8261 14.9169 20.0974 14.9316C19.5381 14.9005 18.9842 15.0536 18.5205 15.3676C18.1588 15.622 17.9444 16.0371 17.9466 16.4793C18.0023 17.1265 18.4062 17.6917 19.0002 17.9544C19.7267 18.3685 20.5261 18.7973 21.4199 19.226" fill="#F58233"/>
<path d="M21.4492 19.2256C22.2831 19.6294 23.0744 20.1165 23.8108 20.679C24.5148 21.1801 24.9276 21.9951 24.9154 22.859C24.9401 24.061 24.3189 25.1842 23.2877 25.802C22.0751 26.5952 20.6527 27.0078 19.2036 26.9865C18.5023 26.9993 17.8053 26.8707 17.1545 26.6086C16.4171 26.3278 15.6558 26.1139 14.88 25.9691V24.2687C14.88 23.5566 14.88 22.939 14.8219 22.4013C14.8591 22.3365 14.9288 22.2976 15.0035 22.2995C15.1061 22.2752 15.2106 22.2605 15.316 22.2559C15.4139 22.2561 15.5117 22.2684 15.6066 22.2921C15.6754 22.2978 15.736 22.3391 15.7665 22.4011C15.9611 23.418 16.4969 24.3384 17.2852 25.0098C17.8053 25.5374 18.4798 25.8859 19.211 26.0053C19.8414 26.1147 20.4888 25.951 20.9912 25.5548C21.3536 25.2553 21.5552 24.8037 21.5362 24.3341C21.4747 23.6443 21.0394 23.0442 20.4028 22.7717C19.676 22.3357 18.8696 21.9142 18.0193 21.5073C17.1677 21.1107 16.3613 20.6234 15.6141 20.0539C14.9271 19.5811 14.5147 18.8024 14.5096 17.9685C14.517 16.854 15.078 15.8164 16.0064 15.1998C17.2188 14.3802 18.665 13.9772 20.1267 14.0517C20.8073 14.0396 21.4866 14.1179 22.1466 14.2842C22.7465 14.4524 23.3554 14.5859 23.9706 14.6838C23.9706 15.1051 24.0141 15.6429 24.0505 16.2824C24.0869 16.9217 24.1303 17.445 24.1884 17.8665C24.1484 17.9274 24.0794 17.9629 24.0066 17.961C23.9142 17.9866 23.8191 18.001 23.7233 18.0047C23.6266 18.0159 23.5293 18.0159 23.4327 18.0047C23.3575 17.9951 23.2896 17.9559 23.2436 17.8957C23.0346 17.0794 22.622 16.3294 22.0446 15.7157C21.5296 15.1996 20.826 14.9161 20.0973 14.9307C19.538 14.8997 18.9841 15.0527 18.5204 15.3667C18.1587 15.6211 17.9444 16.0363 17.9465 16.4784C18.0023 17.1256 18.4061 17.6909 19.0001 17.9536C19.7267 18.3676 20.5261 18.7964 21.4198 19.2252" fill="#004785"/>
</svg>
