<svg width="40" height="40" viewBox="0 0 40 40" fill="none" xmlns="http://www.w3.org/2000/svg">
<path d="M21.1253 18.3361C13.9655 21.2707 9.93808 24.5039 6.95483 31.7659C8.24757 29.3287 9.24199 26.5432 21.523 21.9174C29.0309 18.8832 32.6108 11.7206 33.7046 7.89062C31.7158 11.8698 28.4839 15.6004 21.1253 18.3361Z" fill="url(#paint0_linear_124_3132)"/>
<path d="M19.3852 24.1905C12.2254 27.1252 8.19803 30.408 5.21478 37.6204C6.50752 35.1831 7.50194 32.3976 19.8327 27.7718C27.3903 24.7376 30.9701 17.575 32.0143 13.6953C29.926 17.7243 26.7439 21.4548 19.3852 24.1905Z" fill="url(#paint1_linear_124_3132)"/>
<path d="M22.6664 12.6528C15.9541 15.3884 12.1753 18.4722 9.34125 25.2863C10.5345 22.9984 11.4792 20.412 23.0642 16.035C30.1743 13.2 33.5056 6.43557 34.5 2.80469C32.6106 6.58478 29.6273 10.0665 22.6664 12.6528Z" fill="url(#paint2_linear_124_3132)"/>
<defs>
<linearGradient id="paint0_linear_124_3132" x1="6.99809" y1="19.833" x2="33.7454" y2="19.833" gradientUnits="userSpaceOnUse">
<stop stop-color="#ED1C2E"/>
<stop offset="0.1687" stop-color="#EF3D3D"/>
<stop offset="0.3427" stop-color="#F15B4A"/>
<stop offset="0.4068" stop-color="#F04641"/>
<stop offset="0.5112" stop-color="#ED1C2E"/>
<stop offset="0.519" stop-color="#ED2232"/>
<stop offset="0.5589" stop-color="#EF3F41"/>
<stop offset="0.6016" stop-color="#F1554D"/>
<stop offset="0.6482" stop-color="#F26555"/>
<stop offset="0.7013" stop-color="#F36E5A"/>
<stop offset="0.7753" stop-color="#F3715C"/>
<stop offset="0.8092" stop-color="#F04D49"/>
<stop offset="0.8421" stop-color="#EF323A"/>
<stop offset="0.8711" stop-color="#ED2231"/>
<stop offset="0.8933" stop-color="#ED1C2E"/>
<stop offset="1" stop-color="#ED1C2E"/>
</linearGradient>
<linearGradient id="paint1_linear_124_3132" x1="5.17302" y1="25.675" x2="31.9889" y2="25.675" gradientUnits="userSpaceOnUse">
<stop stop-color="#003473"/>
<stop offset="0.1941" stop-color="#38568E"/>
<stop offset="0.309" stop-color="#5B6C9F"/>
<stop offset="0.573" stop-color="#003473"/>
<stop offset="0.6202" stop-color="#1A427E"/>
<stop offset="0.6639" stop-color="#2B4B85"/>
<stop offset="0.6966" stop-color="#314E87"/>
<stop offset="0.8933" stop-color="#003473"/>
<stop offset="1" stop-color="#003473"/>
</linearGradient>
<linearGradient id="paint2_linear_124_3132" x1="9.35766" y1="14.0617" x2="34.5482" y2="14.0617" gradientUnits="userSpaceOnUse">
<stop stop-color="#003473"/>
<stop offset="0.2135" stop-color="#475C92"/>
<stop offset="0.4551" stop-color="#003473"/>
<stop offset="0.4745" stop-color="#0E3B79"/>
<stop offset="0.5104" stop-color="#214681"/>
<stop offset="0.5469" stop-color="#2D4C85"/>
<stop offset="0.5843" stop-color="#314E87"/>
<stop offset="0.6629" stop-color="#314E87"/>
<stop offset="0.6829" stop-color="#2A4A84"/>
<stop offset="0.7591" stop-color="#133E7B"/>
<stop offset="0.8309" stop-color="#053775"/>
<stop offset="0.8933" stop-color="#003473"/>
<stop offset="1" stop-color="#003473"/>
</linearGradient>
</defs>
</svg>
