<svg width="40" height="40" viewBox="0 0 40 40" fill="none" xmlns="http://www.w3.org/2000/svg">
<path fill-rule="evenodd" clip-rule="evenodd" d="M19.7271 4.41426C28.3126 4.41426 35.3148 11.4168 35.3148 20.0022C35.3148 28.5876 28.3126 35.5898 19.7271 35.5898C11.1417 35.5898 4.13922 28.5876 4.13922 20.0022C4.13922 11.4168 11.1417 4.41426 19.7271 4.41426ZM9.93055 17.72C10.1714 17.72 10.4905 17.9787 10.4905 18.2181C10.4905 18.4577 10.1714 18.5928 9.93055 18.5928C9.69135 18.5928 9.4958 18.3961 9.4958 18.1565C9.4958 17.9604 9.6269 17.7928 9.80571 17.7385C9.84529 17.7265 9.88721 17.72 9.93055 17.72ZM9.32326 17.3501C9.8221 17.5936 10.6354 17.5359 10.9505 18.3367C10.628 18.7526 9.868 18.8857 9.50935 18.7014C9.08978 18.3881 9.50174 17.8969 9.32326 17.3501ZM14.6087 22.5342C14.6087 22.5342 14.9339 22.5142 15.0962 22.5012C15.6684 22.4554 16.5525 22.6012 16.811 22.3427L15.6167 22.104C15.4546 22.0716 15.4273 21.4112 15.4996 21.2462L16.4878 21.3541C17.3249 21.4965 18.0918 21.6136 18.449 21.1967L15.9952 20.6927C15.8392 20.6607 15.9161 19.8553 16.0783 19.8814L18.2476 20.2307C19.085 20.4299 19.652 20.413 20.0092 19.9889L16.369 19.2416C16.172 19.2012 16.1888 18.4109 16.3874 18.4463L19.9694 19.0859C20.9606 19.2779 21.1385 19.1417 21.5614 18.6207L16.4305 17.8012C16.2187 17.7674 16.1021 16.9104 16.3161 16.9416L22.6303 17.8614C23.7297 18.0251 24.2047 18.0784 24.6735 17.4795L16.1252 16.264C15.9197 16.2348 15.6828 15.4611 15.8914 15.4801L26.6803 16.462C27.7799 16.5737 28.3578 16.5907 28.8269 15.9723L15.4286 14.8182C15.1956 14.7981 14.7823 14.017 15.0187 14.0325L30.1653 15.0248C31.2648 15.0905 32.1044 14.7463 32.5734 14.1085L12.0624 13.4119C10.0231 13.3304 10.9396 15.2721 12.0174 16.4513C13.0112 17.5389 13.7768 18.5852 13.4596 19.9328C12.9137 20.2387 11.7211 18.4566 10.9752 17.7124C10.0031 16.9099 8.86372 17.4431 8.25734 17.905C9.4088 18.5472 9.38501 20.4701 9.61231 22.0062C9.70403 22.6261 10.7151 24.3598 11.8541 24.8896L28.7177 32.7331C30.2147 31.6082 31.1343 30.72 32.1361 29.4214C28.001 27.9689 14.6903 23.4471 14.5566 23.2411C14.4384 23.0591 14.4143 22.5474 14.6087 22.5342ZM12.3624 12.8099L29.5789 12.9607C30.6778 12.9806 31.5869 12.8519 32.056 12.1941L13.8339 12.187C12.7378 12.1889 12.6759 12.3657 12.3624 12.8099Z" fill="#009D3F"/>
</svg>
