<svg width="40" height="40" viewBox="0 0 40 40" fill="none" xmlns="http://www.w3.org/2000/svg">
<g clip-path="url(#clip0_124_3168)">
<path fill-rule="evenodd" clip-rule="evenodd" d="M19.9837 14.7656H22.0488C18.7091 20.856 12.812 29.7868 13.4158 33.2308L11.9472 31.7622C11.0971 29.3764 16.7405 20.9082 19.9837 14.7656Z" fill="#33348E"/>
<path fill-rule="evenodd" clip-rule="evenodd" d="M22.548 14.7305H24.6128C20.9822 21.5364 14.7646 31.9058 15.4876 35.0222L13.7953 33.3297C13.5346 29.3193 18.9694 21.5364 22.548 14.7305Z" fill="#33348E"/>
<path fill-rule="evenodd" clip-rule="evenodd" d="M25.1201 14.7349H27.1852C23.3606 22.115 16.7701 33.9156 17.4265 36.577L15.9503 35.1831C15.3315 31.873 21.2359 22.0328 25.1201 14.7349ZM5.8411 14.7123H19.268C19.1561 14.9136 19.0443 15.1223 18.9401 15.3237C18.8359 15.5251 18.7237 15.7337 18.6195 15.9348H4C4.30558 15.7334 4.61115 15.5247 4.92437 15.3237C5.22995 15.1226 5.53553 14.9136 5.8411 14.7123ZM27.9082 14.7199H35.1847V15.9421H27.2674C27.3716 15.7411 27.4835 15.5397 27.588 15.331C27.6922 15.13 27.804 14.9286 27.9082 14.7199ZM40.9253 16.6581H39.9257L39.6501 17.0605H38.7557L40.6493 14.623H41.6034L41.8417 17.0605H40.925L40.9253 16.6581ZM40.9176 16.1288L40.9027 15.2568L40.2915 16.1288H40.9176ZM42.9827 14.623H43.8628L43.035 17.0605H42.1549L42.9827 14.623ZM43.6685 17.0608L44.4963 14.6234H45.9576C46.2259 14.6234 46.4269 14.6383 46.5537 14.683C46.6882 14.7202 46.7771 14.7948 46.8294 14.9066C46.8743 15.0111 46.8743 15.1453 46.822 15.3017C46.7782 15.4315 46.7041 15.549 46.606 15.6445C46.5026 15.7457 46.3813 15.8266 46.2482 15.8832C46.1586 15.9278 46.0465 15.9577 45.9053 15.98C46.0019 16.01 46.0691 16.0399 46.1064 16.0696C46.1287 16.0919 46.1586 16.1368 46.2036 16.2037C46.2408 16.2633 46.2635 16.3155 46.2708 16.3528L46.4569 17.0611H45.4656L45.2495 16.3159C45.2272 16.219 45.1973 16.1518 45.16 16.1295C45.1077 16.0845 45.0405 16.0696 44.966 16.0696H44.8844L44.5489 17.0611L43.6685 17.0608ZM45.0402 15.6073H45.413C45.4503 15.6073 45.5325 15.5996 45.652 15.5773C45.7113 15.5623 45.7708 15.54 45.8231 15.5028C45.8754 15.4578 45.9053 15.4132 45.9276 15.3613C45.9499 15.2791 45.9426 15.2195 45.8977 15.1749C45.8527 15.1376 45.7559 15.115 45.5921 15.115H45.2119L45.0402 15.6073ZM47.56 14.623H48.4401L47.8133 16.4567H49.1781L48.9764 17.0605H46.7322L47.56 14.623ZM50.2366 14.623H51.116L50.2888 17.0605H49.4088L50.2366 14.623ZM51.7495 14.623H52.5623L53.1735 15.9721L53.6285 14.623H54.4563L53.6285 17.0605H52.8007L52.1969 15.7188L51.7418 17.0605H50.9223L51.7495 14.623ZM55.0299 14.623H57.3786L57.1995 15.1449H55.7309L55.6047 15.5324H56.9615L56.7971 16.0243H55.433L55.2692 16.5089H56.7821L56.596 17.0605H54.203L55.0299 14.623ZM57.1845 16.2483L58.0347 16.2034C58.0124 16.3229 58.0197 16.4121 58.0496 16.4717C58.1095 16.5685 58.2207 16.6208 58.3852 16.6208C58.512 16.6208 58.6162 16.5985 58.7057 16.5462C58.7879 16.494 58.8402 16.4344 58.8618 16.3672C58.8728 16.3393 58.8751 16.3088 58.8686 16.2795C58.8621 16.2503 58.847 16.2237 58.8252 16.2031C58.7803 16.1508 58.6461 16.1062 58.4224 16.0616C58.0646 15.987 57.8256 15.8825 57.7068 15.7634C57.58 15.6366 57.55 15.4801 57.6172 15.2937C57.6622 15.1672 57.7441 15.0478 57.8629 14.9359C57.9897 14.8241 58.1462 14.7422 58.3329 14.6753C58.5263 14.6154 58.7653 14.5781 59.0635 14.5781C59.4214 14.5781 59.682 14.638 59.8315 14.7572C59.9803 14.869 60.0325 15.0554 59.9803 15.3087L59.1458 15.346C59.1607 15.2415 59.1384 15.1596 59.0859 15.1073C59.0336 15.0551 58.9441 15.0328 58.8252 15.0328C58.7207 15.0328 58.6385 15.0551 58.5713 15.0924C58.512 15.1297 58.4674 15.1746 58.4524 15.2265C58.4449 15.2441 58.443 15.2636 58.447 15.2823C58.451 15.301 58.4607 15.318 58.4747 15.331C58.504 15.361 58.5936 15.3906 58.743 15.4202C59.1008 15.4875 59.3468 15.562 59.4886 15.6366C59.6298 15.7038 59.7196 15.793 59.7569 15.9048C59.7942 16.0094 59.7942 16.1285 59.7496 16.2627C59.6921 16.4316 59.5888 16.5813 59.4513 16.695C59.3095 16.8292 59.1308 16.9263 58.9291 16.9932C58.728 17.0678 58.4897 17.0977 58.2134 17.0977C57.7291 17.0977 57.4235 17.0159 57.2967 16.8591C57.1622 16.703 57.1249 16.4943 57.1845 16.2483ZM36.5 18.7157H37.5627L37.2944 22.7933L40.1497 18.7157H42.2967L38.8156 23.2334L37.7418 24.6047L37 24.5L36.5 20.2208V18.7157ZM42.6173 18.7157H45.9276C46.3527 18.723 46.6732 18.8125 46.8966 18.9766C47.1126 19.1484 47.2395 19.3641 47.2767 19.6327C47.314 19.9009 47.2694 20.1842 47.1646 20.4897C47.0307 20.8549 46.8217 21.1904 46.5311 21.4959C46.2478 21.8018 45.9423 22.0029 45.6144 22.1074L45.6217 24.6047H43.4747L43.7653 21.2723C43.9441 21.3172 44.0709 21.3468 44.1455 21.3468C44.3567 21.3494 44.564 21.2898 44.7416 21.1754C44.9207 21.0636 45.0322 20.9368 45.0845 20.7876C45.1367 20.6535 45.1294 20.5344 45.0695 20.4225C45.0023 20.3104 44.8834 20.2435 44.7044 20.2208H44.0336L42.4305 24.6044H40.4626L42.6173 18.7157ZM48.313 18.7157H52.9052L52.324 20.296H49.7519L49.5209 20.9224H51.6756L51.116 22.4505H48.969L48.738 23.0766H51.3101L50.7509 24.6047H46.1583L48.313 18.7157ZM53.3303 18.7157H55.5821L55.6267 20.5646L57.1023 18.7157H59.3092L55.9323 22.3683L55.1197 24.6047H53.1145L53.9564 22.3164L53.3303 18.7157ZM18.2763 16.457L13.3186 25.1938C9.89675 23.5163 7.60828 20.326 7.0564 16.457H18.2763Z" fill="#33348E"/>
<path fill-rule="evenodd" clip-rule="evenodd" d="M22.1679 25.8982L27.1107 16.4531H30.1521C29.4514 21.0004 26.4622 24.5113 22.1679 25.8982Z" fill="#33348E"/>
<path fill-rule="evenodd" clip-rule="evenodd" d="M30.2715 14.0774H6.93689C7.25011 7.91976 12.3719 3 18.6042 3C24.8365 3 29.9583 7.91976 30.2715 14.0774Z" fill="#F2CA30"/>
</g>
<defs>
<clipPath id="clip0_124_3168">
<rect width="32" height="34" fill="white" transform="translate(4 3)"/>
</clipPath>
</defs>
</svg>
