<svg width="40" height="40" viewBox="0 0 40 40" fill="none" xmlns="http://www.w3.org/2000/svg">
<path d="M18.4778 20.2717L19.2647 18.6992H29.3866V20.2717H18.4778Z" fill="#0063AD"/>
<path d="M33.2103 29.4527L32.9161 29.2496L32.766 29.2403C32.1253 28.7724 27.6733 25.3862 26.1133 20.24C24.4307 14.6914 23.615 12.7539 23.615 12.7539H16.6641C16.6641 12.7539 16.6105 13.225 16.2854 14.2203C15.9592 15.2143 13.896 18.3562 12.6472 19.7171C11.3984 21.0787 9.22711 22.5182 9.22711 22.5182C9.22711 22.5182 11.7502 24.4033 14.3585 23.6446C16.9649 22.8858 19.11 17.7009 19.8418 15.4495L20.6824 18.5134C20.6824 18.5134 21.9312 24.2723 22.9087 25.8946C23.6 27.04 24.8311 28.6512 27.3457 29.2645C28.985 29.9138 33.2103 29.4527 33.2103 29.4527Z" fill="#0063AD"/>
<path d="M16.6348 12.7891H23.7278L24.1013 13.7784L23.0648 13.2837L22.922 14.1112L22.232 13.2516L21.8009 13.8891L21.398 13.2792L20.7363 13.8334L20.2488 13.2792L19.5281 13.8334L18.8971 13.1684L18.5224 14.4703L18.2341 13.2792L17.7466 13.8334L17.3732 13.1684L16.5096 13.9166L16.6348 12.7891Z" fill="white"/>
<path d="M19.8491 15.1525L20.7651 18.4877C20.7781 18.5499 22.023 24.2564 22.9829 25.8499C23.5169 26.7351 25.1378 29.4301 29.5505 29.4301C30.0759 29.4301 30.6328 29.3907 31.2061 29.3174L32.6161 29.2263C31.6962 28.5344 27.5246 25.1763 26.0328 20.2588C24.5147 15.2548 23.6957 13.1711 23.5575 12.8304H16.7383C16.7114 12.9976 16.6216 13.4562 16.3661 14.2405C16.0281 15.2718 13.9433 18.4209 12.7102 19.7667C11.6193 20.9553 9.81033 22.2167 9.37135 22.5141C9.76053 22.7782 11.2983 23.7381 13.0653 23.7381C13.503 23.7381 13.9321 23.6785 14.3324 23.5618C16.7547 22.8555 18.884 18.1136 19.7607 15.4212L19.8491 15.1525ZM29.5505 29.5913C25.0421 29.5913 23.3825 26.8373 22.8361 25.9311C21.8632 24.3153 20.653 18.7609 20.6 18.525L19.834 15.7357C18.8984 18.4923 16.7933 23.0153 14.3809 23.7177C13.9642 23.8383 13.5213 23.9013 13.0653 23.9013C10.9707 23.9013 9.19183 22.5915 9.17413 22.5777L9.08313 22.5103L9.17952 22.4467C9.19976 22.4319 11.3561 20.996 12.5845 19.6581C13.8078 18.326 15.8723 15.2071 16.2045 14.1908C16.5235 13.2184 16.5812 12.7453 16.5812 12.7408L16.5905 12.668H23.6737L23.6939 12.719C23.7032 12.7387 24.5313 14.7227 26.1961 20.2129C27.8504 25.6711 32.8463 29.1936 32.896 29.227L33.0867 29.3595L31.2234 29.4794C30.6487 29.5541 30.0825 29.5913 29.5505 29.5913Z" fill="#0063AD"/>
<path d="M13.4368 15.7515C13.4368 15.7515 3.23155 23.885 7.28062 26.8931C11.329 29.9026 21.6187 25.6744 21.6187 25.6744C21.6187 25.6744 13.3955 29.6595 8.12515 29.0076C2.85155 28.3569 4.62384 24.9006 5.17288 23.6399C5.72063 22.3799 8.16577 19.5329 11.3716 17.2153C14.5755 14.8971 13.4368 15.7515 13.4368 15.7515Z" fill="#03B14D"/>
<path d="M29.4337 10.1197C29.1972 10.1604 28.9574 10.2042 28.7222 10.2501C28.5853 10.2783 28.4254 10.3104 28.2498 10.3478C25.0649 11.0285 22.3315 12.1692 22.3315 12.1692C22.3315 12.1692 40.8457 7.51997 31.9483 19.0132L28.3782 22.9437C28.3782 22.9437 34.3502 18.8449 35.996 14.7958C37.6261 10.7802 34.6391 9.46845 29.4337 10.1197Z" fill="#03B14D"/>
</svg>
