<svg width="40" height="40" viewBox="0 0 40 40" fill="none" xmlns="http://www.w3.org/2000/svg">
<path fill-rule="evenodd" clip-rule="evenodd" d="M22.7088 27.9991L22.6222 27.7766C22.6222 27.7766 24.9479 28.0407 25.5586 27.0302V26.8994C25.5586 26.8994 21.7864 27.1202 21.0839 24.0912C21.0839 24.0912 18.9799 24.0946 18.9757 24.0912C18.8262 23.9001 18.3386 23.0645 18.0116 21.9419C17.9232 21.6413 17.2199 19.3952 19.6357 18.7362C22.048 18.0798 23.3587 18.1078 23.763 17.026C24.1546 15.9806 24.665 15.2716 25.1611 14.8674C25.3786 14.6933 25.5298 14.6092 25.6504 14.5684C25.8576 14.5192 25.9553 14.6559 25.9553 14.6559C25.9553 14.6559 26.3138 15.1196 25.9383 15.3854C25.5603 15.6537 25.1101 15.8838 24.5928 17.2671C24.0586 18.6963 22.7165 18.8211 22.0013 18.991C21.4492 19.1218 19.549 19.4215 19.0649 20.2333C18.6206 20.9781 19.0844 22.0064 19.1608 22.2255C19.5091 23.1426 19.7002 23.4161 19.7002 23.4161C19.7002 23.4161 22.9255 23.4314 23.4963 23.4314C24.2862 23.4314 24.5979 23.6606 24.9895 24.1328C25.0787 24.2423 25.2452 24.3434 25.4278 24.3103C25.7863 24.2491 26.0861 24.002 26.0861 24.002C26.0861 24.002 26.3928 23.8313 26.1294 23.388C25.8653 22.9482 25.3879 22.3911 24.5946 22.4242C23.8861 22.4523 20.4171 22.6068 20.4171 22.6068C20.4171 22.6068 19.6204 21.2804 20.2048 20.6681C20.8937 19.9404 25.2979 19.1634 26.6569 19.0428C27.8826 18.9341 28.7873 18.8729 28.7558 19.5073C28.7439 19.7247 28.738 19.8767 28.7906 19.9582C28.8569 20.0644 29.0098 20.0771 29.1822 20.038C29.2662 20.0102 29.3392 19.9567 29.3912 19.8852C29.8754 19.3451 30.8276 17.465 30.8276 17.465C30.8276 17.465 32.0133 15.3327 30.0826 15.0516C29.2527 14.9302 27.3135 15.0058 27.3135 15.0058C27.3135 15.0058 27.0145 15.0389 26.8769 14.7425C26.7028 14.4563 26.5236 14.0997 26.7444 13.9095C26.9202 13.7575 27.1887 13.5324 26.9619 13.0764C26.8107 12.6629 26.6748 12.6467 26.3579 12.6459C25.0821 12.6399 14.9376 12.6459 14.9376 12.6459C14.9376 12.6459 14.2359 12.6799 14.6725 13.4297C15.1125 14.1736 15.2612 14.4674 15.0259 14.6134C14.7125 14.8062 13.3568 13.2947 13.0502 12.9873C12.7435 12.6799 11.8652 12.5338 11.1177 12.5058C10.3533 12.4752 9.58284 12.5058 9.58284 12.5058C9.58284 12.5058 9.21249 12.493 9.36029 12.9873C9.55905 13.6386 10.1469 15.2707 10.6726 15.5357C11.195 15.7989 12.3468 16.0154 12.3468 16.0154C12.3468 16.0154 12.8327 16.0435 12.6985 16.5003C12.6119 16.7967 12.1014 16.6948 11.9722 16.6948C11.7531 16.6948 11.6002 16.8502 11.6002 16.8502C11.6002 16.8502 9.20655 18.6972 9.25922 22.3784C9.30933 25.9314 11.2383 28.6029 11.0905 29.7875C10.9708 30.7742 10.2513 31.3398 9.22779 31.6498L9.18787 31.8153C9.18787 31.8153 10.1103 32.7792 11.9986 32.7376C13.8834 32.6908 14.9214 31.7245 15.0259 31.288H15.155C15.155 31.288 15.8532 33.039 13.2608 33.4228L13.1742 33.6334C13.1742 33.6334 14.3854 34.4028 16.0112 34.2771C18.6359 34.0716 21.4092 31.9538 23.3773 32.3181C24.7925 32.5805 24.3049 33.7608 24.3049 33.7608L24.4612 33.9154C24.4612 33.9154 25.5807 33.146 26.047 31.9317C26.3121 31.2421 26.4437 30.3182 25.8797 29.4903C24.9929 28.1902 22.7088 27.9991 22.7088 27.9991ZM23.0919 15.5747C22.7386 15.7174 22.4846 15.6978 22.392 15.5433C22.2994 15.3879 22.2128 14.9718 21.9622 14.9599C21.7133 14.948 21.4067 14.9718 21.4067 14.9718C21.4067 14.9718 21.8713 15.8388 20.9038 15.9552C20.0213 16.0613 20.1011 15.1561 20.2566 15.0635L18.2409 15.3038L18.2256 15.1917C18.2256 15.1917 18.7234 14.7196 19.0768 14.6372C19.4335 14.5506 21.9087 14.1634 21.9087 14.1634C21.9087 14.1634 22.5126 14.0912 22.7055 14.3001C22.8966 14.5107 23.2312 14.886 23.2729 14.9302C23.3722 15.038 23.4614 15.4244 23.0919 15.5747Z" fill="#EEBD31"/>
<path fill-rule="evenodd" clip-rule="evenodd" d="M11.6062 20.8951C11.6062 20.8951 10.0305 21.9151 10.9012 24.8732C11.7421 27.7201 12.2781 28.0317 12.0462 29.1944L12.222 29.2293C12.222 29.2293 12.9321 27.5638 12.3511 26.3297C11.6758 24.8834 11.4601 23.2944 11.4822 22.327C11.5017 21.425 11.7693 20.9732 11.7693 20.9732L11.6062 20.8951ZM14.0151 24.8596C14.0151 24.8596 12.8642 25.6758 13.7399 27.5273C14.2079 28.5108 14.3226 29.3821 14.1926 29.9044L14.3523 29.9622C14.3523 29.9622 14.8985 28.9371 14.6862 27.9604C14.5239 27.2071 13.7255 26.182 14.1357 24.9547L14.0151 24.8596ZM16.464 21.2051C16.4173 18.6546 18.0847 18.1637 18.0847 18.1637L18.0286 18.0508C18.0286 18.0508 16.9354 18.0686 16.3748 18.9111C15.776 19.8063 16.323 21.2051 16.323 21.2051H16.464ZM23.9575 29.0441C23.9575 29.0441 25.3811 29.8357 24.908 32.3963L25.0006 32.4923C25.0006 32.4923 26.6264 29.969 23.9932 28.9456L23.9575 29.0441Z" fill="#E2982F"/>
<path fill-rule="evenodd" clip-rule="evenodd" d="M21.3464 21.7923C23.1446 21.0441 24.9479 21.5282 25.6512 21.9664C28.3524 23.6582 30.2568 22.4081 30.2568 22.4081L30.1939 22.2391C28.2199 22.3274 27.3152 21.3116 26.2203 20.8708C23.0231 19.5909 21.2581 21.6607 21.2581 21.6607L21.3464 21.7923Z" fill="#EEBD31"/>
<path fill-rule="evenodd" clip-rule="evenodd" d="M14.9969 11.802C14.9969 11.802 15.0496 12.0296 15.2772 11.9905C15.2772 11.9905 17.8569 11.802 20.7075 11.802H20.6905C23.5403 11.802 26.3196 11.9905 26.3196 11.9905C26.5405 12.0296 26.6398 11.802 26.6398 11.802C26.6398 11.802 26.7426 10.59 27.6914 9.29315C28.2767 8.49396 30.1912 6.77837 28.9791 7.04335C28.9791 7.04335 27.6184 7.45866 26.1854 8.33089C26.1854 8.33089 24.8017 8.96192 25.2281 9.79933C25.2281 9.79933 25.7989 10.8694 24.2063 10.7395C22.8081 10.624 22.8107 9.75516 23.4197 9.4715C23.7213 9.33051 24.2258 9.41884 24.2258 9.41884C24.2258 9.41884 24.7762 9.71355 24.5792 9.19038C24.4101 8.7462 24.1375 7.7143 22.9712 7.99966C22.9712 7.99966 22.3461 8.22048 22.7011 7.87821C23.0613 7.53 23.1904 7.30409 22.7725 6.81235C22.3461 6.31211 21.8483 5.83565 21.8483 5.83565C21.6164 5.5902 21.3803 5.83565 21.3803 5.83565C21.3803 5.83565 20.9726 6.19406 20.327 6.70703C19.6356 7.25398 19.695 7.57331 19.9872 7.8918C20.3423 8.28757 19.6186 7.99796 19.6186 7.99796C18.4226 7.68118 17.9512 8.66467 17.7006 9.16235C17.4466 9.67024 17.9614 9.44093 17.9614 9.44093C17.9614 9.44093 18.2171 9.31693 18.6978 9.42394C19.3892 9.57596 19.2465 10.7098 17.6777 10.7344C16.1717 10.7582 16.689 9.79848 16.689 9.79848C17.3693 9.01118 16.5479 8.4396 16.5479 8.4396C15.662 7.63871 13.8417 7.03486 13.8417 7.03486C12.4563 6.68325 13.7321 7.87736 13.7321 7.87736C15.3341 9.57511 14.9969 11.802 14.9969 11.802Z" fill="#E2982F"/>
</svg>
