<svg width="40" height="40" viewBox="0 0 40 40" fill="none" xmlns="http://www.w3.org/2000/svg">
<path d="M32.6497 23.2994C32.4007 22.759 32.1159 22.2547 31.7603 21.8223C31.4043 21.39 31.013 21.0297 30.5861 20.7054C30.3725 20.5252 30.1235 20.3812 29.8745 20.2731C29.7677 20.2011 29.6253 20.129 29.5185 20.0569C29.6253 20.021 29.7677 19.9488 29.8745 19.8769C30.1235 19.7688 30.3725 19.6245 30.5861 19.4445C31.013 19.1203 31.4043 18.76 31.7603 18.3277C32.1159 17.8953 32.4007 17.3909 32.6497 16.8505C32.8987 16.3101 33.0767 15.7336 33.1834 15.1211C33.2189 14.6888 33.2545 14.2565 33.2545 13.8602C33.2545 13.68 33.2545 13.4999 33.2545 13.2837C33.2189 12.7793 33.1122 12.275 32.9342 11.7706C32.7564 11.3022 32.5429 10.7978 32.2582 10.366C31.9738 9.89713 31.6535 9.50133 31.2621 9.10452C30.8708 8.74475 30.4438 8.38447 29.9813 8.09575C29.483 7.80803 28.985 7.59186 28.4157 7.44775C27.8462 7.26761 27.277 7.15953 26.6366 7.15953C26.0319 7.1235 25.4626 7.19506 24.8933 7.30314C24.3595 7.44775 23.8258 7.66392 23.3633 7.91611C22.865 8.1683 22.438 8.49256 22.0467 8.88886C21.6909 9.24914 21.3707 9.68147 21.1216 10.1498C20.8724 10.6177 20.6947 11.1221 20.6234 11.6625C20.5524 11.9507 20.5524 12.2029 20.5524 12.4911C20.5524 12.7433 20.5524 12.9595 20.5879 13.1756C20.0898 12.8874 19.5918 12.6352 19.0936 12.4911C18.4888 12.275 17.777 12.1669 17.0655 12.1308C16.3894 12.1308 15.7489 12.2029 15.1441 12.3475C14.5749 12.4551 14.0056 12.6713 13.4718 12.9595C13.0093 13.2117 12.5113 13.5359 12.0486 13.9322C11.764 14.1844 11.4793 14.4366 11.1947 14.7248C11.1947 14.7248 10.7677 15.1572 10.5542 15.4454C10.3052 15.6976 10.0562 16.0218 9.80695 16.3461L9.2377 17.0666C9.09542 17.2828 8.95315 17.4629 8.77534 17.6431C8.56185 17.9313 8.31283 18.1835 8.06361 18.4357C7.63679 18.8681 7.17408 19.2643 6.67603 19.5886C6.56928 19.6607 6.46252 19.7326 6.35577 19.8047C6.28454 19.8407 6.2135 19.8769 6.14227 19.9128C6.07104 19.9488 6 19.985 6 20.0569C6 20.165 6.07104 20.2011 6.14227 20.2371C6.2135 20.2731 6.28454 20.3092 6.35577 20.3452C6.46252 20.4172 6.56928 20.4893 6.67603 20.5614C7.17408 20.8857 7.63679 21.2819 8.06361 21.7142C8.31283 21.9664 8.56185 22.2185 8.77534 22.5068C8.95315 22.687 9.09542 22.8671 9.2377 23.0833L9.80695 23.8037C10.0562 24.128 10.3052 24.4523 10.5542 24.7044C10.7677 24.9925 11.1947 25.3889 11.1947 25.3889C11.4793 25.7132 11.764 25.9653 12.0486 26.2175C12.5113 26.6139 13.0093 26.9382 13.4718 27.1903C14.0056 27.4784 14.5749 27.6946 15.1441 27.8027C15.7489 27.9829 16.3894 28.0189 17.0655 28.0189C17.777 27.9829 18.4888 27.8748 19.0936 27.6586C19.5918 27.5146 20.0898 27.2624 20.5879 26.9741C20.5524 27.1903 20.5524 27.4065 20.5524 27.6586C20.5524 27.9469 20.5524 28.1991 20.6234 28.4872C20.6947 29.0277 20.8724 29.5322 21.1216 30.0003C21.3707 30.4686 21.6909 30.901 22.0467 31.2612C22.438 31.6576 22.865 31.9819 23.3633 32.234C23.8258 32.4862 24.3595 32.7023 24.8933 32.8464C25.4626 32.9545 26.0319 33.0266 26.6366 32.9907C27.277 32.9907 27.8462 32.8826 28.4157 32.7023C28.985 32.5583 29.483 32.3421 29.9813 32.0538C30.4438 31.7657 30.8708 31.4054 31.2621 31.045C31.6535 30.6488 31.9738 30.2524 32.2582 29.7841C32.5429 29.3519 32.7564 28.8476 32.9342 28.3791C33.1122 27.8748 33.2189 27.3703 33.2545 26.8301C33.2545 26.6498 33.2545 26.4697 33.2545 26.2896C33.2545 25.8932 33.2189 25.461 33.1834 25.0287C33.0767 24.4161 32.8987 23.8397 32.6497 23.2994Z" fill="#FBC707"/>
<path d="M31.1553 23.8758C30.9419 23.4074 30.6928 22.9753 30.3371 22.5791C30.0168 22.1827 29.6253 21.8584 29.1985 21.6062C28.7358 21.3179 28.2733 21.1019 27.7752 20.9938C27.277 20.8136 26.7432 20.7415 26.2096 20.7415C25.6404 20.7415 25.1066 20.8136 24.5373 20.9577C24.0748 21.0658 23.6478 21.21 23.221 21.426C22.8295 21.6062 22.4738 21.8584 22.1535 22.1107C21.8332 22.3267 21.513 22.5791 21.2284 22.8312C20.9082 23.0474 20.6234 23.2635 20.3034 23.4795C20.0186 23.6597 19.6986 23.8398 19.3426 23.9838C18.9513 24.0919 18.5598 24.164 18.1685 24.164C17.6348 24.164 17.101 24.0559 16.603 23.8398C16.1048 23.6236 15.6777 23.3355 15.322 22.9393C14.9307 22.5791 14.6461 22.1107 14.4681 21.6062C14.2546 21.1379 14.1836 20.5974 14.1836 20.057C14.1836 19.5527 14.2546 19.0122 14.4681 18.5439C14.6461 18.0395 14.9307 17.6071 15.322 17.2108C15.6777 16.8145 16.1048 16.5263 16.603 16.3101C17.101 16.094 17.6348 15.9859 18.1685 15.9859C18.5598 15.9859 18.9513 16.0579 19.3426 16.166C19.6986 16.3101 20.0186 16.4903 20.3034 16.6704C20.6234 16.8866 20.9082 17.1028 21.2284 17.3549C21.513 17.5711 21.8332 17.8233 22.1535 18.0755C22.4738 18.2918 22.8295 18.5439 23.221 18.7239C23.6478 18.9401 24.0748 19.0844 24.5373 19.1925C25.1066 19.3365 25.6404 19.4086 26.2096 19.4086C26.7432 19.4086 27.277 19.3365 27.7752 19.1925C28.2733 19.0482 28.7358 18.832 29.1985 18.5439C29.6253 18.2918 30.0168 17.9674 30.3371 17.5711C30.6928 17.1748 30.9419 16.7425 31.1553 16.2741C31.3689 15.7697 31.5112 15.2653 31.5824 14.7249C31.6536 14.149 31.6536 13.572 31.5468 12.9956C31.4401 12.4552 31.2621 11.9148 31.0131 11.4464C30.764 10.9781 30.4438 10.5817 30.088 10.2215C29.6966 9.82567 29.3053 9.53694 28.8426 9.28525C28.38 9.06908 27.882 8.88895 27.3837 8.78086C26.8857 8.67278 26.3164 8.63625 25.7828 8.70881C25.2846 8.78086 24.7509 8.92498 24.2883 9.17717C23.8613 9.39334 23.4343 9.71758 23.1142 10.0779C22.7583 10.4376 22.5092 10.87 22.2957 11.3383C22.1179 11.8067 21.9755 12.3111 21.94 12.8155C21.94 13.3198 21.9755 13.8603 22.1535 14.3646C22.1535 14.4367 22.189 14.5088 22.2247 14.5808C22.2247 14.6168 22.2247 14.6529 22.2602 14.6889C22.2602 14.7249 22.2602 14.761 22.2957 14.797C22.2957 14.797 22.3315 14.833 22.367 14.833C22.367 14.833 22.4025 14.797 22.4025 14.761C22.4025 14.6889 22.4025 14.6168 22.4025 14.5448C22.438 14.2566 22.5092 14.0044 22.616 13.7522C22.8295 13.2838 23.1498 12.8875 23.541 12.5993C23.9681 12.3476 24.4663 12.203 24.9643 12.167C25.4981 12.1309 26.0319 12.203 26.4942 12.4552C26.9212 12.6713 27.277 13.0316 27.5262 13.464C27.7752 13.8963 27.882 14.4367 27.882 14.9411C27.882 15.4455 27.7395 15.9859 27.4549 16.4182C27.2059 16.8506 26.8144 17.2108 26.3519 17.463C25.8896 17.6792 25.3558 17.7873 24.8576 17.7152C24.5018 17.6792 24.146 17.5711 23.8258 17.427C23.5055 17.2829 23.1853 17.0667 22.9007 16.8506C22.5805 16.5984 22.2602 16.3462 21.9755 16.094C21.6552 15.8058 21.3352 15.5175 21.0149 15.2653C20.659 14.9771 20.3034 14.7249 19.9119 14.5448C19.4851 14.2926 19.0581 14.1125 18.5955 13.9683C18.0973 13.8242 17.5635 13.7522 17.03 13.7522C16.4963 13.7522 15.9625 13.7882 15.4287 13.9323C14.9662 14.0404 14.5394 14.1845 14.1124 14.4007C13.7566 14.6168 13.4008 14.869 13.0449 15.1573C12.7248 15.4094 12.44 15.7337 12.1553 16.0579C11.8708 16.3822 11.6218 16.7064 11.3725 17.0307C11.088 17.3549 10.839 17.7152 10.5898 18.0395C10.3052 18.3637 10.0562 18.652 9.73596 18.9763C9.45121 19.2644 9.16666 19.5166 8.8109 19.7689C8.73963 19.8048 8.66862 19.8408 8.59741 19.877C8.56188 19.9129 8.49062 19.9489 8.45513 19.9851C8.4196 19.9851 8.34839 20.021 8.34839 20.057C8.34839 20.1291 8.4196 20.1651 8.45513 20.2012C8.49062 20.2012 8.56188 20.2372 8.59741 20.2732C8.66862 20.3093 8.73963 20.3453 8.8109 20.4172C9.16666 20.6334 9.45121 20.8858 9.73596 21.1739C10.0562 21.4621 10.3052 21.7864 10.5898 22.1107C10.839 22.4348 11.088 22.7952 11.3725 23.1193C11.6218 23.4436 11.8708 23.7679 12.1553 24.0919C12.44 24.4162 12.7248 24.7405 13.0449 24.9926C13.4008 25.2809 13.7566 25.5331 14.1124 25.7492C14.5394 25.9654 14.9662 26.1095 15.4287 26.2176C15.9625 26.3618 16.4963 26.3978 17.03 26.3978C17.5635 26.3978 18.0973 26.3257 18.5955 26.1816C19.0581 26.0376 19.4851 25.8573 19.9119 25.6412C20.3034 25.425 20.659 25.1728 21.0149 24.8845C21.3352 24.6324 21.6552 24.3443 21.9755 24.0919C22.2602 23.8038 22.5805 23.5517 22.9007 23.2995C23.1853 23.0833 23.5055 22.8672 23.8258 22.7231C24.146 22.5791 24.5018 22.471 24.8576 22.4348C25.3558 22.3628 25.8896 22.471 26.3519 22.6871C26.8144 22.9033 27.2059 23.2995 27.4549 23.7317C27.7395 24.164 27.882 24.7045 27.882 25.2088C27.882 25.7492 27.7752 26.2537 27.5262 26.6859C27.277 27.1183 26.9212 27.4785 26.4942 27.6947C26.0319 27.947 25.4981 28.019 24.9643 27.983C24.4663 27.983 23.9681 27.8028 23.541 27.5506C23.1498 27.2625 22.8295 26.8661 22.616 26.3978C22.5092 26.1456 22.438 25.8933 22.4025 25.6052C22.4025 25.5331 22.4025 25.4611 22.4025 25.389C22.4025 25.353 22.367 25.3169 22.367 25.3169C22.3315 25.3169 22.2957 25.353 22.2957 25.353C22.2602 25.389 22.2602 25.425 22.2602 25.4611C22.2247 25.4971 22.2247 25.5331 22.2247 25.569C22.189 25.6412 22.1535 25.7133 22.1535 25.7852C21.9755 26.2897 21.94 26.8302 21.94 27.3345C21.9755 27.8389 22.1179 28.3432 22.2957 28.8115C22.5092 29.2799 22.7583 29.7122 23.1142 30.0725C23.4343 30.4327 23.8613 30.757 24.2883 30.9732C24.7509 31.2253 25.2846 31.3694 25.7828 31.4415C26.3164 31.5136 26.8857 31.4775 27.3837 31.3694C27.882 31.2613 28.38 31.0813 28.8426 30.8651C29.3053 30.6129 29.6966 30.2887 30.088 29.9282C30.4438 29.5682 30.764 29.1718 31.0131 28.7035C31.2621 28.2351 31.4401 27.6947 31.5468 27.1544C31.6536 26.5778 31.6536 26.0014 31.5824 25.425C31.5112 24.8845 31.3689 24.3802 31.1553 23.8758Z" fill="#361D66"/>
<path d="M23.5767 20.057L23.541 20.021C22.9007 19.877 22.3314 19.5165 21.8332 19.1563C21.2639 18.7239 20.7301 18.2918 20.1965 17.8954C19.6273 17.499 18.9868 17.1748 18.3107 17.1388C17.777 17.1027 17.2077 17.2108 16.7452 17.499C16.3182 17.7512 15.9624 18.1115 15.7134 18.5439C15.4286 19.0122 15.3219 19.5527 15.3219 20.057C15.3219 20.0931 15.3219 20.0931 15.3219 20.0931C15.3219 20.5974 15.4286 21.1379 15.7134 21.6062C15.9624 22.0386 16.3182 22.3988 16.7452 22.651C17.2077 22.9033 17.777 23.0474 18.3107 23.0114C18.9868 22.9753 19.6273 22.651 20.1965 22.2548C20.7301 21.8583 21.2639 21.426 21.8332 20.9938C22.3314 20.6334 22.9007 20.2732 23.541 20.1291C23.541 20.1291 23.5767 20.0931 23.5767 20.057Z" fill="#C60A8D"/>
</svg>
