<svg width="40" height="40" viewBox="0 0 40 40" fill="none" xmlns="http://www.w3.org/2000/svg">
<path d="M26.6269 28.6554C33.508 22.9539 35.9341 14.5276 32.0458 9.8347C28.1574 5.14178 19.4269 5.9594 12.5458 11.6609C5.66459 17.3624 3.23847 25.7887 7.12686 30.4816C11.0152 35.1746 19.7457 34.3569 26.6269 28.6554Z" fill="#08457D"/>
<path d="M18.5512 20.2293C12.9074 19.2361 10.1517 21.5311 10.6334 27.8575H9.383L12.215 32.9895L15.6364 27.8575H13.757C13.69 24.24 12.8653 20.4186 18.5512 20.2293ZM33.3557 16.4531L28.0548 17.0613L28.4284 18.8475C25.6207 21.4044 21.684 26.6679 19.5901 21.4709C20.0389 28.005 24.7577 26.5142 29.0861 21.9972L29.4741 23.8531L33.3557 16.4531ZM19.2756 11.3273L20.2362 10.3516L13.1842 11.6251L15.332 15.3317L16.5822 14.0623C20.3739 14.0658 25.4347 14.0391 20.9583 19.3423C28.135 13.7686 23.42 11.1802 19.2756 11.3273Z" fill="white"/>
</svg>
