<svg width="40" height="40" viewBox="0 0 40 40" fill="none" xmlns="http://www.w3.org/2000/svg">
<path d="M4.2241 22.6501C4.58723 24.8167 5.36997 26.8057 6.4755 28.5487C10.6071 27.3988 14.2344 25.2242 15.5255 20.3706C16.9458 15.0329 15.3238 9.44102 11.4464 6.47563C6.16886 9.82027 3.1226 16.1061 4.2241 22.6501ZM35.7761 17.3528C37.2407 26.0634 31.3661 34.314 22.651 35.7745C21.1863 36.0247 19.7338 36.061 18.3257 35.9117C13.7785 35.4397 9.68316 33.023 7.04441 29.3919L32.9477 21.9643C33.323 21.8553 33.2261 21.5003 32.9154 21.5205L22.0578 22.279C23.587 20.8023 24.7531 18.9908 24.6119 16.4853C24.3254 12.4266 20.1978 8.4687 12.5156 5.86641C13.9923 5.08371 15.6103 4.51484 17.3492 4.22435C18.8139 3.97824 20.2704 3.9379 21.6745 4.08718C28.6466 4.81743 34.5576 10.1027 35.7761 17.3528Z" fill="#CF181F"/>
</svg>
