<svg width="40" height="40" viewBox="0 0 40 40" fill="none" xmlns="http://www.w3.org/2000/svg">
<g clip-path="url(#clip0_124_3264)">
<path d="M-111.125 32.4982C-111.125 32.4982 1.1469 32.4308 1.6789 32.4109C2.2109 32.3909 3.70625 32.5734 6.62727 30.5284C9.82037 28.2931 27.06 7.75527 27.06 7.75527C27.06 7.75527 28.0179 6.79745 28.551 6.47891C29.0819 6.15927 29.7222 6 30.5197 6H36.0001L28.4979 32.8168L-111.125 32.9229V32.4982Z" fill="#04396F"/>
</g>
<path d="M26.1018 18.1719C26.1018 18.1719 27.9378 18.9815 27.2189 20.7788C26.4746 22.6413 18.5455 23.6522 18.0146 24.8766C17.6098 25.809 20.888 26.2072 20.888 26.2072C20.888 26.2072 16.0989 26.2603 17.0036 24.2384C17.831 22.3892 25.6174 21.8384 26.4215 20.833C27.4855 19.5024 26.1018 18.1719 26.1018 18.1719Z" fill="#A11337"/>
<path d="M22.9667 28.5214L23.1514 26.7031L21.5111 25.9178L23.1447 25.2233L22.9434 23.395L24.3923 24.5187L25.8313 23.4757L25.6466 25.294L27.2868 26.0804L25.6543 26.7739L25.8545 28.6022L24.4056 27.4784L22.9667 28.5214ZM27.998 23.739L27.8575 22.9747L27.0955 22.8475L27.6806 22.3719L27.3808 21.6497L28.1064 21.9372L28.5687 21.3422L28.7092 22.1054L29.4712 22.2326L28.8872 22.7081L29.1859 23.4304L28.4614 23.1428L27.998 23.739ZM21.1373 31.1582L21.1871 30.3309L20.4283 30.0057L21.1561 29.6617L21.0311 28.8355L21.708 29.3189L22.3418 28.8201L22.292 29.6474L23.0485 29.9736L22.3207 30.3176L22.4457 31.1416L21.7688 30.6594L21.1373 31.1582ZM22.6791 18.6534L22.73 17.8272L21.9723 17.501L22.7001 17.157L22.5751 16.3319L23.252 16.8152L23.8836 16.3164L23.8338 17.1437L24.5914 17.4689L23.8648 17.814L23.9897 18.638L23.3129 18.1557L22.6791 18.6534ZM17.8236 23.228L17.473 22.5046L16.6822 22.5843L17.1302 21.9505L16.6324 21.3112L17.431 21.4008L17.7263 20.6808L18.0758 21.4052L18.8677 21.3256L18.4198 21.9594L18.9164 22.5986L18.1189 22.5091L17.8236 23.228Z" fill="white"/>
<path d="M26.1022 18.1719C26.1022 18.1719 28.1185 18.8842 27.3786 20.6726C26.7404 22.2155 18.652 23.3337 18.12 24.557C17.7152 25.4894 20.8873 26.2061 20.8873 26.2061C20.8873 26.2061 16.3459 25.7725 17.0029 24.2373C17.8015 22.3748 25.954 21.5176 26.6873 20.4591C27.6451 19.0766 26.1022 18.1719 26.1022 18.1719Z" fill="#ACABB5"/>
<defs>
<clipPath id="clip0_124_3264">
<rect width="33" height="27.5" fill="white" transform="translate(3 6)"/>
</clipPath>
</defs>
</svg>
