<svg width="40" height="40" viewBox="0 0 40 40" fill="none" xmlns="http://www.w3.org/2000/svg">
<path fill-rule="evenodd" clip-rule="evenodd" d="M18.5862 4.94922L15.9183 6.49141L19.7182 17.0818L9.94406 18.157L16.904 24.005L5.94202 25.4612V26.8286L15.7152 25.6932L8.20498 30.1448L18.2681 28.9229L11.5689 32.9387L12.5549 33.8697L20.7613 28.9529L24.0963 34.7133L28.2715 29.1852L32.0996 33.7821L34.942 32.8219L25.6325 26.2466L32.1286 22.5515L30.0116 22.8122L29.6056 22.2594L22.0373 23.0754L18.5862 4.94922ZM18.3831 18.6524L18.1223 19.7L16.0343 19.9328L17.6295 21.3003L17.3106 22.4931L13.1643 19.0598L18.3831 18.6524ZM17.7453 25.9266L18.7023 27.4391L14.4392 28.0506L17.7453 25.9266ZM22.2694 29.0347H23.6037L24.4737 30.4072L25.4886 29.0347H26.7356L24.1253 32.793L22.2694 29.0347ZM12.4091 10.0408L13.7432 13.3004L10.6695 13.3588L12.4091 10.0408ZM15.0481 7.13134L13.0472 8.67328L15.0192 14.2016L9.94406 14.725L9.16175 16.8197L18.326 15.9759L15.0481 7.13134ZM8.98703 18.7693L8.92914 19.7876L11.916 22.4933L9.13098 22.7843L9.4499 24.0937L14.6411 23.308L8.98703 18.7693ZM6.26094 27.6141L7.21797 29.4181L11.4231 27.0033L6.26094 27.6141ZM9.18991 31.0471L10.6108 32.2401L13.8011 30.4653L9.18991 31.0471ZM27.6631 34.7714L28.3881 33.695L29.0262 34.4804L27.6631 34.7714ZM30.9113 33.8694L30.1863 34.306L28.3012 32.1238L26.4161 34.8004H25.3433L28.2723 30.7845L30.9113 33.8694ZM22.7622 34.8004L20.4414 30.2909L16.5559 32.3275L17.31 33.2584L19.979 31.8618L21.371 34.3931L22.7622 34.8004Z" fill="#DC1F02"/>
</svg>
