<svg width="40" height="40" viewBox="0 0 40 40" fill="none" xmlns="http://www.w3.org/2000/svg">
<g clip-path="url(#clip0_124_3288)">
<path d="M150.909 0.644531H0.909119V39.3542H150.909V0.644531Z" fill="#2DCCD3"/>
<path d="M32.4778 23.4206C32.0438 22.6892 31.7475 22.3393 31.5744 22.1838C30.7662 21.4577 30.0001 21.1503 29.3683 20.8649C29.258 20.8154 29.1247 20.7567 28.857 20.6384C27.239 19.9222 25.9878 19.8023 25.1774 19.7575C24.8811 19.741 24.4588 19.7876 24.2751 19.8146C24.1805 19.8278 24.0578 19.8454 23.9128 19.9037C23.8383 19.9334 23.7369 19.9788 23.6204 20.0446C23.6909 19.9887 23.7963 19.9136 23.9335 19.8443C24.1245 19.7476 24.2516 19.714 24.2516 19.714C24.2516 19.7145 24.2706 19.7074 24.2706 19.7074C24.2718 19.7107 26.8615 19.0139 29.4047 17.5203C30.7377 16.7371 31.8494 16.0844 31.7626 15.3752C31.6713 14.6281 30.2728 13.9969 29.1079 14.1012C28.675 14.1401 28.3636 14.2723 28.0332 14.4127C27.2188 14.7585 27.0166 15.0875 25.7526 16.1065C24.6218 17.0178 24.3642 17.0923 23.7974 17.7387C23.4277 18.1596 23.0844 18.7344 23.0038 18.8176C22.9236 18.9015 22.6129 19.1752 22.698 19.3271C22.7339 19.3912 22.8688 19.3813 22.9825 19.5105C23.0206 19.5548 23.0973 19.7382 23.1634 19.79C23.2591 19.885 23.3068 19.8315 23.3325 19.9246C23.3452 19.9718 23.3084 20.013 23.331 20.0789C23.3573 20.1569 23.3635 20.1551 23.3903 20.2314C23.3999 20.26 23.3856 20.3427 23.3371 20.3846C23.284 20.4311 23.1977 20.3912 23.0806 20.4684C23.0157 20.5122 22.9843 20.5727 22.9827 20.6542C22.9815 20.7083 23.009 20.7915 23.1003 20.8225C23.1003 20.8225 23.1345 20.829 23.2846 20.8637C23.4711 20.9063 23.6206 21.1118 23.6626 21.1741C23.669 21.1823 23.6722 21.1873 23.6722 21.1889C24.9424 23.1268 29.9141 24.7455 29.9141 24.7455C30.142 24.8328 32.2859 25.4355 32.7799 24.6686C32.9737 24.2988 32.6307 23.6779 32.4778 23.4206Z" fill="white"/>
<path d="M24.1146 22.5244C23.9607 22.157 23.8677 22.0312 23.7708 21.9357C23.6325 21.7984 23.5339 21.7686 23.3939 21.6161C23.3827 21.6012 23.3708 21.5864 23.358 21.5707C23.2795 21.4728 23.2538 21.4182 23.1306 21.2737C23.0657 21.1975 23.018 21.1422 22.9748 21.1002C22.9283 21.0507 22.8886 21.0175 22.8421 20.9931C22.7256 20.9332 22.5626 20.9058 22.4081 20.9459C22.2473 20.9878 22.1941 21.0793 22.0888 21.0461C22.0155 21.0228 22.0137 20.9726 21.9242 20.9092C21.7886 20.8137 21.6974 20.8394 21.5713 20.7934C21.414 20.7351 21.3025 20.5145 21.265 20.3578C21.2162 20.157 21.2145 19.991 21.3031 19.8064C21.3452 19.7202 21.4234 19.6166 21.4868 19.5642C21.5703 19.496 21.708 19.4366 21.8088 19.411C21.8839 19.3919 21.955 19.3428 21.9948 19.2735C22.0273 19.2187 22.0251 19.1641 22.0541 19.0965C22.0573 19.0883 22.0861 19.0267 22.1326 18.9654C22.211 18.8648 22.2731 18.8542 22.3874 18.7576C22.4383 18.715 22.4714 18.6772 22.538 18.6021C22.8758 18.2207 23.2908 17.3024 23.2908 17.3024C23.4044 17.0084 23.5843 16.5542 23.824 16.0092C24.8321 13.7168 25.2376 13.5758 25.5215 12.4089C25.6436 11.907 25.9617 10.5183 25.3345 9.11091C25.0998 8.58335 24.799 8.2043 24.5795 7.96557C24.5493 7.93421 24.486 7.9149 24.4295 7.91837C24.4295 7.91837 24.3264 7.91953 24.2021 8.0273C23.101 8.97933 22.0912 11.8721 22.0912 11.8721C21.4561 13.6894 21.1705 14.2845 20.8501 15.6301C20.6838 16.3289 20.5404 17.0934 20.7453 17.9762C20.8619 18.4787 21.0623 18.8962 21.0472 18.9107C20.9542 18.7727 20.5689 17.9412 20.1948 17.0486C19.9545 16.475 19.9013 16.3021 19.5686 15.466C19.381 14.9943 19.2074 14.5593 18.8439 13.6952C17.5378 10.5893 17.0842 9.99892 16.7649 9.63731C16.3135 9.12491 15.8638 8.6288 15.3267 8.70217C14.5913 8.80236 14.2228 9.89993 14.1685 10.0606C14.1075 10.2423 14.0683 10.4222 14.0458 10.5987C13.9248 11.5431 14.2939 12.3869 14.4641 12.7758C14.5168 12.897 14.5789 13.0157 14.6557 13.1438C14.8237 13.4256 15.0606 13.7511 15.4219 14.2484C15.9242 14.9396 16.8069 16.0465 17.1373 16.4028C17.1783 16.4471 17.3199 16.6031 17.4879 16.8349C17.53 16.8932 17.5714 16.9565 17.6335 17.0562C17.7405 17.2291 17.862 17.4283 18.0104 17.635C18.1997 17.9011 18.4333 18.1794 18.7379 18.4298C19.1098 18.7355 19.4884 18.9346 19.7556 19.0546C19.4571 18.9375 18.9457 18.7244 18.1303 18.3517C17.3423 17.9919 16.4646 17.5907 15.33 16.9904C13.857 16.2113 12.6668 15.4741 11.1748 14.9501C11.1328 14.9352 10.5145 14.7235 9.68507 14.7247C9.26671 14.7253 8.82985 14.7296 8.5431 14.8965C8.44403 14.9513 8.36108 15.0246 8.30228 15.123C7.88895 15.8177 8.52238 16.8011 8.89033 17.3648C9.38262 18.1194 9.96622 18.7803 10.6859 19.3073C12.2569 20.4567 14.1874 20.9697 16.0552 21.3016C18.1247 21.669 19.6156 21.3709 19.6257 21.3679C19.6384 21.3646 20.1051 21.2474 20.1028 21.2364C20.1028 21.2358 20.1139 21.3306 19.9936 21.3679C19.7309 21.4476 19.7119 21.4629 19.5943 21.4884C19.1961 21.5753 18.9648 21.6852 18.0911 22.1115C17.7315 22.264 17.2398 22.4742 16.5369 22.7787C14.9939 23.4472 14.9754 23.4921 14.2473 23.9177C12.8349 24.7428 12.5862 25.0205 12.3661 25.2022C11.7601 25.703 10.7615 26.9444 10.7217 27.8557C10.7122 28.0694 10.7851 28.1486 10.9065 28.265C11.475 28.8106 12.7088 28.7797 13.1821 28.7547C14.7721 28.6702 15.5948 28.2126 16.2669 27.8056C16.9524 27.391 17.6038 26.8652 17.713 26.7761C17.9326 26.5985 18.114 26.4401 18.6489 25.9452C18.9283 25.6867 19.6626 24.9315 19.9286 24.6427C21.0566 23.4181 21.098 23.2027 21.2761 22.954C21.2945 22.9278 21.3125 22.9022 21.3288 22.8778C21.3911 22.787 21.4482 22.685 21.6133 22.4713C21.7192 22.3345 21.815 22.168 21.8228 22.147C21.8212 22.1698 21.8038 22.3654 21.6845 22.5488C21.6482 22.6059 21.6274 22.6495 21.5899 22.7008C21.5243 22.7916 21.4202 22.9954 21.3284 23.1882C21.0226 23.8316 21.0881 24.2113 21.1323 24.4104C21.5703 26.3704 21.8778 29.2771 23.563 31.1678C24.23 31.916 24.9357 32.3096 25.6425 32.0115C25.8274 31.9341 26.1102 30.7066 26.1684 28.9761C26.2462 26.6702 24.999 24.5606 24.3555 23.1893C24.2968 22.9978 24.2177 22.7702 24.1146 22.5244Z" fill="white"/>
</g>
<defs>
<clipPath id="clip0_124_3288">
<rect width="30" height="30" fill="white" transform="translate(5 5)"/>
</clipPath>
</defs>
</svg>
