<svg width="40" height="40" viewBox="0 0 40 40" fill="none" xmlns="http://www.w3.org/2000/svg">
<path d="M13.0543 19.5527C13.0543 19.5527 11.157 25.0652 10.7991 28.6447C12.1235 25.4947 14.6293 21.1277 16.1328 19.0516C13.9492 17.2976 10.0115 15.472 10.0115 15.472C10.0115 15.472 13.1616 14.1118 19.4977 13.7897C19.4977 13.7897 22.1466 8.70673 28.948 3.91016C24.7956 5.23458 20.9295 8.74252 16.9561 12.5726C11.873 12.859 6.39605 14.8993 5.8233 15.1499C11.6582 18.1567 13.0543 19.5527 13.0543 19.5527Z" fill="#3FBBEF"/>
<path d="M36 15.5523C31.06 13.5478 24.9388 13.0466 24.9388 13.0466C24.9388 13.0466 24.7956 11.4716 25.261 8.46484C24.6882 9.71768 23.6143 12.4023 23.4353 14.4069C27.8741 14.7648 30.9169 15.7671 30.9169 15.7671C30.9169 15.7671 26.4065 17.4853 23.9007 19.454C24.3661 20.5637 25.3684 23.7852 25.9411 26.2909C24.9746 25.396 22.0393 22.9977 19.9273 21.7449C17.1351 22.8188 9.36721 30.479 5 37.6022C6.89723 35.6335 12.4099 29.3693 19.9273 24.8591C21.4665 25.754 28.5901 30.4432 28.5901 30.4432C28.5901 30.4432 27.015 22.1387 26.4423 20.2415C28.6617 18.7023 32.4561 16.6262 36 15.5523Z" fill="#3FBBEF"/>
</svg>
