<svg width="40" height="40" viewBox="0 0 40 40" fill="none" xmlns="http://www.w3.org/2000/svg">
<path fill-rule="evenodd" clip-rule="evenodd" d="M20.1943 12.4961C24.1756 12.4961 27.4227 15.7432 27.4227 19.7245C27.4227 23.7058 24.1756 26.9529 20.1943 26.9529C16.213 26.9529 12.9659 23.7055 12.9659 19.7245C12.9659 15.7432 16.213 12.4961 20.1943 12.4961Z" fill="black"/>
<path fill-rule="evenodd" clip-rule="evenodd" d="M20.1943 12.8555C23.9764 12.8555 27.0615 15.9403 27.0615 19.7224C27.0615 23.5048 23.9767 26.5893 20.1946 26.5893C16.4122 26.5893 13.3277 23.5045 13.3277 19.7224C13.3277 15.9403 16.4122 12.8555 20.1943 12.8555Z" fill="#CC2229"/>
<path fill-rule="evenodd" clip-rule="evenodd" d="M6.55595 6.42144C7.40652 7.30832 8.23106 8.2087 9.02604 9.14667C12.107 12.8802 14.3933 17.1125 16.6481 21.3763C22.9912 26.4148 29.3346 31.454 35.6784 36.4925C32.0978 32.9038 28.4294 29.3698 25.3308 25.6279C23.8704 23.865 23.8077 21.2834 24.8649 19.2488C26.0143 17.037 29.0107 15.4696 30.8375 13.7944C31.7238 12.9821 31.7752 12.0178 31.7964 10.9031C32.7816 10.1065 33.1595 8.70131 33.1244 7.53229C34.2411 6.35429 34.0431 4.82185 33.8963 4.0002L18.703 15.0814L20.1406 20.1405C16.9109 18.3127 14.6487 15.4397 13.2088 12.0602L12.8901 11.2389C12.3747 9.60618 11.7355 8.23087 10.2291 8.65696L3.67841 3.51562C4.63984 4.48252 5.60544 5.44459 6.55595 6.42144Z" fill="black"/>
<path fill-rule="evenodd" clip-rule="evenodd" d="M5.43634 5.07993C10.0083 9.65379 12.0304 12.2997 16.7608 21.2835L33.7474 34.7763C30.7757 31.8046 27.5274 29.0858 24.8323 25.8612C23.4853 24.2494 22.8256 21.1007 24.3503 18.8137C25.9442 16.423 27.7272 15.468 29.9483 13.6888C30.7728 13.0413 30.8525 12.1718 30.876 11.1384L24.985 15.4426L24.948 15.3922L24.9394 15.3986L24.8654 15.2974L30.8815 10.9022V10.89C31.9573 9.59402 32.0784 8.9144 32.018 7.96004L24.1106 13.737L24.0017 13.5879L32.0016 7.74282V7.73832C32.8509 6.74669 33.2587 5.57735 33.0848 4.71875C28.3458 8.19237 23.6074 11.6663 18.869 15.1399L20.3751 20.4406C16.9279 18.5332 14.1695 15.4638 12.6046 10.8633C12.1088 9.4054 11.541 8.45747 10.195 8.81511L5.43634 5.07993Z" fill="white"/>
</svg>
