<svg width="40" height="40" viewBox="0 0 40 40" fill="none" xmlns="http://www.w3.org/2000/svg">
<path fill-rule="evenodd" clip-rule="evenodd" d="M11.1806 10.543L10.7796 11.0273H18.6201L18.1933 10.543H11.1806ZM7.97234 11.3594L7.63385 11.75H19.3008L18.9586 11.3594H7.97234ZM7.678 12.0586L8.17102 12.5625H13.7451L14.2234 12.0586L7.678 12.0586ZM20.4119 12.8945L9.78253 12.9023L10.1652 13.3125H20.7798L20.4119 12.8945ZM10.2903 13.6172C10.2903 13.6172 10.3433 13.7799 10.3528 13.8867C10.3672 14.024 10.3528 14.168 10.3528 14.168H12.2256L12.7333 13.6172H10.2903ZM10.2903 14.4531L9.98857 14.8906H22.2773L21.8762 14.4531H10.2903ZM9.71262 15.1562L9.21224 15.6602H10.9967L11.3462 15.1562H9.71262ZM8.88479 16L8.55366 16.3984H23.6864L23.3443 16H8.88479ZM8.34762 16.7187C8.34762 16.7187 8.23182 16.8581 8.15997 16.9648C8.08816 17.0767 8.02752 17.2656 8.02752 17.2656H10.4595C10.4595 17.2656 10.4786 17.0767 10.5074 16.9648C10.5409 16.8581 10.5699 16.7187 10.5699 16.7187H8.34762ZM7.89139 17.5508C7.89139 17.5508 7.84474 17.6381 7.79205 17.75C7.73937 17.8568 7.70375 17.957 7.70375 17.957H25.1839L24.8049 17.5508H7.89139ZM7.5897 18.2734C7.5897 18.2734 7.51909 18.417 7.49035 18.539C7.45683 18.6611 7.42781 18.8008 7.42781 18.8008H10.4963C10.4963 18.8008 10.486 18.6689 10.4669 18.5469C10.4429 18.4299 10.4448 18.2734 10.4448 18.2734H7.5897ZM7.36526 19.1055C7.36526 19.1055 7.32187 19.2084 7.30271 19.3203C7.27877 19.4271 7.26959 19.5273 7.26959 19.5273H26.6446L26.3061 19.1055H7.36526ZM7.2512 19.8437C7.2512 19.8437 7.23759 19.9912 7.2328 20.1133C7.22323 20.2353 7.21809 20.3711 7.21809 20.3711H11.1806L10.8164 19.8437H7.2512ZM7.22544 20.6914C7.22544 20.6914 7.23649 20.8108 7.23649 20.9023C7.23649 20.9888 7.24017 21.0859 7.24017 21.0859H28.1347L27.8146 20.6914L7.22544 20.6914ZM7.28064 21.414C7.28064 21.414 7.2946 21.5948 7.31376 21.6914C7.3329 21.7931 7.38366 21.9531 7.38366 21.9531H13.333C13.333 21.9531 13.0118 21.8009 12.7627 21.6992C12.5137 21.6026 12.2256 21.414 12.2256 21.414H7.28064ZM19.7864 21.4258L19.2897 21.9531H22.7997L22.3104 21.4258H19.7864ZM7.4646 22.2929C7.4646 22.2929 7.48148 22.3905 7.5198 22.4922C7.56289 22.5888 7.5897 22.664 7.5897 22.664H29.6579L29.2642 22.2929H7.4646ZM3.46157 22.9844L3.04214 23.4687H24.3266L24.7645 22.9844L3.46157 22.9844ZM2.99799 23.8281L3.36224 24.2266H31.1038L30.7212 23.8281H2.99799ZM8.57574 24.5586L8.9363 25.0195H25.7027L25.2464 24.5586H8.57574ZM3.64921 24.5664L4.08336 25.0039H5.59185L5.14667 24.5664H3.64921ZM4.48808 25.4101L4.85969 25.7891H6.30564L6.00026 25.4101H4.48808ZM9.34839 25.4219C9.34839 25.4219 9.46378 25.5214 9.56915 25.5977C9.6697 25.6739 9.79358 25.7891 9.79359 25.7891H32.6013L32.2738 25.4219H9.34839ZM5.14667 26.1367L5.62866 26.6094H7.11508L6.66252 26.1367L5.14667 26.1367ZM10.2903 26.1367C10.2903 26.1367 10.4868 26.2588 10.7023 26.3555C10.9226 26.4571 11.3057 26.6094 11.3057 26.6094H15.4964L16.4273 26.1367L10.2903 26.1367ZM22.5275 26.1367C22.5275 26.1367 22.5899 26.235 22.6857 26.3672C22.7767 26.4994 22.8733 26.6055 22.8733 26.6055L27.2148 26.6016L26.7586 26.1367H22.5275ZM5.95611 26.9922L6.32036 27.3594H7.78838L7.42412 26.9922H5.95611ZM23.2229 26.9922L23.749 27.3672H34.0546C34.0546 27.3672 33.991 27.2552 33.9479 27.1992C33.9048 27.1484 33.7713 26.9922 33.7713 26.9922H23.2229ZM24.1647 27.6992C24.1647 27.6992 24.3532 27.8323 24.5879 27.9492C24.8273 28.0712 25.2796 28.2109 25.2796 28.2109H34.1797C34.1797 28.2109 34.0823 28.0802 34.0104 28.0039C33.9386 27.9276 33.7087 27.6992 33.7087 27.6992L24.1647 27.6992ZM6.64413 27.7109L7.10771 28.1914H8.59781L8.11582 27.7109L6.64413 27.7109ZM7.42781 28.5312L7.72583 28.8945H9.238L8.90687 28.5312L7.42781 28.5312ZM30.2576 28.5742C30.2576 28.5742 30.5139 28.6542 30.9162 28.7305C31.3184 28.8067 32.031 28.9609 32.031 28.9609H35.5704L35.243 28.5742H30.2576ZM8.09743 29.2656L8.59781 29.7734H9.2564V29.2656H8.09743ZM33.1311 29.3008L33.9405 29.8203H35.644L35.1988 29.3008L33.1311 29.3008ZM8.87375 30.1133L9.26744 30.5117V30.1133H8.87375ZM34.7426 30.1797C34.7426 30.1797 34.8903 30.2753 35.0627 30.3516C35.2399 30.4278 35.5815 30.543 35.5815 30.543H36.998L36.7294 30.1797H34.7426Z" fill="#D40000"/>
</svg>
