<svg width="40" height="40" viewBox="0 0 40 40" fill="none" xmlns="http://www.w3.org/2000/svg">
<g clip-path="url(#clip0_124_3384)">
<path fill-rule="evenodd" clip-rule="evenodd" d="M14.8836 6.98015C15.2033 7.59048 14.9127 8.25885 14.564 8.6658C13.7794 9.07257 13.8085 10.0606 13.2273 10.6711C13.0819 11.3685 12.4716 11.7462 12.4427 12.5599C12.1812 12.8796 12.0939 13.3156 12.0939 13.8386C11.4547 14.3036 11.4547 15.2625 11.2222 16.0473C10.8443 17.849 10.5829 19.6798 10.1178 21.3653C10.0015 21.9758 9.82723 22.6152 9.9724 23.2836C9.79795 24.3586 9.53653 25.405 9.56563 26.6544C9.50759 26.9162 9.42028 27.1195 9.15886 27.2645C9.01351 27.3228 8.75208 27.3228 8.66477 27.2067C8.31604 26.7415 8.40335 25.9567 8.11265 25.4628C7.58946 23.3411 7.21162 21.1326 6.97913 18.8659L6.83378 18.3719L6.74664 18.401C6.33986 19.2147 6.04916 20.0573 5.70043 20.8712C5.55508 21.0164 5.35169 21.2782 5.06116 21.1326C4.85778 21.0162 4.71243 20.8712 4.77064 20.5514C5.29365 18.6333 6.10754 16.9478 6.57235 15.0298C6.7177 14.8554 7.06644 14.8554 7.32803 14.9136C7.90926 15.0589 7.58946 15.9598 7.73481 16.4537C8.17069 18.3137 8.22889 20.377 8.72281 22.2371C8.89726 22.2662 8.9262 22.0624 8.9844 21.9465C9.44939 20.2318 9.76902 18.401 10.1758 16.6282C10.4954 15.6691 10.4083 14.4197 11.0186 13.722C11.5416 11.8912 12.21 10.1766 12.7332 8.28761C12.9076 7.56104 13.1692 6.83463 14.0119 6.57304C14.3896 6.54427 14.7092 6.74766 14.8836 6.98015ZM22.5848 11.6589C22.7303 12.0948 22.4105 12.2401 22.3233 12.5016C22.12 12.5889 21.8585 12.6471 21.7132 12.5307C21.4518 12.3562 21.3936 12.0366 21.4809 11.7169C21.5678 11.5716 21.7132 11.3973 21.9166 11.3391C22.2364 11.2812 22.4687 11.5137 22.5848 11.6589ZM25.6654 12.8796C26.0432 13.5188 25.7818 14.3036 25.7818 15.0591C25.6363 15.437 25.8396 15.8146 26.2175 15.9891C26.77 16.0762 27.2346 15.6695 27.6706 15.437C28.4263 15.1173 29.1234 14.042 30.0538 14.6813C30.4312 15.0009 30.2861 15.5532 30.228 16.0473C30.0538 16.2507 29.8211 16.4251 29.5306 16.5123H28.5426C26.5082 17.5585 24.445 18.6629 22.614 19.8834C21.3353 20.3773 20.8414 21.4817 19.6208 22.0628C19.4174 22.3245 19.0395 22.4988 19.0106 22.8767C19.2722 23.6032 18.8653 24.3295 19.0397 25.1143C19.1851 25.8408 19.2722 26.5965 19.2722 27.4101C19.3593 28.34 19.8534 28.9211 20.0277 29.7641C20.0277 30.0837 19.7952 30.3453 19.4465 30.4324C19.156 30.5198 18.8072 30.4616 18.5747 30.3451C18.2842 29.6186 18.3713 28.6304 18.1389 27.962C18.1678 26.7124 18.1098 26.0149 17.9064 24.9109L17.7901 23.4868C17.703 23.3413 17.4994 23.4286 17.4123 23.4868C16.1336 24.1843 15.465 25.3466 14.3608 26.1605C14.0701 26.7706 13.3437 27.1195 12.8787 27.6133C12.1812 28.5145 11.2222 29.212 10.3504 29.9673C10.0888 30.0546 9.74008 30.2578 9.50759 29.9673C9.39135 29.8512 9.33314 29.7059 9.30421 29.5025C9.56563 28.8341 10.2051 28.4563 10.67 27.9038C11.2513 27.1776 12.4427 26.8579 12.9076 26.0732C13.2564 25.5501 13.9247 25.2884 14.4188 24.8818C14.8258 24.3293 15.465 23.8356 16.1334 23.3995C16.5693 22.7603 17.2087 22.2081 17.848 21.743C17.9351 21.656 17.9062 21.4233 17.848 21.3073C17.6155 21.4233 17.3539 21.743 16.9762 21.656C16.1045 21.336 16.1334 20.3482 16.0754 19.4763C16.2498 18.7497 16.4821 18.0522 16.5986 17.2967C16.8309 16.7446 17.0344 16.1925 17.4703 15.7564C17.6737 15.6402 18.0224 15.6402 18.2549 15.7855C18.4874 15.9889 18.5165 16.4539 18.3712 16.7446C17.6446 17.384 17.4121 18.4011 17.4412 19.4764C17.5284 19.5636 17.5866 19.4473 17.6446 19.4182C17.9642 18.4011 18.4292 17.4421 18.7488 16.3959C18.8651 16.1634 19.2138 16.1053 19.4754 16.1925C19.7951 16.3378 19.8533 16.6575 19.8533 16.9771C19.6788 18.0524 19.4174 19.0695 19.3592 20.232L19.4754 20.4643C20.6959 20.0573 21.3353 19.0693 22.5271 18.5754C23.1372 18.0231 23.8636 17.6746 24.5611 17.1805C24.6775 16.9771 24.445 16.8899 24.3868 16.7446C24.2122 16.1343 24.5611 15.7275 24.532 15.1752L24.5033 15.1461C23.7767 15.6984 23.602 16.6864 23.3697 17.5581C23.2533 17.7035 23.2242 17.9069 22.9628 17.9649C22.614 18.0521 22.3235 17.8196 22.1783 17.6453C21.9457 16.7153 22.4398 16.0178 22.3817 15.0879C22.6432 14.5647 22.614 13.8383 23.1665 13.5476C23.457 13.4313 23.6895 13.6347 23.9219 13.6929C24.3867 13.3445 24.8518 12.3273 25.6654 12.8796Z" fill="#C82A38"/>
<path fill-rule="evenodd" clip-rule="evenodd" d="M21.7421 14.7104C21.9164 15.2336 21.5098 15.437 21.4807 15.8729C21.4516 16.2796 21.2189 16.6284 21.2771 16.9771C21.248 17.4421 21.3936 17.849 21.0738 18.2267C20.8995 18.3721 20.6086 18.4012 20.4054 18.343C19.5917 17.8489 20.1731 17.0932 20.1149 16.3377C20.3472 15.7564 20.4054 15.059 20.7832 14.594C21.0155 14.3035 21.5675 14.4199 21.7421 14.7104ZM12.7041 15.9309C12.8785 16.0763 12.8494 16.5702 12.7621 16.7446C12.5877 16.9191 12.3843 17.0934 12.0938 17.0062C11.8032 16.9191 11.6579 16.7157 11.6288 16.425C11.745 16.1634 11.6868 15.6984 12.0938 15.6404C12.3845 15.5822 12.5587 15.7275 12.7041 15.9309ZM15.6683 17.5874C15.7554 17.7908 15.6683 18.0524 15.552 18.2558C15.4067 18.6626 14.6803 18.5463 14.5929 19.0115C14.5347 19.767 14.8254 20.7841 14.0989 21.0455C13.7501 21.1328 13.4885 21.0164 13.3432 20.7841C13.1978 20.5518 13.256 20.0866 13.256 19.7961C13.2271 19.2149 13.3142 18.6045 13.3723 18.0233C14.0698 17.7037 13.8664 16.7446 14.5928 16.5121C15.2615 16.5412 15.3195 17.2098 15.6683 17.5874ZM12.675 18.2849C12.8784 18.5174 12.9073 18.9824 12.7912 19.2729C12.1811 19.8832 12.3553 21.1911 12.3845 22.0626C12.3264 22.3244 12.1811 22.586 11.8904 22.6728C11.5416 22.7892 11.2511 22.5567 11.1347 22.3244C10.6406 21.2782 11.3672 20.4061 11.3963 19.389C11.4543 18.924 11.6868 18.5754 11.8904 18.1685C12.0648 17.878 12.5587 18.0524 12.675 18.2849ZM20.9573 22.8476H23.1662L22.9044 23.3995H21.4516L21.2479 23.8938H22.6139L22.3814 24.475H21.0155L20.8122 24.9688H22.3232L22.0035 25.6082H19.766L20.9573 22.8476ZM24.2702 25.6082H23.5728L23.4858 24.9688L22.8465 25.6082H22.1782L23.2822 24.5331L23.0208 23.632H23.7183L23.7765 24.1843L24.3576 23.632H25.0841L24.0379 24.5913L24.2702 25.6082ZM25.7236 23.8647H25.6945L25.7818 23.632H25.2004C25.1425 23.7776 25.1134 23.8938 25.0552 24.039L24.0672 26.3348H24.6484L25.0845 25.3177C25.1136 25.5503 25.3459 25.6082 25.5784 25.6082C26.1596 25.6082 26.6246 25.1143 26.8283 24.6204C27.0026 24.2134 27.0026 23.8065 26.6828 23.632H26.0726C25.9417 23.6851 25.823 23.7643 25.7236 23.8647ZM26.1593 24.6204C26.0432 24.8818 25.8687 25.1434 25.5491 25.1434C25.2877 25.1434 25.3457 24.8529 25.433 24.6204C25.52 24.4168 25.7527 24.097 26.0143 24.097C26.3337 24.097 26.2464 24.3877 26.1593 24.6204ZM27.8447 23.9808L27.9612 23.632H27.4381C27.3799 23.7776 27.3217 23.952 27.2926 24.039L26.6243 25.6082H27.2055L27.6124 24.6204C27.6706 24.504 27.7288 24.3877 27.8447 24.2716C27.9321 24.1843 28.1062 24.1552 28.1935 24.1261H28.4549L28.6585 23.6319H28.3679C28.1935 23.6902 28.0194 23.8065 27.8447 23.9808ZM28.3972 24.6204C28.1354 25.2884 28.2808 25.5794 28.9784 25.5794C29.4145 25.5794 29.792 25.4921 30.0538 24.998H29.5304C29.4143 25.2016 29.2108 25.1727 29.0656 25.1727C28.891 25.1727 28.8329 25.0271 28.9492 24.7657H30.2279C30.2861 24.6493 30.3443 24.5334 30.3734 24.3879C30.4021 24.2718 30.4313 24.1556 30.4313 24.0391C30.4021 23.8358 30.3152 23.7195 30.1698 23.6322H29.4145C28.9783 23.7774 28.6004 24.1552 28.3972 24.6204ZM29.7918 24.3877H29.0947C29.2108 24.1554 29.4143 24.039 29.6177 24.039C29.8211 24.039 29.8791 24.1552 29.7918 24.3877ZM30.693 24.1552C30.5184 24.6204 30.8091 24.7073 31.1578 24.7945C31.2742 24.8236 31.5066 24.8818 31.4484 25.0559C31.3905 25.2014 31.245 25.2595 31.0709 25.2595C30.8962 25.2595 30.8091 25.1722 30.8962 24.9686H30.3441C30.1406 25.4629 30.4893 25.6079 30.9543 25.6079C31.303 25.6079 31.8842 25.4336 32.0583 24.9977C32.378 24.2715 31.1866 24.4456 31.303 24.1551C31.3612 24.0095 31.4773 23.9804 31.6226 23.9804C31.7678 23.9804 31.855 24.0386 31.7969 24.1551H32.3494C32.4364 23.8936 32.3494 23.719 32.1748 23.6317H31.3903C31.0996 23.7192 30.8091 23.8938 30.693 24.1552ZM32.6401 24.1552C32.4365 24.6204 32.7562 24.7073 33.0758 24.7945C33.1922 24.8236 33.4536 24.8818 33.3667 25.0559C33.3085 25.2014 33.1631 25.2595 32.9888 25.2595C32.8433 25.2595 32.7271 25.1722 32.8142 24.9686H32.2621C32.0585 25.4629 32.4073 25.6079 32.8722 25.6079C33.2501 25.6079 33.8022 25.4336 34.0058 24.9977C34.2963 24.2715 33.1046 24.4456 33.2501 24.1551C33.3083 24.0095 33.3953 23.9804 33.5406 23.9804C33.686 23.9804 33.7729 24.0386 33.744 24.1551H34.2673C34.3543 23.8936 34.2965 23.719 34.0927 23.6317H33.3083C33.047 23.7192 32.7562 23.8938 32.6401 24.1552ZM27.9903 31.6821L26.9732 31.1008L27.3801 30.8103L28.5424 30.9846L29.5015 29.8802C29.6179 29.735 29.9084 29.5027 29.705 29.299C29.6468 29.2407 29.5304 29.1829 29.4145 29.0956L28.8043 28.7468L27.0024 28.0494L27.148 27.9329C27.2349 27.846 27.3513 27.7006 27.4673 27.7006C27.5546 27.6715 27.9324 27.7588 28.0197 27.7879L28.3393 27.817L28.7754 27.8752L29.1529 27.9331L29.3275 27.7588C29.4148 27.6715 29.5889 27.4101 29.7345 27.5554C29.8505 27.6715 29.7632 27.7588 29.7054 27.846L29.5889 27.9911L31.1291 28.2238L31.2746 28.0783L32.0303 27.439C32.1754 27.3517 32.5533 26.9739 32.7565 27.1776C32.902 27.3519 32.5822 27.7297 32.4951 27.846L32.0881 28.3108L31.6524 28.7759L31.8847 30.3161L31.9721 30.2287C32.059 30.1709 32.1754 30.0254 32.2917 30.1418C32.4369 30.287 32.2335 30.4032 32.1462 30.5196L31.9139 30.723L31.9721 31.1299L32.0012 31.5657L32.059 31.8853C32.0881 32.0017 32.1172 32.2922 32.1172 32.4086C32.1172 32.5538 32.0012 32.6701 31.8849 32.7574L31.7685 32.8735L30.9841 30.8685L30.7514 30.4616C30.6935 30.3452 30.6353 30.2289 30.548 30.1419C30.3446 29.9673 30.112 30.2289 29.9668 30.3743L29.0077 31.1882L28.8622 31.3042L29.0077 32.4669L28.7172 32.8444L28.1358 31.8276L27.8453 31.9728L27.9903 31.6821Z" fill="#C82A38"/>
<path d="M34.6353 22.3614C34.6029 22.5309 34.5701 22.7007 34.2314 22.636C33.8925 22.5711 33.9252 22.4013 33.9575 22.2318C34.0253 21.8781 34.0743 21.5116 34.107 21.131C34.1393 20.7497 34.1541 20.3746 34.1541 20.0006C34.1541 16.2468 32.6329 12.8545 30.174 10.4008C27.7119 7.94373 24.309 6.42604 20.5506 6.42604C19.8846 6.42604 19.2298 6.46969 18.5903 6.56026C17.9696 6.64754 17.3564 6.78227 16.7563 6.96327C16.5909 7.01326 16.4255 7.06325 16.3255 6.73232C16.2257 6.40138 16.3911 6.35139 16.5565 6.3014C17.1912 6.11067 17.8395 5.96873 18.4958 5.87683C19.1766 5.78114 19.8632 5.73355 20.5506 5.73439C24.4973 5.73439 28.0725 7.32946 30.6602 9.91186C33.246 12.4922 34.8455 16.0573 34.8455 20.0004C34.8455 20.4111 34.8308 20.8064 34.7985 21.1877C34.7647 21.5815 34.7102 21.9733 34.6353 22.3614ZM11.377 30.9295C11.245 30.8182 11.1128 30.7068 11.3355 30.4433C11.5583 30.1798 11.6904 30.2911 11.8224 30.4025C13.0316 31.4217 14.411 32.2197 15.8972 32.76C17.3488 33.2876 18.918 33.5752 20.5508 33.5752C21.5977 33.5752 22.6079 33.4592 23.5732 33.2412C24.5651 33.0162 25.5289 32.6816 26.4468 32.2435C26.6026 32.1688 26.7587 32.0947 26.9071 32.4066C27.0555 32.7186 26.8998 32.7929 26.7436 32.867C25.7793 33.327 24.7666 33.6781 23.7245 33.9139C22.6829 34.1489 21.6184 34.2673 20.5506 34.2667C18.8835 34.268 17.229 33.9774 15.6621 33.408C14.0992 32.8399 12.6487 32.001 11.377 30.9295Z" fill="#C82A38"/>
</g>
<defs>
<clipPath id="clip0_124_3384">
<rect width="33" height="33" fill="white" transform="translate(3.30157 3.5)"/>
</clipPath>
</defs>
</svg>
