<svg width="40" height="40" viewBox="0 0 40 40" fill="none" xmlns="http://www.w3.org/2000/svg">
<path d="M6.98645 27.8631C6.98645 27.8631 16.5776 29.2451 20.154 33.4721L22.1047 32.0902C22.1047 32.0089 15.9274 25.0993 6.98645 27.8631Z" fill="#009FE3"/>
<path d="M20.3166 30.4509C20.3166 30.4509 26.8191 25.4922 33.4841 28.1748C33.4841 28.1748 27.957 27.8496 22.1048 32.0767L20.3166 30.4509Z" fill="#F9B000"/>
<path d="M22.5112 25.9936L29.1763 8.59766C29.1763 8.59766 29.8265 16.9705 28.2009 20.1408C28.2009 20.1408 27.4694 22.0104 25.0309 23.4737C25.1122 23.4737 23.5679 24.3679 22.5112 25.9936Z" fill="url(#paint0_linear_124_3396)"/>
<path d="M26.8192 21.7655L23.2428 24.1229L23.4054 23.7978L26.8192 21.7655ZM27.2256 20.7901L23.6492 23.1475L23.8118 22.8223C23.8118 22.741 26.0876 21.2778 27.2256 20.7901ZM27.632 19.5707L24.0556 21.9281L24.2182 21.603L27.632 19.5707ZM28.1197 18.2701L24.5433 20.7088L24.7059 20.3836L28.1197 18.2701ZM28.2822 17.2133L24.9497 19.8146L25.1123 19.4894C25.031 19.4894 26.5753 18.2701 28.2822 17.2133ZM28.3635 16.3191L25.3561 18.6765L25.5187 18.3514L28.3635 16.3191ZM28.1197 15.5062L25.8438 17.4572L26.0064 17.132C26.0064 17.132 26.9004 16.3191 28.1197 15.5062ZM28.5261 14.4495L26.2502 16.4004L26.4128 16.0753C26.4128 15.994 27.3881 15.1811 28.5261 14.4495ZM28.5261 13.2301C28.5261 13.2301 27.1443 14.4495 26.8192 15.0185L26.9817 14.6933C26.9817 14.612 27.5507 13.9617 28.5261 13.2301ZM28.6886 12.3359L27.2256 13.7992L27.3881 13.474C27.3881 13.474 27.632 13.1488 28.6886 12.3359Z" fill="#2BA937"/>
<path d="M24.218 27.0544L36.7352 13.3164C36.7352 13.3164 34.2968 21.3641 31.6958 23.7215C31.6958 23.7215 30.314 25.1847 27.5505 25.6724C27.5505 25.6724 25.7623 25.835 24.218 27.0544Z" fill="url(#paint1_linear_124_3396)"/>
<path d="M29.7453 24.6148C29.7453 24.6148 26.0877 25.1839 25.6 25.509L25.8438 25.2651L29.7453 24.6148ZM30.4768 23.8832C30.4768 23.8832 26.8192 24.4522 26.3315 24.7774L26.5753 24.5335L30.4768 23.8832ZM31.3709 22.9077C31.3709 22.9077 27.7133 23.4768 27.2256 23.8019L27.4694 23.5581L31.3709 22.9077ZM32.265 21.851C32.265 21.851 28.6074 22.5013 28.0384 22.8265L28.2823 22.5826C28.2823 22.6639 31.0458 22.0136 32.265 21.851ZM32.7527 20.9568L28.6887 22.1761L28.9325 21.9323L32.7527 20.9568ZM33.2404 20.1439L29.5828 21.282L29.8266 21.0381C29.8266 20.9568 31.8586 20.3878 33.2404 20.1439ZM33.2404 19.331C33.2404 19.331 30.9645 19.9813 30.3956 20.3065L30.6394 20.0626C30.6394 20.0626 31.8586 19.5749 33.2404 19.331ZM34.0532 18.4368C34.0532 18.4368 31.7773 19.0871 31.2084 19.4123L31.4522 19.1684C31.4522 19.1684 32.7527 18.6807 34.0532 18.4368ZM34.4596 17.2988L32.1837 18.2742L32.4276 18.0304C32.5089 18.0304 33.3217 17.6239 34.4596 17.2988ZM34.9473 16.4859C34.9473 16.4859 33.5655 17.0549 33.0778 17.3801L33.3217 17.1362C33.3217 17.1362 33.6468 16.9736 34.9473 16.4859ZM29.1763 11.0395L27.7133 12.5027L27.8758 12.1775C27.8758 12.1775 28.1197 12.0149 29.1763 11.0395ZM29.0138 10.2266C29.0138 10.2266 28.6887 10.7143 28.2823 11.202L28.4448 10.8769C28.4448 10.7956 28.7699 10.4704 29.0138 10.2266Z" fill="#2BA937"/>
<path d="M20.2354 25.8382V7.22266C20.2354 7.22266 23.8118 14.7827 23.4867 18.3595C23.4867 18.3595 23.4054 20.3918 21.7798 22.5866C21.7798 22.5866 20.5605 23.8873 20.2354 25.8382Z" fill="url(#paint2_linear_124_3396)"/>
<path d="M22.6738 20.3009C22.6738 20.3009 20.398 23.1461 20.2354 23.7964V23.4712C20.2354 23.39 21.861 21.1951 22.6738 20.3009ZM22.6738 19.2442C22.6738 19.2442 20.398 22.0893 20.2354 22.7396V22.4145C20.2354 22.3332 21.861 20.1384 22.6738 19.2442ZM22.6738 17.9435C22.6738 17.9435 20.398 20.7887 20.2354 21.439V21.1138L22.6738 17.9435ZM22.6738 16.6429L20.2354 20.2197V19.8945C20.2354 19.8132 21.861 17.4558 22.6738 16.6429ZM22.43 15.5861C22.43 15.5861 20.398 18.5939 20.2354 19.2442V18.919C20.2354 18.8377 21.2921 17.1306 22.43 15.5861ZM22.1862 14.692L20.2354 17.9435V17.6184L22.1862 14.692ZM21.6985 14.0416L20.2354 16.6429V16.3178C20.2354 16.3178 20.8857 15.1797 21.6985 14.0416ZM21.6985 12.8223L20.2354 15.4236V15.0984C20.2354 15.0984 20.8857 13.9604 21.6985 12.8223ZM21.2108 11.7655C21.2108 11.7655 20.398 13.3913 20.2354 14.0416V13.7165C20.2354 13.6352 20.5605 12.741 21.2108 11.7655ZM21.0482 10.7901C21.0482 10.7901 20.398 12.0907 20.2354 12.741V12.4158C20.2354 12.4158 20.398 12.0094 21.0482 10.7901ZM21.0482 9.40813C21.0482 9.40813 20.398 10.7088 20.2354 11.3591V11.0339C20.2354 11.0339 20.398 10.7901 21.0482 9.40813ZM20.5605 8.75781L20.2354 9.89587V9.57071C20.2354 9.48942 20.4793 9.08297 20.5605 8.75781Z" fill="#2BA937"/>
<path d="M17.9596 26.0061L11.2945 8.69141C11.2945 8.69141 10.6443 17.0642 12.2699 20.2345C12.2699 20.2345 13.0014 22.1042 15.4399 23.5674C15.3586 23.4861 16.9842 24.3803 17.9596 26.0061Z" fill="url(#paint3_linear_124_3396)"/>
<path d="M13.6516 21.7655L17.2279 24.1229L17.0654 23.7978C17.0654 23.7978 14.7895 22.2533 13.6516 21.7655ZM13.3264 20.7901L16.9028 23.1475L16.7403 22.741L13.3264 20.7901ZM12.8388 19.5707L16.4151 21.9281L16.2526 21.603L12.8388 19.5707ZM12.4324 18.2701L16.0087 20.7088L15.8462 20.3836C15.7649 20.3836 13.489 18.8391 12.4324 18.2701ZM12.1885 17.2133C12.1885 17.2133 15.1959 19.3268 15.521 19.8146L15.3585 19.4894C15.4398 19.4894 13.8954 18.2701 12.1885 17.2133ZM12.1072 16.3191L15.1146 18.6765L14.9521 18.3514C15.0333 18.3514 13.3264 17.0507 12.1072 16.3191ZM12.4324 15.5062L14.7082 17.4572L14.5457 17.132L12.4324 15.5062ZM11.9447 14.4495L14.2205 16.4004L14.058 16.0753C14.1393 15.994 13.0826 15.1811 11.9447 14.4495ZM11.9447 13.2301C11.9447 13.2301 13.3264 14.4495 13.6516 15.0185L13.489 14.6933C13.5703 14.612 13.0013 13.9617 11.9447 13.2301ZM11.7821 12.3359L13.2452 13.7992L13.0826 13.474C13.1639 13.474 12.8388 13.1488 11.7821 12.3359Z" fill="#2BA937"/>
<path d="M16.2525 27.0544L3.73523 13.3164C3.73523 13.3164 6.17366 21.3641 8.77466 23.7215C8.77466 23.7215 10.1564 25.1847 12.92 25.6724C12.92 25.6724 14.7082 25.835 16.2525 27.0544Z" fill="url(#paint4_linear_124_3396)"/>
<path d="M10.7253 24.6148C10.7253 24.6148 14.383 25.1839 14.8706 25.509L14.6268 25.2651L10.7253 24.6148ZM9.99378 23.8832C9.99378 23.8832 13.6514 24.4522 14.1391 24.7774L13.8953 24.5335L9.99378 23.8832ZM9.18097 22.9077C9.18097 22.9077 12.8386 23.4768 13.3263 23.8019L13.0825 23.5581L9.18097 22.9077ZM8.28687 21.851C8.28687 21.851 11.9445 22.5013 12.5135 22.8265L12.1884 22.6639L8.28687 21.851ZM7.71791 20.9568L11.782 22.1761L11.5381 21.9323L7.71791 20.9568ZM7.3115 20.1439L10.9692 21.282L10.7253 21.0381C10.7253 20.9568 8.69328 20.3878 7.3115 20.1439ZM7.3115 19.331C7.3115 19.331 9.58737 19.9813 10.1563 20.3065L9.9125 20.0626C9.83121 20.0626 8.69328 19.5749 7.3115 19.331ZM6.49869 18.4368C6.49869 18.4368 8.77456 19.0871 9.34353 19.4123L9.09968 19.1684C9.0184 19.1684 7.79919 18.6807 6.49869 18.4368ZM6.011 17.2988L8.28687 18.2742L8.04303 18.0304C8.04303 18.0304 7.23022 17.6239 6.011 17.2988ZM5.52332 16.4859C5.52332 16.4859 6.90509 17.0549 7.39278 17.3801L7.14894 17.1362C7.23022 17.1362 6.82381 16.9736 5.52332 16.4859ZM11.2943 11.0395L12.7573 12.5027L12.5948 12.1775C12.5948 12.1775 12.3509 12.0149 11.2943 11.0395ZM11.5381 10.2266C11.7665 10.563 12.0106 10.8886 12.2696 11.202L12.1071 10.8769C12.1071 10.7956 11.7007 10.4704 11.5381 10.2266Z" fill="#2BA937"/>
<path d="M20.2355 25.8382V7.22266C20.2355 7.22266 16.6591 14.7827 16.9842 18.3595C16.9842 18.3595 17.0655 20.3918 18.6911 22.5866C18.7724 22.5866 19.9103 23.8873 20.2355 25.8382Z" fill="url(#paint5_linear_124_3396)"/>
<path d="M17.7968 20.3009C17.7968 20.3009 20.0727 23.1461 20.2352 23.7964V23.4712C20.2352 23.39 18.6096 21.1951 17.7968 20.3009ZM17.7968 19.2442C17.7968 19.2442 20.0727 22.0893 20.2352 22.7396V22.4145C20.2352 22.3332 18.6096 20.1384 17.7968 19.2442ZM17.7968 17.9435C17.7968 17.9435 20.0727 20.7887 20.2352 21.439V21.1138L17.7968 17.9435ZM17.8781 16.6429L20.3165 20.2197V19.8945C20.2352 19.8132 18.6909 17.4558 17.8781 16.6429ZM18.0407 15.5861C18.0407 15.5861 20.0727 18.5939 20.2352 19.2442V18.919C20.2352 18.8377 19.2599 17.1306 18.0407 15.5861ZM18.2845 14.692L20.2352 17.9435V17.6184C20.2352 17.6184 19.1786 15.7487 18.2845 14.692ZM18.8535 14.0416L20.3165 16.6429V16.3178C20.2352 16.3178 19.6663 15.1797 18.8535 14.0416ZM18.8535 12.8223L20.3165 15.4236V15.0984C20.2352 15.0984 19.6663 13.9604 18.8535 12.8223ZM19.2599 11.7655C19.2599 11.7655 20.0727 13.3913 20.2352 14.0416V13.7165C20.2352 13.6352 19.9101 12.741 19.2599 11.7655ZM19.4224 10.7901C19.4224 10.7901 20.0727 12.0907 20.2352 12.741V12.4158C20.2352 12.4158 20.154 12.0094 19.4224 10.7901ZM19.4224 9.40813C19.4224 9.40813 20.0727 10.7088 20.2352 11.3591V11.0339C20.2352 11.0339 20.0727 10.7901 19.4224 9.40813ZM19.9101 8.75781L20.2352 9.89587V9.57071C20.2352 9.48942 19.9914 9.08297 19.9101 8.75781Z" fill="#2BA937"/>
<defs>
<linearGradient id="paint0_linear_124_3396" x1="25.7235" y1="17.2713" x2="28.9618" y2="18.4497" gradientUnits="userSpaceOnUse">
<stop offset="0.25" stop-color="#55B031"/>
<stop offset="1" stop-color="#C5D300"/>
</linearGradient>
<linearGradient id="paint1_linear_124_3396" x1="30.3783" y1="20.0765" x2="32.9697" y2="22.3474" gradientUnits="userSpaceOnUse">
<stop offset="0.25" stop-color="#55B031"/>
<stop offset="1" stop-color="#C5D300"/>
</linearGradient>
<linearGradient id="paint2_linear_124_3396" x1="20.0704" y1="16.5321" x2="23.5167" y2="16.4654" gradientUnits="userSpaceOnUse">
<stop offset="0.25" stop-color="#55B031"/>
<stop offset="1" stop-color="#C5D300"/>
</linearGradient>
<linearGradient id="paint3_linear_124_3396" x1="14.7864" y1="17.2837" x2="11.548" y2="18.4622" gradientUnits="userSpaceOnUse">
<stop offset="0.25" stop-color="#55B031"/>
<stop offset="1" stop-color="#C5D300"/>
</linearGradient>
<linearGradient id="paint4_linear_124_3396" x1="10.1321" y1="20.0765" x2="7.54057" y2="22.3474" gradientUnits="userSpaceOnUse">
<stop offset="0.25" stop-color="#55B031"/>
<stop offset="1" stop-color="#C5D300"/>
</linearGradient>
<linearGradient id="paint5_linear_124_3396" x1="20.4403" y1="16.5321" x2="16.9948" y2="16.4662" gradientUnits="userSpaceOnUse">
<stop offset="0.25" stop-color="#55B031"/>
<stop offset="1" stop-color="#C5D300"/>
</linearGradient>
</defs>
</svg>
