<svg width="40" height="40" viewBox="0 0 40 40" fill="none" xmlns="http://www.w3.org/2000/svg">
<path d="M20.4021 36.1926C13.5096 36.1926 7.90204 30.5858 7.90204 23.6941C7.90204 16.8023 13.5096 11.1953 20.4021 11.1953C27.2945 11.1953 32.902 16.8023 32.902 23.6941C32.902 30.5858 27.2946 36.1926 20.4021 36.1926Z" fill="url(#paint0_linear_124_3408)"/>
<path d="M25.4475 27.4939C21.4275 29.8114 19.479 29.7498 15.3156 27.4734C15.3156 27.7811 15.3156 28.0886 15.4386 28.3143C16.7716 29.3808 18.3713 30.5088 20.5456 30.8982C22.6784 30.468 23.0274 29.9555 24.5656 29.0324C25.0373 28.6013 25.7141 28.2118 25.4475 27.4939ZM17.8382 30.4267C16.8537 31.8624 15.7218 33.4769 15.8036 35.3434C18.3058 36.4921 22.1249 36.436 24.7709 35.3902C24.8119 33.5237 23.971 31.8215 22.8636 30.4272C21.4275 31.3498 19.2535 31.3498 17.8382 30.4267ZM16.1769 22.223C15.9106 22.4693 15.8282 22.9819 16.0332 23.3305C17.1001 23.105 18.4944 22.6947 19.7047 22.8177C19.5613 24.6842 17.1819 24.4584 16.0332 25.1353C16.8331 26.0788 18.31 25.2584 19.3764 25.5252C18.8845 26.407 18.3511 27.2272 18.1255 28.2529C19.2125 29.1962 20.1561 29.0733 20.3817 29.0733C20.6277 29.0733 21.7352 29.1349 22.5556 28.3349C22.3709 27.3092 21.9811 26.3659 21.3864 25.5252C22.535 25.1763 24.0733 26.1609 24.7707 25.1353C24.1964 24.8278 23.5199 24.8278 22.9455 24.602C21.9198 24.479 21.7352 23.4741 21.2023 22.8177C22.5356 22.5102 23.7459 23.1868 24.8532 23.3099C24.9354 20.6438 21.8586 22.8177 20.669 21.4024C22.084 21.3203 23.4787 20.7256 24.8532 21.2178C24.812 20.9517 24.9969 20.5411 24.7096 20.377C23.3355 20.0282 22.1256 20.6233 20.7307 20.1718C21.6129 19.0644 23.0483 20.0487 24.3403 19.7412C24.8737 19.7001 24.9554 18.9621 24.8737 18.5106C23.8686 19.536 22.0637 18.3054 20.772 18.7566C20.8542 18.6338 20.8542 18.4904 20.9564 18.367C21.8791 17.1979 25.0376 18.5106 24.9974 16.3775C24.9974 16.2341 24.9766 16.07 24.9356 15.9058C24.6692 14.614 24.7509 14.9009 24.3412 13.814C23.726 12.3375 21.4491 11.8656 21.0801 11.0043C20.8544 8.60464 20.7519 7.31266 20.7725 3.70312H20.424C20.4857 6.2667 20.1573 8.54316 20.0341 10.9632C19.6648 11.8248 17.3677 12.2554 16.7731 13.7524C16.3627 14.8599 16.4243 14.5521 16.1784 15.8442C16.1374 16.0494 16.1168 16.2136 16.1168 16.3775C16.1168 18.4286 19.2137 17.1569 20.1368 18.3259L20.219 18.7361C18.968 18.2028 17.4708 19.3513 16.3222 18.285C16.0964 18.5514 15.9734 18.8593 16.0556 19.1876C16.9584 20.3361 19.5219 18.6338 20.1575 20.1514C19.0707 20.4181 17.6963 20.0898 16.4043 20.1719C16.1786 20.2335 16.0144 20.3155 15.9737 20.5207C15.9532 20.7872 16.0149 20.9718 16.1379 21.1973C17.512 20.7052 18.8658 21.3204 20.2398 21.382C19.2944 22.4897 17.3461 21.5462 16.1769 22.223Z" fill="#341F14"/>
<defs>
<linearGradient id="paint0_linear_124_3408" x1="-57.9436" y1="30.5961" x2="-57.9436" y2="24.5968" gradientUnits="userSpaceOnUse">
<stop stop-color="#FFDD00"/>
<stop offset="0.25" stop-color="#FCCC00"/>
<stop offset="0.7" stop-color="#F4A000"/>
<stop offset="1" stop-color="#EE7F00"/>
</linearGradient>
</defs>
</svg>
