<svg width="40" height="40" viewBox="0 0 40 40" fill="none" xmlns="http://www.w3.org/2000/svg">
<g clip-path="url(#clip0_124_3420)">
<path d="M28.4012 16.2585H21.5899V26.5969H21.5799H18.4153V16.2314L18.3898 16.2585H11.6318L14.2556 13.582H25.7776L28.4012 16.2585ZM9.70188 22.5584C11.0518 22.2469 13.7364 21.9139 14.5067 21.8217V17.6617L9.70188 22.5584ZM14.5063 22.8898C13.4875 23.1034 9.57044 23.9348 7.84021 24.4565C6.6292 25.6905 5.7415 26.5969 5.7415 26.5969H1.49146L10.9107 16.9933H17.6809V26.5969H14.5163H14.5063V22.8898ZM25.4954 20.9642C26.2479 21.034 27.8511 21.2134 29.3577 21.5981L25.4954 17.6617V20.9642ZM25.4954 21.752V21.756V26.5969H25.4836H22.319V16.9936H29.0911L38.5084 26.5972H34.2603C34.2581 26.5972 32.436 24.7377 30.4525 22.7154C28.7014 22.0971 26.4358 21.8386 25.4954 21.752Z" fill="#FACB30"/>
</g>
<defs>
<clipPath id="clip0_124_3420">
<rect width="38" height="14.1978" fill="white" transform="translate(1 12.9023)"/>
</clipPath>
</defs>
</svg>
