<svg width="40" height="40" viewBox="0 0 40 40" fill="none" xmlns="http://www.w3.org/2000/svg">
<path d="M35 5H4V35.9014H35V5Z" fill="#FF6600"/>
<g clip-path="url(#clip0_124_3432)">
<path d="M8.38528 20.3773H6.6142C6.5337 20.3773 6.49711 20.4139 6.49711 20.4798C6.49711 20.6408 6.58493 20.7945 6.76057 20.9408C6.93622 21.0872 7.1265 21.1604 7.33142 21.1604C7.44851 21.1604 7.58756 21.1384 7.73393 21.0945C7.8803 21.0506 8.00472 20.9921 8.09986 20.9262C8.18768 20.8676 8.25355 20.8384 8.30477 20.8384C8.37064 20.8384 8.43651 20.875 8.49506 20.9555C8.56092 21.036 8.5902 21.1165 8.5902 21.2043C8.5902 21.3873 8.48042 21.5556 8.25355 21.7239C7.85835 22.024 7.39728 22.1703 6.87767 22.1703C6.35074 22.1703 5.91163 22.0166 5.55302 21.7093C5.37738 21.5556 5.23833 21.3799 5.12855 21.1677C4.98218 20.8823 4.909 20.5895 4.909 20.2748C4.909 19.8577 5.03341 19.4771 5.28956 19.1405C5.50911 18.8477 5.78722 18.6355 6.13118 18.4891C6.38733 18.3794 6.66543 18.3281 6.95817 18.3281C7.43387 18.3281 7.83639 18.4599 8.17304 18.7306C8.34137 18.8624 8.4731 19.0234 8.57556 19.2137C8.69265 19.4259 8.7512 19.6308 8.7512 19.8284C8.7512 19.9894 8.71461 20.1212 8.64874 20.2309C8.57556 20.3261 8.48774 20.3773 8.38528 20.3773ZM6.71666 19.6747H7.09722C7.25823 19.6747 7.33873 19.6015 7.33873 19.4552C7.33873 19.3234 7.30214 19.2063 7.22164 19.1258C7.14114 19.038 7.04599 19.0014 6.91426 19.0014C6.77521 19.0014 6.66543 19.06 6.58493 19.1698C6.51175 19.2722 6.47515 19.3747 6.47515 19.4844C6.47515 19.5576 6.48979 19.6089 6.52638 19.6455C6.56297 19.6601 6.62152 19.6747 6.71666 19.6747Z" fill="white"/>
<path d="M11.1374 18.3281C11.5765 18.3281 11.9424 18.4379 12.2425 18.6575C12.4035 18.7746 12.5133 18.9063 12.5791 19.06C12.645 19.2137 12.6743 19.4186 12.6743 19.682L12.6669 20.2383C12.6669 20.6261 12.6962 20.875 12.7475 20.9921C12.7767 21.0506 12.7987 21.0799 12.828 21.0945C12.8499 21.1092 12.9085 21.1238 12.989 21.1384C13.0695 21.1531 13.1061 21.2043 13.1061 21.2994C13.1061 21.4165 13.0548 21.5483 12.9597 21.6727C12.8645 21.8044 12.7401 21.9142 12.5864 22.002C12.3962 22.1118 12.1986 22.1703 11.9936 22.1703C11.7302 22.1703 11.5253 22.0825 11.3716 21.8995C11.3203 21.8337 11.2691 21.8044 11.2252 21.8044C11.174 21.8044 11.1081 21.8337 11.0276 21.8995C10.7788 22.0825 10.4934 22.1703 10.1787 22.1703C9.84933 22.1703 9.58587 22.0971 9.38095 21.9581C9.24922 21.863 9.14676 21.7459 9.06625 21.5922C8.98575 21.4458 8.94916 21.2848 8.94916 21.1238C8.94916 20.8603 9.05162 20.6334 9.26385 20.4358C9.59318 20.1212 10.0835 19.9601 10.7349 19.9601C10.8812 19.9601 10.9691 19.9455 11.0057 19.9162C11.0422 19.887 11.0642 19.8211 11.0642 19.7186C11.0642 19.4552 11.0349 19.2576 10.9837 19.1405C10.9251 19.0234 10.8373 18.9648 10.7129 18.9648C10.6397 18.9648 10.5739 18.9868 10.5153 19.0307C10.4568 19.0746 10.3836 19.1551 10.2958 19.2795C10.0762 19.5942 9.84201 19.7552 9.6005 19.7552C9.47609 19.7552 9.38095 19.7186 9.30045 19.6455C9.21994 19.5723 9.18335 19.4771 9.18335 19.36C9.18335 19.2429 9.23458 19.1185 9.32972 19.0014C9.42486 18.8843 9.55659 18.7746 9.72492 18.6867C10.1713 18.4452 10.6397 18.3281 11.1374 18.3281ZM10.8812 20.5017C10.7715 20.5017 10.6763 20.5456 10.5958 20.6334C10.5153 20.7213 10.4714 20.831 10.4714 20.9555C10.4714 21.0726 10.5007 21.175 10.5592 21.2482C10.6178 21.3214 10.691 21.358 10.7861 21.358C10.9837 21.358 11.0862 21.1897 11.0862 20.853C11.0862 20.714 11.0715 20.6261 11.0422 20.5749C11.0203 20.531 10.9617 20.5017 10.8812 20.5017Z" fill="white"/>
<path d="M14.8551 18.3354C14.9795 18.3354 15.1844 18.3647 15.4698 18.4159C15.5284 18.4233 15.5723 18.4306 15.6089 18.4306C15.6528 18.4306 15.7333 18.4086 15.8577 18.3647C15.9163 18.3428 15.9675 18.3281 16.0041 18.3281C16.1212 18.3281 16.2383 18.4013 16.3554 18.5477C16.4505 18.6648 16.531 18.7965 16.5896 18.9356C16.6481 19.0746 16.6774 19.199 16.6774 19.3015C16.6774 19.4039 16.6408 19.4844 16.5749 19.5503C16.5018 19.6162 16.4139 19.6528 16.3115 19.6528C16.2237 19.6528 16.1431 19.6308 16.0773 19.5869C16.0114 19.543 15.8943 19.4479 15.7479 19.3088C15.5869 19.1551 15.4552 19.0746 15.3528 19.0746C15.2796 19.0746 15.221 19.1039 15.1698 19.1551C15.1186 19.2063 15.0893 19.2649 15.0893 19.3381C15.0893 19.4625 15.2064 19.5723 15.4406 19.682C15.865 19.8723 16.1871 20.0772 16.4139 20.3041C16.6042 20.4944 16.6994 20.7286 16.6994 20.9994C16.6994 21.3507 16.5457 21.6361 16.2383 21.8703C15.9748 22.0752 15.6528 22.1776 15.2722 22.1776C15.1771 22.1776 14.9941 22.163 14.738 22.1264C14.4965 22.0971 14.3574 22.0825 14.3282 22.0825C14.2989 22.0825 14.255 22.0898 14.2184 22.0971C14.1452 22.1045 14.094 22.1118 14.0574 22.1118C13.9403 22.1118 13.8451 22.0825 13.7793 22.024C13.6768 21.9288 13.5817 21.7825 13.4939 21.5849C13.406 21.3873 13.3621 21.2116 13.3621 21.0726C13.3621 20.8457 13.4499 20.7286 13.6329 20.7286C13.7061 20.7286 13.7646 20.7505 13.8232 20.7945C13.8817 20.8384 14.0061 20.9628 14.1964 21.1677C14.2989 21.2775 14.3867 21.3507 14.4526 21.3946C14.5184 21.4385 14.5916 21.4531 14.6721 21.4531C14.7526 21.4531 14.8185 21.4312 14.8697 21.3873C14.921 21.3433 14.9429 21.2848 14.9429 21.2116C14.9429 21.1018 14.8478 20.9994 14.6502 20.9042C14.2477 20.7066 13.9549 20.5017 13.7793 20.2895C13.6036 20.0772 13.5085 19.8357 13.5085 19.5576C13.5085 19.2576 13.5963 19.0014 13.7793 18.7892C14.0427 18.4964 14.4013 18.3354 14.8551 18.3354Z" fill="white"/>
<path d="M20.5931 20.2564L20.0954 21.6176C19.971 21.9543 19.8466 22.2324 19.7222 22.4446C19.5978 22.6569 19.4587 22.8398 19.2977 22.9935C18.9757 23.3009 18.5805 23.4619 18.1194 23.4619C17.7462 23.4619 17.4461 23.3667 17.2193 23.1692C17.0436 23.0155 16.9558 22.8252 16.9558 22.5983C16.9558 22.408 17.0144 22.247 17.1388 22.1153C17.2632 21.9836 17.4169 21.9177 17.5925 21.9177C17.7755 21.9177 17.9145 21.9762 18.0316 22.1007C18.0828 22.1592 18.1194 22.2031 18.1341 22.247C18.1487 22.2909 18.178 22.3861 18.2146 22.5251C18.2439 22.6349 18.3024 22.6934 18.4049 22.6934C18.4854 22.6934 18.5439 22.6569 18.6025 22.591C18.661 22.5251 18.683 22.4373 18.683 22.3422C18.683 22.2251 18.6171 22.0275 18.4854 21.7494L17.5779 19.8246C17.4827 19.627 17.4095 19.5026 17.3656 19.4514C17.3144 19.4001 17.2119 19.3416 17.0509 19.2684C16.9997 19.2464 16.9558 19.2098 16.9192 19.1513C16.8826 19.0928 16.868 19.0342 16.868 18.983C16.868 18.7634 17.0875 18.6097 17.534 18.5292C17.8267 18.478 18.1634 18.4487 18.5439 18.4487C18.8074 18.4487 19.0196 18.478 19.1733 18.5292C19.3782 18.6024 19.4807 18.7268 19.4807 18.9025C19.4807 18.9683 19.4514 19.0415 19.3929 19.122C19.3343 19.2025 19.3124 19.2757 19.3124 19.3343C19.3124 19.3928 19.327 19.4587 19.3489 19.5245C19.3782 19.5904 19.4295 19.7002 19.5173 19.8539C19.6124 20.0295 19.6929 20.1173 19.7661 20.1173C19.8466 20.1173 19.9271 20.0368 20.0076 19.8831C20.0881 19.7295 20.132 19.5831 20.132 19.4367C20.132 19.3196 20.1028 19.2245 20.0369 19.1586C19.9417 19.0488 19.8905 18.9464 19.8905 18.8659C19.8905 18.7415 19.9783 18.639 20.1467 18.5585C20.315 18.4853 20.5419 18.4414 20.8273 18.4414C21.3615 18.4414 21.625 18.5658 21.625 18.822C21.625 18.9171 21.5957 18.9903 21.5445 19.0488C21.4933 19.1074 21.3908 19.1586 21.2518 19.2098C21.1347 19.2538 21.0395 19.3269 20.9663 19.4367C20.8639 19.5904 20.7395 19.8685 20.5931 20.2564Z" fill="white"/>
<path d="M24.8813 16.8516C25.1594 16.8516 25.4449 16.8735 25.7376 16.9247C25.9718 16.9613 26.1474 17.0199 26.2499 17.0931C26.3523 17.1663 26.4036 17.2614 26.4036 17.3858C26.4036 17.4663 26.3816 17.5249 26.345 17.5688C26.3084 17.6127 26.2279 17.6639 26.1035 17.7298C25.9571 17.803 25.8766 17.8908 25.8547 17.9932C25.8327 18.0957 25.8108 18.4909 25.7961 19.1715C25.7888 19.8375 25.7815 20.2327 25.7742 20.3644C25.7669 20.4962 25.7522 20.6279 25.7303 20.7523C25.6571 21.1182 25.5107 21.4037 25.2912 21.6159C25.1082 21.7842 24.8813 21.9233 24.5959 22.0184C24.3105 22.1136 24.0178 22.1648 23.7031 22.1648C23.425 22.1648 23.1469 22.1282 22.8687 22.055C22.5906 21.9818 22.3491 21.8794 22.1442 21.7549C21.9759 21.6525 21.8368 21.5061 21.7417 21.3305C21.6392 21.1548 21.588 20.9572 21.588 20.7596C21.588 20.5108 21.6685 20.2986 21.8222 20.1376C21.9832 19.9766 22.1808 19.8887 22.415 19.8887C22.6492 19.8887 22.8468 19.9546 23.0078 20.0937C23.1688 20.2327 23.2493 20.4083 23.2493 20.6133C23.2493 20.6645 23.2347 20.7523 23.2054 20.8767C23.1981 20.8987 23.1981 20.928 23.1981 20.9572C23.1981 21.0377 23.2274 21.1036 23.2859 21.1548C23.3444 21.2061 23.4176 21.228 23.5128 21.228C23.6811 21.228 23.8128 21.1548 23.9153 21.0011C24.0178 20.8475 24.069 20.6499 24.069 20.4083L24.0617 20.0644L24.0543 19.1422C24.0324 18.586 24.0177 18.2567 24.0031 18.1543C23.9885 18.0518 23.9665 17.9713 23.9153 17.9127C23.8787 17.8615 23.8421 17.8322 23.8128 17.8176C23.7836 17.803 23.7031 17.781 23.5786 17.7444C23.5201 17.7298 23.4689 17.7005 23.425 17.642C23.381 17.5834 23.3591 17.5249 23.3591 17.459C23.3591 17.3273 23.4103 17.2175 23.5201 17.137C23.6299 17.0565 23.7982 16.9906 24.0397 16.9394C24.3178 16.8808 24.5959 16.8516 24.8813 16.8516Z" fill="white"/>
<path d="M30.07 20.3773H28.3062C28.2257 20.3773 28.1891 20.4139 28.1891 20.4798C28.1891 20.6408 28.2769 20.7945 28.4526 20.9408C28.6282 21.0872 28.8185 21.1604 29.0234 21.1604C29.1405 21.1604 29.2796 21.1384 29.4259 21.0945C29.5723 21.0506 29.6967 20.9921 29.7919 20.9262C29.8797 20.8676 29.9456 20.8384 29.9968 20.8384C30.0627 20.8384 30.1285 20.875 30.1871 20.9555C30.2529 21.036 30.2822 21.1165 30.2822 21.2043C30.2822 21.3873 30.1724 21.5556 29.9456 21.7239C29.5504 22.024 29.0893 22.1703 28.5697 22.1703C28.0428 22.1703 27.6036 22.0166 27.245 21.7093C27.0694 21.5556 26.9303 21.3799 26.8206 21.1677C26.6742 20.8823 26.601 20.5895 26.601 20.2748C26.601 19.8577 26.7254 19.4771 26.9816 19.1405C27.2011 18.8477 27.4792 18.6355 27.8232 18.4891C28.0793 18.3794 28.3575 18.3281 28.6502 18.3281C29.1259 18.3281 29.5284 18.4599 29.8651 18.7306C30.0334 18.8624 30.1651 19.0234 30.2676 19.2137C30.3847 19.4259 30.4432 19.6308 30.4432 19.8284C30.4432 19.9894 30.4066 20.1212 30.3408 20.2309C30.2676 20.3261 30.1798 20.3773 30.07 20.3773ZM28.4014 19.6747H28.7819C28.9429 19.6747 29.0234 19.6015 29.0234 19.4552C29.0234 19.3234 28.9868 19.2063 28.9063 19.1258C28.8258 19.038 28.7307 19.0014 28.599 19.0014C28.4599 19.0014 28.3501 19.06 28.2696 19.1698C28.1964 19.2722 28.1599 19.3747 28.1599 19.4844C28.1599 19.5576 28.1745 19.6089 28.2111 19.6455C28.2477 19.6601 28.3135 19.6747 28.4014 19.6747Z" fill="white"/>
<path d="M32.8577 19.3247V20.5908C32.8577 20.7445 32.8943 20.8616 32.9675 20.9567C33.0407 21.0518 33.1358 21.1031 33.2529 21.1031C33.3481 21.1031 33.4798 21.0592 33.6408 20.9713C33.6774 20.9494 33.714 20.9347 33.7506 20.9347C33.8091 20.9347 33.8677 20.9713 33.9189 21.0445C33.9701 21.1177 33.9921 21.1982 33.9921 21.2787C33.9921 21.4324 33.9043 21.5861 33.7359 21.7251C33.3773 22.0252 32.9529 22.1789 32.4406 22.1789C32.0381 22.1789 31.716 22.0691 31.4745 21.8422C31.233 21.6154 31.1086 21.3153 31.1086 20.9494V19.2149C31.1086 19.1564 31.1013 19.1198 31.0866 19.1051C31.072 19.0905 31.0354 19.0832 30.9769 19.0832H30.6036C30.5304 19.0832 30.4865 19.0685 30.4646 19.0466C30.4426 19.0246 30.4353 18.9661 30.4353 18.8783V18.7099C30.4353 18.6367 30.4646 18.5782 30.5231 18.5416L32.243 17.4585C32.2869 17.4365 32.3381 17.4219 32.404 17.4219H32.7114C32.7772 17.4219 32.8138 17.4365 32.8358 17.4658C32.8577 17.4951 32.865 17.5536 32.865 17.6341V18.1391C32.865 18.2123 32.8797 18.2635 32.9016 18.2855C32.9236 18.3074 32.9748 18.322 33.0553 18.322H33.7506C33.8457 18.322 33.9043 18.3367 33.9335 18.3733C33.9628 18.4099 33.9775 18.4757 33.9775 18.5928V18.8124C33.9775 18.9295 33.9628 19.0173 33.9262 19.0612C33.8896 19.1051 33.8238 19.1271 33.7359 19.1271H33.0553C32.9821 19.1271 32.9382 19.1417 32.9163 19.1637C32.8724 19.2076 32.8577 19.2515 32.8577 19.3247Z" fill="white"/>
</g>
<defs>
<clipPath id="clip0_124_3432">
<rect width="29.0837" height="6.52077" fill="white" transform="translate(4.90894 16.8203)"/>
</clipPath>
</defs>
</svg>
