<svg width="40" height="40" viewBox="0 0 40 40" fill="none" xmlns="http://www.w3.org/2000/svg">
<path d="M12.1873 13.4102C12.1873 13.4102 3.09822 17.75 3.61239 22.4557C3.73422 23.5727 4.4578 24.4714 5.65097 25.1648C6.79307 23.5147 7.99195 21.9122 9.22005 20.3862C8.53658 17.5492 12.1873 13.4102 12.1873 13.4102ZM10.0899 21.7901C8.62311 23.1396 7.29924 24.4247 6.24582 25.4755C8.367 26.4721 11.6264 26.9515 15.5163 26.9515C18.987 26.9515 22.9602 26.5702 27.0781 25.8338C28.8553 25.5154 30.6592 25.1312 32.4611 24.6833C33.5073 24.4226 34.5523 24.142 35.5914 23.8392C35.5914 23.8392 34.1624 23.9745 31.9691 24.1017C31.9688 24.1017 31.9687 24.1017 31.9684 24.1017C30.3512 24.1957 28.3186 24.2862 26.1368 24.3144C25.6799 24.3207 25.2155 24.3235 24.7483 24.3235C18.9061 24.3235 12.4279 23.8213 10.0899 21.7901Z" fill="#005BA9"/>
<path d="M26.3895 6.87501C23.8016 6.87465 19.9315 9.33485 15.8222 13.1953C16.8671 13.7055 17.8934 14.2291 18.8944 14.7644C20.9327 13.4789 22.8098 12.6382 24.2368 12.6382C24.291 12.6382 24.3445 12.6397 24.3978 12.6424C28.173 12.8153 28.1922 20.3008 28.1922 20.3008C28.1922 20.3008 32.0641 12.0111 28.6065 7.84289C28.0583 7.18223 27.3036 6.87501 26.3895 6.87501ZM14.7521 14.2262C12.9073 16.05 11.0322 18.1346 9.22007 20.3848C7.99197 21.9108 6.79264 23.5137 5.65098 25.1634C4.99975 26.1035 4.3674 27.0591 3.76007 28.0243C3.76007 28.0243 4.71944 26.9956 6.24583 25.4741C7.2988 24.4233 8.62337 23.1375 10.0906 21.788C12.2588 19.794 14.7386 17.6671 17.1168 15.9646C16.3124 15.3568 15.5162 14.7735 14.7521 14.2262Z" fill="#85C2EB"/>
<path d="M27.0783 25.8341C27.3251 26.3344 27.4899 26.8114 27.5571 27.2584C28.1192 30.9948 20.7788 32.4653 20.7788 32.4653C20.7788 32.4653 30.3546 33.2356 33.4306 29.841C34.5996 28.552 34.1123 26.7388 32.461 24.6839C31.5885 24.9002 30.7147 25.1027 29.844 25.2894C30.7147 25.1022 31.5885 24.9002 32.461 24.6834C32.3069 24.4917 32.143 24.2978 31.9688 24.1021C31.2866 24.1419 30.5301 24.1813 29.7199 24.2149C30.5301 24.1809 31.2866 24.1419 31.9688 24.1021C29.3571 21.1616 24.5495 17.7947 18.8941 14.766C18.8937 14.766 18.8937 14.7664 18.8937 14.7664C17.8936 14.2311 16.8675 13.7062 15.8221 13.1965C13.4403 12.0351 10.959 10.9494 8.46698 9.99219C8.46698 9.99219 11.2828 11.7417 14.7521 14.2275C15.5162 14.7753 16.3121 15.3581 17.117 15.9659H17.1166C20.5725 18.5763 24.1878 21.6453 26.1366 24.3148H26.1376C26.5201 24.8388 26.8382 25.3472 27.0783 25.8341Z" fill="#E3001D"/>
</svg>
