<svg width="40" height="40" viewBox="0 0 40 40" fill="none" xmlns="http://www.w3.org/2000/svg">
<g clip-path="url(#clip0_124_3492)">
<path fill-rule="evenodd" clip-rule="evenodd" d="M20 36.5359C29.1106 36.5359 36.5375 29.109 36.5375 19.9984C36.5375 10.8878 29.1106 3.46094 20 3.46094C10.8894 3.46094 3.46252 10.8876 3.46252 19.9984C3.46252 29.109 10.8894 36.5359 20 36.5359Z" fill="white" stroke="#F7E946" stroke-width="0.0835253" stroke-miterlimit="2.613"/>
<path fill-rule="evenodd" clip-rule="evenodd" d="M20 3.77344C11.0637 3.77344 3.77521 11.0621 3.77521 19.9982C3.77521 28.9347 11.0637 36.2228 20 36.2228C28.9361 36.2228 36.2246 28.9345 36.2246 19.9982C36.2246 11.0621 28.9361 3.77344 20 3.77344ZM20 33.4748C12.5791 33.4748 6.52355 27.4189 6.52355 19.9982C6.52355 12.5774 12.5793 6.52178 20 6.52178C27.4207 6.52178 33.4766 12.5775 33.4766 19.9982C33.4766 27.4189 27.4207 33.4748 20 33.4748Z" fill="#58A485"/>
<path fill-rule="evenodd" clip-rule="evenodd" d="M13.6797 15.1334C13.6164 15.1193 13.5511 15.1173 13.4872 15.1274C13.3521 15.1395 13.225 15.1967 13.1264 15.2897C13.0783 15.3319 13.0361 15.386 12.994 15.4281C13.0481 15.47 13.0962 15.5243 13.1623 15.5543C13.2586 15.5904 13.3728 15.6204 13.4872 15.6204C13.5774 15.6264 13.6615 15.6144 13.7398 15.5842C13.806 15.5603 13.848 15.494 13.9023 15.4459C13.9262 15.4279 13.9564 15.4157 13.9805 15.3978C13.9021 15.3079 13.8118 15.1637 13.6797 15.1334Z" fill="#CA3132"/>
<path fill-rule="evenodd" clip-rule="evenodd" d="M23.5119 8.12833C22.3722 7.78911 21.1892 7.61694 20 7.61719C18.1978 7.61532 16.4175 8.01164 14.7863 8.77783C14.3396 8.9861 13.9059 9.22106 13.4874 9.48144C13.2289 9.64288 12.9762 9.81336 12.7297 9.99258C9.63874 12.2478 7.62415 15.892 7.62415 19.9933C7.62415 24.0946 9.63874 27.7388 12.7297 29.994C12.9761 30.1733 13.2288 30.3437 13.4874 30.5049C13.9058 30.7655 14.3395 31.0004 14.7863 31.2085C16.4175 31.9748 18.1978 32.3712 20 32.3694C21.221 32.3694 22.3994 32.1889 23.5119 31.8584C28.6298 30.337 32.3761 25.5862 32.3761 19.9933C32.3761 14.4005 28.6297 9.64976 23.5119 8.12833ZM12.7295 22.4527C12.6513 22.4044 12.5792 22.3567 12.5009 22.3144C12.3566 22.2359 12.1581 22.2243 12.0138 22.3024C11.9235 22.3445 11.8634 22.4408 11.8333 22.5368C11.8213 22.5669 11.7251 22.513 11.7191 22.4286C11.7191 22.3265 11.8033 22.2303 11.7732 22.1882C11.7071 22.0981 11.4304 22.1399 11.3461 22.1762C11.1115 22.2782 11.0875 22.513 11.0454 22.7355C11.0273 22.8315 11.0093 22.9341 11.0213 23.0302C11.0273 23.1202 11.0814 23.1987 11.1115 23.2887C11.1175 23.3129 11.1355 23.349 11.1175 23.361C11.0332 23.4149 10.8769 23.2046 10.841 23.1563C10.7387 23.024 10.6605 22.9159 10.6725 22.7414C10.6784 22.6812 10.7208 22.6212 10.7208 22.555C10.7267 22.5308 10.7026 22.4769 10.6846 22.4891C10.6064 22.5248 10.5463 22.7897 10.5523 22.8558C10.5523 22.9579 10.5824 23.0605 10.6243 23.1565C10.6485 23.2168 10.7266 23.2526 10.7445 23.319C10.7565 23.3432 10.7326 23.3909 10.7084 23.385C10.6002 23.3668 10.492 23.3432 10.4077 23.2707C10.2574 23.1324 10.2214 22.886 10.2272 22.6933C10.2332 22.6334 10.2993 22.5731 10.2694 22.5188C10.2512 22.4831 10.1911 22.5671 10.1791 22.6033C10.1492 22.6993 10.1492 22.8015 10.1372 22.898C10.1312 22.976 10.119 23.0543 10.1372 23.1324C10.1673 23.2284 10.2394 23.3069 10.2815 23.4029C10.2815 23.4149 10.2755 23.4451 10.2634 23.4451C10.0709 23.4149 10.0108 23.2947 9.92672 23.1563C9.87261 23.0663 9.84247 22.9339 9.83648 22.8255C9.81233 22.4829 9.9447 22.2782 10.1492 22.0197C10.2512 21.8873 10.3534 21.7551 10.4858 21.6591C10.7805 21.4363 11.1233 21.3402 11.4901 21.3222C11.8088 21.3041 12.1274 21.3041 12.4463 21.3282C12.5425 21.3402 12.6387 21.3644 12.729 21.3885C12.7831 21.4063 12.8432 21.4243 12.9033 21.4424C13.0958 21.5027 13.2882 21.5928 13.4867 21.6531C13.7273 21.719 14.0278 21.7431 14.2624 21.8212C14.2984 21.8332 14.2804 21.9056 14.2804 21.9418C14.2864 22.0801 14.3105 22.2183 14.3766 22.3507C14.4669 22.543 14.6052 22.7053 14.7254 22.8858C14.7436 22.9099 14.7676 22.9401 14.7855 22.9639C14.996 23.2284 15.3028 23.3969 15.6153 23.5894C15.6515 23.6136 15.5492 23.6675 15.5071 23.6735C15.3628 23.6916 15.2184 23.6735 15.08 23.6553C14.9813 23.6428 14.883 23.6268 14.7853 23.6074C14.4906 23.5411 14.2081 23.4449 13.9376 23.2885C13.7824 23.1913 13.6319 23.0869 13.4865 22.9757C13.3843 22.9098 13.2881 22.8373 13.1858 22.7654C13.0362 22.6634 12.8859 22.5548 12.7295 22.4527ZM24.0953 26.0307C24.0833 26.3737 24.0294 26.1932 23.8549 26.091C23.7827 26.0427 23.7287 26.0608 23.6986 26.0489C23.6625 26.0247 23.5482 26.2114 23.5241 26.2353C23.5181 26.2353 23.5181 26.2413 23.5121 26.2413C23.422 26.3374 23.332 26.4456 23.2174 26.5179C22.7969 26.7643 22.3638 26.8006 21.8886 26.8427C21.7141 26.8605 21.534 26.8246 21.3655 26.8605C21.3172 26.8665 21.3052 27.041 21.2691 27.0833C21.2575 27.0953 21.2273 27.0833 21.2152 27.0713C21.197 27.023 21.197 26.9753 21.191 26.927C21.191 26.8485 21.1729 26.7645 21.191 26.6866C21.2629 26.416 21.4073 26.4458 21.6482 26.4398C21.7263 26.4342 21.8046 26.4699 21.8886 26.458C21.9068 26.458 21.8886 26.4162 21.8705 26.404C21.8046 26.3799 21.7381 26.3859 21.6662 26.3739C21.5878 26.3679 21.5037 26.3437 21.4194 26.3497C21.2573 26.3679 21.1549 26.4821 21.0828 26.6143C21.0467 26.6866 21.0586 26.7706 21.0225 26.8371C21.0165 26.8487 20.9807 26.8311 20.9746 26.8189C20.8961 26.6806 20.9444 26.4821 21.0225 26.3497C21.0646 26.2717 21.1069 26.1872 21.1669 26.1273C21.2751 26.0187 21.4496 26.079 21.5818 26.061C21.6842 26.055 21.5698 25.9891 21.5278 25.977C21.3835 25.9468 21.2212 25.9468 21.1008 26.0489C20.9684 26.1574 20.9203 26.3617 20.7941 26.4819C20.7821 26.4939 20.7699 26.4638 20.7639 26.4458C20.7338 26.2597 20.8182 25.9047 20.9444 25.7723C21.2451 25.4535 21.714 25.5922 22.0991 25.628C22.2314 25.64 22.3756 25.6701 22.508 25.6521C22.6222 25.634 22.7304 25.5802 22.8265 25.5197C22.995 25.4177 23.1513 25.2973 23.3017 25.1771C23.3736 25.1168 23.446 25.0565 23.5119 24.9966C23.8368 24.7261 24.1255 24.4434 24.3659 24.0824C24.5404 23.8178 24.7209 23.5171 24.6967 23.1805C24.6907 23.0785 24.6304 22.9819 24.5947 22.8858C24.4801 22.561 24.3301 22.2425 24.2397 21.9116C24.1616 21.6351 24.1195 21.3524 24.0893 21.0697C24.0833 21.0094 24.0953 20.9313 24.1436 20.9012C24.2698 20.8111 24.4263 20.7628 24.5767 20.7327C24.7568 20.7025 24.9615 20.8589 25.0817 20.9794C25.2733 21.1778 25.4539 21.3865 25.6228 21.6046C25.8455 21.8873 26.0618 22.1698 26.2545 22.4707C26.3084 22.5548 26.2123 22.7714 26.1942 22.8555C26.1521 23.024 26.074 23.1923 26.068 23.3664C26.068 23.5952 26.17 23.8115 26.1762 24.0403C26.1882 24.2627 25.9839 24.3528 25.8216 24.4432C25.4606 24.6475 25.0577 24.7858 24.721 25.0266C24.4022 25.255 24.1618 25.5074 23.9089 25.8083C23.8609 25.8686 24.0953 25.9225 24.0953 26.0307ZM29.1167 18.8926L28.7017 19.1813C28.8461 19.4578 28.8882 19.7044 28.8944 20.0049C28.9004 20.6244 28.8583 21.1717 28.8281 21.7913C28.81 22.1459 28.7079 22.4949 28.6838 22.8495C28.6596 23.1382 28.6718 23.4329 28.6898 23.7216C28.7017 24.0043 28.7862 24.3411 28.9245 24.5877C28.9845 24.6959 29.1107 24.7618 29.1709 24.8764C29.1951 24.9244 29.2309 24.9785 29.2369 25.0148C29.2488 25.0565 29.1829 25.141 29.1588 25.1949C29.0803 25.3512 28.9304 25.4836 28.8158 25.628L27.9618 26.7345L27.7154 27.1256C27.6615 27.2398 27.6194 27.3179 27.7034 27.4321C27.7637 27.4381 27.8296 27.4201 27.8598 27.4683C27.8718 27.5225 27.8779 27.5523 27.8779 27.6006C27.7577 27.5645 27.5832 27.6126 27.5413 27.5946C27.493 27.5826 27.475 27.4926 27.4327 27.4443C27.4207 27.4864 27.4026 27.4986 27.4026 27.5645C27.4026 27.6248 27.4086 27.6549 27.3909 27.733C27.3909 27.7691 27.1264 28.0638 27.03 28.1237C26.9279 28.196 26.7594 28.2741 26.6873 28.2922C26.5728 28.3224 26.4707 28.2982 26.3443 28.3042C26.2483 28.3224 26.212 28.3823 26.1281 28.4184C25.9234 28.4847 25.689 28.4486 25.4784 28.4907C25.4065 28.4967 25.3522 28.5027 25.2621 28.5446C25.2019 28.5868 25.1661 28.7493 25.0876 28.7493C24.9976 28.7071 25.0157 28.5808 25.0334 28.4967C25.0635 28.3943 25.0936 28.2262 25.1238 28.196C25.1539 28.1659 25.2923 28.0758 25.3161 28.0818C25.3462 28.0698 25.5866 28.1297 25.6108 28.0996C25.6349 28.0818 25.6469 28.0095 25.6349 28.0035C25.6229 27.9794 25.3945 27.9674 25.3101 27.9854C25.226 27.9974 25.0876 28.1056 25.0455 28.1599C24.9916 28.2202 24.9072 28.2861 24.8834 28.3344C24.8472 28.3765 24.8532 28.4787 24.8291 28.4907C24.7149 28.5268 24.7568 28.184 24.787 28.1417C24.8171 28.0878 24.889 27.9556 24.9433 27.8953C25.0036 27.835 25.0996 27.7268 25.1419 27.7148C25.1661 27.7028 25.4604 27.6967 25.4664 27.6731C25.4846 27.6549 25.4784 27.6068 25.4486 27.6008C25.3764 27.5826 25.2079 27.5826 25.0817 27.6369C24.9976 27.6671 24.9373 27.727 24.8774 27.7933C24.8111 27.8592 24.721 27.9558 24.7089 28.0217C24.7029 28.076 24.6969 28.1902 24.6727 28.2143C24.5645 28.2984 24.5645 28.0037 24.5827 27.9558C24.6366 27.8114 24.7029 27.6369 24.7929 27.5585C24.8954 27.4624 25.0036 27.3784 25.1178 27.3602C25.2923 27.3181 25.4245 27.3301 25.5688 27.3482C25.695 27.3784 25.8515 27.4503 25.9476 27.4503C26.0496 27.4684 26.1579 27.4684 26.2605 27.4443C26.3807 27.3963 26.567 27.1857 26.6813 27.0112C26.7896 26.7828 26.982 26.4821 27.1442 26.1994C27.3127 25.8508 27.463 25.5922 27.5353 25.2674C27.6072 25.0148 27.6254 24.762 27.5353 24.5095C27.2346 23.8721 26.9339 23.3129 26.5728 22.6873C26.3926 22.3748 26.206 22.05 25.9897 21.7613C25.7355 21.4182 25.4561 21.0946 25.1537 20.7931C24.7388 20.3722 24.2213 20.6126 23.8124 20.9133C23.7042 20.9918 23.6082 21.0818 23.5117 21.1779C23.4518 21.2442 23.3855 21.3103 23.3135 21.3705C23.0787 21.5748 22.8323 21.7675 22.5917 21.9656C22.3391 22.1884 22.0924 22.4106 21.8278 22.6274C21.6562 23.0878 21.3452 23.4831 20.9381 23.7581C20.3064 24.1852 19.5309 24.2451 18.8033 24.0226C18.719 23.9925 18.6348 24.0706 18.5507 24.0766C18.3944 24.0886 18.244 24.0766 18.0877 24.0766C18.1058 23.9805 18.0937 23.8905 18.1478 23.8C18.1659 23.7643 18.2019 23.7401 18.2139 23.698C18.2139 23.6738 18.1658 23.6321 18.1478 23.6497C18.0877 23.6918 18.0575 23.7643 18.0396 23.8302C17.9793 23.9865 17.9613 24.155 17.9072 24.3114C17.8534 24.472 17.7932 24.6304 17.7267 24.7862C17.6848 24.8766 17.6125 24.9547 17.5704 25.0447C17.4442 25.3093 17.3358 25.5862 17.2034 25.8508C17.0772 26.1093 16.9269 26.3497 16.7945 26.6083C16.6803 26.8311 16.5661 27.0533 16.4637 27.2818C16.4337 27.354 16.4096 27.4321 16.3856 27.5046C16.4096 27.5525 16.4217 27.6188 16.4637 27.6549C16.5058 27.6847 16.5779 27.6489 16.614 27.6847C16.6382 27.7088 16.6382 27.7933 16.62 27.841C16.5913 27.8294 16.5607 27.8233 16.5298 27.8232C16.4577 27.8232 16.3794 27.8232 16.3131 27.8051C16.2892 27.7991 16.2952 27.7568 16.2772 27.7448C16.259 27.7388 16.2291 27.7388 16.2171 27.7568C16.0727 27.9253 15.9765 28.1296 15.8202 28.2799C15.6698 28.4302 15.5015 28.5987 15.297 28.6647C15.1347 28.713 14.9604 28.713 14.7859 28.7068C14.6778 28.7008 14.5694 28.7008 14.4612 28.7068C14.2927 28.7188 14.0943 28.6766 13.9439 28.7671C13.8537 28.815 13.8898 28.9773 13.8297 29.0678C13.8116 29.0915 13.7515 29.0797 13.7455 29.0496C13.6794 28.8631 13.6131 28.5864 13.8175 28.4602C13.9138 28.3999 14.034 28.3879 14.1484 28.3641C14.1965 28.3522 14.2566 28.3698 14.3047 28.346C14.3229 28.34 14.3107 28.2917 14.2927 28.2917C14.1785 28.2797 14.0703 28.3037 13.9621 28.3158C13.7996 28.34 13.7335 28.4179 13.6434 28.5503C13.6013 28.6046 13.6013 28.6826 13.5592 28.7367C13.541 28.7549 13.4991 28.7487 13.4871 28.7307V28.7188C13.4451 28.6407 13.4028 28.5443 13.415 28.4542C13.427 28.3761 13.4511 28.3039 13.4871 28.2436C13.5226 28.1713 13.5723 28.1068 13.6332 28.0542C13.6942 28.0015 13.7652 27.9617 13.8419 27.9371C13.9381 27.9069 14.0403 27.9431 14.1366 27.9129C14.1546 27.9069 14.1486 27.8586 14.1306 27.8526C14.0102 27.8345 13.89 27.8285 13.7758 27.8646C13.6795 27.8888 13.6073 27.9667 13.5352 28.0271C13.5166 28.0379 13.5002 28.0522 13.4871 28.0693C13.439 28.105 13.3968 28.1473 13.3669 28.1955C13.3367 28.2494 13.3669 28.3278 13.3307 28.3816C13.3188 28.3997 13.2646 28.3936 13.2527 28.3696C13.2165 28.2915 13.1985 28.2015 13.2225 28.1232C13.2645 27.9669 13.3607 27.8167 13.4871 27.7023C13.5713 27.6242 13.6795 27.5579 13.7878 27.5282C13.9321 27.486 14.0885 27.498 14.2388 27.5282C14.341 27.546 14.4071 27.6605 14.5094 27.6785C14.5996 27.6963 14.6958 27.7083 14.7859 27.7023C14.852 27.7023 14.9123 27.6903 14.9724 27.6665C15.1107 27.6003 15.1948 27.4559 15.2791 27.3235C15.4294 27.071 15.5738 26.8004 15.6698 26.5177C15.7902 26.1869 15.8623 25.8322 15.9284 25.4833C16.0124 25.0502 16.0967 24.6171 16.1328 24.1784C16.1448 24.0039 16.0847 23.8295 16.0787 23.655C16.0727 23.3606 16.0727 23.0719 16.0907 22.7832C16.0967 22.6746 16.1089 22.5544 16.1568 22.4584C16.2229 22.32 16.3553 22.2299 16.4335 22.0978C16.4515 22.0556 16.4695 21.9832 16.4335 21.959C16.3854 21.9233 16.2952 21.9293 16.253 21.971C16.1207 22.1094 16.0488 22.2959 15.9523 22.4584C15.9284 22.5005 15.9042 22.5424 15.8982 22.5907C15.8862 22.8252 15.8921 23.0599 15.8921 23.2884C15.8921 23.3966 15.9342 23.4986 15.9162 23.6012C15.9102 23.6314 15.8501 23.6254 15.826 23.6072C15.5374 23.4026 15.2427 23.1923 14.9962 22.9337C14.9181 22.8553 14.8518 22.7712 14.7857 22.6808C14.6897 22.5484 14.6114 22.4043 14.5331 22.2599C14.5271 22.2479 14.4489 21.9113 14.4489 21.8811C14.4307 21.4421 14.4429 21.003 14.4429 20.5643C14.4369 19.9388 14.4549 19.3073 14.4249 18.6759C14.4129 18.4054 14.3888 18.1287 14.3107 17.8641C14.2324 17.6115 13.9619 17.2086 13.6913 17.1186C13.626 17.0947 13.5555 17.0884 13.4869 17.1004C13.4172 17.1052 13.3484 17.1193 13.2824 17.1425C13.1261 17.1966 12.9999 17.3168 12.8615 17.4011C12.8134 17.4312 12.7773 17.4794 12.7292 17.5031C12.7172 17.5031 12.711 17.5031 12.705 17.5093C12.6028 17.5273 12.4886 17.5333 12.3864 17.4973C12.3203 17.4734 12.23 17.2086 12.2961 17.1725C12.3982 17.1124 12.5367 17.1845 12.6509 17.1543C12.6749 17.1423 12.699 17.1364 12.7292 17.1244C12.8254 17.0942 12.9216 17.0401 12.9877 16.9619C13.1381 16.7875 12.9456 16.3906 12.7412 16.3365C12.7352 16.3365 12.7292 16.3365 12.7292 16.3305C12.6339 16.3085 12.5347 16.3105 12.4405 16.3365C12.4103 16.3425 12.4345 16.3966 12.4103 16.4148C12.3744 16.4329 12.3263 16.4028 12.2961 16.4268C12.26 16.4567 12.2841 16.529 12.248 16.5591C12.2119 16.5831 12.1458 16.541 12.1216 16.5771C12.0795 16.6312 12.1276 16.7155 12.1036 16.7756C12.0917 16.7995 12.0314 16.8057 12.0194 16.7816C11.9411 16.6732 11.9052 16.547 11.8631 16.4208C11.8449 16.3786 11.8028 16.3245 11.8329 16.2884C11.881 16.2343 11.9833 16.2764 12.0314 16.2221C12.0555 16.192 12.0314 16.1139 11.9894 16.1019C11.9112 16.0899 11.8331 16.2041 11.7668 16.168C11.6826 16.1259 11.6165 15.8553 11.6947 15.7892C11.8812 15.6149 12.0977 15.4766 12.3143 15.3502C12.3804 15.314 12.4646 15.3382 12.5307 15.3021C12.6028 15.2599 12.6631 15.1998 12.7292 15.1457C12.7472 15.1216 12.7711 15.1036 12.7953 15.0854C12.8973 15.0072 12.9877 14.9171 13.102 14.8449C13.1561 14.8087 13.2281 14.8147 13.2944 14.8027C13.3605 14.7907 13.4208 14.7846 13.4869 14.7726C13.547 14.7606 13.6071 14.7486 13.6732 14.7424C13.8475 14.7245 14.028 14.7183 14.2025 14.7063C14.2566 14.7003 14.3527 14.7245 14.3648 14.6943C14.4189 14.5981 14.5273 14.4957 14.6054 14.4356C14.6715 14.3875 14.7316 14.3515 14.7857 14.3335C14.9001 14.3034 14.9962 14.3455 15.1106 14.4839C15.1766 14.5681 15.2068 14.6823 15.2367 14.7906C15.2669 14.8988 15.2909 15.007 15.297 15.1152C15.303 15.1813 15.285 15.2476 15.2791 15.3077C15.3392 15.3317 15.3631 15.3317 15.3873 15.3317C15.3993 15.2656 15.3933 15.0791 15.5196 15.1573C15.8082 15.3558 16.0428 15.6024 16.2352 15.8971C16.3013 15.9933 16.3435 16.1015 16.3916 16.2038C16.512 16.4683 16.6142 16.7389 16.7344 17.0036C16.8728 17.3163 16.993 17.641 17.1613 17.9357C17.2455 18.08 17.3597 18.2004 17.4801 18.3146C17.6305 18.459 17.6664 18.531 17.6726 18.4709C17.7387 18.0019 17.7207 17.5267 17.7207 17.0517C17.7207 15.7467 17.5404 14.4118 17.1495 13.1669C17.1014 13.0106 16.9991 12.8784 16.9211 12.734C16.6924 12.3311 16.4339 11.7297 15.9287 11.5974C15.7964 11.5614 15.6582 11.5432 15.5198 11.5614C15.4176 11.5732 15.3274 11.6335 15.2311 11.6816C15.189 11.7116 15.159 11.7657 15.1049 11.7777C15.0027 11.8018 14.8763 11.8499 14.7861 11.8078C14.7801 11.8018 14.7681 11.7958 14.7621 11.7896C14.678 11.7295 14.684 11.5912 14.714 11.4891C14.732 11.4229 14.7561 11.3568 14.7861 11.2905C14.9726 10.8696 15.3393 10.5629 15.8325 10.611C16.2534 10.6532 16.7104 10.8696 17.0353 11.1403C17.2036 11.2727 17.318 11.4652 17.4562 11.6275C17.2517 11.1283 17.1916 10.5931 17.3058 10.0579C17.3419 9.87746 17.3719 9.68517 17.4741 9.52284C17.5584 9.39047 17.6848 9.26428 17.8351 9.22814C18.0937 9.15606 18.3884 9.11393 18.6409 9.21017C18.7552 9.25828 18.7793 9.46274 18.7252 9.57695C18.6711 9.67918 18.4906 9.63705 18.4004 9.70932C18.2861 9.79956 18.1777 9.91378 18.1418 10.0521C18.0815 10.2748 18.0997 10.5152 18.1176 10.7498C18.1356 10.9542 18.1839 11.1587 18.25 11.3511C18.3884 11.76 18.5687 12.157 18.731 12.5599V12.5719C18.7372 12.3674 18.731 12.163 18.743 11.9645C18.749 11.8142 18.743 11.6578 18.8033 11.5256C18.9175 11.2369 19.1461 11.0385 19.4286 10.9302C19.537 10.8881 19.6572 10.8522 19.7655 10.8701C20 10.9123 20.0602 11.0806 19.9459 11.2791C19.9038 11.3511 19.8016 11.3693 19.7475 11.4294C19.6454 11.5436 19.5672 11.7119 19.5612 11.8623C19.5191 12.62 19.7415 13.3236 19.934 14.0452C19.9399 14.0753 19.9521 14.0993 19.9579 14.1294C19.9579 13.7806 19.9278 13.4919 20.1863 13.2152C20.3006 13.095 20.4327 12.9688 20.5953 12.9267C20.7879 12.8726 21.0162 12.8484 21.1906 12.9448C21.2807 12.993 21.2268 13.1553 21.1906 13.2515C21.1665 13.3116 21.0886 13.3418 21.0343 13.3717C20.9922 13.3899 20.9261 13.3717 20.8959 13.4079C20.7576 13.5402 20.7999 13.7928 20.7877 13.9611C20.7997 14.286 20.8119 14.6046 20.842 14.9233C20.9682 14.8572 21.0764 14.755 21.2208 14.725C21.4069 14.6829 21.684 14.5687 21.7982 14.725C21.8943 14.8512 21.5996 14.9836 21.5155 15.1219C21.3893 15.3384 21.4853 15.5129 21.5155 15.7413C21.5275 15.8076 21.5275 15.8797 21.5393 15.9458C21.5996 16.3307 21.6658 16.7096 21.7198 17.0882C21.7258 17.1124 21.7258 17.1304 21.7258 17.1543C21.8102 17.0523 21.9602 16.8538 22.0925 16.8357C22.2551 16.8117 22.4535 16.7995 22.5799 16.9139C22.658 16.986 22.5739 17.1365 22.5316 17.2386C22.5134 17.2807 22.4415 17.2627 22.4114 17.2927C22.3213 17.3829 22.279 17.5634 22.273 17.6836C22.261 17.8761 22.273 18.0744 22.273 18.2668C22.6759 18.0504 23.0849 17.8098 23.5117 17.6235C23.8486 17.4792 24.1912 17.3708 24.5462 17.3348C24.8888 17.2927 25.2378 17.2745 25.5806 17.3288C25.7849 17.3588 25.9654 17.4612 26.1577 17.5393C26.4346 17.6595 26.6991 17.7978 26.9699 17.924C27.2404 18.0504 27.5171 18.1646 27.7937 18.2848C27.9199 18.3329 28.2505 18.3569 28.4189 18.2367C28.5993 18.1103 28.7317 17.7795 28.6834 17.5572C28.6235 17.2506 28.4129 16.8896 28.2206 16.6612C28.0219 16.4206 27.8233 16.1862 27.5889 15.9937C27.3363 15.7832 27.0538 15.6329 26.777 15.4584C26.6207 15.3622 26.4642 15.2599 26.3019 15.1699C25.9412 14.9654 25.5625 14.7911 25.2075 14.5745C24.8993 14.386 24.604 14.1771 24.3238 13.9491C24.1553 13.8108 23.9989 13.6604 23.8665 13.4861C23.7342 13.3178 23.6378 13.1253 23.5417 12.9388C23.5357 12.9147 23.5235 12.8967 23.5116 12.8787C23.4814 12.8031 23.4593 12.7244 23.4456 12.6441C23.4095 12.4637 23.3854 12.1148 23.3854 11.9405C23.3854 11.8383 23.4215 11.5196 23.4516 11.4354C23.4758 11.3873 23.4938 11.3392 23.5116 11.297C23.6321 11.0385 23.7583 10.8039 24.0109 10.6355C24.1129 10.5635 24.3715 10.5635 24.4857 10.5994C24.7205 10.6835 24.7744 10.9121 24.6963 11.1347C24.6662 11.2188 24.6119 11.297 24.5881 11.3811C24.5159 11.6217 24.4558 11.8862 24.5278 12.1328C24.558 12.2412 24.6239 12.3313 24.6782 12.4275C24.8768 12.7823 25.1832 13.1793 25.508 13.4138C25.6945 13.5462 25.8928 13.6484 26.0792 13.7746C26.3331 13.9426 26.5918 14.103 26.8551 14.2556C27.1554 14.4359 27.4442 14.6404 27.7388 14.8331C27.8952 14.9351 28.0577 15.0255 28.208 15.1336C28.4908 15.338 28.7971 15.5365 29.044 15.7831C29.2423 15.9755 29.3926 16.18 29.537 16.4084C29.6995 16.667 29.7718 16.8594 29.8016 17.154C29.8197 17.3766 29.8437 17.605 29.8076 17.8276C29.7482 18.2191 29.4415 18.6701 29.1167 18.8926Z" fill="#CA3132"/>
<path fill-rule="evenodd" clip-rule="evenodd" d="M15.0209 15.3664L15.069 15.24C15.1351 15.0775 15.081 14.5606 14.8646 14.4883C14.8385 14.4815 14.811 14.4836 14.7863 14.4943C14.636 14.5424 14.4616 14.8191 14.4075 14.9032C14.5399 14.9633 14.6723 15.0114 14.7863 15.1136C14.8704 15.1919 14.9426 15.282 15.0209 15.3664ZM15.2254 16.2082C15.1653 16.2263 15.1832 16.3827 15.1533 16.4729C15.1171 16.5991 15.0812 16.6532 14.9908 16.7377C14.9488 16.7858 14.8706 16.8277 14.7863 16.8519C14.7429 16.8647 14.6987 16.8748 14.6539 16.882C14.5277 16.9 14.3954 16.894 14.2752 16.9421C14.245 16.9483 14.245 17.0204 14.2752 17.0324C14.4435 17.0807 14.6238 17.0926 14.7861 17.0565C14.9272 17.0321 15.0574 16.9649 15.1591 16.864C15.3575 16.6598 15.3274 16.4611 15.2974 16.2746C15.2974 16.2503 15.2735 16.1902 15.2254 16.2082Z" fill="#CA3132"/>
<path fill-rule="evenodd" clip-rule="evenodd" d="M18.6469 15.8753C18.6168 15.5205 18.5808 15.1597 18.5085 14.8049C18.4303 14.414 18.3101 14.035 18.1959 13.6563C18.1477 13.4999 18.0996 13.3434 18.0395 13.1872C18.0034 13.085 17.9674 12.9828 17.9313 12.8865C17.8111 12.5859 17.7089 12.2732 17.5406 11.9965C17.3733 11.7284 17.1688 11.4854 16.9332 11.2749C16.7469 11.1185 16.5183 11.0101 16.2958 10.9079C16.0732 10.8117 15.7306 10.7276 15.49 10.8237C15.3576 10.872 15.2314 10.95 15.1352 11.0583C15.021 11.1906 14.9489 11.3649 14.8826 11.5333C14.8285 11.6656 14.9669 11.6595 15.051 11.6355C15.0931 11.6173 15.117 11.5752 15.1532 11.5572C15.2614 11.5031 15.3696 11.4249 15.4898 11.4129C15.6523 11.3887 15.8207 11.4129 15.977 11.449C16.5303 11.5994 16.807 12.2187 17.0596 12.6697C17.1436 12.8201 17.2459 12.9644 17.3 13.1268C17.6971 14.3896 17.8774 15.7427 17.8834 17.0657C17.8834 17.5168 17.8592 18.1421 17.8472 18.5931C17.9013 18.6473 17.9734 18.6834 18.0397 18.7255C18.0818 18.7435 18.118 18.7676 18.1479 18.7976C18.3404 18.918 18.4185 18.9419 18.593 18.9781C18.7072 18.9419 18.6712 16.9695 18.6651 16.7169C18.6591 16.4347 18.671 16.158 18.6469 15.8753ZM20.2045 16.3024C20.1985 16.2181 20.1863 16.134 20.1743 16.0498C20.1623 15.9476 20.1382 15.8214 20.1204 15.7132C20.072 15.3927 20.0138 15.0738 19.9459 14.757C19.8978 14.5164 19.8618 14.3119 19.7836 14.0955C19.537 13.3919 19.3505 12.6162 19.3986 11.8585C19.4106 11.672 19.5009 11.4797 19.6272 11.3353C19.6753 11.2812 19.7534 11.2571 19.8015 11.203C19.8557 11.1427 19.8075 11.0586 19.7295 11.0586C19.5611 11.0466 19.3866 11.1187 19.2423 11.2269C19.1159 11.3292 19.0077 11.4615 18.9536 11.5997C18.9055 11.7199 18.9115 11.8583 18.9055 11.9906C18.8873 12.2131 18.8633 12.4417 18.8935 12.6641C18.9596 13.1451 19.1099 13.5602 19.2241 14.0352C19.2301 14.0534 19.2361 14.0773 19.2423 14.1015C19.2964 14.3058 19.3685 14.5344 19.4228 14.733C19.513 15.1118 19.5791 15.4967 19.6574 15.8817C19.7476 16.3205 19.7656 16.7476 19.7897 17.1505C19.7957 17.2166 19.7897 17.2829 19.7837 17.3548C19.7596 17.7621 19.7295 18.1691 19.6935 18.5755C19.6694 18.8708 19.6393 19.1656 19.6033 19.4596H19.6152C19.8197 19.4596 20.0182 19.4838 20.2046 19.5379C20.2106 19.5379 20.2228 19.5379 20.2288 19.5439C20.247 19.2372 20.2831 18.9004 20.2887 18.5937C20.3007 18.1486 20.3129 17.6976 20.2887 17.2526C20.2756 16.9347 20.2475 16.6176 20.2045 16.3024Z" fill="#F7E946"/>
<path fill-rule="evenodd" clip-rule="evenodd" d="M19.5731 16.5853C19.525 16.0502 19.4106 15.5269 19.3146 14.9978C19.3026 14.9076 19.2665 14.8235 19.2425 14.7392C19.2365 14.7273 19.2365 14.7153 19.2305 14.6971C19.0262 14.0057 18.8216 13.3081 18.575 12.6224C18.4848 12.3639 18.3765 12.1173 18.2743 11.8587C18.214 11.7084 18.136 11.564 18.0938 11.4077L18.0397 11.2272C18.0036 11.0768 17.9736 10.9265 17.9615 10.7702C17.9375 10.5176 17.9133 10.2528 17.9796 10.0064C17.9976 9.95833 18.0158 9.9162 18.0397 9.87408C18.106 9.76586 18.208 9.66962 18.2983 9.58537C18.3584 9.52527 18.4726 9.54924 18.5389 9.48913C18.5628 9.46517 18.5389 9.41106 18.5149 9.38091C18.4367 9.30265 18.2262 9.30883 18.0397 9.35077C17.9916 9.36276 17.9375 9.38091 17.8956 9.3929C17.6068 9.49513 17.5166 9.84375 17.4625 10.1025C17.4264 10.2708 17.4144 10.4391 17.4084 10.6135C17.4024 11.1667 17.6248 11.6477 17.8355 12.153C17.9015 12.3094 17.9736 12.4657 18.0397 12.6221C18.136 12.8265 18.2202 13.031 18.2923 13.2474C18.3464 13.4097 18.4005 13.5782 18.4486 13.7404C18.5207 13.987 18.611 14.2336 18.6531 14.4861C18.7252 14.9132 18.7613 15.3521 18.8034 15.7911C18.8154 15.8933 18.8094 15.9956 18.8154 16.0978C18.8274 16.3925 18.8516 16.6872 18.8516 16.9879C18.8466 17.578 18.8205 18.1677 18.7733 18.7559C18.7553 19.0506 18.7313 19.3453 18.7132 19.6338C18.8815 19.5677 19.056 19.5134 19.2425 19.4835C19.3206 19.4715 19.3928 19.4655 19.4771 19.4595C19.4891 19.2972 19.5072 19.1408 19.5192 18.9785C19.5494 18.6778 19.5913 18.3771 19.5975 18.0764C19.6091 17.5776 19.6213 17.0787 19.5731 16.5853ZM21.5997 18.8405C21.6179 18.7563 21.6239 18.6662 21.6239 18.5758V18.4075C21.6239 18.3414 21.6239 18.2751 21.6179 18.209C21.6119 17.8422 21.5997 17.4752 21.5636 17.1144C21.5218 16.7295 21.4374 16.3567 21.3831 15.9778C21.3715 15.9117 21.3653 15.8396 21.3593 15.7735C21.3352 15.6232 21.287 15.4728 21.2809 15.3163C21.2749 15.1358 21.5037 14.9677 21.4855 14.8954C21.4795 14.8653 21.323 14.8593 21.2507 14.8834C21.1547 14.9255 21.0405 14.9495 20.9862 15.0398C20.9143 15.148 20.9203 15.2862 20.9203 15.4185C20.9262 15.7372 20.9805 16.05 21.0163 16.3687C21.0584 16.8076 21.1127 17.2526 21.1425 17.6977C21.1607 18.0343 21.2209 18.3771 21.1545 18.714L21.0283 19.3153L20.9804 19.2732C21.0041 18.9064 21.0463 18.5396 21.0283 18.1727C21.0163 17.836 21.0101 17.4992 20.9862 17.1624C20.9624 16.8497 20.9203 16.543 20.872 16.2304C20.8362 15.9656 20.7637 15.7011 20.7276 15.4365C20.6628 14.9501 20.6307 14.4599 20.6316 13.9692C20.6256 13.7406 20.6074 13.458 20.7819 13.2775C20.8422 13.2115 20.9805 13.2716 21.0283 13.1755C21.0403 13.1573 21.0524 13.1152 21.0283 13.1092C20.9081 13.0791 20.7697 13.0551 20.6435 13.0972C20.475 13.1514 20.3067 13.3077 20.2045 13.476C20.1773 13.5258 20.1551 13.5782 20.1382 13.6324C20.1023 13.7585 20.1204 13.8969 20.1144 14.0293C20.1082 14.294 20.1023 14.5526 20.1144 14.8171C20.1326 15.1058 20.1624 15.4004 20.2045 15.6891C20.2406 15.9115 20.2767 16.1341 20.3065 16.3625C20.3427 16.579 20.385 16.8016 20.4089 17.018C20.4327 17.2766 20.4507 17.5292 20.4629 17.7817C20.4689 17.878 20.4689 17.9742 20.4629 18.0704C20.4327 18.5696 20.3788 19.0688 20.3245 19.5679C20.6184 19.662 20.8919 19.8109 21.1303 20.0068C21.2148 19.9046 21.329 19.7963 21.3829 19.6761C21.4847 19.4061 21.5574 19.126 21.5997 18.8405Z" fill="#F7E946"/>
<path fill-rule="evenodd" clip-rule="evenodd" d="M21.9064 19.8304C21.9426 19.7341 21.9845 19.6441 22.0147 19.5477C22.0448 19.4636 22.069 19.3793 22.0806 19.2891C22.1227 19.0365 22.1111 18.7718 22.1167 18.5134C22.1227 18.2307 22.0926 17.9481 22.1111 17.6714C22.1167 17.5752 22.1409 17.4789 22.171 17.3827C22.2015 17.3081 22.2441 17.239 22.2972 17.1783C22.3154 17.1481 22.3635 17.1601 22.3813 17.1363C22.3994 17.1122 22.4174 17.0642 22.3933 17.0521C22.3152 17.0159 22.2191 16.992 22.1347 17.0101C22.0921 17.0219 22.0515 17.0401 22.0145 17.0642C21.9852 17.0868 21.9571 17.1108 21.9304 17.1363C21.8581 17.1964 21.798 17.2625 21.7741 17.3528C21.7258 17.4969 21.7499 17.6593 21.7439 17.8098C21.732 18.0504 21.7379 18.2908 21.7198 18.5315C21.7016 18.7178 21.6837 18.9043 21.6417 19.0848C21.6351 19.1108 21.629 19.1369 21.6236 19.1631C21.5753 19.3555 21.5153 19.5418 21.455 19.7283C21.4421 19.7724 21.424 19.8149 21.4011 19.8547C21.3468 19.9268 21.2686 20.005 21.2146 20.0771C21.3487 20.2032 21.4677 20.3445 21.5693 20.498C21.5874 20.4559 21.6054 20.4199 21.6236 20.3838C21.72 20.1972 21.822 20.0168 21.9064 19.8304ZM22.9948 19.199C22.9409 19.1509 22.8866 19.1028 22.8203 19.0667C22.7061 18.9946 22.5618 18.8983 22.4234 18.9704C22.189 19.0968 22.189 19.2831 22.1109 19.5055C22.0748 19.6018 22.0446 19.698 22.0145 19.7882C21.9784 19.8965 21.9426 19.9987 21.8943 20.1009C21.8158 20.2694 21.7138 20.4198 21.6237 20.5757V20.5817C21.7741 20.8225 21.8763 21.0931 21.9304 21.3818C21.9546 21.3636 21.9843 21.3456 22.0145 21.3275C22.0688 21.2973 22.1227 21.2672 22.1708 21.2192C22.291 21.0931 22.4112 20.9487 22.4897 20.7862C22.6578 20.4256 22.634 20.0464 22.6522 19.6677C22.6578 19.5473 22.6458 19.4271 22.676 19.3069C22.7001 19.2106 22.9409 19.2949 22.9948 19.3069C23.0789 19.325 23.0551 19.253 22.9948 19.199ZM19.6151 21.6164C19.7174 21.6164 19.8016 21.7004 19.8016 21.8028C19.8014 21.8522 19.7816 21.8994 19.7467 21.9343C19.7118 21.9692 19.6645 21.9888 19.6151 21.9889C19.5658 21.9888 19.5186 21.9691 19.4837 21.9342C19.4488 21.8994 19.4291 21.8522 19.4288 21.8028C19.429 21.7535 19.4486 21.7061 19.4835 21.6712C19.5184 21.6363 19.5657 21.6165 19.6151 21.6164Z" fill="#F7E946"/>
<path fill-rule="evenodd" clip-rule="evenodd" d="M19.615 19.5977C18.4003 19.5977 17.4081 20.5836 17.4081 21.8047C17.4081 23.0193 18.4003 24.0116 19.615 24.0116C20.83 24.0116 21.8219 23.0193 21.8219 21.8047C21.8219 20.5836 20.83 19.5977 19.615 19.5977ZM19.615 23.4282C18.7251 23.4282 17.9914 22.6944 17.9914 21.8047C17.9914 20.9085 18.7251 20.1809 19.615 20.1809C20.5051 20.1809 21.2329 20.9086 21.2329 21.8047C21.2329 22.6944 20.5051 23.4282 19.615 23.4282Z" fill="#F7E946"/>
<path fill-rule="evenodd" clip-rule="evenodd" d="M19.5852 21.4716C19.6048 21.4656 19.6258 21.4656 19.6454 21.4716C19.7306 21.3543 19.8013 21.2272 19.8559 21.0929C19.8993 20.9912 19.9277 20.8838 19.9401 20.774C19.9461 20.684 19.9461 20.5814 19.91 20.4975C19.8859 20.4312 19.8198 20.3833 19.7656 20.3531C19.7253 20.33 19.6798 20.3176 19.6333 20.317C19.6213 20.311 19.6151 20.311 19.6031 20.317C19.555 20.317 19.5129 20.329 19.4708 20.3531C19.4107 20.3833 19.3506 20.4312 19.3204 20.4975C19.2845 20.5816 19.2905 20.684 19.2965 20.774C19.3084 20.8882 19.3386 20.9903 19.3747 21.0929C19.4348 21.2252 19.5009 21.3574 19.5852 21.4716ZM19.5852 22.1271C19.6048 22.1332 19.6258 22.1332 19.6454 22.1271C19.7295 22.2477 19.8018 22.3735 19.8559 22.5063C19.898 22.6083 19.928 22.7165 19.9401 22.8247C19.9461 22.9152 19.9461 23.0174 19.91 23.1013C19.8859 23.1736 19.8198 23.2159 19.7656 23.2516C19.7237 23.2698 19.6754 23.2818 19.6333 23.2878H19.6031C19.5575 23.2821 19.5129 23.27 19.4708 23.2516C19.4107 23.2159 19.3506 23.1736 19.3204 23.1013C19.2845 23.0172 19.2905 22.9152 19.2965 22.8247C19.3084 22.7165 19.3386 22.6085 19.3747 22.5063C19.4348 22.3735 19.5009 22.2477 19.5852 22.1271ZM19.3625 21.5859C19.3745 21.5739 19.3867 21.5557 19.4047 21.5437C19.3814 21.4011 19.341 21.2618 19.2845 21.1288C19.2483 21.0328 19.1882 20.9365 19.122 20.8526C19.0619 20.7804 18.9896 20.7083 18.9055 20.6722C18.8334 20.642 18.7612 20.654 18.6951 20.6722C18.6509 20.6858 18.61 20.7082 18.5747 20.7381C18.5687 20.7441 18.5627 20.7501 18.5565 20.7622C18.5255 20.7943 18.5028 20.8335 18.4904 20.8764C18.4725 20.9427 18.4605 21.0208 18.4844 21.0871C18.5206 21.1711 18.5927 21.2434 18.6649 21.3033C18.7492 21.3756 18.8454 21.4295 18.9476 21.4718C19.0806 21.5272 19.22 21.5655 19.3625 21.5859ZM19.8317 22.055C19.8437 22.0431 19.8619 22.0309 19.8737 22.0129C20.0061 22.0371 20.1446 22.0732 20.2828 22.1331C20.3788 22.1693 20.4751 22.2292 20.5593 22.2956C20.6312 22.3559 20.7093 22.428 20.7394 22.5123C20.7696 22.5842 20.7576 22.6566 20.7394 22.7225C20.726 22.7667 20.7036 22.8077 20.6735 22.8427C20.6675 22.8487 20.6615 22.8547 20.6494 22.8609C20.6173 22.892 20.5781 22.9148 20.5352 22.9272C20.4689 22.9453 20.3908 22.9569 20.3245 22.9332C20.2405 22.897 20.1682 22.8246 20.1081 22.7527C20.036 22.6682 19.9879 22.5722 19.9456 22.4699C19.8918 22.3378 19.8497 22.1934 19.8317 22.055ZM19.2905 21.8324C19.2844 21.8129 19.2844 21.792 19.2905 21.7725C19.1723 21.6885 19.0452 21.6178 18.9115 21.5619C18.8096 21.5194 18.7024 21.4911 18.5928 21.4778C18.5026 21.4718 18.4004 21.4718 18.3163 21.508C18.2442 21.5321 18.2021 21.598 18.166 21.6523C18.1478 21.6941 18.1358 21.7424 18.1298 21.7847V21.8148C18.1358 21.8628 18.1478 21.9049 18.166 21.9472C18.2021 22.0071 18.2442 22.0674 18.3163 22.0972C18.4004 22.1333 18.5026 22.1273 18.5928 22.1213C18.7011 22.1097 18.8093 22.0796 18.9115 22.0432C19.0439 21.9828 19.1703 21.9167 19.2905 21.8324Z" fill="#F7E946"/>
<path fill-rule="evenodd" clip-rule="evenodd" d="M19.2905 21.8269C19.2845 21.8074 19.2845 21.7865 19.2905 21.767C19.1724 21.6829 19.0453 21.6123 18.9115 21.5563C18.8097 21.5139 18.7024 21.4856 18.5929 21.4723C18.5026 21.4663 18.4004 21.4663 18.3163 21.5024C18.2443 21.5265 18.2021 21.5925 18.166 21.6468C18.1478 21.6885 18.1358 21.7368 18.1299 21.7791V21.8093C18.1358 21.8572 18.1478 21.8993 18.166 21.9416C18.2021 22.0016 18.2443 22.0618 18.3163 22.0916C18.4004 22.1277 18.5026 22.1218 18.5929 22.1158C18.7011 22.1041 18.8093 22.074 18.9115 22.0377C19.0439 21.9772 19.1703 21.9111 19.2905 21.8269ZM19.946 21.8269C19.952 21.8074 19.952 21.7865 19.946 21.767C20.0544 21.6825 20.1866 21.6106 20.3188 21.5563C20.4205 21.5132 20.5278 21.4848 20.6376 21.4723C20.7277 21.4663 20.8303 21.4663 20.9142 21.5024C20.9804 21.5265 21.0284 21.5925 21.0585 21.6468C21.0827 21.6885 21.0946 21.7368 21.0946 21.7791C21.1006 21.7911 21.1006 21.7973 21.0946 21.8093C21.0946 21.8572 21.0827 21.8993 21.0585 21.9416C21.0284 22.0016 20.9804 22.0618 20.9142 22.0916C20.8301 22.1277 20.7277 22.1218 20.6376 22.1158C20.5234 22.1041 20.4214 22.074 20.3188 22.0377C20.1864 21.9772 20.0542 21.9111 19.946 21.8269ZM19.4047 22.0495C19.3878 22.0386 19.3735 22.0242 19.3626 22.0074C19.2242 22.0315 19.08 22.0676 18.9477 22.1276C18.8455 22.1637 18.7492 22.2236 18.665 22.2901C18.5929 22.3504 18.5208 22.4224 18.4845 22.5067C18.4605 22.5786 18.4725 22.6511 18.4905 22.717C18.5025 22.7591 18.5266 22.8014 18.5566 22.8372L18.5747 22.8553C18.6109 22.8855 18.653 22.9096 18.6951 22.9216C18.7612 22.9398 18.8335 22.9514 18.9056 22.9276C18.9896 22.8915 19.0619 22.819 19.122 22.7471C19.1881 22.6627 19.2482 22.5666 19.2845 22.4644C19.3446 22.3322 19.3807 22.1879 19.4047 22.0495ZM19.8737 21.5803L19.8318 21.5382C19.8499 21.4002 19.8919 21.2616 19.946 21.1233C19.9881 21.0272 20.0362 20.931 20.1085 20.8471C20.1686 20.7748 20.2409 20.7027 20.3249 20.6666C20.3912 20.6365 20.4693 20.6484 20.5356 20.6666C20.5773 20.6786 20.6196 20.7027 20.6498 20.7325C20.6618 20.7385 20.6679 20.7445 20.6739 20.7567C20.7041 20.7868 20.7279 20.8289 20.7398 20.8709C20.758 20.9372 20.77 21.0152 20.7398 21.0815C20.7097 21.1656 20.6316 21.2378 20.5597 21.2978C20.4763 21.3671 20.3831 21.4239 20.2832 21.4663C20.1446 21.5204 20.0061 21.5621 19.8737 21.5803ZM12.0861 31.2262L12.2785 31.3524L10.9376 33.1504L10.7152 32.994C10.8172 32.8557 10.9797 32.7415 11.0157 32.5735C11.0879 32.2365 11.0879 31.888 11.0157 31.551C10.9737 31.3464 10.8232 31.1723 10.685 31.0099C10.6129 30.9255 10.5107 30.8656 10.4023 30.8354C10.3061 30.8113 10.2039 30.8536 10.1016 30.8656C10.0234 30.8776 9.9333 30.8656 9.86703 30.9135C9.77079 30.9858 9.72866 31.2745 9.75881 31.3827C9.77079 31.4426 9.92713 31.437 9.96326 31.3947C10.0054 31.3464 10.0054 31.2685 10.0413 31.2082C10.1196 31.082 10.1977 31.0699 10.342 31.1C10.4924 31.1301 10.6126 31.2142 10.6727 31.3646C10.7028 31.4426 10.6787 31.6171 10.6066 31.6774C10.5706 31.7076 10.4984 31.6834 10.4624 31.7192C10.4263 31.7735 10.6188 31.9298 10.6367 31.9841C10.6727 32.0861 10.6487 32.2065 10.6727 32.3146C10.6847 32.3748 10.7931 32.5312 10.733 32.501C10.4383 32.3385 10.1797 32.1283 9.92713 31.9057C9.57832 31.599 9.25965 31.2563 8.93481 30.9133C8.79645 30.769 8.60416 30.6428 8.54406 30.4505C8.45981 30.1976 8.49594 29.9214 8.50792 29.6565C8.51991 29.4462 8.64029 29.2476 8.62214 29.0373C8.60398 28.8508 8.5259 28.6763 8.41768 28.5263C8.27333 28.3277 7.97881 28.2135 7.73822 28.2614C7.53377 28.2975 7.31115 28.4058 7.40739 28.6465C7.43753 28.7184 7.50362 28.8025 7.5817 28.8025C7.65978 28.8025 7.7079 28.7065 7.75602 28.6465C7.78016 28.6164 7.76201 28.538 7.80413 28.5263C7.93033 28.472 8.15893 28.5803 8.243 28.6823C8.34523 28.8025 8.29711 28.9352 8.26116 29.0671C8.243 29.1092 8.24918 29.1635 8.21304 29.1936C8.17092 29.2238 8.09883 29.1936 8.05071 29.2238C7.94249 29.2957 8.0026 29.4099 8.06869 29.4883C8.09266 29.5121 8.15893 29.4999 8.16493 29.5301C8.18908 29.6986 8.32744 30.0774 8.16493 30.0294C7.87023 29.939 7.75002 29.5784 7.55156 29.35C7.36526 29.1393 7.16662 28.9411 7.01028 28.7123C6.95018 28.6222 6.95617 28.496 6.90206 28.3994C6.85394 28.3153 6.75171 28.261 6.6976 28.1831C6.6375 28.0987 6.59556 28.0027 6.55325 27.9004C6.48117 27.7199 6.36695 27.5398 6.36695 27.3412C6.36695 27.1008 6.47517 26.866 6.55325 26.6316C6.61353 26.4571 6.73973 26.3127 6.77586 26.1326C6.81799 25.922 6.62552 25.6151 6.46319 25.4949C6.36096 25.423 6.2226 25.4048 6.0964 25.3747C6.00017 25.3506 5.83185 25.3264 5.76557 25.435C5.73543 25.4949 5.70547 25.6876 5.78373 25.7297C5.81986 25.7475 6.01833 25.6151 6.08442 25.6031C6.17466 25.5971 6.43323 25.6816 6.47535 25.7595C6.51748 25.8317 6.5055 25.928 6.49333 26.012C6.48264 26.0649 6.45807 26.1139 6.42213 26.1542C6.3862 26.1944 6.3402 26.2243 6.28888 26.2408C6.24675 26.2528 6.19264 26.2107 6.16268 26.2408C6.12055 26.2891 6.09659 26.367 6.11456 26.4273C6.12655 26.4691 6.21679 26.4393 6.22278 26.4752C6.24675 26.5835 6.21679 26.6919 6.19264 26.8001C6.16867 26.8961 6.14452 27.0044 6.08442 27.0828C5.97021 27.2152 5.75377 26.6859 5.73561 26.6318C5.69349 26.4994 5.77174 26.3311 5.70547 26.2109C5.62122 26.0665 5.37464 26.0424 5.30854 25.886C5.23028 25.6758 5.36864 25.4232 5.30854 25.2006C5.29038 25.1287 5.12824 25.1824 5.10409 25.1105C5.02002 24.8218 4.97789 24.503 5.02583 24.2083C5.06795 23.9557 5.24227 23.7334 5.37464 23.5106C5.50101 23.2822 5.6933 23.0957 5.80171 22.8553C5.90992 22.6089 5.68749 22.3504 5.513 22.1938C5.35666 22.0435 5.16419 21.9173 4.96573 22.0796C4.92959 22.1094 4.85151 22.3382 4.91761 22.3623C4.97172 22.3805 5.03182 22.3262 5.09192 22.314C5.17018 22.3021 5.26042 22.2719 5.34449 22.3021C5.51282 22.3623 5.56093 22.5425 5.53097 22.705C5.51282 22.7894 5.50083 22.8976 5.42275 22.9338C5.32652 22.9817 5.20032 22.8795 5.10409 22.9218C5.06196 22.9399 5.11607 23.0118 5.12224 23.0601C5.12824 23.1382 5.1582 23.2161 5.14022 23.2946C5.08012 23.4691 5.01403 23.6552 4.88765 23.7875C4.84552 23.8297 4.74329 23.7697 4.72532 23.7095C4.62908 23.3665 4.66503 22.9877 4.56898 22.6391C4.53884 22.5185 4.36453 22.4586 4.34637 22.3324C4.31623 22.0916 4.43062 21.8572 4.43062 21.6168C4.43062 21.5867 4.35236 21.6108 4.34637 21.5867C4.3224 21.2979 4.34038 21.0032 4.34637 20.7145C4.35236 20.6728 4.35236 20.6245 4.3825 20.5943C4.68319 20.2936 5.04998 20.0592 5.3267 19.7466C5.4469 19.6082 5.53715 19.4279 5.5613 19.2474C5.57927 19.1332 5.5012 19.0248 5.45308 18.9226C5.36883 18.7482 5.29057 18.5618 5.15239 18.4234C5.10427 18.3753 5.00803 18.4114 4.94793 18.4416C4.86967 18.4775 4.80358 18.5438 4.76145 18.6099C4.7373 18.64 4.72532 18.7061 4.76145 18.7183C4.86368 18.7602 4.98988 18.7063 5.0921 18.7482C5.19433 18.7964 5.29057 18.8686 5.34468 18.9709C5.40496 19.0851 5.30854 19.3316 5.2005 19.4039C5.11625 19.458 5.01403 19.476 4.91779 19.4942C4.86967 19.5061 4.80957 19.464 4.77362 19.4942C4.7255 19.5483 4.74348 19.6325 4.71333 19.6986C4.65323 19.8248 4.53902 20.1137 4.34655 20.0955C4.29244 20.0896 4.23234 20.0233 4.23833 19.9753C4.2623 19.7226 4.40066 19.4882 4.4308 19.2296C4.46076 18.9108 4.31042 18.6041 4.4308 18.2854C4.45477 18.2133 4.557 18.1712 4.557 18.0991C4.557 17.9969 4.41864 17.9186 4.4308 17.8226C4.4308 17.7383 4.56317 17.7143 4.58714 17.6363C4.62926 17.4799 4.52685 17.2875 4.61728 17.1551C4.75564 16.9446 5.00821 16.8364 5.21866 16.6861C5.32089 16.614 5.4351 16.5537 5.54931 16.4876C5.71782 16.3794 5.93426 16.3251 6.06644 16.1749C6.25892 15.9583 6.17466 15.5374 6.06644 15.3028C6.01233 15.1886 5.95223 15.0503 5.83203 15.0081C5.72363 14.9722 5.58545 15.0263 5.5012 15.1044C5.43492 15.1585 5.40496 15.2847 5.45308 15.3508C5.4952 15.417 5.60942 15.3508 5.68767 15.3689C5.75976 15.3809 5.84401 15.3929 5.89213 15.4472C6.00634 15.5734 6.03049 15.8621 5.91011 15.9883C5.81387 16.0845 5.57927 16.0184 5.47124 15.9883C5.42312 15.9763 5.36283 15.9102 5.32688 15.9402C5.26678 15.9883 5.30872 16.0965 5.26079 16.1566C5.23065 16.1987 4.79178 16.6438 4.74348 16.5475C4.68937 16.4393 4.69536 16.301 4.7255 16.1927C4.7856 16.0063 4.9601 15.8681 5.01421 15.6756C5.07431 15.4472 4.97807 15.1884 5.05633 14.966C5.11643 14.8035 5.33905 14.7314 5.40514 14.5751C5.44709 14.4788 5.33306 14.3646 5.35684 14.2624C5.375 14.1963 5.47124 14.1662 5.51318 14.112C5.65154 13.9317 5.69966 13.667 5.89213 13.5528C6.21679 13.3543 6.63169 13.3723 6.9805 13.222C7.149 13.1559 7.32332 13.0536 7.40757 12.8973C7.50381 12.729 7.49781 12.5185 7.48583 12.3261C7.46767 12.0134 7.37162 11.7848 7.01064 11.9231C6.9687 11.9351 6.89643 12.1336 6.93256 12.1697C6.97451 12.2057 7.04078 12.1937 7.09489 12.2178C7.149 12.2418 7.21528 12.2598 7.25123 12.3081C7.34148 12.4404 7.34148 12.6988 7.20311 12.8072C7.12485 12.8673 7.00465 12.8613 6.90242 12.8554C6.81835 12.8434 6.74609 12.7351 6.66801 12.7591C6.57776 12.7893 6.58376 12.9274 6.51167 12.9756C6.44558 13.0177 6.36132 13.0117 6.28906 13.0237C6.19282 13.0357 6.04847 13.1379 6.00634 13.0538C5.94025 12.9276 6.01833 12.7531 6.09659 12.6329C6.19881 12.4886 6.42124 12.4586 6.51149 12.3083C6.58975 12.1699 6.5055 11.9774 6.57159 11.8271C6.63169 11.6889 6.77605 11.6047 6.87228 11.4844C7.00465 11.3281 7.12485 11.1596 7.26322 11.0035C7.41955 10.8349 7.54593 10.6185 7.75638 10.5223C8.02693 10.3959 8.3396 10.4081 8.6343 10.3719C8.87489 10.3358 9.12147 10.3899 9.3439 10.3058C9.49425 10.2517 9.62662 10.1253 9.67474 9.98099C9.73484 9.82466 9.71087 9.28937 9.5184 9.2053C9.42216 9.16317 9.29579 9.18714 9.20572 9.23544C9.12746 9.27756 9.02524 9.3738 9.06137 9.45188C9.0975 9.52996 9.25384 9.40975 9.31394 9.46985C9.44014 9.59623 9.48226 9.98099 9.33192 10.1074C9.25983 10.1675 9.13945 10.1495 9.0492 10.1375C8.98311 10.1255 8.92283 10.0834 8.87489 10.0413C8.83876 10.0111 8.84475 9.9149 8.79663 9.92089C8.69458 9.92089 8.62831 10.0413 8.52608 10.0593C8.35776 10.0894 8.17727 10.1014 8.00895 10.0712C7.96683 10.0652 7.93069 9.99298 7.96083 9.96302C8.14731 9.78852 8.41786 9.71026 8.59236 9.51797C8.72473 9.36763 8.72473 9.13303 8.83894 8.9707C8.92301 8.86248 9.03141 8.76643 9.15761 8.70614C9.23587 8.67001 9.36206 8.77224 9.42216 8.70614C9.49425 8.63406 9.3922 8.4957 9.44032 8.41144C9.49443 8.3212 9.60864 8.27308 9.71087 8.22496C9.74101 8.21298 9.78913 8.2611 9.81909 8.24312C9.94547 8.16486 10.0056 7.97257 10.1499 7.94842C10.3724 7.9063 10.5888 8.05065 10.8114 8.06863C11.1602 8.10476 11.515 8.18901 11.8518 8.11674C12.0323 8.08061 12.1827 7.93045 12.2787 7.77393C12.363 7.62957 12.363 7.44909 12.357 7.28077C12.351 7.15457 12.351 6.99206 12.2488 6.91997C12.1284 6.84171 11.8217 7.00404 11.8698 7.17255C11.894 7.26279 12.0142 7.31091 12.0441 7.40097C12.0681 7.5032 12.0803 7.62358 12.0262 7.71364C11.9419 7.85201 11.5931 7.81587 11.4729 7.76176C11.4128 7.7318 11.4188 7.60542 11.3465 7.58745C11.0999 7.54532 10.8414 7.64156 10.5888 7.60542C10.5527 7.59943 10.5587 7.50937 10.5888 7.47923C10.8112 7.3169 11.082 7.23864 11.2984 7.07631C11.4849 6.94394 11.6231 6.76364 11.7914 6.61347C11.8275 6.57734 11.8635 6.51724 11.9178 6.50507C12.0501 6.47493 12.2003 6.56517 12.3267 6.50507C12.4109 6.46294 12.3568 6.30061 12.4349 6.2525C12.5673 6.18041 12.7536 6.24051 12.8919 6.18041C12.9822 6.13847 13.0063 6.0061 13.0964 5.97596C13.5716 5.83759 13.9503 6.28863 14.3592 6.43898C14.8164 6.61946 15.3695 6.45096 15.4959 5.94581C15.538 5.76533 15.5861 5.38057 15.2914 5.39854C15.1952 5.41053 15.111 5.48261 15.0389 5.54289C14.8524 5.67526 15.1351 5.71721 15.1772 5.83759C15.2313 5.98195 15.087 6.28863 14.9247 6.30061C14.7683 6.31859 14.612 6.24051 14.4858 6.14428C14.4197 6.09616 14.4678 5.95181 14.3896 5.91585C14.2211 5.8316 14.0228 5.87373 13.8363 5.83759C13.7882 5.82561 13.6678 5.81962 13.6979 5.7715C13.8483 5.5369 14.2632 5.55506 14.5038 5.51293C14.5699 5.49496 14.6541 5.49496 14.7082 5.44684C14.8045 5.3566 14.8164 5.1703 14.9428 5.12218C15.1654 5.03793 15.436 5.14016 15.6646 5.07406C15.7606 5.0501 15.7788 4.90574 15.875 4.8756C15.9954 4.83366 16.1336 4.89376 16.266 4.8756C16.3442 4.86362 16.4103 4.79153 16.4886 4.77955C16.5788 4.76756 16.693 4.7494 16.7713 4.79752C17.1201 5.00797 17.4208 5.29668 17.7455 5.54326C17.9198 5.66346 18.0943 5.78385 18.2686 5.89806C18.2925 5.91603 18.3467 5.90405 18.3467 5.9282C18.3467 5.95834 18.2985 5.95834 18.2686 5.95834C18.0038 5.97632 17.7393 5.9282 17.4809 5.97632C17.2403 6.01844 17.0237 6.16879 16.7893 6.2229C16.7052 6.24106 16.615 6.1628 16.5367 6.19276C16.3263 6.26484 16.1699 6.44533 15.9655 6.5176C15.9233 6.53557 15.8451 6.48746 15.8572 6.43934C15.8934 6.27102 15.9475 6.08454 16.0799 5.95834C16.1519 5.89225 16.2903 5.98848 16.3746 5.94636C16.4167 5.92838 16.3865 5.85611 16.3626 5.82016C16.3264 5.78403 16.2422 5.80818 16.2182 5.75988C16.1641 5.63968 16.2783 5.41724 16.4107 5.3871C16.5309 5.35696 16.6812 5.36894 16.7895 5.43522C16.8615 5.47735 16.7174 5.74808 16.8014 5.82016C16.9097 5.91041 17.2403 5.70595 17.1984 5.58557C17.1201 5.38111 16.6992 5.13453 16.4706 5.18265C16.0557 5.27888 16.0016 5.66982 15.8391 5.99448C15.7309 6.21691 15.6648 6.47547 15.4963 6.66195C15.394 6.764 15.2197 6.75819 15.0874 6.8123C14.8108 6.9325 14.5281 7.04689 14.2635 7.18507C14.1915 7.22702 14.1551 7.32325 14.0772 7.35939C13.9087 7.43147 13.7103 7.43147 13.542 7.49775C13.4517 7.5337 13.3796 7.61196 13.3014 7.66607C13.2413 7.71419 13.1752 7.75631 13.1149 7.81042C13.0608 7.85237 13.0246 7.92464 12.9586 7.94879C12.9224 7.96077 12.8623 7.92464 12.8623 7.88269C12.8563 7.70838 12.8863 7.52771 12.9406 7.35957C12.9586 7.29348 13.0246 7.25135 13.0847 7.22121C13.1508 7.17309 13.3735 7.18507 13.2712 7.04689C13.2473 7.01076 13.175 7.01076 13.163 6.96864C13.0847 6.77616 13.1329 6.63798 13.3495 6.59586C13.512 6.56572 13.6081 6.69209 13.6322 6.83027C13.6442 6.88438 13.5661 6.94449 13.6021 6.98661C13.7043 7.09483 13.9389 6.88438 13.9329 6.77017C13.9329 6.64398 13.8608 6.5176 13.7586 6.43952C13.6803 6.37924 13.5601 6.40357 13.4639 6.40938C13.3437 6.42136 13.2053 6.41537 13.1151 6.48764C12.7543 6.76418 12.7483 7.28149 12.6281 7.66625C12.5618 7.8649 12.5199 8.07516 12.4055 8.24367C12.3392 8.3399 12.213 8.38802 12.1048 8.43015C11.9906 8.47227 11.8522 8.43614 11.744 8.49025C11.6959 8.51422 11.732 8.59847 11.6959 8.62861C11.6418 8.68272 11.5455 8.68272 11.4914 8.73683C11.3712 8.85703 11.2989 9.02554 11.1727 9.14574C11.0825 9.22981 10.9322 9.25396 10.8421 9.3442C10.7159 9.47657 10.6556 9.66287 10.5294 9.79524C10.4452 9.87931 10.2828 10.0839 10.2167 9.98154C10.0905 9.80105 10.1566 9.53667 10.2167 9.33204C10.2407 9.2358 10.4332 9.24179 10.4513 9.14574C10.4633 9.07347 10.319 9.06748 10.277 9.00139C10.1988 8.881 10.1748 8.67055 10.3251 8.5863C10.3912 8.54436 10.4815 8.58031 10.5597 8.5863C10.6139 8.5863 10.6859 8.57432 10.7161 8.61644C10.7702 8.68254 10.6979 8.81491 10.7642 8.86284C10.8243 8.90497 10.9505 8.86902 10.9687 8.80274C11.0469 8.52003 10.746 8.28561 10.4815 8.32174C10.3311 8.33972 10.1748 8.43596 10.1027 8.56833C10.0005 8.7608 10.0065 9.00139 9.99449 9.21783C9.97634 9.51252 10.0728 9.80722 10.0065 10.0899C9.96435 10.2884 9.82 10.4567 9.67564 10.6011C9.51931 10.7694 9.27273 10.8417 9.12837 11.022C9.00799 11.1663 9.03813 11.3949 8.92392 11.5331C8.78555 11.6894 8.53316 11.7194 8.40079 11.8759C8.28658 12.0083 8.29257 12.2126 8.21431 12.3751C8.19634 12.411 8.13024 12.4893 8.11808 12.4472C8.05305 12.2475 8.02649 12.0372 8.03982 11.8276C8.04581 11.7014 8.21413 11.593 8.17818 11.4728C8.15403 11.3826 7.97373 11.4367 7.91362 11.3646C7.86551 11.3043 7.8715 11.2083 7.91362 11.1482C7.97373 11.0579 8.2263 10.9557 8.30438 11.0701C8.36466 11.1482 8.29838 11.3045 8.38264 11.3466C8.45472 11.3828 8.52699 11.2686 8.57511 11.2083C8.59908 11.1721 8.59308 11.1242 8.59308 11.0821C8.5811 10.9798 8.64719 10.8055 8.54497 10.7754C8.2864 10.6971 7.75111 10.9197 7.72097 11.2204C7.697 11.5513 7.8232 11.8759 7.86532 12.2006C7.88929 12.3811 7.93741 12.5616 7.92561 12.7419C7.91962 12.9162 7.91362 13.1087 7.81721 13.2592C7.71498 13.4155 7.46241 13.4517 7.36018 13.614C7.26394 13.7703 7.34202 13.9869 7.26394 14.1553C7.16171 14.3837 6.94528 14.5402 6.84305 14.7626C6.77096 14.913 6.82507 15.1055 6.7588 15.2618C6.74681 15.2979 6.66274 15.2919 6.63859 15.2618C6.53037 15.1294 6.43414 14.9733 6.398 14.8108C6.38602 14.7387 6.53037 14.6904 6.51221 14.6243C6.48807 14.5522 6.36786 14.5642 6.31974 14.5161C6.24766 14.4378 6.1694 14.3537 6.14543 14.2515C6.09731 14.0111 6.28978 13.8967 6.5124 13.9388C6.56651 13.9508 6.5725 14.041 6.62062 14.0772C6.66892 14.1191 6.75299 14.2214 6.79511 14.1732C6.85521 14.0952 6.84922 13.9568 6.79511 13.8785C6.67473 13.7162 6.26582 13.7883 6.13345 13.8905C6.04938 13.9566 5.9831 14.071 6.00725 14.1732C6.07334 14.522 6.25982 14.8467 6.38602 15.1835C6.46428 15.4061 6.65076 15.6106 6.63859 15.851C6.61462 16.1818 6.36804 16.4584 6.28978 16.783C6.24766 16.9635 6.30794 17.1558 6.27181 17.3423C6.23567 17.5408 6.10349 17.7153 6.06735 17.9135C6.04338 18.0699 6.11547 18.2322 6.09749 18.3947C6.0915 18.4548 6.05537 18.581 6.00725 18.5509C5.84492 18.4548 5.72453 18.2983 5.64046 18.13C5.59235 18.0277 5.69457 17.8894 5.64046 17.7872C5.60433 17.7151 5.47795 17.7452 5.40587 17.6971C5.32761 17.643 5.23137 17.5827 5.20141 17.4926C5.16528 17.4024 5.39388 17.2521 5.47196 17.2461C5.52607 17.2401 5.77864 17.4024 5.81478 17.3243C5.85091 17.2522 5.84492 17.1438 5.78464 17.0897C5.59816 16.9154 5.18325 17.1079 5.05706 17.2762C4.98497 17.3784 5.01493 17.5348 5.05706 17.649C5.12315 17.8235 5.25552 17.9618 5.35757 18.118C5.55004 18.4067 5.77864 18.6713 5.92881 18.9839C5.98891 19.1163 5.9949 19.2726 5.98891 19.417C5.97693 19.6454 5.86871 19.862 5.86271 20.0785C5.85672 20.349 5.9348 20.6196 5.94097 20.8903C5.94697 20.9985 5.88087 21.1069 5.89286 21.2151C5.90484 21.2992 6.00707 21.3595 6.01905 21.4496C6.04919 21.5819 6.16341 21.8645 6.01905 21.8645C5.79644 21.8645 5.63411 21.6241 5.50192 21.4496C5.44164 21.3655 5.51391 21.2453 5.48376 21.1549C5.47777 21.1247 5.43565 21.1131 5.40569 21.1187C5.36955 21.1307 5.36356 21.1972 5.32743 21.1972C5.24318 21.2032 5.14694 21.1852 5.07485 21.1369C5.05089 21.1187 5.02074 20.9326 5.01475 20.8905C4.99659 20.8186 5.08684 20.7044 5.15311 20.6862C5.26133 20.6561 5.40569 20.7643 5.48376 20.6862C5.54387 20.6259 5.46579 20.3975 5.38753 20.4097C5.05688 20.4576 4.67193 20.8306 4.85224 21.1852C4.96046 21.3838 5.20105 21.4859 5.37536 21.6362C5.57383 21.8047 5.79027 21.9607 5.97075 22.1472C6.06081 22.2372 6.16322 22.3337 6.19318 22.4539C6.23531 22.6343 6.15106 22.8206 6.1812 23.0011C6.19318 23.0912 6.30159 23.1455 6.31956 23.2296C6.34371 23.332 6.27744 23.4402 6.30159 23.5424C6.32555 23.6209 6.42179 23.6566 6.46392 23.7289C6.50005 23.8008 6.5242 23.8792 6.5242 23.9633C6.53019 24.1017 6.4581 24.246 6.49406 24.3782C6.51821 24.4864 6.65039 24.5345 6.69851 24.6308C6.75262 24.7514 6.92712 25.0039 6.79475 25.0159C6.56015 25.0457 6.3557 24.8354 6.18138 24.6911C6.1093 24.6368 6.15124 24.4984 6.08515 24.4447C6.04901 24.4145 6.01905 24.5166 5.97093 24.5227C5.88069 24.5347 5.76648 24.5469 5.68822 24.4926C5.46579 24.3363 5.5199 24.1138 5.7545 24.0118C5.83857 23.9697 5.95296 24.0539 6.03721 24.0118C6.11529 23.9635 5.89286 23.681 5.78464 23.7111C5.67043 23.7472 5.62213 23.8916 5.56202 23.9938C5.50192 24.096 5.40569 24.2041 5.42366 24.3187C5.44164 24.4808 5.53188 24.6431 5.65826 24.7395C5.85672 24.8895 6.12727 24.9077 6.34988 25.0161C6.55434 25.1181 6.77695 25.2144 6.93329 25.3767C7.07764 25.5211 7.14973 25.7193 7.23398 25.8998C7.26412 25.9661 7.23997 26.0382 7.26412 26.1045C7.34238 26.2909 7.42046 26.4772 7.53467 26.6456C7.58878 26.7296 7.70899 26.7598 7.75729 26.8498C7.84154 27.0062 7.82937 27.2108 7.92579 27.3612C8.02784 27.5115 8.20832 27.5836 8.32272 27.7158C8.34069 27.7399 8.3347 27.7942 8.30456 27.7942C8.09411 27.7942 7.88366 27.7581 7.67921 27.7038C7.57698 27.674 7.51089 27.5594 7.40866 27.5474C7.36054 27.5418 7.36054 27.662 7.31242 27.656C7.2042 27.644 7.07783 27.5957 7.01173 27.4997C6.95163 27.4093 6.9155 27.2649 6.98159 27.1749C7.04768 27.0848 7.24016 27.1868 7.31242 27.0968C7.36653 27.0305 7.09598 26.8262 7.02971 26.8802C6.86738 27.0185 6.8071 27.3312 6.82525 27.5298C6.83124 27.6079 6.83124 27.7221 6.90333 27.7523C7.13194 27.8483 7.39649 27.8245 7.64307 27.8725C7.85951 27.9146 8.1001 27.9086 8.29257 28.0168C8.51501 28.137 8.6895 28.3357 8.85782 28.5281C8.96604 28.6424 9.02033 28.7983 9.1104 28.9311C9.16451 29.003 9.21862 29.0754 9.28471 29.1293C9.37495 29.2138 9.50732 29.2555 9.5854 29.3521C9.66947 29.4542 9.7056 29.5866 9.75971 29.7068C9.78368 29.773 9.76571 29.8753 9.81982 29.9234C9.90407 30.0015 10.0363 29.9953 10.1325 30.0496C10.2287 30.0975 10.3369 30.1456 10.403 30.2357C10.4332 30.2778 10.4392 30.38 10.3851 30.386C10.1203 30.4162 9.84978 30.3741 9.58522 30.3261C9.52512 30.3141 9.50097 30.2115 9.44087 30.2175C9.36261 30.2235 9.31467 30.314 9.25439 30.3559C9.25439 30.3559 9.16414 30.3261 9.15815 30.3141C9.14617 30.284 9.15815 30.3081 9.14017 30.278C9.13418 30.266 9.11003 30.278 9.09206 30.2479C9.08606 30.2297 9.0138 30.2117 9.0138 30.1996C9.01979 30.1095 8.97766 30.0013 9.03177 29.9234C9.07989 29.8449 9.22424 29.8691 9.28435 29.7968C9.31449 29.767 9.29034 29.6948 9.2542 29.6766C9.134 29.6167 8.94153 29.6349 8.9054 29.7852C8.86327 29.9653 8.82133 30.158 8.85728 30.3441C8.88143 30.4527 9.12202 30.4944 9.21807 30.5004C9.65694 30.5004 10.096 30.4465 10.5291 30.5124C10.6974 30.5366 10.8357 30.6568 10.9679 30.7588C11.0883 30.8552 11.1604 30.9996 11.2686 31.1018C11.3948 31.222 11.509 31.3604 11.6655 31.4444C11.7316 31.4806 11.8279 31.4686 11.9001 31.4444C11.9779 31.4127 12.0441 31.2925 12.0861 31.2262ZM27.9141 31.2262L27.7215 31.3524L29.0628 33.1504L29.2852 32.994C29.1832 32.8557 29.0206 32.7415 28.9845 32.5735C28.9126 32.2365 28.9126 31.8881 28.9845 31.551C29.0266 31.3464 29.1772 31.1723 29.3153 31.0099C29.3872 30.9255 29.4895 30.8656 29.5981 30.8354C29.6941 30.8113 29.7963 30.8536 29.8988 30.8656C29.9768 30.8776 30.0669 30.8656 30.1332 30.9135C30.2292 30.9858 30.2715 31.2745 30.2414 31.3827C30.2294 31.4426 30.0729 31.437 30.0371 31.3947C29.995 31.3464 29.995 31.2685 29.9587 31.2082C29.8806 31.082 29.8023 31.0699 29.658 31.1C29.5076 31.1301 29.3874 31.2142 29.3275 31.3646C29.2974 31.4426 29.3215 31.6171 29.3934 31.6774C29.4296 31.7076 29.5016 31.6834 29.5378 31.7192C29.5739 31.7735 29.3814 31.9298 29.3633 31.9841C29.3275 32.0861 29.3517 32.2065 29.3275 32.3146C29.3155 32.3748 29.2073 32.5312 29.2672 32.501C29.5619 32.3385 29.8205 32.1283 30.0731 31.9057C30.4221 31.599 30.7409 31.2563 31.0654 30.9133C31.2037 30.769 31.3962 30.6428 31.4561 30.4505C31.5406 30.1976 31.5044 29.9214 31.4923 29.6565C31.4803 29.4462 31.3599 29.2476 31.3781 29.0373C31.3962 28.8508 31.4741 28.6763 31.5827 28.5263C31.727 28.3277 32.0214 28.2135 32.2622 28.2614C32.4664 28.2975 32.6892 28.4058 32.5926 28.6465C32.5625 28.7184 32.4966 28.8025 32.4181 28.8025C32.34 28.8025 32.2923 28.7065 32.244 28.6465C32.2198 28.6164 32.238 28.538 32.1957 28.5263C32.0695 28.472 31.8411 28.5803 31.7566 28.6823C31.6546 28.8025 31.7027 28.9352 31.7388 29.0671C31.7566 29.1092 31.7505 29.1635 31.7868 29.1936C31.8289 29.2238 31.901 29.1936 31.9493 29.2238C32.0575 29.2957 31.9976 29.4099 31.9311 29.4883C31.907 29.5121 31.8411 29.4999 31.8351 29.5301C31.8109 29.6986 31.6726 30.0774 31.8351 30.0294C32.1298 29.939 32.25 29.5784 32.4483 29.35C32.6347 29.1393 32.8334 28.9411 32.9897 28.7123C33.0497 28.6222 33.0437 28.496 33.0979 28.3994C33.1459 28.3153 33.2483 28.261 33.3022 28.1831C33.3625 28.0987 33.4046 28.0027 33.4466 27.9004C33.5188 27.7199 33.6331 27.5398 33.6331 27.3412C33.6331 27.1008 33.5248 26.866 33.4466 26.6316C33.3867 26.4571 33.2601 26.3127 33.2241 26.1326C33.182 25.922 33.3745 25.6151 33.537 25.4949C33.639 25.423 33.7774 25.4048 33.9038 25.3747C33.9998 25.3506 34.1683 25.3264 34.2346 25.435C34.2644 25.4949 34.2945 25.6876 34.2165 25.7297C34.1803 25.7475 33.9817 25.6151 33.9158 25.6031C33.8257 25.5971 33.5668 25.6816 33.525 25.7595C33.4829 25.8317 33.4949 25.928 33.5069 26.012C33.525 26.1144 33.6089 26.2107 33.7111 26.2408C33.7533 26.2528 33.8076 26.2107 33.8373 26.2408C33.8795 26.2891 33.9036 26.367 33.8856 26.4273C33.8736 26.4691 33.7836 26.4393 33.7774 26.4752C33.7533 26.5835 33.7834 26.6919 33.8076 26.8001C33.8313 26.8961 33.8555 27.0044 33.9158 27.0828C34.03 27.2152 34.2462 26.6859 34.2644 26.6318C34.3065 26.4994 34.2286 26.3311 34.2945 26.2109C34.379 26.0665 34.6254 26.0424 34.6915 25.886C34.7699 25.6758 34.6315 25.4232 34.6915 25.2006C34.7096 25.1287 34.872 25.1824 34.8961 25.1105C34.9802 24.8218 35.0223 24.503 34.9742 24.2083C34.9324 23.9557 34.7579 23.7334 34.6256 23.5106C34.4994 23.2822 34.3067 23.0957 34.1985 22.8553C34.0903 22.6089 34.3127 22.3504 34.4872 22.1938C34.6435 22.0435 34.8358 21.9173 35.0345 22.0796C35.0706 22.1094 35.1487 22.3382 35.0828 22.3623C35.0285 22.3805 34.9682 22.3262 34.9083 22.314C34.8298 22.3021 34.7398 22.2719 34.6557 22.3021C34.4872 22.3623 34.4391 22.5425 34.4692 22.705C34.4874 22.7894 34.4994 22.8976 34.5774 22.9338C34.6735 22.9817 34.8002 22.8795 34.8963 22.9218C34.9384 22.9399 34.8843 23.0118 34.8781 23.0601C34.8721 23.1382 34.842 23.2161 34.86 23.2946C34.9203 23.4691 34.9862 23.6552 35.1125 23.7875C35.1547 23.8297 35.2569 23.7697 35.2751 23.7095C35.3711 23.3665 35.3353 22.9877 35.4314 22.6391C35.4615 22.5185 35.636 22.4586 35.6538 22.3324C35.684 22.0916 35.5698 21.8572 35.5698 21.6168C35.5698 21.5867 35.6478 21.6108 35.6538 21.5867C35.678 21.2979 35.6598 21.0032 35.6538 20.7145C35.6478 20.6728 35.6478 20.6245 35.6181 20.5943C35.3174 20.2936 34.9502 20.0592 34.6737 19.7466C34.5535 19.6082 34.4634 19.4279 34.4393 19.2474C34.4211 19.1332 34.4995 19.0248 34.5475 18.9226C34.6319 18.7482 34.71 18.5618 34.8482 18.4234C34.8965 18.3753 34.9925 18.4114 35.0528 18.4416C35.1309 18.4775 35.1972 18.5438 35.2389 18.6099C35.2631 18.64 35.2751 18.7061 35.2389 18.7183C35.1369 18.7602 35.0105 18.7063 34.9085 18.7482C34.806 18.7964 34.7098 18.8686 34.6559 18.9709C34.5956 19.0851 34.6916 19.3316 34.8002 19.4039C34.8843 19.458 34.9863 19.476 35.0829 19.4942C35.1309 19.5061 35.1912 19.464 35.2273 19.4942C35.2752 19.5483 35.2571 19.6325 35.2872 19.6986C35.3475 19.8248 35.4617 20.1137 35.654 20.0955C35.7083 20.0896 35.7686 20.0233 35.7626 19.9753C35.7384 19.7226 35.6001 19.4882 35.5699 19.2296C35.5398 18.9108 35.6901 18.6041 35.5699 18.2854C35.5458 18.2133 35.4437 18.1712 35.4437 18.0991C35.4437 17.9969 35.5821 17.9186 35.5699 17.8226C35.5699 17.7383 35.4376 17.7143 35.4136 17.6363C35.3715 17.4799 35.4739 17.2875 35.3835 17.1551C35.2451 16.9446 34.9927 16.8364 34.7823 16.6861C34.6798 16.614 34.5656 16.5537 34.4514 16.4876C34.2829 16.3794 34.0667 16.3251 33.9343 16.1749C33.7416 15.9583 33.8261 15.5374 33.9343 15.3028C33.9882 15.1886 34.0485 15.0503 34.1687 15.0081C34.2769 14.9722 34.4151 15.0263 34.4995 15.1044C34.5655 15.1585 34.5956 15.2847 34.5475 15.3508C34.5057 15.417 34.3911 15.3508 34.3131 15.3689C34.2408 15.3809 34.1567 15.3929 34.1084 15.4472C33.9942 15.5734 33.9704 15.8621 34.0906 15.9883C34.1867 16.0845 34.4211 16.0184 34.5297 15.9883C34.5776 15.9763 34.6379 15.9102 34.6737 15.9402C34.734 15.9883 34.6918 16.0965 34.7399 16.1566C34.7701 16.1987 35.2091 16.6438 35.2571 16.5475C35.3114 16.4393 35.3054 16.301 35.2752 16.1927C35.2153 16.0063 35.0408 15.8681 34.9865 15.6756C34.9266 15.4472 35.0227 15.1884 34.9444 14.966C34.8845 14.8035 34.6621 14.7314 34.5958 14.5751C34.5536 14.4788 34.668 14.3646 34.6441 14.2624C34.6259 14.1963 34.5299 14.1662 34.4877 14.112C34.3494 13.9317 34.3013 13.667 34.1086 13.5528C33.7841 13.3543 33.3692 13.3723 33.0202 13.222C32.8517 13.1559 32.6776 13.0536 32.5932 12.8973C32.4971 12.729 32.5031 12.5185 32.5151 12.3261C32.5332 12.0134 32.6293 11.7848 32.9903 11.9231C33.032 11.9351 33.1041 12.1336 33.0684 12.1697C33.0262 12.2057 32.9601 12.1937 32.9058 12.2178C32.8515 12.2418 32.7856 12.2598 32.7495 12.3081C32.6594 12.4404 32.6594 12.6988 32.7978 12.8072C32.8759 12.8673 32.9961 12.8613 33.0985 12.8554C33.1826 12.8434 33.2548 12.7351 33.3329 12.7591C33.423 12.7893 33.417 12.9274 33.4892 12.9756C33.5552 13.0177 33.6396 13.0117 33.7117 13.0237C33.8081 13.0357 33.9524 13.1379 33.9944 13.0538C34.0607 12.9276 33.9824 12.7531 33.9043 12.6329C33.8019 12.4886 33.5795 12.4586 33.4894 12.3083C33.411 12.1699 33.4954 11.9774 33.4291 11.8271C33.3692 11.6889 33.2249 11.6047 33.1288 11.4844C32.9963 11.3281 32.8759 11.1596 32.7377 11.0035C32.5814 10.8349 32.455 10.6185 32.2447 10.5223C31.9742 10.3959 31.6613 10.4081 31.3666 10.3719C31.1262 10.3358 30.8796 10.3899 30.657 10.3058C30.5067 10.2517 30.3743 10.1253 30.3265 9.98099C30.2663 9.82466 30.2904 9.28937 30.4825 9.2053C30.5789 9.16317 30.7053 9.18714 30.7954 9.23544C30.8738 9.27756 30.9759 9.3738 30.9397 9.45188C30.9036 9.52996 30.7474 9.40975 30.6872 9.46985C30.561 9.59623 30.5187 9.98099 30.669 10.1074C30.7413 10.1675 30.8617 10.1495 30.9517 10.1375C31.018 10.1255 31.0779 10.0834 31.1262 10.0413C31.1623 10.0111 31.156 9.9149 31.2043 9.92089C31.3067 9.92089 31.3728 10.0413 31.4748 10.0593C31.6433 10.0894 31.8238 10.1014 31.9923 10.0712C32.0341 10.0652 32.0704 9.99298 32.0403 9.96302C31.8541 9.78852 31.5834 9.71026 31.4089 9.51797C31.2766 9.36763 31.2766 9.13303 31.1625 8.9707C31.0781 8.86248 30.9699 8.76643 30.8437 8.70614C30.7652 8.67001 30.639 8.77224 30.5791 8.70614C30.5068 8.63406 30.6093 8.4957 30.561 8.41144C30.5067 8.3212 30.3925 8.27308 30.2904 8.22496C30.2603 8.21298 30.212 8.2611 30.1822 8.24312C30.0556 8.16486 29.9957 7.97257 29.8514 7.94842C29.6289 7.9063 29.4123 8.05065 29.1899 8.06863C28.8409 8.10476 28.4863 8.18901 28.1494 8.11674C27.969 8.08061 27.8186 7.93045 27.7224 7.77393C27.6383 7.62957 27.6383 7.44909 27.6443 7.28077C27.6503 7.15457 27.6503 6.99206 27.7525 6.91997C27.8727 6.84171 28.1796 7.00404 28.1313 7.17255C28.1071 7.26279 27.9869 7.31091 27.9571 7.40097C27.933 7.5032 27.921 7.62358 27.9749 7.71364C28.0594 7.85201 28.408 7.81587 28.5282 7.76176C28.5885 7.7318 28.5825 7.60542 28.6548 7.58745C28.9012 7.54532 29.1597 7.64156 29.4123 7.60542C29.4484 7.59943 29.4424 7.50937 29.4123 7.47923C29.1899 7.3169 28.9193 7.23864 28.7027 7.07631C28.5162 6.94394 28.3782 6.76364 28.2097 6.61347C28.1736 6.57734 28.1375 6.51724 28.0835 6.50507C27.9512 6.47493 27.8008 6.56517 27.6746 6.50507C27.5902 6.46294 27.6445 6.30061 27.566 6.2525C27.4337 6.18041 27.2475 6.24051 27.1092 6.18041C27.0188 6.13847 26.995 6.0061 26.9046 5.97596C26.4294 5.83759 26.0506 6.28863 25.6417 6.43898C25.1845 6.61946 24.6314 6.45096 24.505 5.94581C24.4633 5.76533 24.415 5.38057 24.7097 5.39854C24.8057 5.41053 24.8898 5.48261 24.9622 5.54289C25.1487 5.67526 24.8662 5.71721 24.8239 5.83759C24.7696 5.98195 24.9139 6.28863 25.0764 6.30061C25.2328 6.31859 25.3893 6.24051 25.5155 6.14428C25.5818 6.09616 25.5336 5.95181 25.6115 5.91585C25.78 5.8316 25.9785 5.87373 26.1648 5.83759C26.2131 5.82561 26.3333 5.81962 26.3032 5.7715C26.1528 5.5369 25.7379 5.55506 25.4973 5.51293C25.4311 5.49496 25.347 5.49496 25.2931 5.44684C25.1966 5.3566 25.1845 5.1703 25.0583 5.12218C24.8358 5.03793 24.5653 5.14016 24.3365 5.07406C24.2405 5.0501 24.2223 4.90574 24.1262 4.8756C24.006 4.83366 23.8677 4.89376 23.7355 4.8756C23.6571 4.86362 23.5911 4.79153 23.5127 4.77955C23.4226 4.76756 23.3084 4.7494 23.23 4.79752C22.8814 5.00797 22.5807 5.29668 22.2558 5.54326C22.0813 5.66346 21.9072 5.78385 21.7327 5.89806C21.7086 5.91603 21.6546 5.90405 21.6546 5.9282C21.6546 5.95834 21.7026 5.95834 21.7327 5.95834C21.9973 5.97632 22.2618 5.9282 22.5204 5.97632C22.7612 6.01844 22.9776 6.16879 23.212 6.2229C23.2964 6.24106 23.3865 6.1628 23.4649 6.19276C23.6752 6.26484 23.8317 6.44533 24.0362 6.5176C24.0779 6.53557 24.1564 6.48746 24.1444 6.43934C24.1083 6.27102 24.0543 6.08454 23.9216 5.95834C23.8497 5.89225 23.7113 5.98848 23.6273 5.94636C23.5851 5.92838 23.6153 5.85611 23.6389 5.82016C23.675 5.78403 23.7595 5.80818 23.7832 5.75988C23.8375 5.63968 23.7233 5.41724 23.591 5.3871C23.4708 5.35696 23.3204 5.36894 23.2118 5.43522C23.1399 5.47735 23.2841 5.74808 23.2002 5.82016C23.0916 5.91041 22.7612 5.70595 22.8029 5.58557C22.8814 5.38111 23.3022 5.13453 23.5307 5.18265C23.9456 5.27888 23.9999 5.66982 24.1624 5.99448C24.2706 6.21691 24.3365 6.47547 24.505 6.66195C24.6074 6.764 24.7816 6.75819 24.9139 6.8123C25.1905 6.9325 25.4732 7.04689 25.7377 7.18507C25.81 7.22702 25.8463 7.32325 25.9242 7.35939C26.0927 7.43147 26.2912 7.43147 26.4593 7.49775C26.5498 7.5337 26.6218 7.61196 26.7001 7.66607C26.76 7.71419 26.8259 7.75631 26.8862 7.81042C26.9405 7.85237 26.9766 7.92464 27.0425 7.94879C27.0787 7.96077 27.1386 7.92464 27.1386 7.88269C27.1446 7.70838 27.1148 7.52771 27.0605 7.35957C27.0424 7.29348 26.9765 7.25135 26.9162 7.22121C26.8503 7.17309 26.6275 7.18507 26.7297 7.04689C26.7538 7.01076 26.8257 7.01076 26.8379 6.96864C26.9164 6.77616 26.8681 6.63798 26.6518 6.59586C26.4893 6.56572 26.3932 6.69209 26.3691 6.83027C26.3571 6.88438 26.4354 6.94449 26.3992 6.98661C26.2972 7.09483 26.0624 6.88438 26.0684 6.77017C26.0684 6.64398 26.1403 6.5176 26.2429 6.43952C26.321 6.37924 26.4412 6.40357 26.5376 6.40938C26.6578 6.42136 26.7962 6.41537 26.8862 6.48764C27.2472 6.76418 27.2532 7.28149 27.3736 7.66625C27.4395 7.8649 27.4818 8.07516 27.596 8.24367C27.6623 8.3399 27.7886 8.38802 27.8967 8.43015C28.0109 8.47227 28.1493 8.43614 28.2573 8.49025C28.3056 8.51422 28.2693 8.59847 28.3056 8.62861C28.3599 8.68272 28.4559 8.68272 28.5102 8.73683C28.6304 8.85703 28.7025 9.02554 28.8287 9.14574C28.9191 9.22981 29.0691 9.25396 29.1596 9.3442C29.2857 9.47657 29.346 9.66287 29.4724 9.79524C29.5565 9.87931 29.7188 10.0839 29.7853 9.98154C29.9111 9.80105 29.8452 9.53667 29.7853 9.33204C29.7611 9.2358 29.5686 9.24179 29.5505 9.14574C29.5385 9.07347 29.6829 9.06748 29.725 9.00139C29.8031 8.881 29.827 8.67055 29.6767 8.5863C29.6108 8.54436 29.5203 8.58031 29.4423 8.5863C29.388 8.5863 29.3161 8.57432 29.2859 8.61644C29.2316 8.68254 29.3041 8.81491 29.2376 8.86284C29.1777 8.90497 29.0515 8.86902 29.0334 8.80274C28.9549 8.52003 29.2558 8.28561 29.5203 8.32174C29.6707 8.33972 29.827 8.43596 29.8995 8.56833C30.0015 8.7608 29.9955 9.00139 30.0077 9.21783C30.0259 9.51252 29.9293 9.80722 29.9957 10.0899C30.0378 10.2884 30.1822 10.4567 30.3265 10.6011C30.4825 10.7694 30.7295 10.8417 30.8738 11.022C30.994 11.1663 30.9639 11.3949 31.0781 11.5331C31.2165 11.6894 31.4688 11.7194 31.6012 11.8759C31.7158 12.0083 31.7094 12.2126 31.7877 12.3751C31.8059 12.411 31.8721 12.4893 31.8841 12.4472C31.949 12.2474 31.9755 12.0372 31.9622 11.8276C31.9562 11.7014 31.7877 11.593 31.8238 11.4728C31.848 11.3826 32.0281 11.4367 32.0884 11.3646C32.1367 11.3043 32.1305 11.2083 32.0884 11.1482C32.0281 11.0579 31.7755 10.9557 31.6976 11.0701C31.6373 11.1482 31.7036 11.3045 31.6192 11.3466C31.5473 11.3828 31.4748 11.2686 31.4269 11.2083C31.4028 11.1721 31.4087 11.1242 31.4087 11.0821C31.4207 10.9798 31.3545 10.8055 31.4567 10.7754C31.7156 10.6971 32.2507 10.9197 32.2809 11.2204C32.3046 11.5513 32.1784 11.8759 32.1365 12.2006C32.1124 12.3811 32.0642 12.5616 32.0762 12.7419C32.0822 12.9162 32.0882 13.1087 32.1844 13.2592C32.2865 13.4155 32.5394 13.4517 32.6416 13.614C32.7377 13.7703 32.6598 13.9869 32.7377 14.1553C32.8397 14.3837 33.0565 14.5402 33.1586 14.7626C33.2309 14.913 33.1768 15.1055 33.243 15.2618C33.255 15.2979 33.3391 15.2919 33.3632 15.2618C33.4715 15.1294 33.5675 14.9733 33.6036 14.8108C33.6156 14.7387 33.4713 14.6904 33.4894 14.6243C33.5136 14.5522 33.6338 14.5642 33.6821 14.5161C33.754 14.4378 33.8321 14.3537 33.8562 14.2515C33.9045 14.0111 33.7119 13.8967 33.4894 13.9388C33.4351 13.9508 33.4291 14.041 33.3812 14.0772C33.3329 14.1191 33.2488 14.2214 33.2067 14.1732C33.1464 14.0952 33.1524 13.9568 33.2067 13.8785C33.3269 13.7162 33.7358 13.7883 33.8682 13.8905C33.9526 13.9566 34.0185 14.071 33.9944 14.1732C33.9285 14.522 33.7418 14.8467 33.6156 15.1835C33.5375 15.4061 33.3511 15.6106 33.3631 15.851C33.3872 16.1818 33.6336 16.4584 33.7117 16.783C33.7538 16.9635 33.6935 17.1558 33.7298 17.3423C33.766 17.5408 33.8983 17.7153 33.9345 17.9135C33.9586 18.0699 33.8862 18.2322 33.9043 18.3947C33.9103 18.4548 33.9465 18.581 33.9944 18.5509C34.1569 18.4548 34.2771 18.2983 34.3614 18.13C34.4093 18.0277 34.3071 17.8894 34.3614 17.7872C34.3971 17.7151 34.5239 17.7452 34.5958 17.6971C34.6739 17.643 34.7703 17.5827 34.8004 17.4926C34.8362 17.4024 34.6078 17.2521 34.5299 17.2461C34.4756 17.2401 34.2232 17.4024 34.1869 17.3243C34.1507 17.2522 34.1567 17.1438 34.217 17.0897C34.4031 16.9154 34.8182 17.1079 34.9444 17.2762C35.0167 17.3784 34.9865 17.5348 34.9444 17.649C34.8785 17.8235 34.7461 17.9618 34.6441 18.118C34.4514 18.4067 34.2232 18.6713 34.0728 18.9839C34.0126 19.1163 34.0066 19.2726 34.0126 19.417C34.0245 19.6454 34.1328 19.862 34.1387 20.0785C34.1447 20.349 34.0668 20.6196 34.0607 20.8903C34.0547 20.9985 34.1206 21.1069 34.1086 21.2151C34.0966 21.2992 33.9944 21.3595 33.9824 21.4496C33.9526 21.5819 33.8381 21.8645 33.9824 21.8645C34.2052 21.8645 34.3675 21.6241 34.4999 21.4496C34.5598 21.3655 34.4879 21.2453 34.5181 21.1549C34.5241 21.1247 34.566 21.1131 34.5961 21.1187C34.6323 21.1307 34.6383 21.1972 34.6742 21.1972C34.7586 21.2032 34.8547 21.1852 34.9272 21.1369C34.9509 21.1187 34.9811 20.9326 34.9871 20.8905C35.0052 20.8186 34.9152 20.7044 34.8487 20.6862C34.7405 20.6561 34.5961 20.7643 34.5182 20.6862C34.458 20.6259 34.536 20.3975 34.6143 20.4097C34.9448 20.4576 35.3299 20.8306 35.1494 21.1852C35.0412 21.3838 34.8008 21.4859 34.6263 21.6362C34.4276 21.8047 34.2114 21.9607 34.0309 22.1472C33.9408 22.2372 33.8382 22.3337 33.8085 22.4539C33.7663 22.6343 33.8502 22.8206 33.8204 23.0011C33.8085 23.0912 33.6999 23.1455 33.6821 23.2296C33.6579 23.332 33.7238 23.4402 33.6999 23.5424C33.6761 23.6209 33.5797 23.6566 33.5377 23.7289C33.5016 23.8008 33.4774 23.8792 33.4774 23.9633C33.4715 24.1017 33.5434 24.246 33.5076 24.3782C33.4834 24.4864 33.3512 24.5345 33.3029 24.6308C33.249 24.7514 33.0745 25.0039 33.2069 25.0159C33.4413 25.0457 33.6459 24.8354 33.8204 24.6911C33.8923 24.6368 33.8502 24.4984 33.9165 24.4447C33.9526 24.4145 33.9824 24.5166 34.0307 24.5227C34.1208 24.5347 34.2353 24.5469 34.3134 24.4926C34.5359 24.3363 34.4819 24.1138 34.2471 24.0118C34.1631 23.9697 34.0489 24.0539 33.9644 24.0118C33.8864 23.9635 34.1088 23.681 34.2174 23.7111C34.3316 23.7472 34.3799 23.8916 34.4398 23.9938C34.5001 24.0959 34.5961 24.2041 34.5782 24.3187C34.56 24.4808 34.4699 24.6431 34.3437 24.7395C34.1451 24.8895 33.8746 24.9077 33.6521 25.0161C33.4475 25.1181 33.2251 25.2144 33.0687 25.3767C32.9244 25.5211 32.8521 25.7193 32.768 25.8998C32.7379 25.9661 32.762 26.0382 32.7379 26.1045C32.6598 26.2909 32.5815 26.4772 32.4673 26.6456C32.4134 26.7296 32.2932 26.7598 32.2449 26.8498C32.1605 27.0062 32.1726 27.2108 32.0764 27.3612C31.9744 27.5115 31.7937 27.5836 31.6795 27.7158C31.6613 27.7399 31.6675 27.7942 31.6976 27.7942C31.9079 27.7942 32.1185 27.7581 32.3228 27.7038C32.4252 27.674 32.4913 27.5594 32.5933 27.5474C32.6416 27.5418 32.6416 27.662 32.6898 27.656C32.798 27.644 32.9242 27.5957 32.9905 27.4997C33.0504 27.4093 33.0865 27.2649 33.0202 27.1749C32.9543 27.0848 32.7617 27.1868 32.6898 27.0968C32.6355 27.0305 32.906 26.8262 32.9725 26.8802C33.135 27.0185 33.1949 27.3312 33.1768 27.5298C33.1708 27.6079 33.1708 27.7221 33.0987 27.7523C32.8699 27.8483 32.6053 27.8245 32.3589 27.8725C32.1427 27.9146 31.9017 27.9086 31.7093 28.0168C31.4868 28.137 31.3123 28.3357 31.1444 28.5281C31.0358 28.6424 30.9819 28.7983 30.8914 28.9311C30.8375 29.003 30.7832 29.0754 30.7173 29.1293C30.6269 29.2138 30.4945 29.2555 30.4166 29.3521C30.3325 29.4542 30.2964 29.5866 30.2421 29.7068C30.218 29.773 30.2361 29.8753 30.1822 29.9234C30.0978 30.0015 29.9656 29.9953 29.8693 30.0496C29.7733 30.0975 29.6647 30.1456 29.5988 30.2357C29.5686 30.2778 29.5627 30.38 29.6169 30.386C29.8815 30.4162 30.152 30.3741 30.4166 30.3261C30.4769 30.3141 30.5007 30.2115 30.561 30.2175C30.639 30.2235 30.6872 30.314 30.7474 30.3559C30.7474 30.3559 30.8375 30.3261 30.8435 30.3141C30.8555 30.284 30.8435 30.3081 30.8617 30.278C30.8676 30.266 30.8914 30.278 30.9096 30.2479C30.9156 30.2297 30.988 30.2117 30.988 30.1996C30.982 30.1095 31.0238 30.0013 30.9699 29.9234C30.9216 29.8449 30.7772 29.8691 30.7173 29.7968C30.6872 29.767 30.7113 29.6948 30.7474 29.6766C30.8676 29.6167 31.0599 29.6349 31.0961 29.7852C31.1382 29.9653 31.1801 30.158 31.1444 30.3441C31.1202 30.4527 30.8798 30.4944 30.7834 30.5004C30.3447 30.5004 29.9057 30.4465 29.4726 30.5124C29.3041 30.5366 29.1659 30.6568 29.0335 30.7588C28.9133 30.8552 28.8409 30.9996 28.7328 31.1018C28.6066 31.222 28.4924 31.3604 28.3359 31.4444C28.2696 31.4806 28.1734 31.4686 28.1015 31.4444C28.0223 31.4127 27.9562 31.2925 27.9141 31.2262ZM21.0224 5.14506C21.0104 5.10293 21.0042 5.05482 20.9744 5.01868C20.9261 4.9466 20.8599 4.92844 20.7939 4.91046C20.7518 4.89249 20.6919 4.89848 20.6496 4.90447C20.6013 4.91046 20.5595 4.9406 20.5112 4.95858C20.4811 4.96457 20.4629 4.9406 20.4569 4.92245C20.3246 4.61576 20.1804 4.32706 19.9999 4.0625C19.8194 4.32706 19.6751 4.61576 19.5429 4.92245C19.5369 4.9406 19.5189 4.96457 19.4888 4.95858C19.4407 4.9406 19.3985 4.91046 19.3504 4.90447C19.3083 4.89848 19.2482 4.89249 19.2061 4.91046C19.14 4.92862 19.0737 4.9466 19.0258 5.01868C18.9956 5.05482 18.9896 5.10293 18.9775 5.14506C18.9655 5.20516 18.9715 5.26545 18.9655 5.31937C19.0136 5.27126 19.0617 5.21115 19.1278 5.187C19.1879 5.16304 19.254 5.17502 19.3083 5.20498C19.3444 5.22895 19.3564 5.28923 19.3624 5.33735C19.3684 5.41561 19.3504 5.46972 19.3384 5.55379C19.3203 5.62588 19.2963 5.71013 19.3083 5.78839C19.3143 5.84849 19.3384 5.91458 19.3865 5.95671C19.4526 6.0228 19.5369 6.07092 19.6211 6.09507C19.7354 6.12521 19.8438 6.14319 19.9578 6.14319C19.9759 6.14918 19.9879 6.14918 19.9999 6.14918H20.0301C20.1479 6.14299 20.2647 6.12486 20.3789 6.09507C20.4674 6.06935 20.548 6.02177 20.6133 5.95671C20.6616 5.91458 20.6855 5.84849 20.6917 5.78839C20.7037 5.71013 20.6797 5.62588 20.6616 5.55379C20.6496 5.46972 20.6314 5.41561 20.6374 5.33735C20.6434 5.28923 20.6556 5.22895 20.6917 5.20498C20.7456 5.17484 20.8119 5.16304 20.8718 5.187C20.9381 5.21097 20.9861 5.27126 21.0344 5.31937C21.0284 5.26545 21.0344 5.20516 21.0224 5.14506ZM20.1684 5.64421C20.1624 5.7045 20.1506 5.78258 20.0963 5.81871C20.0662 5.83669 20.0302 5.84885 20.0001 5.84885C19.97 5.84885 19.934 5.83687 19.9039 5.81871C19.8498 5.78258 19.8378 5.7045 19.8318 5.64421C19.8198 5.51802 19.8378 5.39164 19.8619 5.27144C19.8859 5.13308 19.9402 5.01287 20.0003 4.89249C20.0604 5.01287 20.1147 5.13308 20.1385 5.27144C20.1622 5.39164 20.1804 5.51802 20.1684 5.64421ZM13.5716 33.331L13.4632 33.2711C13.5414 33.1324 13.5716 33.0062 13.5594 32.898C13.5412 32.7596 13.4751 32.6576 13.3669 32.5913L13.3188 32.5675L12.6332 33.7581C12.6152 33.7882 12.6092 33.8124 12.6152 33.83C12.6152 33.8601 12.6453 33.8903 12.6933 33.9144L12.7955 33.9744L12.7354 34.0768L11.9715 33.6377L12.0256 33.5357L12.1338 33.5896C12.17 33.6137 12.1999 33.6257 12.2241 33.6257C12.2482 33.6197 12.2722 33.6016 12.2962 33.5654L12.9816 32.3748L12.9397 32.3507C12.8313 32.2848 12.7171 32.2788 12.6028 32.3206C12.4886 32.3627 12.3864 32.4589 12.3081 32.6033L12.1939 32.5374L12.5246 31.9721L13.8957 32.7658L13.5716 33.331ZM14.9187 34.8163C14.9007 34.7684 14.8885 34.7021 14.8885 34.6121L14.8524 33.0846L14.7142 33.0303L14.2091 33.5475L13.7219 34.0468C13.6077 34.167 13.5174 34.2333 13.4693 34.2511C13.4089 34.2655 13.3454 34.2592 13.289 34.2333L13.2409 34.3415L13.8543 34.5941L13.9024 34.4799L13.8303 34.4557C13.795 34.4413 13.7624 34.4209 13.7341 34.3954C13.6979 34.3657 13.6919 34.3235 13.7101 34.2752C13.7161 34.2692 13.7221 34.2511 13.7341 34.2395C13.746 34.2213 13.758 34.2093 13.7642 34.1973L13.8604 34.0953L14.2093 34.2396L14.4738 34.3479L14.4798 34.5401V34.6064C14.4796 34.6176 14.4753 34.6283 14.4678 34.6366C14.4618 34.6607 14.4497 34.6727 14.4257 34.6727C14.4017 34.6783 14.3776 34.6727 14.3536 34.6667L14.2332 34.6184L14.2093 34.6843L14.1911 34.7264L14.2093 34.7324L15.0211 35.0633L15.063 34.9547C14.9968 34.9247 14.9486 34.8826 14.9187 34.8163ZM14.2091 34.1127L13.9505 34.0045L14.2091 33.7399L14.4555 33.4935L14.4675 34.2153L14.2091 34.1127ZM17.0113 34.4919L16.891 34.4617C16.9271 34.3054 16.9211 34.179 16.879 34.0769C16.8249 33.9508 16.7348 33.8723 16.6084 33.8362L16.5603 33.8246L16.2237 35.1595C16.2177 35.1897 16.2177 35.2138 16.2237 35.2314C16.2416 35.2616 16.2718 35.2797 16.3257 35.2917L16.4399 35.3218L16.4098 35.4361L15.5558 35.2258L15.58 35.1112L15.7002 35.1354C15.7423 35.1473 15.7723 35.1473 15.7964 35.1414C15.8204 35.1354 15.8384 35.1052 15.8505 35.0633L16.1814 33.7341L16.1332 33.7221C16.0129 33.692 15.8986 33.7102 15.8026 33.7884C15.7004 33.8603 15.6341 33.9745 15.5921 34.137L15.4718 34.1069L15.6281 33.4696L17.1677 33.8543L17.0113 34.4919ZM18.7071 35.6164C18.6769 35.5742 18.647 35.5139 18.6228 35.4299L18.2259 33.9567L18.0696 33.9326L17.847 34.3233L17.3598 35.1593C17.2755 35.3037 17.2094 35.3878 17.1613 35.4179C17.1132 35.448 17.0531 35.46 16.981 35.448L16.9629 35.5622L17.6184 35.6583L17.6363 35.5381L17.5642 35.5321C17.5161 35.5201 17.4802 35.5139 17.456 35.4963C17.4139 35.4782 17.3959 35.436 17.4019 35.3878C17.4079 35.3758 17.4079 35.364 17.4199 35.346C17.4238 35.3292 17.4299 35.3129 17.438 35.2977L17.5041 35.1775L17.847 35.2258L18.1596 35.2675L18.2137 35.4602C18.2197 35.4903 18.2257 35.5081 18.2257 35.5201C18.2287 35.5257 18.2302 35.5319 18.2302 35.5382C18.2302 35.5445 18.2287 35.5507 18.2257 35.5563C18.2257 35.5744 18.2137 35.5924 18.1896 35.5984C18.1716 35.6104 18.1475 35.6104 18.1175 35.6104L17.9971 35.5922L17.9791 35.7064L18.8632 35.8326L18.8812 35.7124C18.8471 35.7095 18.8139 35.6994 18.7839 35.6829C18.7539 35.6663 18.7278 35.6437 18.7071 35.6164ZM17.8471 35.1049L17.5706 35.0631L17.8471 34.5939L17.9312 34.4436L18.1237 35.1412L17.8471 35.1049ZM20.5893 34.3233C20.4751 34.2031 20.2828 34.1369 20.0241 34.1247H20.0059L19.1761 34.0949L19.1701 34.2151H19.2905C19.3446 34.2211 19.3807 34.2333 19.3987 34.2569C19.4107 34.2689 19.4169 34.293 19.4169 34.3292L19.3688 35.592C19.3688 35.64 19.3568 35.6639 19.3388 35.6821C19.3067 35.6961 19.2711 35.7003 19.2366 35.6941H19.1224L19.1164 35.8083L20.0005 35.8444V35.7242L19.8862 35.7182C19.8261 35.7182 19.7902 35.7062 19.772 35.6821C19.7642 35.6589 19.7601 35.6346 19.7601 35.6102L19.7782 35.1108L20.0246 35.1168H20.0366C20.2774 35.1288 20.4575 35.0807 20.5717 34.9785C20.6621 34.9004 20.7101 34.7924 20.7164 34.654C20.7217 34.522 20.6797 34.4134 20.5893 34.3233ZM20.2105 34.8886C20.1744 34.9425 20.1083 34.9727 20.0241 34.9846C19.9804 34.9925 19.9361 34.9965 19.8917 34.9966L19.7775 34.9906L19.8015 34.3172C19.8074 34.287 19.8134 34.2689 19.8194 34.2569C19.8314 34.2449 19.8556 34.2391 19.8855 34.2391H19.9336C19.9698 34.2391 19.9997 34.2447 20.0239 34.2507C20.084 34.2567 20.1323 34.2749 20.1681 34.305C20.2465 34.3653 20.2826 34.4735 20.2766 34.6239C20.2708 34.7502 20.2529 34.8343 20.2105 34.8886ZM22.3274 35.0809C22.3154 35.2434 22.2671 35.3816 22.189 35.4902C22.087 35.6401 21.9304 35.7306 21.7318 35.7547C21.4792 35.7905 21.257 35.7246 21.0765 35.5501C20.914 35.3937 20.8119 35.1955 20.7818 34.9487C20.7456 34.7023 20.7878 34.4799 20.9142 34.2934C21.0344 34.1011 21.2089 33.9927 21.4251 33.9626C21.5215 33.9509 21.6056 33.9509 21.678 33.9626C21.75 33.9807 21.834 34.0109 21.9244 34.053L21.9844 33.9328L22.0804 33.9208L22.189 34.5581L22.0748 34.5763C22.0025 34.3836 21.9063 34.2396 21.7983 34.1614C21.7078 34.0895 21.6118 34.0653 21.5095 34.0773C21.3893 34.0955 21.2989 34.1674 21.2506 34.2876C21.1907 34.4259 21.1787 34.6244 21.2148 34.889C21.2506 35.1354 21.3109 35.322 21.4013 35.4482C21.4854 35.5684 21.6056 35.6227 21.7559 35.5986C21.8821 35.5866 21.9844 35.5263 22.0626 35.4301C22.1407 35.34 22.1828 35.2314 22.195 35.1052L22.3274 35.0809ZM23.9091 34.2031L23.7825 34.2273C23.7467 34.0769 23.6865 33.9624 23.6024 33.8905C23.4942 33.8004 23.3796 33.7703 23.2534 33.8004L23.2055 33.8124L23.512 35.1533C23.518 35.1835 23.5301 35.2076 23.5481 35.2196C23.5723 35.2374 23.6084 35.2374 23.6623 35.2256L23.7765 35.2015L23.8067 35.3157L22.9409 35.5139L22.9168 35.3997L23.031 35.37C23.0731 35.364 23.1029 35.3458 23.121 35.3278C23.1392 35.3099 23.1452 35.2795 23.133 35.2374L22.8263 33.9025L22.778 33.9084C22.6522 33.9386 22.5678 34.0105 22.5135 34.1187C22.4536 34.2333 22.4476 34.3655 22.4837 34.5276L22.3635 34.5578L22.2132 33.9204L23.7587 33.5595L23.9091 34.2031ZM26.11 34.3953C26.079 34.4096 26.0454 34.4176 26.0113 34.4186C25.9771 34.4196 25.9431 34.4137 25.9113 34.4012C25.863 34.3831 25.8031 34.3413 25.7428 34.281L24.9068 33.4451L24.6604 33.2047L24.5161 33.2589L24.5101 34.6778C24.5101 34.8463 24.4981 34.9543 24.468 35.0026C24.4442 35.0509 24.3961 35.0867 24.33 35.1168L24.3717 35.2254L24.9068 35.0088L24.9853 34.9787L24.9432 34.8644L24.907 34.8826L24.8769 34.8946C24.8289 34.9127 24.7928 34.9247 24.7627 34.9247C24.7209 34.9247 24.6846 34.9006 24.6666 34.8525C24.6606 34.8405 24.6606 34.8283 24.6546 34.8042C24.6546 34.7864 24.6486 34.7684 24.6486 34.7562L24.6426 34.6179L24.9072 34.5158L25.2622 34.3715L25.4006 34.5098C25.4247 34.5276 25.4423 34.5456 25.4489 34.5578C25.4545 34.5638 25.4605 34.5759 25.4605 34.5819C25.4725 34.6061 25.4665 34.624 25.4545 34.6422C25.4425 34.6604 25.4247 34.6723 25.3946 34.684L25.2803 34.7323L25.3221 34.8405L26.1519 34.51L26.11 34.3953ZM24.907 34.3833L24.6485 34.4919L24.6545 33.7701L24.907 34.0227L25.1656 34.2812L24.907 34.3833ZM28.0585 33.5055L27.3066 33.9025L27.2526 33.8004L27.3245 33.7583C27.3667 33.7401 27.3908 33.7162 27.403 33.692C27.4146 33.6742 27.4086 33.6441 27.391 33.6019L27.0781 33.0185L26.5129 33.3192L26.8254 33.9026C26.8346 33.9273 26.8515 33.9483 26.8737 33.9626C26.8978 33.9689 26.94 33.9626 26.9883 33.9388L27.0602 33.9026L27.1145 34.0047L26.3687 34.4016L26.3084 34.2996L26.4167 34.2453C26.4528 34.2215 26.4829 34.2035 26.4951 34.1794C26.5073 34.1552 26.5011 34.1251 26.4769 34.0893L25.8815 32.9708C25.8696 32.9406 25.8518 32.9225 25.8336 32.9165C25.8095 32.9045 25.7673 32.9105 25.719 32.9346L25.617 32.9886L25.5631 32.8865L26.3084 32.4896L26.3627 32.5917L26.2908 32.6338C26.2547 32.6519 26.2305 32.6759 26.2186 32.6941C26.2004 32.7178 26.2066 32.748 26.2305 32.7841L26.459 33.2172L27.0242 32.9165L26.7958 32.4834C26.7776 32.4533 26.7656 32.4351 26.7475 32.4295C26.7173 32.4172 26.6816 32.4235 26.6333 32.4533L26.5552 32.4894L26.5009 32.3874L27.2528 31.9845L27.3067 32.0927L27.2047 32.147C27.1626 32.1708 27.1384 32.1887 27.1266 32.2129C27.1146 32.231 27.1206 32.2612 27.1382 32.3029L27.7336 33.4215C27.7518 33.4516 27.7638 33.4698 27.7819 33.4757C27.8121 33.4877 27.8478 33.4817 27.8961 33.4576L28.0044 33.3977L28.0585 33.5055Z" fill="#F7E946"/>
</g>
<defs>
<clipPath id="clip0_124_3492">
<rect width="35" height="35" fill="white" transform="translate(2.5 2.5)"/>
</clipPath>
</defs>
</svg>
