<svg width="40" height="40" viewBox="0 0 40 40" fill="none" xmlns="http://www.w3.org/2000/svg">
<path d="M29.9338 35.9803C30.189 35.2736 30.4246 34.5276 30.6209 33.7816C30.9939 32.2503 31.1902 30.6405 31.1902 29.0306C31.1902 28.0883 31.1313 27.1656 30.9939 26.2429C30.8957 27.5779 30.6601 28.7362 30.6601 28.7362C30.719 28.9129 30.8172 29.2073 30.8565 29.384C30.719 30.7583 30.4442 32.0932 30.0908 33.3693C29.9141 32.7214 29.6785 32.1129 29.6589 32.0736C29.1877 33.33 28.481 34.8024 27.8528 36H29.9338V35.9803Z" fill="#0033A0"/>
<path d="M25.5755 35.9804H26.773C30.189 30.935 30.3657 26.4589 30.3657 25.5951C30.3657 23.9656 30.0908 22.4932 29.6393 21.3153C29.6393 21.3153 28.9325 19.4896 27.8331 17.8601C27.9509 18.2331 28.1865 18.9595 28.3043 19.627C28.3043 19.6662 28.3239 19.7055 28.3239 19.7448C28.5399 20.0981 29.5215 21.8454 29.6589 23.7497C29.6589 23.7497 28.9718 22.7877 28.4417 22.1595C28.4221 23.2 28.2847 24.2601 28.0687 25.2613C28.0687 25.2613 29.0896 26.4589 29.5607 27.2245C29.5607 27.2245 29.2466 28.8932 28.5792 30.5031C27.892 29.5018 27.0282 28.5399 27.0282 28.5399C26.5178 29.7963 25.87 31.0724 25.1632 32.2503C25.1632 32.2503 26.4589 33.7816 26.7534 34.2135C26.3804 34.8221 26.0074 35.3914 25.5755 35.9804Z" fill="#0033A0"/>
<path d="M21.2957 35.9804C23.573 33.4478 25.4969 30.4638 26.6552 27.2638C27.6564 24.4957 28.2061 21.0994 27.3227 18.0957C27.2638 17.8994 27.2049 17.7031 27.1263 17.4871C26.8319 16.7411 26.4785 16.1129 26.0662 15.6024C24.9865 14.3853 23.7497 13.3055 22.3951 12.3828C22.5914 12.638 22.7681 12.8932 22.9251 13.1681C22.9251 13.1681 24.5742 14.3853 25.5165 15.6221C24.2994 14.7583 23.6122 14.4049 23.5141 14.346C23.5141 14.346 23.5141 14.346 23.4944 14.346C23.9656 15.4847 24.103 16.427 24.103 16.4466C24.103 16.4466 25.5558 17.2123 26.8515 18.3313C27.0282 19.1755 27.1067 20.0196 27.0871 20.8834C25.7717 19.7251 24.2601 18.8221 24.2601 18.8221C24.2405 19.8037 24.103 20.7853 23.8871 21.7669C23.8871 21.7669 25.3202 22.6699 26.7337 23.946C26.7337 23.946 26.3411 25.7521 25.6736 27.1656C24.3386 25.9092 23.0233 24.9472 22.9251 24.8687C22.9251 24.8687 22.2576 26.6159 21.1779 28.3632C22.5325 29.5411 23.7889 30.7386 23.7889 30.7386C23.0233 31.9362 22.1398 33.0945 21.1975 34.1546L18.7828 31.7595C17.8012 32.9767 16.7411 34.1153 15.6024 35.1558C15.6613 35.2147 16.1325 35.7448 16.3484 35.9804H21.2957Z" fill="#0033A0"/>
<path d="M21.9239 12.638C21.7669 12.422 21.5902 12.2061 21.3939 12.0097C21.2172 11.8331 21.0405 11.6956 20.8638 11.5582C18.8613 10.0465 15.1705 9.30054 15.1705 9.30054C15.5239 9.49686 15.8184 9.67354 15.8184 9.67354C15.838 9.67354 17.3301 10.0465 18.6454 10.6944C18.6454 10.6944 17.4478 10.4196 16.6822 10.3214C16.9963 10.5962 17.3104 10.93 17.5656 11.2637C17.5656 11.2637 20.0196 11.7153 21.0798 12.3042C21.0798 12.3042 21.5902 12.8343 22.0221 13.757C20.3534 13.0699 18.4491 12.7165 18.4491 12.7165C18.7043 13.2858 18.881 13.8944 18.9988 14.5226C18.9988 14.5226 21.0798 15.0331 22.6503 15.7791C22.7877 16.5251 22.827 17.2907 22.8074 18.076C20.962 17.1533 19.1166 16.5643 19.1166 16.5643C19.0773 17.3692 18.9595 18.1938 18.7239 19.0576C18.7239 19.0576 21.2564 20.1962 22.3951 20.8637C22.1399 21.865 21.7865 22.8466 21.3742 23.7889C19.6466 22.6699 17.8208 21.6686 17.8208 21.6686C17.3693 22.768 16.2307 24.5742 16.2307 24.5742C16.2503 24.5938 18.135 25.8895 19.5877 27.0281C18.8613 28.1079 18.0564 29.168 17.173 30.1496C16.8785 29.8551 14.0908 27.4012 14.0908 27.4012C13.2466 28.3631 12.3239 29.3251 11.3031 30.2281L13.973 33.2515C12.2454 34.6846 10.4981 35.7643 10.4981 35.7643L8.26011 32.6036C8.26011 32.6036 6.68955 33.8012 4.03925 35.0576V35.9803H12.7558C22.454 28.6183 25.9092 18.0956 21.9239 12.638Z" fill="#0033A0"/>
<path d="M16.9963 11.5387C14.5816 8.27981 10.7926 8.75097 9.67361 8.90803C8.4368 9.08471 7.49448 9.35956 7.49448 9.35956C7.76932 9.37919 8.14233 9.43809 8.41718 9.49698C8.6135 9.45772 10.3607 9.04545 11.6172 9.22214C10.6945 9.3203 9.4184 9.71294 9.28098 9.7522C9.32024 9.77183 9.69325 9.86999 10.1644 10.1448C10.3018 10.1056 12.0294 9.65404 13.6589 9.61478C13.6589 9.61478 14.2675 9.88962 14.8564 10.2823C12.7362 10.2823 10.989 10.6749 10.9301 10.6945C11.1853 10.9105 11.4209 11.1853 11.6564 11.4994C13.973 11.1461 15.9755 11.3031 15.9755 11.3031C15.9755 11.3031 16.2503 11.6369 16.3681 11.8135C16.5252 12.0295 16.6822 12.324 16.8 12.5596C14.4245 12.2847 12.1669 12.481 12.1669 12.481C12.3239 12.8933 12.4221 13.3252 12.481 13.7767C12.7362 13.7767 14.7583 13.7767 17.3104 14.2479C17.389 14.8369 17.4086 15.4651 17.3301 16.1326C16.8982 16.0148 14.7975 15.5043 12.5006 15.2688C12.4614 15.8381 12.3436 16.4467 12.1865 17.0553C12.4417 17.1142 15.2687 17.7816 16.8589 18.4295C16.8196 18.5277 16.8 18.6258 16.7607 18.724C16.5252 19.4111 16.2503 20.0786 15.9166 20.7657C14.6405 20.1375 11.519 18.9203 11.519 18.9203C11.2049 19.627 10.8319 20.3338 10.3804 21.0405C10.3804 21.0405 13.0699 22.5718 14.3656 23.416C13.7767 24.2602 13.0896 25.1043 12.3436 25.9093C11.4012 25.0651 9.06503 23.259 8.88834 23.1215C8.12269 24.0246 7.18036 24.9669 6.88588 25.2418L9.69325 28.4614C9.67362 28.481 9.63435 28.5007 9.61472 28.5399C9.00613 29.0504 8.35828 29.5215 7.78896 29.8945C7.29816 30.2283 6.90552 30.4835 6.76809 30.562C6.72883 30.5031 4.90306 27.578 4.60858 27.1068C4.41227 27.2639 4.19632 27.4013 4 27.5387V33.5853C4.33374 33.4283 4.66748 33.2516 5.00122 33.0945C6.59141 32.3093 8.1227 31.3277 9.55583 30.1694C10.4785 29.443 11.4405 28.5792 12.3828 27.5976C13.5215 26.4393 14.5031 25.2221 15.308 23.9853C18.4491 19.3915 19.2736 14.6209 16.9963 11.5387Z" fill="#0033A0"/>
<path d="M10.7337 11.3032C9.5754 9.98788 7.6711 9.53635 5.4527 9.85046C5.3938 9.85046 5.33491 9.87009 5.27602 9.87009C5.09933 9.88972 4.94227 9.92898 4.76558 9.96825C4.43184 10.0468 4.19626 10.1253 4.05884 10.1842V10.8517C4.27479 10.675 4.51036 10.5179 4.72632 10.3609C5.17785 10.2627 5.60976 10.2038 6.02203 10.1842C5.37418 10.5572 4.6478 11.048 4.05884 11.4995V12.01L4.07847 12.0296C4.07847 12.0296 5.70792 10.7339 7.00362 10.1842C7.31773 10.2038 7.61221 10.2431 7.90669 10.3216C5.96313 11.1462 4.54964 12.167 4.45148 12.2259C4.6478 12.3437 4.82448 12.5008 4.86374 12.5008C4.88337 12.4811 6.76804 11.3032 8.82939 10.6161C9.10424 10.7535 9.37908 10.9106 9.61467 11.0873C7.357 11.7155 5.19749 12.8541 5.19749 12.8541C5.31528 12.9916 5.43306 13.1486 5.51159 13.3057C5.53122 13.3057 5.53123 13.286 5.55086 13.286C7.84779 12.3044 10.3018 11.794 10.3018 11.794C10.4981 12.0492 10.6552 12.3437 10.773 12.6775C10.773 12.6775 8.57417 12.9327 5.74718 13.8357C5.86497 14.2284 5.90423 14.5229 5.90423 14.5229C5.90423 14.5229 8.57418 13.9339 11.0282 13.8554C11.0674 14.248 11.0478 14.6995 10.9889 15.1511C9.53614 15.0725 6.08092 15.2492 5.9435 15.2689C5.9435 15.2689 5.92386 15.7597 5.80607 16.2308C5.80607 16.2308 8.33859 16.3094 10.6355 16.7413C10.4588 17.291 10.2233 17.8406 9.96804 18.3707C8.43675 17.9192 6.10055 17.3498 5.49196 17.2124C5.33491 17.6051 5.11896 17.9977 4.88338 18.3903C4.88338 18.3903 7.73001 19.6271 8.80976 20.2357C8.3386 20.9425 7.39626 21.9437 7.39626 21.9437C7.12142 21.7474 6.8662 21.5511 6.63061 21.3744C5.8846 20.8443 4.76558 20.059 4.07847 19.5879V21.9437L5.55086 23.6713C5.06006 24.064 4.56926 24.4173 4.07847 24.7314V26.1253C4.0981 26.1057 4.11773 26.1057 4.13736 26.086C4.80484 25.6345 5.47234 25.1241 6.12019 24.5548C11.1656 20.1179 13.2466 14.1891 10.7337 11.3032Z" fill="#0033A0"/>
<path d="M4.01965 18.0365C5.31536 16.1911 5.51168 14.0709 4.37303 13.0304C4.27487 12.9322 4.15708 12.8537 4.01965 12.7751V18.0365Z" fill="#0033A0"/>
<path d="M11.1264 8.08344C22.6503 8.08344 32.0344 17.5068 32.0344 29.0699C32.0344 31.4258 31.6417 33.762 30.8761 35.9607H36V4H4.01965V9.33988H4.03928C6.31658 8.49571 8.71168 8.08344 11.1264 8.08344Z" fill="#0033A0"/>
</svg>
