<svg width="40" height="40" viewBox="0 0 40 40" fill="none" xmlns="http://www.w3.org/2000/svg">
<g clip-path="url(#clip0_124_3504)">
<path d="M18.4371 17.9561L18.4624 18.0066C18.4876 18.0572 18.5129 18.1077 18.4876 18.1835C18.4876 18.2341 18.4624 18.2846 18.4118 18.3099C18.3613 18.3352 18.2854 18.3352 18.2349 18.2846L13.6603 13.5584C13.5087 13.4068 13.4329 13.2046 13.4329 13.0024C13.4581 12.7749 13.6351 12.5222 13.9889 12.2947C14.1911 12.1178 14.4691 12.0167 14.7471 12.042C14.9493 12.0926 15.1009 12.2947 15.3031 12.6233L18.4371 17.9561ZM10.678 18.3099C10.5517 18.3099 10.4 18.3352 10.2989 18.411C10.0967 18.5374 9.99563 18.8407 9.94508 19.245C9.89454 19.5231 9.94508 19.8011 10.0967 20.0285C10.2484 20.1802 10.5011 20.2054 10.8802 20.2054L17.1734 20.256C17.2745 20.256 17.3756 20.1802 17.3756 20.0791C17.3756 20.0033 17.325 19.9527 17.2492 19.9274L10.8802 18.3099C10.8297 18.3099 10.7538 18.3099 10.678 18.3099ZM11.2088 25.1338C11.2593 25.1338 11.2846 25.1591 11.3351 25.1591C11.5626 25.1338 11.7901 25.0327 11.967 24.9064L17.4514 21.823C17.5525 21.7724 17.5778 21.6713 17.5525 21.5702C17.5272 21.5197 17.4514 21.4944 17.4009 21.4944H17.3756L11.0571 23.2636C10.8549 23.3141 10.678 23.4658 10.5769 23.6427C10.4758 23.8701 10.5264 24.1734 10.7033 24.5273C10.8802 24.8811 11.0319 25.058 11.2088 25.1338ZM10.2989 22.6065C10.4758 22.7076 10.7033 22.7328 10.9055 22.6823L17.2745 21.0395C17.325 21.0142 17.3756 20.9637 17.3756 20.9131C17.3756 20.812 17.2745 20.7362 17.1481 20.7362H17.0976L10.9055 20.7867C10.5264 20.7867 10.2736 20.812 10.122 20.9637C9.97036 21.1911 9.91981 21.4691 9.97036 21.7471C9.99563 22.1515 10.0967 22.4548 10.2989 22.6065ZM17.4261 11.3849C17.3756 11.1827 17.2239 11.0058 17.047 10.9047C16.9712 10.8794 16.8701 10.8541 16.7943 10.8541C16.5668 10.8541 16.3646 10.93 16.1624 11.0311C15.8339 11.1827 15.6064 11.3596 15.5559 11.5365C15.5053 11.7134 15.6064 11.9662 15.7833 12.2947L18.8667 17.7792C18.9173 17.8803 19.0184 17.9055 19.1195 17.8803C19.17 17.8297 19.1953 17.7792 19.1953 17.7033L17.4261 11.3849ZM11.9923 16.1111C11.7142 15.9594 11.4362 15.8078 11.234 15.8836C11.0319 15.9594 10.8802 16.1364 10.7286 16.4902C10.5769 16.844 10.5011 17.1726 10.6022 17.3748C10.7033 17.5517 10.8802 17.7033 11.0824 17.7539L17.4261 19.5231C17.4767 19.5231 17.5272 19.4978 17.5778 19.4472C17.603 19.3967 17.603 19.3461 17.5778 19.3209C17.5525 19.2703 17.5019 19.2198 17.4514 19.1945L17.4009 19.1439L11.9923 16.1111ZM19.1953 23.2888C19.1953 23.2383 19.17 23.1625 19.1195 23.1372C19.0184 23.1119 18.9173 23.1625 18.8667 23.2383L18.8415 23.2888L15.7833 28.6974C15.6064 29.026 15.48 29.2535 15.5559 29.4557C15.6317 29.6578 15.8086 29.8095 16.1624 29.9611C16.3646 30.0622 16.5668 30.1128 16.7943 30.138C16.8701 30.138 16.9712 30.1128 17.047 30.0875C17.2239 29.9864 17.3756 29.8095 17.4261 29.6073L19.1953 23.2888ZM30.3916 19.245C30.3663 18.8154 30.2399 18.5374 30.063 18.411C29.8861 18.3099 29.6586 18.2594 29.4565 18.3352L23.0875 19.9527C23.0369 19.978 22.9864 20.0285 22.9864 20.0791C22.9864 20.1802 23.0875 20.256 23.2138 20.256H23.2644L29.4565 20.2054C29.8356 20.2054 30.0883 20.1802 30.2399 20.0285C30.3916 19.8011 30.4421 19.5231 30.3916 19.245ZM28.3697 24.9064C28.5719 25.0327 28.7741 25.1338 29.0015 25.1591C29.0521 25.1591 29.0774 25.1591 29.1279 25.1338C29.3048 25.0833 29.4817 24.8811 29.6334 24.5273C29.785 24.1734 29.8608 23.8449 29.7597 23.6174C29.6586 23.4405 29.4817 23.2888 29.2795 23.2383L22.9358 21.4691C22.8853 21.4691 22.8094 21.4944 22.7842 21.545C22.7589 21.6461 22.8094 21.7471 22.8853 21.7977L22.9358 21.823L28.3697 24.9064ZM20.181 18.1835C18.892 18.1835 17.8558 19.2198 17.8558 20.5087C17.8558 21.7977 18.892 22.8339 20.181 22.8339C21.4699 22.8339 22.5062 21.7977 22.5062 20.5087C22.5062 19.2198 21.4447 18.1835 20.181 18.1835ZM13.4329 28.015C13.4581 28.2425 13.6351 28.4953 13.9889 28.7227C14.1911 28.8996 14.4691 29.0007 14.7471 28.9755C14.9493 28.9249 15.1009 28.7227 15.3031 28.3942L18.5129 22.9856C18.5634 22.9097 18.5382 22.7834 18.4624 22.7328C18.4371 22.7328 18.4118 22.7076 18.3865 22.7076C18.336 22.7076 18.3107 22.7328 18.2602 22.7581L13.6603 27.4338C13.5087 27.5854 13.4329 27.7876 13.4329 28.015ZM21.1414 17.7286C21.1414 17.7792 21.1666 17.855 21.2172 17.8803C21.3183 17.9055 21.4194 17.855 21.4699 17.7539L21.5205 17.7286L24.5533 12.32C24.7303 11.9915 24.8566 11.764 24.7808 11.5618C24.705 11.3596 24.5281 11.208 24.1742 11.0563C23.8204 10.9047 23.4918 10.8289 23.2896 10.93C23.1127 11.0311 22.9611 11.208 22.9105 11.4102L21.1414 17.7286ZM30.8718 31.1995C31.0487 30.7193 31.2003 30.2391 31.3267 29.7589C30.796 30.0117 30.2147 30.0875 29.6586 29.9611C29.785 30.4161 29.7092 30.9721 29.4565 31.6292C29.9367 31.5028 30.4169 31.3512 30.8718 31.1743V31.1995ZM16.7185 33.4489C16.3899 33.7775 15.8592 34.0049 15.1515 34.106C15.5053 34.4599 15.8592 34.8137 16.2383 35.117L16.2635 35.1423H16.2888C16.769 35.0664 17.2492 34.9401 17.7294 34.8137C17.1481 34.3588 16.8196 33.9038 16.7185 33.4489ZM8.83304 29.0007C9.84399 29.5062 10.5769 29.582 10.9308 29.2535L12.4472 27.7876C12.0428 27.6612 11.689 27.3832 11.4868 27.0041C11.1582 26.5492 11.0571 26.1448 11.133 25.791C11.133 25.7657 11.1582 25.7151 11.1582 25.6899L11.0571 25.6646C10.7033 25.5635 10.4253 25.2602 10.1978 24.7547C9.99563 24.3756 9.91981 23.946 10.0209 23.5416L7.94845 24.1229C7.34188 24.2998 7.16497 25.2855 7.11442 26.069C7.08914 26.7008 7.08914 27.3327 7.16497 27.9898L7.31661 28.0909C7.79681 28.4447 8.30229 28.748 8.83304 29.0007ZM23.138 32.8929L22.6073 30.8457C22.2787 31.1237 21.8743 31.3006 21.4447 31.3006C20.8886 31.3512 20.4843 31.2501 20.2315 30.9974C20.2062 30.9721 20.181 30.9468 20.1557 30.9215C20.1304 30.9468 20.1052 30.9721 20.0799 30.9974C19.8271 31.2501 19.4228 31.3512 18.8667 31.3006C18.4371 31.3006 18.0327 31.149 17.7041 30.8457L17.1734 32.8929C17.0217 33.4995 17.8052 34.1566 18.4624 34.5862L18.5887 34.6621C19.0437 34.9401 19.4986 35.1928 19.9788 35.4203L20.1557 35.4961L20.2062 35.4708C20.7623 35.2181 21.3183 34.9148 21.849 34.561C22.5314 34.1566 23.2896 33.4995 23.138 32.8929ZM29.1279 15.8836C29.0774 15.8836 29.0521 15.8584 29.0015 15.8584C28.7741 15.8836 28.5466 15.9847 28.3697 16.1111L22.8853 19.1945C22.7842 19.245 22.7589 19.3461 22.7842 19.4472C22.8347 19.4978 22.8853 19.5231 22.9611 19.5231L29.2795 17.7539C29.4817 17.7033 29.6586 17.5517 29.7597 17.3748C29.8608 17.1473 29.8103 16.8693 29.6334 16.4902C29.4565 16.1111 29.3048 15.9342 29.1279 15.8836ZM25.1852 34.106C24.6039 34.0555 24.0731 33.828 23.6182 33.4489C23.4918 33.9038 23.1633 34.3588 22.582 34.7884C23.0622 34.9148 23.5424 35.0412 24.0226 35.117H24.0479L24.0731 35.0917C24.4775 34.7884 24.8566 34.4599 25.1852 34.106ZM15.1515 6.88615C15.8592 6.98725 16.3646 7.18944 16.7185 7.54327C16.8448 7.08834 17.1734 6.63341 17.7294 6.20376C17.2492 6.07739 16.769 5.95102 16.2888 5.8752H16.2635L16.2383 5.90047C15.8339 6.20376 15.48 6.53232 15.1515 6.88615ZM26.3731 7.44218C26.1456 7.44218 25.9434 7.44218 25.7412 7.46745C24.9577 7.518 23.972 7.69491 23.7951 8.30149L23.2138 10.3487C23.6435 10.2476 24.0731 10.3234 24.427 10.5256C24.9324 10.7783 25.2105 11.0563 25.3368 11.3849C25.3368 11.4102 25.3621 11.4607 25.3621 11.486C25.3874 11.4607 25.4379 11.4607 25.4632 11.4607C25.539 11.4354 25.6148 11.4354 25.6907 11.4354C26.0445 11.4607 26.3983 11.5871 26.6763 11.8145C27.0554 12.042 27.3082 12.3706 27.4598 12.7749L28.9257 11.2585C29.3554 10.8036 29.0268 9.86846 28.673 9.16079C28.395 8.5795 28.0411 8.04875 27.6873 7.518L27.662 7.49272H27.5862C27.4346 7.46745 26.9291 7.44218 26.3731 7.44218ZM23.6435 7.54327C23.972 7.21471 24.5028 6.98725 25.2105 6.88615C24.8566 6.53232 24.5028 6.17849 24.1237 5.8752L24.0984 5.84993H24.0731C23.5929 5.92575 23.1127 6.02684 22.6325 6.17849C23.1886 6.63341 23.5424 7.08834 23.6435 7.54327ZM9.46488 9.79264V9.81791C9.28796 10.2728 9.13632 10.753 9.00995 11.2332C9.66707 10.9552 10.2231 10.8794 10.678 11.0058C10.5517 10.5509 10.6275 9.99483 10.9055 9.33771C10.4253 9.46408 9.94508 9.61572 9.49015 9.79264H9.46488ZM22.9105 29.6073C22.9611 29.8095 23.1127 29.9864 23.2896 30.0875C23.3655 30.1128 23.4666 30.138 23.5424 30.138C23.7699 30.138 23.972 30.0622 24.1742 29.9611C24.5028 29.7842 24.705 29.6326 24.7808 29.4557C24.8566 29.2787 24.7303 29.026 24.5533 28.6974L21.4699 23.213C21.4194 23.1372 21.3688 23.1119 21.293 23.1119C21.2677 23.1119 21.2425 23.1119 21.2172 23.1372C21.1666 23.1878 21.1414 23.2383 21.1414 23.3141L22.9105 29.6073ZM17.1987 8.12457L17.7294 10.1717C18.0327 9.89373 18.4624 9.71682 18.892 9.71682C19.448 9.66627 19.8524 9.76737 20.1052 10.0201C20.1304 10.0454 20.1557 10.0707 20.181 10.0959L20.2568 10.0201C20.5095 9.76737 20.9139 9.66627 21.4699 9.71682C21.8996 9.71682 22.304 9.89373 22.6325 10.1717L23.1633 8.12457C23.3149 7.518 22.5567 6.86088 21.8996 6.43122C21.4194 6.10266 20.9139 5.82465 20.3832 5.59719L20.181 5.49609L20.1304 5.52137C19.5744 5.77411 19.0184 6.07739 18.4876 6.40595C17.8052 6.86088 17.047 7.518 17.1987 8.12457ZM34.7892 24.4262L34.8145 24.3756C34.7387 23.8954 34.6376 23.4152 34.4859 22.935C34.0563 23.491 33.6014 23.8449 33.1464 23.946C33.475 24.2745 33.7025 24.8053 33.8036 25.5129C34.1321 25.1844 34.4607 24.8053 34.7892 24.4262ZM14.5955 7.46745C14.3933 7.46745 14.1911 7.44218 13.9636 7.44218C13.534 7.44218 13.1043 7.46745 12.6747 7.518H12.6494L12.6241 7.56855C12.2703 8.07402 11.9417 8.60477 11.6384 9.16079C11.2846 9.86846 10.956 10.8036 11.3857 11.2585L12.8768 12.7749C13.0032 12.3706 13.2812 12.0167 13.6603 11.8145C14.1153 11.5113 14.5196 11.3849 14.8735 11.4607C14.8987 11.4607 14.9493 11.486 14.9746 11.486C14.9746 11.4607 14.9998 11.4102 14.9998 11.3849C15.1009 11.0311 15.4042 10.753 15.9097 10.5256C16.2888 10.3234 16.7185 10.2476 17.1228 10.3487L16.5415 8.30149C16.3646 7.69491 15.4042 7.518 14.5955 7.46745ZM35.1683 20.5087C34.9156 19.9022 34.6123 19.3461 34.2585 18.8154C33.6266 17.8803 33.0453 17.4253 32.5651 17.5517L30.518 18.0824C30.796 18.411 30.9729 18.8154 30.9729 19.245C31.0234 19.8011 30.9223 20.2054 30.6696 20.4582C30.6443 20.4835 30.6191 20.5087 30.5938 20.534C30.6191 20.5593 30.6443 20.5846 30.6696 20.6098C30.9223 20.8626 31.0234 21.2669 30.9729 21.823C30.9729 22.2526 30.796 22.657 30.518 22.9856L32.5651 23.5163C32.6157 23.5163 32.6662 23.5416 32.7168 23.5416C33.1717 23.5416 33.7025 23.0867 34.2585 22.2526C34.587 21.7471 34.8903 21.2164 35.1431 20.6604L35.1683 20.5087ZM7.19024 13.0024V13.0277C7.11442 13.6595 7.11442 14.3167 7.13969 14.9485C7.19024 15.732 7.36716 16.7177 7.97373 16.8946L10.0209 17.4759C9.91981 17.0462 9.99563 16.6166 10.1978 16.2627C10.4506 15.7573 10.7286 15.4792 11.0571 15.3529L11.1582 15.3276C11.133 15.3023 11.133 15.2518 11.133 15.2265C11.0571 14.8727 11.1582 14.4683 11.4868 14.0134C11.7142 13.6343 12.0428 13.3815 12.4472 13.2299L10.9308 11.7387C10.5769 11.4102 9.84399 11.486 8.83304 11.9915C8.25174 12.2695 7.72099 12.6233 7.19024 13.0024ZM33.1717 13.0024L33.0706 12.9266C32.5904 12.5728 32.0597 12.2695 31.5289 11.9915C30.518 11.486 29.785 11.4102 29.4312 11.7387L27.9148 13.2299C28.3191 13.3562 28.673 13.6343 28.8752 14.0134C29.1784 14.4683 29.3048 14.8727 29.229 15.2265C29.229 15.2518 29.2037 15.3023 29.2037 15.3276L29.3048 15.3529C29.6586 15.454 29.9367 15.7573 30.1641 16.2627C30.3663 16.6418 30.4421 17.0715 30.341 17.4759L32.3629 16.8946C32.9442 16.7177 33.1464 15.732 33.197 14.9485C33.2223 14.3167 33.2223 13.6848 33.1464 13.0277L33.1717 13.0024ZM33.7783 15.4792C33.753 16.0605 33.5255 16.5913 33.1464 17.0462C33.6014 17.1726 34.0563 17.5011 34.4859 18.0572C34.6123 17.577 34.7387 17.0968 34.8145 16.6166V16.5913L34.7892 16.566C34.4607 16.1616 34.1321 15.8078 33.7783 15.4792ZM5.57272 16.566L5.54744 16.6166C5.62326 17.0968 5.72436 17.577 5.876 18.0572C6.30566 17.5011 6.76058 17.1473 7.21551 17.0462C6.88695 16.7177 6.65949 16.1869 6.55839 15.4792C6.20456 15.8078 5.876 16.1869 5.57272 16.566ZM30.8718 9.79264C30.3916 9.61572 29.9114 9.46408 29.4312 9.33771C29.7092 9.99483 29.785 10.5509 29.6334 11.0058C29.785 10.9552 29.9367 10.9552 30.0883 10.9552C30.4927 10.9805 30.9223 11.0563 31.3014 11.2332C31.1751 10.753 31.0234 10.2728 30.8465 9.81791L30.8718 9.79264ZM33.1464 27.9898C33.2223 27.3327 33.2223 26.7008 33.197 26.069C33.1464 25.2855 32.9695 24.2998 32.3629 24.1229L30.341 23.5669C30.4421 23.9965 30.3663 24.4262 30.1641 24.78C29.9367 25.2855 29.6334 25.5635 29.3048 25.6899C29.2795 25.6899 29.229 25.7151 29.2037 25.7151C29.229 25.7404 29.229 25.791 29.229 25.8162C29.3048 26.1701 29.2037 26.5492 28.8752 27.0294C28.6477 27.4085 28.3191 27.6612 27.9148 27.8129L29.4312 29.2787C29.785 29.6073 30.518 29.5315 31.5289 29.026C32.0849 28.7227 32.641 28.3942 33.1464 27.9898ZM25.7412 33.55C25.9434 33.5753 26.1456 33.5753 26.3731 33.5753C26.8027 33.5753 27.2324 33.55 27.662 33.4995L27.6873 33.4742L27.7378 33.3984C28.0917 32.9182 28.395 32.3874 28.673 31.8567C29.0268 31.149 29.3554 30.2139 28.9257 29.7589L27.4598 28.2425C27.3335 28.6469 27.0554 29.0007 26.6763 29.2029C26.2214 29.5062 25.817 29.6326 25.4632 29.5568C25.4379 29.5568 25.3874 29.5315 25.3621 29.5315C25.3621 29.5568 25.3368 29.6073 25.3368 29.6326C25.2357 29.9864 24.9324 30.2644 24.427 30.4919C24.0479 30.6941 23.6182 30.7699 23.2138 30.6688L23.7951 32.716C23.972 33.2973 24.9577 33.4995 25.7412 33.55ZM30.0378 22.5812C30.2399 22.4295 30.341 22.1515 30.3663 21.7471C30.3916 21.368 30.341 21.1153 30.2147 20.9637C30.0883 20.812 29.8103 20.7867 29.4312 20.7867L23.138 20.7362C23.0369 20.7362 22.9611 20.812 22.9358 20.9131C22.9358 20.9889 22.9864 21.0395 23.0622 21.0648L29.4312 22.6823C29.6334 22.7328 29.8608 22.6823 30.0378 22.5812ZM9.46488 31.1995C9.94508 31.3765 10.4253 31.5281 10.9055 31.6545C10.6275 30.9974 10.5517 30.4413 10.678 29.9864C10.2231 30.1128 9.66707 30.037 9.00995 29.7589C9.13632 30.2391 9.28796 30.7193 9.46488 31.1995ZM6.55839 25.5129C6.65949 24.8053 6.86168 24.2998 7.21551 23.946C6.76058 23.8196 6.30566 23.491 5.876 22.935C5.74963 23.4152 5.62326 23.8954 5.54744 24.3756V24.4009L5.57272 24.4262C5.876 24.8306 6.20456 25.1844 6.55839 25.5129ZM12.6241 33.4236L12.6747 33.4995H12.6999C13.1296 33.55 13.5592 33.5753 13.9889 33.5753C14.2164 33.5753 14.4185 33.5753 14.6207 33.55C15.4042 33.4995 16.3899 33.3225 16.5668 32.716L17.1481 30.6688C16.7185 30.7699 16.2888 30.6941 15.935 30.4919C15.4295 30.2644 15.1515 29.9611 15.0251 29.6326C15.0251 29.6073 14.9998 29.5568 14.9998 29.5315C14.9746 29.5568 14.924 29.5568 14.8987 29.5568C14.5449 29.6326 14.1658 29.5315 13.6856 29.2029C13.3065 28.9755 13.0538 28.6469 12.9021 28.2425L11.411 29.7589C10.9813 30.2139 11.3099 31.149 11.6637 31.8567C11.9417 32.3874 12.2703 32.9182 12.6241 33.4236ZM20.5601 17.7033C20.6359 17.7033 20.6864 17.6528 20.7117 17.577L22.3545 11.2332C22.4051 11.0311 22.3798 10.8036 22.2787 10.6267C22.1271 10.4245 21.849 10.3234 21.4447 10.2728C21.3688 10.2728 21.3183 10.2728 21.2425 10.2728C21.0403 10.2476 20.8381 10.2981 20.6612 10.4245C20.5095 10.5761 20.4843 10.8289 20.4843 11.208L20.4337 17.5011C20.4084 17.6022 20.4843 17.6781 20.5601 17.7033ZM27.662 13.7606C27.4598 13.7606 27.2324 13.8364 27.106 13.9881L22.4051 18.5879C22.3798 18.6385 22.3545 18.689 22.3798 18.7648C22.4556 18.8407 22.582 18.8659 22.6578 18.7901L22.7084 18.7648L28.0664 15.6056C28.395 15.4287 28.5971 15.2518 28.6477 15.0496C28.673 14.7716 28.5719 14.5188 28.395 14.2914C28.1422 13.9628 27.9148 13.7859 27.662 13.7606ZM19.7008 10.4245C19.4733 10.2728 19.1953 10.2223 18.9173 10.2728C18.4876 10.2981 18.2096 10.4245 18.0832 10.6267C17.9822 10.8036 17.9316 11.0311 18.0074 11.2332L19.6502 17.6022C19.6755 17.6528 19.726 17.7033 19.7766 17.7033C19.8777 17.7033 19.9535 17.6022 19.9535 17.4759V17.4253L19.903 11.2332C19.8777 10.8289 19.8524 10.5761 19.7008 10.4245ZM25.0588 28.3942C25.2357 28.7227 25.4126 28.9249 25.6148 28.9755C25.6401 28.9755 25.6654 28.9755 25.7159 28.9755C25.9434 28.9502 26.1709 28.8491 26.3731 28.6974C26.7269 28.47 26.9038 28.2172 26.9291 27.9898C26.9291 27.7876 26.8533 27.5601 26.7016 27.4338L22.0765 22.7328C22.026 22.7076 21.9754 22.6823 21.8996 22.7076C21.849 22.7328 21.8238 22.7834 21.8238 22.8086C21.8238 22.8592 21.8238 22.935 21.849 22.9856L21.8743 23.0361L25.0588 28.3942ZM5.16833 20.5087L5.19361 20.5593C5.44635 21.1406 5.74963 21.6713 6.10347 22.2021C6.65949 23.0361 7.19024 23.491 7.64517 23.491C7.69571 23.491 7.74626 23.491 7.79681 23.4658L9.84399 22.935C9.56598 22.6317 9.38906 22.2021 9.38906 21.7724C9.33851 21.2164 9.43961 20.812 9.69235 20.5593C9.71762 20.534 9.74289 20.5087 9.76817 20.4835C9.74289 20.4582 9.71762 20.4329 9.69235 20.4076C9.43961 20.1549 9.33851 19.7505 9.38906 19.1945C9.38906 18.7648 9.56598 18.3605 9.84399 18.0319L7.79681 17.5011C7.74626 17.5011 7.69571 17.4759 7.64517 17.4759C7.19024 17.4759 6.65949 17.9308 6.10347 18.7648C5.77491 19.2956 5.47162 19.8263 5.21888 20.4076L5.16833 20.5087ZM26.9038 13.0024C26.8785 12.7749 26.7016 12.5222 26.3478 12.2947C26.1709 12.1431 25.9434 12.042 25.6907 12.0167C25.6654 12.0167 25.6401 12.0167 25.5896 12.0167C25.3874 12.0673 25.2357 12.2695 25.0335 12.598L21.8743 18.0066C21.8238 18.0824 21.849 18.2088 21.9249 18.2594C21.9754 18.2846 22.0512 18.2846 22.1018 18.2341L26.6763 13.5584C26.828 13.4068 26.9291 13.2046 26.9038 13.0024ZM27.662 27.2316C27.8895 27.2063 28.1422 27.0294 28.3697 26.6755C28.5466 26.4733 28.6477 26.1953 28.6224 25.9426C28.5719 25.7404 28.3697 25.5888 28.0411 25.3866L22.6578 22.2021C22.6073 22.1768 22.582 22.1768 22.5314 22.1768C22.4809 22.1768 22.4303 22.2021 22.3798 22.2526C22.3545 22.3032 22.3545 22.379 22.4051 22.4295L27.106 27.0041C27.2576 27.1557 27.4598 27.2568 27.662 27.2316ZM20.6359 30.5677C20.8128 30.6941 21.015 30.7446 21.2172 30.7193C21.2677 30.7193 21.3436 30.7193 21.4194 30.7193C21.849 30.6941 22.1271 30.5677 22.2534 30.3908C22.3545 30.2139 22.4051 29.9864 22.3292 29.7842L20.7117 23.4152C20.6864 23.3647 20.6359 23.3141 20.5854 23.3141C20.4843 23.3141 20.4084 23.4152 20.4084 23.5416V23.5921L20.459 29.7842C20.459 30.1633 20.5095 30.4161 20.6359 30.5677ZM12.6747 13.7606C12.4472 13.7859 12.1945 13.9628 11.967 14.3167C11.7901 14.5188 11.689 14.7969 11.7142 15.0749C11.7648 15.2771 11.967 15.4287 12.2955 15.6309L17.7041 18.8154C17.7294 18.8407 17.78 18.8407 17.8305 18.8407C17.8811 18.8407 17.9316 18.8154 17.9822 18.7648C18.0074 18.7143 18.0074 18.6385 17.9569 18.5879L13.2307 13.9881C13.1043 13.8617 12.9021 13.7859 12.7252 13.7606H12.6747ZM12.6747 27.2316C12.8768 27.2316 13.1043 27.1557 13.2307 27.0041L17.9316 22.4043C17.9569 22.3537 17.9822 22.3032 17.9316 22.2273C17.8558 22.1515 17.7294 22.1263 17.6536 22.2021L17.603 22.2273L12.2703 25.3866C11.9417 25.5635 11.7395 25.7404 11.689 25.9426C11.6637 26.2206 11.7648 26.4733 11.9417 26.6755C12.1945 27.0294 12.4219 27.2063 12.6747 27.2316ZM19.7766 23.2888C19.7008 23.2888 19.6502 23.3394 19.6249 23.4152L18.0074 29.7589C17.9569 29.9611 17.9822 30.1886 18.0832 30.3655C18.2096 30.5677 18.5129 30.6688 18.9173 30.6941C19.1953 30.7446 19.4733 30.6941 19.7008 30.5424C19.8524 30.3908 19.8777 30.138 19.8777 29.7589L19.9282 23.4658C19.9282 23.3899 19.8777 23.3141 19.7766 23.2888Z" fill="#FDB515"/>
</g>
<defs>
<clipPath id="clip0_124_3504">
<rect width="30" height="30" fill="white" transform="translate(5.16833 5.49219)"/>
</clipPath>
</defs>
</svg>
