<svg width="40" height="40" viewBox="0 0 40 40" fill="none" xmlns="http://www.w3.org/2000/svg">
<g clip-path="url(#clip0_21_853)">
<path d="M33.867 20.2783C33.8226 20.1896 32.315 18.2385 29.4771 16.4205C29.6988 15.3563 29.8318 14.3807 29.8761 13.5826C30.0092 11.7202 29.8318 10.4786 29.8318 10.4343L29.7875 10.1682L29.5214 10.1239C29.4771 10.1239 28.2355 9.94648 26.3731 10.0795C25.5749 10.1239 24.6437 10.2569 23.5795 10.4786C21.7615 7.64067 19.7661 6.17737 19.6774 6.13303L19.5 6L19.2783 6.13303C19.1896 6.22171 17.1942 7.68502 15.3761 10.4786C14.3119 10.2569 13.3364 10.1239 12.5382 10.0795C10.6758 9.94648 9.43425 10.1239 9.38991 10.1239L9.21254 10.2125L9.1682 10.4343C9.1682 10.4786 8.99083 11.7202 9.12385 13.5826C9.1682 14.3807 9.30122 15.3563 9.52294 16.4205C6.68502 18.2385 5.22171 20.2339 5.17737 20.3226L5 20.5L5.13303 20.7217C5.17737 20.8104 6.68502 22.7615 9.47859 24.6239C9.25688 25.6881 9.12385 26.6636 9.07951 27.4174C8.94648 29.2798 9.12385 30.5214 9.12385 30.5657L9.1682 30.8318H9.43425C9.47859 30.8318 10.1437 30.9205 11.208 30.9205C11.607 30.9205 12.0505 30.9205 12.5826 30.8761C13.3807 30.8318 14.3563 30.6988 15.4205 30.4771C17.2385 33.315 19.2339 34.7783 19.3226 34.867L19.5443 35.0443L19.7661 34.867C19.8547 34.8226 21.8058 33.315 23.6239 30.4771C24.6881 30.6988 25.6636 30.8318 26.4174 30.8761C26.9052 30.9205 27.393 30.9205 27.792 30.9205C28.8563 30.9205 29.5214 30.8318 29.5657 30.8318L29.8318 30.7875L29.8761 30.5214C29.8761 30.4771 30.0535 29.2355 29.9205 27.3731C29.8761 26.5749 29.7431 25.6437 29.5214 24.5795C32.3593 22.7615 33.867 20.7661 33.9113 20.6774L34.0887 20.4557L33.867 20.2783ZM28.1024 20.5C28.4128 19.8792 28.6346 19.2584 28.8563 18.6376C29.9648 19.4358 30.7187 20.1453 31.0291 20.5C30.7187 20.8547 29.9648 21.5642 28.8563 22.3624C28.6346 21.7416 28.3685 21.1208 28.1024 20.5ZM26.4174 10.789C27.7477 10.7003 28.7232 10.789 29.1667 10.8333C29.2554 11.8976 29.5214 16.0214 27.393 20.367C27.1269 20.8991 26.8165 21.4755 26.5061 21.9633C26.2844 22.318 26.0183 22.7171 25.7966 23.0275L25.708 23.1605V23.2936C25.974 24.9342 25.841 26.2645 25.7523 26.7966C25.2202 26.8853 23.8899 27.0183 22.2492 26.7523H22.1162L21.9832 26.841C21.7171 27.0627 21.4067 27.2401 21.0963 27.4618C20.7859 27.3287 20.4755 27.1957 20.2095 27.0627C20.8303 26.7079 21.4067 26.3089 21.9388 25.8654C23.5352 26.2202 24.6437 26.1315 24.6881 26.1315L24.9541 26.0872L24.9985 25.8211C24.9985 25.7768 25.0872 24.6239 24.7324 23.0719C25.3089 22.318 25.841 21.5642 26.2844 20.7217C26.5948 20.1896 26.8609 19.6131 27.0826 19.0367C28.6346 15.2676 28.3242 12.1193 28.3242 11.9862L28.2798 11.7202L28.0581 11.6315C27.9251 11.6315 24.9098 11.3211 21.185 12.7844C20.8746 12.607 20.5642 12.4297 20.2538 12.2523C22.6483 11.2324 24.9098 10.8777 26.4174 10.789ZM26.4174 23.3379C26.5061 23.2049 26.6391 23.0275 26.7278 22.8945C27.7034 25.5994 27.7477 27.9052 27.7034 28.7034C26.9052 28.7477 24.5994 28.7034 21.8945 27.7278C22.0275 27.6391 22.1605 27.5505 22.2936 27.4618C24.4664 27.7722 26.0627 27.4618 26.1514 27.4618L26.3731 27.4174L26.4174 27.1957C26.4174 27.107 26.7278 25.4664 26.4174 23.3379ZM14.844 22.6728C14.3119 22.0076 13.7798 21.2538 13.3807 20.5C13.8242 19.7462 14.3119 18.9924 14.844 18.3272L14.9327 18.1942L14.8884 18.0168C14.6223 16.9083 14.578 16.0214 14.578 15.6223C15.0214 15.6223 15.9083 15.6667 16.9725 15.9327L17.1498 15.9771L17.2829 15.8884C17.9924 15.3119 18.7018 14.8242 19.5 14.3807C20.2538 14.8242 21.0076 15.3119 21.6728 15.844L21.8058 15.9771L21.9832 15.9327C23.0474 15.6667 23.9342 15.6223 24.3777 15.6223C24.3777 16.0657 24.3333 16.9526 24.0673 18.0168L24.0229 18.1942L24.156 18.3272C24.6881 18.9924 25.2202 19.7462 25.6193 20.5C25.1758 21.2538 24.6881 22.0076 24.1116 22.7171L24.0229 22.8502L24.0673 23.0275C24.3333 24.0917 24.3777 24.9786 24.3777 25.422C23.9342 25.422 23.0474 25.3777 21.9832 25.1116L21.8058 25.0673L21.6728 25.156C21.0076 25.6881 20.2538 26.1758 19.5 26.6193C18.7462 26.1758 17.9924 25.6881 17.3272 25.156L17.1942 25.0673H17.0168C15.9526 25.3333 15.0657 25.3777 14.6223 25.3777C14.6223 24.9342 14.6223 24.0474 14.9327 22.9832L14.9771 22.8058L14.844 22.6728ZM26.4174 13.8486L26.3731 13.6269L26.1514 13.5826C26.0627 13.5826 24.4664 13.2722 22.3379 13.5826C22.2049 13.4939 22.0719 13.4052 21.9388 13.2722C24.6437 12.2966 26.9495 12.2966 27.7477 12.2966C27.792 13.0948 27.792 15.4006 26.7722 18.1055C26.6835 17.9725 26.5505 17.7951 26.4618 17.6621C26.7278 15.5336 26.4174 13.893 26.4174 13.8486ZM19.5 11.8976C18.8792 11.5872 18.2584 11.3654 17.682 11.1437C18.4358 10.0352 19.1896 9.32569 19.5443 9.01529C19.8991 9.32569 20.6086 10.0795 21.3624 11.1437C20.7416 11.3211 20.1208 11.5872 19.5 11.8976ZM19.5 6.84251C20.0321 7.28593 21.4954 8.57187 22.87 10.656C22.604 10.7446 22.2936 10.789 22.0275 10.8777C20.8746 9.14832 19.7661 8.26147 19.7217 8.21713L19.5 8.03976L19.2783 8.21713C19.2339 8.26147 18.1254 9.14832 16.9725 10.8777C16.6621 10.789 16.396 10.7003 16.13 10.656C17.5046 8.57187 18.9679 7.28593 19.5 6.84251ZM9.78899 10.8333C10.8532 10.7446 14.9771 10.4786 19.3226 12.607C19.8991 12.8731 20.4312 13.1835 20.9633 13.4939C21.318 13.7156 21.6728 13.9817 22.0275 14.2034L22.1606 14.292L22.2936 14.2477C23.9342 13.9817 25.2645 14.1147 25.7966 14.2034C25.8853 14.7355 26.0183 16.0657 25.7523 17.7064L25.708 17.8394L25.7966 17.9281C26.0183 18.2385 26.2401 18.5489 26.4174 18.8593C26.2844 19.1697 26.1514 19.4801 26.0183 19.7462C25.6636 19.1254 25.2202 18.5489 24.7768 17.9725C25.1315 16.4205 25.0428 15.2676 25.0428 15.2232L24.9985 14.9572L24.7324 14.9128C24.6881 14.9128 23.5352 14.8242 21.9832 15.1789C21.2737 14.6024 20.4755 14.0703 19.6774 13.6269C19.1453 13.3165 18.5688 13.0505 17.9924 12.8287C14.2232 11.2768 11.0749 11.5872 10.9419 11.5872L10.6758 11.6315L10.6315 11.8976C10.6315 12.0306 10.3211 15.0459 11.7844 18.7706C11.607 19.081 11.4297 19.3914 11.2523 19.7018C10.2324 17.3073 9.87768 15.0902 9.74465 13.5382C9.70031 12.2523 9.74465 11.2768 9.78899 10.8333ZM12.5382 17.6621C12.4495 17.7951 12.3609 17.9281 12.2722 18.0612C11.2966 15.3563 11.2966 13.0505 11.2966 12.2523C12.0948 12.208 14.4006 12.208 17.1055 13.2278C16.9725 13.3165 16.8394 13.4495 16.6621 13.5382C14.4893 13.2278 12.893 13.5382 12.8043 13.5382L12.5826 13.5826L12.5382 13.8486C12.5382 13.893 12.2278 15.5336 12.5382 17.6621ZM10.1437 22.3624C9.03517 21.5642 8.32569 20.8547 7.97095 20.5C8.28135 20.1453 9.03517 19.4358 10.0994 18.682C10.3211 19.3028 10.5428 19.9235 10.8532 20.5443C10.5872 21.1208 10.3211 21.7416 10.1437 22.3624ZM5.84251 20.5C6.28593 19.9679 7.57187 18.5046 9.65596 17.13C9.74465 17.396 9.78899 17.7064 9.87768 17.9725C8.14832 19.1697 7.26147 20.2339 7.21713 20.2783L7.03976 20.5L7.21713 20.7217C7.26147 20.7661 8.14832 21.8303 9.87768 23.0275C9.78899 23.3379 9.70031 23.604 9.65596 23.87C7.57187 22.4954 6.28593 21.0321 5.84251 20.5ZM12.5382 30.211C11.208 30.2997 10.2324 30.2553 9.78899 30.211C9.74465 29.7676 9.70031 28.792 9.78899 27.4618C9.92202 25.8211 10.3211 23.2936 11.5627 20.6774C11.8287 20.1009 12.1391 19.5688 12.4495 19.0367C12.6713 18.682 12.893 18.3272 13.159 17.9725L13.2477 17.8394L13.2034 17.7064C12.9373 16.0657 13.0703 14.6911 13.159 14.2034C13.6911 14.1147 15.0214 13.9817 16.6621 14.2477L16.7951 14.292L16.9281 14.2034C17.2385 13.9817 17.5046 13.7599 17.8593 13.5826C18.1697 13.7156 18.4801 13.8486 18.7905 14.026C18.1697 14.3807 17.5489 14.8242 17.0168 15.2676C15.4205 14.8685 14.3119 15.0015 14.2676 15.0015L14.0015 15.0459L13.9572 15.3119C13.9572 15.3563 13.8242 16.5092 14.2232 18.0612C13.6468 18.7706 13.159 19.5688 12.7156 20.367C12.4052 20.8991 12.1391 21.4755 11.9174 22.052C10.3654 25.8211 10.6758 28.9694 10.6758 29.1024L10.7202 29.3685L10.9862 29.4128C11.0306 29.4128 11.2966 29.4572 11.7844 29.4572C12.9373 29.4572 15.2431 29.2798 17.9037 28.2599C18.2141 28.4373 18.4801 28.6147 18.7905 28.7477C16.3517 29.7232 14.0902 30.078 12.5382 30.211ZM12.2722 22.8945C12.3609 23.0275 12.4495 23.1605 12.5382 23.2936C12.2278 25.4664 12.5382 27.0627 12.5382 27.1514L12.5826 27.3731L12.8043 27.4174C12.8486 27.4174 14.4893 27.7722 16.6621 27.4174C16.7951 27.5061 16.9281 27.5948 17.1055 27.7278C14.4006 28.7034 12.0948 28.7477 11.2966 28.7034C11.2523 27.9495 11.2523 25.6437 12.2722 22.8945ZM19.5 29.1024C20.1208 29.4128 20.7416 29.6346 21.3624 29.8563C20.6086 30.9648 19.8547 31.6743 19.5 32.029C19.1453 31.7187 18.4358 30.9648 17.6376 29.8563C18.2584 29.6346 18.8792 29.3685 19.5 29.1024ZM19.5 34.1575C18.9679 33.7141 17.5046 32.4281 16.13 30.2997C16.396 30.211 16.7064 30.1667 16.9725 30.078C18.1697 31.8073 19.2339 32.7385 19.2783 32.7829L19.5 32.9602L19.7217 32.7829C19.7661 32.7385 20.8303 31.8073 22.0275 30.1223C22.2936 30.211 22.604 30.2997 22.87 30.344C21.4954 32.3838 20.0321 33.7141 19.5 34.1575ZM29.1667 30.1667C28.7232 30.211 27.7477 30.2553 26.4174 30.1667C24.7768 30.0336 22.2492 29.6346 19.633 28.393C19.0566 28.1269 18.5245 27.8165 18.0367 27.5061C17.6376 27.2844 17.2829 27.0627 16.9725 26.841L16.8394 26.7523L16.7064 26.7966C15.0657 27.0627 13.6911 26.9297 13.2034 26.841C13.1147 26.3089 12.9817 24.9786 13.2477 23.3379L13.292 23.2049L13.2034 23.0719C12.9817 22.8058 12.8043 22.4954 12.5826 22.185C12.7156 21.8746 12.8486 21.5642 13.026 21.2538C13.3807 21.8746 13.8242 22.4511 14.2676 23.0275C13.9128 24.6239 14.0015 25.7324 14.0015 25.7768L14.0459 26.0428L14.3119 26.0872C14.3563 26.0872 15.5092 26.2202 17.0612 25.8211C17.7706 26.3976 18.5688 26.9297 19.367 27.3731C19.8991 27.6835 20.4755 27.9495 21.052 28.1713C23.7569 29.2798 26.1514 29.4572 27.3043 29.4572C27.792 29.4572 28.0581 29.4128 28.1024 29.4128L28.3685 29.3685L28.4128 29.1024C28.4128 28.9694 28.7232 25.9098 27.2156 22.2294C27.393 21.919 27.5703 21.6529 27.7034 21.3425C28.7232 23.6927 29.078 25.9541 29.1667 27.4618C29.2997 28.7477 29.211 29.7232 29.1667 30.1667ZM29.2997 23.87C29.211 23.604 29.1667 23.2936 29.078 23.0275C30.8073 21.8303 31.7385 20.7661 31.7385 20.7217L31.9159 20.5L31.7385 20.2783C31.6942 20.2339 30.8073 19.1697 29.078 17.9725C29.1667 17.6621 29.2554 17.396 29.2997 17.13C31.3838 18.5046 32.7141 19.9679 33.1575 20.5C32.7141 21.0321 31.3838 22.4954 29.2997 23.87Z" fill="#BB9753"/>
</g>
<defs>
<clipPath id="clip0_21_853">
<rect width="29" height="29" fill="white" transform="translate(5 6)"/>
</clipPath>
</defs>
</svg>
