<svg width="40" height="40" viewBox="0 0 40 40" fill="none" xmlns="http://www.w3.org/2000/svg">
<g clip-path="url(#clip0_21_797)">
<path d="M34.7778 9.3242C34.8796 9.37325 35.0324 9.27516 35.0324 9.17707C35.0833 9.07898 35.0324 8.98089 34.9306 8.93185C34.8287 8.8828 34.6759 8.98089 34.6759 9.07898C34.625 9.17707 34.6759 9.27516 34.7778 9.3242ZM34.3704 9.22611C34.9815 8.09809 36 8 36 8C35.338 8.49045 35.0833 9.66752 34.9815 10.1089C34.8287 11.0898 34.6759 13.1006 31.5185 14.8662C27.8519 16.9261 28.0046 18.6917 26.9352 21.4873C24.7454 27.2745 14.5093 30.021 10.588 30.5605C6.66667 31.149 3 31.051 3 31.051C13.8472 29.4815 19.2963 25.1656 21.4352 20.5064C23.5231 15.8471 25.3056 15.5038 29.7361 13.9834C33.6065 12.6592 33.8611 10.6484 34.2685 9.56943C34.2685 9.47134 34.3194 9.37325 34.3704 9.22611C34.2176 9.3242 33.963 9.52038 33.7593 9.86369C33.5556 10.5013 33.25 10.4522 32.9954 10.5503C33.4537 10.1089 33.25 10.0599 33.6065 9.56943C33.912 9.22611 34.2176 9.22611 34.3704 9.22611Z" fill="#D71440"/>
<path d="M8.14343 27.4713C11.3008 26.4413 14.662 25.1171 17.1573 21.2917C19.8055 17.27 21.7916 16.142 25.9675 15.063C25.9675 15.063 22.5555 16.142 20.6712 20.1636C19.449 22.812 16.9536 24.8719 14.7638 25.8528C11.4536 27.3732 8.14343 27.4713 8.14343 27.4713Z" fill="#009148"/>
<path d="M29.9399 16.3386C29.9399 16.3386 29.176 17.1724 28.6667 18.4966C28.2084 19.8208 28.2593 21.4393 27.1389 23.303C26.0186 25.1666 24.4399 26.8342 21.1806 28.5017C21.1806 28.5017 25.1528 28.7469 27.5463 26.3437C29.9399 23.9405 29.5834 21.6354 29.4815 19.2323C29.4815 17.6138 29.9399 16.3386 29.9399 16.3386Z" fill="#F06022"/>
</g>
<defs>
<clipPath id="clip0_21_797">
<rect width="33" height="23.1" fill="white" transform="translate(3 8)"/>
</clipPath>
</defs>
</svg>
