<svg width="40" height="40" viewBox="0 0 40 40" fill="none" xmlns="http://www.w3.org/2000/svg">
<path d="M15.9864 22.3906L24.2532 22.4392L27.2832 25.5417L21.7092 25.5976L15.9377 22.5361L15.9864 22.3906Z" fill="#FDE449"/>
<path d="M11.9746 16.059C11.5734 15.9584 6.90523 14.0515 5.34866 14.1026C3.19052 14.3527 3.4917 17.063 3.4917 17.063C3.4917 17.063 4.02162 16.2417 5.16225 16.5768C6.30307 16.9133 14.9867 21.6804 14.9867 21.6804L24.2294 21.8291L23.269 20.2249C23.2686 20.2249 12.3765 16.159 11.9746 16.059Z" fill="#FDE449"/>
<path d="M34.0112 16.3086H12.2794C12.2794 16.3086 12.0126 16.6247 12.0126 17.5345C12.1367 17.5759 31.6018 17.5497 31.6018 17.5497L34.0112 16.3086Z" fill="#FDE449"/>
<path d="M29.2161 14.9333L13.0622 15.0908L12.0321 16.3303H34.1351L36.3123 15.3073L37.2716 14.8555L29.2161 14.9333Z" fill="#3DB94D"/>
<path d="M37.1842 14.8555L13.0623 15.09L12.0319 16.3301H34.1382L37.2722 14.8555H37.1842Z" fill="url(#paint0_linear_124_3612)"/>
<path d="M15.7121 22.5151V22.2891H24.4074L28.0112 25.8238H21.655L15.6086 22.7156L15.7121 22.2891V22.5151L15.8156 22.3139L21.7644 25.3714H26.9057L24.2229 22.7407H15.7123V22.5151L15.8158 22.3139L15.7121 22.5151ZM19.6887 23.2805L21.9999 24.2711L22.0846 22.8706L24.594 24.2472L24.5449 23.6309L24.9952 23.5948L25.1119 25.0458L22.4927 23.6096L22.412 24.9394L19.5111 23.6962L19.6887 23.2805Z" fill="#272525"/>
<path d="M20.5507 23.4407V23.0273H21.2542V23.4407" fill="#272525"/>
<path d="M23.3843 23.4054V22.9922H24.0878V23.4054" fill="#272525"/>
<path d="M30.0457 18.6598L31.8025 17.418L30.0457 18.6598Z" fill="#EE2C30"/>
<path d="M31.8025 17.418L11.9788 17.4384C11.9788 17.4384 12.0793 18.3593 12.3295 18.6662L30.0457 18.6598" fill="#EE2C30"/>
<path d="M30.0472 18.6596L31.8003 17.418L11.9788 17.4354V17.4393C11.9859 17.5044 12.0883 18.3696 12.3279 18.6639H13.4384L30.0472 18.6596Z" fill="url(#paint1_linear_124_3612)"/>
<path d="M30.2462 18.6172L12.329 18.6376C12.329 18.6376 12.5937 19.7798 14.1188 20.2148H28.3385L30.2462 18.6172Z" fill="#231F20"/>
<path d="M30.2422 18.6172H29.169L12.3295 18.6376V18.6428C12.3512 18.7269 12.6543 19.794 14.1175 20.2148H28.3388L30.2422 18.6172Z" fill="url(#paint2_linear_124_3612)"/>
<path d="M23.398 20.1475L24.4947 21.979H14.9664L14.9324 21.9594C14.931 21.9588 14.364 21.6422 13.4993 21.1638C12.2024 20.4451 10.2394 19.3644 8.53194 18.4461C7.67831 17.9881 6.88858 17.5694 6.27865 17.2597C5.97359 17.1038 5.71319 16.9761 5.51396 16.8829C5.31667 16.7907 5.16967 16.7324 5.12831 16.7237C5.01025 16.6969 4.90034 16.6849 4.79684 16.6849C4.42051 16.6849 4.13196 16.8417 3.93176 17.0034C3.83272 17.084 3.75699 17.1652 3.70651 17.2253L3.65116 17.2972L3.63796 17.3152L3.63505 17.3201L3.38183 17.7169L3.35756 17.2467C3.35717 17.2448 3.35193 17.1442 3.35193 16.9821C3.35232 16.7388 3.36416 16.3572 3.42378 15.9613C3.48456 15.5641 3.58941 15.1523 3.79583 14.8394L3.92127 14.9231L3.79117 14.8471C4.0805 14.348 4.67567 14.0123 5.61687 14.0156C5.7262 14.0156 5.83979 14.0199 5.95902 14.0289L5.94776 14.1789L5.95262 14.0285C6.32467 14.0415 6.88469 14.1776 7.53656 14.3733C9.48635 14.9603 12.2092 16.0924 12.2117 16.0935L12.1536 16.2323L12.0045 16.2104C12.0579 15.8501 12.2047 15.4532 12.5492 15.1405C12.8937 14.8277 13.4236 14.6087 14.2116 14.5664H14.2172H14.2232C14.7972 14.5796 17.5618 14.5849 20.9858 14.5849C24.411 14.5849 28.4997 14.5796 31.7321 14.5752C33.3483 14.5728 34.7501 14.5709 35.748 14.5693C36.7463 14.5674 37.3383 14.5664 37.3397 14.5664L37.3519 14.8666L34.0786 15.1158L14.297 15.157L14.2914 15.1566C14.199 15.1488 14.1106 15.1453 14.0267 15.1453C13.1653 15.1496 12.7335 15.4896 12.4785 15.9064C12.2263 16.324 12.1767 16.8388 12.1773 17.1467C12.1773 17.2308 12.1808 17.3003 12.1841 17.3463C12.1876 17.3935 12.1909 17.4162 12.1909 17.4162L11.8921 17.4544C11.8911 17.4496 11.8762 17.3312 11.8762 17.1465C11.8769 16.8089 11.9241 16.2477 12.2204 15.7509C12.5138 15.2531 13.0818 14.8398 14.0265 14.8442C14.1188 14.8442 14.2151 14.8485 14.3145 14.8559L14.3029 15.006L14.3023 14.8559L34.0666 14.8145L37.329 14.5668L37.3403 14.7165L37.3409 14.8669C37.3409 14.8669 27.8368 14.8854 20.9858 14.8854C17.5597 14.8854 14.8005 14.8805 14.2164 14.8669L14.2199 14.7165L14.2281 14.8666C13.4857 14.9073 13.0333 15.1081 12.7517 15.363C12.4715 15.6188 12.3505 15.9384 12.3028 16.2543L12.2742 16.4455L12.096 16.3717C12.0956 16.3713 11.7948 16.2465 11.3202 16.057C10.6089 15.774 9.50926 15.348 8.46242 14.99C7.41889 14.6311 6.41224 14.3412 5.9431 14.33L5.93961 14.3296H5.93611C5.82445 14.3208 5.71765 14.317 5.61649 14.317C4.73742 14.3199 4.2807 14.6097 4.05079 14.9988L4.04846 15.0027L4.04594 15.0065C3.88069 15.2527 3.77641 15.6315 3.72088 16.006C3.66417 16.3799 3.65233 16.7485 3.65233 16.9821C3.65233 17.138 3.65757 17.2308 3.65757 17.2314L3.50708 17.2395L3.38047 17.1584C3.38611 17.1492 3.50611 16.9607 3.74185 16.7703C3.97623 16.5789 4.33236 16.3836 4.79626 16.3836C4.92267 16.3836 5.05569 16.3977 5.19569 16.4307C5.32346 16.4614 5.53784 16.5591 5.86349 16.7169C8.11367 17.8091 15.0765 21.6958 15.0786 21.6968L15.0052 21.8286V21.6779H23.9627L23.1389 20.3021L23.398 20.1475Z" fill="#272525"/>
<path d="M20.5513 23.4407H21.2547V23.0273H20.5513V23.4407ZM21.2168 23.4029H20.5888V23.0658H21.2168V23.4029Z" fill="#FDE449"/>
<path d="M23.3843 23.4056H24.0878V22.9922H23.3843V23.4056ZM24.0499 23.3677H23.4219V23.0306H24.0499V23.3677Z" fill="#FDE449"/>
<path d="M5.43535 15.0781C5.43535 15.2285 5.31359 15.3505 5.1631 15.3505C5.013 15.3505 4.89105 15.2285 4.89105 15.0781C4.89105 14.9266 5.013 14.8047 5.1631 14.8047C5.31359 14.8045 5.43535 14.9264 5.43535 15.0781Z" fill="#272525"/>
<path d="M5.1628 14.8086C5.01269 14.8086 4.89075 14.9305 4.89075 15.082C4.89075 15.2317 5.01269 15.3534 5.1628 15.3534C5.31329 15.3534 5.43504 15.2315 5.43504 15.082C5.43523 14.9305 5.31348 14.8086 5.1628 14.8086ZM5.1628 15.3157C5.03347 15.3157 4.92803 15.2109 4.92803 15.0822L4.93288 15.035C4.95463 14.9266 5.04939 14.8465 5.1628 14.8465C5.29251 14.8465 5.39795 14.9515 5.39795 15.082C5.39795 15.2109 5.29251 15.3157 5.1628 15.3157Z" fill="#FDE449"/>
<defs>
<linearGradient id="paint0_linear_124_3612" x1="12.0343" y1="15.5932" x2="37.2764" y2="15.5932" gradientUnits="userSpaceOnUse">
<stop stop-color="#3DB94D"/>
<stop offset="1" stop-color="white"/>
</linearGradient>
<linearGradient id="paint1_linear_124_3612" x1="11.9756" y1="18.0435" x2="31.7994" y2="18.0435" gradientUnits="userSpaceOnUse">
<stop stop-color="#EF2C30"/>
<stop offset="0.0337" stop-color="#EF2C30"/>
<stop offset="1" stop-color="white"/>
</linearGradient>
<linearGradient id="paint2_linear_124_3612" x1="12.3313" y1="19.4159" x2="30.2393" y2="19.4159" gradientUnits="userSpaceOnUse">
<stop stop-color="#231F20"/>
<stop offset="1" stop-color="white"/>
</linearGradient>
</defs>
</svg>
