<svg width="40" height="40" viewBox="0 0 40 40" fill="none" xmlns="http://www.w3.org/2000/svg">
<path d="M26.834 8.72084C24.4859 9.4976 21.3937 10.7768 18.2053 11.9559C19.9733 12.7547 21.7145 13.5046 23.0999 14.1131C27.5926 12.3208 31.0373 11.3148 31.0373 11.3148C31.0373 11.3148 30.4771 12.7312 28.0544 16.2965C29.2231 16.8039 30.6725 17.4019 31.6081 17.6887C35.0267 13.0991 37.2087 8.90657 35.7457 7.47311C35.4932 7.22455 35.1716 6.95312 34.2186 6.95312C33.0505 6.95312 30.9339 7.36106 26.834 8.72084Z" fill="url(#paint0_linear_124_3660)"/>
<path d="M21.6254 26.4007C22.8239 27.3017 23.717 26.8281 24.6567 26.1446C24.5666 26.2285 24.4752 26.3109 24.3824 26.392C25.6291 25.3618 27.1749 23.7754 29.3788 21.1222C28.2152 20.4387 27.0538 19.7613 26.1063 19.2109L21.6254 26.4007Z" fill="url(#paint1_linear_124_3660)"/>
<path d="M5.53474 7.92633C5.44975 7.93077 5.3768 7.93741 5.30158 7.93297C5.20614 7.92853 5.03048 8.06902 5.03048 8.06902C0.952467 10.409 13.0827 29.379 18.4669 32.8899C19.2141 33.3768 20.5762 33.9045 21.7757 33.5201C21.915 33.4753 22.2188 33.2516 22.2324 33.2359C23.4267 31.8839 24.6187 30.5302 25.8087 29.1747C25.7639 28.8536 25.4319 29.0446 25.3919 29.0726C24.005 30.0576 22.7903 29.5064 19.0514 25.7967C15.0693 21.8506 11.209 14.9446 11.209 14.9446L29.147 22.8338C30.3367 23.3566 31.0045 23.0593 31.3509 22.8405C31.4463 22.7802 34.6946 18.9599 34.6946 18.9599C34.7162 18.6945 34.414 18.8416 34.414 18.8416C33.3679 19.482 32.571 19.0045 30.8793 18.3408C29.7378 17.893 17.7133 12.703 13.4299 10.7185C7.93268 8.17264 6.42148 7.9181 5.7529 7.9181C5.68007 7.91728 5.60725 7.91959 5.53474 7.92633Z" fill="url(#paint2_linear_124_3660)"/>
<defs>
<linearGradient id="paint0_linear_124_3660" x1="8.75398" y1="26.079" x2="31.8695" y2="9.18826" gradientUnits="userSpaceOnUse">
<stop stop-color="#20294E"/>
<stop offset="0.5001" stop-color="#005695"/>
<stop offset="1" stop-color="#26B5E3"/>
</linearGradient>
<linearGradient id="paint1_linear_124_3660" x1="15.4792" y1="28.796" x2="38.7697" y2="13.8155" gradientUnits="userSpaceOnUse">
<stop stop-color="#20294E"/>
<stop offset="1" stop-color="#005F9B"/>
</linearGradient>
<linearGradient id="paint2_linear_124_3660" x1="28.1867" y1="27.7189" x2="7.66776" y2="5.57513" gradientUnits="userSpaceOnUse">
<stop stop-color="#20294E"/>
<stop offset="0.2951" stop-color="#005695"/>
<stop offset="0.9039" stop-color="#26B5E3"/>
<stop offset="1" stop-color="#26B5E3"/>
</linearGradient>
</defs>
</svg>
