<svg width="40" height="40" viewBox="0 0 40 40" fill="none" xmlns="http://www.w3.org/2000/svg">
<path d="M26.7386 19.0533L24.3719 20.6414V23.2261L32.9667 17.8388C34.0268 17.2354 34.9411 16.4061 35.6448 15.4098C36.1166 14.6862 36.3756 13.8446 36.3922 12.9809C36.5104 11.5006 35.8934 10.0569 34.7417 9.11942C33.2977 8.19447 31.5947 7.75782 29.8838 7.8738C28.4471 7.89841 27.0293 8.20526 25.711 8.77688C24.4034 9.31121 23.1933 10.0583 22.1298 10.9879C21.4097 10.0394 20.497 9.25403 19.4517 8.68345C18.3653 8.09232 17.1369 7.81217 15.9017 7.8738C12.3794 7.90963 9.08897 9.63595 7.05774 12.5137C4.73231 15.3753 3.45742 18.9472 3.44544 22.6344C3.24126 24.986 3.84545 27.3368 5.15817 29.2985C6.26817 30.6333 7.93938 31.3709 9.67355 31.2915C10.9764 31.2583 12.2545 30.9281 13.4104 30.3262C14.9355 29.5255 16.3576 28.5426 17.6455 27.399C18.1445 28.7004 19.0655 29.7969 20.2614 30.513C21.529 31.171 22.9444 31.4927 24.3719 31.4472C26.5927 31.4615 28.7652 30.7989 30.6 29.5477C32.3094 28.378 33.9328 27.0876 35.458 25.6862L34.2746 23.8801L32.0325 25.5305C31.122 26.1895 30.1526 26.7629 29.1364 27.2432C28.1749 27.75 27.109 28.0271 26.0224 28.0529C24.7357 28.194 23.496 27.5245 22.9083 26.3713C22.2349 25.0199 21.9135 23.5203 21.9741 22.0116C21.8938 19.1563 22.6283 16.3371 24.0917 13.8839C24.9488 11.895 26.8241 10.5332 28.9807 10.3339C29.7322 10.1923 30.5045 10.4381 31.036 10.9879C31.3808 11.5581 31.5336 12.2239 31.472 12.8874C31.538 14.0032 31.2071 15.1063 30.5378 16.0015C29.3911 17.2025 28.093 18.2493 26.6763 19.1156M18.4863 14.1019C18.3417 14.7604 18.1438 15.4061 17.8947 16.0326C17.4282 17.2005 17.0737 18.41 16.8359 19.6449C16.6087 20.5731 16.4834 21.5234 16.4622 22.4787C16.4622 23.1638 16.4622 23.6932 16.4622 24.098C16.4412 24.4299 16.4412 24.7627 16.4622 25.0945L13.3481 26.8696C13.0497 27.0499 12.7373 27.2061 12.4139 27.3367C12.1174 27.4585 11.8002 27.5219 11.4797 27.5235C10.6133 27.3396 9.91882 26.693 9.67355 25.8419C9.11531 24.6105 8.83871 23.27 8.8639 21.9182C8.73025 18.9348 9.58398 15.9905 11.2929 13.5414C12.4167 11.7342 14.3393 10.576 16.4622 10.4273C17.1171 10.3603 17.7678 10.5886 18.2372 11.0501C18.6272 11.5089 18.8277 12.0992 18.7977 12.7006C18.7483 13.1781 18.6438 13.6484 18.4863 14.1019Z" fill="#0072CE"/>
</svg>
