<?xml version="1.0" encoding="UTF-8"?>
<svg version="1.1" xmlns="http://www.w3.org/2000/svg" width="256" height="256">
<path d="M0 0 C2.3125 2.5625 2.3125 2.5625 4 5 C2.92598892 7.91517292 2.22189824 9.77810176 0 12 C-2.625 12.625 -2.625 12.625 -5 13 C-5 13.66 -5 14.32 -5 15 C-4.16597656 15.20753906 -3.33195313 15.41507813 -2.47265625 15.62890625 C5.53096533 17.82004664 10.86175887 20.50366644 17 26 C18.66357964 27.44758428 20.33399657 28.88661026 22.00976562 30.32006836 C23.14583317 31.29436422 24.27511372 32.27664633 25.39648438 33.26782227 C28.47917453 35.94052979 31.20850881 37.566468 35 39 C35.88115056 40.38950664 36.75832604 41.78172384 37.61328125 43.1875 C40.12938859 46.47615861 43.49999555 48.81525753 46.73046875 51.37109375 C50.46584821 54.33705185 54.03877438 57.48177344 57.625 60.625 C62.94566751 65.27235243 68.33241308 69.77618861 74 74 C73.649375 73.05125 73.29875 72.1025 72.9375 71.125 C72 68 72 68 73 66 C76.82792868 67.5595265 79.36359864 69.83631836 82 73 C81.875 75.125 81.875 75.125 81 77 C80.67 77.99 80.34 78.98 80 80 C80.62003906 80.49886719 81.24007812 80.99773437 81.87890625 81.51171875 C88.22296651 86.65530182 94.41437577 91.94256174 100.56152344 97.31860352 C104.70803932 100.92837951 108.93162952 104.37449332 113.36328125 107.6328125 C115 109 115 109 117 112 C116.96759013 118.57920364 114.09833053 122.26996992 110.25 127.25 C109.05120877 128.85384412 107.85465866 130.45936538 106.66015625 132.06640625 C106.0480127 132.88512207 105.43586914 133.70383789 104.80517578 134.54736328 C101.99910962 138.35987892 99.34098955 142.26793934 96.6875 146.1875 C90.57054763 155.18569974 84.36871095 164.12258223 78.14453125 173.046875 C75.29611015 177.13211944 72.46190688 181.22678118 69.63671875 185.328125 C68.92298096 186.36163086 68.20924316 187.39513672 67.47387695 188.45996094 C66.11385308 190.42983616 64.75673229 192.40172014 63.40307617 194.37597656 C61.63039804 196.93909553 59.82603242 199.47470273 58 202 C57.50145508 202.71671875 57.00291016 203.4334375 56.48925781 204.171875 C56.01069336 204.80609375 55.53212891 205.4403125 55.0390625 206.09375 C54.64154785 206.63708984 54.2440332 207.18042969 53.83447266 207.74023438 C48.93565014 211.10434459 40.73389417 210.18130346 34.94140625 210.28125 C33.24023399 210.31899303 31.53906213 210.35675395 29.83789062 210.39453125 C27.18239753 210.44843734 24.52687764 210.50069157 21.87133789 210.55224609 C19.29042521 210.60376509 16.70968639 210.66102566 14.12890625 210.71875 C12.92748741 210.73911316 12.92748741 210.73911316 11.70179749 210.7598877 C8.04889805 210.50425192 8.04889805 210.50425192 5 212 C3.33382885 212.04063832 1.66611905 212.042721 0 212 C-0.0825 212.763125 -0.165 213.52625 -0.25 214.3125 C-1 217 -1 217 -2.625 218.9375 C-6.16916779 220.52304875 -8.47277916 219.28879223 -12 218 C-12.495 214.535 -12.495 214.535 -13 211 C-13.79583496 210.98541748 -14.59166992 210.97083496 -15.41162109 210.95581055 C-19.06653466 210.88069504 -22.72059751 210.78424492 -26.375 210.6875 C-28.25251953 210.65366211 -28.25251953 210.65366211 -30.16796875 210.61914062 C-38.82039441 210.36998701 -47.09997025 210.0420232 -54.125 204.5625 C-56 202 -56 202 -56 198 C-57.65 198.66 -59.3 199.32 -61 200 C-62.17560179 198.73742767 -63.34022865 197.46462916 -64.5 196.1875 C-65.1496875 195.47980469 -65.799375 194.77210938 -66.46875 194.04296875 C-68 192 -68 192 -68 189 C-66 187.3125 -66 187.3125 -64 186 C-64.4197589 183.06168772 -64.96060879 181.06565201 -66.5 178.5 C-68.04457336 175.92571106 -68.4344046 173.90877633 -69 171 C-69.66 170.67 -70.32 170.34 -71 170 C-71.78125 168.22265625 -71.78125 168.22265625 -72.5 166.0625 C-73.42402464 163.29544796 -73.89137369 162.10862631 -76 160 C-77.21477079 156.71297314 -78.21217204 153.41392117 -79 150 C-80.65 149.67 -82.3 149.34 -84 149 C-83.92265625 149.74507812 -83.8453125 150.49015625 -83.765625 151.2578125 C-84.0673677 154.78820209 -85.09060139 155.6135406 -87.75 157.875 C-88.44609375 158.49117187 -89.1421875 159.10734375 -89.859375 159.7421875 C-92 161 -92 161 -94.0625 160.91796875 C-96.4433321 159.78995354 -97.60913782 158.48857772 -99.25 156.4375 C-99.77078125 155.79683594 -100.2915625 155.15617188 -100.828125 154.49609375 C-101.21484375 154.00238281 -101.6015625 153.50867188 -102 153 C-100.46593371 149.68532105 -99.13688367 147.96055229 -96 146 C-95.34 146 -94.68 146 -94 146 C-94 145.34 -94 144.68 -94 144 C-92.35 144 -90.7 144 -89 144 C-88.814375 142.824375 -88.814375 142.824375 -88.625 141.625 C-88 139 -88 139 -86 137 C-86.495 136.05125 -86.99 135.1025 -87.5 134.125 C-89 131 -89 131 -89 129 C-89.66 128.67 -90.32 128.34 -91 128 C-92 125.92578125 -92 125.92578125 -93 123.3125 C-93.34546875 122.41402344 -93.6909375 121.51554687 -94.046875 120.58984375 C-95.09374493 117.74527503 -96.08720352 114.89052218 -97 112 C-97.66 112 -98.32 112 -99 112 C-99.99 109.03 -100.98 106.06 -102 103 C-102.66 103 -103.32 103 -104 103 C-104.33 103.33 -104.66 103.66 -105 104 C-111.25356751 103.76838639 -111.25356751 103.76838639 -114.125 100.8125 C-115 98 -115 98 -113.9375 94.75 C-112 92 -112 92 -109.8125 91.125 C-109.214375 91.08375 -108.61625 91.0425 -108 91 C-108.34786708 89.02463255 -108.34786708 89.02463255 -109 87 C-109.66 86.67 -110.32 86.34 -111 86 C-111.70626239 84.01363702 -112.36893571 82.01151741 -113 80 C-114.15321343 77.40526978 -114.9713088 76.0286912 -117 74 C-117.67300239 72.47867528 -118.29142113 70.93281797 -118.875 69.375 C-120.17584606 65.99573447 -121.57147436 62.77074582 -123.25 59.5625 C-125 56 -125 56 -125 53 C-125.66 53 -126.32 53 -127 53 C-127.20625 53.61875 -127.4125 54.2375 -127.625 54.875 C-129 57 -129 57 -132 57.9375 C-135.21537038 58.68190403 -135.21537038 58.68190403 -136.25 61.5625 C-136.4975 62.366875 -136.745 63.17125 -137 64 C-137.99 64.495 -137.99 64.495 -139 65 C-139 59 -139 53 -139 47 C-136.42786866 45.38050989 -135.32330841 44.95591249 -132.25 45.375 C-131.5075 45.58125 -130.765 45.7875 -130 46 C-130.309375 45.236875 -130.61875 44.47375 -130.9375 43.6875 C-131.67893593 41.81210323 -132.36228217 39.91315348 -133 38 C-133.66 37.34 -134.32 36.68 -135 36 C-135 35.34 -135 34.68 -135 34 C-135.66 33.34 -136.32 32.68 -137 32 C-139.07555666 27.15703446 -139.43198003 23.18376038 -139 18 C-135.16327717 15.44218478 -132.05464013 15.74693544 -127.61328125 15.8046875 C-126.79627243 15.8075174 -125.97926361 15.81034729 -125.13749695 15.81326294 C-122.52901541 15.82445459 -119.9208777 15.8495571 -117.3125 15.875 C-115.54362475 15.88503112 -113.77474412 15.89415674 -112.00585938 15.90234375 C-107.67044051 15.92439058 -103.33527855 15.9589133 -99 16 C-99 14.68 -99 13.36 -99 12 C-95.28111761 12.50712033 -92.26545761 13.11608215 -89 15 C-91.475 12.03 -91.475 12.03 -94 9 C-93.67 8.34 -93.34 7.68 -93 7 C-89.78894156 8.1892809 -89.01725109 8.96926742 -87.28833008 12.04931641 C-85.26724512 14.50325705 -84.18111149 14.96794562 -81.00009155 15.53094482 C-77.01170842 15.69614989 -73.06327738 15.67481678 -69.07421875 15.5859375 C-67.60164623 15.57473913 -66.12905128 15.56620196 -64.65644836 15.56021118 C-60.79085981 15.53736215 -56.92663587 15.47847637 -53.06158447 15.4119873 C-49.11350972 15.35047785 -45.16521323 15.32317791 -41.21679688 15.29296875 C-33.47724417 15.22872622 -25.73881368 15.12639828 -18 15 C-18 13.02 -18 11.04 -18 9 C-12.25 6 -12.25 6 -10 6 C-9.9175 5.21625 -9.835 4.4325 -9.75 3.625 C-9 1 -9 1 -7.25 -0.375 C-4.32625728 -1.18715076 -2.8500887 -1.06878326 0 0 Z M-5 2 C-6.29633621 3.06645115 -6.29633621 3.06645115 -6.0625 5.5625 C-6.041875 6.366875 -6.02125 7.17125 -6 8 C-3.525 8.495 -3.525 8.495 -1 9 C-0.34 7.68 0.32 6.36 1 5 C-1.67247634 2.65712582 -1.67247634 2.65712582 -5 2 Z M-15 11 C-14.67 12.32 -14.34 13.64 -14 15 C-12.35 15.33 -10.7 15.66 -9 16 C-8.34 14.02 -7.68 12.04 -7 10 C-10.62326739 8.7922442 -11.64146369 9.45688872 -15 11 Z M-135 48 C-136.29633621 49.06645115 -136.29633621 49.06645115 -136.0625 51.5625 C-136.041875 52.366875 -136.02125 53.17125 -136 54 C-133.525 54.495 -133.525 54.495 -131 55 C-130.34 53.68 -129.68 52.36 -129 51 C-130.31201173 49.43750191 -130.31201173 49.43750191 -132 48 C-132.99 48 -133.98 48 -135 48 Z M78 74 C79 76 79 76 79 76 Z M-110 94 C-110.66 95.32 -111.32 96.64 -112 98 C-110.77190909 99.64555699 -110.77190909 99.64555699 -109 101 C-106.83700789 100.77242269 -106.83700789 100.77242269 -105 100 C-105 98.35 -105 96.7 -105 95 C-106.65 94.67 -108.3 94.34 -110 94 Z M-85 139 C-85 140.98 -85 142.96 -85 145 C-83.68 145.33 -82.36 145.66 -81 146 C-81.99 143.69 -82.98 141.38 -84 139 C-84.33 139 -84.66 139 -85 139 Z M-93 147 C-94.65 148.98 -96.3 150.96 -98 153 C-94.48283697 153 -93.62878252 152.17554415 -91 150 C-91.309375 150.598125 -91.61875 151.19625 -91.9375 151.8125 C-93.10209704 154.08956772 -93.10209704 154.08956772 -94 157 C-91.50638429 155.79618552 -89.31856917 154.54571278 -87 153 C-87.33 151.35 -87.66 149.7 -88 148 C-89.65 147.67 -91.3 147.34 -93 147 Z M-62 188 C-62.66 189.32 -63.32 190.64 -64 192 C-63.01 191.67 -62.02 191.34 -61 191 C-61.33 190.01 -61.66 189.02 -62 188 Z M-60 193 C-60 193.99 -60 194.98 -60 196 C-59.34 195.34 -58.68 194.68 -58 194 C-58.66 193.67 -59.32 193.34 -60 193 Z M-9 210 C-9.77242269 211.83700789 -9.77242269 211.83700789 -10 214 C-8.64555699 215.77190909 -8.64555699 215.77190909 -7 217 C-4.96758273 216.36020151 -4.96758273 216.36020151 -3 215 C-2.18828772 212.44480079 -2.18828772 212.44480079 -2 210 C-4.31 210 -6.62 210 -9 210 Z " fill="#E1080B" transform="translate(139,21)"/>
<path d="M0 0 C2.1875 0.875 2.1875 0.875 3.1875 1.875 C3.27435603 3.43672745 3.29452219 5.00229344 3.28515625 6.56640625 C3.28032227 7.98276367 3.28032227 7.98276367 3.27539062 9.42773438 C3.26282227 10.91756836 3.26282227 10.91756836 3.25 12.4375 C3.24548828 13.43458984 3.24097656 14.43167969 3.23632812 15.45898438 C3.22450007 17.93104849 3.20801849 20.40299518 3.1875 22.875 C7.89620284 21.65228275 7.89620284 21.65228275 12.3125 19.6875 C14.87759115 18.5759605 16.55227202 19.14299223 19.1875 19.875 C19.5625 22.125 19.5625 22.125 19.1875 24.875 C15.24381775 27.91222394 11.34845883 29.70731748 6.6875 31.375 C-0.0920512 33.95192125 -6.44327847 37.16490387 -12.8125 40.625 C-13.67681641 41.08970703 -14.54113281 41.55441406 -15.43164062 42.03320312 C-17.22459579 43.02219027 -18.9997411 44.04400302 -20.7578125 45.09375 C-23.08860937 46.45288475 -25.38956698 47.65619192 -27.8046875 48.84375 C-35.00115839 52.50791297 -35.00115839 52.50791297 -39.58886719 58.83874512 C-40.70313733 64.33779348 -40.2290531 69.82132209 -39.8125 75.375 C-39.74567728 77.02707812 -39.68573171 78.67944935 -39.6328125 80.33203125 C-39.38886814 86.88959757 -38.90211758 93.38969776 -38.125 99.90625 C-37.9703125 101.87078125 -37.9703125 101.87078125 -37.8125 103.875 C-39.8125 105.875 -39.8125 105.875 -42.9375 106 C-43.88625 105.95875 -44.835 105.9175 -45.8125 105.875 C-47.53052382 102.43895235 -46.9321618 98.49061104 -46.91015625 94.7109375 C-46.9087413 93.80372955 -46.90732635 92.89652161 -46.90586853 91.96182251 C-46.90026096 89.05784845 -46.88770718 86.15395085 -46.875 83.25 C-46.86998598 81.28385528 -46.8654229 79.31770935 -46.86132812 77.3515625 C-46.85028906 72.5260121 -46.83301935 67.70051903 -46.8125 62.875 C-51.58833597 66.0030652 -51.58833597 66.0030652 -56.06640625 69.53125 C-56.61103516 69.99660156 -57.15566406 70.46195312 -57.71679688 70.94140625 C-58.26400391 71.41449219 -58.81121094 71.88757813 -59.375 72.375 C-60.47992249 73.32355334 -61.58538329 74.27148004 -62.69140625 75.21875 C-63.21750488 75.66992188 -63.74360352 76.12109375 -64.28564453 76.5859375 C-65.69987966 77.77991919 -67.14377777 78.93852429 -68.58984375 80.09375 C-70.84467233 81.83411899 -70.84467233 81.83411899 -72.8125 83.875 C-74.8125 85.875 -74.8125 85.875 -77.125 87.625 C-81.57774921 91.35288306 -85.18610679 95.90361429 -88.875 100.375 C-91.54930179 102.44542719 -93.52604204 102.17376891 -96.8125 101.875 C-97.6875 99.875 -97.6875 99.875 -97.8125 96.875 C-95.12771291 92.03279471 -91.42035132 87.94690088 -86.8125 84.875 C-86.1525 84.875 -85.4925 84.875 -84.8125 84.875 C-84.8125 84.215 -84.8125 83.555 -84.8125 82.875 C-82.87078598 81.18561649 -80.92105591 79.61760117 -78.875 78.0625 C-77.9478418 77.34694946 -77.9478418 77.34694946 -77.00195312 76.61694336 C-75.65861866 75.58192883 -74.3129695 74.54991337 -72.96533203 73.52050781 C-70.7408716 71.82025115 -68.52426146 70.11013259 -66.30859375 68.3984375 C-64.81025837 67.24432084 -63.31156692 66.0906663 -61.8125 64.9375 C-61.10746338 64.39440186 -60.40242676 63.85130371 -59.67602539 63.29174805 C-56.63169911 60.96275328 -53.59736648 58.70222969 -50.3671875 56.63671875 C-47.66872463 55.12861825 -47.66872463 55.12861825 -46.9375 52.625 C-46.89625 52.0475 -46.855 51.47 -46.8125 50.875 C-47.5859375 51.37 -47.5859375 51.37 -48.375 51.875 C-51.74731939 53.25851565 -54.20583002 53.33403072 -57.8125 52.875 C-60.60234319 50.08515681 -61.003714 47.48779466 -61.125 43.6875 C-60.86943077 37.29826928 -60.49182008 30.59370834 -56.5625 25.3125 C-53.51858568 22.61448503 -51.82350822 22.06155852 -47.8125 21.875 C-48.22414151 24.75649054 -48.66721848 26.66010441 -50.3125 29.09375 C-52.18423925 32.56426652 -52.31673599 35.26565025 -52.5 39.1875 C-52.56574219 40.44175781 -52.63148438 41.69601563 -52.69921875 42.98828125 C-52.73660156 43.94089844 -52.77398437 44.89351562 -52.8125 45.875 C-50.20565153 45.03822709 -50.20565153 45.03822709 -47.8125 42.875 C-46.9141655 39.79300976 -46.79051568 36.69517229 -46.625 33.5 C-45.90374117 22.55676263 -45.90374117 22.55676263 -43.8125 18.875 C-41.25 18 -41.25 18 -38.8125 17.875 C-37.22352608 19.46397392 -37.64201333 21.0382674 -37.625 23.25 C-37.68184817 31.83407434 -38.82404669 40.3584157 -39.8125 48.875 C-33.1334654 45.12109004 -26.48520544 41.37101258 -20.0625 37.1875 C-15.75880273 34.3907353 -11.36808087 32.07024478 -6.7109375 29.91796875 C-4.64731765 29.01845259 -4.64731765 29.01845259 -3.8125 26.875 C-3.72907841 25.42651418 -3.70517139 23.97429131 -3.71484375 22.5234375 C-3.71806641 21.67265625 -3.72128906 20.821875 -3.72460938 19.9453125 C-3.73298828 19.05585937 -3.74136719 18.16640625 -3.75 17.25 C-3.75451172 16.3528125 -3.75902344 15.455625 -3.76367188 14.53125 C-3.77547409 12.31243352 -3.79193845 10.09374982 -3.8125 7.875 C-7.43239472 9.00024376 -7.43239472 9.00024376 -10.09765625 11.5625 C-11.40381358 15.78788327 -11.22687966 20.17094826 -11.37109375 24.5625 C-11.83412875 28.03731133 -12.18638023 29.56632328 -14.8125 31.875 C-17.42358398 31.97265625 -17.42358398 31.97265625 -19.8125 31.875 C-19.87066623 28.45840509 -19.90615195 25.04193795 -19.9375 21.625 C-19.95425781 20.65691406 -19.97101563 19.68882813 -19.98828125 18.69140625 C-19.99472656 17.75683594 -20.00117188 16.82226562 -20.0078125 15.859375 C-20.01828613 15.00053711 -20.02875977 14.14169922 -20.03955078 13.25683594 C-19.79210008 10.66099827 -19.21641471 9.06240165 -17.8125 6.875 C-15.859375 6.22265625 -15.859375 6.22265625 -13.5625 5.9375 C-10.06619881 5.33237095 -8.14314194 4.6337335 -5.5625 2.1875 C-2.8125 -0.125 -2.8125 -0.125 0 0 Z " fill="#FDF5F5" transform="translate(194.8125,95.125)"/>
<path d="M0 0 C2.875 0.875 2.875 0.875 4.875 2.875 C5.09800636 8.11564957 3.47415785 10.62606085 0.25 14.6875 C-8.71219569 26.40729437 -12.3195077 41.819012 -16.125 55.875 C-16.64707031 57.74478516 -16.64707031 57.74478516 -17.1796875 59.65234375 C-21.70812369 76.66030759 -24.1059138 94.1868269 -26.08618164 111.65258789 C-26.19438232 112.5574292 -26.30258301 113.46227051 -26.4140625 114.39453125 C-26.50381348 115.18964111 -26.59356445 115.98475098 -26.68603516 116.80395508 C-27.125 118.875 -27.125 118.875 -29.125 121.875 C-30.775 121.545 -32.425 121.215 -34.125 120.875 C-37.17367584 109.06718445 -39.19397221 97.30878004 -40.8046875 85.22607422 C-41.24184318 82.0173782 -41.73302839 78.8218612 -42.25 75.625 C-42.39695312 74.71234375 -42.54390625 73.7996875 -42.6953125 72.859375 C-42.93560125 70.88391709 -42.93560125 70.88391709 -44.125 69.875 C-44.57939453 71.15697266 -44.57939453 71.15697266 -45.04296875 72.46484375 C-45.46191406 73.56957031 -45.88085938 74.67429687 -46.3125 75.8125 C-46.71855469 76.91464844 -47.12460938 78.01679688 -47.54296875 79.15234375 C-49.125 81.875 -49.125 81.875 -51.80078125 82.75390625 C-52.95126953 82.81384766 -52.95126953 82.81384766 -54.125 82.875 C-55.39517121 78.51065325 -54.76711029 75.81528541 -53.32421875 71.55078125 C-52.92396484 70.35775391 -52.52371094 69.16472656 -52.11132812 67.93554688 C-51.68271484 66.69869141 -51.25410156 65.46183594 -50.8125 64.1875 C-50.39548828 62.93904297 -49.97847656 61.69058594 -49.54882812 60.40429688 C-46.40586515 51.15586515 -46.40586515 51.15586515 -44.125 48.875 C-41.625 49 -41.625 49 -39.125 49.875 C-37.47437842 52.54395886 -36.7976403 54.95528778 -36.37890625 58.04296875 C-36.26522705 58.84637695 -36.15154785 59.64978516 -36.03442383 60.47753906 C-35.91993896 61.33057617 -35.8054541 62.18361328 -35.6875 63.0625 C-35.43416167 64.85313015 -35.17891617 66.64349139 -34.921875 68.43359375 C-34.79232422 69.33706543 -34.66277344 70.24053711 -34.52929688 71.17138672 C-33.90652226 75.33600392 -33.181599 79.48057785 -32.4375 83.625 C-32.30609619 84.3574292 -32.17469238 85.0898584 -32.03930664 85.84448242 C-31.73670188 87.52171351 -31.43121399 89.1984241 -31.125 90.875 C-31.01542969 90.11807861 -30.90585938 89.36115723 -30.79296875 88.58129883 C-27.11414741 63.70252178 -21.49759128 39.81064221 -12.375 16.3125 C-11.91528809 15.12253418 -11.45557617 13.93256836 -10.98193359 12.70654297 C-10.53930176 11.60584473 -10.09666992 10.50514648 -9.640625 9.37109375 C-9.25165039 8.40357178 -8.86267578 7.4360498 -8.46191406 6.43920898 C-6.34401874 2.37707338 -4.76942738 -0.1907771 0 0 Z " fill="#FEF6F6" transform="translate(118.125,66.125)"/>
<path d="M0 0 C2.39766019 17.7890917 2.39766019 17.7890917 -0.55078125 22.453125 C-2.96903334 24.01661303 -5.3005215 25.00119295 -8 26 C-9.8452754 26.99908483 -11.67856837 28.02057936 -13.5 29.0625 C-15.33297917 30.04232949 -17.16630754 31.02150603 -19 32 C-20.73124871 32.95456694 -22.46059544 33.91259636 -24.1875 34.875 C-24.92355469 35.28492188 -25.65960938 35.69484375 -26.41796875 36.1171875 C-27.20107422 36.55417969 -27.20107422 36.55417969 -28 37 C-30.11503575 34.70214548 -30.97602284 33.4975148 -31.12866211 30.33032227 C-31.01272705 29.33572998 -30.89679199 28.3411377 -30.77734375 27.31640625 C-30.65037109 26.22392578 -30.52339844 25.13144531 -30.39257812 24.00585938 C-30.24240234 22.86955078 -30.09222656 21.73324219 -29.9375 20.5625 C-29.7528418 18.86383789 -29.7528418 18.86383789 -29.56445312 17.13085938 C-28.29484316 6.91982567 -28.29484316 6.91982567 -24 3 C-23.01 3.33 -22.02 3.66 -21 4 C-21 9.94 -21 15.88 -21 22 C-20.01 22 -19.02 22 -18 22 C-18.66 22.99 -19.32 23.98 -20 25 C-18.53890937 24.74445946 -17.08111904 24.46999628 -15.625 24.1875 C-14.81289062 24.03667969 -14.00078125 23.88585937 -13.1640625 23.73046875 C-10.64179359 23.12455058 -10.64179359 23.12455058 -9 20 C-8.80298077 17.73427882 -8.68794824 15.46089978 -8.625 13.1875 C-7.84766029 0 -7.84766029 0 0 0 Z " fill="#E31B1E" transform="translate(191,103)"/>
<path d="M0 0 C0.3125 2.25 0.3125 2.25 0 5 C-2.4375 7.1875 -2.4375 7.1875 -5 9 C-6.79044864 12.58089728 -6.40931601 16.78659877 -6.62109375 20.73828125 C-6.99723419 23.97619127 -7.269598 26.23034781 -9 29 C-12.125 29.8125 -12.125 29.8125 -15 30 C-15.05849554 26.79174438 -15.09376162 23.58362767 -15.125 20.375 C-15.15013672 19.01955078 -15.15013672 19.01955078 -15.17578125 17.63671875 C-15.21178914 12.70363843 -15.0679402 8.58417512 -13 4 C-9.38656695 0.38656695 -4.97659681 -0.29274099 0 0 Z " fill="#FDF5F5" transform="translate(132,125)"/>
<path d="M0 0 C1.11375 0.1546875 1.11375 0.1546875 2.25 0.3125 C0.93 1.9625 -0.39 3.6125 -1.75 5.3125 C-0.88375 4.5390625 -0.88375 4.5390625 0 3.75 C2.25 2.3125 2.25 2.3125 4.5 2.625 C5.0775 2.851875 5.655 3.07875 6.25 3.3125 C4.6 5.2925 2.95 7.2725 1.25 9.3125 C5.77898017 6.88178629 5.77898017 6.88178629 8.125 2.5625 C8.16625 1.82 8.2075 1.0775 8.25 0.3125 C11.22 0.3125 14.19 0.3125 17.25 0.3125 C16.92 0.9725 16.59 1.6325 16.25 2.3125 C13.775 1.8175 13.775 1.8175 11.25 1.3125 C11.32863281 2.06273437 11.40726563 2.81296875 11.48828125 3.5859375 C11.25 6.3125 11.25 6.3125 9.60546875 8.2265625 C8.89003906 8.79117187 8.17460937 9.35578125 7.4375 9.9375 C4.91040834 11.97206195 2.49947238 13.97077796 0.25 16.3125 C-1.73 15.6525 -3.71 14.9925 -5.75 14.3125 C-5.75 15.3025 -5.75 16.2925 -5.75 17.3125 C-5.75 18.6325 -5.75 19.9525 -5.75 21.3125 C-9.57792868 19.7529735 -12.11359864 17.47618164 -14.75 14.3125 C-14.5625 12 -14.5625 12 -13.75 10.3125 C-11.275 11.3025 -11.275 11.3025 -8.75 12.3125 C-8.42 11.6525 -8.09 10.9925 -7.75 10.3125 C-8.64163577 8.19566159 -8.64163577 8.19566159 -9.75 6.3125 C-8.76 5.9825 -7.77 5.6525 -6.75 5.3125 C-5.821875 4.0440625 -5.821875 4.0440625 -4.875 2.75 C-2.75 0.3125 -2.75 0.3125 0 0 Z M-3.75 8.3125 C-2.4410428 11.43447478 -2.4410428 11.43447478 0.25 13.3125 C-1.0589572 10.19052522 -1.0589572 10.19052522 -3.75 8.3125 Z " fill="#FEFAFA" transform="translate(235.75,-0.3125)"/>
<path d="M0 0 C2.2855347 2.12791162 2.92303658 3.47408328 3.375 6.5625 C3 9 3 9 1.8125 10.8125 C-0.55982525 12.36678206 -2.22041345 12.22537188 -5 12 C-5.12375 12.78375 -5.2475 13.5675 -5.375 14.375 C-6 17 -6 17 -8 19 C-11.13704316 19.333728 -13.16554166 19.52849028 -15.875 17.8125 C-17.40659584 15.34492892 -17.42822025 13.85480169 -17 11 C-15.8125 9.1875 -15.8125 9.1875 -14 8 C-11.3125 7.8125 -11.3125 7.8125 -9 8 C-8.896875 7.236875 -8.79375 6.47375 -8.6875 5.6875 C-7.42861372 0.76639908 -5.08576613 -0.89000907 0 0 Z " fill="#E52C2E" transform="translate(240,136)"/>
<path d="M0 0 C1.9375 1.5625 1.9375 1.5625 3 4 C2.625 7.625 2.625 7.625 1 11 C-2.625 12.4375 -2.625 12.4375 -6 13 C-6.12375 13.804375 -6.2475 14.60875 -6.375 15.4375 C-6.58125 16.283125 -6.7875 17.12875 -7 18 C-9.82883747 19.41441874 -11.87376745 19.31900332 -15 19 C-16.9375 17.3125 -16.9375 17.3125 -18 15 C-17.875 12.375 -17.875 12.375 -17 10 C-14 8 -14 8 -11.8125 8.375 C-11.214375 8.58125 -10.61625 8.7875 -10 9 C-9.731875 7.88625 -9.46375 6.7725 -9.1875 5.625 C-7.5319869 0.57132844 -5.16612633 -0.77491895 0 0 Z " fill="#E63336" transform="translate(173,59)"/>
<path d="M0 0 C2.1015625 0.4296875 2.1015625 0.4296875 4 1 C4.30987327 7.50733859 3.75570858 13.59547808 2.6875 20 C2.51093872 21.13103149 2.51093872 21.13103149 2.33081055 22.28491211 C1.98939187 24.21088043 1.50360016 26.10994509 1 28 C-2 30 -2 30 -5 30 C-5.05827558 26.4375692 -5.09368885 22.87526181 -5.125 19.3125 C-5.14175781 18.30509766 -5.15851563 17.29769531 -5.17578125 16.25976562 C-5.18544922 14.79506836 -5.18544922 14.79506836 -5.1953125 13.30078125 C-5.20578613 12.40528564 -5.21625977 11.50979004 -5.22705078 10.5871582 C-4.90541845 6.92227885 -3.79557515 4.08487521 -1.625 1.125 C-1.08875 0.75375 -0.5525 0.3825 0 0 Z " fill="#FDF3F3" transform="translate(108,133)"/>
<path d="M0 0 C3.0625 0.3125 3.0625 0.3125 5 1.375 C6.7115104 4.49598955 5.85541991 6.95783884 5.0625 10.3125 C3.0625 12.3125 3.0625 12.3125 0.4375 12.4375 C-0.34625 12.39625 -1.13 12.355 -1.9375 12.3125 C-2.02 13.075625 -2.1025 13.83875 -2.1875 14.625 C-2.9375 17.3125 -2.9375 17.3125 -4.5625 19.25 C-8.10666779 20.83554875 -10.41027916 19.60129223 -13.9375 18.3125 C-14.6875 15.0625 -14.6875 15.0625 -14.9375 11.3125 C-13.25 8.875 -13.25 8.875 -10.9375 7.3125 C-9.6175 7.3125 -8.2975 7.3125 -6.9375 7.3125 C-6.64875 6.52875 -6.36 5.745 -6.0625 4.9375 C-4.54651632 1.40020475 -3.89508661 0.41437092 0 0 Z M-10.9375 10.3125 C-11.70992269 12.14950789 -11.70992269 12.14950789 -11.9375 14.3125 C-10.58305699 16.08440909 -10.58305699 16.08440909 -8.9375 17.3125 C-6.90508273 16.67270151 -6.90508273 16.67270151 -4.9375 15.3125 C-4.12578772 12.75730079 -4.12578772 12.75730079 -3.9375 10.3125 C-6.2475 10.3125 -8.5575 10.3125 -10.9375 10.3125 Z " fill="#EA5759" transform="translate(140.9375,220.6875)"/>
<path d="M0 0 C3.5371438 0.56132934 4.99261679 1.69557747 7.25 4.4375 C7.77078125 5.05496094 8.2915625 5.67242188 8.828125 6.30859375 C10 8 10 8 10 10 C9.401875 9.835 8.80375 9.67 8.1875 9.5 C5.88655664 8.8885876 5.88655664 8.8885876 3 9 C3.66 10.65 4.32 12.3 5 14 C2.12835434 16.70272533 0.69008159 17.94791837 -3.3125 18.25 C-4.199375 18.1675 -5.08625 18.085 -6 18 C-5.34 19.32 -4.68 20.64 -4 22 C-8 22 -8 22 -9.921875 20.25 C-10.52515625 19.5075 -11.1284375 18.765 -11.75 18 C-12.36359375 17.2575 -12.9771875 16.515 -13.609375 15.75 C-14.29773437 14.88375 -14.29773437 14.88375 -15 14 C-12.22719294 10.91910327 -9.93673644 9.31224548 -6 8 C-6 7.01 -6 6.02 -6 5 C-5.01 4.67 -4.02 4.34 -3 4 C-2.01 4.99 -1.02 5.98 0 7 C1.04449911 3.86650268 0.93423645 3.01031744 0 0 Z M-3 11 C-3 11.99 -3 12.98 -3 14 C-1.68 14.33 -0.36 14.66 1 15 C-0.32 13.68 -1.64 12.36 -3 11 Z M-9 12 C-9 13.32 -9 14.64 -9 16 C-8.01 15.34 -7.02 14.68 -6 14 C-6 13.34 -6 12.68 -6 12 C-6.99 12 -7.98 12 -9 12 Z " fill="#FEFAFA" transform="translate(63,13)"/>
<path d="M0 0 C4.21198772 1.55999545 6.27071823 4.55248619 9 8 C9.66 8.66 10.32 9.32 11 10 C8.39417629 10.93065133 7.35801776 11.14917407 4.75 10.0625 C4.1725 9.711875 3.595 9.36125 3 9 C3 9.99 3 10.98 3 12 C3 16 3 16 1.25 17.8125 C-1 19 -1 19 -3.25 18.6875 C-3.8275 18.460625 -4.405 18.23375 -5 18 C-5 18.99 -5 19.98 -5 21 C-5.33 21.99 -5.66 22.98 -6 24 C-9.26008643 20.83047153 -12.22237877 17.60062011 -15 14 C-11.92000054 10.32769295 -9.7517398 9.43197635 -5 9 C-5 7.68 -5 6.36 -5 5 C-2.525 5.99 -2.525 5.99 0 7 C0 5.68 0 4.36 0 3 C0 2.01 0 1.02 0 0 Z M-4 10 C-3 12 -3 12 -3 12 Z M-9 12 C-9.99 13.485 -9.99 13.485 -11 15 C-9.68 15 -8.36 15 -7 15 C-7 14.01 -7 13.02 -7 12 C-7.66 12 -8.32 12 -9 12 Z M-3 12 C-3.33 12.99 -3.66 13.98 -4 15 C-2.68 15.33 -1.36 15.66 0 16 C-0.66 14.68 -1.32 13.36 -2 12 C-2.33 12 -2.66 12 -3 12 Z " fill="#FEFBFB" transform="translate(232,205)"/>
<path d="M0 0 C0.99 0 1.98 0 3 0 C3.33 1.65 3.66 3.3 4 5 C7.62528568 5.20140476 9.86501708 4.85776765 13 3 C12.6875 4.875 12.6875 4.875 12 7 C9 9 9 9 6.3125 8.625 C5.549375 8.41875 4.78625 8.2125 4 8 C4.2475 9.2684375 4.2475 9.2684375 4.5 10.5625 C3.73432741 15.82649904 0.09219804 17.91258273 -4 21 C-8.31279406 19.07398727 -10.22069481 16.78294318 -13 13 C-13 10 -13 10 -11.4609375 8.140625 C-5.7740068 2.98617845 -5.7740068 2.98617845 -1.5 3.0625 C-0.675 3.371875 0.15 3.68125 1 4 C0.67 2.68 0.34 1.36 0 0 Z M-5 6 C-7.97675459 9.09327895 -7.97675459 9.09327895 -9 13 C-8.1028125 12.505 -8.1028125 12.505 -7.1875 12 C-5 11 -5 11 -2 11 C-3.32 12.65 -4.64 14.3 -6 16 C-2.09161134 16 -0.88405893 14.49432124 2 12 C1.67 10.35 1.34 8.7 1 7 C-1.97 6.505 -1.97 6.505 -5 6 Z " fill="#FEFBFB" transform="translate(79,0)"/>
<path d="M0 0 C2.83602241 2.83602241 3.00302479 6.06486708 3.6875 9.875 C3.82994141 10.59558594 3.97238281 11.31617188 4.11914062 12.05859375 C5.3286635 18.5936278 5.3286635 18.5936278 4 22 C3.67 21.34 3.34 20.68 3 20 C2.0925 20.04125 1.185 20.0825 0.25 20.125 C-3 20 -3 20 -5.0625 18.875 C-7.10070585 17.69460607 -7.10070585 17.69460607 -9.75 18.875 C-10.4925 19.24625 -11.235 19.6175 -12 20 C-11.67 21.65 -11.34 23.3 -11 25 C-9.35 25.33 -7.7 25.66 -6 26 C-5.67 24.35 -5.34 22.7 -5 21 C-4.34 21 -3.68 21 -3 21 C-3.75 25.75 -3.75 25.75 -6 28 C-9.33058011 28.52588107 -10.60020349 28.28406594 -13.375 26.3125 C-15 24 -15 24 -15 21.5625 C-13.77246159 18.41693281 -12.35644553 16.42190235 -10 14 C-9.175 13.73703125 -8.35 13.4740625 -7.5 13.203125 C-4.77854869 12.20182241 -4.77854869 12.20182241 -3.671875 9.43359375 C-3.36765625 8.44488281 -3.0634375 7.45617187 -2.75 6.4375 C-1.03619048 1.03619048 -1.03619048 1.03619048 0 0 Z " fill="#E21114" transform="translate(74,135)"/>
<path d="M0 0 C0.66 0.33 1.32 0.66 2 1 C2.12375 1.969375 2.2475 2.93875 2.375 3.9375 C2.58125 4.948125 2.7875 5.95875 3 7 C4.95021083 8.22527948 4.95021083 8.22527948 7 9 C7.33 9.99 7.66 10.98 8 12 C5.525 11.505 5.525 11.505 3 11 C3.07734375 11.74507812 3.1546875 12.49015625 3.234375 13.2578125 C2.9326323 16.78820209 1.90939861 17.6135406 -0.75 19.875 C-1.44609375 20.49117187 -2.1421875 21.10734375 -2.859375 21.7421875 C-5 23 -5 23 -7.0625 22.91796875 C-9.4433321 21.78995354 -10.60913782 20.48857772 -12.25 18.4375 C-12.77078125 17.79683594 -13.2915625 17.15617187 -13.828125 16.49609375 C-14.21484375 16.00238281 -14.6015625 15.50867188 -15 15 C-13.46593371 11.68532105 -12.13688367 9.96055229 -9 8 C-8.34 8 -7.68 8 -7 8 C-7 7.34 -7 6.68 -7 6 C-5.35 6 -3.7 6 -2 6 C-1.855625 5.195625 -1.71125 4.39125 -1.5625 3.5625 C-1 1 -1 1 0 0 Z M-6 9 C-7.65 10.98 -9.3 12.96 -11 15 C-7.48283697 15 -6.62878252 14.17554415 -4 12 C-4.309375 12.598125 -4.61875 13.19625 -4.9375 13.8125 C-6.10209704 16.08956772 -6.10209704 16.08956772 -7 19 C-4.50638429 17.79618552 -2.31856917 16.54571278 0 15 C-0.33 13.35 -0.66 11.7 -1 10 C-2.65 9.67 -4.3 9.34 -6 9 Z " fill="#FEFAFA" transform="translate(52,159)"/>
<path d="M0 0 C0.66 0.33 1.32 0.66 2 1 C2.12375 2.175625 2.12375 2.175625 2.25 3.375 C2.77137156 6.338545 2.77137156 6.338545 6.0625 7.8125 C7.031875 8.204375 8.00125 8.59625 9 9 C8.67 9.66 8.34 10.32 8 11 C6.35 11 4.7 11 3 11 C2.91878906 11.74636719 2.83757813 12.49273437 2.75390625 13.26171875 C1.83209332 16.60985795 0.60764075 17.65095749 -2.0625 19.8125 C-2.79597656 20.41707031 -3.52945312 21.02164063 -4.28515625 21.64453125 C-4.85105469 22.09183594 -5.41695312 22.53914063 -6 23 C-10.00170812 19.88756035 -12.49426329 17.47721724 -15 13 C-13.62184294 11.62784798 -12.22170849 10.27774233 -10.8125 8.9375 C-10.03519531 8.18339844 -9.25789062 7.42929688 -8.45703125 6.65234375 C-6 5 -6 5 -3.19921875 5.25390625 C-2.11060547 5.62322266 -2.11060547 5.62322266 -1 6 C-1.020625 5.195625 -1.04125 4.39125 -1.0625 3.5625 C-1 1 -1 1 0 0 Z M-7.51171875 9.26953125 C-8.75157093 10.78648506 -9.88310821 12.39036183 -11 14 C-7.89448334 14 -6.64738916 13.4606285 -4 12 C-4.9977758 14.99332739 -5.7522025 15.94766315 -8 18 C-4.3139451 18 -2.85074644 17.31141604 0 15 C0.41746608 11.87364791 0.41746608 11.87364791 0 9 C-3.9596508 7.60618541 -3.9596508 7.60618541 -7.51171875 9.26953125 Z " fill="#FEFBFB" transform="translate(18,121)"/>
<path d="M0 0 C0.99 0.33 1.98 0.66 3 1 C3.27219349 22.26133557 3.27219349 22.26133557 0.125 26.5625 C-2 28 -2 28 -5 28 C-5.49165475 5.7389654 -5.49165475 5.7389654 -1.42578125 1.26953125 C-0.95527344 0.85058594 -0.48476562 0.43164062 0 0 Z " fill="#FDEFF0" transform="translate(167,106)"/>
<path d="M0 0 C0.99 0 1.98 0 3 0 C3.268125 0.969375 3.53625 1.93875 3.8125 2.9375 C4.204375 3.948125 4.59625 4.95875 5 6 C5.99 6.33 6.98 6.66 8 7 C8 7.99 8 8.98 8 10 C7.01 10 6.02 10 5 10 C4.814375 10.86625 4.62875 11.7325 4.4375 12.625 C2.55837918 17.03684887 -0.23697742 19.16264073 -4 22 C-8.28359673 20.1144852 -10.15103592 17.64034299 -13 14 C-11.43542921 9.77565886 -8.61920511 7.55473302 -5 5 C-2.125 4.6875 -2.125 4.6875 0 5 C0 3.35 0 1.7 0 0 Z M-5 7 C-5 7.99 -5 8.98 -5 10 C-6.98 10.99 -6.98 10.99 -9 12 C-9 12.99 -9 13.98 -9 15 C-8.401875 14.484375 -7.80375 13.96875 -7.1875 13.4375 C-6.465625 12.963125 -5.74375 12.48875 -5 12 C-4.01 12.33 -3.02 12.66 -2 13 C-2.66 13.45375 -3.32 13.9075 -4 14.375 C-4.99 15.179375 -4.99 15.179375 -6 16 C-6 16.66 -6 17.32 -6 18 C-3.50638429 16.79618552 -1.31856917 15.54571278 1 14 C1.25030977 11.41619823 1.25030977 11.41619823 1 9 C-0.98 8.34 -2.96 7.68 -5 7 Z " fill="#FEFAFA" transform="translate(248,191)"/>
<path d="M0 0 C2 3.75 2 3.75 2 6 C3.65 6 5.3 6 7 6 C7.33 6.66 7.66 7.32 8 8 C6.35 8 4.7 8 3 8 C2.979375 8.86625 2.95875 9.7325 2.9375 10.625 C1.63479719 15.31473013 -1.18167667 17.18859744 -5 20 C-8.74020498 18.31847927 -10.56134348 16.30960527 -13 13 C-11.71480435 10.13302508 -10.42870746 8.02392288 -8 6 C-7.34 6 -6.68 6 -6 6 C-6 5.34 -6 4.68 -6 4 C-3.03 4.495 -3.03 4.495 0 5 C0 3.35 0 1.7 0 0 Z " fill="#E10E11" transform="translate(148,77)"/>
<path d="M0 0 C0.66 0 1.32 0 2 0 C2 1.98 2 3.96 2 6 C3.65 6 5.3 6 7 6 C7.33 6.66 7.66 7.32 8 8 C5.03 7.505 5.03 7.505 2 7 C2.33 7.845625 2.66 8.69125 3 9.5625 C3 13 3 13 1.35546875 14.95703125 C-4.34483198 20 -4.34483198 20 -7 20 C-11.94099379 14.94409938 -11.94099379 14.94409938 -12.125 12 C-10.38651529 8.90936052 -8.51034799 6.51034799 -6 4 C-3.1875 3.625 -3.1875 3.625 -1 4 C-0.67 2.68 -0.34 1.36 0 0 Z " fill="#E21417" transform="translate(215,154)"/>
<path d="M0 0 C0.66 0.33 1.32 0.66 2 1 C2.12375 2.175625 2.12375 2.175625 2.25 3.375 C2.77137156 6.338545 2.77137156 6.338545 6.0625 7.8125 C7.031875 8.204375 8.00125 8.59625 9 9 C8.67 9.99 8.34 10.98 8 12 C6.35 11.34 4.7 10.68 3 10 C3.103125 10.9075 3.20625 11.815 3.3125 12.75 C3 16 3 16 1 18.375 C-3.17510194 20.63651355 -5.28037115 20.67423269 -10 20 C-12.5 17.5 -12.5 17.5 -14 15 C-12.43537634 10.77551612 -9.58245016 8.59903247 -6 6 C-3.125 5.1875 -3.125 5.1875 -1 5 C-0.67 3.35 -0.34 1.7 0 0 Z M-6 8 C-6 8.99 -6 9.98 -6 11 C-7.98 11.99 -7.98 11.99 -10 13 C-9.67 13.99 -9.34 14.98 -9 16 C-8.01 15.01 -7.02 14.02 -6 13 C-5.01 13.33 -4.02 13.66 -3 14 C-3.66 14.45375 -4.32 14.9075 -5 15.375 C-5.99 16.179375 -5.99 16.179375 -7 17 C-7 17.66 -7 18.32 -7 19 C-4.50638429 17.79618552 -2.31856917 16.54571278 0 15 C0.25030977 12.41619823 0.25030977 12.41619823 0 10 C-1.98 9.34 -3.96 8.68 -6 8 Z " fill="#FEFAFA" transform="translate(119,236)"/>
<path d="M0 0 C2.3125 2.5625 2.3125 2.5625 4 5 C2.92598892 7.91517292 2.22189824 9.77810176 0 12 C-2.625 12.625 -2.625 12.625 -5 13 C-5.33 13.99 -5.66 14.98 -6 16 C-6.99 15.67 -7.98 15.34 -9 15 C-8.67 13.35 -8.34 11.7 -8 10 C-9.98 10.33 -11.96 10.66 -14 11 C-13.67 12.65 -13.34 14.3 -13 16 C-14.65 15.67 -16.3 15.34 -18 15 C-18 13.02 -18 11.04 -18 9 C-12.25 6 -12.25 6 -10 6 C-9.9175 5.21625 -9.835 4.4325 -9.75 3.625 C-9 1 -9 1 -7.25 -0.375 C-4.32625728 -1.18715076 -2.8500887 -1.06878326 0 0 Z M-5 2 C-6.29633621 3.06645115 -6.29633621 3.06645115 -6.0625 5.5625 C-6.041875 6.366875 -6.02125 7.17125 -6 8 C-3.525 8.495 -3.525 8.495 -1 9 C-0.34 7.68 0.32 6.36 1 5 C-1.67247634 2.65712582 -1.67247634 2.65712582 -5 2 Z " fill="#FEFAFA" transform="translate(139,21)"/>
<path d="M0 0 C3.82792868 1.5595265 6.36359864 3.83631836 9 7 C9.0625 9.1875 9.0625 9.1875 8 11 C5.41847698 12.72101535 4.15081975 13 1 13 C0.34 14.98 -0.32 16.96 -1 19 C-4.11020134 16.45528982 -5.00133026 13.84103748 -6 10 C-6.125 7.125 -6.125 7.125 -6 5 C-1.6109185 5.51035831 1.33708062 6.52214277 5 9 C3.02 6.36 1.04 3.72 -1 1 C-0.67 0.67 -0.34 0.34 0 0 Z " fill="#FEFAFA" transform="translate(51,228)"/>
<path d="M0 0 C3.55700273 2.66775205 6.521673 5.2825095 9 9 C8.67 9.99 8.34 10.98 8 12 C7.01 11.67 6.02 11.34 5 11 C5 11.99 5 12.98 5 14 C3.68 14 2.36 14 1 14 C1 15.32 1 16.64 1 18 C-2.55700273 15.33224795 -5.521673 12.7174905 -8 9 C-7.67 8.01 -7.34 7.02 -7 6 C-6.01 6 -5.02 6 -4 6 C-4 6.66 -4 7.32 -4 8 C-2.35 8.33 -0.7 8.66 1 9 C0.649375 8.443125 0.29875 7.88625 -0.0625 7.3125 C-1.21845993 4.46113217 -0.80967438 2.91482778 0 0 Z " fill="#FEFAFA" transform="translate(145,9)"/>
<path d="M0 0 C3.45195767 1.4258086 5.1014256 3.09746334 7.25 6.125 C7.77078125 6.84945312 8.2915625 7.57390625 8.828125 8.3203125 C9.40820312 9.15175781 9.40820312 9.15175781 10 10 C9.01 10.33 8.02 10.66 7 11 C6.01 12.485 6.01 12.485 5 14 C4.34 14 3.68 14 3 14 C2.67 14.99 2.34 15.98 2 17 C-1.21496708 15.92834431 -2.08462512 15.11623226 -4.25 12.625 C-4.79140625 12.01914062 -5.3328125 11.41328125 -5.890625 10.7890625 C-6.25671875 10.19867188 -6.6228125 9.60828125 -7 9 C-6.67 8.01 -6.34 7.02 -6 6 C-2.62537285 6.54723683 -0.91765 7.0549 2 9 C1.67 8.443125 1.34 7.88625 1 7.3125 C-0.1309601 4.69715478 -0.15662974 2.8193354 0 0 Z " fill="#FEFCFC" transform="translate(178,48)"/>
<path d="M0 0 C1.13199353 0.9080162 2.25532363 1.82683826 3.375 2.75 C4.00148438 3.26046875 4.62796875 3.7709375 5.2734375 4.296875 C7.08312318 6.08199481 8.00117455 7.67949644 9 10 C7.8125 11.5 7.8125 11.5 6 13 C3.3125 13.1875 3.3125 13.1875 1 13 C0.34 14.98 -0.32 16.96 -1 19 C-1.99 18.67 -2.98 18.34 -4 18 C-4.984375 15.8203125 -4.984375 15.8203125 -5.75 13.125 C-6.14445313 11.79855469 -6.14445313 11.79855469 -6.546875 10.4453125 C-7 8 -7 8 -6 5 C-5.2575 5.309375 -4.515 5.61875 -3.75 5.9375 C-1.49307824 6.8094925 0.6450153 7.47667007 3 8 C2.319375 7.236875 1.63875 6.47375 0.9375 5.6875 C0.298125 4.800625 -0.34125 3.91375 -1 3 C-0.67 2.01 -0.34 1.02 0 0 Z M-3 10 C-2.67 10.66 -2.34 11.32 -2 12 C-1.67 11.34 -1.34 10.68 -1 10 C-1.66 10 -2.32 10 -3 10 Z " fill="#FEFCFC" transform="translate(18,189)"/>
<path d="M0 0 C1.12588014 0.95729916 2.2506715 1.91587895 3.375 2.875 C4.00148437 3.40867187 4.62796875 3.94234375 5.2734375 4.4921875 C6.55836651 5.61432007 7.79371975 6.79371975 9 8 C9 8.99 9 9.98 9 11 C5.55549263 13.29633824 3.06187717 13.54016485 -1 14 C-0.67 15.65 -0.34 17.3 0 19 C-0.99 19 -1.98 19 -3 19 C-4.32 15.04 -5.64 11.08 -7 7 C-5.68 6.34 -4.36 5.68 -3 5 C-3 5.66 -3 6.32 -3 7 C0.47147842 7.74957157 0.47147842 7.74957157 4 8 C2.35 6.35 0.7 4.7 -1 3 C-0.67 2.01 -0.34 1.02 0 0 Z M-3 10 C-2.34 10.66 -1.68 11.32 -1 12 C-1 11.34 -1 10.68 -1 10 C-1.66 10 -2.32 10 -3 10 Z " fill="#FEFBFB" transform="translate(210,20)"/>
<path d="M0 0 C0.33 1.65 0.66 3.3 1 5 C2.32 5.33 3.64 5.66 5 6 C2 7 2 7 -2 7 C-1.67 8.98 -1.34 10.96 -1 13 C-1.66 13 -2.32 13 -3 13 C-3 13.66 -3 14.32 -3 15 C-5.33528415 14.82701599 -6.69177582 14.29774631 -8.37890625 12.66796875 C-12 8.42788462 -12 8.42788462 -12 6 C-10.68 6 -9.36 6 -8 6 C-8 5.01 -8 4.02 -8 3 C-5.71738181 -0.24372058 -3.82050514 -0.30977069 0 0 Z " fill="#EC6264" transform="translate(126,100)"/>
<path d="M0 0 C1.25 3.1875 1.25 3.1875 2 7 C0.4375 9.875 0.4375 9.875 -2 12 C-2.86625 12.165 -3.7325 12.33 -4.625 12.5 C-5.40875 12.665 -6.1925 12.83 -7 13 C-8.23290201 15.45704762 -8.23290201 15.45704762 -9 18 C-9.66 18.33 -10.32 18.66 -11 19 C-11 13 -11 7 -11 1 C-7.2297564 -1.56376565 -4.32597804 -0.83191885 0 0 Z M-7 2 C-8.29633621 3.06645115 -8.29633621 3.06645115 -8.0625 5.5625 C-8.041875 6.366875 -8.02125 7.17125 -8 8 C-5.525 8.495 -5.525 8.495 -3 9 C-2.34 7.68 -1.68 6.36 -1 5 C-2.31201173 3.43750191 -2.31201173 3.43750191 -4 2 C-4.99 2 -5.98 2 -7 2 Z " fill="#FEFBFB" transform="translate(11,67)"/>
<path d="M0 0 C2 2 2 2 2.3125 5.5 C2.1578125 7.2325 2.1578125 7.2325 2 9 C-1 11 -1 11 -4.0625 10.75 C-7 10 -7 10 -9 8 C-9.375 5.0625 -9.375 5.0625 -9 2 C-6.12524616 -1.3006433 -4.03854228 -1.38160657 0 0 Z " fill="#EA5759" transform="translate(43,106)"/>
<path d="M0 0 C0.680625 0.433125 1.36125 0.86625 2.0625 1.3125 C2.0625 2.6325 2.0625 3.9525 2.0625 5.3125 C3.3825 5.6425 4.7025 5.9725 6.0625 6.3125 C5.7325 7.3025 5.4025 8.2925 5.0625 9.3125 C3.4125 8.9825 1.7625 8.6525 0.0625 8.3125 C0.0625 9.3025 0.0625 10.2925 0.0625 11.3125 C0.0625 12.3025 0.0625 13.2925 0.0625 14.3125 C-3.38945767 12.8866914 -5.0389256 11.21503666 -7.1875 8.1875 C-7.96867187 7.10082031 -7.96867187 7.10082031 -8.765625 5.9921875 C-9.15234375 5.43789062 -9.5390625 4.88359375 -9.9375 4.3125 C-3.86310175 -0.9041302 -3.86310175 -0.9041302 0 0 Z M-3.9375 3.3125 C-3.9375 4.6325 -3.9375 5.9525 -3.9375 7.3125 C-2.9475 6.6525 -1.9575 5.9925 -0.9375 5.3125 C-0.9375 4.6525 -0.9375 3.9925 -0.9375 3.3125 C-1.9275 3.3125 -2.9175 3.3125 -3.9375 3.3125 Z " fill="#FEFBFB" transform="translate(62.9375,221.6875)"/>
<path d="M0 0 C1.8125 1.125 1.8125 1.125 3 3 C3.3125 6.0625 3.3125 6.0625 3 9 C1 11 1 11 -1.9375 11.3125 C-5 11 -5 11 -6.875 9.8125 C-8.40659584 7.34492892 -8.42822025 5.85480169 -8 3 C-5.85607122 -0.27231235 -3.76836426 -0.56525464 0 0 Z " fill="#E63639" transform="translate(206,98)"/>
<path d="M0 0 C3.21496708 1.07165569 4.08462512 1.88376774 6.25 4.375 C6.79140625 4.98085937 7.3328125 5.58671875 7.890625 6.2109375 C8.25671875 6.80132812 8.6228125 7.39171875 9 8 C8.67 8.99 8.34 9.98 8 11 C7.34 11 6.68 11 6 11 C5.67 10.34 5.34 9.68 5 9 C4.01 9.33 3.02 9.66 2 10 C2.66 11.65 3.32 13.3 4 15 C3.01 15.33 2.02 15.66 1 16 C-1.9297008 13.17493137 -4.50174717 10.21203935 -7 7 C-6.67 6.34 -6.34 5.68 -6 5 C-5.401875 5.165 -4.80375 5.33 -4.1875 5.5 C-1.88655664 6.1114124 -1.88655664 6.1114124 1 6 C0.34 4.35 -0.32 2.7 -1 1 C-0.67 0.67 -0.34 0.34 0 0 Z " fill="#FEF8F8" transform="translate(35,174)"/>
<path d="M0 0 C0.12375 0.928125 0.12375 0.928125 0.25 1.875 C0.81258459 4.18437567 0.81258459 4.18437567 3.0625 5.25 C3.701875 5.4975 4.34125 5.745 5 6 C4.67 6.99 4.34 7.98 4 9 C1.69 8.67 -0.62 8.34 -3 8 C-2.34 9.65 -1.68 11.3 -1 13 C-4 13 -4 13 -5.82421875 11.25 C-6.43910156 10.5075 -7.05398437 9.765 -7.6875 9 C-8.31011719 8.2575 -8.93273437 7.515 -9.57421875 6.75 C-10.04472656 6.1725 -10.51523438 5.595 -11 5 C-7.6240914 0.45998499 -5.71800716 -1.77455395 0 0 Z M-5 2 C-5.99 3.485 -5.99 3.485 -7 5 C-5.68 5 -4.36 5 -3 5 C-3.33 4.01 -3.66 3.02 -4 2 C-4.33 2 -4.66 2 -5 2 Z " fill="#FEFBFB" transform="translate(223,15)"/>
<path d="M0 0 C0 1.65 0 3.3 0 5 C1.65 5.33 3.3 5.66 5 6 C4.67 6.66 4.34 7.32 4 8 C2.02 8 0.04 8 -2 8 C-2 8.66 -2 9.32 -2 10 C-2 10.99 -2 11.98 -2 13 C-6.2742558 11.4169423 -8.26531794 8.49431596 -11 5 C-10.03558469 2.58896173 -9.31202953 1.22595242 -7.1875 -0.3125 C-4.45808824 -1.17031512 -2.72321308 -0.75644808 0 0 Z M-5 2 C-5.99 3.485 -5.99 3.485 -7 5 C-6.34 5.66 -5.68 6.32 -5 7 C-4.34 6.34 -3.68 5.68 -3 5 C-3 4.01 -3 3.02 -3 2 C-3.66 2 -4.32 2 -5 2 Z " fill="#FEFBFB" transform="translate(31,184)"/>
<path d="M0 0 C0.66 0.33 1.32 0.66 2 1 C1.01 2.485 1.01 2.485 0 4 C2.64 3.67 5.28 3.34 8 3 C6.35 4.65 4.7 6.3 3 8 C3.66 8.33 4.32 8.66 5 9 C0.71 11.31 -3.58 13.62 -8 16 C-11 12 -11 12 -11.07421875 9.640625 C-10.94660156 8.85171875 -10.81898438 8.0628125 -10.6875 7.25 C-10.56761719 6.45078125 -10.44773438 5.6515625 -10.32421875 4.828125 C-10.21722656 4.22484375 -10.11023438 3.6215625 -10 3 C-9.67 3 -9.34 3 -9 3 C-9 5.31 -9 7.62 -9 10 C-6.54368999 9.50452457 -6.54368999 9.50452457 -4 8 C-2.20728609 4.51202512 -2.20728609 4.51202512 -1 1 C-0.67 0.67 -0.34 0.34 0 0 Z " fill="#E94E50" transform="translate(171,124)"/>
<path d="M0 0 C3.98069267 2.87494471 6.43571997 5.82117329 9 10 C6.66666667 10 4.33333333 10 2 10 C2.66 11.65 3.32 13.3 4 15 C2.68 15.33 1.36 15.66 0 16 C-1.17260611 14.71372289 -2.3379283 13.42080217 -3.5 12.125 C-4.1496875 11.40570313 -4.799375 10.68640625 -5.46875 9.9453125 C-7 8 -7 8 -7 6 C-4 5 -4 5 -1.8125 5.9375 C-1.214375 6.288125 -0.61625 6.63875 0 7 C0.33 6.34 0.66 5.68 1 5 C0.34 4.67 -0.32 4.34 -1 4 C-0.67 2.68 -0.34 1.36 0 0 Z " fill="#FEFAFA" transform="translate(69,212)"/>
<path d="M0 0 C0.33 0.99 0.66 1.98 1 3 C1.61875 3.309375 2.2375 3.61875 2.875 3.9375 C5.64518729 5.32259365 6.52665318 6.24453721 8 9 C8.1300301 11.94722285 7.73288006 14.7739989 7.3125 17.6875 C7.22033203 18.47189453 7.12816406 19.25628906 7.03320312 20.06445312 C6.77330835 22.05583226 6.39546296 24.0310548 6 26 C5.34 26.33 4.68 26.66 4 27 C3.87882812 26.01 3.75765625 25.02 3.6328125 24 C2.630597 15.588772 2.630597 15.588772 0.875 7.3125 C0 4 0 4 0 0 Z " fill="#E42628" transform="translate(82,131)"/>
<path d="M0 0 C3.83776322 1.56353316 6.34999338 3.83471431 9 7 C9.3125 9.8125 9.3125 9.8125 9 12 C8.67 11.01 8.34 10.02 8 9 C5.99983534 7.79117904 5.99983534 7.79117904 4 7 C4 7.66 4 8.32 4 9 C4 9.99 4 10.98 4 12 C3.38125 11.835 2.7625 11.67 2.125 11.5 C0.03936614 10.92365356 0.03936614 10.92365356 -2 11 C-1.34 12.32 -0.68 13.64 0 15 C-1.17539996 14.07347299 -2.34010577 13.13336613 -3.5 12.1875 C-4.1496875 11.66542969 -4.799375 11.14335937 -5.46875 10.60546875 C-7 9 -7 9 -7 6 C-4.23723823 6.52268466 -1.6739124 7.10869587 1 8 C0.649375 7.4225 0.29875 6.845 -0.0625 6.25 C-1.14917407 3.64198224 -0.93065133 2.60582371 0 0 Z " fill="#E94F51" transform="translate(247,126)"/>
<path d="M0 0 C0.66 0 1.32 0 2 0 C2 1.65 2 3.3 2 5 C3.32 5.66 4.64 6.32 6 7 C6.99 4.69 7.98 2.38 9 0 C11.64 0 14.28 0 17 0 C16.67 0.99 16.34 1.98 16 3 C14.35 3 12.7 3 11 3 C10.9175 3.763125 10.835 4.52625 10.75 5.3125 C10 8 10 8 8.375 9.9375 C4.83083221 11.52304875 2.52722084 10.28879223 -1 9 C-1.625 5.625 -1.625 5.625 -2 2 C-1.34 1.34 -0.68 0.68 0 0 Z " fill="#FEF9F9" transform="translate(128,230)"/>
<path d="M0 0 C5.10712539 0.30952275 8.88260241 3.23122892 13 6 C12.67 6.66 12.34 7.32 12 8 C10.35 8 8.7 8 7 8 C6.34 9.98 5.68 11.96 5 14 C0.91747163 10.87006158 0.1847412 7.74301497 -0.80078125 2.92578125 C-0.86652344 2.29027344 -0.93226563 1.65476562 -1 1 C-0.67 0.67 -0.34 0.34 0 0 Z M3 4 C3 4.66 3 5.32 3 6 C3.66 5.67 4.32 5.34 5 5 C4.34 4.67 3.68 4.34 3 4 Z " fill="#FEFCFC" transform="translate(238,64)"/>
<path d="M0 0 C0.5775 0.825 1.155 1.65 1.75 2.5 C2.86375 3.7375 2.86375 3.7375 4 5 C5.32 5 6.64 5 8 5 C8.66 3.68 9.32 2.36 10 1 C10.33 3.64 10.66 6.28 11 9 C10.34 8.34 9.68 7.68 9 7 C8.05125 7 7.1025 7 6.125 7 C3 7 3 7 0.9375 5.875 C-1.10070585 4.69460607 -1.10070585 4.69460607 -3.75 5.875 C-4.4925 6.24625 -5.235 6.6175 -6 7 C-5.67 8.65 -5.34 10.3 -5 12 C-3.35 12.33 -1.7 12.66 0 13 C0.33 11.35 0.66 9.7 1 8 C1.66 8 2.32 8 3 8 C2.25 12.75 2.25 12.75 0 15 C-3.33058011 15.52588107 -4.60020349 15.28406594 -7.375 13.3125 C-9 11 -9 11 -9 8.5625 C-7.78045336 5.43741173 -6.33779187 3.40458592 -4 1 C-1.75 0.1875 -1.75 0.1875 0 0 Z " fill="#EB5C5E" transform="translate(68,148)"/>
<path d="M0 0 C2 0 2 0 3.5078125 1.4609375 C4.30832031 2.40839844 4.30832031 2.40839844 5.125 3.375 C5.66382813 4.00148438 6.20265625 4.62796875 6.7578125 5.2734375 C8 7 8 7 8 9 C7.01 9 6.02 9 5 9 C5 9.99 5 10.98 5 12 C2.69 11.34 0.38 10.68 -2 10 C-1.505 10.45375 -1.01 10.9075 -0.5 11.375 C1 13 1 13 1 15 C-2.79379058 13.50958227 -4.68343758 11.30937488 -7 8 C-7 7.34 -7 6.68 -7 6 C-3.65626525 6.55728913 -0.96687001 7.35173889 2 9 C1.67 8.2575 1.34 7.515 1 6.75 C0 4 0 4 0 0 Z " fill="#EB5F61" transform="translate(49,95)"/>
<path d="M0 0 C0.125 7.75 0.125 7.75 -1 10 C-0.67 10.99 -0.34 11.98 0 13 C-4 13 -4 13 -5.703125 11.46875 C-6.46882812 10.49421875 -6.46882812 10.49421875 -7.25 9.5 C-7.77078125 8.8503125 -8.2915625 8.200625 -8.828125 7.53125 C-9.21484375 7.0259375 -9.6015625 6.520625 -10 6 C-7.92670327 1.38524276 -5.28020563 -1.76006854 0 0 Z M-5 3 C-5 4.32 -5 5.64 -5 7 C-4.01 6.67 -3.02 6.34 -2 6 C-2 5.01 -2 4.02 -2 3 C-2.99 3 -3.98 3 -5 3 Z " fill="#FEFBFB" transform="translate(256,53)"/>
<path d="M0 0 C1.32 0.66 2.64 1.32 4 2 C4 3.32 4 4.64 4 6 C5.65 6.33 7.3 6.66 9 7 C9 7.33 9 7.66 9 8 C6.69 8 4.38 8 2 8 C2.33 9.65 2.66 11.3 3 13 C-0.35915158 11.56036361 -2.71624938 9.87583411 -5 7 C-5 4.9375 -5 4.9375 -4 3 C-1.9375 1.25 -1.9375 1.25 0 0 Z " fill="#EB5F61" transform="translate(190,176)"/>
<path d="M0 0 C3.63 1.98 7.26 3.96 11 6 C10.67 6.66 10.34 7.32 10 8 C7.67843403 8.40729228 5.3431213 8.74438677 3 9 C3.33 10.32 3.66 11.64 4 13 C3.01 13 2.02 13 1 13 C-2.28571429 5.57142857 -2.28571429 5.57142857 -3 2 C-2.01 1.34 -1.02 0.68 0 0 Z M1 4 C1.33 4.99 1.66 5.98 2 7 C2.66 6.34 3.32 5.68 4 5 C3.01 4.67 2.02 4.34 1 4 Z " fill="#FEFCFC" transform="translate(211,225)"/>
<path d="M0 0 C0.33 1.65 0.66 3.3 1 5 C2.32 5.33 3.64 5.66 5 6 C5 6.66 5 7.32 5 8 C2.69 8 0.38 8 -2 8 C-1.67 9.65 -1.34 11.3 -1 13 C-4.73884332 10.34345343 -6.64978174 8.41889613 -8 4 C-4.5 0 -4.5 0 0 0 Z " fill="#EB5B5D" transform="translate(92,61)"/>
<path d="M0 0 C0 0.66 0 1.32 0 2 C-0.9590625 2.1546875 -0.9590625 2.1546875 -1.9375 2.3125 C-2.618125 2.539375 -3.29875 2.76625 -4 3 C-4.33 3.99 -4.66 4.98 -5 6 C-4.34 6.66 -3.68 7.32 -3 8 C-2.01 7.67 -1.02 7.34 0 7 C0.33 6.34 0.66 5.68 1 5 C1.66 5 2.32 5 3 5 C3.125 7.375 3.125 7.375 3 10 C2.34 10.66 1.68 11.32 1 12 C-3.09120019 11.92561454 -5.22364375 11.79919026 -8.125 8.8125 C-9 6 -9 6 -7.8125 2.75 C-5.26669285 -1.11260395 -4.21680781 -1.26504234 0 0 Z " fill="#FEFAFA" transform="translate(33,113)"/>
<path d="M0 0 C4.29951803 1.59241408 6.39671947 4.35540725 9 8 C8.67 8.99 8.34 9.98 8 11 C6.68 10.01 5.36 9.02 4 8 C3.34 8.66 2.68 9.32 2 10 C2.66 11.32 3.32 12.64 4 14 C3.01 14.33 2.02 14.66 1 15 C0.34 14.67 -0.32 14.34 -1 14 C-1.25 7.375 -1.25 7.375 1 4 C0.34 3.01 -0.32 2.02 -1 1 C-0.67 0.67 -0.34 0.34 0 0 Z " fill="#FEFBFB" transform="translate(1,136)"/>
<path d="M0 0 C3.36591866 1.44253657 5.51047079 3.33264727 8 6 C7.67 6.66 7.34 7.32 7 8 C6.01 7.34 5.02 6.68 4 6 C4.33 7.98 4.66 9.96 5 12 C3.02 11.34 1.04 10.68 -1 10 C-0.34 10.66 0.32 11.32 1 12 C0.67 12.99 0.34 13.98 0 15 C-1.00893131 13.90398831 -2.00688225 12.79786082 -3 11.6875 C-3.556875 11.07261719 -4.11375 10.45773438 -4.6875 9.82421875 C-6 8 -6 8 -6 5 C-5.236875 5.309375 -4.47375 5.61875 -3.6875 5.9375 C-1.81210323 6.67893593 0.08684652 7.36228217 2 8 C1.67 7.236875 1.34 6.47375 1 5.6875 C0 3 0 3 0 0 Z " fill="#EA5557" transform="translate(150,211)"/>
<path d="M0 0 C0.66 0.33 1.32 0.66 2 1 C1 3 0 5 -1 7 C0.32 6.01 1.64 5.02 3 4 C3.5534764 6.07553648 4 7.84365964 4 10 C4.66 10 5.32 10 6 10 C5.6875 11.9375 5.6875 11.9375 5 14 C4.01 14.33 3.02 14.66 2 15 C0.82439821 13.73742767 -0.34022865 12.46462916 -1.5 11.1875 C-2.1496875 10.47980469 -2.799375 9.77210938 -3.46875 9.04296875 C-5 7 -5 7 -5 4 C-2.5 1.8125 -2.5 1.8125 0 0 Z " fill="#FEFCFC" transform="translate(76,206)"/>
<path d="M0 0 C3.36179774 1.44077046 5.59156268 3.24750021 8 6 C8 6.66 8 7.32 8 8 C5 7 5 7 3 5 C3.33 6.98 3.66 8.96 4 11 C2.35 10.67 0.7 10.34 -1 10 C-0.34 10.66 0.32 11.32 1 12 C0.67 12.99 0.34 13.98 0 15 C-2.64 12.36 -5.28 9.72 -8 7 C-7.67 6.34 -7.34 5.68 -7 5 C-4.07120629 5.62759865 -1.63904371 6.58622659 1 8 C0.67 5.36 0.34 2.72 0 0 Z " fill="#EB5C5E" transform="translate(15,57)"/>
<path d="M0 0 C2.31 0.33 4.62 0.66 7 1 C7 1.99 7 2.98 7 4 C4.89983377 5.17441535 2.79541245 6.33964012 0.6875 7.5 C0.09259766 7.83386719 -0.50230469 8.16773438 -1.11523438 8.51171875 C-3.95828844 10.06825114 -5.70660988 11 -9 11 C-7.52005046 7.09831484 -5.48808251 6.09284951 -2 4 C-0.67206394 1.93299345 -0.67206394 1.93299345 0 0 Z " fill="#E73F41" transform="translate(183,121)"/>
<path d="M0 0 C3.82792868 1.5595265 6.36359864 3.83631836 9 7 C9.0625 9.1875 9.0625 9.1875 8 11 C5.9375 12.25 5.9375 12.25 4 13 C2.68 12.01 1.36 11.02 0 10 C0.33 9.01 0.66 8.02 1 7 C0.34742127 5.327767 -0.31867549 3.66072849 -1 2 C-0.67 1.34 -0.34 0.68 0 0 Z M5 8 C6 10 6 10 6 10 Z " fill="#FEF7F7" transform="translate(212,87)"/>
<path d="M0 0 C3.73487777 0.4979837 5.81237635 0.87491756 9 3 C9 3.66 9 4.32 9 5 C9.99 5.33 10.98 5.66 12 6 C11.401875 6.144375 10.80375 6.28875 10.1875 6.4375 C8.43849596 6.8872439 6.71322977 7.42892341 5 8 C5 9.65 5 11.3 5 13 C2.31342365 10.31342365 1.34023957 7.53335886 0 4 C0 2.68 0 1.36 0 0 Z " fill="#EA5456" transform="translate(40,33)"/>
<path d="M0 0 C0 1.98 0 3.96 0 6 C2.97 6.495 2.97 6.495 6 7 C5.34 8.32 4.68 9.64 4 11 C-1.42857143 11.36190476 -1.42857143 11.36190476 -3.875 9.8125 C-5.40659584 7.34492892 -5.42822025 5.85480169 -5 3 C-2.72413793 0 -2.72413793 0 0 0 Z " fill="#EC6668" transform="translate(98,190)"/>
<path d="M0 0 C0.66 0.33 1.32 0.66 2 1 C0.68 2.65 -0.64 4.3 -2 6 C-0.02 5.34 1.96 4.68 4 4 C3.690625 4.598125 3.38125 5.19625 3.0625 5.8125 C1.89790296 8.08956772 1.89790296 8.08956772 1 11 C2.175625 10.01 2.175625 10.01 3.375 9 C6 7 6 7 8 7 C6.84826645 9.46800047 5.95216435 11.04783565 4 13 C0.71711224 12.88679697 -0.30354487 11.71715137 -2.75 9.4375 C-3.4925 8.633125 -4.235 7.82875 -5 7 C-3.70700306 4.11562221 -2.34058637 2.12780579 0 0 Z " fill="#EA5759" transform="translate(106,45)"/>
<path d="M0 0 C4.70588235 0.70588235 4.70588235 0.70588235 6 2 C6.04063832 3.66617115 6.042721 5.33388095 6 7 C4.02 7.99 4.02 7.99 2 9 C0.68 8.01 -0.64 7.02 -2 6 C-1.125 1.125 -1.125 1.125 0 0 Z " fill="#E10D10" transform="translate(139,222)"/>
<path d="M0 0 C4.51478398 0.53115106 7.34666857 2.36620292 11 5 C10.401875 5.144375 9.80375 5.28875 9.1875 5.4375 C7.43849596 5.8872439 5.71322977 6.42892341 4 7 C4 8.65 4 10.3 4 12 C2 11 2 11 0.875 7.6875 C0 4 0 4 0 0 Z " fill="#EB6163" transform="translate(176,188)"/>
<path d="M0 0 C0.66 0.33 1.32 0.66 2 1 C0.515 2.485 0.515 2.485 -1 4 C-0.67 4.66 -0.34 5.32 0 6 C0.66 5.34 1.32 4.68 2 4 C2.99 4.33 3.98 4.66 5 5 C4.01 6.32 3.02 7.64 2 9 C4.31 8.34 6.62 7.68 9 7 C7.35 8.98 5.7 10.96 4 13 C0.2047869 11.50902342 -1.61042731 9.24299151 -4 6 C-2.84826645 3.53199953 -1.95216435 1.95216435 0 0 Z " fill="#EB5A5C" transform="translate(139,84)"/>
<path d="M0 0 C1.125 4.75 1.125 4.75 0 7 C-2.375 7.125 -2.375 7.125 -5 7 C-7 5 -7 5 -7.125 2.375 C-7.08375 1.59125 -7.0425 0.8075 -7 0 C-4.3333581 -1.33332095 -2.83319697 -0.67102033 0 0 Z " fill="#E10D10" transform="translate(173,62)"/>
<path d="M0 0 C4.70588235 0.70588235 4.70588235 0.70588235 6 2 C6.125 4.5 6.125 4.5 6 7 C5 8 5 8 2.5625 8.25 C1.716875 8.1675 0.87125 8.085 0 8 C-2 5 -2 5 -1.6875 2.875 C-1 1 -1 1 0 0 Z " fill="#E10B0E" transform="translate(235,138)"/>
<path d="M0 0 C2.2855347 2.12791162 2.92303658 3.47408328 3.375 6.5625 C3 9 3 9 1.875 10.875 C0 12 0 12 -3.0625 11.8125 C-6 11 -6 11 -8 9 C-8.333728 5.86295684 -8.52849028 3.83445834 -6.8125 1.125 C-4.31963619 -0.42229478 -2.88032665 -0.50405716 0 0 Z M-5 2 C-5.66 2.66 -6.32 3.32 -7 4 C-6.64644564 6.26274788 -6.02455574 7.95088852 -5 10 C-3.33388095 10.042721 -1.66617115 10.04063832 0 10 C1.27003323 8.94689723 1.27003323 8.94689723 1.1875 6.5625 C1.26839983 3.83265325 1.26839983 3.83265325 -1 2 C-2.32 2 -3.64 2 -5 2 Z " fill="#EB5B5D" transform="translate(240,136)"/>
<path d="M0 0 C2.31 1.98 4.62 3.96 7 6 C6.67 6.99 6.34 7.98 6 9 C4.68 8.34 3.36 7.68 2 7 C1.31292445 9.49064888 1 11.37886292 1 14 C-0.17262904 12.88121617 -1.33795138 11.75476949 -2.5 10.625 C-3.1496875 9.99851562 -3.799375 9.37203125 -4.46875 8.7265625 C-6 7 -6 7 -6 5 C-3.525 5.495 -3.525 5.495 -1 6 C-0.4465236 3.92446352 0 2.15634036 0 0 Z " fill="#EA5658" transform="translate(132,91)"/>
<path d="M0 0 C2 0.6875 2 0.6875 4 2.6875 C3.625 4.8125 3.625 4.8125 3 6.6875 C0.625 7.3125 0.625 7.3125 -2 7.6875 C-4 5.6875 -4 5.6875 -4.125 3.0625 C-4.08375 2.27875 -4.0425 1.495 -4 0.6875 C-2 -0.3125 -2 -0.3125 0 0 Z " fill="#E1090C" transform="translate(40,107.3125)"/>
<path d="M0 0 C3.36179774 1.44077046 5.59156268 3.24750021 8 6 C8 6.66 8 7.32 8 8 C7.236875 7.649375 6.47375 7.29875 5.6875 6.9375 C2.95240621 5.67639116 2.95240621 5.67639116 0 7 C0.66 8.98 1.32 10.96 2 13 C0 13 0 13 -1.5078125 11.5390625 C-2.04148437 10.90742187 -2.57515625 10.27578125 -3.125 9.625 C-3.66382812 8.99851562 -4.20265625 8.37203125 -4.7578125 7.7265625 C-6 6 -6 6 -6 4 C-5.34 4 -4.68 4 -4 4 C-3.67 4.66 -3.34 5.32 -3 6 C-1.68 5.34 -0.36 4.68 1 4 C0.67 2.68 0.34 1.36 0 0 Z " fill="#EB5C5E" transform="translate(98,53)"/>
<path d="M0 0 C2.49505962 2.49505962 2.35948376 3.67328888 2.625 7.125 C2.69976562 8.03507813 2.77453125 8.94515625 2.8515625 9.8828125 C2.90054688 10.58148438 2.94953125 11.28015625 3 12 C2.21625 11.814375 1.4325 11.62875 0.625 11.4375 C-1.97089775 10.74037734 -1.97089775 10.74037734 -4 12 C-3.71640113 10.5608866 -3.42278601 9.12374482 -3.125 7.6875 C-2.96257812 6.88699219 -2.80015625 6.08648437 -2.6328125 5.26171875 C-2 3 -2 3 0 0 Z " fill="#E52B2D" transform="translate(74,135)"/>
<path d="M0 0 C4.20626034 1.50223584 5.73900021 4.28550034 8 8 C7.21625 7.814375 6.4325 7.62875 5.625 7.4375 C3.02910225 6.74037734 3.02910225 6.74037734 1 8 C1.33 9.65 1.66 11.3 2 13 C-1.68802044 11.77065985 -2.72356973 10.06140622 -5 7 C-4.67 6.34 -4.34 5.68 -4 5 C-2.02 5.495 -2.02 5.495 0 6 C0 4.68 0 3.36 0 2 C0 1.34 0 0.68 0 0 Z " fill="#EB5B5D" transform="translate(199,168)"/>
<path d="M0 0 C0.66 0 1.32 0 2 0 C2 1.65 2 3.3 2 5 C4.31 5.66 6.62 6.32 9 7 C5.25 8.125 5.25 8.125 3 7 C3 8.98 3 10.96 3 13 C2.34 13 1.68 13 1 13 C0.67 11.02 0.34 9.04 0 7 C-1.65 6.67 -3.3 6.34 -5 6 C-5 5.34 -5 4.68 -5 4 C-3.68 4 -2.36 4 -1 4 C-0.67 2.68 -0.34 1.36 0 0 Z " fill="#EA575A" transform="translate(85,200)"/>
<path d="M0 0 C0.66 0 1.32 0 2 0 C1.34 1.32 0.68 2.64 0 4 C-0.66 4 -1.32 4 -2 4 C-1.01 5.485 -1.01 5.485 0 7 C0.680625 6.2575 0.680625 6.2575 1.375 5.5 C3 4 3 4 5 4 C3.9024777 6.99324263 3.32317108 7.84610901 0.375 9.25 C-0.40875 9.4975 -1.1925 9.745 -2 10 C-6.00390625 5.60546875 -6.00390625 5.60546875 -7 4 C-6.67 3.01 -6.34 2.02 -6 1 C-5.38125 1.20625 -4.7625 1.4125 -4.125 1.625 C-3.073125 1.810625 -3.073125 1.810625 -2 2 C-1.34 1.34 -0.68 0.68 0 0 Z " fill="#EA5456" transform="translate(210,164)"/>
<path d="M0 0 C3.96 0 7.92 0 12 0 C11.67 0.99 11.34 1.98 11 3 C9.68 2.67 8.36 2.34 7 2 C6.34 3.98 5.68 5.96 5 8 C4.01 7.67 3.02 7.34 2 7 C0.8125 3.4375 0.8125 3.4375 0 0 Z " fill="#FEFCFC" transform="translate(7,0)"/>
<path d="M0 0 C5.41342681 1.14514798 7.9342948 2.34012809 11 7 C10.34 7 9.68 7 9 7 C9 7.66 9 8.32 9 9 C6.66471585 8.82701599 5.30822418 8.29774631 3.62109375 6.66796875 C0 2.42788462 0 2.42788462 0 0 Z " fill="#E21316" transform="translate(114,106)"/>
<path d="M0 0 C2.375 0.1875 2.375 0.1875 5 1 C6.84894667 3.89400348 7.11472873 5.36899196 6.5 8.75 C5 11 5 11 2.0625 11.9375 C-1 12 -1 12 -4 10 C-3.67 9.01 -3.34 8.02 -3 7 C-2.34 7.66 -1.68 8.32 -1 9 C1.57061311 9.64767793 1.57061311 9.64767793 4 10 C4 8.02 4 6.04 4 4 C3.34 3.67 2.68 3.34 2 3 C2 2.34 2 1.68 2 1 C1.34 0.67 0.68 0.34 0 0 Z " fill="#F29496" transform="translate(169,59)"/>
<path d="M0 0 C0.66 0 1.32 0 2 0 C2 1.98 2 3.96 2 6 C4.97 6.495 4.97 6.495 8 7 C8 7.66 8 8.32 8 9 C5.03 8.505 5.03 8.505 2 8 C2 9.98 2 11.96 2 14 C1.67 14 1.34 14 1 14 C1 11.69 1 9.38 1 7 C-1.97 6.505 -1.97 6.505 -5 6 C-5 5.67 -5 5.34 -5 5 C-3.35 5 -1.7 5 0 5 C0 3.35 0 1.7 0 0 Z " fill="#EB5C5D" transform="translate(114,38)"/>
<path d="M0 0 C0.66 0 1.32 0 2 0 C2 1.98 2 3.96 2 6 C3.65 6 5.3 6 7 6 C7.33 6.66 7.66 7.32 8 8 C5.03 7.505 5.03 7.505 2 7 C2.33 8.98 2.66 10.96 3 13 C2.34 13 1.68 13 1 13 C0.67 11.02 0.34 9.04 0 7 C-1.65 6.67 -3.3 6.34 -5 6 C-5 5.34 -5 4.68 -5 4 C-3.68 4 -2.36 4 -1 4 C-0.67 2.68 -0.34 1.36 0 0 Z " fill="#EB5C5E" transform="translate(215,154)"/>
<path d="M0 0 C0.33 0.99 0.66 1.98 1 3 C1.61875 3.309375 2.2375 3.61875 2.875 3.9375 C5.48547596 5.24273798 6.58048536 6.45981591 8 9 C7.6875 11.25 7.6875 11.25 7 13 C6.01 11.02 5.02 9.04 4 7 C4.33 9.31 4.66 11.62 5 14 C4.34 14 3.68 14 3 14 C2.49307308 12.4188708 1.99473557 10.83498617 1.5 9.25 C1.2215625 8.36828125 0.943125 7.4865625 0.65625 6.578125 C0 4 0 4 0 0 Z " fill="#ED6D6E" transform="translate(82,131)"/>
<path d="M0 0 C3.37462715 0.54723683 5.08235 1.0549 8 3 C8.99 3 9.98 3 11 3 C11 3.99 11 4.98 11 6 C10.38125 5.835 9.7625 5.67 9.125 5.5 C7.03936614 4.92365356 7.03936614 4.92365356 5 5 C5.66 6.32 6.32 7.64 7 9 C5.82460004 8.07347299 4.65989423 7.13336613 3.5 6.1875 C2.52546875 5.40439453 2.52546875 5.40439453 1.53125 4.60546875 C0 3 0 3 0 0 Z " fill="#EB5B5D" transform="translate(240,132)"/>
<path d="M0 0 C0.78375 0.04125 1.5675 0.0825 2.375 0.125 C1.625 4.875 1.625 4.875 -0.625 7.125 C-1.945 7.125 -3.265 7.125 -4.625 7.125 C-4.75 4.75 -4.75 4.75 -4.625 2.125 C-2.625 0.125 -2.625 0.125 0 0 Z " fill="#FDF0F0" transform="translate(112.625,116.875)"/>
<path d="M0 0 C4.2742558 1.5830577 6.26531794 4.50568404 9 8 C6.69 8 4.38 8 2 8 C0.23537317 4.91190305 0 3.76687864 0 0 Z " fill="#FEFCFC" transform="translate(183,248)"/>
<path d="M0 0 C1.2065625 0.0309375 1.2065625 0.0309375 2.4375 0.0625 C1.6875 4.8125 1.6875 4.8125 -0.5625 7.0625 C-2.6875 6.6875 -2.6875 6.6875 -4.5625 6.0625 C-3.48963568 0.08511307 -3.48963568 0.08511307 0 0 Z " fill="#FCEDED" transform="translate(170.5625,92.9375)"/>
<path d="M0 0 C3.22348996 1.07449665 4.04138081 1.86324569 6.1875 4.375 C6.71730469 4.98085937 7.24710938 5.58671875 7.79296875 6.2109375 C9 8 9 8 9 11 C5.78956118 9.61811547 3.95063635 8.07578097 1.75 5.375 C1.22921875 4.74335938 0.7084375 4.11171875 0.171875 3.4609375 C-0.21484375 2.97882813 -0.6015625 2.49671875 -1 2 C-0.67 1.34 -0.34 0.68 0 0 Z " fill="#FEFAFA" transform="translate(215,220)"/>
<path d="M0 0 C4.05281712 1.22527029 7.44360764 2.69880494 11 5 C7.52674819 6.1577506 4.63932552 6.06866652 1 6 C0.34 4.35 -0.32 2.7 -1 1 C-0.67 0.67 -0.34 0.34 0 0 Z " fill="#EA5658" transform="translate(109,111)"/>
<path d="M0 0 C3.21496708 1.07165569 4.08462512 1.88376774 6.25 4.375 C6.79140625 4.98085938 7.3328125 5.58671875 7.890625 6.2109375 C8.25671875 6.80132812 8.6228125 7.39171875 9 8 C8.67 8.99 8.34 9.98 8 11 C6.86800647 10.0919838 5.74467637 9.17316174 4.625 8.25 C3.99851563 7.73953125 3.37203125 7.2290625 2.7265625 6.703125 C0.91687682 4.91800519 -0.00117455 3.32050356 -1 1 C-0.67 0.67 -0.34 0.34 0 0 Z " fill="#FEFBFB" transform="translate(244,59)"/>
<path d="M0 0 C3.95820859 0.56545837 6.6659053 1.80902348 10 4 C9.01 4.495 9.01 4.495 8 5 C5.375 4.0625 5.375 4.0625 3 3 C2.67 3.66 2.34 4.32 2 5 C2.66 5 3.32 5 4 5 C4 6.98 4 8.96 4 11 C3.34 11 2.68 11 2 11 C0.80712589 7.12315913 0 4.08378077 0 0 Z " fill="#EB6062" transform="translate(75,73)"/>
<path d="M0 0 C4.2742558 1.5830577 6.26531794 4.50568404 9 8 C8.34 8.66 7.68 9.32 7 10 C5.84775972 9.07038578 4.70340824 8.1309875 3.5625 7.1875 C2.60537109 6.40439453 2.60537109 6.40439453 1.62890625 5.60546875 C0 4 0 4 -1 1 C-0.67 0.67 -0.34 0.34 0 0 Z " fill="#FEF6F6" transform="translate(46,28)"/>
<path d="M0 0 C2 3.75 2 3.75 2 6 C3.65 6 5.3 6 7 6 C7.33 6.66 7.66 7.32 8 8 C6.35 8 4.7 8 3 8 C2.67 9.65 2.34 11.3 2 13 C0.5393715 10.35261084 0 9.10551666 0 6 C-1.65 6 -3.3 6 -5 6 C-5 5.34 -5 4.68 -5 4 C-2.525 4.495 -2.525 4.495 0 5 C0 3.35 0 1.7 0 0 Z " fill="#EC6365" transform="translate(148,77)"/>
<path d="M0 0 C0.33 1.32 0.66 2.64 1 4 C1.639375 4.103125 2.27875 4.20625 2.9375 4.3125 C3.618125 4.539375 4.29875 4.76625 5 5 C5.33 5.99 5.66 6.98 6 8 C4.02 8.66 2.04 9.32 0 10 C0 6.7 0 3.4 0 0 Z " fill="#E94C4E" transform="translate(155,134)"/>
<path d="M0 0 C0.66 0.33 1.32 0.66 2 1 C1.01 2.485 1.01 2.485 0 4 C2.64 3.67 5.28 3.34 8 3 C6.35 4.65 4.7 6.3 3 8 C3.66 8.33 4.32 8.66 5 9 C4.01 9.33 3.02 9.66 2 10 C-0.0625 7.75 -0.0625 7.75 -2 5 C-1.81190541 2.74286486 -1.60454441 1.60454441 0 0 Z " fill="#ED6D6F" transform="translate(171,124)"/>
<path d="M0 0 C0.99 0.495 0.99 0.495 2 1 C1.01 1.495 1.01 1.495 0 2 C0 1.34 0 0.68 0 0 Z M-2 2 C-1.34 2.33 -0.68 2.66 0 3 C-3.63 6.63 -7.26 10.26 -11 14 C-11 10.00102358 -9.64683965 8.93298448 -7 6 C-5.36643049 4.62631655 -3.7074998 3.28062485 -2 2 Z " fill="#FADADB" transform="translate(110,178)"/>
<path d="M0 0 C-0.1875 2.3125 -0.1875 2.3125 -1 5 C-3.5625 6.8125 -3.5625 6.8125 -6 8 C-6.25 5.6875 -6.25 5.6875 -6 3 C-3.95575462 1.02389614 -2.8823175 0 0 0 Z " fill="#E73E40" transform="translate(148,146)"/>
<path d="M0 0 C4.5 2.25 4.5 2.25 6 6 C5.01 6 4.02 6 3 6 C2.67 6.99 2.34 7.98 2 9 C1.34 6.03 0.68 3.06 0 0 Z " fill="#E73D3F" transform="translate(51,98)"/>
<path d="M0 0 C1.485 0.99 1.485 0.99 3 2 C2.25 8.625 2.25 8.625 0 12 C0 8.04 0 4.08 0 0 Z " fill="#E63638" transform="translate(198,106)"/>
<path d="M0 0 C2.97 0.495 2.97 0.495 6 1 C5.67 1.66 5.34 2.32 5 3 C5.495 3.61875 5.99 4.2375 6.5 4.875 C8 7 8 7 8 9 C3.96189555 7.65396518 2.52704924 5.34663277 0 2 C0 1.34 0 0.68 0 0 Z " fill="#EB5F61" transform="translate(206,94)"/>
<path d="M0 0 C4.46840411 0.49648935 5.68987756 0.68987756 9 4 C6.03 4 3.06 4 0 4 C0 2.68 0 1.36 0 0 Z " fill="#FEF8F8" transform="translate(40,33)"/>
<path d="M0 0 C0 0.99 0 1.98 0 3 C-2.88834003 5.10770759 -4.38462395 6 -8 6 C-6.98565881 3.46414701 -6.34981128 2.21863205 -4 0.75 C-2 0 -2 0 0 0 Z " fill="#E21013" transform="translate(182,126)"/>
<path d="M0 0 C0.2475 0.598125 0.495 1.19625 0.75 1.8125 C2.16370012 4.28647521 3.65055383 5.43370255 6 7 C4.1875 7.625 4.1875 7.625 2 8 C1.01 7.34 0.02 6.68 -1 6 C-1.25 3.4375 -1.25 3.4375 -1 1 C-0.67 0.67 -0.34 0.34 0 0 Z " fill="#E21214" transform="translate(96,192)"/>
<path d="M0 0 C1.65 0.99 3.3 1.98 5 3 C4.67 3.66 4.34 4.32 4 5 C3.34 5 2.68 5 2 5 C2 6.65 2 8.3 2 10 C1.34 9.67 0.68 9.34 0 9 C0 6.03 0 3.06 0 0 Z " fill="#E73B3D" transform="translate(178,190)"/>
<path d="M0 0 C0.99 0.33 1.98 0.66 3 1 C2.34 2.32 1.68 3.64 1 5 C0.01 5 -0.98 5 -2 5 C-2 3.68 -2 2.36 -2 1 C-1.34 0.67 -0.68 0.34 0 0 Z " fill="#E21215" transform="translate(190,178)"/>
<path d="M0 0 C2.33524782 2.25740623 4.18705073 4.2805761 6 7 C5.67 7.99 5.34 8.98 5 10 C3.96704564 8.90716423 2.94892165 7.80029421 1.9375 6.6875 C1.36902344 6.07261719 0.80054687 5.45773438 0.21484375 4.82421875 C-0.38650391 3.92123047 -0.38650391 3.92123047 -1 3 C-0.67 2.01 -0.34 1.02 0 0 Z " fill="#EC6365" transform="translate(85,64)"/>
<path d="M0 0 C3.25696479 0.41755959 4.63443291 0.63443291 7 3 C7.125 5.625 7.125 5.625 7 8 C6.13375 6.824375 6.13375 6.824375 5.25 5.625 C3.17102363 3.19952756 1.90959667 2.14305583 -1 1 C-0.67 0.67 -0.34 0.34 0 0 Z " fill="#EC6263" transform="translate(38,105)"/>
<path d="M0 0 C2.97 0 5.94 0 9 0 C8.01 1.485 8.01 1.485 7 3 C4.5 3.375 4.5 3.375 2 3 C1.34 2.01 0.68 1.02 0 0 Z " fill="#EA5254" transform="translate(123,37)"/>
<path d="M0 0 C2.64 0 5.28 0 8 0 C7.67 0.99 7.34 1.98 7 3 C4.69 2.67 2.38 2.34 0 2 C0 1.34 0 0.68 0 0 Z " fill="#FBE4E5" transform="translate(137,230)"/>
<path d="M0 0 C0.33 0 0.66 0 1 0 C1 2.31 1 4.62 1 7 C2.98 6.67 4.96 6.34 7 6 C5.68 7.32 4.36 8.64 3 10 C2.01 9.34 1.02 8.68 0 8 C-0.40843923 5.28796348 -0.13336867 2.7562858 0 0 Z " fill="#E63235" transform="translate(161,127)"/>
<path d="M0 0 C0.33 0 0.66 0 1 0 C1 1.98 1 3.96 1 6 C-0.32 6.33 -1.64 6.66 -3 7 C-3 3.4833494 -2.23600438 2.59376508 0 0 Z " fill="#E42022" transform="translate(174,122)"/>
<path d="M0 0 C4.03810445 1.34603482 5.47295076 3.65336723 8 7 C8 7.66 8 8.32 8 9 C3.96189555 7.65396518 2.52704924 5.34663277 0 2 C0 1.34 0 0.68 0 0 Z " fill="#EB5F61" transform="translate(114,106)"/>
<path d="M0 0 C0.99 0 1.98 0 3 0 C2.6875 1.875 2.6875 1.875 2 4 C1.01 4.66 0.02 5.32 -1 6 C-1.625 4.125 -1.625 4.125 -2 2 C-1.34 1.34 -0.68 0.68 0 0 Z " fill="#E10E11" transform="translate(122,101)"/>
<path d="M0 0 C3.36591866 1.44253657 5.51047079 3.33264727 8 6 C7.67 6.99 7.34 7.98 7 9 C5.83037314 7.69013727 4.66437056 6.3770374 3.5 5.0625 C2.8503125 4.33160156 2.200625 3.60070312 1.53125 2.84765625 C0 1 0 1 0 0 Z " fill="#EB5E60" transform="translate(80,68)"/>
<path d="M0 0 C3.36591866 1.44253657 5.51047079 3.33264727 8 6 C7.67 6.66 7.34 7.32 7 8 C6.21625 7.360625 5.4325 6.72125 4.625 6.0625 C2.20460719 4.01857687 2.20460719 4.01857687 0 3 C0 2.01 0 1.02 0 0 Z " fill="#EC6869" transform="translate(150,211)"/>
<path d="M0 0 C0.99 0.33 1.98 0.66 3 1 C2.01 1.66 1.02 2.32 0 3 C0.57584432 5.38564077 1.22227595 7.66682784 2 10 C0.68 9.34 -0.64 8.68 -2 8 C-2.125 5.125 -2.125 5.125 -2 2 C-1.34 1.34 -0.68 0.68 0 0 Z " fill="#EC6769" transform="translate(234,137)"/>
<path d="M0 0 C3.36720387 1.39332574 4.9859524 2.9789286 7 6 C6.67 6.66 6.34 7.32 6 8 C4.9970458 6.85675161 3.99770973 5.71032809 3 4.5625 C2.443125 3.92441406 1.88625 3.28632813 1.3125 2.62890625 C0 1 0 1 0 0 Z " fill="#EC6163" transform="translate(182,184)"/>
<path d="M0 0 C2.31 1.98 4.62 3.96 7 6 C6.67 6.99 6.34 7.98 6 9 C5.34 7.68 4.68 6.36 4 5 C3.34 5 2.68 5 2 5 C1.34 3.35 0.68 1.7 0 0 Z " fill="#EC6365" transform="translate(132,91)"/>
<path d="M0 0 C4.75 0.75 4.75 0.75 7 3 C5.02 3.99 5.02 3.99 3 5 C1.5 3.625 1.5 3.625 0 2 C0 1.34 0 0.68 0 0 Z " fill="#F19192" transform="translate(7,62)"/>
<path d="M0 0 C0.99 0 1.98 0 3 0 C2.67 1.32 2.34 2.64 2 4 C0.68 4 -0.64 4 -2 4 C-1.34 2.68 -0.68 1.36 0 0 Z " fill="#E1090C" transform="translate(88,63)"/>
<path d="M0 0 C3.16717283 1.58358642 4.73268318 2.45263699 6.3125 5.6875 C6.539375 6.450625 6.76625 7.21375 7 8 C3.28631113 6.76210371 2.22645819 5.14775123 0 2 C0 1.34 0 0.68 0 0 Z " fill="#EC6769" transform="translate(194,173)"/>
<path d="M0 0 C2.475 0.99 2.475 0.99 5 2 C4.67 3.98 4.34 5.96 4 8 C3.896875 7.360625 3.79375 6.72125 3.6875 6.0625 C3.460625 5.381875 3.23375 4.70125 3 4 C2.01 3.67 1.02 3.34 0 3 C0 2.01 0 1.02 0 0 Z " fill="#E62E30" transform="translate(33,114)"/>
<path d="M0 0 C1.65 1.65 3.3 3.3 5 5 C3.35 4.67 1.7 4.34 0 4 C0 2.68 0 1.36 0 0 Z " fill="#FFFFFF" transform="translate(103,251)"/>
<path d="M0 0 C2.97 0 5.94 0 9 0 C8.34 0.66 7.68 1.32 7 2 C3.375 1.625 3.375 1.625 0 1 C0 0.67 0 0.34 0 0 Z " fill="#FEFDFD" transform="translate(89,0)"/>
<path d="M0 0 C1.65 0.33 3.3 0.66 5 1 C5 1.33 5 1.66 5 2 C3.02 2 1.04 2 -1 2 C-0.67 1.34 -0.34 0.68 0 0 Z " fill="#FEFDFD" transform="translate(177,254)"/>
<path d="M0 0 C0.66 0.33 1.32 0.66 2 1 C1.67 1.99 1.34 2.98 1 4 C0.34 4 -0.32 4 -1 4 C-0.67 2.68 -0.34 1.36 0 0 Z " fill="#FEF9F9" transform="translate(129,241)"/>
<path d="M0 0 C0.99 0.33 1.98 0.66 3 1 C2.67 1.66 2.34 2.32 2 3 C1.01 2.67 0.02 2.34 -1 2 C-0.67 1.34 -0.34 0.68 0 0 Z " fill="#FFFFFF" transform="translate(27,126)"/>
<path d="M0 0 C0.33 0.99 0.66 1.98 1 3 C0.01 2.67 -0.98 2.34 -2 2 C-1.34 1.34 -0.68 0.68 0 0 Z " fill="#FEF1F1" transform="translate(255,253)"/>
<path d="M0 0 C0.66 0 1.32 0 2 0 C1.67 0.99 1.34 1.98 1 3 C0.67 2.01 0.34 1.02 0 0 Z " fill="#FFFFFF" transform="translate(0,151)"/>
<path d="" fill="#FDF0F0" transform="translate(0,0)"/>
<path d="" fill="#FCE2E2" transform="translate(0,0)"/>
<path d="" fill="#FFDBDB" transform="translate(0,0)"/>
<path d="" fill="#FFDBDB" transform="translate(0,0)"/>
<path d="" fill="#FFDBDB" transform="translate(0,0)"/>
<path d="" fill="#FFDBDB" transform="translate(0,0)"/>
<path d="" fill="#FFFFFF" transform="translate(0,0)"/>
</svg>
