<svg width="40" height="40" viewBox="0 0 40 40" fill="none" xmlns="http://www.w3.org/2000/svg">
<path d="M19.4781 3.67202C22.1716 3.59998 24.8817 4.17636 27.298 5.37899C28.8609 6.14935 30.3018 7.16355 31.5377 8.38836C34.5249 11.3035 36.3317 15.3936 36.4591 19.5668C36.4536 20.2873 36.4868 21.0077 36.3982 21.7227C36.0934 25.1532 34.6635 28.4674 32.4079 31.0667C32.0088 31.4934 31.632 31.9479 31.1775 32.3192C28.1404 35.1346 24.006 36.764 19.8605 36.6808C15.4712 36.703 11.1317 34.8242 8.08908 31.6708C6.6703 30.191 5.51754 28.4453 4.73056 26.5498C3.64985 23.9894 3.2619 21.1518 3.55563 18.3919C3.93804 14.8394 5.50091 11.4199 7.96161 8.82618C8.24425 8.47703 8.59895 8.20547 8.91485 7.89511C11.7912 5.3014 15.6042 3.77178 19.4781 3.67202Z" fill="#0E5EA4" stroke="#0E5EA4" stroke-width="0.00519573"/>
<path d="M19.2066 4.33655C21.7116 4.21462 24.2444 4.70787 26.5277 5.74979C28.3621 6.5811 30.0359 7.76711 31.4214 9.22469C34.0317 11.9459 35.6278 15.6314 35.7996 19.4C35.8107 20.1925 35.8329 20.9906 35.7387 21.7776C35.5115 23.9667 34.8298 26.106 33.7435 28.018C32.7459 29.7859 31.3937 31.3488 29.8031 32.6124C27.9631 34.0644 25.7961 35.1119 23.5128 35.6384C20.908 36.2425 18.1536 36.1649 15.5931 35.4167C13.3984 34.7904 11.3423 33.6765 9.61319 32.1912C6.29346 29.337 4.23734 25.053 4.1265 20.6747C3.99903 17.0779 5.16841 13.4589 7.34092 10.5936C9.61873 7.57868 13.005 5.43943 16.7015 4.66353C17.5273 4.48619 18.3642 4.37534 19.2066 4.33655Z" fill="white" stroke="white" stroke-width="0.00519573"/>
<path d="M17.8543 4.61906C20.4868 4.26991 23.208 4.59135 25.6853 5.56676C25.4414 6.2041 25.1089 6.80819 24.7099 7.36794C22.6371 6.01567 20.2152 5.14002 17.7268 5.09568C17.7711 4.93496 17.8099 4.77978 17.8543 4.61906Z" fill="#0E5EA4" stroke="#0E5EA4" stroke-width="0.00519573"/>
<path d="M14.1522 5.59968C15.2495 5.16739 16.3856 4.83487 17.5495 4.67969C17.2557 5.74931 16.4965 6.63051 15.6374 7.31219C14.5179 8.18784 13.1601 8.77531 11.7469 8.94157C10.9433 9.00807 10.0953 8.98591 9.36932 8.6035C10.7604 7.31219 12.4009 6.30907 14.1522 5.59968Z" fill="#0E5EA4" stroke="#0E5EA4" stroke-width="0.00519573"/>
<path d="M16.5242 6.8929C16.9343 6.42737 17.3333 5.93966 17.5883 5.36328C20.0711 5.38545 22.5041 6.23339 24.5658 7.60229C23.7899 8.7218 22.82 9.69167 21.7892 10.5784C21.573 10.3733 21.368 10.1627 21.1574 9.95215C20.9412 9.73601 20.6918 9.54757 20.4757 9.32035C20.5533 9.50324 20.5976 9.69721 20.6974 9.86902C20.98 10.1683 21.2959 10.4454 21.5786 10.7558C21.4012 10.8998 21.2239 11.0439 21.041 11.1825C21.0687 11.2656 21.1019 11.3488 21.1352 11.4263C21.3513 11.2767 21.5509 11.1104 21.7615 10.9497C21.9499 11.116 22.1272 11.2933 22.288 11.4873C22.6593 11.8974 23.0195 12.3131 23.3631 12.7398C23.4296 12.6622 23.5793 12.5846 23.474 12.4738C23.0084 11.8753 22.4819 11.3266 21.9776 10.7613C23.0251 9.86902 23.9838 8.87144 24.7819 7.75747C25.6465 8.31723 26.4335 8.98782 27.1595 9.71938C27.9243 10.4565 28.606 11.2767 29.2211 12.1413C29.731 12.8673 30.2132 13.6155 30.6011 14.408C29.4594 14.9788 28.3289 15.5718 27.1927 16.1482C26.9267 16.2702 26.6773 16.4253 26.4002 16.5251C25.6686 15.4333 24.9537 14.3193 24.1279 13.294C24.1113 13.4215 24.1002 13.5434 24.0891 13.6709C24.8373 14.6241 25.5135 15.6328 26.1674 16.6526C25.6908 16.9297 25.1865 17.1569 24.6988 17.4174C24.394 17.5615 24.1113 17.7388 23.7954 17.8663C24.0337 17.8386 24.2997 17.9217 24.5159 17.7998C25.1089 17.5005 25.6853 17.1846 26.2894 16.9075C26.4667 17.2345 26.6053 17.5836 26.7549 17.9217C26.8491 17.9217 26.9433 17.9217 27.0375 17.9162C26.8768 17.5338 26.6995 17.1569 26.5166 16.7856C27.4865 16.2757 28.4674 15.7991 29.4317 15.2892C29.8696 15.0731 30.2908 14.8403 30.7341 14.6463C31.3105 15.7437 31.7539 16.913 32.0587 18.1157C32.1418 18.1046 32.2305 18.099 32.3192 18.088C32.0365 16.9241 31.6042 15.7991 31.0722 14.7294C31.0334 14.6574 31.0057 14.5854 30.9724 14.5133C31.632 14.1642 32.297 13.8316 32.9621 13.4936C33.289 13.3328 33.5994 13.1499 33.9319 13.0114C35.3507 15.7769 35.9382 18.9747 35.5502 22.0672C35.4726 22.6768 35.3729 23.2865 35.2177 23.8795C34.8242 23.8296 34.4418 23.7132 34.0483 23.6689C33.5939 23.5913 33.1339 23.5857 32.6794 23.5303C32.7625 22.8597 32.7792 22.1836 32.7625 21.5074C32.7792 20.8479 32.6905 20.194 32.6185 19.54C32.5963 19.5455 32.5519 19.5455 32.5298 19.5511C32.4854 19.7561 32.3912 19.9557 32.4245 20.1718C32.5464 21.2913 32.5409 22.4219 32.4079 23.5359C31.1609 23.5137 29.9139 23.6245 28.6946 23.8684C28.5949 23.2532 28.5118 22.638 28.3621 22.0339C28.2679 22.0173 28.1792 22.0007 28.085 21.9841C28.2236 22.6214 28.3399 23.2643 28.4231 23.9183C26.7715 24.2674 25.1532 24.7995 23.6347 25.5476C23.74 25.5864 23.8453 25.6585 23.9672 25.6585C24.1501 25.6086 24.3219 25.5033 24.4993 25.4313C25.7684 24.8881 27.093 24.4614 28.4452 24.1898C28.5783 25.132 28.5505 26.0908 28.5339 27.044C28.473 28.2467 28.2845 29.4382 28.0628 30.6242C27.42 30.724 26.7882 30.9069 26.1785 31.1396C25.8017 30.3748 25.3915 29.6211 25.0202 28.8507C24.8928 28.8064 24.7708 28.7565 24.6434 28.7066C24.8706 29.1278 25.0756 29.5601 25.2918 29.9813C25.5024 30.4081 25.7518 30.8126 25.9291 31.256C25.2752 31.5553 24.6822 31.9765 24.1501 32.4531C22.1605 31.644 20.2873 30.5078 18.741 29.0115C18.8352 28.9283 18.9461 28.8563 19.0237 28.7621C19.0458 28.6789 19.0403 28.5958 19.0514 28.5182C19.0237 28.5127 18.9627 28.5071 18.935 28.5016C18.802 28.6013 18.6911 28.7565 18.5304 28.7953C18.1369 28.4739 17.8155 28.0804 17.4663 27.7201C17.361 27.7035 17.3499 27.8476 17.3001 27.9141C17.627 28.3021 18.0095 28.6346 18.342 29.017C17.2557 29.9647 16.2581 31.0232 15.4656 32.2259C15.0444 32.0153 14.6731 31.7271 14.2907 31.4611C12.5338 30.1587 11.0818 28.496 9.82376 26.717C9.58545 26.3623 9.30834 26.0298 9.16425 25.6197C10.6772 24.8604 12.1847 24.0845 13.6922 23.3142C13.7642 23.2809 13.8418 23.2477 13.9194 23.231C14.4293 24.1843 15.0777 25.0599 15.6984 25.9411C15.7815 25.9134 15.8647 25.8857 15.9533 25.858C15.4047 25.071 14.8394 24.2896 14.3406 23.4749C14.2685 23.3474 14.1909 23.22 14.1688 23.0759C14.5124 22.9096 14.8394 22.6935 15.2051 22.5882C15.0278 22.5882 14.856 22.5383 14.6786 22.5383C14.4403 22.5992 14.2519 22.7988 14.0081 22.8265C13.936 22.6824 13.8861 22.5272 13.8307 22.3776C13.7365 22.3831 13.6478 22.3886 13.5536 22.3942C13.6367 22.5882 13.7032 22.7821 13.7697 22.9761C13.1379 23.3253 12.484 23.6356 11.8411 23.9681C10.91 24.4503 9.9734 24.9269 9.03124 25.398C8.06137 23.4195 7.4074 21.2802 7.17463 19.0855C7.06933 19.008 6.96957 18.9304 6.86981 18.8528C7.10813 21.1638 7.77318 23.4306 8.79847 25.5144C7.81197 26.0243 6.82548 26.5341 5.83344 27.0274C4.97996 25.2484 4.44791 23.3086 4.30936 21.3412C4.16527 19.4679 4.38695 17.5725 4.89682 15.7658C5.52308 15.9432 6.17151 16.0485 6.81994 16.1205C6.82548 16.1316 6.83656 16.1482 6.8421 16.1538C6.80885 16.575 6.80885 17.0017 6.81439 17.4229C6.89753 17.434 6.9862 17.4506 7.07487 17.4672C7.05825 17.0294 7.0915 16.5861 7.10812 16.1482C8.63775 16.2203 10.1729 16.1094 11.6804 15.8102C11.8078 16.5417 11.963 17.2622 12.1459 17.9771C12.2346 17.9771 12.3233 17.9771 12.4119 17.9827C12.2401 17.24 12.0572 16.5029 11.9464 15.7492C13.4594 15.4444 14.9391 14.9622 16.3468 14.3193C16.3413 14.2251 16.3413 14.1309 16.3413 14.0367C14.9225 14.6907 13.4317 15.1784 11.9076 15.4998C11.6804 14.1531 11.564 12.7786 11.6693 11.4153C11.7358 10.656 11.8466 9.89118 12.1182 9.18179C12.29 9.12637 12.4729 9.1042 12.6502 9.05987C13.2322 8.92686 13.7864 8.69963 14.3295 8.45578C14.9613 9.68058 15.5876 10.9109 16.2083 12.1413C16.2859 12.1136 16.3579 12.0914 16.441 12.0637C16.3191 11.7533 16.1528 11.4651 16.0088 11.1714C15.5266 10.2293 15.05 9.28155 14.5678 8.33939C15.0666 8.04012 15.5765 7.74085 16.0143 7.34736C16.1085 7.26977 16.1972 7.17555 16.308 7.11459C17.2668 7.38061 18.1314 7.90157 18.9461 8.46132C19.2176 8.65529 19.4947 8.84927 19.7441 9.07095C19.7829 8.98782 19.8162 8.89915 19.855 8.81047C18.8408 8.01795 17.7434 7.31965 16.5242 6.8929Z" fill="#0E5EA4" stroke="#0E5EA4" stroke-width="0.00519573"/>
<path d="M25.9513 5.67188C29.2378 7.01307 32.031 9.51256 33.7213 12.6328C33.7435 12.6826 33.7934 12.7769 33.7213 12.799C32.7626 13.2923 31.8093 13.7855 30.845 14.2677C29.4373 11.6075 27.4477 9.22991 24.9482 7.53402C25.3306 6.94102 25.6908 6.32584 25.9513 5.67188Z" fill="#0E5EA4" stroke="#0E5EA4" stroke-width="0.00519573"/>
<path d="M8.57122 9.38593C8.75965 9.19195 8.92591 8.96472 9.15868 8.82617C9.24735 8.85388 9.33049 8.89268 9.41916 8.92593C9.4247 8.9481 9.43579 8.99798 9.44133 9.02569C7.91171 10.9654 7.08593 13.3929 6.85871 15.8369C6.22691 15.7926 5.59511 15.6873 4.98547 15.4989C5.70595 13.2321 6.92521 11.1095 8.57122 9.38593Z" fill="#0E5EA4" stroke="#0E5EA4" stroke-width="0.00519573"/>
<path d="M18.7909 12.3126C19.2121 11.1931 19.6499 10.0847 20.0877 8.9707C20.4812 10.0847 20.8914 11.1931 21.2738 12.3126C20.9689 12.1408 20.6752 11.9468 20.3704 11.775C20.3649 13.9087 20.3704 16.0424 20.3704 18.1817C20.3704 18.42 20.2041 18.614 20.1155 18.8301C19.9658 18.5807 19.8328 18.3202 19.7053 18.0598C19.6721 17.9988 19.6665 17.9212 19.6665 17.8547C19.6665 15.8263 19.6721 13.8034 19.6665 11.775C19.3728 11.9524 19.0846 12.1408 18.7909 12.3126Z" fill="#FFD734" stroke="#FFD734" stroke-width="0.00519573"/>
<path d="M7.14136 15.8653C7.36858 13.4212 8.19436 10.9882 9.76277 9.07617C10.4278 9.2646 11.1261 9.27569 11.8134 9.22581C11.2702 10.8774 11.2979 12.6508 11.4642 14.3578C11.5085 14.7513 11.564 15.1503 11.6305 15.5438C10.1507 15.832 8.64327 15.9595 7.14136 15.8653Z" fill="#0E5EA4" stroke="#0E5EA4" stroke-width="0.00519573"/>
<path d="M17.6603 13.376C18.2921 13.0324 18.9183 12.6666 19.5169 12.2676C19.5113 12.3729 19.5113 12.4782 19.5113 12.5835C18.9682 12.9215 18.4195 13.2541 17.8598 13.5589C17.7933 13.4979 17.7268 13.437 17.6603 13.376Z" fill="white" stroke="white" stroke-width="0.00519573"/>
<path d="M16.3801 12.4395C17.1948 13.1544 17.9873 13.897 18.7909 14.6286C18.4473 14.6341 18.1092 14.5787 17.7656 14.5621C19.6388 18.2476 21.5176 21.9331 23.3908 25.6186C23.6624 25.7461 23.945 25.8458 24.2111 25.9733C24.272 25.9955 24.3108 26.0509 24.3385 26.1063C24.8207 27.0595 25.3084 28.0128 25.7961 28.966C25.3527 28.7998 24.9094 28.628 24.4494 28.4839C24.3219 28.9328 24.1944 29.3761 24.067 29.825C23.5405 28.8552 23.0749 27.8576 22.554 26.8877C22.6149 26.5663 22.7202 26.2559 22.7535 25.9289C22.6537 25.674 22.5096 25.4357 22.3877 25.1918C20.6364 21.7557 18.8906 18.3196 17.1393 14.8835C16.9564 15.1717 16.7736 15.4654 16.6018 15.7647C16.5131 14.6563 16.4687 13.5479 16.3801 12.4395Z" fill="#FFD734" stroke="#FFD734" stroke-width="0.00519573"/>
<path d="M21.4068 14.6786C22.2547 13.9803 23.1026 13.2764 23.9506 12.5781C23.8619 13.6644 23.7178 14.7451 23.6014 15.8313C23.4241 15.5321 23.2412 15.2328 23.0583 14.9391C22.2104 16.5407 21.4178 18.1646 20.5754 19.7607C20.4424 19.5113 20.3205 19.2564 20.1875 19.007C20.9246 17.5383 21.6839 16.0863 22.421 14.6176C22.0829 14.6342 21.7448 14.673 21.4068 14.6786Z" fill="#FFD734" stroke="#FFD734" stroke-width="0.00519573"/>
<path d="M6.18262 17.4277C8.38283 17.9487 10.6496 18.1316 12.9052 18.115C13.1435 18.514 13.5315 18.78 13.9416 18.9684C13.0493 19.179 12.1348 19.3065 11.2204 19.4063C10.0953 19.5005 8.9315 19.5448 7.83417 19.2289C7.42405 19.1236 7.08044 18.8521 6.78117 18.5639C6.46526 18.2646 6.22141 17.8711 6.18262 17.4277Z" fill="#FFD734" stroke="#FFD734" stroke-width="0.00519573"/>
<path d="M30.6067 18.4085C31.6984 18.3697 32.7847 18.1868 33.8266 17.8598C33.9818 17.7988 34.1425 17.8265 34.2644 17.9374C33.9264 18.68 33.2114 19.2398 32.4134 19.4171C31.4823 19.7552 30.4736 19.7607 29.5038 19.6776C28.3732 19.5889 27.2648 19.3617 26.1674 19.0791C26.4612 18.935 26.7549 18.7798 26.9821 18.5415C27.0763 18.4473 27.1484 18.3364 27.2426 18.2422C28.3566 18.3807 29.4816 18.4916 30.6067 18.4085Z" fill="#FFD734" stroke="#FFD734" stroke-width="0.00519573"/>
<path d="M13.1656 17.9602C14.1411 17.9602 15.1165 17.9435 16.0919 17.9103C16.5408 17.9269 17.0119 17.8438 17.422 18.0655C17.7767 18.2373 17.9873 18.6862 17.8543 19.0686C17.7767 19.3346 17.5051 19.4731 17.4054 19.7225C17.3389 19.8556 17.3555 20.0274 17.4497 20.1493C17.5827 20.3322 17.8099 20.4098 18.015 20.4763C18.3752 20.5927 18.7466 20.6924 19.1179 20.77C18.8906 21.2466 18.6357 21.7066 18.4029 22.1777C18.3475 22.1223 18.2976 22.0724 18.2422 22.017C18.2367 22.1999 18.2588 22.4049 18.1092 22.5435C17.7379 22.3273 17.5162 21.9449 17.2834 21.5958C17.2391 21.6789 17.1948 21.7676 17.1393 21.8396C17.0562 21.8396 16.9786 21.7953 16.9287 21.7288C16.7403 21.5071 16.6239 21.2411 16.4965 20.9861C16.4022 20.9751 16.2803 21.0305 16.2194 20.9307C16.0032 20.6702 15.9256 20.3266 15.8203 20.0107C15.7815 20.1049 15.7427 20.1936 15.7039 20.2878C15.4656 19.911 15.4102 19.4621 15.3049 19.0353C14.5345 18.8303 13.7199 18.5642 13.1656 17.9602Z" fill="#FFD734" stroke="#FFD734" stroke-width="0.00519573"/>
<path d="M22.5706 18.2257C22.7868 18.0484 23.075 17.9763 23.3521 17.9874C23.9063 17.9985 24.4605 17.9763 25.0147 18.0262C25.6631 18.0484 26.3116 18.0207 26.9544 18.0872C26.4002 18.6747 25.5966 18.9185 24.8374 19.118C24.7154 19.5392 24.6711 19.9937 24.4217 20.365C24.3774 20.2763 24.3386 20.1876 24.2998 20.099C24.2 20.4149 24.1113 20.7474 23.9007 21.0079C23.8342 21.0966 23.7179 21.0744 23.6236 21.0467C23.5017 21.2905 23.3853 21.5455 23.2135 21.7616C23.1526 21.8337 23.075 21.9223 22.9641 21.9002C22.9087 21.8226 22.8699 21.7394 22.8311 21.6563C22.5928 21.9944 22.3767 22.3712 22.0164 22.5874C21.9222 22.4488 21.8612 22.2936 21.8557 22.1274C21.7227 22.083 21.6894 21.95 21.6285 21.8447C21.4678 21.5011 21.2793 21.1686 21.1241 20.8194C21.6451 20.7363 22.1827 20.5922 22.5983 20.2542C22.7314 20.1489 22.8422 19.9493 22.7424 19.7831C22.6371 19.5392 22.36 19.4007 22.288 19.1346C22.1827 18.8132 22.2991 18.4363 22.5706 18.2257Z" fill="#FFD734" stroke="#FFD734" stroke-width="0.00519573"/>
<path d="M21.1241 19.2351C21.4511 19.0689 21.7836 18.9081 22.1106 18.7363C22.1106 18.8305 22.1106 18.9303 22.1162 19.0301C21.6784 19.2407 21.2461 19.4679 20.8138 19.6896C20.8969 19.5289 20.9468 19.3182 21.1241 19.2351Z" fill="white" stroke="white" stroke-width="0.00519573"/>
<path d="M13.8695 19.1233C14.2464 18.9903 14.6066 19.2175 14.9779 19.2618C15.0223 19.4337 15.061 19.6055 15.0943 19.7828C13.9526 20.3426 12.7056 20.6862 11.4365 20.7804C10.4833 20.8303 9.48568 20.8136 8.60449 20.398C8.14449 20.1818 7.71221 19.805 7.59583 19.2896C8.57678 19.6276 9.62424 19.6221 10.644 19.5888C11.7302 19.5057 12.8109 19.3616 13.8695 19.1233Z" fill="#FFD734" stroke="#FFD734" stroke-width="0.00519573"/>
<path d="M25.1477 19.3444C25.4193 19.3 25.6908 19.2391 25.9513 19.1504C27.1817 19.4995 28.4508 19.7323 29.731 19.8321C30.6178 19.8709 31.5211 19.8542 32.3746 19.5827C32.297 20.1036 31.837 20.4362 31.377 20.6135C30.3961 20.9959 29.3098 20.9682 28.279 20.8574C27.1484 20.7077 26.0455 20.3807 25.0313 19.8598C25.0756 19.688 25.1144 19.5162 25.1477 19.3444Z" fill="#FFD734" stroke="#FFD734" stroke-width="0.00519573"/>
<path d="M10.716 20.9407C12.2401 20.9351 13.7697 20.586 15.1331 19.9043C15.2051 20.0927 15.2994 20.2756 15.3991 20.4474C14.4292 21.0903 13.3208 21.4949 12.1791 21.7055C11.5861 21.7997 10.9377 21.833 10.378 21.5558C10.123 21.4395 9.98447 21.179 9.94568 20.9074C10.2006 20.9019 10.4611 20.9296 10.716 20.9407Z" fill="#FFD734" stroke="#FFD734" stroke-width="0.00519573"/>
<path d="M24.987 19.9941C26.2506 20.6204 27.6472 21.0028 29.0604 21.0582C29.4318 21.1081 29.8031 21.0416 30.1744 21.0305C30.1522 21.352 29.925 21.6291 29.6313 21.7399C29.0216 21.9727 28.351 21.9062 27.7303 21.7787C26.6662 21.5515 25.6354 21.1414 24.7265 20.5373C24.8318 20.3655 24.9094 20.177 24.987 19.9941Z" fill="#FFD734" stroke="#FFD734" stroke-width="0.00519573"/>
<path d="M18.6523 20.5042C18.9239 20.3546 19.2066 20.2271 19.4726 20.0664C19.4559 20.0886 19.4227 20.1274 19.4061 20.144C19.3396 20.3435 19.2343 20.5209 19.0347 20.604C18.9073 20.5707 18.7798 20.5375 18.6523 20.5042Z" fill="white" stroke="white" stroke-width="0.00519573"/>
<path d="M16.8068 25.6081C17.76 23.7737 18.68 21.9282 19.6333 20.0938C19.7497 20.3376 19.8827 20.5704 19.9935 20.8142C20.0268 20.8752 19.9769 20.9417 19.9547 20.9971C19.1068 22.6597 18.2533 24.3224 17.4054 25.9906C17.4774 26.2898 17.555 26.5891 17.6104 26.8884C17.5938 27.0491 17.4829 27.1821 17.4164 27.3262C16.9841 28.1797 16.5408 29.0276 16.1196 29.8867C15.9755 29.4322 15.8646 28.9722 15.715 28.5233C15.2716 28.6729 14.8338 28.8392 14.3904 28.9944C14.856 28.0633 15.3437 27.1433 15.8037 26.2122C15.8369 26.1513 15.8702 26.0903 15.9145 26.0404C16.1972 25.8686 16.5629 25.8298 16.8068 25.6081Z" fill="#FFD734" stroke="#FFD734" stroke-width="0.00519573"/>
<path d="M12.2567 21.8326C13.4039 21.6054 14.5234 21.1953 15.4988 20.5469C15.5709 20.5635 15.6374 20.5801 15.7094 20.5968C15.7538 20.8074 15.8314 21.0124 15.9311 21.2119C15.6208 21.4558 15.2993 21.6775 14.9557 21.8659C14.4126 22.1818 13.7753 22.276 13.1545 22.2649C12.8109 22.2649 12.4451 22.1375 12.2567 21.8326Z" fill="#FFD734" stroke="#FFD734" stroke-width="0.00519573"/>
<path d="M24.405 20.6915C24.4771 20.6693 24.5491 20.6472 24.6212 20.625C25.591 21.2901 26.7106 21.7002 27.8578 21.9496C27.6195 22.332 27.1373 22.3818 26.7327 22.3708C26.3559 22.3431 25.979 22.2932 25.6243 22.1768C25.0978 21.9606 24.6267 21.6337 24.1833 21.2845C24.2886 21.1016 24.3607 20.9021 24.405 20.6915Z" fill="#FFD734" stroke="#FFD734" stroke-width="0.00519573"/>
<path d="M20.0988 21.0234C20.2097 21.2507 20.3925 21.4613 20.3704 21.7273C20.3704 22.4478 20.3704 23.1682 20.3704 23.8887C20.3759 24.0882 20.3704 24.2933 20.4092 24.4928C20.5699 24.7145 20.8304 24.853 20.9745 25.0913C20.9855 26.2441 20.98 27.3913 21.0133 28.5385C20.6863 28.1949 20.3704 27.8347 20.0323 27.4966C19.7386 27.8181 19.4615 28.1506 19.1788 28.4831C19.14 27.3359 19.068 26.1942 19.0347 25.047C19.2453 24.8586 19.4559 24.6757 19.6665 24.4873C19.6776 23.6282 19.6554 22.7637 19.6721 21.9046C19.7829 21.5943 19.9658 21.3172 20.0988 21.0234Z" fill="#FFD734" stroke="#FFD734" stroke-width="0.00519573"/>
<path d="M14.5401 22.222C15.0611 21.9782 15.5543 21.6845 16.0088 21.3242C16.0974 21.3408 16.1861 21.3686 16.2748 21.4018C16.3468 21.557 16.4244 21.7066 16.5131 21.8563C16.1251 22.1334 15.6762 22.344 15.2052 22.4216C14.9613 22.4659 14.7174 22.3938 14.5401 22.222Z" fill="#FFD734" stroke="#FFD734" stroke-width="0.00519573"/>
<path d="M23.8342 21.4741C23.9229 21.4464 24.0115 21.4187 24.1002 21.3965C24.5547 21.7512 25.0368 22.0671 25.5633 22.3054C25.3971 22.4938 25.1366 22.5382 24.8983 22.5049C24.4217 22.4273 23.9838 22.2001 23.5959 21.923C23.6846 21.7789 23.7677 21.6348 23.8342 21.4741Z" fill="#FFD734" stroke="#FFD734" stroke-width="0.00519573"/>
<path d="M20.5311 21.8613C20.6807 22.1606 20.8359 22.4543 20.98 22.7536C20.8248 22.7869 20.6752 22.8201 20.52 22.8478C20.5311 22.5208 20.5256 22.1883 20.5311 21.8613Z" fill="#FFD734" stroke="#FFD734" stroke-width="0.00519573"/>
<path d="M16.6073 21.9551C16.8123 22.1269 17.0784 22.1768 17.3388 22.1435C17.3499 22.2266 17.4719 22.3319 17.3776 22.3984C17.0673 22.6534 16.7015 22.8418 16.308 22.9194C15.9977 22.9582 15.7316 22.7365 15.6208 22.4594C15.9755 22.3486 16.3025 22.1657 16.6073 21.9551Z" fill="#FFD734" stroke="#FFD734" stroke-width="0.00519573"/>
<path d="M22.7646 22.2158C23.0306 22.2601 23.2911 22.1881 23.5017 22.0273C23.8065 22.2379 24.1335 22.4208 24.4826 22.5372C24.3829 22.7589 24.2111 22.9584 23.9561 22.975C23.4684 23.0083 23.0528 22.6979 22.6703 22.4375C22.7036 22.3599 22.7313 22.2878 22.7646 22.2158Z" fill="#FFD734" stroke="#FFD734" stroke-width="0.00519573"/>
<path d="M19.2343 22.7414C19.3229 22.5364 19.4227 22.3369 19.5335 22.1484C19.5446 22.3646 19.5446 22.5807 19.5446 22.8024C19.4393 22.7802 19.3396 22.7581 19.2343 22.7414Z" fill="#FFD734" stroke="#FFD734" stroke-width="0.00519573"/>
<path d="M16.8013 22.931C17.0396 22.7925 17.2834 22.6484 17.5051 22.4766C17.6381 22.6207 17.7989 22.737 17.9817 22.8257C17.7989 23.0308 17.5883 23.2192 17.3167 23.3023C17.1116 23.2414 16.9121 23.1305 16.8013 22.931Z" fill="#FFD734" stroke="#FFD734" stroke-width="0.00519573"/>
<path d="M22.1439 22.8863C22.3046 22.7865 22.4542 22.6701 22.5928 22.5371C22.8145 22.7034 23.0528 22.853 23.2966 22.9916C23.1858 23.1966 22.9696 23.3518 22.7313 23.3407C22.4819 23.2742 22.299 23.0802 22.1439 22.8863Z" fill="#FFD734" stroke="#FFD734" stroke-width="0.00519573"/>
<path d="M18.7743 23.6399C18.8685 23.4348 18.9683 23.2408 19.068 23.0469C19.2287 23.0968 19.3839 23.1466 19.5446 23.1854C19.5391 23.3849 19.5446 23.59 19.5446 23.7895C19.2786 23.7951 19.0181 23.7341 18.7743 23.6399Z" fill="#FFD734" stroke="#FFD734" stroke-width="0.00519573"/>
<path d="M20.5311 23.2239C20.7362 23.1851 20.9412 23.1241 21.1297 23.041C21.2239 23.235 21.3403 23.4179 21.4179 23.6229C21.1518 23.7781 20.8415 23.8391 20.5311 23.828C20.5311 23.6285 20.5311 23.429 20.5311 23.2239Z" fill="#FFD734" stroke="#FFD734" stroke-width="0.00519573"/>
<path d="M17.882 23.125C17.9928 23.186 17.7545 23.3966 17.7157 23.2636C17.7379 23.1915 17.8099 23.1416 17.882 23.125Z" fill="#FFD734" stroke="#FFD734" stroke-width="0.00519573"/>
<path d="M28.7334 24.1328C29.9305 23.9 31.1498 23.7892 32.369 23.8114C32.0587 26.2166 31.1996 28.5222 30.0081 30.6282C29.4594 30.5284 28.8997 30.5506 28.3455 30.5727C28.6336 29.1041 28.8387 27.6077 28.8221 26.1058C28.8387 25.4463 28.7777 24.7923 28.7334 24.1328Z" fill="#0E5EA4" stroke="#0E5EA4" stroke-width="0.00519573"/>
<path d="M30.2963 30.6779C31.4823 28.5608 32.3414 26.2331 32.6517 23.8223C33.4886 23.85 34.3254 23.9497 35.1346 24.1603C34.6081 26.2275 33.6327 28.1784 32.3192 29.8632C31.9978 30.2622 31.6763 30.6668 31.305 31.0215C30.978 30.8774 30.6399 30.7721 30.2963 30.6779Z" fill="#0E5EA4" stroke="#0E5EA4" stroke-width="0.00519573"/>
<path d="M8.85941 25.791C8.87604 25.791 8.92037 25.791 8.94254 25.7966C9.13097 26.2344 9.43025 26.6168 9.70181 27.0103C10.971 28.7948 12.4507 30.4519 14.2297 31.7432C14.5733 31.9982 14.9336 32.2254 15.2883 32.4637C14.8283 33.1842 14.4403 33.9545 14.1798 34.7692C12.229 34.01 10.4445 32.8295 8.94809 31.3664C7.74545 30.1693 6.7257 28.7838 5.96643 27.2652C6.93076 26.7775 7.89508 26.2843 8.85941 25.791Z" fill="#0E5EA4" stroke="#0E5EA4" stroke-width="0.00519573"/>
<path d="M21.2239 26.8706C21.6672 26.588 22.1217 26.3331 22.5762 26.0781C22.5484 26.189 22.5207 26.3054 22.4986 26.4162C22.033 26.6711 21.5897 26.9427 21.1407 27.2253C21.1629 27.109 21.0964 26.9372 21.2239 26.8706Z" fill="white" stroke="white" stroke-width="0.00519573"/>
<path d="M17.749 29.9242C18.0095 29.6915 18.2422 29.4199 18.536 29.2148C18.6634 29.3035 18.7743 29.4088 18.8907 29.5141C20.3649 30.8498 22.0829 31.8917 23.9174 32.6454C23.3964 33.2329 22.8865 33.848 22.5651 34.5741C20.1709 34.2582 17.7933 33.5931 15.6929 32.3738C16.2693 31.476 16.9897 30.6724 17.749 29.9242Z" fill="#0E5EA4" stroke="#0E5EA4" stroke-width="0.00519573"/>
<path d="M28.2845 30.8678C29.2377 30.7791 30.2242 30.8511 31.1054 31.2502C28.7888 33.5668 25.7407 35.1574 22.4985 35.6728C22.6537 34.7916 23.1414 34.0101 23.7012 33.3285C24.3551 32.547 25.1643 31.8764 26.1065 31.4719C26.8048 31.1726 27.5363 30.962 28.2845 30.8678Z" fill="#0E5EA4" stroke="#0E5EA4" stroke-width="0.00519573"/>
<path d="M14.4403 34.8738C14.6897 34.0647 15.0776 33.311 15.5321 32.6016C17.6436 33.8319 20.0323 34.5136 22.4431 34.8461C22.3378 35.1288 22.2602 35.4225 22.2103 35.7218C19.6056 36.0986 16.9065 35.8049 14.4403 34.8738Z" fill="#0E5EA4" stroke="#0E5EA4" stroke-width="0.00519573"/>
</svg>
