<svg width="40" height="40" viewBox="0 0 40 40" fill="none" xmlns="http://www.w3.org/2000/svg">
<g clip-path="url(#clip0_51_1664)">
<path d="M24.8812 20.501H30.9999C27.7687 18.851 25.1562 16.2385 23.5062 13.0072C20.8937 7.71348 15.7374 4.61973 8.99994 4.00098L9.13744 4.48223C13.7437 6.33848 16.9749 9.29473 18.8312 13.4885C20.2062 16.3072 22.2687 18.7822 24.8812 20.501Z" fill="#88A8D8"/>
<path d="M24.8812 20.501H30.9999C27.7687 22.151 25.1562 24.7635 23.5062 27.9947C20.8937 33.3572 15.7374 36.3822 8.99994 37.001L9.13744 36.5197C13.7437 34.6635 16.9749 31.7072 18.8312 27.5135C20.2062 24.6947 22.2687 22.2197 24.8812 20.501Z" fill="#1C4093"/>
<path d="M8.99994 9.36426C10.0999 13.4893 11.6124 16.858 12.9187 18.508C13.6062 19.4018 14.4999 20.0893 15.4624 20.5018H20.2749C18.0062 19.4705 16.2187 17.683 15.1874 15.4143C14.0187 12.6643 11.7499 10.533 8.99994 9.36426Z" fill="#88A8D8"/>
<path d="M8.99994 31.6385C10.0999 27.5135 11.6124 24.1447 12.9187 22.4947C13.6062 21.601 14.4999 20.9135 15.4624 20.501H20.2749C18.0062 21.5322 16.2187 23.3197 15.1874 25.5885C14.0187 28.3385 11.7499 30.5385 8.99994 31.6385Z" fill="#1C4093"/>
</g>
<defs>
<clipPath id="clip0_51_1664">
<rect width="22" height="33" fill="white" transform="translate(9 4)"/>
</clipPath>
</defs>
</svg>
