<?xml version="1.0" encoding="UTF-8"?>
<svg version="1.1" xmlns="http://www.w3.org/2000/svg" width="256" height="256">
<path d="M0 0 C1.32 0 2.64 0 4 0 C4 0.66 4 1.32 4 2 C11.64092032 1.89247906 19.28175064 1.77984163 26.92249775 1.66066074 C30.47035451 1.60548208 34.01821959 1.55207023 37.56616211 1.50268555 C41.64445958 1.44584148 45.72260438 1.38133199 49.80078125 1.31640625 C51.07585037 1.29969376 52.35091949 1.28298126 53.66462708 1.26576233 C54.84562485 1.24581711 56.02662262 1.22587189 57.2434082 1.20532227 C58.28487503 1.18977798 59.32634186 1.1742337 60.39936829 1.15821838 C63.11411733 1.10531325 63.11411733 1.10531325 66 0 C66 0.66 66 1.32 66 2 C66.66 1.34 67.32 0.68 68 0 C71.0390625 -0.1953125 71.0390625 -0.1953125 74.625 -0.125 C76.40777344 -0.09792969 76.40777344 -0.09792969 78.2265625 -0.0703125 C79.14179687 -0.04710937 80.05703125 -0.02390625 81 0 C81 0.66 81 1.32 81 2 C81.56230316 1.98747192 82.12460632 1.97494385 82.70394897 1.96203613 C90.26073103 1.79571885 97.81776891 1.64440646 105.375 1.5 C106.63032532 1.47599121 107.88565063 1.45198242 109.17901611 1.42724609 C125.84907278 1.11902185 142.5144796 0.95794533 159.1875 0.96875 C160.45055403 0.96951286 160.45055403 0.96951286 161.7391243 0.97029114 C170.10674503 0.97686777 178.47428085 0.99500331 186.84183884 1.02805328 C189.97522197 1.03973479 193.10860902 1.04783435 196.24200439 1.05543518 C198.41007109 1.06233805 200.5780553 1.07494355 202.74609375 1.08776855 C204.69008057 1.09266296 204.69008057 1.09266296 206.67333984 1.09765625 C207.80411957 1.10289307 208.93489929 1.10812988 210.09994507 1.11352539 C212.60996593 1.01526825 214.600833 0.66210791 217 0 C218.99961564 -0.03920815 221.00049364 -0.04443347 223 0 C223.33 0 223.66 0 224 0 C224.68449219 0.15339844 225.36898437 0.30679688 226.07421875 0.46484375 C229.64194838 1.11741913 233.19825785 1.3515251 236.8125 1.5625 C237.85180664 1.62727539 237.85180664 1.62727539 238.91210938 1.69335938 C240.60788686 1.79861453 242.30392052 1.89972863 244 2 C245.01268803 40.65712041 245.15752998 79.29558986 245.12856841 117.96270287 C245.12480574 123.57255347 245.12615354 129.18238638 245.13037109 134.79223633 C245.15956142 174.54519506 244.85475807 214.25374983 244 254 C224.2 254 204.4 254 184 254 C184 254.66 184 255.32 184 256 C183.01 256 182.02 256 181 256 C181 255.34 181 254.68 181 254 C178.69 254 176.38 254 174 254 C174 254.66 174 255.32 174 256 C173.01 256 172.02 256 171 256 C171 255.34 171 254.68 171 254 C162.72443579 254.10757792 154.44896274 254.22022676 146.17355728 254.33933926 C142.33090281 254.39448957 138.48824062 254.4478968 134.64550781 254.49731445 C130.93665809 254.5450746 127.22789881 254.59742136 123.51915741 254.65294075 C122.1046143 254.67331159 120.69004644 254.69203325 119.27545929 254.70907402 C117.29328191 254.73323472 115.31118596 254.76381723 113.32910156 254.79467773 C112.20103088 254.81022202 111.07296021 254.8257663 109.91070557 254.84178162 C107.42573424 254.97685819 105.37800527 255.33013434 103 256 C100 256 97 256 94 256 C94 255.67 94 255.34 94 255 C71.89 255 49.78 255 27 255 C27 255.33 27 255.66 27 256 C25.35 256 23.7 256 22 256 C22 255.34 22 254.68 22 254 C11.44 254 0.88 254 -10 254 C-10.84726233 234.40821542 -11.15103764 214.87472126 -11.1343255 195.26856399 C-11.13225243 192.04784995 -11.13352883 188.82714027 -11.13475883 185.60642606 C-11.13768941 177.93268099 -11.13576037 170.25894854 -11.13037109 162.58520508 C-11.12560973 155.73038007 -11.12548438 148.87557688 -11.13037109 142.02075195 C-11.16287294 95.33831798 -10.81814046 48.67551663 -10 2 C-6.7 1.67 -3.4 1.34 0 1 C0 0.67 0 0.34 0 0 Z " fill="#D4232D" transform="translate(11,0)"/>
<path d="M0 0 C1.09272217 0.0165564 1.09272217 0.0165564 2.20751953 0.03344727 C2.84028809 0.04303467 3.47305664 0.05262207 4.125 0.0625 C5.25957826 8.47382772 5.17176983 16.78848912 5.00390625 25.2578125 C4.97954915 26.7008277 4.95570861 28.14385171 4.93235779 29.58688354 C4.87007193 33.35158457 4.80085383 37.1161261 4.73010254 40.88067627 C4.64635515 45.41539332 4.57137564 49.9502631 4.49489594 54.48510742 C4.37824847 61.34437715 4.25058985 68.20336196 4.125 75.0625 C-15.675 75.0625 -35.475 75.0625 -55.875 75.0625 C-55.875 75.7225 -55.875 76.3825 -55.875 77.0625 C-56.865 77.0625 -57.855 77.0625 -58.875 77.0625 C-58.875 76.4025 -58.875 75.7425 -58.875 75.0625 C-61.185 75.0625 -63.495 75.0625 -65.875 75.0625 C-65.875 75.7225 -65.875 76.3825 -65.875 77.0625 C-66.865 77.0625 -67.855 77.0625 -68.875 77.0625 C-68.875 76.4025 -68.875 75.7425 -68.875 75.0625 C-77.15056421 75.17007792 -85.42603726 75.28272676 -93.70144272 75.40183926 C-97.54409719 75.45698957 -101.38675938 75.5103968 -105.22949219 75.55981445 C-108.93834191 75.6075746 -112.64710119 75.65992136 -116.35584259 75.71544075 C-117.7703857 75.73581159 -119.18495356 75.75453325 -120.59954071 75.77157402 C-122.58171809 75.79573472 -124.56381404 75.82631723 -126.54589844 75.85717773 C-128.23800446 75.88049416 -128.23800446 75.88049416 -129.96429443 75.90428162 C-132.79976715 75.95244376 -132.79976715 75.95244376 -135.14556885 76.70033264 C-136.00163727 76.87960548 -136.00163727 76.87960548 -136.875 77.0625 C-137.535 76.4025 -138.195 75.7425 -138.875 75.0625 C-141.59115864 74.69042646 -141.59115864 74.69042646 -144.7578125 74.6484375 C-146.50771484 74.59042969 -146.50771484 74.59042969 -148.29296875 74.53125 C-149.51628906 74.5003125 -150.73960937 74.469375 -152 74.4375 C-153.84658203 74.37949219 -153.84658203 74.37949219 -155.73046875 74.3203125 C-158.77849376 74.2258001 -161.82650862 74.14024506 -164.875 74.0625 C-164.875 73.7325 -164.875 73.4025 -164.875 73.0625 C-164.30168945 72.93721924 -163.72837891 72.81193848 -163.13769531 72.68286133 C-148.20700109 69.39903298 -148.20700109 69.39903298 -133.95703125 63.98046875 C-131.875 63.0625 -131.875 63.0625 -129.875 63.0625 C-129.545 62.0725 -129.215 61.0825 -128.875 60.0625 C-128.215 60.0625 -127.555 60.0625 -126.875 60.0625 C-126.875 59.4025 -126.875 58.7425 -126.875 58.0625 C-126.215 58.0625 -125.555 58.0625 -124.875 58.0625 C-124.875 57.4025 -124.875 56.7425 -124.875 56.0625 C-121.905 56.5575 -121.905 56.5575 -118.875 57.0625 C-118.875 55.0825 -118.875 53.1025 -118.875 51.0625 C-118.545 51.0625 -118.215 51.0625 -117.875 51.0625 C-117.875 52.7125 -117.875 54.3625 -117.875 56.0625 C-114.905 55.0725 -111.935 54.0825 -108.875 53.0625 C-109.6175 52.2271875 -109.6175 52.2271875 -110.375 51.375 C-112.16115881 48.6213385 -112.3707593 47.28493543 -111.875 44.0625 C-110.625 42.25 -110.625 42.25 -108.875 41.0625 C-107.555 41.0625 -106.235 41.0625 -104.875 41.0625 C-104.875 41.7225 -104.875 42.3825 -104.875 43.0625 C-106.855 43.5575 -106.855 43.5575 -108.875 44.0625 C-108.875 45.7125 -108.875 47.3625 -108.875 49.0625 C-105.77453913 50.09598696 -104.81889782 50.24005913 -101.875 49.0625 C-101.545 48.0725 -101.215 47.0825 -100.875 46.0625 C-99.55031611 45.69630133 -98.21383781 45.37298706 -96.875 45.0625 C-94.5012839 43.8378254 -92.18915855 42.5786201 -89.875 41.25 C-89.17785889 40.85401611 -88.48071777 40.45803223 -87.76245117 40.05004883 C-82.18885461 36.86382274 -76.68443261 33.56621064 -71.1875 30.25 C-20.4872264 -0.31041252 -20.4872264 -0.31041252 0 0 Z " fill="#CDB71C" transform="translate(250.875,178.9375)"/>
<path d="M0 0 C0.94875 0.70125 1.8975 1.4025 2.875 2.125 C4.94606231 3.95240792 6.52335387 5.66845348 8 8 C8 8.66 8 9.32 8 10 C-11.47 10.33 -30.94 10.66 -51 11 C-51 11.66 -51 12.32 -51 13 C-51.99 13 -52.98 13 -54 13 C-54 12.34 -54 11.68 -54 11 C-56.31 11 -58.62 11 -61 11 C-61 11.66 -61 12.32 -61 13 C-61.99 13 -62.98 13 -64 13 C-64 12.34 -64 11.68 -64 11 C-72.27556421 11.10757792 -80.55103726 11.22022676 -88.82644272 11.33933926 C-92.66909719 11.39448957 -96.51175938 11.4478968 -100.35449219 11.49731445 C-104.06334191 11.5450746 -107.77210119 11.59742136 -111.48084259 11.65294075 C-112.8953857 11.67331159 -114.30995356 11.69203325 -115.72454071 11.70907402 C-117.70671809 11.73323472 -119.68881404 11.76381723 -121.67089844 11.79467773 C-123.36300446 11.81799416 -123.36300446 11.81799416 -125.08929443 11.84178162 C-127.92476715 11.88994376 -127.92476715 11.88994376 -130.27056885 12.63783264 C-130.84128113 12.75734787 -131.41199341 12.8768631 -132 13 C-132.66 12.34 -133.32 11.68 -134 11 C-136.71615864 10.62792646 -136.71615864 10.62792646 -139.8828125 10.5859375 C-141.04941406 10.54726562 -142.21601563 10.50859375 -143.41796875 10.46875 C-144.64128906 10.4378125 -145.86460937 10.406875 -147.125 10.375 C-148.35605469 10.33632812 -149.58710938 10.29765625 -150.85546875 10.2578125 C-153.90349376 10.1633001 -156.95150862 10.07774506 -160 10 C-160 9.67 -160 9.34 -160 9 C-158.12634766 8.61521484 -158.12634766 8.61521484 -156.21484375 8.22265625 C-146.24989817 6.06870164 -136.87396849 3.38055929 -127.4375 -0.5 C-111.43248506 -7.0432267 -95.07602594 -10.55754937 -78 -13 C-76.17855469 -13.2784375 -76.17855469 -13.2784375 -74.3203125 -13.5625 C-50.51699072 -16.43611705 -19.72813799 -15.4822996 0 0 Z " fill="#FDFBFA" transform="translate(246,243)"/>
<path d="M0 0 C1.17175781 0.01353516 1.17175781 0.01353516 2.3671875 0.02734375 C2.94726562 0.03894531 3.52734375 0.05054688 4.125 0.0625 C5.37672104 10.56801584 5.24450469 20.54715237 4.125 31.0625 C3.0525 30.876875 1.98 30.69125 0.875 30.5 C-2.60582581 29.87007141 -2.60582581 29.87007141 -4.875 30.5625 C-7.96943951 31.33610988 -10.77271426 30.59943407 -13.875 30.0625 C-13.875 28.7425 -13.875 27.4225 -13.875 26.0625 C-15.855 27.0525 -15.855 27.0525 -17.875 28.0625 C-17.05 29.01125 -16.225 29.96 -15.375 30.9375 C-12.875 33.8125 -12.875 33.8125 -12.875 36.0625 C-13.535 36.0625 -14.195 36.0625 -14.875 36.0625 C-15.638125 35.093125 -16.40125 34.12375 -17.1875 33.125 C-19.08872436 30.72017752 -19.64317935 30.13462198 -22.6875 29.1875 C-23.409375 29.14625 -24.13125 29.105 -24.875 29.0625 C-25.205 29.7225 -25.535 30.3825 -25.875 31.0625 C-27.855 30.4025 -29.835 29.7425 -31.875 29.0625 C-32.205 29.7225 -32.535 30.3825 -32.875 31.0625 C-32.875 30.4025 -32.875 29.7425 -32.875 29.0625 C-37.825 29.0625 -42.775 29.0625 -47.875 29.0625 C-48.205 29.7225 -48.535 30.3825 -48.875 31.0625 C-48.875 30.4025 -48.875 29.7425 -48.875 29.0625 C-49.535 29.0625 -50.195 29.0625 -50.875 29.0625 C-51.205 29.7225 -51.535 30.3825 -51.875 31.0625 C-51.875 30.4025 -51.875 29.7425 -51.875 29.0625 C-52.49375 29.248125 -53.1125 29.43375 -53.75 29.625 C-55.875 30.0625 -55.875 30.0625 -57.875 29.0625 C-58.205 29.7225 -58.535 30.3825 -58.875 31.0625 C-58.875 30.4025 -58.875 29.7425 -58.875 29.0625 C-61.845 29.0625 -64.815 29.0625 -67.875 29.0625 C-63.06742234 24.8223403 -57.56280284 21.86943379 -52 18.75 C-50.97076416 18.17258057 -49.94152832 17.59516113 -48.88110352 17.00024414 C-33.92126084 8.68141482 -17.62968152 -0.26711639 0 0 Z " fill="#ABB02F" transform="translate(250.875,178.9375)"/>
<path d="M0 0 C0.77730469 0.08121094 1.55460937 0.16242188 2.35546875 0.24609375 C3.14566406 0.30925781 3.93585938 0.37242188 4.75 0.4375 C5.34167969 0.51871094 5.93335938 0.59992188 6.54296875 0.68359375 C7.60675544 5.00131619 7.67239035 9.19101631 7.640625 13.609375 C7.63921005 14.35696579 7.6377951 15.10455658 7.63633728 15.87480164 C7.63076639 18.2486074 7.61821935 20.62231678 7.60546875 22.99609375 C7.60044998 24.61132676 7.59588774 26.22656125 7.59179688 27.84179688 C7.5808065 31.7890993 7.56356207 35.73633022 7.54296875 39.68359375 C4.90296875 39.68359375 2.26296875 39.68359375 -0.45703125 39.68359375 C-0.45703125 37.04359375 -0.45703125 34.40359375 -0.45703125 31.68359375 C-4.74703125 31.68359375 -9.03703125 31.68359375 -13.45703125 31.68359375 C-14.44703125 34.15859375 -14.44703125 34.15859375 -15.45703125 36.68359375 C-16.11703125 38.00359375 -16.77703125 39.32359375 -17.45703125 40.68359375 C-20.42703125 40.68359375 -23.39703125 40.68359375 -26.45703125 40.68359375 C-24.96455379 36.58985979 -22.97970901 33.03672389 -20.71875 29.31640625 C-20.3561055 28.71859344 -19.993461 28.12078064 -19.61982727 27.50485229 C-18.85425092 26.24480077 -18.08681476 24.98587754 -17.31762695 23.72802734 C-16.15409203 21.82423721 -14.99751286 19.9163569 -13.84179688 18.0078125 C-11.74142083 14.54855453 -9.60595507 11.11291019 -7.45703125 7.68359375 C-6.96581787 6.88268311 -6.47460449 6.08177246 -5.96850586 5.2565918 C-3.11461504 0.86654632 -3.11461504 0.86654632 0 0 Z " fill="#FEF7F7" transform="translate(121.45703125,114.31640625)"/>
<path d="M0 0 C4.35522853 0.50642192 7.44239635 1.38411497 11 4 C11 4.66 11 5.32 11 6 C9.02 6 7.04 6 5 6 C5 8.31 5 10.62 5 13 C5.77714355 12.98952637 6.55428711 12.97905273 7.35498047 12.96826172 C10.861621 12.92679718 14.36821006 12.90070422 17.875 12.875 C19.09832031 12.85824219 20.32164062 12.84148437 21.58203125 12.82421875 C22.74863281 12.81777344 23.91523438 12.81132812 25.1171875 12.8046875 C26.19597168 12.79421387 27.27475586 12.78374023 28.38623047 12.77294922 C31 13 31 13 33 15 C33 22.92 33 30.84 33 39 C14.19 39 -4.62 39 -24 39 C-24 38.67 -24 38.34 -24 38 C-5.52 38 12.96 38 32 38 C21.66270656 23.52778919 7.07615254 18.91496029 -10 16 C-28.40924093 13.11541818 -47.79945866 14.32137207 -66 18 C-67.17876709 18.23275635 -67.17876709 18.23275635 -68.38134766 18.47021484 C-77.20852765 20.24070423 -85.83158386 22.38982887 -94.3984375 25.16796875 C-96.58874143 25.86847136 -98.76239389 26.47506397 -101 27 C-100.505 25.515 -100.505 25.515 -100 24 C-99.34 24 -98.68 24 -98 24 C-98 23.34 -98 22.68 -98 22 C-97.34 22 -96.68 22 -96 22 C-96 21.34 -96 20.68 -96 20 C-94.02 20.33 -92.04 20.66 -90 21 C-90 19.02 -90 17.04 -90 15 C-89.67 15 -89.34 15 -89 15 C-89 16.65 -89 18.3 -89 20 C-86.03 19.01 -83.06 18.02 -80 17 C-80.7425 16.1646875 -80.7425 16.1646875 -81.5 15.3125 C-83.28615881 12.5588385 -83.4957593 11.22243543 -83 8 C-81.75 6.1875 -81.75 6.1875 -80 5 C-78.68 5 -77.36 5 -76 5 C-76 5.66 -76 6.32 -76 7 C-77.32 7.33 -78.64 7.66 -80 8 C-80 9.65 -80 11.3 -80 13 C-76.89953913 14.03348696 -75.94389782 14.17755913 -73 13 C-72.67 12.01 -72.34 11.02 -72 10 C-71.67 10.66 -71.34 11.32 -71 12 C-71.99 13.32 -72.98 14.64 -74 16 C-71.1038504 15.6902353 -68.20810424 15.37728812 -65.3125 15.0625 C-64.49587891 14.97548828 -63.67925781 14.88847656 -62.83789062 14.79882812 C-62.04189453 14.71181641 -61.24589844 14.62480469 -60.42578125 14.53515625 C-59.69786377 14.456604 -58.96994629 14.37805176 -58.2199707 14.29711914 C-55.9752899 14.0289844 -55.9752899 14.0289844 -53.70080566 13.48852539 C-50.92393357 12.986241 -48.38711903 12.87974435 -45.56713867 12.88647461 C-44.50641647 12.88655014 -43.44569427 12.88662567 -42.35282898 12.88670349 C-40.65257317 12.89444542 -40.65257317 12.89444542 -38.91796875 12.90234375 C-37.74865311 12.9037587 -36.57933746 12.90517365 -35.37458801 12.90663147 C-31.64553249 12.91222207 -27.91653733 12.92477291 -24.1875 12.9375 C-21.65690191 12.94251621 -19.12630288 12.94707891 -16.59570312 12.95117188 C-10.39711487 12.96218843 -4.19856175 12.97891727 2 13 C1.76228882 11.83174683 1.76228882 11.83174683 1.51977539 10.63989258 C0.82416859 7.10696805 0.42418051 3.57523572 0 0 Z " fill="#E4C41D" transform="translate(222,215)"/>
<path d="M0 0 C2.97 0 5.94 0 9 0 C9.66 7.59 10.32 15.18 11 23 C11.71027344 21.42347656 12.42054687 19.84695312 13.15234375 18.22265625 C14.08061069 16.16921727 15.00900254 14.11583476 15.9375 12.0625 C16.40607422 11.02158203 16.87464844 9.98066406 17.35742188 8.90820312 C18.0293457 7.42416992 18.0293457 7.42416992 18.71484375 5.91015625 C19.33540649 4.53549194 19.33540649 4.53549194 19.96850586 3.13305664 C21 1 21 1 22 0 C23.51928038 -0.07179964 25.04167482 -0.08392007 26.5625 -0.0625 C27.38878906 -0.05347656 28.21507813 -0.04445313 29.06640625 -0.03515625 C29.70449219 -0.02355469 30.34257813 -0.01195313 31 0 C29.52022383 4.92142753 27.45710331 9.27352102 25.0859375 13.8046875 C24.71143463 14.5286673 24.33693176 15.25264709 23.95108032 15.99856567 C22.76311189 18.2928419 21.56916198 20.58394246 20.375 22.875 C19.56470597 24.43729353 18.75480597 25.99979151 17.9453125 27.5625 C15.96809315 31.37738061 13.98550614 35.18942626 12 39 C9.03 39 6.06 39 3 39 C2.4900363 34.56358709 1.99387823 30.12573006 1.5 25.6875 C1.35691406 24.44419922 1.21382812 23.20089844 1.06640625 21.91992188 C0.25687727 14.57633755 -0.20614601 7.38785311 0 0 Z " fill="#FDF5F5" transform="translate(24,72)"/>
<path d="M0 0 C2.91927604 1.3961755 4.72202996 2.72202996 7 5 C7.23046875 7.2421875 7.23046875 7.2421875 7.1875 9.875 C7.18105469 10.73867187 7.17460937 11.60234375 7.16796875 12.4921875 C7 15 7 15 6 19 C0.06 19 -5.88 19 -12 19 C-10.66436384 23.94463635 -10.66436384 23.94463635 -8 25 C-4.16063232 25.1421988 -0.67983361 25.17754676 3 24 C3 25.98 3 27.96 3 30 C-1.5683532 32.35785972 -5.97106679 32.42484112 -11 32 C-11.66 31.67 -12.32 31.34 -13 31 C-13.33 31.66 -13.66 32.32 -14 33 C-16.31 30.69 -18.62 28.38 -21 26 C-20.67 25.34 -20.34 24.68 -20 24 C-19.87064845 22.10571837 -19.77080021 20.20936473 -19.6875 18.3125 C-19.14554467 11.35045847 -17.665436 7.41158495 -12.375 2.625 C-8.28570192 -0.17294079 -4.89369599 -0.54478765 0 0 Z " fill="#FDF4F4" transform="translate(145,71)"/>
<path d="M0 0 C3.25 2 3.25 2 5 5 C5.9272084 10.05379526 4.92921404 13.17696491 3 18 C-2.61 18 -8.22 18 -14 18 C-13.67 19.65 -13.34 21.3 -13 23 C-10.35541621 24.32229189 -8.32238699 24.09677194 -5.375 24.0625 C-4.37210938 24.05347656 -3.36921875 24.04445313 -2.3359375 24.03515625 C-1.17964844 24.01775391 -1.17964844 24.01775391 0 24 C0.33 25.65 0.66 27.3 1 29 C-4.03813231 31.06692607 -8.62336955 31.64599072 -14 31 C-17.76449241 29.36326417 -19.84689512 27.46421343 -22 24 C-22.99159949 18.21566962 -22.86061372 12.61544637 -19.8125 7.5 C-18.91131542 6.30505912 -17.97626297 5.13442848 -17 4 C-16.319375 3.175 -15.63875 2.35 -14.9375 1.5 C-10.11402281 -0.96305218 -5.2886259 -0.82543471 0 0 Z " fill="#FDF2F2" transform="translate(88,72)"/>
<path d="M0 0 C3.08191461 0.77047865 5.1347181 1.45582801 7.87890625 2.85546875 C24.42259528 11.10767366 40.70949217 16.33019476 59 19 C59 19.33 59 19.66 59 20 C51.08 20.33 43.16 20.66 35 21 C35.495 21.99 35.495 21.99 36 23 C34.35 23 32.7 23 31 23 C31 22.01 31 21.02 31 20 C20.77 20 10.54 20 0 20 C0 13.4 0 6.8 0 0 Z " fill="#FEFCFC" transform="translate(2,233)"/>
<path d="M0 0 C3.68127181 0.58900349 7.14098298 0.43618522 10.85546875 0.2421875 C13.125 0.5 13.125 0.5 14.9375 1.65234375 C17.78137423 6.07718753 15.60096331 13.166359 14.6015625 18.06640625 C14.15172264 19.88858366 13.64519787 21.6966474 13.125 23.5 C11.145 23.5 9.165 23.5 7.125 23.5 C7.269375 22.54738281 7.41375 21.59476563 7.5625 20.61328125 C7.748125 19.35902344 7.93375 18.10476562 8.125 16.8125 C8.310625 15.57113281 8.49625 14.32976562 8.6875 13.05078125 C9.04600411 10.14113629 9.21442256 7.42299978 9.125 4.5 C7.475 4.83 5.825 5.16 4.125 5.5 C2.805 11.44 1.485 17.38 0.125 23.5 C-1.855 23.5 -3.835 23.5 -5.875 23.5 C-5.6584375 21.581875 -5.6584375 21.581875 -5.4375 19.625 C-4.87685355 14.58719116 -4.36998469 9.54463121 -3.875 4.5 C-5.195 4.5 -6.515 4.5 -7.875 4.5 C-8.52122041 6.91656376 -9.16699004 9.33324646 -9.8125 11.75 C-9.99490234 12.43191406 -10.17730469 13.11382812 -10.36523438 13.81640625 C-11.22553121 17.03860894 -12.08183134 20.26053223 -12.875 23.5 C-15.185 23.5 -17.495 23.5 -19.875 23.5 C-19.34775291 20.05612399 -18.77224586 16.62204178 -18.1875 13.1875 C-18.03861328 12.21103516 -17.88972656 11.23457031 -17.73632812 10.22851562 C-16.4764372 3.03972621 -16.4764372 3.03972621 -13.4765625 0.34765625 C-8.92622896 -1.13495993 -4.63058209 -0.80531862 0 0 Z " fill="#FDF1F2" transform="translate(225.875,122.5)"/>
<path d="M0 0 C2.64 0 5.28 0 8 0 C7.09706966 8.12637309 5.36716661 15.96554369 3.48779297 23.91503906 C3.07824352 25.66556575 2.69427665 27.42205033 2.31640625 29.1796875 C0.81606192 35.31152954 -1.70613749 38.543044 -7 42 C-10.70521741 43.8526087 -14.95582068 43.45783162 -19 43 C-22.49642065 41.07340087 -23.68231206 40.07525149 -24.8125 36.25 C-24.874375 35.5075 -24.93625 34.765 -25 34 C-24.319375 34.33 -23.63875 34.66 -22.9375 35 C-19.35503176 36.21956366 -16.76554318 36.40345105 -13 36 C-10.05244589 34.52622294 -8.54737197 33.20010662 -7.16796875 30.17578125 C-4.50249641 22.00831788 -3.11531844 13.34182089 -1.43310547 4.92602539 C-1 3 -1 3 0 0 Z " fill="#FDF6F6" transform="translate(117,72)"/>
<path d="M0 0 C1.71484375 1.1640625 1.71484375 1.1640625 3 3 C3.88233873 8.50865532 3.70498002 13.51170884 1.3125 18.5625 C-1.94825546 21.99951251 -4.28964128 23.71494021 -9 24.5 C-12 24 -12 24 -14.875 22.0625 C-17.36712995 18.47090095 -17.67755181 16.48642197 -17.421875 12.2109375 C-16.54878404 7.63529414 -13.85653269 4.90411784 -10.75 1.625 C-6.8245545 -0.69458143 -4.52519552 -0.51090917 0 0 Z " fill="#FDF5F5" transform="translate(203,122)"/>
<path d="M0 0 C0.91377136 4.66023391 1.40616073 7.78921872 -1 12 C-1.99 12.66 -2.98 13.32 -4 14 C-4.66 13.34 -5.32 12.68 -6 12 C-5.34 11.01 -4.68 10.02 -4 9 C-4.65355469 9.82886719 -5.30710938 10.65773437 -5.98046875 11.51171875 C-9.32844767 14.27066127 -10.87500495 14.45287486 -15.12695312 14.08398438 C-15.84818359 13.99439453 -16.56941406 13.90480469 -17.3125 13.8125 C-18.42334961 13.70711914 -18.42334961 13.70711914 -19.55664062 13.59960938 C-21.3735806 13.42377647 -23.18729394 13.21513903 -25 13 C-25.33 13.66 -25.66 14.32 -26 15 C-26 14.34 -26 13.68 -26 13 C-31.28 13 -36.56 13 -42 13 C-42 12.34 -42 11.68 -42 11 C-33.15788512 6.95059983 -24.55206983 3.07293182 -15 1 C-13.453125 0.6596875 -13.453125 0.6596875 -11.875 0.3125 C-7.91083395 -0.11838761 -3.9830299 -0.0796606 0 0 Z " fill="#9CAB3B" transform="translate(255,179)"/>
<path d="M0 0 C3.625 -0.1875 3.625 -0.1875 7 0 C6.67 2.31 6.34 4.62 6 7 C7.32 7 8.64 7 10 7 C10 8.65 10 10.3 10 12 C8.35 12.33 6.7 12.66 5 13 C4.01 19.27 3.02 25.54 2 32 C3.32 32 4.64 32 6 32 C4.63016497 35.16115776 4.0109362 35.9927092 1 38 C-2.625 37.75 -2.625 37.75 -6 37 C-9.31073149 30.37853703 -6.17318686 20.92658498 -4.625 14.125 C-4.40328125 13.09375 -4.1815625 12.0625 -3.953125 11 C-2.26632828 3.39949242 -2.26632828 3.39949242 0 0 Z " fill="#FDF6F6" transform="translate(162,65)"/>
<path d="M0 0 C3.625 -0.1875 3.625 -0.1875 7 0 C6.67 2.31 6.34 4.62 6 7 C7.32 7 8.64 7 10 7 C10 8.65 10 10.3 10 12 C8.35 12.33 6.7 12.66 5 13 C3.46667709 19.33773468 2.51553879 25.50149789 2 32 C3.32 32 4.64 32 6 32 C4.63016497 35.16115776 4.0109362 35.9927092 1 38 C-1.76059793 38.34507474 -3.36202878 38.35198412 -5.8125 37 C-9.46176024 30.85387749 -6.02302755 21.17104914 -4.625 14.6875 C-4.29242188 13.06231445 -4.29242188 13.06231445 -3.953125 11.40429688 C-2.25943329 3.38914994 -2.25943329 3.38914994 0 0 Z " fill="#FDF6F6" transform="translate(102,65)"/>
<path d="M0 0 C2.625 0.375 2.625 0.375 5 1 C4.58955515 7.57791873 4.13391403 13.74051886 2 20 C2.99 20.33 3.98 20.66 5 21 C3.875 22.5 3.875 22.5 2 24 C-1.1875 24.1875 -1.1875 24.1875 -4 24 C-3.87625 24.86625 -3.7525 25.7325 -3.625 26.625 C-4.08963733 30.80673598 -5.42759643 32.10507822 -8.296875 34.99609375 C-10 36 -10 36 -12.03125 35.8203125 C-15.02505909 34.57289205 -16.8285711 32.3523813 -19 30 C-17.71480435 27.13302508 -16.42870746 25.02392288 -14 23 C-13.34 23 -12.68 23 -12 23 C-12 22.34 -12 21.68 -12 21 C-10.35 21 -8.7 21 -7 21 C-4.97226969 15.40346435 -3.49318346 9.94423079 -2.52734375 4.06640625 C-2 2 -2 2 0 0 Z " fill="#E73238" transform="translate(231,126)"/>
<path d="M0 0 C0.88300781 0.02707031 1.76601562 0.05414063 2.67578125 0.08203125 C3.67158203 0.13423828 3.67158203 0.13423828 4.6875 0.1875 C4.6875 1.8375 4.6875 3.4875 4.6875 5.1875 C2.3775 5.8475 0.0675 6.5075 -2.3125 7.1875 C-3.9625 15.4375 -5.6125 23.6875 -7.3125 32.1875 C-10.2825 32.1875 -13.2525 32.1875 -16.3125 32.1875 C-15.47728256 27.57307172 -14.61680048 22.96458056 -13.72705078 18.36035156 C-13.34442417 16.35482925 -12.9818387 14.34551107 -12.62109375 12.3359375 C-12.39550781 11.19382812 -12.16992188 10.05171875 -11.9375 8.875 C-11.74414062 7.84761719 -11.55078125 6.82023437 -11.3515625 5.76171875 C-10.3125 3.1875 -10.3125 3.1875 -8.04296875 1.34375 C-5.10060771 0.09777165 -3.17250202 -0.12690008 0 0 Z " fill="#FDF5F5" transform="translate(160.3125,113.8125)"/>
<path d="M0 0 C0 0.99 0 1.98 0 3 C-0.66 3.66 -1.32 4.32 -2 5 C1.18490007 5.2773501 1.18490007 5.2773501 4 3 C4.13794954 10.06608191 3.74805717 16.97360585 3 24 C1.9275 23.814375 0.855 23.62875 -0.25 23.4375 C-3.73082581 22.80757141 -3.73082581 22.80757141 -6 23.5 C-9.09443951 24.27360988 -11.89771426 23.53693407 -15 23 C-15 21.68 -15 20.36 -15 19 C-16.98 19.99 -16.98 19.99 -19 21 C-18.175 21.94875 -17.35 22.8975 -16.5 23.875 C-14 26.75 -14 26.75 -14 29 C-14.66 29 -15.32 29 -16 29 C-17.5078125 27.25 -17.5078125 27.25 -19.125 25 C-19.66382813 24.2575 -20.20265625 23.515 -20.7578125 22.75 C-21.37269531 21.88375 -21.37269531 21.88375 -22 21 C-19.75 18.5 -19.75 18.5 -17 16 C-15.68 16 -14.36 16 -13 16 C-13 15.01 -13 14.02 -13 13 C-12.34 13 -11.68 13 -11 13 C-11 13.66 -11 14.32 -11 15 C-9.68 14.34 -8.36 13.68 -7 13 C-7.33 12.154375 -7.66 11.30875 -8 10.4375 C-8 7 -8 7 -6.28515625 5.04296875 C-4.24146279 3.2794301 -2.17000541 1.6049493 0 0 Z " fill="#B1B332" transform="translate(252,186)"/>
<path d="M0 0 C2.64 0 5.28 0 8 0 C7.43617776 6.99365488 6.37639601 13.76100843 4.9375 20.625 C4.6580957 21.98818359 4.6580957 21.98818359 4.37304688 23.37890625 C3.91983534 25.5868599 3.46056576 27.79356867 3 30 C0.03 30 -2.94 30 -6 30 C-4.49273734 19.88547426 -2.28008137 9.96152053 0 0 Z " fill="#FDF4F4" transform="translate(57,72)"/>
<path d="M0 0 C2.64 0 5.28 0 8 0 C7.27922354 6.37436685 6.204908 12.63792663 5 18.9375 C4.82210937 19.89462891 4.64421875 20.85175781 4.4609375 21.83789062 C4.28820312 22.74603516 4.11546875 23.65417969 3.9375 24.58984375 C3.78152344 25.41347412 3.62554687 26.23710449 3.46484375 27.08569336 C3 29 3 29 2 30 C-0.67058851 30.14115161 -3.32432238 30.04247107 -6 30 C-5.37879271 23.57438707 -4.36523054 17.36927151 -3 11.0625 C-2.82210937 10.21365234 -2.64421875 9.36480469 -2.4609375 8.49023438 C-1.13455704 2.26911408 -1.13455704 2.26911408 0 0 Z " fill="#FDF3F3" transform="translate(137,116)"/>
<path d="M0 0 C1.28132813 0.10183594 2.56265625 0.20367187 3.8828125 0.30859375 C4.87023437 0.39238281 5.85765625 0.47617188 6.875 0.5625 C5.885 1.0575 5.885 1.0575 4.875 1.5625 C4.875 2.2225 4.875 2.8825 4.875 3.5625 C3.555 3.2325 2.235 2.9025 0.875 2.5625 C0.875 4.5425 0.875 6.5225 0.875 8.5625 C-0.115 8.8925 -1.105 9.2225 -2.125 9.5625 C-2.125 10.2225 -2.125 10.8825 -2.125 11.5625 C-3.445 11.8925 -4.765 12.2225 -6.125 12.5625 C-6.228125 13.18125 -6.33125 13.8 -6.4375 14.4375 C-7.125 16.5625 -7.125 16.5625 -10.125 18.5625 C-13.27913751 18.89105599 -15.28023346 19.09751881 -18 17.375 C-19.47281139 15.00213721 -19.34723194 13.30336056 -19.125 10.5625 C-21.105 10.5625 -23.085 10.5625 -25.125 10.5625 C-25.125 10.2325 -25.125 9.9025 -25.125 9.5625 C-20.175 9.2325 -15.225 8.9025 -10.125 8.5625 C-10.455 7.2425 -10.785 5.9225 -11.125 4.5625 C-8.93121465 -1.34384516 -5.75873311 -0.47116907 0 0 Z " fill="#EE6E72" transform="translate(52.125,101.4375)"/>
<path d="M0 0 C3.3 0 6.6 0 10 0 C11.12826496 4.14143549 10.78677174 7.02623137 9.78515625 11.17578125 C9.51123047 12.33271484 9.23730469 13.48964844 8.95507812 14.68164062 C8.66052734 15.87982422 8.36597656 17.07800781 8.0625 18.3125 C7.77181641 19.53001953 7.48113281 20.74753906 7.18164062 22.00195312 C6.46359093 25.00363628 5.73608488 28.00269789 5 31 C4.05125 30.979375 3.1025 30.95875 2.125 30.9375 C-0.90666283 30.77448174 -0.90666283 30.77448174 -3 32 C-3.40729228 34.32156597 -3.74438677 36.6568787 -4 39 C-6.97 39.495 -6.97 39.495 -10 40 C-8.52022383 35.07857247 -6.45710331 30.72647898 -4.0859375 26.1953125 C-3.71143463 25.4713327 -3.33693176 24.74735291 -2.95108032 24.00143433 C-1.76311189 21.7071581 -0.56916198 19.41605754 0.625 17.125 C1.43529403 15.56270647 2.24519403 14.00020849 3.0546875 12.4375 C5.03190685 8.62261939 7.01449386 4.81057374 9 1 C6.03 1 3.06 1 0 1 C0 0.67 0 0.34 0 0 Z " fill="#E13139" transform="translate(46,71)"/>
<path d="M0 0 C2.5625 0.3125 2.5625 0.3125 4.375 1.4375 C6.11448782 4.18405972 5.96019128 6.13096974 5.5625 9.3125 C4.3125 11.1875 4.3125 11.1875 2.5625 12.3125 C1.2425 12.3125 -0.0775 12.3125 -1.4375 12.3125 C-1.911875 13.446875 -2.38625 14.58125 -2.875 15.75 C-4.4375 19.3125 -4.4375 19.3125 -5.4375 20.3125 C-8.72588577 20.75687646 -10.03398169 20.6069593 -12.75 18.625 C-14.75972026 15.87093891 -14.95069996 14.64829974 -14.4375 11.3125 C-13.7775 10.3225 -13.1175 9.3325 -12.4375 8.3125 C-9.3125 8.125 -9.3125 8.125 -6.4375 8.3125 C-6.14875 7.36375 -5.86 6.415 -5.5625 5.4375 C-3.77943548 0.48454301 -3.77943548 0.48454301 0 0 Z " fill="#E94045" transform="translate(82.4375,137.6875)"/>
<path d="M0 0 C2.5625 0.3125 2.5625 0.3125 4.375 1.4375 C6.09099028 4.14695834 5.896228 6.17545684 5.5625 9.3125 C3.5625 11.3125 3.5625 11.3125 0.4375 11.4375 C-0.51125 11.39625 -1.46 11.355 -2.4375 11.3125 C-2.375625 12.735625 -2.375625 12.735625 -2.3125 14.1875 C-2.4375 17.3125 -2.4375 17.3125 -4.4375 19.3125 C-7.9375 19.625 -7.9375 19.625 -11.4375 19.3125 C-13.59252531 16.07996204 -13.90606135 15.06099077 -13.4375 11.3125 C-12.1875 9.5 -12.1875 9.5 -10.4375 8.3125 C-9.1175 8.3125 -7.7975 8.3125 -6.4375 8.3125 C-6.14875 7.36375 -5.86 6.415 -5.5625 5.4375 C-3.77943548 0.48454301 -3.77943548 0.48454301 0 0 Z " fill="#D52A33" transform="translate(117.4375,174.6875)"/>
<path d="M0 0 C3.5625 0.25 3.5625 0.25 7 1 C8.38125018 3.76250036 8.19079306 5.94731099 8 9 C6 11 6 11 2.875 11.125 C1.92625 11.08375 0.9775 11.0425 0 11 C0.061875 12.423125 0.061875 12.423125 0.125 13.875 C0 17 0 17 -2 19 C-5.625 19.125 -5.625 19.125 -9 19 C-9 15.37 -9 11.74 -9 8 C-7.02 7.67 -5.04 7.34 -3 7 C-2.814375 5.824375 -2.814375 5.824375 -2.625 4.625 C-2 2 -2 2 0 0 Z " fill="#E4757B" transform="translate(9,64)"/>
<path d="M0 0 C3.0625 0.3125 3.0625 0.3125 5 1.4375 C6.0625 3.3125 6.0625 3.3125 5.875 6.375 C5.0625 9.3125 5.0625 9.3125 3.0625 11.3125 C-0.5625 10.9375 -0.5625 10.9375 -3.9375 10.3125 C-3.9375 10.9725 -3.9375 11.6325 -3.9375 12.3125 C-3.2775 12.3125 -2.6175 12.3125 -1.9375 12.3125 C-2.25 14.6875 -2.25 14.6875 -2.9375 17.3125 C-3.9275 17.9725 -4.9175 18.6325 -5.9375 19.3125 C-5.9375 17.9925 -5.9375 16.6725 -5.9375 15.3125 C-8.2475 15.3125 -10.5575 15.3125 -12.9375 15.3125 C-13.2675 15.9725 -13.5975 16.6325 -13.9375 17.3125 C-14.2702958 13.65174624 -14.39920299 11.91749012 -12.125 8.9375 C-9.9375 7.3125 -9.9375 7.3125 -6.9375 7.3125 C-6.64875 6.52875 -6.36 5.745 -6.0625 4.9375 C-4.54651632 1.40020475 -3.89508661 0.41437092 0 0 Z " fill="#DD555C" transform="translate(174.9375,49.6875)"/>
<path d="M0 0 C0 1.32 0 2.64 0 4 C-0.94875 4.268125 -1.8975 4.53625 -2.875 4.8125 C-6.25267273 5.74986588 -6.25267273 5.74986588 -8 9 C-8.24107326 11.28648848 -8.24107326 11.28648848 -8.125 13.6875 C-8.10695312 14.49574219 -8.08890625 15.30398437 -8.0703125 16.13671875 C-8.04710937 16.75160156 -8.02390625 17.36648437 -8 18 C-6.35 18 -4.7 18 -3 18 C-3.33 19.65 -3.66 21.3 -4 23 C-11.24528302 23.60377358 -11.24528302 23.60377358 -14.5 21 C-16.40352066 17.19295869 -16.8767669 14.11929278 -16 10 C-14.26443012 5.95270795 -12.34674643 2.82876703 -8.5625 0.5 C-5.64931012 -0.06842729 -2.96097846 -0.13771993 0 0 Z " fill="#FDF3F3" transform="translate(187,122)"/>
<path d="M0 0 C2.97 0.495 2.97 0.495 6 1 C5.39009109 4.55780196 4.4216319 7.6828589 3 11 C1.68 11 0.36 11 -1 11 C-0.91621094 11.63808594 -0.83242187 12.27617187 -0.74609375 12.93359375 C-0.64425781 13.75988281 -0.54242188 14.58617187 -0.4375 15.4375 C-0.33308594 16.26121094 -0.22867188 17.08492187 -0.12109375 17.93359375 C-0.08113281 18.61550781 -0.04117188 19.29742187 0 20 C-1.58272601 21.58272601 -3.38034003 21.34735747 -5.5625 21.5625 C-6.80193359 21.68818359 -6.80193359 21.68818359 -8.06640625 21.81640625 C-8.70449219 21.87699219 -9.34257812 21.93757813 -10 22 C-10.66 23.98 -11.32 25.96 -12 28 C-14.51896068 25.80959941 -15.62858839 24.34270453 -16 21 C-15.72686657 18.65885633 -15.40197001 16.32249342 -15 14 C-14.67 14.99 -14.34 15.98 -14 17 C-12.14255793 17.61067144 -12.14255793 17.61067144 -10 18 C-8.6520257 18.63654342 -7.31403276 19.29605388 -6 20 C-5.25042843 16.52852158 -5.25042843 16.52852158 -5 13 C-6.45833358 11.37485532 -6.45833358 11.37485532 -8 10 C-6.71700242 7.13792848 -5.469364 4.9754912 -3 3 C-2.01 3 -1.02 3 0 3 C0 2.01 0 1.02 0 0 Z " fill="#EF797D" transform="translate(168,125)"/>
<path d="M0 0 C0.66 0 1.32 0 2 0 C2.33 1.65 2.66 3.3 3 5 C5.97 5.495 5.97 5.495 9 6 C9 6.66 9 7.32 9 8 C6.03 7.505 6.03 7.505 3 7 C3.144375 8.03125 3.28875 9.0625 3.4375 10.125 C2.95356558 14.4112763 2.61338015 14.81273886 -0.5 17.4375 C-1.65123833 18.31234976 -2.81346106 19.17366038 -4 20 C-7.32759923 18.44805246 -9.48580485 16.69378051 -12 14 C-10.34832443 10.4213696 -8.21713508 7.25179812 -6 4 C-3.03 4.495 -3.03 4.495 0 5 C0 3.35 0 1.7 0 0 Z " fill="#CC2F39" transform="translate(118,31)"/>
<path d="M0 0 C0.33 0 0.66 0 1 0 C1.33 1.65 1.66 3.3 2 5 C3.98 5.66 5.96 6.32 8 7 C8 7.33 8 7.66 8 8 C6.02 8 4.04 8 2 8 C2.33 8.845625 2.66 9.69125 3 10.5625 C3 14 3 14 1.28515625 15.95703125 C-0.75853721 17.7205699 -2.82999459 19.3950507 -5 21 C-6.17825358 20.09827532 -7.34231577 19.17798498 -8.5 18.25 C-9.1496875 17.73953125 -9.799375 17.2290625 -10.46875 16.703125 C-12 15 -12 15 -12 11 C-10.125 8.75 -10.125 8.75 -8 7 C-7.34 7 -6.68 7 -6 7 C-6 6.34 -6 5.68 -6 5 C-4.02 5 -2.04 5 0 5 C0 3.35 0 1.7 0 0 Z " fill="#E92C32" transform="translate(26,119)"/>
<path d="M0 0 C0.495 0.99 0.495 0.99 1 2 C5.29 2 9.58 2 14 2 C15 6 15 6 15 17 C-3.81 17 -22.62 17 -42 17 C-42 16.67 -42 16.34 -42 16 C-23.52 16 -5.04 16 14 16 C9.44192121 9.48795221 9.44192121 9.48795221 3.6875 5.0625 C2.80449219 4.47597656 1.92148438 3.88945312 1.01171875 3.28515625 C0.34785156 2.86105469 -0.31601563 2.43695313 -1 2 C-0.67 1.34 -0.34 0.68 0 0 Z " fill="#E7B047" transform="translate(240,237)"/>
<path d="M0 0 C0 0.66 0 1.32 0 2 C-1.32 2.33 -2.64 2.66 -4 3 C-4 4.65 -4 6.3 -4 8 C-0.89953913 9.03348696 0.05610218 9.17755913 3 8 C3.33 7.01 3.66 6.02 4 5 C4.33 5.66 4.66 6.32 5 7 C3.73046875 8.49739583 2.4609375 9.99479167 1.19140625 11.4921875 C-0.0878152 13.00594079 -0.0878152 13.00594079 -1 15 C-3.70543124 15.92351701 -6.37349543 16.7408056 -9.125 17.5 C-10.24648437 17.81904297 -10.24648437 17.81904297 -11.390625 18.14453125 C-12.87437157 18.56587392 -14.35906563 18.98389546 -15.84472656 19.3984375 C-18.90059987 20.25136816 -21.95001811 21.12626514 -25 22 C-24.505 20.515 -24.505 20.515 -24 19 C-23.34 19 -22.68 19 -22 19 C-22 18.34 -22 17.68 -22 17 C-21.34 17 -20.68 17 -20 17 C-20 16.34 -20 15.68 -20 15 C-17.03 15.495 -17.03 15.495 -14 16 C-14 14.02 -14 12.04 -14 10 C-13.67 10 -13.34 10 -13 10 C-13 11.65 -13 13.3 -13 15 C-10.03 14.01 -7.06 13.02 -4 12 C-4.495 11.443125 -4.99 10.88625 -5.5 10.3125 C-7.28615881 7.5588385 -7.4957593 6.22243543 -7 3 C-4.78150499 -0.21681777 -4.13734472 0 0 0 Z " fill="#E0A65A" transform="translate(146,220)"/>
<path d="M0 0 C4.41743795 1.38833764 7.0833938 3.39713352 10 7 C9.8125 9.3125 9.8125 9.3125 9 11 C6.69 11.66 4.38 12.32 2 13 C2 13.66 2 14.32 2 15 C4.31 15.33 6.62 15.66 9 16 C9 16.33 9 16.66 9 17 C4.05 17.495 4.05 17.495 -1 18 C-1 16.02 -1 14.04 -1 12 C-1.99 11.67 -2.98 11.34 -4 11 C-3.525625 9.9275 -3.05125 8.855 -2.5625 7.75 C-1.46233668 5.19160135 -0.54832997 2.74164983 0 0 Z " fill="#ED6367" transform="translate(119,98)"/>
<path d="M0 0 C3.36179774 1.44077046 5.59156268 3.24750021 8 6 C8 6.66 8 7.32 8 8 C5.03 7.505 5.03 7.505 2 7 C1.7018576 10.7763932 1.7018576 10.7763932 3 13 C1.35 13.33 -0.3 13.66 -2 14 C-1.34 14.66 -0.68 15.32 0 16 C-2.31 15.67 -4.62 15.34 -7 15 C-7 13.68 -7 12.36 -7 11 C-8.98 11.99 -8.98 11.99 -11 13 C-10.175 13.94875 -9.35 14.8975 -8.5 15.875 C-6 18.75 -6 18.75 -6 21 C-6.66 21 -7.32 21 -8 21 C-9.5078125 19.25 -9.5078125 19.25 -11.125 17 C-11.66382813 16.2575 -12.20265625 15.515 -12.7578125 14.75 C-13.16773438 14.1725 -13.57765625 13.595 -14 13 C-11.75 10.5 -11.75 10.5 -9 8 C-7.68 8 -6.36 8 -5 8 C-5 7.01 -5 6.02 -5 5 C-4.34 5 -3.68 5 -3 5 C-3 5.66 -3 6.32 -3 7 C-1.68 6.34 -0.36 5.68 1 5 C0.67 3.35 0.34 1.7 0 0 Z " fill="#C9C865" transform="translate(244,194)"/>
<path d="M0 0 C2.9375 0.8125 2.9375 0.8125 4.9375 3.8125 C4.5625 7.5 4.5625 7.5 3.9375 10.8125 C1.25 11.625 1.25 11.625 -2.0625 11.8125 C-5 9.6875 -5 9.6875 -7.0625 6.8125 C-7.0625 4.125 -7.0625 4.125 -6.0625 1.8125 C-3.0625 -0.1875 -3.0625 -0.1875 0 0 Z " fill="#D6666D" transform="translate(154.0625,212.1875)"/>
<path d="M0 0 C-0.64839844 0.28875 -1.29679687 0.5775 -1.96484375 0.875 C-2.63644531 1.24625 -3.30804688 1.6175 -4 2 C-4.3721042 3.32303717 -4.70630173 4.65737935 -5 6 C-8.46923881 8.31282587 -9.92205575 8.42478586 -14 8 C-15.875 6.8125 -15.875 6.8125 -17 5 C-17.1875 2.3125 -17.1875 2.3125 -17 0 C-18.98 0 -20.96 0 -23 0 C-23 -0.33 -23 -0.66 -23 -1 C-14.91807467 -1.937402 -7.88644034 -2.15408416 0 0 Z " fill="#E82B30" transform="translate(50,112)"/>
<path d="M0 0 C0.66 0 1.32 0 2 0 C2.061875 0.78375 2.12375 1.5675 2.1875 2.375 C2.455625 3.24125 2.72375 4.1075 3 5 C5.47636012 6.37466625 5.47636012 6.37466625 8 7 C8 7.33 8 7.66 8 8 C6.35 8 4.7 8 3 8 C3.12375 8.86625 3.2475 9.7325 3.375 10.625 C2.91358637 14.77772264 1.67596521 16.19062564 -1.33203125 18.94140625 C-3 20 -3 20 -5.875 19.875 C-6.926875 19.441875 -6.926875 19.441875 -8 19 C-8.33 18.01 -8.66 17.02 -9 16 C-9.66 16 -10.32 16 -11 16 C-11.75 14.3125 -11.75 14.3125 -12 12 C-10.1875 9.25 -10.1875 9.25 -8 7 C-7.34 7 -6.68 7 -6 7 C-7.20381448 9.49361571 -8.45428722 11.68143083 -10 14 C-9.21625 13.505 -8.4325 13.01 -7.625 12.5 C-5 11 -5 11 -3 11 C-3.66 12.32 -4.32 13.64 -5 15 C-5.66 15 -6.32 15 -7 15 C-6.67 15.66 -6.34 16.32 -6 17 C-5.1028125 16.5359375 -5.1028125 16.5359375 -4.1875 16.0625 C-2 15 -2 15 1 14 C1 11.69 1 9.38 1 7 C-0.98 7 -2.96 7 -5 7 C-5 6.34 -5 5.68 -5 5 C-3.35 5 -1.7 5 0 5 C0 3.35 0 1.7 0 0 Z " fill="#EB6A6F" transform="translate(61,156)"/>
<path d="M0 0 C3.0625 0.3125 3.0625 0.3125 4.9375 1.4375 C6.56781294 4.15468824 6.39265665 6.20902746 6.0625 9.3125 C4.0625 11.3125 4.0625 11.3125 1.125 11.5625 C-1.9375 11.3125 -1.9375 11.3125 -4.9375 9.3125 C-5.25 5.8125 -5.25 5.8125 -4.9375 2.3125 C-2.9375 0.3125 -2.9375 0.3125 0 0 Z " fill="#ED7074" transform="translate(209.9375,86.6875)"/>
<path d="M0 0 C2.125 0.375 2.125 0.375 4 1 C4.31549088 6.2581813 3.70016294 9.46372627 1 14 C0 15 0 15 -2.5625 15.0625 C-3.366875 15.041875 -4.17125 15.02125 -5 15 C-5.31549831 9.74169479 -4.73345236 6.52070968 -2 2 C-1.34 1.34 -0.68 0.68 0 0 Z " fill="#EA2F35" transform="translate(197,126)"/>
<path d="M0 0 C0.99 0.103125 1.98 0.20625 3 0.3125 C5.30163882 3.76495824 5.34490322 5.25988713 5 9.3125 C4.34 9.9725 3.68 10.6325 3 11.3125 C-0.5 11.125 -0.5 11.125 -4 10.3125 C-6 7.3125 -6 7.3125 -5.75 4.75 C-4.63712083 1.13314268 -3.78270321 0.39403158 0 0 Z " fill="#D9727A" transform="translate(140,12.6875)"/>
<path d="M0 0 C0 0.99 0 1.98 0 3 C-2.31 3 -4.62 3 -7 3 C-7 2.67 -7 2.34 -7 2 C-29.77 1.67 -52.54 1.34 -76 1 C-76 0.67 -76 0.34 -76 0 C-50.59716137 -1.22848454 -25.40447806 -1.17189103 0 0 Z " fill="#DB8089" transform="translate(112,253)"/>
<path d="M0 0 C7.35678392 -0.36180905 7.35678392 -0.36180905 10 1.125 C11.45670212 3.85631647 11.32339354 5.96010077 11 9 C10.34 9.66 9.68 10.32 9 11 C6.27130593 10.96712417 3.7033382 10.43602229 1 10 C1.03255208 7.98177083 1.06510417 5.96354167 1.09765625 3.9453125 C1.12649242 1.91814596 1.12649242 1.91814596 0 0 Z " fill="#E92B31" transform="translate(240,124)"/>
<path d="M0 0 C1.15224028 0.92961422 2.29659176 1.8690125 3.4375 2.8125 C4.39462891 3.59560547 4.39462891 3.59560547 5.37109375 4.39453125 C7 6 7 6 8 9 C7.34 9 6.68 9 6 9 C6 9.66 6 10.32 6 11 C5.195625 11.2475 4.39125 11.495 3.5625 11.75 C0.828919 12.72238859 0.828919 12.72238859 0.1875 15.125 C0.125625 15.74375 0.06375 16.3625 0 17 C-0.99 16.67 -1.98 16.34 -3 16 C-3.94921875 13.71484375 -3.94921875 13.71484375 -4.6875 10.9375 C-4.93886719 10.01839844 -5.19023438 9.09929687 -5.44921875 8.15234375 C-5.63097656 7.44207031 -5.81273437 6.73179687 -6 6 C-4 5 -4 5 -1.8359375 5.55859375 C-1.02382813 5.84863281 -0.21171875 6.13867188 0.625 6.4375 C1.44226563 6.72496094 2.25953125 7.01242188 3.1015625 7.30859375 C3.72804688 7.53675781 4.35453125 7.76492187 5 8 C3.7625 6.576875 3.7625 6.576875 2.5 5.125 C0 2.25 0 2.25 0 0 Z " fill="#D5656F" transform="translate(64,224)"/>
<path d="M0 0 C0.33 0 0.66 0 1 0 C1 5.28 1 10.56 1 16 C-1.97 16 -4.94 16 -8 16 C-6.99387645 11.9755058 -5.59438408 9.3035861 -3.5 5.75 C-2.8709375 4.67234375 -2.241875 3.5946875 -1.59375 2.484375 C-1.0678125 1.66453125 -0.541875 0.8446875 0 0 Z " fill="#EA3B41" transform="translate(120,125)"/>
<path d="M0 0 C2 0 2 0 4.625 2.125 C7 5 7 5 7.3125 8.3125 C7.1578125 9.6428125 7.1578125 9.6428125 7 11 C3.08393425 10.46599103 0.60661066 9.80330533 -3 8 C-2.01 10.97 -1.02 13.94 0 17 C-0.66 17 -1.32 17 -2 17 C-5.42857143 9.71428571 -5.42857143 9.71428571 -5 5 C-3.0625 4.4375 -3.0625 4.4375 -1 4 C-0.67 4.33 -0.34 4.66 0 5 C0 3.35 0 1.7 0 0 Z " fill="#DC555C" transform="translate(249,47)"/>
<path d="M0 0 C0.33 0.99 0.66 1.98 1 3 C2.85744207 3.61067144 2.85744207 3.61067144 5 4 C6.3479743 4.63654342 7.68596724 5.29605388 9 6 C9.33 4.35 9.66 2.7 10 1 C11.65 1.33 13.3 1.66 15 2 C14.67 3.65 14.34 5.3 14 7 C9.545 7.495 9.545 7.495 5 8 C4.34 9.98 3.68 11.96 3 14 C0.48103932 11.80959941 -0.62858839 10.34270453 -1 7 C-0.72686657 4.65885633 -0.40197001 2.32249342 0 0 Z " fill="#ED666A" transform="translate(153,139)"/>
<path d="M0 0 C3.79379058 1.49041773 5.68343758 3.69062512 8 7 C8 7.66 8 8.32 8 9 C7.34 9 6.68 9 6 9 C6 9.66 6 10.32 6 11 C4.35 11 2.7 11 1 11 C0.34 12.65 -0.32 14.3 -1 16 C-6 9.63636364 -6 9.63636364 -6 5 C-2.0507432 5.55105909 1.34920174 6.38935371 5 8 C3.7625 6.576875 3.7625 6.576875 2.5 5.125 C0 2.25 0 2.25 0 0 Z " fill="#DE484F" transform="translate(192,173)"/>
<path d="M0 0 C3.36179774 1.44077046 5.59156268 3.24750021 8 6 C8 6.66 8 7.32 8 8 C6.68 7.67 5.36 7.34 4 7 C4.33 8.65 4.66 10.3 5 12 C4.38125 11.835 3.7625 11.67 3.125 11.5 C1.03936614 10.92365356 1.03936614 10.92365356 -1 11 C-0.01 11.66 0.98 12.32 2 13 C2 13.66 2 14.32 2 15 C-2.2742558 13.4169423 -4.26531794 10.49431596 -7 7 C-3.37673261 5.7922442 -2.35853631 6.45688872 1 8 C0.67 5.36 0.34 2.72 0 0 Z " fill="#EA686D" transform="translate(219,76)"/>
<path d="M0 0 C1.32 0.66 2.64 1.32 4 2 C4.125 5.375 4.125 5.375 4 9 C2 11 2 11 -1.625 11.125 C-2.73875 11.08375 -3.8525 11.0425 -5 11 C-4.67 8.03 -4.34 5.06 -4 2 C-2.68 2 -1.36 2 0 2 C0 1.34 0 0.68 0 0 Z " fill="#DF444C" transform="translate(5,72)"/>
<path d="M0 0 C1 1 1 1 1.0625 4.5625 C1.041875 5.696875 1.02125 6.83125 1 8 C-2.63 8 -6.26 8 -10 8 C-9 3 -9 3 -7.8125 1.1875 C-5.17952316 -0.53755379 -3.07136226 -0.26707498 0 0 Z " fill="#E03C43" transform="translate(144,76)"/>
<path d="M0 0 C1.15224028 0.92961422 2.29659176 1.8690125 3.4375 2.8125 C4.39462891 3.59560547 4.39462891 3.59560547 5.37109375 4.39453125 C7 6 7 6 8 9 C5.36 9.66 2.72 10.32 0 11 C-0.33 12.65 -0.66 14.3 -1 16 C-1.66 16 -2.32 16 -3 16 C-3.50615298 14.73160474 -4.00469099 13.46016898 -4.5 12.1875 C-4.7784375 11.47980469 -5.056875 10.77210937 -5.34375 10.04296875 C-6 8 -6 8 -6 5 C-2.0507432 5.55105909 1.34920174 6.38935371 5 8 C3.7625 6.576875 3.7625 6.576875 2.5 5.125 C0 2.25 0 2.25 0 0 Z " fill="#D35962" transform="translate(51,25)"/>
<path d="M0 0 C1.1446875 0.3403125 1.1446875 0.3403125 2.3125 0.6875 C2.3125 2.0075 2.3125 3.3275 2.3125 4.6875 C3.9625 5.0175 5.6125 5.3475 7.3125 5.6875 C7.3125 6.0175 7.3125 6.3475 7.3125 6.6875 C5.0025 7.0175 2.6925 7.3475 0.3125 7.6875 C0.6425 9.3375 0.9725 10.9875 1.3125 12.6875 C0.13424642 11.78577532 -1.02981577 10.86548498 -2.1875 9.9375 C-2.8371875 9.42703125 -3.486875 8.9165625 -4.15625 8.390625 C-5.6875 6.6875 -5.6875 6.6875 -5.6875 2.6875 C-3.90208633 -0.03760508 -3.28929587 -0.38247626 0 0 Z " fill="#D96F77" transform="translate(73.6875,217.3125)"/>
<path d="M0 0 C0.66 0 1.32 0 2 0 C3.5078125 1.53125 3.5078125 1.53125 5.125 3.5 C5.66382813 4.1496875 6.20265625 4.799375 6.7578125 5.46875 C7.16773438 5.9740625 7.57765625 6.479375 8 7 C7.67 7.66 7.34 8.32 7 9 C6.01 8.34 5.02 7.68 4 7 C4.33 8.98 4.66 10.96 5 13 C3.02 12.34 1.04 11.68 -1 11 C-0.505 11.45375 -0.01 11.9075 0.5 12.375 C2 14 2 14 2 16 C-1.36295835 14.55873214 -3.62927102 12.79407345 -6 10 C-6 9.01 -6 8.02 -6 7 C-3.23723823 7.52268466 -0.6739124 8.10869587 2 9 C1.67 8.2575 1.34 7.515 1 6.75 C0 4 0 4 0 0 Z " fill="#D86E76" transform="translate(148,1)"/>
<path d="M0 0 C3.36179774 1.44077046 5.59156268 3.24750021 8 6 C8 6.66 8 7.32 8 8 C6.68 7.34 5.36 6.68 4 6 C4 7.65 4 9.3 4 11 C2.35 10.67 0.7 10.34 -1 10 C-0.34 10.66 0.32 11.32 1 12 C0.67 12.99 0.34 13.98 0 15 C-1.17262904 13.88121617 -2.33795138 12.75476949 -3.5 11.625 C-4.1496875 10.99851563 -4.799375 10.37203125 -5.46875 9.7265625 C-7 8 -7 8 -7 6 C-3.28400809 5.79913557 -2.22791555 5.8480563 1 8 C0.67 5.36 0.34 2.72 0 0 Z " fill="#DA6F77" transform="translate(162,202)"/>
<path d="M0 0 C2.43929746 1.92576115 4.80090595 3.80090595 7 6 C6.401875 6.103125 5.80375 6.20625 5.1875 6.3125 C2.68462276 7.09911856 1.78685245 8.13545831 0 10 C-0.99 10.33 -1.98 10.66 -3 11 C-3.99 10.34 -4.98 9.68 -6 9 C-6.1875 6.375 -6.1875 6.375 -6 4 C-4.35 3.67 -2.7 3.34 -1 3 C-0.67 2.01 -0.34 1.02 0 0 Z " fill="#C32632" transform="translate(147,219)"/>
<path d="M0 0 C0.33 0 0.66 0 1 0 C1.33 1.65 1.66 3.3 2 5 C2.99 5.33 3.98 5.66 5 6 C4.875 9.25 4.875 9.25 4 13 C0.9375 15.4375 0.9375 15.4375 -2 17 C-2.07347656 16.07767578 -2.07347656 16.07767578 -2.1484375 15.13671875 C-2.22320312 14.32847656 -2.29796875 13.52023438 -2.375 12.6875 C-2.44460937 11.88699219 -2.51421875 11.08648437 -2.5859375 10.26171875 C-2.89564426 7.72775559 -2.89564426 7.72775559 -5 5 C-3.35 5 -1.7 5 0 5 C0 3.35 0 1.7 0 0 Z " fill="#E24249" transform="translate(154,68)"/>
<path d="M0 0 C0.763125 0.20625 1.52625 0.4125 2.3125 0.625 C2.3125 1.945 2.3125 3.265 2.3125 4.625 C3.6325 4.625 4.9525 4.625 6.3125 4.625 C6.3125 5.285 6.3125 5.945 6.3125 6.625 C4.3325 6.625 2.3525 6.625 0.3125 6.625 C0.6425 8.275 0.9725 9.925 1.3125 11.625 C-2.04665158 10.18536361 -4.40374938 8.50083411 -6.6875 5.625 C-6.625 3.5 -6.625 3.5 -5.6875 1.625 C-2.6875 -0.375 -2.6875 -0.375 0 0 Z " fill="#DA757D" transform="translate(60.6875,18.375)"/>
<path d="M0 0 C2.625 0.375 2.625 0.375 5 1 C5 2.32 5 3.64 5 5 C6.65 5.33 8.3 5.66 10 6 C7.50935112 6.68707555 5.62113708 7 3 7 C3.33 8.65 3.66 10.3 4 12 C0.63408134 10.55746343 -1.51047079 8.66735273 -4 6 C-2.84826645 3.53199953 -1.95216435 1.95216435 0 0 Z " fill="#EB797E" transform="translate(199,166)"/>
<path d="M0 0 C0.7425 0.0825 1.485 0.165 2.25 0.25 C2.25 1.9 2.25 3.55 2.25 5.25 C3.9 5.25 5.55 5.25 7.25 5.25 C7.25 5.91 7.25 6.57 7.25 7.25 C4.94 7.25 2.63 7.25 0.25 7.25 C0.58 8.9 0.91 10.55 1.25 12.25 C-2.09998521 11.13333826 -2.54340222 10.50305075 -4.4375 7.6875 C-4.87449219 7.04683594 -5.31148438 6.40617187 -5.76171875 5.74609375 C-6.08785156 5.25238281 -6.41398437 4.75867187 -6.75 4.25 C-3.42692308 0.31153846 -3.42692308 0.31153846 0 0 Z " fill="#E4787E" transform="translate(95.75,54.75)"/>
<path d="M0 0 C2 3 2 3 2 8 C-1.63 8 -5.26 8 -9 8 C-5.8 0 -5.8 0 0 0 Z " fill="#DC272F" transform="translate(83,76)"/>
<path d="M0 0 C2.625 0.375 2.625 0.375 5 1 C5 2.32 5 3.64 5 5 C6.65 5.33 8.3 5.66 10 6 C10 6.33 10 6.66 10 7 C7.69 7 5.38 7 3 7 C3 7.99 3 8.98 3 10 C2.67 10.66 2.34 11.32 2 12 C0.02 10.02 -1.96 8.04 -4 6 C-2.84826645 3.53199953 -1.95216435 1.95216435 0 0 Z " fill="#E57B81" transform="translate(36,180)"/>
<path d="M0 0 C0.8353125 0.37125 0.8353125 0.37125 1.6875 0.75 C1.790625 1.36875 1.89375 1.9875 2 2.625 C2.56275373 5.11526484 2.56275373 5.11526484 5.6875 6.75 C3.7075 7.08 1.7275 7.41 -0.3125 7.75 C0.0175 9.4 0.3475 11.05 0.6875 12.75 C-0.46474028 11.82038578 -1.60909176 10.8809875 -2.75 9.9375 C-3.38808594 9.41542969 -4.02617187 8.89335937 -4.68359375 8.35546875 C-6.3125 6.75 -6.3125 6.75 -7.3125 3.75 C-2.88173077 -0.31153846 -2.88173077 -0.31153846 0 0 Z " fill="#D9737C" transform="translate(224.3125,3.25)"/>
<path d="M0 0 C1.98738098 0.01761863 3.97253109 0.16698176 5.953125 0.33203125 C5.953125 1.98203125 5.953125 3.63203125 5.953125 5.33203125 C6.613125 5.66203125 7.273125 5.99203125 7.953125 6.33203125 C6.98375 6.62078125 6.014375 6.90953125 5.015625 7.20703125 C1.84648297 7.97417807 1.84648297 7.97417807 0.953125 10.33203125 C-0.036875 10.00203125 -1.026875 9.67203125 -2.046875 9.33203125 C-1.386875 8.01203125 -0.726875 6.69203125 -0.046875 5.33203125 C-0.706875 5.33203125 -1.366875 5.33203125 -2.046875 5.33203125 C-3.366875 5.33203125 -4.686875 5.33203125 -6.046875 5.33203125 C-3.15469741 0.51173527 -3.15469741 0.51173527 0 0 Z " fill="#C22431" transform="translate(78.046875,1.66796875)"/>
<path d="M0 0 C4.24846075 0.47205119 6.26819288 2.88877522 9 6 C9 6.66 9 7.32 9 8 C7.68 7.34 6.36 6.68 5 6 C5 6.66 5 7.32 5 8 C5 8.99 5 9.98 5 11 C4.38125 10.835 3.7625 10.67 3.125 10.5 C1.03936614 9.92365356 1.03936614 9.92365356 -1 10 C-0.34 11.32 0.32 12.64 1 14 C-0.1725131 13.04882866 -1.33787015 12.08882991 -2.5 11.125 C-3.1496875 10.59132812 -3.799375 10.05765625 -4.46875 9.5078125 C-5.22671875 8.76144531 -5.22671875 8.76144531 -6 8 C-6 7.34 -6 6.68 -6 6 C-5.05125 6.165 -4.1025 6.33 -3.125 6.5 C-0.19831099 7.0526635 -0.19831099 7.0526635 2 7 C1.67 6.401875 1.34 5.80375 1 5.1875 C0 3 0 3 0 0 Z " fill="#E97378" transform="translate(126,165)"/>
<path d="M0 0 C0.66 0.33 1.32 0.66 2 1 C0.515 2.485 0.515 2.485 -1 4 C-0.67 4.66 -0.34 5.32 0 6 C0.45375 5.505 0.9075 5.01 1.375 4.5 C3 3 3 3 5 3 C3.62513234 5.96125343 2.23335451 8.60121183 0 11 C-2.5 11.875 -2.5 11.875 -5 12 C-5.99 11.34 -6.98 10.68 -8 10 C-8 9.01 -8 8.02 -8 7 C-7.01 7 -6.02 7 -5 7 C-4.731875 6.401875 -4.46375 5.80375 -4.1875 5.1875 C-3.01506533 3.02775192 -1.80630718 1.64209744 0 0 Z " fill="#EE6E72" transform="translate(181,112)"/>
<path d="M0 0 C0.8971875 0.680625 0.8971875 0.680625 1.8125 1.375 C3.50590652 2.63295913 5.24477086 3.82984724 7 5 C5.68 5.99 4.36 6.98 3 8 C3 7.01 3 6.02 3 5 C2.34 5 1.68 5 1 5 C0.67 6.65 0.34 8.3 0 10 C-2.375 9.6875 -2.375 9.6875 -5 9 C-5.66 8.01 -6.32 7.02 -7 6 C-4.69 4.02 -2.38 2.04 0 0 Z " fill="#C52330" transform="translate(134,20)"/>
<path d="M0 0 C1.14926266 0.95421808 2.29430541 1.91352045 3.4375 2.875 C4.39462891 3.67550781 4.39462891 3.67550781 5.37109375 4.4921875 C7 6 7 6 8 8 C5.525 7.01 5.525 7.01 3 6 C3.33 7.65 3.66 9.3 4 11 C1.03 10.505 1.03 10.505 -2 10 C-1.505 10.45375 -1.01 10.9075 -0.5 11.375 C1 13 1 13 1 15 C-2.79379058 13.50958227 -4.68343758 11.30937488 -7 8 C-7 7.34 -7 6.68 -7 6 C-3.65626525 6.55728913 -0.96687001 7.35173889 2 9 C1.67 8.2575 1.34 7.515 1 6.75 C0 4 0 4 0 0 Z " fill="#DF7178" transform="translate(184,39)"/>
<path d="M0 0 C4.35522853 0.50642192 7.44239635 1.38411497 11 4 C11 4.66 11 5.32 11 6 C9.02 6 7.04 6 5 6 C5 7.98 5 9.96 5 12 C4.34 12 3.68 12 3 12 C-0.42857143 4.71428571 -0.42857143 4.71428571 0 0 Z " fill="#DCCD64" transform="translate(222,215)"/>
<path d="M0 0 C0.66 0.33 1.32 0.66 2 1 C2 2.65 2 4.3 2 6 C4.31 6 6.62 6 9 6 C9.33 5.01 9.66 4.02 10 3 C10.33 3.99 10.66 4.98 11 6 C10.34 6.66 9.68 7.32 9 8 C5.375 7.625 5.375 7.625 2 7 C2.33 9.31 2.66 11.62 3 14 C1.68 14.99 0.36 15.98 -1 17 C-1.66 16.67 -2.32 16.34 -3 16 C-2.34 15.01 -1.68 14.02 -1 13 C-0.34 13 0.32 13 1 13 C1 11.02 1 9.04 1 7 C-1.97 6.505 -1.97 6.505 -5 6 C-5 5.67 -5 5.34 -5 5 C-3.35 5 -1.7 5 0 5 C0 3.35 0 1.7 0 0 Z " fill="#ED666B" transform="translate(189,105)"/>
<path d="M0 0 C1.65 0 3.3 0 5 0 C5.0825 0.78375 5.165 1.5675 5.25 2.375 C5.72806339 5.14749104 5.72806339 5.14749104 8.0625 6.3125 C8.701875 6.539375 9.34125 6.76625 10 7 C7.69 7 5.38 7 3 7 C3.33 8.65 3.66 10.3 4 12 C2.68 11.34 1.36 10.68 0 10 C0 6.7 0 3.4 0 0 Z " fill="#ED767A" transform="translate(0,143)"/>
<path d="M0 0 C4.41743795 1.38833764 7.0833938 3.39713352 10 7 C9.67 8.32 9.34 9.64 9 11 C4.545 9.02 4.545 9.02 0 7 C0 4.69 0 2.38 0 0 Z " fill="#E9474C" transform="translate(119,98)"/>
<path d="M0 0 C0.66 0.33 1.32 0.66 2 1 C0.515 2.485 0.515 2.485 -1 4 C1.62113708 4 3.50935112 3.68707555 6 3 C4.68 5.31 3.36 7.62 2 10 C2.99 10 3.98 10 5 10 C5 9.34 5 8.68 5 8 C6.65 7.34 8.3 6.68 10 6 C8.02 8.31 6.04 10.62 4 13 C-1.46875 8.703125 -1.46875 8.703125 -3 7 C-3 3 -3 3 -1.5 1.25 C-1.005 0.8375 -0.51 0.425 0 0 Z " fill="#EE7378" transform="translate(17,127)"/>
<path d="M0 0 C0.66 0.33 1.32 0.66 2 1 C0.68 2.65 -0.64 4.3 -2 6 C-1.21625 5.505 -0.4325 5.01 0.375 4.5 C3 3 3 3 5 3 C4 5 3 7 2 9 C2.598125 8.690625 3.19625 8.38125 3.8125 8.0625 C6 7 6 7 9 6 C7.71480435 8.86697492 6.42870746 10.97607712 4 13 C3.34 13 2.68 13 2 13 C0.4921875 11.46875 0.4921875 11.46875 -1.125 9.5 C-1.66382812 8.8503125 -2.20265625 8.200625 -2.7578125 7.53125 C-3.16773437 7.0259375 -3.57765625 6.520625 -4 6 C-2.84826645 3.53199953 -1.95216435 1.95216435 0 0 Z " fill="#DC7178" transform="translate(88,201)"/>
<path d="M0 0 C3.42106076 0.25341191 4.30782184 1.30782184 6.8125 3.8125 C9 7 9 7 8.8125 9.375 C8.544375 9.91125 8.27625 10.4475 8 11 C7.236875 10.690625 6.47375 10.38125 5.6875 10.0625 C3.81210323 9.32106407 1.91315348 8.63771783 0 8 C0 5.36 0 2.72 0 0 Z " fill="#EA4247" transform="translate(154,134)"/>
<path d="M0 0 C2.4375 0.75 2.4375 0.75 5 2 C6 3.9375 6 3.9375 6 6 C4.8125 7.8125 4.8125 7.8125 3 9 C0.86254078 8.74853421 -0.45925779 8.54074221 -2 7 C-2.1875 4.5625 -2.1875 4.5625 -2 2 C-1.34 1.34 -0.68 0.68 0 0 Z " fill="#D62831" transform="translate(10,65)"/>
<path d="M0 0 C0.66 0 1.32 0 2 0 C0.79618552 2.49361571 -0.45428722 4.68143083 -2 7 C-1.401875 6.649375 -0.80375 6.29875 -0.1875 5.9375 C2 5 2 5 5 6 C4.505 6.45375 4.01 6.9075 3.5 7.375 C1.77390663 8.87635519 1.77390663 8.87635519 2 11 C2.66 11.33 3.32 11.66 4 12 C4.66 10.68 5.32 9.36 6 8 C6.99 8.33 7.98 8.66 9 9 C7.35 10.65 5.7 12.3 4 14 C0.64084842 12.56036361 -1.71624938 10.87583411 -4 8 C-3.89570889 4.6626845 -2.18116303 2.4429026 0 0 Z " fill="#DC7B83" transform="translate(75,0)"/>
<path d="M0 0 C0 0.99 0 1.98 0 3 C-0.66 3.66 -1.32 4.32 -2 5 C1.18490007 5.2773501 1.18490007 5.2773501 4 3 C4 6.3 4 9.6 4 13 C3.01 13 2.02 13 1 13 C0.34 11.68 -0.32 10.36 -1 9 C-1.66 9 -2.32 9 -3 9 C-3.66 7.68 -4.32 6.36 -5 5 C-3.35 3.35 -1.7 1.7 0 0 Z " fill="#CED289" transform="translate(252,186)"/>
<path d="M0 0 C1.99954746 -0.04254356 4.00041636 -0.04080783 6 0 C7 1 7 1 7.1875 3.4375 C7 6 7 6 5 8 C2.06546739 7.63318342 1.13562754 7.13562754 -1 5 C-0.625 2.375 -0.625 2.375 0 0 Z " fill="#E6292F" transform="translate(44,103)"/>
<path d="M0 0 C2.5625 0.1875 2.5625 0.1875 4.5625 2.1875 C4.1875 4.8125 4.1875 4.8125 3.5625 7.1875 C1.1875 7.8125 1.1875 7.8125 -1.4375 8.1875 C-3.4375 6.1875 -3.4375 6.1875 -3.625 3.625 C-3.37291261 0.34786389 -3.27713611 0.25208739 0 0 Z " fill="#D8262F" transform="translate(117.4375,176.8125)"/>
<path d="M0 0 C3.34998521 1.11666174 3.79340222 1.74694925 5.6875 4.5625 C6.34298828 5.52349609 6.34298828 5.52349609 7.01171875 6.50390625 C7.33785156 6.99761719 7.66398438 7.49132812 8 8 C5.525 7.01 5.525 7.01 3 6 C2.34 7.32 1.68 8.64 1 10 C1.99 11.485 1.99 11.485 3 13 C-1.24846075 12.52794881 -3.26819288 10.11122478 -6 7 C-6 6.34 -6 5.68 -6 5 C-3.525 5.495 -3.525 5.495 -1 6 C-0.34 5.01 0.32 4.02 1 3 C0.67 2.01 0.34 1.02 0 0 Z " fill="#EA6B70" transform="translate(209,157)"/>
<path d="M0 0 C2.625 -0.1875 2.625 -0.1875 5 0 C5 0.66 5 1.32 5 2 C3.68 2.33 2.36 2.66 1 3 C1.33 4.65 1.66 6.3 2 8 C3.32 8.33 4.64 8.66 6 9 C6.66 7.68 7.32 6.36 8 5 C8.66 5 9.32 5 10 5 C8.125 10.875 8.125 10.875 7 12 C3.71161423 12.44437646 2.40351831 12.2944593 -0.3125 10.3125 C-2.32222026 7.55843891 -2.51319996 6.33579974 -2 3 C-1.34 2.01 -0.68 1.02 0 0 Z " fill="#ED6F73" transform="translate(70,146)"/>
<path d="M0 0 C1.67542976 0.28604898 3.34385343 0.61781233 5 1 C6.125 5.75 6.125 5.75 5 8 C2.625 8.125 2.625 8.125 0 8 C-0.66 7.34 -1.32 6.68 -2 6 C-1.44444444 1.44444444 -1.44444444 1.44444444 0 0 Z " fill="#D2252F" transform="translate(173,51)"/>
<path d="M0 0 C1.17539996 0.92652701 2.34010577 1.86663387 3.5 2.8125 C4.1496875 3.33457031 4.799375 3.85664063 5.46875 4.39453125 C7 6 7 6 7 9 C6.38125 8.649375 5.7625 8.29875 5.125 7.9375 C4.073125 7.4734375 4.073125 7.4734375 3 7 C2.01 7.495 2.01 7.495 1 8 C1.66 9.98 2.32 11.96 3 14 C-0.81936528 12.44396229 -3.26044438 10.04395069 -6 7 C-6 6.34 -6 5.68 -6 5 C-3.525 5.99 -3.525 5.99 -1 7 C0.12516085 5.16715557 0.12516085 5.16715557 1 3 C0.67 2.01 0.34 1.02 0 0 Z " fill="#D96D75" transform="translate(81,208)"/>
<path d="M0 0 C4.70588235 0.70588235 4.70588235 0.70588235 6 2 C6.04063832 3.66617115 6.042721 5.33388095 6 7 C4.02 7.33 2.04 7.66 0 8 C-2 5 -2 5 -1.6875 2.875 C-1 1 -1 1 0 0 Z " fill="#C52431" transform="translate(151,214)"/>
<path d="M0 0 C0 3.51716303 -0.82445585 4.37121748 -3 7 C-2.21625 6.505 -1.4325 6.01 -0.625 5.5 C2 4 2 4 4 4 C3 7 3 7 1 8 C1 8.66 1 9.32 1 10 C1.99 10.33 2.98 10.66 4 11 C4.66 9.68 5.32 8.36 6 7 C6.66 7 7.32 7 8 7 C6.84826645 9.46800047 5.95216435 11.04783565 4 13 C0.71711224 12.88679697 -0.30354487 11.71715137 -2.75 9.4375 C-3.4925 8.633125 -4.235 7.82875 -5 7 C-3.70700306 4.11562221 -2.34058637 2.12780579 0 0 Z " fill="#ED6F73" transform="translate(217,149)"/>
<path d="M0 0 C4.20626034 1.50223584 5.73900021 4.28550034 8 8 C7.236875 7.814375 6.47375 7.62875 5.6875 7.4375 C2.91032625 6.77180827 2.91032625 6.77180827 0 8 C0.99 9.65 1.98 11.3 3 13 C-0.79588866 12.45773019 -2.47211993 10.79872437 -5 8 C-4.67 7.01 -4.34 6.02 -4 5 C-2.02 5.495 -2.02 5.495 0 6 C0 4.68 0 3.36 0 2 C0 1.34 0 0.68 0 0 Z " fill="#EE6F73" transform="translate(10,134)"/>
<path d="M0 0 C0.598125 0.226875 1.19625 0.45375 1.8125 0.6875 C-0.1675 1.6775 -0.1675 1.6775 -2.1875 2.6875 C-1.8575 4.0075 -1.5275 5.3275 -1.1875 6.6875 C0.1325 7.0175 1.4525 7.3475 2.8125 7.6875 C3.4725 6.3675 4.1325 5.0475 4.8125 3.6875 C5.4725 3.6875 6.1325 3.6875 6.8125 3.6875 C6.0625 8.4375 6.0625 8.4375 3.8125 10.6875 C0.67545684 11.021228 -1.35304166 11.21599028 -4.0625 9.5 C-5.59409584 7.03242892 -5.61572025 5.54230169 -5.1875 2.6875 C-3.54664326 0.22621489 -2.98587219 -0.42655317 0 0 Z " fill="#EE6F73" transform="translate(201.1875,95.3125)"/>
<path d="M0 0 C2.8992226 0.46761655 3.86675182 0.86675182 6 3 C5.625 5.625 5.625 5.625 5 8 C2.625 8.125 2.625 8.125 0 8 C-0.66 7.34 -1.32 6.68 -2 6 C-1.44444444 1.44444444 -1.44444444 1.44444444 0 0 Z " fill="#C32330" transform="translate(138,14)"/>
<path d="M0 0 C1.1725131 0.95117134 2.33787015 1.91117009 3.5 2.875 C4.1496875 3.40867188 4.799375 3.94234375 5.46875 4.4921875 C6.22671875 5.23855469 6.22671875 5.23855469 7 6 C7 6.66 7 7.32 7 8 C6.34 8 5.68 8 5 8 C5 7.34 5 6.68 5 6 C3.02 6.99 3.02 6.99 1 8 C1.33 9.65 1.66 11.3 2 13 C-1.36179774 11.55922954 -3.59156268 9.75249979 -6 7 C-6 6.34 -6 5.68 -6 5 C-3.525 5.495 -3.525 5.495 -1 6 C-0.4465236 3.92446352 0 2.15634036 0 0 Z " fill="#E67075" transform="translate(46,171)"/>
<path d="M0 0 C2.5625 0.3125 2.5625 0.3125 4.375 1.4375 C6.09099028 4.14695834 5.896228 6.17545684 5.5625 9.3125 C3.5625 11.3125 3.5625 11.3125 -0.0625 11.4375 C-1.17625 11.39625 -2.29 11.355 -3.4375 11.3125 C-4.98886786 8.84856281 -5.46789129 7.63160854 -5.1875 4.6875 C-4.17862968 1.49274399 -3.37473029 0.43265773 0 0 Z M-3.4375 3.3125 C-3.6875773 5.77059998 -3.6875773 5.77059998 -3.4375 8.3125 C-2.7775 8.9725 -2.1175 9.6325 -1.4375 10.3125 C1.16530568 9.99208603 1.16530568 9.99208603 3.5625 9.3125 C4.24208603 6.91530568 4.24208603 6.91530568 4.5625 4.3125 C2.72984675 2.04410017 2.72984675 2.04410017 0 2.125 C-2.38439723 2.04246677 -2.38439723 2.04246677 -3.4375 3.3125 Z " fill="#E57379" transform="translate(117.4375,174.6875)"/>
<path d="M0 0 C2.4375 0.75 2.4375 0.75 5 2 C5.9375 4 5.9375 4 6 6 C4 8 4 8 1.4375 8.1875 C-1 8 -1 8 -2 7 C-2.1875 4.5625 -2.1875 4.5625 -2 2 C-1.34 1.34 -0.68 0.68 0 0 Z " fill="#E3262D" transform="translate(209,88)"/>
<path d="M0 0 C1.14926266 0.95421808 2.29430541 1.91352045 3.4375 2.875 C4.39462891 3.67550781 4.39462891 3.67550781 5.37109375 4.4921875 C7 6 7 6 8 8 C5.525 7.01 5.525 7.01 3 6 C1.87483915 7.83284443 1.87483915 7.83284443 1 10 C1.33 10.99 1.66 11.98 2 13 C-1.36179774 11.55922954 -3.59156268 9.75249979 -6 7 C-6 6.34 -6 5.68 -6 5 C-3.525 5.495 -3.525 5.495 -1 6 C-0.34 5.01 0.32 4.02 1 3 C0.67 2.01 0.34 1.02 0 0 Z " fill="#D87078" transform="translate(68,9)"/>
<path d="M0 0 C3.36179774 1.44077046 5.59156268 3.24750021 8 6 C8 6.66 8 7.32 8 8 C5.03 7.505 5.03 7.505 2 7 C1.7018576 10.7763932 1.7018576 10.7763932 3 13 C-0.36179774 11.55922954 -2.59156268 9.75249979 -5 7 C-5 6.34 -5 5.68 -5 5 C-4.34 5 -3.68 5 -3 5 C-3 5.66 -3 6.32 -3 7 C-1.68 6.34 -0.36 5.68 1 5 C0.67 3.35 0.34 1.7 0 0 Z " fill="#C6CC77" transform="translate(244,194)"/>
<path d="M0 0 C4.20626034 1.50223584 5.73900021 4.28550034 8 8 C5.525 7.01 5.525 7.01 3 6 C2.34 7.32 1.68 8.64 1 10 C1.99 11.485 1.99 11.485 3 13 C2.01 13 1.02 13 0 13 C0 12.34 0 11.68 0 11 C-0.99 10.67 -1.98 10.34 -3 10 C-4.1875 7.4375 -4.1875 7.4375 -5 5 C-3.68 5.33 -2.36 5.66 -1 6 C-0.34 5.01 0.32 4.02 1 3 C0.67 2.01 0.34 1.02 0 0 Z " fill="#DF7279" transform="translate(103,46)"/>
<path d="M0 0 C0.99 0.33 1.98 0.66 3 1 C3 1.99 3 2.98 3 4 C5.475 4.99 5.475 4.99 8 6 C8 6.66 8 7.32 8 8 C7.34 8 6.68 8 6 8 C5.67 8.66 5.34 9.32 5 10 C5 9.34 5 8.68 5 8 C4.01 8.33 3.02 8.66 2 9 C1.67 8.01 1.34 7.02 1 6 C-1.00016466 4.79117904 -1.00016466 4.79117904 -3 4 C-2.01 2.68 -1.02 1.36 0 0 Z " fill="#BCB732" transform="translate(235,204)"/>
<path d="M0 0 C0.66 0 1.32 0 2 0 C2.33 1.65 2.66 3.3 3 5 C5.97 5.495 5.97 5.495 9 6 C9 6.66 9 7.32 9 8 C6.03 7.505 6.03 7.505 3 7 C3 8.98 3 10.96 3 13 C1 10 1 10 1 7 C-1.97 6.505 -1.97 6.505 -5 6 C-4.67 5.34 -4.34 4.68 -4 4 C-2.02 4.495 -2.02 4.495 0 5 C0 3.35 0 1.7 0 0 Z " fill="#D96B73" transform="translate(118,31)"/>
<path d="M0 0 C7.35678392 -0.36180905 7.35678392 -0.36180905 10 1.125 C11.45670212 3.85631647 11.32339354 5.96010077 11 9 C10.34 9.66 9.68 10.32 9 11 C6.27130593 10.96712417 3.7033382 10.43602229 1 10 C1 9.34 1 8.68 1 8 C3.64 8.33 6.28 8.66 9 9 C8.67 7.02 8.34 5.04 8 3 C5.50935112 2.31292445 3.62113708 2 1 2 C0.67 1.34 0.34 0.68 0 0 Z " fill="#EE7579" transform="translate(240,124)"/>
<path d="M0 0 C2.76276177 0.52268466 5.3260876 1.10869587 8 2 C8 4.64 8 7.28 8 10 C6.84481082 9.09515208 5.70114594 8.1755794 4.5625 7.25 C3.60537109 6.48429687 3.60537109 6.48429687 2.62890625 5.703125 C0.81189446 3.80332371 0.39576803 2.56413092 0 0 Z " fill="#EF787C" transform="translate(248,119)"/>
<path d="M0 0 C4.56454251 0.54339792 7.9728176 1.79463821 12 4 C9.00519083 4.8723412 6.36424089 5.10829766 3.25 5.0625 C2.45078125 5.05347656 1.6515625 5.04445313 0.828125 5.03515625 C0.22484375 5.02355469 -0.3784375 5.01195313 -1 5 C-0.67 3.35 -0.34 1.7 0 0 Z " fill="#E05F65" transform="translate(80,67)"/>
<path d="M0 0 C3.7952131 1.49097658 5.61042731 3.75700849 8 7 C6.68 6.67 5.36 6.34 4 6 C4.33 7.65 4.66 9.3 5 11 C2.13275314 10.42655063 1.1385485 10.1385485 -1 8 C-0.01 8 0.98 8 2 8 C1.67 7.236875 1.34 6.47375 1 5.6875 C0 3 0 3 0 0 Z " fill="#EE7276" transform="translate(91,128)"/>
<path d="M0 0 C1.98 0 3.96 0 6 0 C6.0825 0.598125 6.165 1.19625 6.25 1.8125 C7.20455872 4.5966296 8.57132271 5.43311142 11 7 C4.65625 7.48798077 4.65625 7.48798077 1.5625 5.1875 C0 3 0 3 0 0 Z " fill="#EA585D" transform="translate(133,90)"/>
<path d="M0 0 C2.97 0 5.94 0 9 0 C8.95875 0.78375 8.9175 1.5675 8.875 2.375 C8.71271266 5.16116119 8.71271266 5.16116119 11 7 C13.0480428 6.9049261 13.0480428 6.9049261 15 6 C15.66 5.01 16.32 4.02 17 3 C16.125 7.875 16.125 7.875 15 9 C9.72434608 9.45875252 9.72434608 9.45875252 7.125 7.8125 C5.65218861 5.43963721 5.77776806 3.74086056 6 1 C4.02 1 2.04 1 0 1 C0 0.67 0 0.34 0 0 Z " fill="#EE767A" transform="translate(27,111)"/>
<path d="M0 0 C3.71599191 -0.20086443 4.77208445 -0.1519437 8 2 C8.66 1.34 9.32 0.68 10 0 C10.33 1.65 10.66 3.3 11 5 C9.02 4.34 7.04 3.68 5 3 C5.33 3.33 5.66 3.66 6 4 C6.68268138 5.32520503 7.3507041 6.65812182 8 8 C4.63820226 6.55922954 2.40843732 4.75249979 0 2 C0 1.34 0 0.68 0 0 Z " fill="#E06F76" transform="translate(14,60)"/>
<path d="M0 0 C0.33 0.99 0.66 1.98 1 3 C2.175625 2.2265625 2.175625 2.2265625 3.375 1.4375 C4.24125 0.963125 5.1075 0.48875 6 0 C6.66 0.33 7.32 0.66 8 1 C7.505 1.45375 7.01 1.9075 6.5 2.375 C4.77390663 3.87635519 4.77390663 3.87635519 5 6 C5.598125 5.690625 6.19625 5.38125 6.8125 5.0625 C9 4 9 4 12 3 C10.86695008 6.39914975 9.87481525 7.05254451 7 9 C3.63408134 7.55746343 1.48952921 5.66735273 -1 3 C-0.67 2.01 -0.34 1.02 0 0 Z " fill="#DE7178" transform="translate(107,42)"/>
<path d="M0 0 C0.66 0.33 1.32 0.66 2 1 C1.79375 1.61875 1.5875 2.2375 1.375 2.875 C1.25125 3.57625 1.1275 4.2775 1 5 C1.66 5.66 2.32 6.32 3 7 C4.32 7 5.64 7 7 7 C7.33 5.68 7.66 4.36 8 3 C8.66 3 9.32 3 10 3 C10.1875 5.375 10.1875 5.375 10 8 C6.76746204 10.15502531 5.74849077 10.46856135 2 10 C0.1875 8.875 0.1875 8.875 -1 7 C-1.25 3.875 -1.25 3.875 -1 1 C-0.67 0.67 -0.34 0.34 0 0 Z " fill="#DB757D" transform="translate(127,22)"/>
<path d="M0 0 C3.8877114 1.04669153 7.43904445 2.12498358 11 4 C9.43883181 4.33951619 7.87598662 4.67132544 6.3125 5 C5.00732422 5.2784375 5.00732422 5.2784375 3.67578125 5.5625 C1.06287036 5.98972047 -1.35813038 6.07616201 -4 6 C-2.68 4.02 -1.36 2.04 0 0 Z " fill="#DEBB12" transform="translate(151,226)"/>
<path d="M0 0 C4.56454251 0.54339792 7.9728176 1.79463821 12 4 C10.375 4.6875 10.375 4.6875 8 5 C4.75 3.5625 4.75 3.5625 2 2 C2.99 4.97 3.98 7.94 5 11 C4.34 11 3.68 11 3 11 C0 4.5 0 4.5 0 0 Z " fill="#E4777D" transform="translate(244,53)"/>
<path d="M0 0 C4.12751449 0.60698743 7.3321148 2.03810791 11 4 C7.71023192 5.09658936 6.28696233 4.79953138 3 4 C3.350625 4.763125 3.70125 5.52625 4.0625 6.3125 C5 9 5 9 4 12 C3.32332002 10.75539217 2.65905281 9.50403104 2 8.25 C1.62875 7.55390625 1.2575 6.8578125 0.875 6.140625 C0 4 0 4 0 0 Z " fill="#E27379" transform="translate(23,192)"/>
<path d="M0 0 C0 0.66 0 1.32 0 2 C-1.98 2.99 -1.98 2.99 -4 4 C-3.67 5.32 -3.34 6.64 -3 8 C-0.92446352 8.5534764 0.84365964 9 3 9 C3.66 7.68 4.32 6.36 5 5 C4.125 9.875 4.125 9.875 3 11 C-0.4375 11.25 -0.4375 11.25 -4 11 C-6.15502531 7.76746204 -6.46856135 6.74849077 -6 3 C-4.01004621 0.25196858 -3.48943694 0 0 0 Z " fill="#E4767C" transform="translate(110,183)"/>
<path d="M0 0 C2.97 0.495 2.97 0.495 6 1 C5.45276317 4.37462715 4.9451 6.08235 3 9 C2.34 9 1.68 9 1 9 C0.896875 8.38125 0.79375 7.7625 0.6875 7.125 C0.12474627 4.63473516 0.12474627 4.63473516 -3 3 C-2.01 3 -1.02 3 0 3 C0 2.01 0 1.02 0 0 Z " fill="#EA3137" transform="translate(168,125)"/>
<path d="M0 0 C4.05281712 1.22527029 7.44360764 2.69880494 11 5 C10.01 5.33 9.02 5.66 8 6 C7.01 5.34 6.02 4.68 5 4 C4.01 4 3.02 4 2 4 C2.350625 4.763125 2.70125 5.52625 3.0625 6.3125 C4 9 4 9 3 12 C2.30314502 10.3789897 1.61777139 8.75303934 0.9375 7.125 C0.55464844 6.22007813 0.17179688 5.31515625 -0.22265625 4.3828125 C-1 2 -1 2 0 0 Z " fill="#D9727A" transform="translate(209,15)"/>
<path d="M0 0 C2.97 0.495 2.97 0.495 6 1 C6 1.66 6 2.32 6 3 C4.5437455 3.67119549 3.08492133 4.33681807 1.625 5 C0.40683594 5.556875 0.40683594 5.556875 -0.8359375 6.125 C-3 7 -3 7 -5 7 C-4.67 6.01 -4.34 5.02 -4 4 C-3.34 4 -2.68 4 -2 4 C-2 3.34 -2 2.68 -2 2 C-1.34 2 -0.68 2 0 2 C0 1.34 0 0.68 0 0 Z " fill="#D4685D" transform="translate(126,235)"/>
<path d="M0 0 C1.15224028 0.92961422 2.29659176 1.8690125 3.4375 2.8125 C4.07558594 3.33457031 4.71367188 3.85664063 5.37109375 4.39453125 C7 6 7 6 8 9 C7.34 9 6.68 9 6 9 C6 9.66 6 10.32 6 11 C5.21625 11.2475 4.4325 11.495 3.625 11.75 C0.67682892 13.15389099 0.0975223 14.00675737 -1 17 C-1.25 14.75 -1.25 14.75 -1 12 C0.875 9.6875 0.875 9.6875 3 8 C3.66 8 4.32 8 5 8 C4.175 7.05125 3.35 6.1025 2.5 5.125 C0 2.25 0 2.25 0 0 Z " fill="#D0545E" transform="translate(64,224)"/>
<path d="M0 0 C0.66 0 1.32 0 2 0 C2.061875 0.78375 2.12375 1.5675 2.1875 2.375 C2.455625 3.24125 2.72375 4.1075 3 5 C5.47636012 6.37466625 5.47636012 6.37466625 8 7 C4.25 8.125 4.25 8.125 2 7 C1.67 7.99 1.34 8.98 1 10 C1 9.01 1 8.02 1 7 C-0.98 7 -2.96 7 -5 7 C-5 6.34 -5 5.68 -5 5 C-3.35 5 -1.7 5 0 5 C0 3.35 0 1.7 0 0 Z " fill="#ED6E73" transform="translate(61,156)"/>
<path d="M0 0 C0.33 0 0.66 0 1 0 C1.33 1.65 1.66 3.3 2 5 C3.98 5.66 5.96 6.32 8 7 C8 7.33 8 7.66 8 8 C6.02 8 4.04 8 2 8 C2 9.65 2 11.3 2 13 C1.67 13 1.34 13 1 13 C0.9071875 11.824375 0.9071875 11.824375 0.8125 10.625 C0.544375 9.75875 0.27625 8.8925 0 8 C-2.47636012 6.62533375 -2.47636012 6.62533375 -5 6 C-5 5.67 -5 5.34 -5 5 C-3.35 5 -1.7 5 0 5 C0 3.35 0 1.7 0 0 Z " fill="#EE7478" transform="translate(26,119)"/>
<path d="M0 0 C0.66 0 1.32 0 2 0 C2 1.98 2 3.96 2 6 C4.31 6.33 6.62 6.66 9 7 C9 7.33 9 7.66 9 8 C7.02 8 5.04 8 3 8 C3 9.98 3 11.96 3 14 C1.5393715 11.35261084 1 10.10551666 1 7 C-0.65 6.67 -2.3 6.34 -4 6 C-3.01 5.67 -2.02 5.34 -1 5 C-0.34 5.33 0.32 5.66 1 6 C0.67 4.02 0.34 2.04 0 0 Z " fill="#E0757C" transform="translate(96,193)"/>
<path d="M0 0 C5.53846154 0.61538462 5.53846154 0.61538462 7.875 2.5625 C8.431875 3.2740625 8.431875 3.2740625 9 4 C7.35 3.67 5.7 3.34 4 3 C3.67 3.66 3.34 4.32 3 5 C3.66 5 4.32 5 5 5 C5 6.98 5 8.96 5 11 C0 4.63636364 0 4.63636364 0 0 Z " fill="#E27178" transform="translate(186,178)"/>
<path d="M0 0 C2.64 0.99 5.28 1.98 8 3 C8 3.33 8 3.66 8 4 C6.02 4 4.04 4 2 4 C2 5.65 2 7.3 2 9 C0 6 0 6 0 3 C-2.97 2.505 -2.97 2.505 -6 2 C-6 1.67 -6 1.34 -6 1 C-4.7934375 1.0309375 -4.7934375 1.0309375 -3.5625 1.0625 C-1.06645115 1.29633621 -1.06645115 1.29633621 0 0 Z " fill="#EE7276" transform="translate(225,146)"/>
<path d="M0 0 C1.65 0.33 3.3 0.66 5 1 C4.67 2.65 4.34 4.3 4 6 C2.35 5.67 0.7 5.34 -1 5 C-0.67 3.35 -0.34 1.7 0 0 Z " fill="#FDF5F5" transform="translate(163,140)"/>
<path d="M0 0 C1.15224028 0.92961422 2.29659176 1.8690125 3.4375 2.8125 C4.07558594 3.33457031 4.71367187 3.85664062 5.37109375 4.39453125 C7 6 7 6 8 9 C7.4225 8.690625 6.845 8.38125 6.25 8.0625 C4.15705816 7.07416636 2.25464725 6.4831387 0 6 C-0.38218767 4.34385343 -0.71395102 2.67542976 -1 1 C-0.67 0.67 -0.34 0.34 0 0 Z " fill="#DF6D74" transform="translate(21,53)"/>
<path d="M0 0 C5.94 0 11.88 0 18 0 C18 0.99 18 1.98 18 3 C15.69 3 13.38 3 11 3 C11 2.67 11 2.34 11 2 C7.37 1.67 3.74 1.34 0 1 C0 0.67 0 0.34 0 0 Z " fill="#EAB7BC" transform="translate(94,253)"/>
<path d="M0 0 C0.99 0.33 1.98 0.66 3 1 C3 2.98 3 4.96 3 7 C1.02 7.33 -0.96 7.66 -3 8 C-1.125 2.25 -1.125 2.25 0 0 Z " fill="#EA484E" transform="translate(39,103)"/>
<path d="M0 0 C0.33 0 0.66 0 1 0 C1.33 1.65 1.66 3.3 2 5 C2.99 5.33 3.98 5.66 5 6 C4.67 6.99 4.34 7.98 4 9 C4 8.34 4 7.68 4 7 C3.34 7 2.68 7 2 7 C2 8.98 2 10.96 2 13 C1.67 13 1.34 13 1 13 C0.9071875 11.824375 0.9071875 11.824375 0.8125 10.625 C0.544375 9.75875 0.27625 8.8925 0 8 C-2.47636012 6.62533375 -2.47636012 6.62533375 -5 6 C-5 5.67 -5 5.34 -5 5 C-3.35 5 -1.7 5 0 5 C0 3.35 0 1.7 0 0 Z " fill="#EA7A7F" transform="translate(154,68)"/>
<path d="M0 0 C2.66355234 -0.39169887 4.39224373 -0.40564529 6.66796875 1.11328125 C8.1510888 2.36389317 9.57954352 3.67864514 11 5 C10.01 5.99 9.02 6.98 8 8 C8 7.34 8 6.68 8 6 C6.68 6 5.36 6 4 6 C3.896875 5.38125 3.79375 4.7625 3.6875 4.125 C3.12474627 1.63473516 3.12474627 1.63473516 0 0 Z " fill="#C52A36" transform="translate(59,17)"/>
<path d="M0 0 C1.82421875 1.21484375 1.82421875 1.21484375 3.6875 2.9375 C4.31011719 3.50339844 4.93273437 4.06929687 5.57421875 4.65234375 C6.04472656 5.09707031 6.51523438 5.54179687 7 6 C6.67 6.66 6.34 7.32 6 8 C4.35 7.67 2.7 7.34 1 7 C0.896875 6.38125 0.79375 5.7625 0.6875 5.125 C0.12474627 2.63473516 0.12474627 2.63473516 -3 1 C-2.01 0.67 -1.02 0.34 0 0 Z " fill="#C62935" transform="translate(75,215)"/>
<path d="M0 0 C0.66 0.33 1.32 0.66 2 1 C0.79444959 7.14830711 -0.91558124 9.35248219 -6 13 C-6.66 12.34 -7.32 11.68 -8 11 C-3.25 7 -3.25 7 -1 7 C-0.67 4.69 -0.34 2.38 0 0 Z " fill="#E65B60" transform="translate(63,163)"/>
<path d="M0 0 C2.4375 0.75 2.4375 0.75 5 2 C5.6875 3.9375 5.6875 3.9375 6 6 C6.99 7.485 6.99 7.485 8 9 C3.75177626 8.52797514 1.80010291 6.03344482 -1 3 C-0.67 2.01 -0.34 1.02 0 0 Z " fill="#ED696D" transform="translate(85,133)"/>
<path d="M0 0 C5.53846154 0.61538462 5.53846154 0.61538462 7.875 2.5625 C8.431875 3.2740625 8.431875 3.2740625 9 4 C4.25 3.125 4.25 3.125 2 2 C2.350625 2.598125 2.70125 3.19625 3.0625 3.8125 C4 6 4 6 3 9 C0 3.375 0 3.375 0 0 Z " fill="#DB747C" transform="translate(45,30)"/>
<path d="M0 0 C0.66 0.33 1.32 0.66 2 1 C1.34 2.32 0.68 3.64 0 5 C0.99 5.33 1.98 5.66 3 6 C4.1875 9.0625 4.1875 9.0625 5 12 C3.82174642 11.09827532 2.65768423 10.17798498 1.5 9.25 C0.8503125 8.73953125 0.200625 8.2290625 -0.46875 7.703125 C-2 6 -2 6 -2 2 C-1.34 1.34 -0.68 0.68 0 0 Z " fill="#DC7B83" transform="translate(70,218)"/>
<path d="M0 0 C0.66 0.33 1.32 0.66 2 1 C1.67 1.33 1.34 1.66 1 2 C3.97 2.33 6.94 2.66 10 3 C9.01 3.66 8.02 4.32 7 5 C6.34 4.67 5.68 4.34 5 4 C4.67 4.66 4.34 5.32 4 6 C4 5.34 4 4.68 4 4 C1.03 4 -1.94 4 -5 4 C-3.35 2.68 -1.7 1.36 0 0 Z " fill="#B7AA28" transform="translate(188,204)"/>
<path d="M0 0 C1.32 1.65 2.64 3.3 4 5 C2.02 5.99 2.02 5.99 0 7 C-0.99 6.34 -1.98 5.68 -3 5 C-3 4.01 -3 3.02 -3 2 C-2.01 2 -1.02 2 0 2 C0 1.34 0 0.68 0 0 Z " fill="#EB4E53" transform="translate(176,117)"/>
<path d="M0 0 C2.64 1.98 5.28 3.96 8 6 C6.02 6.99 6.02 6.99 4 8 C2.35 6.02 0.7 4.04 -1 2 C-0.67 1.34 -0.34 0.68 0 0 Z " fill="#E43138" transform="translate(212,156)"/>
<path d="M0 0 C3.36179774 1.44077046 5.59156268 3.24750021 8 6 C8 6.66 8 7.32 8 8 C4.125 6.25 4.125 6.25 3 4 C2.34 4.66 1.68 5.32 1 6 C0.67 4.02 0.34 2.04 0 0 Z " fill="#EB6E73" transform="translate(219,76)"/>
<path d="M0 0 C2.64752004 2.57784846 4.94432065 4.91648098 7 8 C5 7 3 6 1 5 C1 6.98 1 8.96 1 11 C0.67 11 0.34 11 0 11 C0 7.37 0 3.74 0 0 Z " fill="#ECAFB3" transform="translate(0,216)"/>
<path d="M0 0 C0.33 0 0.66 0 1 0 C1 2.31 1 4.62 1 7 C1.66 7 2.32 7 3 7 C2.67 9.31 2.34 11.62 2 14 C1.01 13.67 0.02 13.34 -1 13 C-0.67 8.71 -0.34 4.42 0 0 Z " fill="#ED6267" transform="translate(206,126)"/>
<path d="M0 0 C6.93 0.495 6.93 0.495 14 1 C13.01 1.495 13.01 1.495 12 2 C12 2.66 12 3.32 12 4 C9.525 3.01 9.525 3.01 7 2 C6.67 2.99 6.34 3.98 6 5 C5.566875 4.54625 5.13375 4.0925 4.6875 3.625 C2.89201658 1.79975666 2.89201658 1.79975666 0 0 Z " fill="#F08487" transform="translate(45,101)"/>
<path d="M0 0 C1.32 0 2.64 0 4 0 C3.67 1.32 3.34 2.64 3 4 C1.68 4.33 0.36 4.66 -1 5 C-1 1 -1 1 0 0 Z " fill="#C72E3A" transform="translate(71,219)"/>
<path d="M0 0 C0.98120464 3.05263664 0.98120464 4.94736336 0 8 C-0.99 7.67 -1.98 7.34 -3 7 C-2.25 2.25 -2.25 2.25 0 0 Z " fill="#C3C976" transform="translate(255,189)"/>
<path d="M0 0 C0.66 0 1.32 0 2 0 C3.5078125 1.53125 3.5078125 1.53125 5.125 3.5 C5.66382813 4.1496875 6.20265625 4.799375 6.7578125 5.46875 C7.16773438 5.9740625 7.57765625 6.479375 8 7 C7.67 7.66 7.34 8.32 7 9 C6.21625 8.360625 5.4325 7.72125 4.625 7.0625 C2.20460719 5.01857687 2.20460719 5.01857687 0 4 C0 2.68 0 1.36 0 0 Z " fill="#DD828A" transform="translate(148,1)"/>
<path d="M0 0 C3.40424844 1.13474948 4.21653709 1.96811304 6 5 C5.67 5.99 5.34 6.98 5 8 C3.02 5.69 1.04 3.38 -1 1 C-0.67 0.67 -0.34 0.34 0 0 Z " fill="#D6616A" transform="translate(157,209)"/>
<path d="M0 0 C-1.28519565 2.86697492 -2.57129254 4.97607712 -5 7 C-5.66 7 -6.32 7 -7 7 C-7 6.01 -7 5.02 -7 4 C-2.65714286 0 -2.65714286 0 0 0 Z " fill="#D7646C" transform="translate(97,207)"/>
<path d="M0 0 C4.20626034 1.50223584 5.73900021 4.28550034 8 8 C4.63820226 6.55922954 2.40843732 4.75249979 0 2 C0 1.34 0 0.68 0 0 Z " fill="#E66F74" transform="translate(192,173)"/>
<path d="M0 0 C0.99 0.33 1.98 0.66 3 1 C2.34 2.32 1.68 3.64 1 5 C0.01 5 -0.98 5 -2 5 C-2 2 -2 2 0 0 Z " fill="#DD2B33" transform="translate(200,167)"/>
<path d="M0 0 C1.65 1.32 3.3 2.64 5 4 C4.67 4.99 4.34 5.98 4 7 C2.35 5.68 0.7 4.36 -1 3 C-0.67 2.01 -0.34 1.02 0 0 Z " fill="#EA3338" transform="translate(15,135)"/>
<path d="M0 0 C0.66 0.33 1.32 0.66 2 1 C1.67 2.32 1.34 3.64 1 5 C-0.32 5 -1.64 5 -3 5 C-3 4.01 -3 3.02 -3 2 C-2.01 1.34 -1.02 0.68 0 0 Z " fill="#E92D32" transform="translate(165,130)"/>
<path d="M0 0 C1.65 0.33 3.3 0.66 5 1 C4.34 1.66 3.68 2.32 3 3 C3.99 3.66 4.98 4.32 6 5 C3.69 5 1.38 5 -1 5 C-0.67 3.35 -0.34 1.7 0 0 Z " fill="#E97B80" transform="translate(80,67)"/>
<path d="M0 0 C0.99 0.33 1.98 0.66 3 1 C2.34 2.32 1.68 3.64 1 5 C0.01 5 -0.98 5 -2 5 C-2 2 -2 2 0 0 Z " fill="#D32A33" transform="translate(94,56)"/>
<path d="M0 0 C2.97 1.98 2.97 1.98 6 4 C5.01 4.495 5.01 4.495 4 5 C3.67 5.66 3.34 6.32 3 7 C1.68 5.68 0.36 4.36 -1 3 C-0.67 2.01 -0.34 1.02 0 0 Z " fill="#CF2F39" transform="translate(108,47)"/>
<path d="M0 0 C0.99 0 1.98 0 3 0 C2.67 1.65 2.34 3.3 2 5 C0.68 4.67 -0.64 4.34 -2 4 C-1.34 2.68 -0.68 1.36 0 0 Z " fill="#C52834" transform="translate(58,19)"/>
<path d="M0 0 C3.78611227 0.54087318 5.55400767 2.11722332 8 5 C8 5.66 8 6.32 8 7 C4.2047869 5.50902342 2.38957269 3.24299151 0 0 Z " fill="#D6646D" transform="translate(142,10)"/>
<path d="M0 0 C0.66 0 1.32 0 2 0 C2.33 0.66 2.66 1.32 3 2 C3.99 2.33 4.98 2.66 6 3 C7.1875 6.0625 7.1875 6.0625 8 9 C6.84775972 8.07038578 5.70340824 7.1309875 4.5625 6.1875 C3.60537109 5.40439453 3.60537109 5.40439453 2.62890625 4.60546875 C1 3 1 3 0 0 Z " fill="#DC7D84" transform="translate(217,7)"/>
<path d="M0 0 C0.99 0.33 1.98 0.66 3 1 C2.34 2.32 1.68 3.64 1 5 C-0.32 4.67 -1.64 4.34 -3 4 C-3 3.34 -3 2.68 -3 2 C-2.01 1.34 -1.02 0.68 0 0 Z " fill="#C42A37" transform="translate(222,5)"/>
<path d="M0 0 C1.20628008 2.33214148 2.1654738 4.49642139 3 7 C5.01508358 7.73323796 5.01508358 7.73323796 7 8 C4.6875 8.25 4.6875 8.25 2 8 C0.125 6.25 0.125 6.25 -1 4 C-0.6875 1.75 -0.6875 1.75 0 0 Z " fill="#DB757D" transform="translate(148,215)"/>
<path d="M0 0 C1.1725131 0.95117134 2.33787015 1.91117009 3.5 2.875 C4.47453125 3.67550781 4.47453125 3.67550781 5.46875 4.4921875 C5.9740625 4.98976562 6.479375 5.48734375 7 6 C7 6.66 7 7.32 7 8 C5.0625 7.1875 5.0625 7.1875 3 6 C2.67 5.01 2.34 4.02 2 3 C1.34 3 0.68 3 0 3 C0 2.01 0 1.02 0 0 Z " fill="#EA656A" transform="translate(128,165)"/>
<path d="M0 0 C0.99 0 1.98 0 3 0 C2.67 1.32 2.34 2.64 2 4 C0.68 4 -0.64 4 -2 4 C-1.34 2.68 -0.68 1.36 0 0 Z " fill="#D8262F" transform="translate(36,182)"/>
<path d="M0 0 C0.66 0 1.32 0 2 0 C0.125 5.875 0.125 5.875 -1 7 C-2.66617115 7.04063832 -4.33388095 7.042721 -6 7 C-5.38125 6.95875 -4.7625 6.9175 -4.125 6.875 C-3.42375 6.58625 -2.7225 6.2975 -2 6 C-0.6954344 3.00384054 -0.6954344 3.00384054 0 0 Z " fill="#EC5D61" transform="translate(78,151)"/>
<path d="M0 0 C2.31 1.98 4.62 3.96 7 6 C6.67 6.99 6.34 7.98 6 9 C3.69 6.69 1.38 4.38 -1 2 C-0.67 1.34 -0.34 0.68 0 0 Z " fill="#F0898D" transform="translate(125,95)"/>
<path d="M0 0 C3.36179774 1.44077046 5.59156268 3.24750021 8 6 C8 6.66 8 7.32 8 8 C3.79373966 6.49776416 2.26099979 3.71449966 0 0 Z " fill="#E47076" transform="translate(86,62)"/>
<path d="M0 0 C2.475 0.495 2.475 0.495 5 1 C5 1.99 5 2.98 5 4 C4.34 4 3.68 4 3 4 C2.67 4.66 2.34 5.32 2 6 C1.34 4.02 0.68 2.04 0 0 Z " fill="#CD4752" transform="translate(210,18)"/>
<path d="M0 0 C2.475 0.495 2.475 0.495 5 1 C4.67 1.99 4.34 2.98 4 4 C3.34 4 2.68 4 2 4 C1.67 4.66 1.34 5.32 1 6 C0.67 4.02 0.34 2.04 0 0 Z " fill="#D6C446" transform="translate(222,217)"/>
<path d="M0 0 C1.65 1.32 3.3 2.64 5 4 C4.01 4 3.02 4 2 4 C2 4.99 2 5.98 2 7 C0.68 6.67 -0.64 6.34 -2 6 C-1.34 5.67 -0.68 5.34 0 5 C0 3.35 0 1.7 0 0 Z " fill="#CA313C" transform="translate(165,207)"/>
<path d="M0 0 C3.34998521 1.11666174 3.79340222 1.74694925 5.6875 4.5625 C6.12449219 5.20316406 6.56148437 5.84382812 7.01171875 6.50390625 C7.33785156 6.99761719 7.66398438 7.49132812 8 8 C4.63820226 6.55922954 2.40843732 4.75249979 0 2 C0 1.34 0 0.68 0 0 Z " fill="#ED767B" transform="translate(209,157)"/>
<path d="M0 0 C0.99 0.33 1.98 0.66 3 1 C1.35 2.65 -0.3 4.3 -2 6 C-2 5.34 -2 4.68 -2 4 C-2.99 3.67 -3.98 3.34 -5 3 C-4.360625 2.690625 -3.72125 2.38125 -3.0625 2.0625 C-1.06389179 1.1654837 -1.06389179 1.1654837 0 0 Z " fill="#EC5A5F" transform="translate(20,130)"/>
<path d="M0 0 C2.97 0.495 2.97 0.495 6 1 C5.67 2.65 5.34 4.3 5 6 C4.67 5.34 4.34 4.68 4 4 C1.98330173 2.86649466 1.98330173 2.86649466 0 2 C0 1.34 0 0.68 0 0 Z " fill="#F07F83" transform="translate(168,125)"/>
<path d="M0 0 C0.66 0 1.32 0 2 0 C1.6875 2.375 1.6875 2.375 1 5 C0.01 5.66 -0.98 6.32 -2 7 C-2.99 6.34 -3.98 5.68 -5 5 C-4.360625 4.731875 -3.72125 4.46375 -3.0625 4.1875 C-0.66868314 3.11332248 -0.66868314 3.11332248 0 0 Z " fill="#ED6468" transform="translate(206,99)"/>
<path d="M0 0 C1.485 0.99 1.485 0.99 3 2 C2.67 2.99 2.34 3.98 2 5 C1.34 5 0.68 5 0 5 C-0.33 5.66 -0.66 6.32 -1 7 C-1.04254356 5.00045254 -1.04080783 2.99958364 -1 1 C-0.67 0.67 -0.34 0.34 0 0 Z " fill="#E94E54" transform="translate(61,95)"/>
<path d="M0 0 C1.32 0.33 2.64 0.66 4 1 C3.67 2.65 3.34 4.3 3 6 C2.34 6 1.68 6 1 6 C0.67 4.02 0.34 2.04 0 0 Z " fill="#DC2830" transform="translate(151,75)"/>
<path d="M0 0 C0.66 0 1.32 0 2 0 C2 1.65 2 3.3 2 5 C0.02 5.99 0.02 5.99 -2 7 C-2.66 6.34 -3.32 5.68 -4 5 C-3.01 4.67 -2.02 4.34 -1 4 C-0.26676204 1.98491642 -0.26676204 1.98491642 0 0 Z " fill="#D5646D" transform="translate(135,25)"/>
<path d="M0 0 C1.32 1.65 2.64 3.3 4 5 C1 6 1 6 -1.1875 5.0625 C-1.785625 4.711875 -2.38375 4.36125 -3 4 C-3 3.34 -3 2.68 -3 2 C-2.01 2 -1.02 2 0 2 C0 1.34 0 0.68 0 0 Z " fill="#C83642" transform="translate(70,6)"/>
</svg>
