<svg width="40" height="40" viewBox="0 0 40 40" fill="none" xmlns="http://www.w3.org/2000/svg">
<path d="M20.0008 27.4197C19.7216 27.578 17.7245 29.2709 13.7501 29.2709C10.4018 29.2726 6.82641 27.5572 5.70336 27.5905C5.30852 27.5738 4.9918 27.654 4.74281 27.7634C4.27401 27.9603 3.81876 27.6728 4.07295 27.1915C4.9543 25.5257 6.44823 24.5006 7.86402 24.0734C8.89643 23.762 9.83923 23.6567 10.3289 24.2005C11.404 25.3944 13.348 26.8685 15.2378 27.0623C15.3899 27.078 16.0764 27.1353 16.0837 26.9415C16.0912 26.8227 15.8576 26.7456 15.6211 26.7279C13.6907 26.5883 10.2122 24.5225 8.30052 20.522C7.58273 19.0208 7.01286 17.5654 5.76377 16.932C5.48665 16.7987 5.47833 16.2872 6.05964 16.1486C6.46698 16.0517 9.03498 15.8048 11.9718 17.3508C13.3198 18.0603 13.5084 18.6968 13.5126 19.2521C13.5011 23.4442 15.6222 25.1079 16.442 25.5997C16.8983 25.8726 17.3255 25.9893 17.3713 25.8466C17.4078 25.7268 17.288 25.6455 17.1828 25.5819C14.6398 24.038 13.9678 21.6628 13.948 19.2448C13.9293 16.8528 14.8148 14.7828 15.443 13.0868C15.5357 12.8472 15.8336 11.8367 15.5805 10.9011C15.3909 10.2032 15.5451 10 15.9118 10C16.315 10 16.8515 10.6521 17.0317 10.8761C17.1765 11.0439 17.6443 11.6148 18.3527 13.0139C19.7539 15.784 19.7633 18.678 19.7633 19.0323C19.7633 21.021 19.2507 21.2513 18.4152 21.6638C17.5807 22.0763 17.1838 22.6077 17.1828 23.2244C17.1811 23.8578 17.6224 24.5172 18.4152 24.7496C19.0288 24.9287 19.4184 24.861 19.3861 24.7016C19.3611 24.5756 19.0892 24.5443 19.0101 24.5225C18.1735 24.2954 17.6193 23.8672 17.6193 23.2244C17.6193 22.4222 18.6079 21.8336 19.9987 21.8336C21.3905 21.8336 22.3792 22.4222 22.3792 23.2244C22.3792 23.8672 21.826 24.2964 20.9894 24.5225C20.9103 24.5444 20.6384 24.5755 20.6133 24.7016C20.5811 24.8621 20.9707 24.9298 21.5853 24.7496C22.3771 24.5183 22.8178 23.8588 22.8167 23.2244C22.8159 22.6087 22.4188 22.0763 21.5853 21.6638C20.7498 21.2513 20.2362 21.021 20.2362 19.0333C20.2362 18.6791 20.2467 15.784 21.6468 13.0139C22.3552 11.6158 22.823 11.0439 22.9678 10.8761C23.148 10.6521 23.6845 10 24.0877 10C24.4544 10 24.6086 10.2032 24.419 10.9011C24.1679 11.8367 24.4638 12.8472 24.5555 13.0868C25.1847 14.7849 26.0713 16.8528 26.0525 19.2448C26.0317 21.6638 25.3608 24.0391 22.8178 25.583C22.7136 25.6455 22.5907 25.7268 22.6292 25.8466C22.674 25.9903 23.1011 25.8747 23.5574 25.6007C24.3784 25.109 26.4984 23.4442 26.488 19.2521C26.4913 18.6968 26.6797 18.0603 28.0288 17.3508C30.9656 15.8048 33.5335 16.0528 33.9398 16.1486C34.5211 16.2872 34.5139 16.7997 34.2368 16.932C32.9866 17.5654 32.4167 19.0218 31.7 20.522C29.7883 24.5225 26.3088 26.5894 24.3784 26.729C24.1419 26.7456 23.9075 26.8238 23.9158 26.9425C23.9233 27.1353 24.6096 27.0779 24.7617 27.0623C26.6515 26.8696 28.5955 25.3955 29.6706 24.2005C30.1613 23.6578 31.1031 23.762 32.1365 24.0745C33.5512 24.5006 35.0452 25.5257 35.9265 27.1925C36.1818 27.6738 35.7265 27.9603 35.2567 27.7645C35.0077 27.6551 34.691 27.5749 34.2961 27.5905C33.1741 27.5582 29.5987 29.273 26.2484 29.2719C22.275 29.2719 20.2789 27.578 20.0008 27.4197Z" fill="#D99E09"/>
</svg>
