<svg width="40" height="40" viewBox="0 0 40 40" fill="none" xmlns="http://www.w3.org/2000/svg">
<path d="M26.1445 32.0646C15.5613 34.9264 12.2657 24.6307 2 24.8784L15.034 10.657C16.8018 8.72808 17.8897 8 22.3564 8H37L26.1445 32.0646Z" fill="url(#paint0_linear_21_833)"/>
<path fill-rule="evenodd" clip-rule="evenodd" d="M17.7655 13.373C17.7655 13.373 18.4231 12.1664 18.9417 11.7711C18.9417 11.7711 19.5086 11.4294 19.5249 10.8677C19.5249 10.8677 19.5672 10.4902 19.2611 10.2584C19.2611 10.2584 18.4609 9.60757 17.8123 10.7131C17.8123 10.7131 14.7505 16.4786 13.6962 22.2887C13.6962 22.2887 13.6152 22.4789 13.5944 21.947L13.1264 16.8947L13.1212 16.8323C13.1063 16.6332 13.0788 16.2766 12.711 16.2498C12.711 16.2498 12.2281 16.1607 11.9435 16.8828L10.5854 20.2114C10.5854 20.2114 10.361 20.6304 10.7221 20.7879C10.7221 20.7879 11.1255 21.0138 11.3893 20.4521L12.0164 19.1118C12.1419 18.8383 12.2348 18.877 12.2348 18.877C12.3069 18.8918 12.3366 19.1653 12.3366 19.1653L12.8938 25.7629C12.9005 25.8134 12.9495 26.3394 13.3916 26.3394C13.7141 26.3365 13.8144 25.9798 13.8783 25.6827L13.9184 25.4894C14.0781 24.7049 14.648 21.9054 15.5351 18.9126C16.1867 16.7134 17.027 14.5142 17.7655 13.373ZM16.8621 19.082C16.2305 19.2247 16.1481 19.9409 16.1481 19.9409L15.761 22.791C15.6986 23.3586 16.4363 22.9455 16.4363 22.9455C16.7395 22.7672 16.793 22.3928 16.793 22.3928L16.9104 21.6795L17.2692 19.7507C17.3859 18.9453 16.8621 19.082 16.8621 19.082ZM17.8829 21.1535C17.9163 20.8236 18.1236 19.3376 18.1236 19.3376C18.1935 18.4104 18.6957 18.3896 18.6957 18.3896L19.1631 18.3301C19.1631 18.3301 19.3265 18.3153 19.6341 18.1756C20.0368 18.0003 20.1653 18.3301 20.1653 18.3301C20.3726 18.7522 19.6913 19.0553 19.6913 19.0553C19.0561 19.3971 19.0226 20.1935 19.0226 20.1935L18.9134 21.2694C18.828 22.0302 18.2826 22.1817 18.2826 22.1817C17.6065 22.4076 17.8829 21.1535 17.8829 21.1535ZM17.5984 17.6347C18.0144 17.3019 17.8911 17.0284 17.8911 17.0284C17.7366 16.5827 17.1719 17.0582 17.1719 17.0582C16.6964 17.397 16.8621 17.7268 16.8621 17.7268C17.0701 18.0835 17.5984 17.6347 17.5984 17.6347ZM25.153 18.984C25.0579 19.5932 24.5177 19.7091 24.5177 19.7091C24.0229 19.8369 24.1299 19.3525 24.1299 19.3525L24.2034 18.8978L24.6069 16.657C24.7005 16.1488 25.2183 16.0477 25.2183 16.0477C25.6411 15.9556 25.5007 16.5529 25.4873 16.6302C25.4732 16.7075 25.153 18.984 25.153 18.984ZM25.8098 14.9481C25.8098 14.9481 26.2614 14.5766 26.0557 14.3032C26.0557 14.3032 25.8632 14.0179 25.3283 14.3953C25.3283 14.3953 24.8491 14.7847 25.1425 15.061C25.1425 15.061 25.4212 15.3226 25.8098 14.9481ZM30.5915 17.6228C31.0812 17.4118 31.3569 17.5396 31.4631 17.7209C31.5737 17.9141 31.5412 18.1013 31.4505 18.235C31.2951 18.4609 30.767 18.6392 30.3582 18.7581C30.0521 18.8473 29.8137 18.9364 29.8137 18.9364C29.09 19.1653 28.24 19.5011 28.24 19.5011C26.2756 20.3302 24.5192 21.2397 22.9887 22.1342C22.9671 22.3541 22.9515 22.5324 22.947 22.6573C22.947 22.6573 22.6692 25.8847 22.632 26.3603C22.632 26.3603 22.6209 26.9487 22.7026 27.3053L22.7286 27.4123C22.8237 27.7957 22.985 28.4494 22.5369 28.7347C22.135 28.9934 21.7784 28.6903 21.6988 28.5922C21.6439 28.5238 21.4975 28.3425 21.609 27.436C21.609 27.436 21.8512 25.118 21.9076 24.3691L22.0362 22.7078C18.0412 25.1774 15.8783 27.3855 15.8783 27.3855C15.6592 27.5876 15.1272 28.0394 14.7431 27.543C14.3813 27.0795 15.3508 26.3692 15.3508 26.3692C17.4616 24.586 19.9075 23.0079 22.109 21.7419L22.1469 21.2278C22.1469 21.2278 22.1721 21.0643 21.9968 21.1802C21.9968 21.1802 21.2538 21.6141 20.7114 21.3645C20.7114 21.3645 20.276 21.1743 20.2924 20.5323C20.2924 20.5323 20.2902 18.5084 21.1424 17.6674C21.1424 17.6674 21.6327 17.1592 22.1112 17.177C22.3987 17.1889 22.3623 17.608 21.9804 17.9319C21.6543 18.2083 21.5673 18.5441 21.467 18.9394L21.4076 19.1653C21.4076 19.1653 21.1037 20.5383 21.6142 20.4818C21.6142 20.4818 22.1305 20.5204 22.2895 19.6526L22.6759 17.5129L22.6811 17.4832C22.7197 17.2335 22.7977 16.7402 23.239 16.758C23.239 16.758 23.7086 16.758 23.6581 17.1414C23.6581 17.1414 23.3059 19.4951 23.0986 21.1832C26.1011 19.5248 28.4325 18.5352 28.4325 18.5352C28.5224 18.4876 28.4838 18.4698 28.4838 18.4698C28.1241 18.348 28.2943 17.5515 28.2943 17.5515L28.4696 15.9407C28.4763 15.5425 27.9889 15.7802 27.9889 15.7802C27.6449 15.9704 27.4078 16.4133 27.4078 16.4133C27.2065 16.6896 27.0846 18.0983 27.0846 18.0983C27.0364 18.8175 26.6137 18.9364 26.6137 18.9364C26.1143 19.1088 26.0571 18.8324 26.0571 18.8324C25.997 18.7046 26.1129 18.0181 26.1129 18.0181L26.3298 16.2647C26.3699 15.5247 26.913 15.382 26.913 15.382C27.0364 15.3463 27.1946 15.3196 27.3715 15.379C27.5475 15.4385 27.6702 15.4266 27.7735 15.3998C27.9555 15.3553 28.1918 15.1353 28.1918 15.1353C28.6755 14.7103 28.9748 14.746 28.9748 14.746C29.541 14.743 29.4637 15.4622 29.4637 15.4622L29.266 17.4415C29.2036 18.2826 29.8248 17.9616 29.8404 17.9527L30.5915 17.6228Z" fill="white"/>
<defs>
<linearGradient id="paint0_linear_21_833" x1="30.9333" y1="26.8643" x2="20.7567" y2="8.03152" gradientUnits="userSpaceOnUse">
<stop offset="0.84" stop-color="#C52032"/>
<stop offset="0.868297" stop-color="#C62335"/>
<stop offset="0.889821" stop-color="#C82D3E"/>
<stop offset="0.909114" stop-color="#CD3D4D"/>
<stop offset="0.927111" stop-color="#D35462"/>
<stop offset="0.944205" stop-color="#DA727D"/>
<stop offset="0.960618" stop-color="#E4969F"/>
<stop offset="0.976481" stop-color="#EFC2C7"/>
<stop offset="0.991548" stop-color="#FCF3F4"/>
<stop offset="0.995" stop-color="white"/>
</linearGradient>
</defs>
</svg>
