<svg width="40" height="40" viewBox="0 0 40 40" fill="none" xmlns="http://www.w3.org/2000/svg">
<g clip-path="url(#clip0_20_12057)">
<path fill-rule="evenodd" clip-rule="evenodd" d="M8.59852 17.1048C7.6364 18.2083 5.67466 20.4154 5.21234 22.9448C4.73753 25.4743 4.99993 27.7061 6.58681 28.9461C9.19829 30.9795 11.8473 29.69 13.0593 28.2393L17.9199 22.4241C19.9691 19.969 21.3685 18.5555 24.9171 17.4148C28.7157 16.1996 33.3763 16.1376 35.6255 13.3106C36.4626 12.4551 36.925 11.3639 36.9999 10C33.9261 11.3639 26.0167 9.46683 20.294 17.2288L12.7219 27.4829C11.2225 29.5164 8.11121 29.4544 6.72425 27.9541C5.48724 26.615 5.91207 24.7551 6.82421 23.1308C7.59891 21.7421 8.62351 20.7626 10.1104 19.783C11.4099 18.9275 12.8094 18.0099 13.3966 16.708C13.734 15.9516 13.684 13.6454 13.0718 13.5214C12.4595 13.3974 10.1479 13.5958 9.44819 14.0422C8.81094 14.4389 8.88591 15.0465 8.88591 15.7409C8.88591 16.1624 8.8984 16.77 8.59852 17.1048Z" fill="#00A693"/>
<path fill-rule="evenodd" clip-rule="evenodd" d="M13.3967 29.1194L18.2074 23.1678C19.7817 21.2211 21.656 19.2992 25.2046 18.1585C26.5416 17.7245 27.9785 17.4394 29.3905 17.1294L31.3022 16.8318C30.7899 19.6216 28.8907 21.1715 25.592 21.6055C22.868 21.9651 20.369 22.9198 18.1699 24.5813C16.4081 25.908 14.9836 27.7679 13.5092 29.5162C13.0344 30.0618 12.9094 29.727 13.3967 29.1194Z" fill="#00A693"/>
<path fill-rule="evenodd" clip-rule="evenodd" d="M17.2328 26.4908C15.9083 28.1895 16.7955 30.5082 19.257 29.727C20.4815 29.3427 20.8439 28.3383 21.3437 27.2472C21.8935 26.032 23.4554 25.4865 25.0422 26.4908C24.6299 24.9285 23.093 24.3705 21.9684 24.3581C19.9442 24.321 18.2824 25.1393 17.2328 26.4908Z" fill="#00A693"/>
</g>
<defs>
<clipPath id="clip0_20_12057">
<rect width="32" height="20" fill="white" transform="translate(5 10)"/>
</clipPath>
</defs>
</svg>
