<svg width="40" height="40" viewBox="0 0 40 40" fill="none" xmlns="http://www.w3.org/2000/svg">
<path d="M16.1323 18.9832L13.6239 15.3789C13.6239 15.3789 12.4967 16.6043 12.2427 16.8709C11.9887 17.1426 11.7505 17.3221 11.3166 17.2657C10.7821 17.1888 8.44299 16.7222 8.44299 16.7222C8.44299 16.7222 8.25778 19.5164 8.23132 19.783C8.19956 20.065 8.10431 20.4188 7.60156 20.8341L16.1323 18.9832Z" fill="#00AAA6"/>
<path d="M25.658 16.9074L28.6268 11.6829C28.6268 11.6829 26.674 12.5032 26.039 12.7698C25.3987 13.0364 25.1446 12.9954 25.0441 12.5596C24.9594 12.1392 24.4831 8.9502 24.4567 8.76562C24.2714 8.94507 21.0274 12.1341 20.5776 12.5596C20.1066 12.9954 19.805 13.0364 19.4028 12.7698C18.9953 12.5032 17.7623 11.6932 17.7623 11.6932L16.217 18.9582L25.658 16.9074Z" fill="#00AAA6"/>
<path d="M31.1352 19.7786C31.3363 19.512 33.4902 16.7178 33.4902 16.7178C33.4902 16.7178 30.8441 17.1844 30.2356 17.2613C29.7593 17.3177 29.6852 17.1382 29.664 16.8665C29.6481 16.7281 29.5635 15.1797 29.5635 15.1797L25.7215 16.9793L16.8414 27.1103L23.393 28.0947C23.393 28.0947 23.4141 27.1257 23.4406 26.4028C23.4776 25.685 23.8957 25.5568 24.155 25.4081C24.4037 25.2543 31.8814 21.0707 31.8814 21.0707L31.1299 20.6759C30.6748 20.4503 30.9341 20.0504 31.1352 19.7786Z" fill="#00AAA6"/>
<path d="M6.49017 21.0337C6.49017 21.0337 9.65481 24.6534 9.78711 24.8021C10.5386 25.6583 10.5227 26.0069 9.75535 26.9144C9.15206 27.6271 8.76575 28.0885 8.76575 28.0885C8.76575 28.0885 13.1581 27.3707 13.7667 27.2733C14.3277 27.181 14.8886 27.3349 14.751 28.0783C14.6558 28.591 14.1319 31.3955 14.1319 31.3955L16.7514 27.0836L21.3714 19.4648L7.47449 20.9209L6.49017 21.0337Z" fill="#1A3F70"/>
<path d="M25.716 16.9897L16.8466 27.1157L16.7461 27.1003L21.366 19.4866L7.47443 20.9376L7.60673 20.835L16.1322 18.9842L16.2221 18.9637L25.6578 16.918L25.716 16.9897Z" fill="white"/>
</svg>
