<svg width="40" height="40" viewBox="0 0 40 40" fill="none" xmlns="http://www.w3.org/2000/svg">
<g clip-path="url(#clip0_20_12073)">
<path d="M20.2178 16.5906C20.8619 15.9997 22.0583 15.5148 24.2668 15.4239C28.6227 15.227 29.2975 14.9997 30.8926 14.1815C32.3036 13.4542 33.8067 12.03 34.3129 10.5754C33.5153 11.0603 32.549 11.4239 31.5675 11.6815C29.2515 12.2876 26.6748 12.3936 25.2024 12.3936C24.8803 12.3936 24.6043 12.3936 24.4049 12.3785C22.6257 12.3179 21.8282 12.1967 19.957 12.1967C19.6656 12.1967 19.3435 12.1967 19.0061 12.2118C17.273 12.2421 16.092 13.3027 15.6012 13.833C15.5552 13.8785 15.5245 13.9239 15.4938 13.9542C16.1073 14.6512 16.7822 15.2573 17.2423 15.6815C17.5797 16.0148 18.4846 16.6967 19.5736 17.5906C19.6503 17.333 19.819 16.9391 20.2178 16.5906Z" fill="#B4975A"/>
<path d="M18.9754 11.8182C19.3282 11.8182 19.6503 11.803 19.9417 11.803C21.8435 11.803 22.6411 11.9242 24.4049 11.9848C24.6042 11.9848 24.8803 12 25.2024 12C26.6595 12 29.2055 11.8939 31.4754 11.303C33.7607 10.7576 35.4171 9.59091 35.9999 8C34.1288 9.84848 29.2668 9.93939 26.4754 9.74242C23.5766 9.5303 18.4386 8.60606 17.5337 8.5303C16.9815 8.5 16.3374 8.48485 15.7239 8.75758C15.1104 9.04545 14.5582 9.63636 14.2822 10.4697C14.2055 10.7121 14.1748 10.9545 14.1748 11.197C14.1595 12.0455 14.6349 12.8939 15.2484 13.6515C15.6932 13.1212 16.9815 11.8636 18.9754 11.8182Z" fill="#B4975A"/>
<path d="M19.4353 29.5757C19.4353 28.9242 19.2666 28.303 19.0365 27.8636C17.9629 25.803 15.7237 23.7272 13.7605 21.5757C11.7819 19.3636 7.88624 16.0454 7.85557 12.7575C7.85557 12.3333 7.97827 11.9393 8.16232 11.5454C7.4568 12.3333 5.00281 15.5 6.45986 19.9697C6.98133 21.5757 8.7298 23.6969 10.5856 26.3484C12.3648 28.909 12.7635 32.2121 12.6715 34C18.193 33.7575 19.4046 31.5 19.4353 29.5757Z" fill="#A7A9AC"/>
<path d="M31.0613 14.515C29.4509 15.3483 28.6227 15.6059 24.2822 15.8029C20.7239 15.9696 20.1104 17.4999 19.9724 17.9393C20.4171 18.318 20.8926 18.7271 21.3681 19.1665C22.1963 19.9393 23.0245 20.7271 23.73 21.5302C23.73 19.4241 25.3558 19.1514 25.7546 18.9241C26.2607 18.6211 27.3036 18.4544 29.5582 17.1817C31.9662 15.818 32.503 13.9393 32.595 13.3938C32.1196 13.8483 31.5981 14.2271 31.0613 14.515Z" fill="#B4975A"/>
<path d="M20.9693 19.5756C19.2208 17.9544 17.4724 16.5908 16.8895 16.0302C15.9386 15.1059 13.684 13.3332 13.6687 11.1969C13.6687 10.909 13.7147 10.6211 13.8067 10.3332C14.1288 9.34837 15.0337 8.77261 15.7392 8.45443C14.2822 8.27261 9.89568 8.60595 8.65335 11.1817C8.42329 11.6514 8.31592 12.1211 8.31592 12.6211C8.28525 15.5302 11.9969 18.9393 14.0214 21.1514C15.9693 23.2878 18.3159 25.3181 19.4662 27.4847C19.7423 27.9999 19.9724 28.7272 19.957 29.4847C19.8957 31.3029 19.2515 31.9696 18.9294 32.1817C25.954 28.4544 24.6349 24.8484 24.6349 24.8484C24.3282 23.1969 22.7178 21.1969 20.9693 19.5756Z" fill="#A7A9AC"/>
</g>
<defs>
<clipPath id="clip0_20_12073">
<rect width="30" height="26" fill="white" transform="translate(6 8)"/>
</clipPath>
</defs>
</svg>
