<svg width="48" height="30" viewBox="0 0 48 30" fill="none" xmlns="http://www.w3.org/2000/svg">
<path d="M31.5781 7.22943C31.6181 7.22929 31.658 7.22916 31.6991 7.22901C31.8326 7.22875 31.966 7.22963 32.0995 7.23051C32.1953 7.23056 32.2911 7.23053 32.3869 7.23044C32.6198 7.2304 32.8528 7.2311 33.0857 7.23212C33.3568 7.23327 33.6279 7.23351 33.899 7.2337C34.3825 7.23405 34.8659 7.23512 35.3494 7.23664C35.8189 7.23812 36.2885 7.23925 36.758 7.23994C36.787 7.23998 36.8159 7.24002 36.8458 7.24007C36.991 7.24028 37.1363 7.24048 37.2816 7.24068C38.4862 7.24235 39.6908 7.24519 40.8955 7.24877C40.8692 7.3872 40.8361 7.51025 40.7828 7.64075C40.7678 7.67793 40.7527 7.71511 40.7372 7.75342C40.7207 7.79362 40.7042 7.83382 40.6872 7.87524C40.6699 7.91777 40.6526 7.9603 40.6348 8.00411C40.5777 8.14449 40.5203 8.28477 40.463 8.42505C40.4228 8.52361 40.3827 8.62219 40.3426 8.72077C40.2602 8.92313 40.1777 9.12546 40.0952 9.32775C39.9376 9.71409 39.7807 10.1007 39.6239 10.4874C39.575 10.6078 39.5261 10.7282 39.4772 10.8486C39.2296 11.4582 38.9825 12.0679 38.7355 12.6777C38.4394 13.4086 38.143 14.1393 37.8463 14.8699C37.5824 15.5197 37.3188 16.1697 37.0555 16.8198C36.774 17.5145 36.4924 18.209 36.2105 18.9034C36.1941 18.9438 36.1777 18.9841 36.1608 19.0257C36.0293 19.3495 35.8978 19.6734 35.7663 19.9972C35.651 20.2811 35.5357 20.5649 35.4205 20.8488C35.4041 20.8891 35.3877 20.9293 35.3709 20.9708C35.1224 21.5827 34.8743 22.1948 34.6264 22.8069C34.3416 23.51 34.0566 24.2131 33.7708 24.9159C33.7391 24.9938 33.7075 25.0718 33.6758 25.1497C33.6325 25.2562 33.5892 25.3626 33.5459 25.4691C33.5332 25.5005 33.5204 25.5318 33.5073 25.5642C33.42 25.7784 33.42 25.7784 33.3755 25.8681C29.6399 25.8681 25.9043 25.8681 22.0555 25.8681C22.1945 25.4952 22.3331 25.1242 22.4833 24.7561C22.5003 24.7141 22.5173 24.6722 22.5348 24.629C22.5899 24.4933 22.6452 24.3575 22.7005 24.2218C22.7396 24.1254 22.7788 24.029 22.8179 23.9326C22.8981 23.7352 22.9783 23.5378 23.0586 23.3405C23.1668 23.0743 23.2749 22.8081 23.383 22.5419C23.5147 22.2173 23.6464 21.8927 23.7783 21.5681C23.9607 21.119 24.143 20.6698 24.3254 20.2207C24.4087 20.0153 24.4921 19.81 24.5755 19.6047C24.6088 19.5226 24.6421 19.4405 24.6755 19.3584C24.8755 18.8657 24.8755 18.8657 24.9254 18.7426C24.9588 18.6604 24.9922 18.5782 25.0256 18.496C25.1083 18.2922 25.191 18.0884 25.2738 17.8846C25.4309 17.4976 25.588 17.1106 25.745 16.7236C25.8196 16.5395 25.8943 16.3554 25.969 16.1713C26.0048 16.083 26.0406 15.9947 26.0763 15.9064C26.1258 15.7845 26.1752 15.6626 26.2247 15.5407C26.2394 15.5042 26.2542 15.4678 26.2694 15.4303C26.2896 15.3805 26.2896 15.3805 26.3102 15.3298C26.3219 15.3009 26.3336 15.272 26.3457 15.2422C26.3671 15.1909 26.3907 15.1404 26.4155 15.0906C25.6634 15.5064 25.6634 15.5064 24.9206 15.9387C24.6533 16.0983 24.3831 16.2529 24.113 16.4076C23.7593 16.6102 23.4066 16.8141 23.0555 17.0209C22.6645 17.251 22.2715 17.4777 21.878 17.7033C21.5632 17.8837 21.2491 18.0652 20.9355 18.2474C20.5744 18.4572 20.2127 18.6656 19.8505 18.8733C19.5044 19.0717 19.1593 19.2716 18.8155 19.474C18.4245 19.7041 18.0315 19.9307 17.638 20.1564C17.3232 20.3368 17.0091 20.5182 16.6955 20.7005C16.3344 20.9103 15.9727 21.1187 15.6105 21.3264C15.2644 21.5248 14.9193 21.7247 14.5755 21.9271C14.1845 22.1572 13.7915 22.3838 13.398 22.6094C13.0832 22.7899 12.7691 22.9713 12.4555 23.1536C12.0944 23.3634 11.7327 23.5718 11.3705 23.7794C11.0244 23.9778 10.6793 24.1778 10.3354 24.3801C10.2176 24.4493 10.0997 24.5184 9.98186 24.5875C9.89296 24.6396 9.80411 24.6918 9.71529 24.7441C8.74895 25.312 8.74895 25.312 8.37295 25.4886C8.32876 25.5093 8.28457 25.5301 8.23904 25.5515C7.90289 25.6336 7.55148 25.5328 7.22295 25.4483C7.1821 25.4379 7.14124 25.4274 7.09915 25.4166C5.8936 25.0981 4.74994 24.6206 3.62295 24.0911C3.5951 24.0781 3.56725 24.065 3.53856 24.0516C3.12633 23.8582 2.72929 23.6439 2.33545 23.415C2.33545 23.3885 2.33545 23.3619 2.33545 23.3346C2.54842 23.2164 2.54842 23.2164 2.61684 23.1785C2.74502 23.1074 2.87319 23.0363 3.00137 22.9652C3.26515 22.8189 3.52895 22.6726 3.79279 22.5263C4.39643 22.1918 4.99937 21.8561 5.60174 21.5192C5.82627 21.3937 6.05086 21.2683 6.27545 21.1429C6.36545 21.0926 6.45545 21.0423 6.54545 20.9921C7.35545 20.5397 7.35545 20.5397 8.16545 20.0872C8.20999 20.0624 8.25454 20.0375 8.30043 20.0119C8.39049 19.9615 8.48056 19.9112 8.57063 19.861C8.79466 19.7358 9.01867 19.6107 9.24264 19.4854C9.73083 19.2125 10.2195 18.9404 10.7087 18.6693C11.1936 18.4005 11.6778 18.1303 12.1617 17.8597C12.3863 17.7342 12.6109 17.6088 12.8355 17.4834C12.9255 17.4331 13.0155 17.3828 13.1055 17.3326C13.2855 17.232 13.4655 17.1315 13.6455 17.0309C13.69 17.0061 13.7345 16.9812 13.7804 16.9556C13.8705 16.9053 13.9606 16.8549 14.0506 16.8047C14.2747 16.6795 14.4987 16.5544 14.7226 16.4291C15.2108 16.1562 15.6995 15.8841 16.1887 15.613C16.6736 15.3442 17.1578 15.074 17.6417 14.8034C17.8663 14.6779 18.0909 14.5525 18.3155 14.4271C18.4055 14.3768 18.4955 14.3265 18.5855 14.2763C19.1255 13.9746 19.6655 13.673 20.2055 13.3714C20.25 13.3465 20.2945 13.3217 20.3404 13.296C20.4305 13.2457 20.5206 13.1954 20.6106 13.1451C20.8347 13.02 21.0587 12.8949 21.2826 12.7696C21.7708 12.4967 22.2595 12.2246 22.7487 11.9535C23.2336 11.6847 23.7178 11.4145 24.2017 11.1439C24.4263 11.0184 24.6509 10.893 24.8755 10.7675C24.9655 10.7173 25.0555 10.667 25.1455 10.6167C25.6855 10.3151 26.2255 10.0135 26.7655 9.71191C26.81 9.68703 26.8545 9.66215 26.9004 9.63652C26.9905 9.58622 27.0806 9.53591 27.1706 9.48562C27.3947 9.3605 27.6187 9.23534 27.8426 9.11011C28.3065 8.8508 28.7707 8.59214 29.2355 8.33457C29.6274 8.11733 30.0191 7.89957 30.4105 7.68108C30.4775 7.64368 30.4775 7.64368 30.5458 7.60552C30.5877 7.58214 30.6295 7.55876 30.6726 7.53467C30.7272 7.50417 30.7272 7.50417 30.7829 7.47306C30.8991 7.4097 30.8991 7.4097 31.0173 7.32645C31.2004 7.22201 31.3718 7.22682 31.5781 7.22943Z" fill="#FB0E0B"/>
<path d="M33.5355 4.10385C33.6058 4.10357 33.6761 4.10328 33.7464 4.103C33.9694 4.10222 34.1924 4.10203 34.4155 4.10196C34.4534 4.10194 34.4914 4.10191 34.5305 4.10189C35.6395 4.1014 36.7434 4.10781 37.8476 4.2235C37.9364 4.23276 38.0253 4.24156 38.1142 4.25027C41.1752 4.55405 44.9696 5.23333 47.0442 7.74707C47.6479 8.50925 48.0383 9.43889 47.9355 10.4257C47.7254 11.8089 46.6759 12.9004 45.6012 13.7041C45.4908 13.7832 45.3856 13.842 45.2555 13.8841C45.2704 13.867 45.2852 13.8498 45.3006 13.8321C46.2102 12.7753 46.7433 11.5616 46.6555 10.1442C46.5912 9.45109 46.4256 8.92208 45.8844 8.45785C45.6609 8.2873 45.4214 8.14748 45.1755 8.01282C45.151 7.99935 45.1265 7.98588 45.1012 7.972C42.9321 6.80649 40.1447 6.60803 37.7355 6.48467C37.6932 6.48234 37.651 6.48002 37.6075 6.47762C33.6605 6.26528 29.6673 6.69677 19.1969 9.10809C19.1032 9.13649 19.0094 9.16474 18.9156 9.19294C16.946 9.7864 15.0148 10.5129 13.1355 11.3506C13.0902 11.3707 13.045 11.3909 12.9984 11.4116C11.8781 11.9134 10.7639 12.4556 9.71648 13.0983C9.61797 13.1587 9.51899 13.2183 9.41984 13.2776C8.5974 13.7725 7.81509 14.3328 7.09546 14.9699C7.07506 14.9879 7.05465 15.0059 7.03363 15.0244C6.24806 15.72 5.39833 16.6526 5.32015 17.756C5.29168 18.4549 5.59979 19.0377 6.05546 19.5544C6.21164 19.7191 6.37303 19.8785 6.53546 20.0369C6.44269 20.1402 6.34807 20.2005 6.22609 20.2654C6.18793 20.2858 6.14977 20.3063 6.11046 20.3274C6.06921 20.3494 6.02796 20.3713 5.98546 20.3939C5.65959 20.5689 5.33611 20.7471 5.01546 20.9317C4.61884 21.1593 4.21642 21.3748 3.81254 21.589C3.45641 21.7779 3.10289 21.9704 2.75296 22.1708C2.71613 22.1919 2.6793 22.2129 2.64135 22.2345C2.5078 22.3108 2.37427 22.3871 2.2412 22.4642C2.15711 22.5128 2.07262 22.5606 1.98796 22.6082C1.94243 22.6342 1.8969 22.6603 1.84999 22.6872C1.73546 22.7313 1.73546 22.7313 1.65624 22.7128C1.5373 22.6217 1.42295 22.5262 1.31046 22.4272C1.28565 22.4055 1.26084 22.3838 1.23528 22.3614C1.18519 22.3175 1.13517 22.2735 1.08521 22.2294C1.02489 22.1766 0.963762 22.1247 0.902493 22.073C0.408354 21.6479 0.108413 21.1659 0.0154621 20.5195C-0.119576 18.7132 0.643408 17.2054 1.77546 15.8546C1.90071 15.7102 2.03055 15.5703 2.16117 15.4307C2.21484 15.3727 2.26735 15.3137 2.31984 15.2546C2.77695 14.7406 3.28932 14.285 3.81546 13.8439C3.84003 13.8233 3.8646 13.8026 3.88992 13.7813C6.31259 11.751 9.17161 10.2315 12.0535 8.97362C12.1306 8.93986 12.2077 8.90589 12.2848 8.87182C15.557 7.42506 18.9895 6.38329 33.5355 4.10385Z" fill="#FB0E0B"/>
</svg>
