<svg xmlns="http://www.w3.org/2000/svg" viewBox="0 0 400 400" style="display: none;">
  <symbol id="tmx-icon-flight" viewBox="0 0 400 400">
    <path d="M377.599 133.2C363.83 94.8698 300.551 115.051 268.934 125.134C266.567 125.889 264.377 126.587 262.399 127.2C260.409 127.813 258.434 128.425 256.468 129.034L248.027 222.586C248.658 220.993 249.251 219.497 249.999 218C257.999 215.6 265.999 213.2 273.599 210.4C277.829 209.082 283.213 207.658 289.305 206.047C327.578 195.924 393.818 178.404 377.599 133.2Z" fill="#00c5f0"/>
<path d="M377.601 133.2C362.801 92.0002 290.801 118.4 262.401 127.2C252.001 130.4 242.001 133.6 231.601 136.4C206.401 126 189.601 102.4 167.601 86.8002C148.801 73.6002 130.401 78.0002 119.201 98.4002C116.801 102.8 118.001 106.8 120.801 110.4C132.801 125.6 144.801 141.2 157.201 156.4C145.201 159.6 132.801 162.8 121.201 163.6C104.001 164.4 83.6006 154.8 66.4006 150C64.8006 149.2 63.2006 148.8 61.6006 149.2C60.4006 149.2 59.2006 149.6 58.4006 150C48.0006 153.2 38.0006 156 27.6006 159.2C20.0006 161.6 17.6006 170.8 22.8006 176C34.0006 188 46.8006 199.2 60.4006 208C59.6006 210.8 59.6006 213.6 61.2006 216.4C66.8006 228.4 82.0006 234.8 94.4006 230.4C96.4006 229.6 98.0006 228.8 99.2006 227.2C111.601 231.6 124.401 234.4 138.001 235.2C149.601 236 161.201 236 172.401 234.8C167.201 258.4 161.601 282.4 156.401 306C155.201 310.8 158.001 317.2 163.201 318.4C184.801 322 204.801 319.6 215.201 298.4C220.001 288 224.801 277.6 229.201 267.2C238.401 269.2 248.001 264.8 252.801 256.8C257.601 248 256.401 236.8 250.401 229.2C249.201 227.6 248.001 226.8 246.801 225.6C248.001 222.8 248.801 220.4 250.001 218C258.001 215.6 266.001 213.2 273.601 210.4C304.401 200.8 396.401 185.6 377.601 133.2ZM330.001 171.6C307.201 181.2 283.201 186.8 259.601 194.4C262.001 183.6 246.401 175.6 241.601 186.4C232.001 209.2 222.401 232 212.401 254.8C208.001 265.6 204.001 277.2 198.401 287.2C193.201 296.8 186.801 300.4 178.001 300.4C185.601 267.6 192.801 234.4 200.401 201.6C203.201 189.2 184.001 183.6 181.201 196.4C180.001 202.4 178.401 208 177.201 214C127.201 220 85.6006 207.2 49.2006 174C53.6006 172.8 57.6006 171.6 62.0006 170C76.8006 174.4 91.6006 178.8 106.401 182.8C120.401 186.4 133.601 182.4 148.001 179.2C174.401 173.6 199.601 166 225.601 158.8C251.201 151.6 276.801 142 303.201 136.8C316.401 134.4 335.201 128.4 348.801 132C362.001 135.6 362.801 147.6 353.601 158C347.201 164.8 338.001 168.4 330.001 171.6ZM189.601 132.8C194.401 136.8 199.201 140.8 204.401 144.4C195.601 146.8 186.401 149.2 177.601 151.6C177.201 151.2 176.801 150.4 176.401 150C164.401 134.8 152.401 119.2 140.401 104C154.001 93.2002 180.401 124.8 189.601 132.8Z" fill="currentcolor"/>
  </symbol>

 <symbol id="tmx-icon-sighseeing" viewBox="0 0 400 400">
    <path fill-rule="evenodd" clip-rule="evenodd" d="M200.067 170.583C196.083 163.9 190.9 157.933 185 152.9C171.4 141.3 153.317 134.033 135.25 134.033C122.617 134.033 109.083 137.6 97.4 143.633C85.7833 149.65 75.2 158.55 69.3833 169.85L69 170.683V115.65L69.3833 114.817C75.2 103.517 85.7833 94.6167 97.4 88.6C109.083 82.5667 122.617 79 135.25 79C153.317 79 171.4 86.2667 185 97.8667C190.9 102.9 196.083 108.867 200.067 115.55C204.05 108.867 209.233 102.9 215.133 97.8667C228.733 86.2667 246.817 79 264.883 79C277.517 79 291.05 82.5667 302.717 88.6C314.35 94.6167 324.95 103.517 330.75 114.8L331.133 115.65V170.683L330.75 169.833C324.95 158.55 314.35 149.65 302.717 143.633C291.05 137.6 277.517 134.033 264.883 134.033C246.817 134.033 228.733 141.3 215.133 152.9C209.233 157.933 204.05 163.9 200.067 170.583Z" fill="#00c5f0"/>
    <path fill-rule="evenodd" clip-rule="evenodd" d="M27.0487 205.7L64.932 98.4165C65.1279 97.8889 65.3505 97.3715 65.5987 96.8665C71.932 84.5665 83.2987 75.1498 95.432 68.8665C107.632 62.5498 121.815 58.7998 135.182 58.7998C154.315 58.7998 173.349 66.4665 187.632 78.6665C192.215 82.5665 196.415 87.0331 199.999 91.9665C203.579 87.0588 207.731 82.5942 212.365 78.6665C226.649 66.4831 245.682 58.7998 264.815 58.7998C278.182 58.7998 292.365 62.5498 304.582 68.8665C316.699 75.1498 328.065 84.5665 334.399 96.8665C334.654 97.3665 334.877 97.8831 335.065 98.4165L372.949 205.683C377.477 217.029 379.552 229.205 379.038 241.411C378.525 253.616 375.433 265.575 369.968 276.5C364.502 287.426 356.786 297.07 347.327 304.801C337.868 312.531 326.879 318.172 315.084 321.352C303.289 324.532 290.954 325.18 278.891 323.253C266.828 321.325 255.309 316.867 245.092 310.17C234.875 303.473 226.191 294.689 219.611 284.396C213.032 274.103 208.705 262.534 206.915 250.45H193.082C189.909 272.081 178.671 291.712 161.623 305.399C144.575 319.087 122.98 325.819 101.173 324.243C79.3674 322.667 58.9648 312.899 44.0624 296.902C29.16 280.905 20.8611 259.863 20.832 238M69.6987 160L88.1987 107.633C91.5487 101.583 98.0987 95.6331 106.915 91.0831C115.949 86.3998 126.215 83.7998 135.182 83.7998C147.865 83.7998 161.249 89.0165 171.415 97.6831C181.549 106.333 187.499 117.5 187.499 128.916V205.033C183.005 194.109 176.325 184.219 167.868 175.973C159.411 167.726 149.356 161.297 138.322 157.08C127.288 152.864 115.508 150.949 103.707 151.454C91.9055 151.959 80.3322 154.856 69.6987 160ZM167.732 225.566C168.554 229.578 168.971 233.716 168.982 237.983C168.963 253.771 162.88 268.948 151.99 280.378C141.1 291.809 126.234 298.619 110.466 299.401C94.6978 300.183 79.2316 294.878 67.2634 284.582C55.2952 274.286 47.7397 259.785 46.1584 244.077C44.577 228.368 49.0905 212.653 58.7663 200.178C68.4421 187.702 82.5405 179.421 98.1484 177.045C113.756 174.668 129.68 178.379 142.631 187.409C155.581 196.439 164.567 210.099 167.732 225.566ZM212.499 205.066C215.732 197.183 220.099 189.9 225.399 183.4C233.623 173.241 244.047 165.083 255.884 159.539C267.721 153.996 280.663 151.213 293.732 151.4C306.406 151.569 318.888 154.516 330.299 160.033L311.799 107.65C308.449 101.6 301.899 95.6498 293.099 91.0998C284.049 86.4165 273.765 83.8165 264.815 83.8165C252.132 83.8165 238.749 89.0331 228.582 97.6998C218.449 106.35 212.499 117.516 212.499 128.933V205.066ZM231.015 237.983C231.277 254.139 237.877 269.544 249.392 280.878C260.908 292.212 276.417 298.566 292.574 298.57C308.731 298.575 324.243 292.229 335.765 280.901C347.287 269.574 353.895 254.172 354.165 238.016V237.983C354.166 236.86 354.138 235.738 354.082 234.616C353.217 218.89 346.361 204.092 334.922 193.264C323.484 182.437 308.332 176.402 292.582 176.4C284.493 176.391 276.482 177.978 269.007 181.07C261.533 184.162 254.741 188.698 249.022 194.419C243.303 200.139 238.769 206.932 235.679 214.407C232.589 221.883 231.004 229.894 231.015 237.983Z" fill="currentcolor"/>
    <path d="M27.0487 205.7C22.9378 215.961 20.8276 226.913 20.832 237.967Z" fill="currentcolor"/>
  </symbol>

  <symbol id="tmx-icon-hotel" viewBox="0 0 400 400">
    <path d="M249.007 358.814H336.543C344.229 358.814 350.324 356.314 354.829 351.314C359.329 346.295 361.579 339.59 361.579 331.2V137.614C361.579 129.219 359.329 122.519 354.829 117.514C350.324 112.505 344.229 110 336.543 110H256.436V331.214C256.436 336.371 255.805 341.252 254.543 345.857C253.299 350.413 251.434 354.775 249 358.821M290.871 186.779V162.5C290.871 158.962 292.64 157.193 296.179 157.193H321.364C324.907 157.193 326.676 158.962 326.671 162.5V186.779C326.671 190.421 324.902 192.243 321.364 192.243H296.179C292.64 192.243 290.871 190.421 290.871 186.779ZM290.871 246.557V222.279C290.871 218.74 292.64 216.971 296.179 216.971H321.364C324.907 216.971 326.676 218.74 326.671 222.279V246.557C326.671 250.095 324.902 251.864 321.364 251.864H296.179C292.64 251.864 290.871 250.095 290.871 246.557ZM290.871 306.329V282.057C290.871 278.414 292.64 276.593 296.179 276.593H321.364C324.907 276.593 326.676 278.414 326.671 282.057V306.329C326.671 309.871 324.902 311.643 321.364 311.643H296.179C292.64 311.643 290.871 309.871 290.871 306.329Z" fill="#00c5f0"/>
     <path d="M46.6368 359.45C38.8464 359.45 32.6964 356.945 28.1868 351.936C24.0297 347.307 21.7916 341.236 21.4725 333.722L21.4297 331.814V63.3572C21.4297 54.8525 23.6821 48.1215 28.1868 43.1644C32.344 38.5834 37.9035 36.1167 44.8654 35.7644L46.644 35.7144H238.123C245.813 35.7144 251.913 38.1953 256.423 43.1572C260.58 47.7286 262.818 53.8167 263.137 61.4215L263.173 63.3501V110.421H353.53C360.625 110.421 366.365 112.557 370.751 116.829L371.823 117.943C375.984 122.562 378.223 128.631 378.537 136.15L378.58 138.057V331.814C378.58 340.214 376.327 346.922 371.823 351.936C367.665 356.555 362.149 359.045 355.273 359.407L353.523 359.45H46.6368ZM263.165 331.814C263.165 332.91 263.127 333.974 263.051 335.007H345.465C348.404 335.007 350.582 334.298 352.001 332.879C353.215 331.66 353.908 329.85 354.08 327.45L354.13 326.2V143.679C354.13 140.641 353.42 138.412 352.001 136.993C350.787 135.779 349.013 135.086 346.68 134.914L345.465 134.872L263.165 134.864V331.814ZM230.073 60.1644H54.6868C51.6487 60.1644 49.4202 60.8715 48.0011 62.2858C46.7868 63.5048 46.094 65.3144 45.9225 67.7144L45.8797 68.9715V326.2C45.8797 329.233 46.5868 331.46 48.0011 332.879C49.2202 334.093 51.0297 334.786 53.4297 334.957L54.6868 335.007L89.4511 335V290.214C89.4511 284.229 90.6892 279.688 93.1654 276.593L93.9368 275.707C96.6511 272.898 100.684 271.367 106.037 271.114L107.68 271.079H176.923C183.194 271.079 187.799 272.622 190.737 275.707C193.408 278.517 194.865 282.767 195.108 288.457L195.144 290.207L195.137 335H230.065C233.004 335 235.18 334.293 236.594 332.879C237.808 331.66 238.504 329.85 238.68 327.45L238.723 326.2V68.9715C238.723 65.9334 238.013 63.7048 236.594 62.2858C235.18 60.8715 233.011 60.1644 230.073 60.1644ZM170.394 290.972H114.208C111.265 290.972 109.658 292.31 109.387 294.986L109.351 295.829L109.344 335H175.244V295.829C175.244 292.886 173.908 291.279 171.237 291.007L170.394 290.972ZM320.873 275.936C324.025 275.936 325.732 277.381 325.994 280.272L326.03 281.1V304.786C326.03 307.943 324.584 309.652 321.694 309.914L320.873 309.95H296.423C293.365 309.95 291.706 308.505 291.444 305.614L291.415 304.786V281.1C291.415 277.943 292.82 276.233 295.63 275.972L296.423 275.936H320.873ZM320.873 217.936C324.025 217.936 325.732 219.381 325.994 222.272L326.03 223.093V246.779C326.03 249.936 324.584 251.645 321.694 251.907L320.873 251.943H296.423C293.365 251.943 291.706 250.498 291.444 247.607L291.415 246.779V223.093C291.415 219.936 292.82 218.226 295.63 217.964L296.423 217.929L320.873 217.936ZM121.494 205.629C125.332 205.629 127.396 207.398 127.687 210.936L127.723 211.857V240.557C127.723 244.386 125.954 246.448 122.415 246.743L121.494 246.779H91.8868C88.244 246.779 86.2821 245.012 86.0011 241.479L85.9654 240.55V211.857C85.9654 208.029 87.6464 205.964 91.0083 205.664L91.8868 205.629H121.494ZM192.565 205.629C196.394 205.629 198.456 207.398 198.751 210.936L198.787 211.857V240.557C198.787 244.386 197.018 246.448 193.48 246.743L192.558 246.779H163.101C159.363 246.779 157.351 245.012 157.065 241.479L157.03 240.55V211.857C157.03 208.029 158.754 205.964 162.201 205.664L163.101 205.629H192.565ZM320.873 159.922C324.025 159.922 325.732 161.369 325.994 164.264L326.03 165.086V188.779C326.03 191.931 324.584 193.638 321.694 193.9L320.873 193.936H296.423C293.365 193.936 291.706 192.491 291.444 189.6L291.415 188.779V165.086C291.415 161.938 292.82 160.229 295.63 159.957L296.423 159.922H320.873ZM121.494 145.493C125.332 145.493 127.396 147.264 127.687 150.807L127.723 151.721V180.422C127.723 184.26 125.954 186.324 122.415 186.614L121.494 186.65H91.8868C88.244 186.65 86.2821 184.881 86.0011 181.343L85.9654 180.422V151.721C85.9654 147.893 87.6464 145.831 91.0083 145.536L91.8868 145.5L121.494 145.493ZM192.565 145.493C196.394 145.493 198.456 147.264 198.751 150.807L198.787 151.721V180.422C198.787 184.26 197.018 186.324 193.48 186.614L192.558 186.65H163.101C159.363 186.65 157.351 184.881 157.065 181.343L157.03 180.422V151.721C157.03 147.893 158.754 145.831 162.201 145.536L163.101 145.5L192.565 145.493ZM121.494 85.3715C125.332 85.3715 127.396 87.1382 127.687 90.6715L127.723 91.6001V120.293C127.723 124.122 125.954 126.183 122.415 126.479L121.494 126.521H91.8868C88.244 126.521 86.2821 124.752 86.0011 121.214L85.9654 120.293V91.5929C85.9654 87.7644 87.6464 85.7025 91.0083 85.4072L91.8868 85.3715H121.494ZM192.565 85.3715C196.394 85.3715 198.456 87.1382 198.751 90.6715L198.787 91.6001V120.293C198.787 124.122 197.018 126.183 193.48 126.479L192.558 126.521H163.101C159.363 126.521 157.351 124.752 157.065 121.214L157.03 120.293V91.5929C157.03 87.7644 158.754 85.7025 162.201 85.4072L163.101 85.3715H192.565Z" fill="#currentcolor"/>
  </symbol>

  <symbol id="tmx-icon-transfers" viewBox="0 0 400 400">
    <path fill-rule="evenodd" clip-rule="evenodd" d="M306 254.655C306.001 248.873 304.829 243.171 302.576 238C273.636 246.193 191.289 257.666 93.4236 238.012C91.1741 243.176 90.002 248.869 90 254.643V285.993C90 297.006 94.1688 306.902 100.8 313.723V329.398C100.8 334.332 102.507 339.063 105.545 342.552C108.583 346.04 112.703 348 117 348C121.297 348 125.417 346.04 128.455 342.552C131.493 339.063 133.2 334.332 133.2 329.398V323.197H262.8V329.398C262.8 334.332 264.507 339.063 267.545 342.552C270.583 346.04 274.704 348 279 348C283.297 348 287.417 346.04 290.455 342.552C293.493 339.063 295.2 334.332 295.2 329.398V313.723C298.598 310.233 301.316 305.96 303.177 301.181C305.038 296.403 306 291.228 306 285.993V254.655ZM149.4 248.789C145.103 248.789 140.983 250.749 137.945 254.238C134.907 257.726 133.2 262.458 133.2 267.391C133.2 272.325 134.907 277.056 137.945 280.545C140.983 284.033 145.103 285.993 149.4 285.993C153.697 285.993 157.817 284.033 160.855 280.545C163.893 277.056 165.6 272.325 165.6 267.391C165.6 262.458 163.893 257.726 160.855 254.238C157.817 250.749 153.697 248.789 149.4 248.789ZM246.6 248.789C242.304 248.789 238.183 250.749 235.145 254.238C232.107 257.726 230.4 262.458 230.4 267.391C230.4 272.325 232.107 277.056 235.145 280.545C238.183 284.033 242.304 285.993 246.6 285.993C250.897 285.993 255.017 284.033 258.055 280.545C261.093 277.056 262.8 272.325 262.8 267.391C262.8 262.458 261.093 257.726 258.055 254.238C255.017 250.749 250.897 248.789 246.6 248.789Z" fill="#00c5f0"/>
     <path fill-rule="evenodd" clip-rule="evenodd" d="M160.794 262.318C157.587 259.112 153.238 257.31 148.703 257.31C144.168 257.31 139.819 259.112 136.612 262.318C133.405 265.525 131.604 269.874 131.604 274.409C131.604 278.944 133.405 283.293 136.612 286.5C139.819 289.707 144.168 291.508 148.703 291.508C153.238 291.508 157.587 289.707 160.794 286.5C164 283.293 165.802 278.944 165.802 274.409C165.802 269.874 164 265.525 160.794 262.318ZM263.388 262.318C260.181 259.112 255.832 257.31 251.297 257.31C246.762 257.31 242.413 259.112 239.206 262.318C235.999 265.525 234.198 269.874 234.198 274.409C234.198 278.944 235.999 283.293 239.206 286.5C242.413 289.707 246.762 291.508 251.297 291.508C255.832 291.508 260.181 289.707 263.388 286.5C266.594 283.293 268.396 278.944 268.396 274.409C268.396 269.874 266.594 265.525 263.388 262.318Z" fill="currentcolor"/>
     <path d="M179.538 140.923C173.462 140.923 168.538 145.848 168.538 151.923V154.716H157.093C150.743 154.716 144.518 156.484 139.116 159.823C133.715 163.161 129.349 167.937 126.508 173.616L110.743 205.135C107.977 204.033 105.248 202.836 102.558 201.544C99.8458 200.202 96.7139 199.982 93.8403 200.931C90.9667 201.881 88.5824 203.923 87.2033 206.617C86.5326 207.959 86.1332 209.42 86.028 210.916C85.9229 212.412 86.1141 213.914 86.5906 215.337C87.0672 216.759 87.8197 218.073 88.8051 219.204C89.7905 220.335 90.9894 221.26 92.333 221.926C95.0265 223.223 97.7558 224.443 100.518 225.586L89.62 247.404C87.2457 252.15 86.0085 257.384 86.0064 262.691V291.508C86.0064 301.631 90.4065 310.727 97.4057 316.997V331.406C97.4057 335.941 99.2072 340.29 102.414 343.497C105.621 346.703 109.97 348.505 114.505 348.505C119.04 348.505 123.389 346.703 126.596 343.497C129.802 340.29 131.604 335.941 131.604 331.406V325.706H268.396V331.406C268.396 335.941 270.197 340.29 273.404 343.497C276.611 346.703 280.96 348.505 285.495 348.505C290.03 348.505 294.379 346.703 297.586 343.497C300.792 340.29 302.594 335.941 302.594 331.406V316.997C306.18 313.789 309.049 309.861 311.014 305.469C312.978 301.077 313.993 296.32 313.993 291.508V262.691C313.993 257.378 312.762 252.146 310.38 247.393L299.482 225.586C299.482 225.586 302.058 224.719 307.69 221.915C310.395 220.564 312.454 218.193 313.411 215.324C314.369 212.455 314.148 209.323 312.796 206.617C311.445 203.911 309.074 201.853 306.205 200.895C303.336 199.938 300.204 200.159 297.498 201.51C294.808 202.844 292.038 203.995 289.257 205.135L273.491 173.616C270.651 167.937 266.285 163.161 260.883 159.823C255.482 156.484 249.257 154.716 242.907 154.716H230.436V151.923C230.436 145.848 225.511 140.923 219.436 140.923H179.538ZM200 245.911C230.949 245.911 258.524 239.538 277.903 233.417L289.986 257.595C290.779 259.177 291.193 260.921 291.195 262.691V291.508C291.195 294.531 289.994 297.431 287.856 299.569C285.718 301.706 282.819 302.907 279.795 302.907H120.204C117.181 302.907 114.282 301.706 112.144 299.569C110.006 297.431 108.805 294.531 108.805 291.508V262.691C108.805 260.917 109.219 259.169 110.013 257.584L122.097 233.417C141.476 239.527 169.051 245.911 200 245.911ZM157.093 177.515H242.907C245.023 177.516 247.098 178.106 248.898 179.219C250.698 180.333 252.152 181.925 253.098 183.818L267.564 212.739C249.929 218.039 226.15 223.112 200 223.112C173.85 223.112 150.071 218.039 132.425 212.739L146.902 183.818C147.848 181.925 149.302 180.333 151.102 179.219C152.902 178.106 154.976 177.516 157.093 177.515Z" fill="currentcolor"/>
     <path d="M144.805 90.252L140.902 94.185L137 90.252L140.902 86.319L144.805 90.252ZM227.598 84.689C229.062 84.689 230.465 85.2751 231.501 86.3184C232.536 87.3616 233.117 88.7766 233.117 90.252C233.117 91.7274 232.536 93.1424 231.501 94.1856C230.465 95.2289 229.062 95.815 227.598 95.815L227.598 84.689ZM168.5 122L140.902 94.185L148.707 86.319L176.305 114.134L168.5 122ZM140.902 86.319L168.5 58.504L176.305 66.37L148.707 94.185L140.902 86.319ZM144.805 84.689L227.598 84.689L227.598 95.815L144.805 95.815L144.805 84.689ZM255.195 45.748L259.098 49.6811L263 45.748L259.098 41.815L255.195 45.748ZM172.402 40.185C170.938 40.185 169.535 40.7711 168.499 41.8144C167.464 42.8577 166.883 44.2726 166.883 45.748C166.883 47.2234 167.464 48.6384 168.499 49.6817C169.535 50.7249 170.938 51.311 172.402 51.311L172.402 40.185ZM231.5 77.496L259.098 49.6811L251.293 41.815L223.695 69.63L231.5 77.496ZM259.098 41.815L231.5 14L223.695 21.8661L251.293 49.6811L259.098 41.815ZM255.195 40.185L172.402 40.185L172.402 51.311L255.195 51.311L255.195 40.185Z" fill="currentcolor"/>
  </symbol>


  <symbol id="tmx-icon-tours" viewBox="0 0 400 400">
    <path d="M302.398 38.9779C290.539 32.1287 277.446 27.6826 263.868 25.8936C250.291 24.1046 236.493 25.0076 223.264 28.5511C210.036 32.0947 197.634 38.2093 186.769 46.5459C175.903 54.8824 166.786 65.2776 159.938 77.1379L156.018 83.9379C154.692 86.2347 154.333 88.9641 155.019 91.5258C155.706 94.0876 157.382 96.2717 159.678 97.5979L236.358 141.878L194.338 215.418C191.127 215.116 187.903 214.969 184.678 214.978C163.944 211.65 131.5 219.5 96.5 269.5C103.006 269.239 101.659 271.6 107.013 275.305C112.367 279.01 116.37 284.357 118.418 290.538C125.378 311.578 150.058 310.098 156.298 291.938C158.325 286.022 162.151 280.888 167.239 277.252C172.328 273.617 178.425 271.663 184.678 271.663L302.398 38.9779Z" fill="#00c5f0"/>
    <path d="M297.85 38.8999C273.914 25.1479 245.51 21.4253 218.839 28.5451C192.168 35.6648 169.397 53.0484 155.5 76.8999L151.7 83.4749C150.875 84.8975 150.34 86.4688 150.123 88.0989C149.907 89.729 150.014 91.3857 150.439 92.9742C150.864 94.5627 151.598 96.0517 152.6 97.3559C153.601 98.6602 154.85 99.754 156.275 100.575L222.475 138.625L181.75 209.8C145.5 214.525 114.75 238.05 95.25 269.65C104.536 267.56 114.268 269.08 122.475 273.9C140.65 249.55 166.975 233.95 195.2 233.95C223.425 233.95 249.75 249.55 267.9 273.925C276.114 269.098 285.857 267.579 295.15 269.675C275.975 238.55 245.9 215.3 210.4 210.05L244.125 151.05L315.125 191.85C317.988 193.494 321.386 193.938 324.576 193.085C327.765 192.233 330.488 190.153 332.15 187.3L335.975 180.7C342.825 168.895 347.273 155.853 349.062 142.323C350.852 128.792 349.948 115.042 346.402 101.863C342.856 88.6833 336.739 76.3354 328.402 65.5296C320.065 54.7239 309.698 45.6736 297.85 38.8999ZM179.75 85.2499C188.877 71.6299 201.992 61.1649 217.298 55.2886C232.605 49.4123 249.353 48.412 265.25 52.4249C256.609 56.8154 248.347 61.9163 240.55 67.6749C227.975 77.1749 218.25 87.9249 208.175 101.6L179.75 85.2499ZM255.6 87.6249C262.55 82.3749 270.675 77.5249 281.15 72.4249C282.5 82.4249 282.8 90.9999 281.75 99.3749C280.35 110.375 276.55 121.85 268.55 136.275L230 114.1C238.5 102.85 246.175 94.7249 255.6 87.5999M316.675 163.9L290.225 148.7C299.475 132.125 304.65 117.525 306.55 102.475C307.55 94.5749 307.575 86.7499 306.975 78.7249C316.675 90.4535 322.756 104.749 324.478 119.871C326.2 134.994 323.489 150.291 316.675 163.9ZM115.375 302.325C114.521 299.753 112.853 297.528 110.625 295.986C108.396 294.443 105.726 293.667 103.018 293.775C100.309 293.882 97.7094 294.866 95.6094 296.58C93.5094 298.293 92.0233 300.643 91.375 303.275C88.225 316.075 82.4 322.775 76.025 326.65C69.2 330.775 60.325 332.475 50 332.475C46.6848 332.475 43.5054 333.792 41.1612 336.136C38.817 338.48 37.5 341.66 37.5 344.975C37.5 348.29 38.817 351.469 41.1612 353.814C43.5054 356.158 46.6848 357.475 50 357.475C62.6 357.475 76.65 355.475 88.95 348.05C95.05 344.35 100.425 339.525 104.85 333.425C128.875 360.425 171.85 360.275 195.225 332.95C219 360.775 263.125 360.45 286.875 331.95C293.388 339.866 301.559 346.255 310.812 350.665C320.066 355.076 330.175 357.401 340.425 357.475C343.74 357.475 346.92 356.158 349.264 353.814C351.608 351.469 352.925 348.29 352.925 344.975C352.925 341.66 351.608 338.48 349.264 336.136C346.92 333.792 343.74 332.475 340.425 332.475C322.525 332.475 304.7 320.775 298.825 302.45C298.016 299.945 296.437 297.759 294.313 296.204C292.189 294.649 289.628 293.804 286.995 293.79C284.363 293.776 281.793 294.594 279.653 296.126C277.512 297.659 275.91 299.828 275.075 302.325C263.45 337.35 218.325 336.75 207.025 303.825C206.175 301.369 204.58 299.239 202.463 297.731C200.346 296.223 197.812 295.413 195.212 295.413C192.613 295.413 190.079 296.223 187.962 297.731C185.845 299.239 184.25 301.369 183.4 303.825C172.075 336.75 126.975 337.35 115.375 302.325Z" fill="currentcolor"/>
  </symbol>

  <symbol id="tmx-icon-car" viewBox="0 0 400 400">
    <path d="M355 212.528C355.002 204.013 353.293 195.615 350.007 188C307.803 200.066 187.713 216.963 44.9927 188.018C41.7123 195.622 40.0029 204.007 40 212.51V258.681C40 274.899 46.0795 289.474 55.75 299.519V322.604C55.75 329.87 58.2391 336.838 62.6696 341.976C67.1002 347.114 73.1093 350 79.375 350C85.6407 350 91.6499 347.114 96.0804 341.976C100.511 336.838 103 329.87 103 322.604V313.472H292V322.604C292 329.87 294.489 336.838 298.92 341.976C303.35 347.114 309.359 350 315.625 350C321.891 350 327.9 347.114 332.33 341.976C336.761 336.838 339.25 329.87 339.25 322.604V299.519C344.205 294.38 348.169 288.086 350.883 281.049C353.597 274.012 355 266.39 355 258.681V212.528ZM126.625 203.89C120.359 203.89 114.35 206.776 109.92 211.914C105.489 217.051 103 224.019 103 231.285C103 238.551 105.489 245.519 109.92 250.657C114.35 255.795 120.359 258.681 126.625 258.681C132.891 258.681 138.9 255.795 143.33 250.657C147.761 245.519 150.25 238.551 150.25 231.285C150.25 224.019 147.761 217.051 143.33 211.914C138.9 206.776 132.891 203.89 126.625 203.89ZM268.375 203.89C262.109 203.89 256.1 206.776 251.67 211.914C247.239 217.051 244.75 224.019 244.75 231.285C244.75 238.551 247.239 245.519 251.67 250.657C256.1 255.795 262.109 258.681 268.375 258.681C274.641 258.681 280.65 255.795 285.08 250.657C289.511 245.519 292 238.551 292 231.285C292 224.019 289.511 217.051 285.08 211.914C280.65 206.776 274.641 203.89 268.375 203.89Z" fill="#00c5f0"/>
    <path d="M262.734 66.6667C272.018 66.6671 281.118 69.2523 289.016 74.1329C296.914 79.0135 303.297 85.9966 307.45 94.3001L330.5 140.383C334.567 138.717 338.617 137.033 342.55 135.083C346.506 133.108 351.085 132.784 355.28 134.184C359.475 135.585 362.941 138.594 364.917 142.55C366.893 146.506 367.216 151.085 365.816 155.28C364.416 159.474 361.406 162.941 357.45 164.917C349.217 169.017 345.45 170.283 345.45 170.283L361.384 202.167C364.867 209.117 366.667 216.767 366.667 224.533V266.667C366.667 273.701 365.182 280.657 362.31 287.079C359.438 293.5 355.244 299.244 350 303.933V325C350 331.631 347.366 337.989 342.678 342.678C337.989 347.366 331.631 350 325 350C318.37 350 312.011 347.366 307.323 342.678C302.634 337.989 300 331.631 300 325V316.667H100V325C100 331.631 97.3663 337.989 92.6779 342.678C87.9895 347.366 81.6306 350 75.0002 350C68.3698 350 62.011 347.366 57.3226 342.678C52.6342 337.989 50.0002 331.631 50.0002 325V303.933C39.7669 294.767 33.3336 281.467 33.3336 266.667V224.533C33.3367 216.774 35.1455 209.123 38.6169 202.183L54.5502 170.283C50.512 168.613 46.5216 166.828 42.5836 164.933C40.6191 163.959 38.8662 162.606 37.4255 160.953C35.9848 159.299 34.8845 157.378 34.1878 155.298C33.491 153.219 33.2115 151.023 33.3652 148.835C33.5189 146.647 34.1029 144.512 35.0836 142.55C37.0998 138.611 40.5858 135.625 44.7873 134.237C48.9888 132.849 53.5678 133.171 57.5336 135.133C61.4669 137.022 65.4558 138.772 69.5002 140.383L92.5502 94.3001C96.7034 85.9966 103.086 79.0135 110.984 74.1329C118.882 69.2523 127.983 66.6671 137.267 66.6667H262.734ZM313.9 181.733C285.567 190.683 245.25 200 200 200C154.75 200 114.434 190.667 86.1002 181.733L68.4336 217.067C67.272 219.384 66.6671 221.941 66.6669 224.533V266.667C66.6669 271.087 68.4229 275.326 71.5485 278.452C74.6741 281.577 78.9133 283.333 83.3336 283.333H316.667C321.087 283.333 325.326 281.577 328.452 278.452C331.578 275.326 333.334 271.087 333.334 266.667V224.533C333.331 221.947 332.726 219.396 331.567 217.083L313.9 181.733ZM125 216.667C131.631 216.667 137.989 219.301 142.678 223.989C147.366 228.677 150 235.036 150 241.667C150 248.297 147.366 254.656 142.678 259.344C137.989 264.033 131.631 266.667 125 266.667C118.37 266.667 112.011 264.033 107.323 259.344C102.634 254.656 100 248.297 100 241.667C100 235.036 102.634 228.677 107.323 223.989C112.011 219.301 118.37 216.667 125 216.667ZM275 216.667C281.631 216.667 287.989 219.301 292.678 223.989C297.366 228.677 300 235.036 300 241.667C300 248.297 297.366 254.656 292.678 259.344C287.989 264.033 281.631 266.667 275 266.667C268.37 266.667 262.011 264.033 257.323 259.344C252.634 254.656 250 248.297 250 241.667C250 235.036 252.634 228.677 257.323 223.989C262.011 219.301 268.37 216.667 275 216.667ZM262.734 100H137.267C134.173 100.002 131.14 100.865 128.508 102.493C125.877 104.12 123.75 106.449 122.367 109.217L101.2 151.5C127 159.25 161.767 166.667 200 166.667C238.234 166.667 273 159.25 298.784 151.5L277.634 109.217C276.25 106.449 274.124 104.12 271.492 102.493C268.861 100.865 265.828 100.002 262.734 100Z" fill="currentcolor"/>
  </symbol>

  <symbol id="tmx-icon-language" viewBox="0 0 400 400">
    <path d="M133.073 249.328C131.321 233.064 130.445 216.721 130.45 200.366C130.45 183.487 131.362 167.072 133.073 151.404H50.2459C45.4262 167.296 42.9855 183.788 43.0001 200.366C43.0001 217.38 45.5361 233.819 50.2459 249.328H133.073ZM59.8279 273.809H136.509C140.431 296.576 146.141 317.226 153.299 334.742C157.909 346.027 163.206 356.26 169.19 365C145.426 358.22 123.396 346.59 104.547 330.873C85.6986 315.156 70.4582 295.709 59.8279 273.809ZM59.8279 126.923H136.509C140.431 104.156 146.141 83.5067 153.299 65.9906C157.909 54.7049 163.206 44.4719 169.19 35.7322C145.426 42.5118 123.396 54.1422 104.547 69.8592C85.6986 85.5761 70.4582 105.024 59.8279 126.923Z" fill="#00c5f0"/>
    <path fill-rule="evenodd" clip-rule="evenodd" d="M176.498 325.647C170.489 310.922 165.492 293.381 161.869 273.809H201.399C193.249 306.875 184.682 328.185 176.498 325.647Z" fill="#00c5f0"/>
    <path fill-rule="evenodd" clip-rule="evenodd" d="M155.435 200.366C155.435 183.315 156.41 166.901 158.209 151.404H223.804C218.782 185.689 213.037 220.176 206.936 249.328H158.209C156.357 233.07 155.431 216.725 155.435 200.366Z" fill="#00c5f0"/>
    <path fill-rule="evenodd" clip-rule="evenodd" d="M161.869 126.923C165.492 107.339 170.489 89.8105 176.486 75.0852C182.932 59.3196 190.278 47.3851 197.798 39.588C205.269 31.8643 212.04 29.0245 217.837 29H217.937C223.733 29 230.517 31.852 238 39.6002C235.357 64.2239 231.679 94.892 227.277 126.923H161.869Z" fill="#00c5f0"/>
    <path d="M199.999 49.9999C214.07 49.9999 230.142 62.6427 243.327 90.8856C249.27 103.628 254.213 118.786 257.813 135.714H142.185C145.785 118.786 150.727 103.628 156.67 90.8856C169.856 62.6427 185.927 49.9999 199.999 49.9999ZM137.256 81.8284C130.027 97.3141 124.256 115.571 120.313 135.714H64.4275C72.9969 117.691 85.067 101.553 99.9348 88.2398C114.802 74.927 132.171 64.7057 151.027 58.1713C145.69 65.598 141.079 73.5201 137.256 81.8284ZM116.899 157.143C115.185 170.857 114.285 185.228 114.285 200C114.285 214.771 115.185 229.143 116.899 242.857H56.2132C52.0796 228.947 49.9864 214.511 49.9989 200C49.9989 185.1 52.1703 170.714 56.2132 157.143H116.899ZM120.313 264.286C124.256 284.428 130.027 302.686 137.256 318.171C141.256 326.728 145.842 334.743 151.027 341.828C132.171 335.294 114.802 325.073 99.9348 311.76C85.067 298.447 72.9969 282.309 64.4275 264.286H120.313ZM142.17 264.286H257.813C254.213 281.214 249.27 296.371 243.327 309.114C230.142 337.357 214.07 350 199.999 350C185.927 350 169.856 337.357 156.67 309.114C150.727 296.371 145.785 281.214 142.185 264.286M261.513 242.857H138.513C136.651 228.647 135.72 214.331 135.727 200C135.727 185.071 136.713 170.7 138.513 157.143H261.513C263.327 170.7 264.299 185.071 264.299 200C264.299 214.928 263.313 229.3 261.513 242.857ZM279.699 264.286H335.585C327.015 282.309 314.945 298.447 300.077 311.76C285.21 325.073 267.841 335.294 248.985 341.828C254.322 334.402 258.933 326.48 262.756 318.171C269.985 302.686 275.756 284.414 279.699 264.286ZM343.799 242.857H283.113C284.827 229.143 285.727 214.771 285.727 200C285.727 185.228 284.827 170.857 283.113 157.143H343.799C347.842 170.714 350.013 185.1 350.013 200C350.013 214.9 347.842 229.286 343.799 242.857ZM248.97 58.1713C267.827 64.7057 285.195 74.927 300.063 88.2398C314.931 101.553 327.001 117.691 335.57 135.714H279.685C275.742 115.571 269.97 97.3141 262.742 81.8284C258.919 73.5201 254.307 65.598 248.97 58.1713ZM199.999 371.428C294.67 371.428 371.427 294.671 371.427 200C371.427 105.328 294.67 28.5713 199.999 28.5713C105.327 28.5713 28.5703 105.328 28.5703 200C28.5703 294.671 105.327 371.428 199.999 371.428Z" fill="currentcolor"/>
  </symbol>     

  <symbol id="tmx-icon-mail-header" viewBox="0 0 400 400">
    <path d="M333.3 91C335.322 91 337.294 91.1722 339.217 91.5167L342.05 92.1667L200.05 234.167L58 92.1333C59.8444 91.6333 61.7333 91.3 63.6667 91.1333L66.6333 91H333.3Z" fill="#00c5f0"/>
    <path d="M333.332 66.6665C341.742 66.6638 349.841 69.8399 356.008 75.5581C362.174 81.2763 365.951 89.1139 366.582 97.4998L366.665 99.9998V300C366.668 308.409 363.492 316.509 357.774 322.676C352.056 328.842 344.218 332.619 335.832 333.25L333.332 333.333H66.6654C58.2558 333.336 50.1559 330.16 43.9896 324.442C37.8232 318.723 34.0461 310.886 33.4154 302.5L33.332 300V99.9998C33.3294 91.5902 36.5055 83.4904 42.2236 77.324C47.9418 71.1577 55.7794 67.3806 64.1654 66.7498L66.6654 66.6665H333.332ZM333.332 123.567L217.665 239.233C212.978 243.915 206.624 246.544 199.999 246.544C193.374 246.544 187.02 243.915 182.332 239.233L66.6654 123.567V300H333.332V123.567ZM309.765 99.9998H90.232L199.999 209.767L309.765 99.9998Z" fill="currentcolor"/>  
  </symbol>

  <symbol id="tmx-icon-phone-header" viewBox="0 0 400 400">
  <path d="M73.7915 236.077C71.227 238.486 66.0447 245.034 63.872 238.397L30 249.424C40.9523 283.182 63.1953 311.088 88.8042 335.069C108.643 353.626 134.715 346.453 152.025 329.217C184.276 297.1 160.929 262.163 135.623 236.969C127.44 228.824 116.421 224.18 104.887 224.013C93.3534 223.847 82.2055 228.172 73.7915 236.077Z" fill="#00c5f0"/>
  <path d="M312.196 335.051C337.805 311.088 360.048 283.182 371 249.406L337.128 238.397C334.581 246.248 332.142 240.716 327.209 236.077C318.794 228.167 307.642 223.838 296.104 224.005C284.566 224.171 273.543 228.819 265.359 236.969C240.071 262.163 216.742 297.1 248.975 329.217C266.285 346.471 292.357 353.626 312.196 335.051Z" fill="#00c5f0"/>
  <path d="M199.999 33.3335C291.949 33.3335 366.665 107.417 366.665 199.05C366.665 221.75 363.849 238.067 359.565 251.267C349.382 282.633 328.332 309.017 304.532 331.267C288.165 346.567 263.882 344.233 249.299 329.733C228.599 309.15 222.932 277.2 245.382 254.9L260.715 239.65C268.374 232.042 278.686 227.703 289.48 227.548C300.274 227.393 310.708 231.433 318.582 238.817C323.199 243.15 325.482 248.317 327.865 240.983C330.882 231.65 333.332 218.867 333.332 199.05C333.332 126.033 273.732 66.6668 199.999 66.6668C126.265 66.6668 66.6654 126.033 66.6654 199.05C66.6654 218.883 69.1154 231.633 72.132 240.983C74.5154 248.317 76.7987 243.15 81.4154 238.817C89.2899 231.433 99.7229 227.393 110.517 227.548C121.311 227.703 131.623 232.042 139.282 239.65L154.615 254.9C177.065 277.2 171.399 309.15 150.699 329.733C136.115 344.233 111.832 346.567 95.4654 331.283C71.4987 308.883 50.682 282.817 40.432 251.283C36.1654 238.05 33.332 221.733 33.332 199.033C33.332 107.417 108.049 33.3335 199.999 33.3335ZM284.199 263.3C274.565 272.867 254.365 287.75 268.865 302.183C272.065 305.35 277.049 311.317 281.765 306.917C292.399 296.984 302.815 285.75 309.815 276.3C304.315 271.133 292.715 254.85 284.199 263.3ZM115.799 263.3C107.299 254.85 95.682 271.133 90.182 276.3C97.182 285.75 107.599 296.967 118.232 306.917C122.932 311.317 127.932 305.367 131.132 302.183C145.632 287.75 125.432 272.867 115.799 263.3Z" fill="currentcolor"/>
  </symbol>

  <symbol id="tmx-icon-call-header" viewBox="0 0 400 400">
  <path fill-rule="evenodd" clip-rule="evenodd" d="M205.875 157.066L179.03 181.66C182.477 194.053 187.429 205.977 193.775 217.166C200.355 228.235 208.208 238.497 217.175 247.741L126.5 255.291C102.3 213.691 89.5249 174.591 82.8499 143.441C72.6999 96.0905 105.675 56.2155 148.575 43.0905C160.233 39.5287 172.81 40.5454 183.744 45.9336C194.678 51.3218 203.147 60.676 207.425 72.0905L218.875 102.666C222.376 111.996 223.009 122.16 220.693 131.853C218.377 141.546 213.216 150.326 205.875 157.066Z" fill="#00c5f0"/>
  <path d="M185.367 85.0334C182.901 78.3204 177.96 72.8053 171.557 69.6194C165.155 66.4335 157.776 65.8184 150.934 67.9001C118.5 77.9001 95.8337 105.733 100.7 137.933C106.177 173.663 118.285 208.054 136.4 239.333C154.349 270.53 177.885 298.156 205.834 320.833C230.967 341.167 266.234 335.567 291.1 312.233C296.331 307.324 299.505 300.613 299.981 293.456C300.457 286.298 298.201 279.226 293.667 273.667L275.867 251.9C272.302 247.523 267.504 244.318 262.095 242.702C256.686 241.085 250.916 241.131 245.534 242.833L204.467 255.833L197.3 248.433C188.274 239.065 180.376 228.672 173.767 217.467C167.366 206.127 162.374 194.049 158.9 181.5L156.134 171.667L187.8 142.5C191.99 138.628 194.929 133.594 196.242 128.041C197.554 122.489 197.18 116.672 195.167 111.333L185.367 85.0334ZM141.134 36.0334C156.105 31.4526 172.262 32.771 186.293 39.7184C200.324 46.6658 211.167 58.7161 216.6 73.4001L226.367 99.6667C230.689 111.205 231.475 123.769 228.625 135.756C225.776 147.742 219.419 158.608 210.367 166.967L194.034 182C196.134 187.8 198.967 194.433 202.634 200.867C206.3 207.2 210.567 212.967 214.467 217.667L235.467 211C247.207 207.293 259.79 207.196 271.587 210.72C283.383 214.244 293.85 221.228 301.634 230.767L319.434 252.533C329.326 264.63 334.257 280.032 333.23 295.624C332.203 311.217 325.294 325.839 313.9 336.533C280.767 367.633 226.667 380.533 184.9 346.733C153.775 321.489 127.561 290.732 107.567 256C87.3536 221.113 73.8436 182.754 67.7337 142.9C59.7337 89.8001 97.8337 49.3667 141.134 36.0667" fill="currentcolor"/>
  </symbol>

</svg>
